<svg xmlns="http://www.w3.org/2000/svg" width="292" height="214.327" viewBox="0 0 292 214.327">
  <g id="Grupo_1178793" data-name="Grupo 1178793" transform="translate(-1018.081 -2044.673)">
    <path id="Rectángulo_455100" data-name="Rectángulo 455100" d="M10,0H282a10,10,0,0,1,10,10V129a0,0,0,0,1,0,0H0a0,0,0,0,1,0,0V10A10,10,0,0,1,10,0Z" transform="translate(1018.081 2125)" fill="#a4c2ff"/>
    <rect id="Rectángulo_455426" data-name="Rectángulo 455426" width="292" height="35" transform="translate(1018.081 2224)" fill="#4d5464"/>
    <g id="_404803260_a4d4d99a-6610-470f-af38-ad5877fd7719" data-name="404803260_a4d4d99a-6610-470f-af38-ad5877fd7719" transform="translate(935.632 2018.682)">
      <circle id="Elipse_13727" data-name="Elipse 13727" cx="49.099" cy="49.099" r="49.099" transform="translate(235.578 136.93) rotate(-45)" fill="#fff4d6"/>
      <circle id="Elipse_13728" data-name="Elipse 13728" cx="34.221" cy="34.221" r="34.221" transform="translate(153.174 74.386) rotate(-45)" fill="#fff4d6"/>
      <g id="Grupo_1178669" data-name="Grupo 1178669" transform="translate(276.951 55.838)">
        <circle id="Elipse_13729" data-name="Elipse 13729" cx="22.122" cy="22.122" r="22.122" transform="translate(0 31.285) rotate(-45)" fill="#ffbe33"/>
        <g id="Grupo_1178662" data-name="Grupo 1178662" transform="translate(24.911 14.567)">
          <path id="Trazado_998647" data-name="Trazado 998647" d="M950.139,224a10.191,10.191,0,0,1-.244,1.26,7.364,7.364,0,0,1-2.424,4.172,8.217,8.217,0,0,1-3.62-2.854,10.773,10.773,0,0,1-.772-1.147c-1.577-2.746-1.763-5.973,2.329-6.783C949.431,217.9,950.52,220.916,950.139,224Z" transform="translate(-942.038 -218.531)" fill="#fff"/>
          <path id="Trazado_998648" data-name="Trazado 998648" d="M953.607,239.335a10.17,10.17,0,0,1-.244,1.26,7.364,7.364,0,0,1-2.424,4.172,8.218,8.218,0,0,1-3.62-2.854,10.777,10.777,0,0,1-.772-1.147,5.053,5.053,0,0,1,7.061-1.432Z" transform="translate(-945.506 -233.869)" fill="#1a1f40"/>
        </g>
        <g id="Grupo_1178663" data-name="Grupo 1178663" transform="translate(15.067 22.715)">
          <path id="Trazado_998649" data-name="Trazado 998649" d="M906.7,255.3a10.19,10.19,0,0,1,.969.842,7.363,7.363,0,0,1,2.4,4.185,8.217,8.217,0,0,1-4.281,1.708,10.764,10.764,0,0,1-1.379.1c-3.166-.007-6.054-1.46-4.709-5.409C901.07,252.867,904.226,253.431,906.7,255.3Z" transform="translate(-899.364 -253.853)" fill="#fff"/>
          <path id="Trazado_998650" data-name="Trazado 998650" d="M921.7,260.134a10.2,10.2,0,0,1,.969.842,7.363,7.363,0,0,1,2.4,4.185,8.217,8.217,0,0,1-4.281,1.708,10.776,10.776,0,0,1-1.379.1,5.053,5.053,0,0,1,2.291-6.831Z" transform="translate(-914.36 -258.685)" fill="#1a1f40"/>
        </g>
        <g id="Grupo_1178664" data-name="Grupo 1178664" transform="translate(17.184 34.602)">
          <path id="Trazado_998651" data-name="Trazado 998651" d="M912.036,306.195a10.153,10.153,0,0,1,1.214-.418,7.365,7.365,0,0,1,4.825.014,8.218,8.218,0,0,1-.661,4.562,10.744,10.744,0,0,1-.607,1.242c-1.589,2.739-4.291,4.513-7.039,1.374C907.112,309.854,909.178,307.4,912.036,306.195Z" transform="translate(-908.54 -305.381)" fill="#fff"/>
          <path id="Trazado_998652" data-name="Trazado 998652" d="M923.651,306.195a10.151,10.151,0,0,1,1.214-.418,7.364,7.364,0,0,1,4.825.014,8.218,8.218,0,0,1-.661,4.562,10.735,10.735,0,0,1-.607,1.242,5.053,5.053,0,0,1-4.771-5.4Z" transform="translate(-920.155 -305.381)" fill="#1a1f40"/>
        </g>
        <g id="Grupo_1178665" data-name="Grupo 1178665" transform="translate(29.49 37.103)">
          <path id="Trazado_998653" data-name="Trazado 998653" d="M961.959,321.656a10.161,10.161,0,0,1,.244-1.26,7.363,7.363,0,0,1,2.424-4.172,8.218,8.218,0,0,1,3.62,2.854,10.759,10.759,0,0,1,.772,1.147c1.577,2.746,1.763,5.973-2.329,6.783C962.667,327.751,961.578,324.736,961.959,321.656Z" transform="translate(-961.888 -316.224)" fill="#fff"/>
          <path id="Trazado_998654" data-name="Trazado 998654" d="M962.2,321.656a10.184,10.184,0,0,1,.244-1.26,7.363,7.363,0,0,1,2.424-4.172,8.217,8.217,0,0,1,3.62,2.854,10.742,10.742,0,0,1,.772,1.147,5.053,5.053,0,0,1-7.061,1.432Z" transform="translate(-962.126 -316.224)" fill="#1a1f40"/>
        </g>
        <g id="Grupo_1178666" data-name="Grupo 1178666" transform="translate(36.799 31.573)">
          <path id="Trazado_998655" data-name="Trazado 998655" d="M996.941,299.082a10.2,10.2,0,0,1-.969-.842,7.364,7.364,0,0,1-2.4-4.185,8.219,8.219,0,0,1,4.281-1.708,10.774,10.774,0,0,1,1.379-.1c3.166.007,6.054,1.46,4.709,5.409C1002.572,301.516,999.416,300.952,996.941,299.082Z" transform="translate(-993.571 -292.251)" fill="#fff"/>
          <path id="Trazado_998656" data-name="Trazado 998656" d="M996.941,299.082a10.2,10.2,0,0,1-.969-.842,7.364,7.364,0,0,1-2.4-4.185,8.219,8.219,0,0,1,4.281-1.708,10.774,10.774,0,0,1,1.379-.1,5.053,5.053,0,0,1-2.291,6.831Z" transform="translate(-993.571 -292.251)" fill="#1a1f40"/>
        </g>
        <g id="Grupo_1178667" data-name="Grupo 1178667" transform="translate(35.748 18.712)">
          <path id="Trazado_998657" data-name="Trazado 998657" d="M995.164,244.94a10.155,10.155,0,0,1-1.214.418,7.365,7.365,0,0,1-4.825-.014,8.22,8.22,0,0,1,.661-4.562,10.777,10.777,0,0,1,.607-1.242c1.589-2.739,4.291-4.513,7.039-1.374C1000.086,241.28,998.022,243.73,995.164,244.94Z" transform="translate(-989.018 -236.499)" fill="#fff"/>
          <path id="Trazado_998658" data-name="Trazado 998658" d="M995.164,255.081a10.144,10.144,0,0,1-1.214.418,7.365,7.365,0,0,1-4.825-.014,8.22,8.22,0,0,1,.661-4.562,10.777,10.777,0,0,1,.607-1.242,5.053,5.053,0,0,1,4.771,5.4Z" transform="translate(-989.018 -246.641)" fill="#1a1f40"/>
        </g>
        <g id="Grupo_1178668" data-name="Grupo 1178668" transform="translate(27.098 27.095)">
          <path id="Trazado_998659" data-name="Trazado 998659" d="M956.5,281.142a4.188,4.188,0,1,1,3.326-4.9A4.193,4.193,0,0,1,956.5,281.142Zm-1.2-6.261a2.187,2.187,0,1,0,2.559,1.737A2.189,2.189,0,0,0,955.3,274.881Z" transform="translate(-951.52 -272.841)" fill="#fff"/>
        </g>
      </g>
      <g id="Grupo_1178676" data-name="Grupo 1178676" transform="translate(116.052 168.287)">
        <g id="Grupo_1178670" data-name="Grupo 1178670" transform="translate(0 20.344)">
          <rect id="Rectángulo_455415" data-name="Rectángulo 455415" width="104.844" height="20.569" transform="translate(104.918 20.63) rotate(180)" fill="#ffbe33"/>
          <rect id="Rectángulo_455416" data-name="Rectángulo 455416" width="42.229" height="14.365" transform="translate(42.229 17.61) rotate(180)" fill="#fff"/>
          <rect id="Rectángulo_455417" data-name="Rectángulo 455417" width="5.627" height="20.711" transform="translate(62.566 20.711) rotate(180)" fill="#fff"/>
          <rect id="Rectángulo_455418" data-name="Rectángulo 455418" width="5.627" height="20.711" transform="translate(75.153 20.711) rotate(180)" fill="#fff"/>
        </g>
        <g id="Grupo_1178671" data-name="Grupo 1178671" transform="translate(0)">
          <rect id="Rectángulo_455419" data-name="Rectángulo 455419" width="104.844" height="20.569" fill="#2ab873"/>
          <rect id="Rectángulo_455420" data-name="Rectángulo 455420" width="67.008" height="14.365" transform="translate(37.909 3.183)" fill="#fff"/>
        </g>
        <g id="Grupo_1178672" data-name="Grupo 1178672" transform="translate(0.395 28.512)">
          <path id="Trazado_998660" data-name="Trazado 998660" d="M173.51,766.686H138.366a.115.115,0,1,1,0-.231H173.51a.115.115,0,1,1,0,.231Z" transform="translate(-138.251 -766.455)" fill="#d4d0ce"/>
        </g>
        <g id="Grupo_1178673" data-name="Grupo 1178673" transform="translate(0.395 33.736)">
          <path id="Trazado_998661" data-name="Trazado 998661" d="M173.51,789.333H138.366a.115.115,0,1,1,0-.231H173.51a.115.115,0,1,1,0,.231Z" transform="translate(-138.251 -789.102)" fill="#d4d0ce"/>
        </g>
        <g id="Grupo_1178674" data-name="Grupo 1178674" transform="translate(47.935 7.494)">
          <path id="Trazado_998662" data-name="Trazado 998662" d="M401.247,675.57H344.453a.115.115,0,0,1,0-.231h56.794a.115.115,0,1,1,0,.231Z" transform="translate(-344.338 -675.339)" fill="#d4d0ce"/>
        </g>
        <g id="Grupo_1178675" data-name="Grupo 1178675" transform="translate(47.935 12.561)">
          <path id="Trazado_998663" data-name="Trazado 998663" d="M401.247,697.539H344.453a.115.115,0,1,1,0-.231h56.794a.115.115,0,1,1,0,.231Z" transform="translate(-344.338 -697.308)" fill="#d4d0ce"/>
        </g>
        <path id="Trazado_998664" data-name="Trazado 998664" d="M212.333,778.058l-3.972-1.956-3.611,1.956v-11.1h7.582Z" transform="translate(-189.016 -738.328)" fill="#ff7242"/>
      </g>
      <g id="Grupo_1178737" data-name="Grupo 1178737" transform="translate(169.954 55.885)">
        <g id="Grupo_1178687" data-name="Grupo 1178687" transform="translate(8.73)">
          <path id="Trazado_998665" data-name="Trazado 998665" d="M545.733,436v16.518H436.052V436l.885-1.816.208-.432.042-.083.669-1.375.461-.948,2.473-5.074H541l2.473,5.074.461.948.669,1.375.042.083.208.432Z" transform="translate(-429.594 -363.826)" fill="#4796ff"/>
          <path id="Trazado_998666" data-name="Trazado 998666" d="M457.661,457.278v-11.7l2.871-6.64H554.5l2.871,6.64v11.7Z" transform="translate(-446.218 -373.578)" fill="#1a1f40"/>
          <g id="Grupo_1178677" data-name="Grupo 1178677" transform="translate(0 74.908)">
            <path id="Trazado_998667" data-name="Trazado 998667" d="M410.785,480.315h3.728v12.272h-3.728a2.721,2.721,0,0,1-2.731-2.711v-6.849A2.721,2.721,0,0,1,410.785,480.315Z" transform="translate(-408.054 -480.315)" fill="#ffbe33"/>
            <path id="Trazado_998668" data-name="Trazado 998668" d="M915.255,480.315h-3.728v12.272h3.728a2.721,2.721,0,0,0,2.731-2.711v-6.849A2.721,2.721,0,0,0,915.255,480.315Z" transform="translate(-795.387 -480.315)" fill="#ffbe33"/>
          </g>
          <g id="Grupo_1178679" data-name="Grupo 1178679" transform="translate(109.732 62.43)">
            <g id="Grupo_1178678" data-name="Grupo 1178678" transform="translate(4.489 0)">
              <rect id="Rectángulo_455421" data-name="Rectángulo 455421" width="19.623" height="1.816" transform="translate(18.881 7.095) rotate(-164.188)" fill="#4796ff"/>
              <path id="Trazado_998669" data-name="Trazado 998669" d="M975.93,446.853a2.067,2.067,0,0,1,1.426,2.552h0a2.067,2.067,0,0,1-2.552,1.426l-2.853-.808a2.067,2.067,0,0,1-1.426-2.552l.563-1.989Z" transform="translate(-954.935 -441.039)" fill="#4796ff"/>
            </g>
            <path id="Trazado_998670" data-name="Trazado 998670" d="M883.747,426.267v4.989h3.5l1.488-3.1v-1.885Z" transform="translate(-883.747 -426.257)" fill="#4796ff"/>
          </g>
          <g id="Grupo_1178686" data-name="Grupo 1178686" transform="translate(24.078)">
            <path id="Trazado_998671" data-name="Trazado 998671" d="M587.063,171.82v67.731h-74.28V155.933h58.394Z" transform="translate(-512.702 -155.852)" fill="#fff"/>
            <g id="Grupo_1178680" data-name="Grupo 1178680" transform="translate(0 0)">
              <path id="Trazado_998672" data-name="Trazado 998672" d="M586.794,239.363h-74.28a.081.081,0,0,1-.081-.081V155.664a.081.081,0,0,1,.081-.081h58.394a.081.081,0,0,1,.057.024l15.887,15.887a.082.082,0,0,1,.024.057v67.731A.081.081,0,0,1,586.794,239.363Zm-74.2-.161h74.119V171.584l-15.839-15.839H512.594Z" transform="translate(-512.433 -155.583)" fill="#1a1f40"/>
            </g>
            <path id="Trazado_998673" data-name="Trazado 998673" d="M781.81,171.82H765.923V155.933Z" transform="translate(-707.449 -155.852)" fill="#fff"/>
            <g id="Grupo_1178681" data-name="Grupo 1178681" transform="translate(58.394)">
              <path id="Trazado_998674" data-name="Trazado 998674" d="M781.541,171.631H765.654a.081.081,0,0,1-.081-.081V155.664a.081.081,0,0,1,.138-.057L781.6,171.494a.081.081,0,0,1-.057.138Zm-15.806-.161h15.611l-15.611-15.611Z" transform="translate(-765.573 -155.583)" fill="#1a1f40"/>
            </g>
            <g id="Grupo_1178682" data-name="Grupo 1178682" transform="translate(10.907 13.974)">
              <path id="Trazado_998675" data-name="Trazado 998675" d="M592.327,216.391h-32.5a.115.115,0,0,1,0-.231h32.5a.115.115,0,0,1,0,.231Z" transform="translate(-559.716 -216.16)" fill="#d4d0ce"/>
            </g>
            <g id="Grupo_1178683" data-name="Grupo 1178683" transform="translate(10.907 29.096)">
              <path id="Trazado_998676" data-name="Trazado 998676" d="M614.171,281.949H559.831a.115.115,0,0,1,0-.231h54.339a.115.115,0,1,1,0,.231Z" transform="translate(-559.716 -281.718)" fill="#d4d0ce"/>
            </g>
            <g id="Grupo_1178684" data-name="Grupo 1178684" transform="translate(10.907 45.569)">
              <path id="Trazado_998677" data-name="Trazado 998677" d="M614.171,353.359H559.831a.115.115,0,0,1,0-.231h54.339a.115.115,0,1,1,0,.231Z" transform="translate(-559.716 -353.128)" fill="#d4d0ce"/>
            </g>
            <g id="Grupo_1178685" data-name="Grupo 1178685" transform="translate(10.907 59.704)">
              <path id="Trazado_998678" data-name="Trazado 998678" d="M614.171,414.633H559.831a.115.115,0,0,1,0-.231h54.339a.115.115,0,1,1,0,.231Z" transform="translate(-559.716 -414.402)" fill="#d4d0ce"/>
            </g>
          </g>
        </g>
        <g id="Grupo_1178733" data-name="Grupo 1178733" transform="translate(0 103.387)">
          <path id="Trazado_998679" data-name="Trazado 998679" d="M510.266,648.8v5.041H370.207V638.977a131.938,131.938,0,0,0,13.285-33.689l.233-.947.137-.569H496.627l.079.278.362,1.508a125.271,125.271,0,0,0,13.194,33.419q.012,4.912,0,9.824h0Z" transform="translate(-370.207 -603.771)" fill="#4796ff"/>
          <g id="Grupo_1178688" data-name="Grupo 1178688" transform="translate(1.978 1.985)">
            <path id="Trazado_998680" data-name="Trazado 998680" d="M514.884,646.283v14.178H378.78V646.283a137.912,137.912,0,0,0,13.229-33.909l109.732.263a131.175,131.175,0,0,0,13.143,33.646Z" transform="translate(-378.78 -612.374)" fill="#2466d4"/>
          </g>
          <g id="Grupo_1178732" data-name="Grupo 1178732" transform="translate(15.428 4.05)">
            <g id="Grupo_1178699" data-name="Grupo 1178699" transform="translate(5.1)">
              <g id="Grupo_1178689" data-name="Grupo 1178689" transform="translate(20.386)">
                <path id="Trazado_998681" data-name="Trazado 998681" d="M547.574,628.777v1.972a9.027,9.027,0,0,0,7.264.088v-2.06Z" transform="translate(-547.574 -627.059)" fill="#1a1f40"/>
                <ellipse id="Elipse_13730" data-name="Elipse 13730" cx="3.632" cy="1.718" rx="3.632" ry="1.718" fill="#ffbe33"/>
              </g>
              <g id="Grupo_1178690" data-name="Grupo 1178690">
                <path id="Trazado_998682" data-name="Trazado 998682" d="M459.2,628.777v1.972a9.027,9.027,0,0,0,7.264.088v-2.06Z" transform="translate(-459.198 -627.059)" fill="#1a1f40"/>
                <ellipse id="Elipse_13731" data-name="Elipse 13731" cx="3.632" cy="1.718" rx="3.632" ry="1.718" fill="#ffbe33"/>
              </g>
              <g id="Grupo_1178691" data-name="Grupo 1178691" transform="translate(10.193)">
                <path id="Trazado_998683" data-name="Trazado 998683" d="M503.386,628.777v1.972a9.027,9.027,0,0,0,7.264.088v-2.06Z" transform="translate(-503.386 -627.059)" fill="#1a1f40"/>
                <ellipse id="Elipse_13732" data-name="Elipse 13732" cx="3.632" cy="1.718" rx="3.632" ry="1.718" fill="#ffbe33"/>
              </g>
              <g id="Grupo_1178692" data-name="Grupo 1178692" transform="translate(40.773)">
                <path id="Trazado_998684" data-name="Trazado 998684" d="M635.95,628.777v1.972a9.027,9.027,0,0,0,7.264.088v-2.06Z" transform="translate(-635.95 -627.059)" fill="#1a1f40"/>
                <ellipse id="Elipse_13733" data-name="Elipse 13733" cx="3.632" cy="1.718" rx="3.632" ry="1.718" fill="#ffbe33"/>
              </g>
              <g id="Grupo_1178693" data-name="Grupo 1178693" transform="translate(30.58)">
                <path id="Trazado_998685" data-name="Trazado 998685" d="M591.762,628.777v1.972a9.027,9.027,0,0,0,7.264.088v-2.06Z" transform="translate(-591.762 -627.059)" fill="#1a1f40"/>
                <ellipse id="Elipse_13734" data-name="Elipse 13734" cx="3.632" cy="1.718" rx="3.632" ry="1.718" fill="#ffbe33"/>
              </g>
              <g id="Grupo_1178694" data-name="Grupo 1178694" transform="translate(61.159)">
                <path id="Trazado_998686" data-name="Trazado 998686" d="M724.326,628.777v1.972a9.027,9.027,0,0,0,7.264.088v-2.06Z" transform="translate(-724.326 -627.059)" fill="#1a1f40"/>
                <ellipse id="Elipse_13735" data-name="Elipse 13735" cx="3.632" cy="1.718" rx="3.632" ry="1.718" fill="#ffbe33"/>
              </g>
              <g id="Grupo_1178695" data-name="Grupo 1178695" transform="translate(50.966)">
                <path id="Trazado_998687" data-name="Trazado 998687" d="M680.138,628.777v1.972a9.027,9.027,0,0,0,7.264.088v-2.06Z" transform="translate(-680.138 -627.059)" fill="#1a1f40"/>
                <ellipse id="Elipse_13736" data-name="Elipse 13736" cx="3.632" cy="1.718" rx="3.632" ry="1.718" fill="#ffbe33"/>
              </g>
              <g id="Grupo_1178696" data-name="Grupo 1178696" transform="translate(71.352)">
                <path id="Trazado_998688" data-name="Trazado 998688" d="M768.514,628.777v1.972a9.027,9.027,0,0,0,7.264.088v-2.06Z" transform="translate(-768.514 -627.059)" fill="#1a1f40"/>
                <ellipse id="Elipse_13737" data-name="Elipse 13737" cx="3.632" cy="1.718" rx="3.632" ry="1.718" fill="#ffbe33"/>
              </g>
              <g id="Grupo_1178697" data-name="Grupo 1178697" transform="translate(81.545)">
                <path id="Trazado_998689" data-name="Trazado 998689" d="M812.7,628.777v1.972a9.027,9.027,0,0,0,7.264.088v-2.06Z" transform="translate(-812.702 -627.059)" fill="#1a1f40"/>
                <ellipse id="Elipse_13738" data-name="Elipse 13738" cx="3.632" cy="1.718" rx="3.632" ry="1.718" fill="#ffbe33"/>
              </g>
              <g id="Grupo_1178698" data-name="Grupo 1178698" transform="translate(91.739)">
                <path id="Trazado_998690" data-name="Trazado 998690" d="M856.89,628.777v1.972a9.027,9.027,0,0,0,7.264.088v-2.06Z" transform="translate(-856.89 -627.059)" fill="#1a1f40"/>
                <ellipse id="Elipse_13739" data-name="Elipse 13739" cx="3.632" cy="1.718" rx="3.632" ry="1.718" fill="#ffbe33"/>
              </g>
            </g>
            <g id="Grupo_1178711" data-name="Grupo 1178711" transform="translate(0 7.847)">
              <g id="Grupo_1178700" data-name="Grupo 1178700" transform="translate(30.586)">
                <path id="Trazado_998691" data-name="Trazado 998691" d="M569.683,662.795v1.972a9.028,9.028,0,0,0,7.264.088v-2.06h-7.264Z" transform="translate(-569.683 -661.077)" fill="#1a1f40"/>
                <ellipse id="Elipse_13740" data-name="Elipse 13740" cx="3.632" cy="1.718" rx="3.632" ry="1.718" fill="#ffbe33"/>
              </g>
              <g id="Grupo_1178701" data-name="Grupo 1178701" transform="translate(10.2)">
                <path id="Trazado_998692" data-name="Trazado 998692" d="M481.307,662.795v1.972a9.028,9.028,0,0,0,7.264.088v-2.06h-7.264Z" transform="translate(-481.307 -661.077)" fill="#1a1f40"/>
                <ellipse id="Elipse_13741" data-name="Elipse 13741" cx="3.632" cy="1.718" rx="3.632" ry="1.718" fill="#ffbe33"/>
              </g>
              <g id="Grupo_1178702" data-name="Grupo 1178702" transform="translate(20.393)">
                <path id="Trazado_998693" data-name="Trazado 998693" d="M525.495,662.795v1.972a9.028,9.028,0,0,0,7.264.088v-2.06h-7.264Z" transform="translate(-525.495 -661.077)" fill="#1a1f40"/>
                <ellipse id="Elipse_13742" data-name="Elipse 13742" cx="3.632" cy="1.718" rx="3.632" ry="1.718" fill="#ffbe33"/>
              </g>
              <g id="Grupo_1178703" data-name="Grupo 1178703" transform="translate(50.973)">
                <path id="Trazado_998694" data-name="Trazado 998694" d="M658.059,662.795v1.972a9.028,9.028,0,0,0,7.264.088v-2.06h-7.264Z" transform="translate(-658.059 -661.077)" fill="#1a1f40"/>
                <ellipse id="Elipse_13743" data-name="Elipse 13743" cx="3.632" cy="1.718" rx="3.632" ry="1.718" fill="#ffbe33"/>
              </g>
              <g id="Grupo_1178704" data-name="Grupo 1178704" transform="translate(40.78)">
                <path id="Trazado_998695" data-name="Trazado 998695" d="M613.871,662.795v1.972a9.028,9.028,0,0,0,7.264.088v-2.06h-7.264Z" transform="translate(-613.871 -661.077)" fill="#1a1f40"/>
                <ellipse id="Elipse_13744" data-name="Elipse 13744" cx="3.632" cy="1.718" rx="3.632" ry="1.718" fill="#ffbe33"/>
              </g>
              <g id="Grupo_1178705" data-name="Grupo 1178705" transform="translate(71.359)">
                <path id="Trazado_998696" data-name="Trazado 998696" d="M746.435,662.795v1.972a9.028,9.028,0,0,0,7.264.088v-2.06h-7.264Z" transform="translate(-746.435 -661.077)" fill="#1a1f40"/>
                <ellipse id="Elipse_13745" data-name="Elipse 13745" cx="3.632" cy="1.718" rx="3.632" ry="1.718" fill="#ffbe33"/>
              </g>
              <g id="Grupo_1178706" data-name="Grupo 1178706" transform="translate(61.166)">
                <path id="Trazado_998697" data-name="Trazado 998697" d="M702.247,662.795v1.972a9.028,9.028,0,0,0,7.264.088v-2.06h-7.264Z" transform="translate(-702.247 -661.077)" fill="#1a1f40"/>
                <ellipse id="Elipse_13746" data-name="Elipse 13746" cx="3.632" cy="1.718" rx="3.632" ry="1.718" fill="#ffbe33"/>
              </g>
              <g id="Grupo_1178707" data-name="Grupo 1178707" transform="translate(81.552)">
                <path id="Trazado_998698" data-name="Trazado 998698" d="M790.623,662.795v1.972a9.028,9.028,0,0,0,7.264.088v-2.06h-7.264Z" transform="translate(-790.623 -661.077)" fill="#1a1f40"/>
                <ellipse id="Elipse_13747" data-name="Elipse 13747" cx="3.632" cy="1.718" rx="3.632" ry="1.718" fill="#ffbe33"/>
              </g>
              <g id="Grupo_1178708" data-name="Grupo 1178708" transform="translate(91.745)">
                <path id="Trazado_998699" data-name="Trazado 998699" d="M834.811,662.795v1.972a9.028,9.028,0,0,0,7.264.088v-2.06h-7.264Z" transform="translate(-834.811 -661.077)" fill="#1a1f40"/>
                <ellipse id="Elipse_13748" data-name="Elipse 13748" cx="3.632" cy="1.718" rx="3.632" ry="1.718" fill="#ffbe33"/>
              </g>
              <g id="Grupo_1178709" data-name="Grupo 1178709" transform="translate(101.939)">
                <path id="Trazado_998700" data-name="Trazado 998700" d="M879,662.795v1.972a9.027,9.027,0,0,0,7.264.088v-2.06H879Z" transform="translate(-878.999 -661.077)" fill="#1a1f40"/>
                <ellipse id="Elipse_13749" data-name="Elipse 13749" cx="3.632" cy="1.718" rx="3.632" ry="1.718" fill="#ffbe33"/>
              </g>
              <g id="Grupo_1178710" data-name="Grupo 1178710">
                <path id="Trazado_998701" data-name="Trazado 998701" d="M437.089,662.795v1.972a9.028,9.028,0,0,0,7.264.088v-2.06h-7.264Z" transform="translate(-437.089 -661.077)" fill="#1a1f40"/>
                <ellipse id="Elipse_13750" data-name="Elipse 13750" cx="3.632" cy="1.718" rx="3.632" ry="1.718" fill="#ffbe33"/>
              </g>
            </g>
            <g id="Grupo_1178722" data-name="Grupo 1178722" transform="translate(5.1 15.695)">
              <g id="Grupo_1178712" data-name="Grupo 1178712" transform="translate(20.386)">
                <path id="Trazado_998702" data-name="Trazado 998702" d="M547.574,696.814v1.972a9.027,9.027,0,0,0,7.264.088v-2.06h-7.264Z" transform="translate(-547.574 -695.096)" fill="#1a1f40"/>
                <ellipse id="Elipse_13751" data-name="Elipse 13751" cx="3.632" cy="1.718" rx="3.632" ry="1.718" fill="#ffbe33"/>
              </g>
              <g id="Grupo_1178713" data-name="Grupo 1178713">
                <path id="Trazado_998703" data-name="Trazado 998703" d="M459.2,696.814v1.972a9.027,9.027,0,0,0,7.264.088v-2.06H459.2Z" transform="translate(-459.198 -695.096)" fill="#1a1f40"/>
                <ellipse id="Elipse_13752" data-name="Elipse 13752" cx="3.632" cy="1.718" rx="3.632" ry="1.718" fill="#ffbe33"/>
              </g>
              <g id="Grupo_1178714" data-name="Grupo 1178714" transform="translate(10.193)">
                <path id="Trazado_998704" data-name="Trazado 998704" d="M503.386,696.814v1.972a9.027,9.027,0,0,0,7.264.088v-2.06h-7.264Z" transform="translate(-503.386 -695.096)" fill="#1a1f40"/>
                <ellipse id="Elipse_13753" data-name="Elipse 13753" cx="3.632" cy="1.718" rx="3.632" ry="1.718" fill="#ffbe33"/>
              </g>
              <g id="Grupo_1178715" data-name="Grupo 1178715" transform="translate(40.773)">
                <path id="Trazado_998705" data-name="Trazado 998705" d="M635.95,696.814v1.972a9.027,9.027,0,0,0,7.264.088v-2.06H635.95Z" transform="translate(-635.95 -695.096)" fill="#1a1f40"/>
                <ellipse id="Elipse_13754" data-name="Elipse 13754" cx="3.632" cy="1.718" rx="3.632" ry="1.718" fill="#ffbe33"/>
              </g>
              <g id="Grupo_1178716" data-name="Grupo 1178716" transform="translate(30.58)">
                <path id="Trazado_998706" data-name="Trazado 998706" d="M591.762,696.814v1.972a9.027,9.027,0,0,0,7.264.088v-2.06h-7.264Z" transform="translate(-591.762 -695.096)" fill="#1a1f40"/>
                <ellipse id="Elipse_13755" data-name="Elipse 13755" cx="3.632" cy="1.718" rx="3.632" ry="1.718" fill="#ffbe33"/>
              </g>
              <g id="Grupo_1178717" data-name="Grupo 1178717" transform="translate(61.159)">
                <path id="Trazado_998707" data-name="Trazado 998707" d="M724.326,696.814v1.972a9.027,9.027,0,0,0,7.264.088v-2.06h-7.264Z" transform="translate(-724.326 -695.096)" fill="#1a1f40"/>
                <ellipse id="Elipse_13756" data-name="Elipse 13756" cx="3.632" cy="1.718" rx="3.632" ry="1.718" fill="#ffbe33"/>
              </g>
              <g id="Grupo_1178718" data-name="Grupo 1178718" transform="translate(50.966)">
                <path id="Trazado_998708" data-name="Trazado 998708" d="M680.138,696.814v1.972a9.027,9.027,0,0,0,7.264.088v-2.06h-7.264Z" transform="translate(-680.138 -695.096)" fill="#1a1f40"/>
                <ellipse id="Elipse_13757" data-name="Elipse 13757" cx="3.632" cy="1.718" rx="3.632" ry="1.718" fill="#ffbe33"/>
              </g>
              <g id="Grupo_1178719" data-name="Grupo 1178719" transform="translate(71.352)">
                <path id="Trazado_998709" data-name="Trazado 998709" d="M768.514,696.814v1.972a9.027,9.027,0,0,0,7.264.088v-2.06h-7.264Z" transform="translate(-768.514 -695.096)" fill="#1a1f40"/>
                <ellipse id="Elipse_13758" data-name="Elipse 13758" cx="3.632" cy="1.718" rx="3.632" ry="1.718" fill="#ffbe33"/>
              </g>
              <g id="Grupo_1178720" data-name="Grupo 1178720" transform="translate(81.545)">
                <path id="Trazado_998710" data-name="Trazado 998710" d="M812.7,696.814v1.972a9.027,9.027,0,0,0,7.264.088v-2.06H812.7Z" transform="translate(-812.702 -695.096)" fill="#1a1f40"/>
                <ellipse id="Elipse_13759" data-name="Elipse 13759" cx="3.632" cy="1.718" rx="3.632" ry="1.718" fill="#ffbe33"/>
              </g>
              <g id="Grupo_1178721" data-name="Grupo 1178721" transform="translate(91.739)">
                <path id="Trazado_998711" data-name="Trazado 998711" d="M856.89,696.814v1.972a9.027,9.027,0,0,0,7.264.088v-2.06H856.89Z" transform="translate(-856.89 -695.096)" fill="#1a1f40"/>
                <ellipse id="Elipse_13760" data-name="Elipse 13760" cx="3.632" cy="1.718" rx="3.632" ry="1.718" fill="#ffbe33"/>
              </g>
            </g>
            <g id="Grupo_1178731" data-name="Grupo 1178731" transform="translate(0 22.485)">
              <g id="Grupo_1178723" data-name="Grupo 1178723" transform="translate(10.2 1.061)">
                <path id="Trazado_998712" data-name="Trazado 998712" d="M481.307,730.85v1.972a9.028,9.028,0,0,0,7.264.088v-2.06Z" transform="translate(-481.307 -729.132)" fill="#1a1f40"/>
                <ellipse id="Elipse_13761" data-name="Elipse 13761" cx="3.632" cy="1.718" rx="3.632" ry="1.718" fill="#ffbe33"/>
              </g>
              <g id="Grupo_1178724" data-name="Grupo 1178724" transform="translate(20.393 1.061)">
                <path id="Trazado_998713" data-name="Trazado 998713" d="M525.495,730.85v1.972a9.028,9.028,0,0,0,7.264.088v-2.06Z" transform="translate(-525.495 -729.132)" fill="#1a1f40"/>
                <ellipse id="Elipse_13762" data-name="Elipse 13762" cx="3.632" cy="1.718" rx="3.632" ry="1.718" fill="#ffbe33"/>
              </g>
              <g id="Grupo_1178725" data-name="Grupo 1178725" transform="translate(71.359 1.061)">
                <path id="Trazado_998714" data-name="Trazado 998714" d="M746.435,730.85v1.972a9.028,9.028,0,0,0,7.264.088v-2.06Z" transform="translate(-746.435 -729.132)" fill="#1a1f40"/>
                <ellipse id="Elipse_13763" data-name="Elipse 13763" cx="3.632" cy="1.718" rx="3.632" ry="1.718" fill="#ffbe33"/>
              </g>
              <g id="Grupo_1178726" data-name="Grupo 1178726" transform="translate(81.552 1.061)">
                <path id="Trazado_998715" data-name="Trazado 998715" d="M790.623,730.85v1.972a9.028,9.028,0,0,0,7.264.088v-2.06Z" transform="translate(-790.623 -729.132)" fill="#1a1f40"/>
                <ellipse id="Elipse_13764" data-name="Elipse 13764" cx="3.632" cy="1.718" rx="3.632" ry="1.718" fill="#ffbe33"/>
              </g>
              <g id="Grupo_1178727" data-name="Grupo 1178727" transform="translate(91.745 1.061)">
                <path id="Trazado_998716" data-name="Trazado 998716" d="M834.811,730.85v1.972a9.028,9.028,0,0,0,7.264.088v-2.06Z" transform="translate(-834.811 -729.132)" fill="#1a1f40"/>
                <ellipse id="Elipse_13765" data-name="Elipse 13765" cx="3.632" cy="1.718" rx="3.632" ry="1.718" fill="#ffbe33"/>
              </g>
              <g id="Grupo_1178728" data-name="Grupo 1178728" transform="translate(101.939 1.061)">
                <path id="Trazado_998717" data-name="Trazado 998717" d="M879,730.85v1.972a9.028,9.028,0,0,0,7.264.088v-2.06Z" transform="translate(-878.999 -729.132)" fill="#1a1f40"/>
                <ellipse id="Elipse_13766" data-name="Elipse 13766" cx="3.632" cy="1.718" rx="3.632" ry="1.718" fill="#ffbe33"/>
              </g>
              <g id="Grupo_1178729" data-name="Grupo 1178729" transform="translate(0 1.061)">
                <path id="Trazado_998718" data-name="Trazado 998718" d="M437.089,730.85v1.972a9.028,9.028,0,0,0,7.264.088v-2.06Z" transform="translate(-437.089 -729.132)" fill="#1a1f40"/>
                <ellipse id="Elipse_13767" data-name="Elipse 13767" cx="3.632" cy="1.718" rx="3.632" ry="1.718" fill="#ffbe33"/>
              </g>
              <g id="Grupo_1178730" data-name="Grupo 1178730" transform="translate(30.659)">
                <path id="Trazado_998719" data-name="Trazado 998719" d="M570,728.844v2.346a97.809,97.809,0,0,0,37.772.056q-.011-1.258-.023-2.517Z" transform="translate(-569.996 -726.439)" fill="#1a1f40"/>
                <ellipse id="Elipse_13768" data-name="Elipse 13768" cx="18.886" cy="2.405" rx="18.886" ry="2.405" fill="#ffbe33"/>
              </g>
            </g>
          </g>
        </g>
        <g id="Grupo_1178734" data-name="Grupo 1178734" transform="translate(16.282 67.314)">
          <path id="Trazado_998720" data-name="Trazado 998720" d="M548.285,453.829h-107.5l.042-.083.669-1.375H547.574l.669,1.375Z" transform="translate(-440.789 -451.222)" fill="#4796ff"/>
          <path id="Trazado_998721" data-name="Trazado 998721" d="M811.3,447.392h-7.737a.419.419,0,0,0-.419.419V450h8.575v-2.188A.418.418,0,0,0,811.3,447.392Z" transform="translate(-719.555 -447.392)" fill="#4796ff"/>
          <path id="Trazado_998722" data-name="Trazado 998722" d="M515.42,447.392h-7.737a.419.419,0,0,0-.419.419V450h8.574v-2.188A.418.418,0,0,0,515.42,447.392Z" transform="translate(-491.93 -447.392)" fill="#4796ff"/>
        </g>
        <g id="Grupo_1178736" data-name="Grupo 1178736" transform="translate(13.651 72.302)">
          <g id="Grupo_1178735" data-name="Grupo 1178735">
            <path id="Trazado_998723" data-name="Trazado 998723" d="M542.146,500.1H429.385l1.774-20.473c.042-.756.49-7.2,4.692-9.718a6.657,6.657,0,0,1,2.572-.894h94.684a6.658,6.658,0,0,1,2.572.894c4.2,2.514,4.65,8.963,4.692,9.718Z" transform="translate(-429.385 -469.016)" fill="#4796ff"/>
            <path id="Trazado_998724" data-name="Trazado 998724" d="M591.594,500.07l-1.808,8.468H533.724l-1.808-8.468Z" transform="translate(-508.264 -492.906)" fill="#1a1f40"/>
            <path id="Trazado_998725" data-name="Trazado 998725" d="M665.852,469.8v2.566h-6.8V469.8c0-.436.748-.788,1.675-.788h.864v1.778c0,.225.386.4.86.4s.86-.18.86-.4v-1.778h.864C665.1,469.015,665.852,469.367,665.852,469.8Z" transform="translate(-606.074 -469.015)" fill="#4796ff"/>
          </g>
        </g>
        <rect id="Rectángulo_455422" data-name="Rectángulo 455422" width="140.058" height="14.864" transform="translate(0 138.592)" fill="#4796ff"/>
      </g>
      <g id="Grupo_1178778" data-name="Grupo 1178778" transform="translate(126.015 62.409)">
        <path id="Trazado_998726" data-name="Trazado 998726" d="M277.013,205.656c-.75-1.234-2.144-1.954-2.95-3.152l-6.479-5.165c-3.727,1.444-.616,5.219-4.459,7.2-1.13.581-1.227,2.737-.431,3.589,1.36,1.759,3.65,2.343,5.795,2.931C272.019,212.238,279.549,210.7,277.013,205.656Z" transform="translate(-243.156 -194.231)" fill="#1a1f40"/>
        <path id="Trazado_998727" data-name="Trazado 998727" d="M331.576,265.452c-2.256-3.447-4.348-7.488-6.438-10.283-3.293-4.4-6.619.844-5.494,4.429,1.355,4.318,3.287,6.867,5.695,10.5C329.477,276.177,334.9,271.291,331.576,265.452Z" transform="translate(-287.198 -237.429)" fill="#ffc1a6"/>
        <path id="Trazado_998728" data-name="Trazado 998728" d="M317.166,266.033l8.414-5.834s-4.557-8.938-7.84-9.609-4.543,1.19-4.44,3.714C313.511,259.46,317.166,266.033,317.166,266.033Z" transform="translate(-282.484 -235.093)" fill="#4796ff"/>
        <path id="Trazado_998729" data-name="Trazado 998729" d="M341.649,278.2l-2.184-8.048.845,9.021Z" transform="translate(-302.618 -250.245)" fill="#1a1f40"/>
        <path id="Trazado_998730" data-name="Trazado 998730" d="M283.179,266.9c-1.543.962-9.94-.367-9.94-.367s-1.473-11.1-4.108-16.113c-.649-1.236,4.962-2.443,7.2-2.45l2.2-.1a30.552,30.552,0,0,1,5.557,1.277C286.961,250.524,283.179,266.9,283.179,266.9Z" transform="translate(-248.469 -233.107)" fill="#fff"/>
        <path id="Trazado_998731" data-name="Trazado 998731" d="M298.131,247.5s-.088,2.842-2.365,3.018-3.332-2.976-3.332-2.976A10.854,10.854,0,0,1,298.131,247.5Z" transform="translate(-266.436 -232.545)" fill="#ffc1a6"/>
        <path id="Trazado_998732" data-name="Trazado 998732" d="M294.043,359.7l-5.028-17.373c-3.042-10.51,8.185-14.59,11.226-4.08l5.028,17.373C307.908,364.731,296.681,368.811,294.043,359.7Z" transform="translate(-263.408 -297.913)" fill="#ffc1a6"/>
        <path id="Trazado_998733" data-name="Trazado 998733" d="M251.951,432.006c6.516-11.26,16.4-4.236,11.655,4.49l-17.021,29.523L236.1,459.792Z" transform="translate(-223.101 -370.282)" fill="#ffac87"/>
        <g id="Grupo_1178738" data-name="Grupo 1178738" transform="translate(8.008 82.766)">
          <path id="Trazado_998734" data-name="Trazado 998734" d="M231.695,546.866l8.1.233s-3.4,3.236-3.534,3.874c-.608,2.848,4.539,6.241-1.282,13.353L225.6,555.6l.291-4.023-2.528,1.774-3.6-3.62,7.8-7.071Z" transform="translate(-218.538 -542.661)" fill="#1a1f40"/>
          <rect id="Rectángulo_455423" data-name="Rectángulo 455423" width="5.107" height="1.725" transform="matrix(0.705, 0.709, -0.709, 0.705, 1.223, 7.068)" fill="#ffc233"/>
          <path id="Trazado_998735" data-name="Trazado 998735" d="M249.063,608.61l-9.4-8.752,1.223-1.217,9.4,8.752Z" transform="translate(-233.848 -585.728)" fill="#ffc233"/>
        </g>
        <path id="Trazado_998736" data-name="Trazado 998736" d="M271.139,357.224c-1.051-11.146-1.1-17.637-.085-19.2.042-6.852,12-3.834,11.931,1.975l.068,16.376C283.088,364.969,271.175,365.817,271.139,357.224Z" transform="translate(-249.424 -299.434)" fill="#ffc1a6"/>
        <path id="Trazado_998737" data-name="Trazado 998737" d="M359.685,266.226s-7.138,4.244-10.62,6.941c-5.8,4.65-1.324,11.859,4.2,8.315,5.245-3.366,10.887-10.179,10.887-10.179Z" transform="translate(-307.914 -247.228)" fill="#ffc1a6"/>
        <path id="Trazado_998738" data-name="Trazado 998738" d="M272.521,421.035c.36-14.187,13.013-14.73,12.575,2.529l-1.077,32.819-11.029-.231Z" transform="translate(-251.116 -358.217)" fill="#ffc1a6"/>
        <path id="Trazado_998739" data-name="Trazado 998739" d="M275.532,357.428l-10.75-26.5-13.16-.006c-3.6,7.134-8.681,29.843-8.681,29.843s7.9,2.162,11.94.225c5.332-2.553,7.725-.6,7.274.3s5.923.32,8.421-.416C274.781,359.643,275.532,357.428,275.532,357.428Z" transform="translate(-228.36 -297.003)" fill="#ff7242"/>
        <path id="Trazado_998740" data-name="Trazado 998740" d="M314.3,248.023c.582.212,2.012,24.2,2.224,24.413s5.516-.277,5.375-1.024c-1.509-8-.862-20.424-2.357-22.295C318.854,248.257,314.3,248.023,314.3,248.023Z" transform="translate(-283.257 -233.224)" fill="#4796ff"/>
        <path id="Trazado_998741" data-name="Trazado 998741" d="M275.356,248.075c.475.461,1.309,24.449-.741,24.73-1.99.273-5.525-.265-5.525-.688s-.459-22.33.494-23.159C270.075,248.531,274.7,248,275.356,248.075Z" transform="translate(-248.391 -233.258)" fill="#4796ff"/>
        <g id="Grupo_1178751" data-name="Grupo 1178751" transform="translate(0)">
          <g id="Grupo_1178750" data-name="Grupo 1178750">
            <g id="Grupo_1178739" data-name="Grupo 1178739" transform="translate(0 43.344)">
              <path id="Trazado_998742" data-name="Trazado 998742" d="M193.153,381.435l-5.509,4.2a2.99,2.99,0,0,1-4.329-.7l-3.012-4.41a3.393,3.393,0,0,1,.737-4.562l5.509-4.2Z" transform="translate(-179.731 -371.767)" fill="#1a1f40"/>
            </g>
            <g id="Grupo_1178747" data-name="Grupo 1178747" transform="translate(3.241)">
              <g id="Grupo_1178740" data-name="Grupo 1178740" transform="translate(53.475)">
                <path id="Trazado_998743" data-name="Trazado 998743" d="M435.095,199.219l4.877-7.72,1.826-2.946,1.885-3.043a1.044,1.044,0,0,0-1.076-1.61l-3.557.916-3.707.949-8.226,1.985h0l-.384.093.09.123-1.225.9,7.883,10.725,1.225-.9Z" transform="translate(-425.597 -183.867)" fill="#ffc1a6"/>
              </g>
              <g id="Grupo_1178741" data-name="Grupo 1178741" transform="translate(63.22 0)">
                <path id="Trazado_998744" data-name="Trazado 998744" d="M467.844,185.765l3.707-.949,3.558-.916a1.044,1.044,0,0,1,1.076,1.61l-1.886,3.043-1.826,2.946a13.378,13.378,0,0,1-3.1-3.026A13.044,13.044,0,0,1,467.844,185.765Z" transform="translate(-467.844 -183.868)" fill="#1a1f40"/>
              </g>
              <g id="Grupo_1178742" data-name="Grupo 1178742" transform="translate(6.38 13.002)">
                <path id="Trazado_998745" data-name="Trazado 998745" d="M277.951,242.675l-5.143,3.777a.229.229,0,0,1-.081.031l-49.206,36.141-2.084-2.836,53.667-39.417a2.169,2.169,0,0,1,2.3.5C277.986,241.662,278.231,242.471,277.951,242.675Z" transform="translate(-221.438 -240.233)" fill="#f5a004"/>
              </g>
              <g id="Grupo_1178743" data-name="Grupo 1178743" transform="translate(4.28 10.147)">
                <path id="Trazado_998746" data-name="Trazado 998746" d="M268.1,230.849l-53.667,39.417-2.1-2.856,53.7-39.438a.275.275,0,0,1-.028.022,1.787,1.787,0,0,1,2.1,2.855Z" transform="translate(-212.336 -227.856)" fill="#ffbe33"/>
              </g>
              <path id="Trazado_998747" data-name="Trazado 998747" d="M288,344.752l-1.211,1.4,3.294,3.035s-3.494-.267-4.366-.959a16.286,16.286,0,0,1-2.263-2.937Z" transform="translate(-262.773 -307.639)" fill="#1a1f40"/>
              <g id="Grupo_1178744" data-name="Grupo 1178744" transform="translate(2.179 7.293)">
                <path id="Trazado_998748" data-name="Trazado 998748" d="M259.025,218.454l-53.7,39.438-2.1-2.858,53.715-39.452a.253.253,0,0,1-.043.04,2.169,2.169,0,0,1,2.3.5A2.2,2.2,0,0,1,259.025,218.454Z" transform="translate(-203.228 -215.484)" fill="#f5a004"/>
              </g>
              <g id="Grupo_1178745" data-name="Grupo 1178745" transform="translate(0.098 3.975)">
                <path id="Trazado_998749" data-name="Trazado 998749" d="M250,204.517l-53.715,39.452-2.081-2.831L243.414,205a.246.246,0,0,1,.05-.073l5.142-3.777c.279-.205.978.27,1.557,1.058A2.208,2.208,0,0,1,250,204.517Z" transform="translate(-194.208 -201.1)" fill="#ffbe33"/>
              </g>
              <g id="Grupo_1178746" data-name="Grupo 1178746" transform="translate(0 33.871)">
                <path id="Trazado_998750" data-name="Trazado 998750" d="M197.731,336.607a1.467,1.467,0,0,0-.5,1.767l-1,.735a1.491,1.491,0,0,0-2.332,1.713l-.024.018.167.227h0l8.032,10.926h0l.167.227.024-.018a1.491,1.491,0,0,0,2.332-1.713l1-.735a1.491,1.491,0,0,0,2.332-1.713l1-.735a1.491,1.491,0,0,0,2.332-1.713l.024-.018,4.761-3.5L207.684,330.7l-4.761,3.5-.024.018a1.491,1.491,0,0,0-2.332,1.713l-1,.735A1.467,1.467,0,0,0,197.731,336.607Z" transform="translate(-193.782 -330.699)" fill="#2ab873"/>
              </g>
            </g>
            <g id="Grupo_1178748" data-name="Grupo 1178748" transform="translate(9.016 39.16)">
              <path id="Trazado_998751" data-name="Trazado 998751" d="M227.222,365.707l-8.4-11.393.937-.686,8.4,11.393Z" transform="translate(-218.817 -353.628)" fill="#1a1f40"/>
            </g>
            <g id="Grupo_1178749" data-name="Grupo 1178749" transform="translate(5.726 41.601)">
              <path id="Trazado_998752" data-name="Trazado 998752" d="M212.959,376.275l-8.4-11.393.956-.671,8.4,11.393Z" transform="translate(-204.554 -364.211)" fill="#1a1f40"/>
            </g>
          </g>
        </g>
        <path id="Trazado_998753" data-name="Trazado 998753" d="M377.991,295.552l-1.349,4.866,2.793-2.132Z" transform="translate(-331.219 -269.789)" fill="#1a1f40"/>
        <path id="Trazado_998754" data-name="Trazado 998754" d="M226.328,260.023c2.035-5.083-2.565-5.766-5.156-3.632a60.916,60.916,0,0,0-9.871,10.251c-4.064,5.913,2.632,10.115,6.633,5.1C220.382,268.734,224.987,263.372,226.328,260.023Z" transform="translate(-203.047 -238.786)" fill="#ffc1a6"/>
        <g id="Grupo_1178752" data-name="Grupo 1178752" transform="translate(21.198 88.396)">
          <path id="Trazado_998755" data-name="Trazado 998755" d="M278.009,572.514l5.738-5.447s.035,4.562.392,5.109c1.59,2.44,11.183,1.674,12.119,10.816H279.905l-2.647-3.044-.526,3.044h-5.107l.488-10.516Z" transform="translate(-271.626 -567.067)" fill="#1a1f40"/>
          <rect id="Rectángulo_455424" data-name="Rectángulo 455424" width="5.107" height="1.725" transform="translate(0 15.925)" fill="#ffc233"/>
          <rect id="Rectángulo_455425" data-name="Rectángulo 455425" width="16.39" height="1.725" transform="translate(8.242 15.925)" fill="#ffc233"/>
        </g>
        <path id="Trazado_998756" data-name="Trazado 998756" d="M236.271,265.455l-7.107-5.855s7.387-9.078,10.684-8.473,3.2,2.71,2.16,5.013A53.385,53.385,0,0,1,236.271,265.455Z" transform="translate(-217.761 -235.59)" fill="#4796ff"/>
        <path id="Trazado_998757" data-name="Trazado 998757" d="M217.654,306.045c3,2.009,9.032,7.323,9.032,7.323l-4.109,6.267s-6.373-3.061-10.089-6.526C208.066,308.987,212.528,302.752,217.654,306.045Z" transform="translate(-203.542 -277.149)" fill="#ffc1a6"/>
        <path id="Trazado_998758" data-name="Trazado 998758" d="M269.079,289.887l2.252-3.317L269.1,294.6Z" transform="translate(-248.468 -262.879)" fill="#1a1f40"/>
        <g id="Grupo_1178753" data-name="Grupo 1178753" transform="translate(28.382 12.275)">
          <path id="Trazado_998759" data-name="Trazado 998759" d="M302.77,237.184a.509.509,0,0,0,.181.3.6.6,0,0,0,.917-.073.517.517,0,0,0,.134-.335A2.366,2.366,0,0,1,302.77,237.184Z" transform="translate(-302.77 -237.079)" fill="#fff"/>
        </g>
        <path id="Trazado_998760" data-name="Trazado 998760" d="M287.776,187.375c-.944-2.181-5.885-4.5-7.806-.222-3.081.689-4.434,5.045-1.272,7.613,1.79,1.453,6.921-3.495,6.921-3.495S289.178,190.616,287.776,187.375Z" transform="translate(-254.48 -184.548)" fill="#1a1f40"/>
        <g id="Grupo_1178766" data-name="Grupo 1178766" transform="translate(24.425 5.042)">
          <g id="Grupo_1178754" data-name="Grupo 1178754" transform="translate(0 3.408)">
            <path id="Trazado_998761" data-name="Trazado 998761" d="M287.366,221.1s-.8-1.1-1.541-.32.633,3.149,1.626,1.8Z" transform="translate(-285.614 -220.499)" fill="#ffc1a6"/>
          </g>
          <path id="Trazado_998762" data-name="Trazado 998762" d="M297.206,207.432a3.425,3.425,0,0,0-2.946-1.7,3.167,3.167,0,0,0-2.656,2.234c-.231,1.029-.763,3.288.539,4.4.784.67,1.6.519,1.682,1.778a6.16,6.16,0,0,1-.441,1.7c1.165,2.208,3.763,1.313,2.5-.3a7.013,7.013,0,0,1-.63-1.394.764.764,0,0,1,.443-.971,3.941,3.941,0,0,0,1.952-1.291C298.791,210.527,297.682,208.389,297.206,207.432Z" transform="translate(-289.988 -205.726)" fill="#ffc1a6"/>
          <g id="Grupo_1178765" data-name="Grupo 1178765" transform="translate(2.214 2.07)">
            <g id="Grupo_1178755" data-name="Grupo 1178755" transform="translate(2.051 3.36)">
              <path id="Trazado_998763" data-name="Trazado 998763" d="M306.017,229.264a1.058,1.058,0,0,1-.223.606.836.836,0,0,1-1.427.049,1.069,1.069,0,0,1-.268-.6A3.042,3.042,0,0,0,306.017,229.264Z" transform="translate(-304.1 -229.264)" fill="#1a1f40"/>
              <path id="Trazado_998764" data-name="Trazado 998764" d="M306.687,231.5a.836.836,0,0,1-1.427.049,1.653,1.653,0,0,1,.719-.166A1.681,1.681,0,0,1,306.687,231.5Z" transform="translate(-304.992 -230.891)" fill="#ff7242"/>
            </g>
            <g id="Grupo_1178756" data-name="Grupo 1178756" transform="translate(0.458 0.156)">
              <path id="Trazado_998765" data-name="Trazado 998765" d="M298.634,215.835a.081.081,0,0,1-.047-.015,1.645,1.645,0,0,0-.409-.242.776.776,0,0,0-.84.222.081.081,0,0,1-.122-.106.937.937,0,0,1,1.015-.269,1.8,1.8,0,0,1,.451.264.081.081,0,0,1-.048.146Z" transform="translate(-297.195 -215.373)" fill="#1a1f40"/>
            </g>
            <g id="Grupo_1178757" data-name="Grupo 1178757" transform="translate(2.744 1.134)">
              <path id="Trazado_998766" data-name="Trazado 998766" d="M307.262,221.465a.081.081,0,0,1-.035-.153.936.936,0,0,0,.289-.186.261.261,0,0,0,.068-.261.436.436,0,0,0-.123-.141l-.048-.043a1,1,0,0,1-.264-1.009.081.081,0,1,1,.154.048.835.835,0,0,0,.221.843l.044.039a.572.572,0,0,1,.165.2.415.415,0,0,1-.1.433,1.065,1.065,0,0,1-.338.222A.081.081,0,0,1,307.262,221.465Z" transform="translate(-307.107 -219.615)" fill="#1a1f40"/>
            </g>
            <g id="Grupo_1178760" data-name="Grupo 1178760" transform="translate(0 0.853)">
              <path id="Trazado_998767" data-name="Trazado 998767" d="M296.7,219.581s.517,1.03,1.892-.012c0,0-.447-.9-1.17-.816A.826.826,0,0,0,296.7,219.581Z" transform="translate(-296.356 -218.667)" fill="#fff"/>
              <g id="Grupo_1178758" data-name="Grupo 1178758" transform="translate(0.263)">
                <path id="Trazado_998768" data-name="Trazado 998768" d="M296.432,219.392h0a.081.081,0,0,1-.081-.08.911.911,0,0,1,.793-.908c.768-.088,1.232.821,1.251.86a.081.081,0,0,1-.145.072c0-.009-.43-.846-1.089-.772a.74.74,0,0,0-.65.748A.081.081,0,0,1,296.432,219.392Z" transform="translate(-296.351 -218.397)" fill="#1a1f40"/>
              </g>
              <path id="Trazado_998769" data-name="Trazado 998769" d="M300.157,220.068a.574.574,0,1,1-.631-.474A.558.558,0,0,1,300.157,220.068Z" transform="translate(-298.137 -219.315)" fill="#1a1f40"/>
              <path id="Trazado_998770" data-name="Trazado 998770" d="M298.821,220.5a.119.119,0,1,1,.131.1A.119.119,0,0,1,298.821,220.5Z" transform="translate(-297.988 -219.91)" fill="#fff"/>
              <g id="Grupo_1178759" data-name="Grupo 1178759" transform="translate(0 0.76)">
                <path id="Trazado_998771" data-name="Trazado 998771" d="M295.518,221.929a.486.486,0,0,1-.279-.1.081.081,0,1,1,.1-.123.319.319,0,0,0,.2.056.081.081,0,0,1,.03.159A.278.278,0,0,1,295.518,221.929Z" transform="translate(-295.21 -221.691)" fill="#1a1f40"/>
              </g>
            </g>
            <g id="Grupo_1178761" data-name="Grupo 1178761" transform="translate(3.585)">
              <path id="Trazado_998772" data-name="Trazado 998772" d="M310.832,215.231a.081.081,0,0,1-.054-.141,1.786,1.786,0,0,1,.424-.306.937.937,0,0,1,1.036.17.081.081,0,1,1-.111.117.775.775,0,0,0-.858-.141,1.662,1.662,0,0,0-.384.28A.08.08,0,0,1,310.832,215.231Z" transform="translate(-310.751 -214.697)" fill="#1a1f40"/>
            </g>
            <g id="Grupo_1178764" data-name="Grupo 1178764" transform="translate(3.404 0.574)">
              <path id="Trazado_998773" data-name="Trazado 998773" d="M312.194,218.258s-.371,1.091-1.875.247c0,0,.32-.951,1.047-.969A.826.826,0,0,1,312.194,218.258Z" transform="translate(-310.238 -217.456)" fill="#fff"/>
              <ellipse id="Elipse_13769" data-name="Elipse 13769" cx="0.571" cy="0.559" rx="0.571" ry="0.559" transform="translate(0.757 0.188) rotate(-1.398)" fill="#1a1f40"/>
              <g id="Grupo_1178762" data-name="Grupo 1178762">
                <path id="Trazado_998774" data-name="Trazado 998774" d="M310.049,218.317a.078.078,0,0,1-.026,0,.081.081,0,0,1-.051-.1c.014-.041.347-1,1.122-1.024a.915.915,0,0,1,.91.791.081.081,0,0,1-.16.022.737.737,0,0,0-.746-.652c-.662.016-.97.9-.973.914A.081.081,0,0,1,310.049,218.317Z" transform="translate(-309.969 -217.186)" fill="#1a1f40"/>
              </g>
              <path id="Trazado_998775" data-name="Trazado 998775" d="M313.616,218.607a.122.122,0,1,0,.108.134A.122.122,0,0,0,313.616,218.607Z" transform="translate(-312.671 -218.278)" fill="#fff"/>
              <g id="Grupo_1178763" data-name="Grupo 1178763" transform="translate(1.875 0.624)">
                <path id="Trazado_998776" data-name="Trazado 998776" d="M318.188,220.151h-.014a.081.081,0,0,1-.077-.085.078.078,0,0,1,.085-.077.165.165,0,0,0,.132-.071.081.081,0,1,1,.12.108A.33.33,0,0,1,318.188,220.151Z" transform="translate(-318.097 -219.891)" fill="#1a1f40"/>
              </g>
            </g>
          </g>
          <path id="Trazado_998777" data-name="Trazado 998777" d="M302.77,237.88a4.2,4.2,0,0,0,1.294.683,1.025,1.025,0,0,1,.374-.618,1.7,1.7,0,0,1-.817.129A1.9,1.9,0,0,1,302.77,237.88Z" transform="translate(-298.813 -230.463)" fill="#1a1f40"/>
        </g>
        <path id="Trazado_998778" data-name="Trazado 998778" d="M292.183,201.7a4.362,4.362,0,0,0-1.49,5.323c.172-2.866,3.51-2.834,3.7-4.6Z" transform="translate(-264.81 -197.587)" fill="#1a1f40"/>
        <g id="Grupo_1178767" data-name="Grupo 1178767" transform="translate(24.45 10.563)">
          <path id="Trazado_998779" data-name="Trazado 998779" d="M287.082,233.223a.116.116,0,0,1-.093-.047l-1.245-1.679a.115.115,0,0,1,0-.136l1.181-1.653a.115.115,0,0,1,.089-.048.11.11,0,0,1,.093.04l1.209,1.4a.115.115,0,0,1,.012.134l-1.145,1.932a.116.116,0,0,1-.093.057Zm-1.1-1.8,1.091,1.472,1.014-1.711-1.059-1.226Z" transform="translate(-285.722 -229.66)" fill="#ffc800"/>
        </g>
        <g id="Grupo_1178772" data-name="Grupo 1178772" transform="translate(46.556 20.261)">
          <g id="Grupo_1178768" data-name="Grupo 1178768">
            <path id="Trazado_998780" data-name="Trazado 998780" d="M388.882,272.214s2.566,2.383,2.47,3.782c-.1,1.52-5.508,5.308-6.448,5.05a5.082,5.082,0,0,1-3.071-2.854,76.421,76.421,0,0,0,3.03-3.631,7.219,7.219,0,0,1,4.019-2.347Z" transform="translate(-381.553 -271.7)" fill="#ffc1a6"/>
          </g>
          <g id="Grupo_1178769" data-name="Grupo 1178769" transform="translate(5.064 1.262)">
            <path id="Trazado_998781" data-name="Trazado 998781" d="M406.343,280.475a.081.081,0,0,1-.061-.027l-2.757-3.142a.081.081,0,0,1,.121-.107l2.757,3.142a.081.081,0,0,1-.061.134Z" transform="translate(-403.506 -277.172)" fill="#1a1f40"/>
          </g>
          <g id="Grupo_1178770" data-name="Grupo 1178770" transform="translate(3.228 2.78)">
            <path id="Trazado_998782" data-name="Trazado 998782" d="M398.378,287.256a.081.081,0,0,1-.062-.03l-2.749-3.343a.081.081,0,0,1,.125-.1l2.749,3.343a.081.081,0,0,1-.011.114A.08.08,0,0,1,398.378,287.256Z" transform="translate(-395.548 -283.751)" fill="#1a1f40"/>
          </g>
          <g id="Grupo_1178771" data-name="Grupo 1178771" transform="translate(1.745 4.615)">
            <path id="Trazado_998783" data-name="Trazado 998783" d="M391.742,294.837a.08.08,0,0,1-.061-.028l-2.543-2.968a.081.081,0,1,1,.122-.1L391.8,294.7a.081.081,0,0,1-.009.114A.079.079,0,0,1,391.742,294.837Z" transform="translate(-389.118 -291.708)" fill="#1a1f40"/>
          </g>
        </g>
        <g id="Grupo_1178777" data-name="Grupo 1178777" transform="translate(17.221 35.456)">
          <g id="Grupo_1178773" data-name="Grupo 1178773">
            <path id="Trazado_998784" data-name="Trazado 998784" d="M264.261,349.479a.909.909,0,0,0-.044-1.009l.057.035a1.35,1.35,0,0,0,1.647-.266c.207-.335-.1-.8-.3-1.107l.19.118a.987.987,0,1,0,1.04-1.678l-.383-.238a.987.987,0,0,0,.865-1.763c-2-1.112-4.635-2.178-5.134-3.4l1.805-.028c1.6-.028,2.427-1.744,1.008-2.085a38.689,38.689,0,0,0-4.372-.489c-.569-.013-2.822.2-2.822.2l-3.434,5.087a14.95,14.95,0,0,0,8.249,6.807A1.313,1.313,0,0,0,264.261,349.479Z" transform="translate(-254.384 -337.572)" fill="#ffc1a6"/>
          </g>
          <g id="Grupo_1178774" data-name="Grupo 1178774" transform="translate(6.964 4.603)">
            <path id="Trazado_998785" data-name="Trazado 998785" d="M289.708,360.738a.081.081,0,0,1-.032-.007,18.154,18.154,0,0,1-5.076-3.064.081.081,0,0,1,.109-.119,18,18,0,0,0,5.031,3.035.081.081,0,0,1-.032.155Z" transform="translate(-284.574 -357.527)" fill="#1a1f40"/>
          </g>
          <g id="Grupo_1178775" data-name="Grupo 1178775" transform="translate(6.217 6.307)">
            <path id="Trazado_998786" data-name="Trazado 998786" d="M286.369,368.28a.081.081,0,0,1-.034-.008,18.156,18.156,0,0,1-4.977-3.222.081.081,0,0,1,.113-.115,18,18,0,0,0,4.933,3.191.081.081,0,0,1-.034.154Z" transform="translate(-281.334 -364.912)" fill="#1a1f40"/>
          </g>
          <g id="Grupo_1178776" data-name="Grupo 1178776" transform="translate(4.707 7.56)">
            <path id="Trazado_998787" data-name="Trazado 998787" d="M279.824,373.714a.082.082,0,0,1-.034-.008,18.16,18.16,0,0,1-4.977-3.222.081.081,0,1,1,.113-.115,18.007,18.007,0,0,0,4.933,3.191.081.081,0,0,1-.034.154Z" transform="translate(-274.788 -370.346)" fill="#1a1f40"/>
          </g>
        </g>
      </g>
      <g id="Grupo_1178785" data-name="Grupo 1178785" transform="translate(289.545 100.631)">
        <path id="Trazado_998788" data-name="Trazado 998788" d="M933.687,713.628H888.668c-.18-5.308.348-15.721,6.964-22.526a24.068,24.068,0,0,1,5.552-4.242h0q-.522-2.689-1.043-5.377l7.006.032,15.142.076q-.516,2.637-1.029,5.269h0a24.263,24.263,0,0,1,5.552,4.242C933.447,697.93,933.893,708.348,933.687,713.628Z" transform="translate(-888.641 -604.916)" fill="#b0e5ff"/>
        <path id="Trazado_998789" data-name="Trazado 998789" d="M939.131,761.866H898.67c.067-4.168.75-9.871,3.435-14.683h33.66C938.432,751.993,939.082,757.695,939.131,761.866Z" transform="translate(-896.357 -655.461)" fill="#1a1f40"/>
        <g id="Grupo_1178779" data-name="Grupo 1178779" transform="translate(10.968 73.142)">
          <path id="Trazado_998790" data-name="Trazado 998790" d="M936.186,672.368c0,1.394,5.2,2.525,11.614,2.525s11.611-1.131,11.611-2.525c-.068-.046-.143-.091-.224-.136-1.718-.932-6.44-1.428-11.387-1.428-5.255,0-9.981.417-11.441,1.428C936.295,672.278,936.238,672.323,936.186,672.368Z" transform="translate(-936.186 -669.843)" fill="#97b7e0"/>
          <path id="Trazado_998791" data-name="Trazado 998791" d="M936.265,669.026h1.306v.018c0,.254.376.494,1.043.707a33.507,33.507,0,0,0,8.12.891c.37.007.746.009,1.127.009.431,0,.857,0,1.274-.011a33.2,33.2,0,0,0,7.966-.886c.671-.215,1.047-.456,1.047-.71v-.018h1.306c-.324-1.333-5.391-2.389-11.593-2.389S936.589,667.694,936.265,669.026Z" transform="translate(-936.247 -666.637)" fill="#b0e5ff"/>
          <path id="Trazado_998792" data-name="Trazado 998792" d="M941.925,671.688v.018c0,.254.376.494,1.043.707a33.506,33.506,0,0,0,8.12.891c.37.007.746.009,1.127.009.431,0,.857,0,1.274-.011a33.21,33.21,0,0,0,7.966-.886c.671-.216,1.047-.456,1.047-.71v-.018c-.061-.827-4.13-1.508-9.315-1.582-.322-.007-.646-.009-.973-.009-.426,0-.845,0-1.256.014C945.906,670.206,941.984,670.874,941.925,671.688Z" transform="translate(-940.601 -669.299)" fill="#7cc7eb"/>
        </g>
        <g id="Grupo_1178783" data-name="Grupo 1178783" transform="translate(19.012)">
          <g id="Grupo_1178782" data-name="Grupo 1178782">
            <g id="Grupo_1178780" data-name="Grupo 1178780">
              <path id="Trazado_998793" data-name="Trazado 998793" d="M1024.551,351.119a105.22,105.22,0,0,0-8.881,8.494q-.82.484-1.668,1.036c-.408.265-.805.528-1.19.794s-.731.512-1.077.764c-.06.044-.118.088-.18.131q1.183-.211,2.362-.42-.858,1.024-1.744,2.178c-1.123,1.467-2.263,3.086-3.37,4.867a58.988,58.988,0,0,0-3.5,6.47l0,0a10.33,10.33,0,0,1-2.787,3.878c-.131.113-.261.224-.392.325-.032.023-.067.051-.1.076a.727.727,0,0,1-.1.076l-.1.074a.455.455,0,0,1-.042.035l-.143.108-.007,0s0,0,0,0c-.591.429-1.107.764-1.283.943a.47.47,0,0,0-.035.035.084.084,0,0,0-.023.032.135.135,0,0,0-.009.018.032.032,0,0,0,0,.025.1.1,0,0,0,.023.016,6.042,6.042,0,0,0,1.534-.51s0,0,.009,0c.925-.371,1.663-.731,2.166-.992a.014.014,0,0,1,.009,0q-1.215,3.3-2.392,6.752a12.036,12.036,0,0,0-2.048.881,10.9,10.9,0,0,0-4.078,3.878,6.947,6.947,0,0,1,2.849-2.367c.131-.053.309-.118.6-.242a14.526,14.526,0,0,0,2.337-1.276q-.557,1.72-1.1,3.458c-.081.254-.159.5-.235.754q-1.419,4.5-2.729,8.943c-.168.565-.334,1.133-.5,1.7a14.168,14.168,0,0,0-1.924,1.356c-.258.219-.5.438-.715.651a3.7,3.7,0,0,0,.913-.012,3.629,3.629,0,0,0,1.034-.309,11.955,11.955,0,0,1-2.3,4.8,14.057,14.057,0,0,1-4.646,3.774,5.826,5.826,0,0,0,3.43-.245c-.122.238-.247.475-.376.713a65.952,65.952,0,0,1-9.534,13.418c-2,2.2-3.857,3.972-5.262,5.243q-.394.356-.74.66c-.175-.321-.346-.641-.51-.957a42.556,42.556,0,0,1-4.946-16.913c-.069-1.024-.1-2.048-.09-3.07,0-.016,0-.1,0-.118,0-.039,0-.078,0-.118a3.294,3.294,0,0,0,1.8,1.239,3.708,3.708,0,0,0,1.326.111,15.7,15.7,0,0,1-2.431-5.725,10.013,10.013,0,0,1-.032-2.355,8.313,8.313,0,0,1,.212-1.07l2.341,1.119s0,0,0,0a13.849,13.849,0,0,1-1.7-3.779h0a50.356,50.356,0,0,1,2.854-7.778,60.044,60.044,0,0,1,4.189-7.587c.072-.111.143-.226.219-.339a39.444,39.444,0,0,1,1.483,4.812,17.058,17.058,0,0,0,.734-8.007v0a87.356,87.356,0,0,1,9.612-10.927.316.316,0,0,0,.041-.039c0,.277.007.591.009.927,0,.012,0,.025,0,.037.016,1.887.041,4.443.051,5.3v.009c0,.046,0,.085,0,.122s0,.065,0,.09a.625.625,0,0,1,0,.076l.194-1.3v-.009l.927-6.376a117.416,117.416,0,0,1,10.5-8.727q1.668-1.235,3.4-2.443s-.275,2.8-.212,3.377c0,0,.358-1.186.752-2.321a8.369,8.369,0,0,1,.874-2.025,0,0,0,0,1,0,0c.012-.009.025-.018.039-.028a.139.139,0,0,0,.053-.035l.609-.411v0C1017.393,351.186,1029.126,347.227,1024.551,351.119Z" transform="translate(-971.059 -349.561)" fill="#2ab873"/>
              <path id="Trazado_998794" data-name="Trazado 998794" d="M994.811,547.237c-.259.219-.5.438-.716.652a3.689,3.689,0,0,0,.913-.012,3.614,3.614,0,0,0,1.034-.31,11.949,11.949,0,0,1-2.3,4.8,14.078,14.078,0,0,1-4.646,3.773,5.828,5.828,0,0,0,3.431-.244c-.123.236-.248.475-.377.712a30.788,30.788,0,0,1-5.543,2.91,32.942,32.942,0,0,1-7.69,2.046,18.822,18.822,0,0,1-4.959-3.188,16.665,16.665,0,0,1-2.889-3.387c0-.015,0-.1,0-.117,0-.039,0-.078,0-.117a3.309,3.309,0,0,0,1.8,1.238,3.717,3.717,0,0,0,1.326.111,15.715,15.715,0,0,1-2.432-5.727,9.962,9.962,0,0,1-.031-2.354,8.427,8.427,0,0,1,.212-1.071l2.342,1.12s0,0,0-.005a13.838,13.838,0,0,1-1.7-3.778h0a50.372,50.372,0,0,1,2.854-7.777q3.519,5.421,7.038,10.839,7.38-1.581,14.757-3.161-.25.85-.5,1.7A14.144,14.144,0,0,0,994.811,547.237Z" transform="translate(-971.068 -493.383)" fill="#2ab873"/>
              <path id="Trazado_998795" data-name="Trazado 998795" d="M1024.071,461.372a6.945,6.945,0,0,1,2.849-2.366c.131-.053.309-.118.6-.244a14.235,14.235,0,0,0,2.336-1.275q-.555,1.719-1.105,3.458c-.079.253-.158.5-.234.754l-1.191.4-14.194,5.284a23.625,23.625,0,0,1-3.254-5.388,21.874,21.874,0,0,1-1.7-6.62c.071-.112.143-.226.217-.338a39.657,39.657,0,0,1,1.484,4.811,17.448,17.448,0,0,0,.915-5.661,16.958,16.958,0,0,0-.182-2.345v0a87.262,87.262,0,0,1,9.612-10.927c.018.3.036.593.05.889a.141.141,0,0,1,0,.036l.244,4.285v.011q.167,2.927.33,5.854l9.337-1.692s0,0,.006,0q1.195-.215,2.389-.432-1.212,3.305-2.391,6.752a11.911,11.911,0,0,0-2.05.882A10.869,10.869,0,0,0,1024.071,461.372Z" transform="translate(-999.619 -419.841)" fill="#2ab873"/>
              <path id="Trazado_998796" data-name="Trazado 998796" d="M1113.639,391.061c-.572.682-1.156,1.41-1.744,2.178q-5.606,2.785-11.212,5.568,1.214-4.461,2.429-8.919,1.666-1.235,3.4-2.443s-.274,2.8-.21,3.376c0,0,.357-1.185.75-2.321.2.938.4,1.874.593,2.812q2.443-.365,4.886-.727c-.372.255-.731.511-1.077.764l-.18.13Z" transform="translate(-1070.782 -378.706)" fill="#2ab873"/>
            </g>
            <g id="Grupo_1178781" data-name="Grupo 1178781" transform="translate(3.847 81.586)">
              <path id="Trazado_998797" data-name="Trazado 998797" d="M990.18,703.541c-.009.065-.016.127-.025.191s-.021.145-.032.217c-.021.166-.044.332-.067.5-.134.955-.261,1.908-.378,2.865-.009.1-.023.191-.035.288-.032.293-.071.584-.106.877-.016.175-.037.346-.053.521-.044.45-.09.9-.148,1.352-.009.111-.021.221-.037.335q-.5,3.36-.865,6.74-.183,1.689-.33,3.382c-.106,1.128-.205,2.258-.291,3.389-.035-1.135-.06-2.265-.074-3.4s0-2.268.023-3.4q.059-3.4.254-6.807c.007-.078.016-.155.023-.233.058-.584.118-1.165.187-1.748.035-.291.067-.584.1-.874.138-1.123.288-2.247.443-3.368.025-.182.053-.367.078-.551.009-.071.018-.143.032-.217.016-.115.032-.233.048-.348.164.316.334.637.51.957Q989.785,703.9,990.18,703.541Z" transform="translate(-987.738 -703.243)" fill="#1a1f40"/>
            </g>
          </g>
          <path id="Trazado_998798" data-name="Trazado 998798" d="M987.656,737.7a2.052,2.052,0,0,1-1.38.261s-1.159,7.781-.1,13.36c0,0,1-4.61,2.256-5.443Z" transform="translate(-982.345 -648.164)" fill="#1a1f40"/>
        </g>
        <g id="Grupo_1178784" data-name="Grupo 1178784" transform="translate(24.477 9.409)">
          <path id="Trazado_998799" data-name="Trazado 998799" d="M994.835,463.566a.081.081,0,0,1-.081-.08c-.115-10.672,3.719-25.3,10.255-39.135,7.045-14.911,16.128-26.98,25.577-33.985a.081.081,0,0,1,.1.13c-20.422,15.139-36,51.667-35.766,72.988a.081.081,0,0,1-.08.082Z" transform="translate(-994.752 -390.351)" fill="#1a1f40"/>
        </g>
        <path id="Trazado_998800" data-name="Trazado 998800" d="M936.186,677.131c0,1.394,5.2,2.525,11.614,2.525s11.611-1.131,11.611-2.525a.479.479,0,0,0-.018-.136h-1.306v.018c0,.254-.376.494-1.047.71a33.183,33.183,0,0,1-7.966.886c-.417.007-.843.011-1.274.011-.381,0-.757,0-1.127-.009a33.507,33.507,0,0,1-8.12-.891c-.666-.213-1.043-.453-1.043-.707v-.018H936.2A.479.479,0,0,0,936.186,677.131Z" transform="translate(-925.218 -601.464)" fill="#b0e5ff"/>
        <path id="Trazado_998801" data-name="Trazado 998801" d="M936.186,677.585v.961c0,1.4,5.2,2.528,11.614,2.528s11.611-1.131,11.611-2.528v-.961c0,1.394-5.2,2.525-11.611,2.525S936.186,678.979,936.186,677.585Z" transform="translate(-925.218 -601.917)" fill="#7cc7eb"/>
      </g>
      <path id="Trazado_998802" data-name="Trazado 998802" d="M603.428,114.336l-6.053-2.037-1.935,2.538-4.136-1.392L602.632,99.2l4.575,1.54.41,18.195-4.182-1.408Zm.01-3.392-.011-6.614-3.986,5.269Z" transform="translate(-370.348 -56.322)" fill="#ff7242"/>
      <path id="Trazado_998803" data-name="Trazado 998803" d="M773.145,322.441l-2.586,10.935-2.664-.63,1.551-6.558-4,5.98-2.15-.508-.907-7.156-1.554,6.574-2.664-.63,2.586-10.936,3.147.744,1.279,8.3,4.828-6.853Z" transform="translate(-498.726 -225.813)" fill="#4796ff"/>
      <path id="Trazado_998804" data-name="Trazado 998804" d="M533.481,268.457l5.64-2.219,1.029,2.615-9.263,3.644-.955-2.428L532.36,259.8l-5.6,2.2-1.029-2.615,9.263-3.644.955,2.428Z" transform="translate(-319.9 -176.753)" fill="#2ab873"/>
      <path id="Trazado_998805" data-name="Trazado 998805" d="M648.347,387.61l-2.183-5.615-.809-.108-.7,5.23-3.375-.451,1.851-13.855,5.664.757a6.293,6.293,0,0,1,2.716.945,3.981,3.981,0,0,1,1.517,1.8,4.419,4.419,0,0,1,.276,2.3,4.16,4.16,0,0,1-1.109,2.363,4.235,4.235,0,0,1-2.5,1.232l2.464,5.914Zm-2.673-8.111,2.092.28a1.933,1.933,0,0,0,1.452-.268,1.729,1.729,0,0,0,.635-1.221,1.675,1.675,0,0,0-.3-1.305,1.934,1.934,0,0,0-1.331-.64l-2.092-.28Z" transform="translate(-408.796 -266.816)" fill="#ffbe33"/>
      <g id="Grupo_1178786" data-name="Grupo 1178786" transform="translate(127.366 51.517)">
        <path id="Trazado_998806" data-name="Trazado 998806" d="M203.087,143.786a8.836,8.836,0,1,0-5.137,9.791l-.012.007,3.9.176-.4-2.915A8.809,8.809,0,0,0,203.087,143.786Z" transform="translate(-185.586 -136.649)" fill="#ff7242"/>
        <path id="Trazado_998807" data-name="Trazado 998807" d="M221.639,158.914l-6.5-4.253a.442.442,0,0,0-.684.37v8.506a.442.442,0,0,0,.684.37l6.5-4.253A.441.441,0,0,0,221.639,158.914Z" transform="translate(-207.794 -150.449)" fill="#fff"/>
      </g>
      <g id="Grupo_1178788" data-name="Grupo 1178788" transform="translate(272.688 42.355)">
        <path id="Trazado_998808" data-name="Trazado 998808" d="M866.607,131.564l-11.354-1.687,4.629-5.182Z" transform="translate(-846.098 -118.29)" fill="#1a1f40"/>
        <path id="Trazado_998809" data-name="Trazado 998809" d="M825.39,129.472l-9.575-7.968,14.207,3.4Z" transform="translate(-815.757 -115.835)" fill="#4796ff"/>
        <path id="Trazado_998810" data-name="Trazado 998810" d="M815.771,102.577,836.5,96.93l-4.358,4.72Z" transform="translate(-815.723 -96.93)" fill="#4796ff"/>
        <path id="Trazado_998811" data-name="Trazado 998811" d="M815.815,118.053l14.235,3.459,6.217,4.146-4.072-8.64Z" transform="translate(-815.757 -112.384)" fill="#2466d4"/>
        <g id="Grupo_1178787" data-name="Grupo 1178787" transform="translate(0 4.633)">
          <path id="Trazado_998812" data-name="Trazado 998812" d="M815.622,118.106a.058.058,0,0,1,0-.115l16.34-.978a.058.058,0,0,1,.007.115l-16.34.978Z" transform="translate(-815.565 -117.013)" fill="#260a5e"/>
        </g>
      </g>
      <g id="Grupo_1178789" data-name="Grupo 1178789" transform="translate(297.537 55.487)">
        <path id="Trazado_998813" data-name="Trazado 998813" d="M968.4,256.885a26,26,0,0,1-2.687-.141.081.081,0,0,1-.072-.089.079.079,0,0,1,.089-.072c11.318,1.175,21.894-5.533,28.294-17.947,6.765-13.122,8.286-32.45-1.894-44-5.357-6.079-13.269-10.064-20.157-10.152q-.589-.008-1.154.023a30.61,30.61,0,0,1-.263,6.819,5.218,5.218,0,0,1-2.445,3.825,4.848,4.848,0,0,1-4.268.194,3.732,3.732,0,0,1-1.9-2.736,5.677,5.677,0,0,1,1.191-5.052,10.876,10.876,0,0,1,7.509-3.2,29.294,29.294,0,0,0-8.345-18.14c-8.832-9.151-23.384-13.561-38.926-11.8a.081.081,0,0,1-.018-.16,54.172,54.172,0,0,1,22.538,1.931,39.364,39.364,0,0,1,16.523,9.915,29.451,29.451,0,0,1,8.39,18.242q.572-.031,1.169-.024c6.931.089,14.89,4.095,20.276,10.207,4.605,5.226,7.14,12.459,7.33,20.918a49.248,49.248,0,0,1-5.414,23.265,36.827,36.827,0,0,1-11.648,13.706A24.713,24.713,0,0,1,968.4,256.885Zm2.258-72.37a10.72,10.72,0,0,0-7.4,3.15,5.516,5.516,0,0,0-1.152,4.906,3.575,3.575,0,0,0,1.8,2.621,4.692,4.692,0,0,0,4.129-.184A5.058,5.058,0,0,0,970.4,191.3,30.534,30.534,0,0,0,970.662,184.516Z" transform="translate(-923.287 -153.859)" fill="#1a1f40"/>
      </g>
      <path id="Trazado_998814" data-name="Trazado 998814" d="M1135.8,696.172a5.336,5.336,0,0,1-3.3-4.475l-.2-1.22-.2,1.22a5.337,5.337,0,0,1-3.3,4.475l-.9.269.9.269a5.336,5.336,0,0,1,3.3,4.475l.2,1.22.2-1.22a5.337,5.337,0,0,1,3.3-4.475l.9-.269Z" transform="translate(-783.175 -511.203)" fill="#ffbe33"/>
      <path id="Trazado_998815" data-name="Trazado 998815" d="M404.648,104.534a5.336,5.336,0,0,1-3.3-4.475l-.2-1.22-.2,1.22a5.336,5.336,0,0,1-3.3,4.475l-.9.269.9.269a5.336,5.336,0,0,1,3.3,4.475l.2,1.22.2-1.22a5.336,5.336,0,0,1,3.3-4.475l.9-.269Z" transform="translate(-220.681 -56.044)" fill="#ffbe33"/>
      <path id="Trazado_998816" data-name="Trazado 998816" d="M986.716,89.886a2.465,2.465,0,0,0,1.523-2.068l.092-.564.091.564a2.466,2.466,0,0,0,1.523,2.068l.416.124-.416.124a2.466,2.466,0,0,0-1.523,2.068l-.091.564-.092-.564a2.465,2.465,0,0,0-1.523-2.068l-.415-.124Z" transform="translate(-674.228 -47.131)" fill="#ff7242"/>
      <path id="Trazado_998817" data-name="Trazado 998817" d="M171.343,524.2a2.466,2.466,0,0,0,1.523-2.068l.092-.564.092.564a2.466,2.466,0,0,0,1.523,2.068l.415.124-.415.124a2.465,2.465,0,0,0-1.523,2.068l-.092.564-.092-.564a2.465,2.465,0,0,0-1.523-2.068l-.415-.124Z" transform="translate(-46.943 -381.259)" fill="#4796ff"/>
      <g id="Grupo_1178790" data-name="Grupo 1178790" transform="translate(109.909 209.262)">
        <path id="Trazado_998818" data-name="Trazado 998818" d="M364.166,820.644H109.99a.081.081,0,1,1,0-.161H364.166a.081.081,0,0,1,0,.161Z" transform="translate(-109.909 -820.483)" fill="#1a1f40"/>
      </g>
      <g id="Grupo_1178791" data-name="Grupo 1178791" transform="translate(301.604 221.157)">
        <path id="Trazado_998819" data-name="Trazado 998819" d="M980.915,872.207H941a.081.081,0,0,1,0-.161h39.915a.081.081,0,1,1,0,.161Z" transform="translate(-940.92 -872.046)" fill="#1a1f40"/>
      </g>
      <g id="Grupo_1178792" data-name="Grupo 1178792" transform="translate(166.197 221.157)">
        <path id="Trazado_998820" data-name="Trazado 998820" d="M369.638,872.207H354a.081.081,0,1,1,0-.161h15.635a.081.081,0,1,1,0,.161Z" transform="translate(-353.922 -872.046)" fill="#1a1f40"/>
      </g>
    </g>
  </g>
</svg>
