<svg xmlns="http://www.w3.org/2000/svg" width="150" height="150" viewBox="0 0 150 150">
  <g id="Grupo_1177379" data-name="Grupo 1177379" transform="translate(-72.746 -7992)">
    <g id="Elipse_13628" data-name="Elipse 13628" transform="translate(72.746 7992)" fill="#fff7e2" stroke="#cff878" stroke-width="6">
      <circle cx="75" cy="75" r="75" stroke="none"/>
      <circle cx="75" cy="75" r="72" fill="none"/>
    </g>
    <g id="Grupo_1193399" data-name="Grupo 1193399" transform="translate(105.408 8024.984)">
      <g id="Grupo_1193397" data-name="Grupo 1193397" transform="translate(1.36 1.36)">
        <g id="Grupo_1193380" data-name="Grupo 1193380" transform="translate(65.29 76.172)">
          <path id="Trazado_1006993" data-name="Trazado 1006993" d="M65.322,57v5.441H49A5.434,5.434,0,0,1,54.441,57Z" transform="translate(-49 -57)" fill="#969faa"/>
        </g>
        <g id="Grupo_1193381" data-name="Grupo 1193381" transform="translate(59.849 44.887)">
          <path id="Trazado_1006994" data-name="Trazado 1006994" d="M58.357,38.094a5.657,5.657,0,0,1,.245,1.673,5.775,5.775,0,0,1-1.687,4.081L53.161,47.6,45,39.441l3.754-3.754A5.775,5.775,0,0,1,52.835,34a5.657,5.657,0,0,1,1.673.245,5.766,5.766,0,0,1,3.849,3.849Z" transform="translate(-45 -34)" fill="#fcd770"/>
        </g>
        <g id="Grupo_1193382" data-name="Grupo 1193382" transform="translate(69.357 42.166)">
          <path id="Trazado_1006995" data-name="Trazado 1006995" d="M58,32.8a2.693,2.693,0,0,1,0,3.836l-2.163,2.176a5.766,5.766,0,0,0-3.849-3.849L54.166,32.8A2.693,2.693,0,0,1,58,32.8Z" transform="translate(-51.99 -32)" fill="#fcd770"/>
        </g>
        <g id="Grupo_1193383" data-name="Grupo 1193383" transform="translate(0 57.129)">
          <path id="Trazado_1006996" data-name="Trazado 1006996" d="M13.405,44.2a4.078,4.078,0,0,1-2.884,6.964H1V43h9.521A4.071,4.071,0,0,1,13.405,44.2Z" transform="translate(-1 -43)" fill="#e6e9ed"/>
        </g>
        <g id="Grupo_1193384" data-name="Grupo 1193384" transform="translate(0 65.29)">
          <path id="Trazado_1006997" data-name="Trazado 1006997" d="M10.521,49a4.081,4.081,0,0,1,0,8.161H1V49Z" transform="translate(-1 -49)" fill="#fcd770"/>
        </g>
        <g id="Grupo_1193385" data-name="Grupo 1193385" transform="translate(0 73.451)">
          <path id="Trazado_1006998" data-name="Trazado 1006998" d="M17.322,55v8.161H5.081a4.081,4.081,0,1,1,0-8.161H17.322Z" transform="translate(-1 -55)" fill="#f0d0b4"/>
        </g>
        <g id="Grupo_1193386" data-name="Grupo 1193386" transform="translate(19.043)">
          <path id="Trazado_1006999" data-name="Trazado 1006999" d="M58.527,22.763V39.086a8.168,8.168,0,0,1-8.161,8.161h-2.72a13.589,13.589,0,0,0,5.441-10.882V18.683l-1.687-.19A26.367,26.367,0,0,1,34.043,9.161,17.415,17.415,0,0,1,28.656,15.5a17.558,17.558,0,0,1-7.726,3.115l-.49.068V36.365a13.589,13.589,0,0,0,5.441,10.882h-2.72A8.168,8.168,0,0,1,15,39.086V22.763a21.763,21.763,0,1,1,43.527,0Z" transform="translate(-15 -1)" fill="#656d78"/>
        </g>
        <g id="Grupo_1193387" data-name="Grupo 1193387" transform="translate(25.245 48.083)">
          <path id="Trazado_1007000" data-name="Trazado 1007000" d="M42.656,36.35A16.4,16.4,0,0,1,50.682,45.9L35.121,48.116,19.56,45.9a16.4,16.4,0,0,1,8.025-9.549,13.611,13.611,0,0,0,2.122.612c0,.1-.027.177-.027.272a5.441,5.441,0,0,0,10.882,0c0-.1-.027-.177-.027-.272a13.611,13.611,0,0,0,2.122-.612Z" transform="translate(-19.56 -36.35)" fill="#ff826e"/>
        </g>
        <g id="Grupo_1193388" data-name="Grupo 1193388" transform="translate(40.806 57.129)">
          <path id="Trazado_1007001" data-name="Trazado 1007001" d="M50.043,56.6v8.161L32.36,67.484H31V45.72L46.561,43.5l3.482-.5v5.441a2.728,2.728,0,0,0-2.72,2.72v2.72A2.728,2.728,0,0,0,50.043,56.6Z" transform="translate(-31 -43)" fill="#ccd1d9"/>
        </g>
        <g id="Grupo_1193389" data-name="Grupo 1193389" transform="translate(21.763 57.129)">
          <path id="Trazado_1007002" data-name="Trazado 1007002" d="M36.043,45.72V67.484h-1.36L17,64.763V56.6a2.728,2.728,0,0,0,2.72-2.72v-2.72A2.728,2.728,0,0,0,17,48.441V43l3.482.5Z" transform="translate(-17 -43)" fill="#ccd1d9"/>
        </g>
        <g id="Grupo_1193390" data-name="Grupo 1193390" transform="translate(57.129 62.569)">
          <path id="Trazado_1007003" data-name="Trazado 1007003" d="M47.081,47a1.364,1.364,0,0,1,1.36,1.36V53.8a1.364,1.364,0,0,1-1.36,1.36H45.72A2.728,2.728,0,0,1,43,52.441V49.72A2.728,2.728,0,0,1,45.72,47Z" transform="translate(-43 -47)" fill="#f0d0b4"/>
        </g>
        <g id="Grupo_1193391" data-name="Grupo 1193391" transform="translate(19.043 62.569)">
          <path id="Trazado_1007004" data-name="Trazado 1007004" d="M20.441,49.72v2.72a2.728,2.728,0,0,1-2.72,2.72H16.36A1.364,1.364,0,0,1,15,53.8V48.36A1.364,1.364,0,0,1,16.36,47h1.36A2.728,2.728,0,0,1,20.441,49.72Z" transform="translate(-15 -47)" fill="#f0d0b4"/>
        </g>
        <g id="Grupo_1193392" data-name="Grupo 1193392" transform="translate(35.365 48.695)">
          <path id="Trazado_1007005" data-name="Trazado 1007005" d="M35.161,37.072a13.5,13.5,0,0,0,2.693-.272c0,.1.027.177.027.272a5.441,5.441,0,0,1-10.882,0c0-.1.027-.177.027-.272a13.5,13.5,0,0,0,2.693.272Z" transform="translate(-27 -36.8)" fill="#f0d0b4"/>
        </g>
        <g id="Grupo_1193393" data-name="Grupo 1193393" transform="translate(24.484 28.564)">
          <path id="Trazado_1007006" data-name="Trazado 1007006" d="M44.844,28.8a6.8,6.8,0,0,0,6.8-6.8v6.8A13.589,13.589,0,0,1,46.2,39.683a13.109,13.109,0,0,1-3.346,1.836,13.66,13.66,0,0,1-4.815.884H32.6a13.66,13.66,0,0,1-4.815-.884,13.109,13.109,0,0,1-3.346-1.836A13.589,13.589,0,0,1,19,28.8V22a6.8,6.8,0,0,0,13.6,0h5.441A6.8,6.8,0,0,0,44.844,28.8Z" transform="translate(-19 -22)" fill="#f0d0b4"/>
        </g>
        <g id="Grupo_1193394" data-name="Grupo 1193394" transform="translate(24.484 8.161)">
          <path id="Trazado_1007007" data-name="Trazado 1007007" d="M51.645,16.521V27.4a6.8,6.8,0,0,0-13.6,0H32.6a6.8,6.8,0,0,0-13.6,0V16.521l.49-.068a17.558,17.558,0,0,0,7.726-3.115A17.415,17.415,0,0,0,32.6,7a26.367,26.367,0,0,0,17.356,9.331Z" transform="translate(-19 -7)" fill="#f0d0b4"/>
        </g>
        <g id="Grupo_1193395" data-name="Grupo 1193395" transform="translate(43.527 21.763)">
          <ellipse id="Elipse_13823" data-name="Elipse 13823" cx="6.5" cy="7" rx="6.5" ry="7" transform="translate(0.28 0.043)" fill="#69d6f4"/>
        </g>
        <g id="Grupo_1193396" data-name="Grupo 1193396" transform="translate(24.484 21.763)">
          <ellipse id="Elipse_13824" data-name="Elipse 13824" cx="6.5" cy="7" rx="6.5" ry="7" transform="translate(0.322 0.043)" fill="#69d6f4"/>
        </g>
      </g>
      <g id="Grupo_1193398" data-name="Grupo 1193398" transform="translate(0 0)">
        <path id="Trazado_1007008" data-name="Trazado 1007008" d="M32.8,33.081A4.086,4.086,0,0,1,28.72,29H26a6.8,6.8,0,1,0,13.6,0h-2.72A4.086,4.086,0,0,1,32.8,33.081Z" transform="translate(9.365 10.446)"/>
        <path id="Trazado_1007009" data-name="Trazado 1007009" d="M60.247,65.29a2.723,2.723,0,0,0-2.72-2.72V56.921l-3.953.564a17.839,17.839,0,0,0-6.136-7.891c.335-.2.664-.4.982-.627h2.306a9.533,9.533,0,0,0,9.521-9.521V23.124a23.124,23.124,0,0,0-46.247,0V39.446a9.533,9.533,0,0,0,9.521,9.521h2.306c.318.223.647.428.982.627a17.841,17.841,0,0,0-6.136,7.891l-3.953-.564v5.649A2.723,2.723,0,0,0,14,65.29v5.441a2.723,2.723,0,0,0,2.72,2.72v7.968l18.836,2.9,3.032.016,18.938-2.914V73.451a2.723,2.723,0,0,0,2.72-2.72Zm-20.4-16.322H34.4A12.256,12.256,0,0,1,22.161,36.726v-.735a8.14,8.14,0,0,0,13.48-4.706h2.967a8.14,8.14,0,0,0,13.48,4.706v.735A12.258,12.258,0,0,1,39.844,48.967Zm1.128,2.663a4.058,4.058,0,0,1-7.7,0c.375.029.751.057,1.133.057h5.441C40.225,51.688,40.6,51.659,40.972,51.631ZM52.086,23.858a8.14,8.14,0,0,0-13.48,4.706H35.641a8.14,8.14,0,0,0-13.48-4.706V20.209a18.783,18.783,0,0,0,12.489-8.369,27.612,27.612,0,0,0,16.962,8.368l.473.053Zm0,6.067a5.441,5.441,0,1,1-5.441-5.441A5.446,5.446,0,0,1,52.086,29.925Zm-19.043,0A5.441,5.441,0,1,1,27.6,24.484,5.446,5.446,0,0,1,33.043,29.925ZM16.72,39.446V23.123a20.4,20.4,0,1,1,40.806,0V39.446a6.788,6.788,0,0,1-6.1,6.73,14.892,14.892,0,0,0,3.375-9.451v-18.9L51.913,17.5A24.911,24.911,0,0,1,35.448,8.65l-1.33-1.6-.93,1.859A16.052,16.052,0,0,1,21.1,17.626l-1.655.239V36.726a14.892,14.892,0,0,0,3.375,9.451,6.788,6.788,0,0,1-6.1-6.73ZM29.739,50.933c.219.072.441.133.664.195a6.763,6.763,0,0,0,13.44,0c.223-.063.446-.124.664-.195a15.108,15.108,0,0,1,6.3,6.947l-13.68,1.955-13.68-1.955a15.115,15.115,0,0,1,6.3-6.948ZM16.72,65.29h1.36a1.362,1.362,0,0,1,1.36,1.36v2.72a1.362,1.362,0,0,1-1.36,1.36H16.72Zm2.72,13.8V73.2a4.075,4.075,0,0,0,2.72-3.83V66.65a4.075,4.075,0,0,0-2.72-3.83V60.057l16.322,2.331V81.6ZM38.484,81.6V62.389l16.322-2.331V62.82a4.075,4.075,0,0,0-2.72,3.83v2.72a4.075,4.075,0,0,0,2.72,3.83v5.884ZM56.166,70.731a1.362,1.362,0,0,1-1.36-1.36V66.65a1.362,1.362,0,0,1,1.36-1.36h1.36v5.441Z" transform="translate(5.043 0)"/>
        <path id="Trazado_1007010" data-name="Trazado 1007010" d="M64.386,30a4.217,4.217,0,0,0-3,1.245l-.539.539a4.184,4.184,0,0,0-4.619.773l-1.65,1.65A6.941,6.941,0,0,0,48.3,36.169l-4.712,4.713L53.671,50.966l4.712-4.712a6.941,6.941,0,0,0,1.964-6.279L62,38.326a4.033,4.033,0,0,0,.788-4.634l.524-.524a1.525,1.525,0,0,1,2.6,1.079V65.365H56.391a6.809,6.809,0,0,0-6.8,6.8v1.36H68.633V34.247A4.25,4.25,0,0,0,64.386,30ZM56.459,44.33l-2.788,2.79-6.238-6.238,2.788-2.788a4.41,4.41,0,1,1,6.238,6.237ZM60.073,36.4l-.823.823A7.187,7.187,0,0,0,57.327,35.3l.823-.823a1.379,1.379,0,0,1,1.923,0,1.359,1.359,0,0,1,0,1.923Zm5.839,34.4H52.543a4.088,4.088,0,0,1,3.848-2.72h9.521Z" transform="translate(15.7 10.806)"/>
        <path id="Trazado_1007011" data-name="Trazado 1007011" d="M16.322,55.6a5.4,5.4,0,0,0-1.88-4.081A5.418,5.418,0,0,0,10.882,42H0V63.763A5.446,5.446,0,0,0,5.441,69.2h13.6V58.322H15.566A5.385,5.385,0,0,0,16.322,55.6Zm-2.72,0a2.723,2.723,0,0,1-2.72,2.72H2.72V52.882h8.161A2.723,2.723,0,0,1,13.6,55.6ZM2.72,44.72h8.161a2.72,2.72,0,0,1,0,5.441H2.72Zm13.6,21.763H5.441a2.72,2.72,0,1,1,0-5.441H16.322Z" transform="translate(0 15.129)"/>
        <circle id="Elipse_13825" data-name="Elipse 13825" cx="2.5" cy="2.5" r="2.5" transform="translate(49.166 27.166)"/>
        <circle id="Elipse_13826" data-name="Elipse 13826" cx="2.5" cy="2.5" r="2.5" transform="translate(30.166 27.166)"/>
      </g>
    </g>
  </g>
</svg>
