<svg xmlns="http://www.w3.org/2000/svg" width="150" height="150" viewBox="0 0 150 150">
  <g id="Grupo_1177380" data-name="Grupo 1177380" transform="translate(-72.746 -7992)">
    <g id="Elipse_13628" data-name="Elipse 13628" transform="translate(72.746 7992)" fill="#fff7e2" stroke="#cff878" stroke-width="6">
      <circle cx="75" cy="75" r="75" stroke="none"/>
      <circle cx="75" cy="75" r="72" fill="none"/>
    </g>
    <g id="Grupo_1193402" data-name="Grupo 1193402" transform="translate(106.684 8025.319)">
      <path id="Trazado_1007012" data-name="Trazado 1007012" d="M87.286,178.937v45.324a3.6,3.6,0,0,1-3.595,3.595H11.2A3.6,3.6,0,0,1,7.6,224.261V178.937a3.771,3.771,0,0,1,3.771-3.771H83.514A3.772,3.772,0,0,1,87.286,178.937Z" transform="translate(-6.382 -146.451)" fill="#cf8bfc"/>
      <path id="Trazado_1007013" data-name="Trazado 1007013" d="M105.457,184.51v43.171a3.629,3.629,0,0,1-3.629,3.629H37.983a3.629,3.629,0,0,1-3.629-3.629V184.51" transform="translate(-28.844 -154.296)" fill="#cec1e8"/>
      <g id="Grupo_1193400" data-name="Grupo 1193400" transform="translate(5.51 21.723)">
        <path id="Trazado_1007014" data-name="Trazado 1007014" d="M69.9,139.27v47.595h-.538A7.7,7.7,0,0,0,62.205,182H37.98a3.63,3.63,0,0,1-3.63-3.628V135.2a3.63,3.63,0,0,1,3.63-3.63H62.205A7.7,7.7,0,0,1,69.9,139.27Z" transform="translate(-34.35 -131.573)" fill="#ede6f5"/>
        <path id="Trazado_1007015" data-name="Trazado 1007015" d="M291.551,135.2v43.171a3.629,3.629,0,0,1-3.63,3.628H263.7a7.585,7.585,0,0,0-1.355.12,7.705,7.705,0,0,0-5.8,4.742H256V139.269a7.688,7.688,0,0,1,7.7-7.7h24.224A3.629,3.629,0,0,1,291.551,135.2Z" transform="translate(-220.448 -131.572)" fill="#ede6f5"/>
      </g>
      <path id="Trazado_1007016" data-name="Trazado 1007016" d="M262.342,132.312v50.431a7.705,7.705,0,0,0-5.8,4.742H256V139.89A7.7,7.7,0,0,1,262.342,132.312Z" transform="translate(-214.938 -110.471)" fill="#cec1e8"/>
      <g id="Grupo_1193401" data-name="Grupo 1193401" transform="translate(11.855 2.227)">
        <path id="Trazado_1007017" data-name="Trazado 1007017" d="M92.1,22.774l2.783-.564a1.23,1.23,0,0,0,0-2.41L92.1,19.235a6.964,6.964,0,0,1-5.442-5.442l-.564-2.783a1.23,1.23,0,0,0-2.41,0l-.564,2.783a6.964,6.964,0,0,1-5.442,5.442l-2.783.564a1.23,1.23,0,0,0,0,2.41l2.783.564a6.964,6.964,0,0,1,5.442,5.442L83.681,31a1.23,1.23,0,0,0,2.41,0l.564-2.783A6.964,6.964,0,0,1,92.1,22.774Z" transform="translate(-73.907 -10.026)" fill="#f9d366"/>
        <path id="Trazado_1007018" data-name="Trazado 1007018" d="M306.971,110.689l3.287-.666a1.453,1.453,0,0,0,0-2.847l-3.287-.666a8.227,8.227,0,0,1-6.428-6.428l-.666-3.287a1.453,1.453,0,0,0-2.847,0l-.666,3.287a8.227,8.227,0,0,1-6.428,6.428l-3.287.666a1.453,1.453,0,0,0,0,2.847l3.287.666a8.227,8.227,0,0,1,6.428,6.428l.666,3.287a1.453,1.453,0,0,0,2.847,0l.666-3.287A8.226,8.226,0,0,1,306.971,110.689Z" transform="translate(-251.547 -81.899)" fill="#f9d366"/>
      </g>
      <path id="Trazado_1007019" data-name="Trazado 1007019" d="M285.7,6.408a1.22,1.22,0,0,0,1.22-1.22V1.957a1.22,1.22,0,1,0-2.439,0V5.189A1.22,1.22,0,0,0,285.7,6.408Z" transform="translate(-238.85)"/>
      <path id="Trazado_1007020" data-name="Trazado 1007020" d="M285.7,60.659a1.22,1.22,0,0,0,1.22-1.22V56.208a1.22,1.22,0,1,0-2.439,0V59.44A1.22,1.22,0,0,0,285.7,60.659Z" transform="translate(-238.85 -45.549)"/>
      <path id="Trazado_1007021" data-name="Trazado 1007021" d="M302.749,40.377h3.232a1.22,1.22,0,0,0,0-2.439h-3.232a1.22,1.22,0,0,0,0,2.439Z" transform="translate(-253.164 -31.234)"/>
      <path id="Trazado_1007022" data-name="Trazado 1007022" d="M248.5,40.377h3.232a1.22,1.22,0,0,0,0-2.439H248.5a1.22,1.22,0,1,0,0,2.439Z" transform="translate(-207.617 -31.234)"/>
      <path id="Trazado_1007023" data-name="Trazado 1007023" d="M9.025,239.993H4.814a2.377,2.377,0,0,1-2.374-2.374V192.295a1.22,1.22,0,0,0-2.439,0v45.324a4.819,4.819,0,0,0,4.814,4.814H9.025a1.22,1.22,0,1,0,0-2.439Z" transform="translate(0 -159.808)"/>
      <path id="Trazado_1007024" data-name="Trazado 1007024" d="M103.36,134.732a1.22,1.22,0,0,0-1.22,1.22v45.324a2.378,2.378,0,0,1-2.376,2.374H64.738V181.7h30.7a4.855,4.855,0,0,0,4.849-4.849V128.817a4.855,4.855,0,0,0-4.849-4.849H87.925a1.22,1.22,0,1,0,0,2.439h7.514a2.413,2.413,0,0,1,2.41,2.41v43.171a2.412,2.412,0,0,1-2.41,2.408H71.215a8.875,8.875,0,0,0-6.477,2.777v-44.29a6.485,6.485,0,0,1,6.477-6.477h3.213a1.22,1.22,0,0,0,0-2.439H71.215a8.92,8.92,0,0,0-7.7,4.423,8.92,8.92,0,0,0-7.7-4.423h-5.17a1.22,1.22,0,0,0,0,2.439h5.17a6.485,6.485,0,0,1,6.477,6.477v44.29a8.876,8.876,0,0,0-6.477-2.777H31.6a2.412,2.412,0,0,1-2.41-2.408V128.817a2.413,2.413,0,0,1,2.41-2.41h8.647a1.22,1.22,0,1,0,0-2.439H31.6a4.855,4.855,0,0,0-4.849,4.849v48.032A4.855,4.855,0,0,0,31.6,181.7H62.3v1.951H35.547a1.22,1.22,0,1,0,0,2.439H99.765a4.82,4.82,0,0,0,4.815-4.814V135.952A1.22,1.22,0,0,0,103.36,134.732Zm-32.146,42.1H95.439a4.819,4.819,0,0,0,2.41-.644v.657a2.413,2.413,0,0,1-2.41,2.41H66.157A6.444,6.444,0,0,1,71.215,176.836Zm-42.03.013v-.657a4.819,4.819,0,0,0,2.41.644H55.821a6.444,6.444,0,0,1,5.058,2.423H31.6A2.413,2.413,0,0,1,29.185,176.849Z" transform="translate(-22.456 -103.465)"/>
      <path id="Trazado_1007025" data-name="Trazado 1007025" d="M94.57,193.706H74.837a1.22,1.22,0,0,0,0,2.439H94.57a1.22,1.22,0,0,0,0-2.439Z" transform="translate(-61.809 -162.017)"/>
      <path id="Trazado_1007026" data-name="Trazado 1007026" d="M94.57,230.923H74.837a1.22,1.22,0,0,0,0,2.439H94.57a1.22,1.22,0,0,0,0-2.439Z" transform="translate(-61.809 -193.264)"/>
      <path id="Trazado_1007027" data-name="Trazado 1007027" d="M174.921,305.357h-4.383a1.22,1.22,0,1,0,0,2.439h4.383a1.22,1.22,0,0,0,0-2.439Z" transform="translate(-142.16 -255.759)"/>
      <path id="Trazado_1007028" data-name="Trazado 1007028" d="M74.837,307.8H86.121a1.22,1.22,0,1,0,0-2.439H74.837a1.22,1.22,0,0,0,0,2.439Z" transform="translate(-61.809 -255.759)"/>
      <path id="Trazado_1007029" data-name="Trazado 1007029" d="M94.57,379.79H74.837a1.22,1.22,0,0,0,0,2.439H94.57a1.22,1.22,0,0,0,0-2.439Z" transform="translate(-61.809 -318.253)"/>
      <path id="Trazado_1007030" data-name="Trazado 1007030" d="M94.57,268.14H74.837a1.22,1.22,0,1,0,0,2.439H94.57a1.22,1.22,0,0,0,0-2.439Z" transform="translate(-61.809 -224.512)"/>
      <path id="Trazado_1007031" data-name="Trazado 1007031" d="M94.57,342.574H74.837a1.22,1.22,0,0,0,0,2.439H94.57a1.22,1.22,0,0,0,0-2.439Z" transform="translate(-61.809 -287.007)"/>
      <path id="Trazado_1007032" data-name="Trazado 1007032" d="M307.221,233.362h2.89a1.22,1.22,0,0,0,0-2.439h-2.89a1.22,1.22,0,1,0,0,2.439Z" transform="translate(-256.919 -193.264)"/>
      <path id="Trazado_1007033" data-name="Trazado 1007033" d="M401.241,230.923H395.7a1.22,1.22,0,0,0,0,2.439h5.541a1.22,1.22,0,0,0,0-2.439Z" transform="translate(-331.206 -193.264)"/>
      <path id="Trazado_1007034" data-name="Trazado 1007034" d="M326.954,305.357H307.221a1.22,1.22,0,1,0,0,2.439h19.733a1.22,1.22,0,1,0,0-2.439Z" transform="translate(-256.919 -255.759)"/>
      <path id="Trazado_1007035" data-name="Trazado 1007035" d="M307.221,382.229h19.733a1.22,1.22,0,0,0,0-2.439H307.221a1.22,1.22,0,1,0,0,2.439Z" transform="translate(-256.919 -318.253)"/>
      <path id="Trazado_1007036" data-name="Trazado 1007036" d="M326.954,268.14H307.221a1.22,1.22,0,1,0,0,2.439h19.733a1.22,1.22,0,0,0,0-2.439Z" transform="translate(-256.919 -224.512)"/>
      <path id="Trazado_1007037" data-name="Trazado 1007037" d="M307.221,345.013h2.867a1.22,1.22,0,0,0,0-2.439h-2.867a1.22,1.22,0,1,0,0,2.439Z" transform="translate(-256.919 -287.007)"/>
      <path id="Trazado_1007038" data-name="Trazado 1007038" d="M363.245,342.574h-12.8a1.22,1.22,0,1,0,0,2.439h12.8a1.22,1.22,0,0,0,0-2.439Z" transform="translate(-293.21 -287.007)"/>
      <path id="Trazado_1007039" data-name="Trazado 1007039" d="M68.264,17.02l2.783.564a5.735,5.735,0,0,1,4.489,4.489l.564,2.783a2.427,2.427,0,0,0,2.4,1.963h0a2.427,2.427,0,0,0,2.4-1.963l.564-2.783a5.734,5.734,0,0,1,4.489-4.489l2.783-.564a2.449,2.449,0,0,0,0-4.8l-2.783-.564a5.734,5.734,0,0,1-4.489-4.489L80.9,4.383a2.45,2.45,0,0,0-4.8,0l-.564,2.783a5.734,5.734,0,0,1-4.489,4.489l-2.783.564a2.449,2.449,0,0,0,0,4.8Zm.477-2.409.008,0,2.783-.564a8.169,8.169,0,0,0,6.395-6.395l.564-2.783,0-.008h.016l0,.008.564,2.783a8.169,8.169,0,0,0,6.395,6.395l2.783.564.008,0a.137.137,0,0,1,0,.016l-.008,0-2.783.564a8.169,8.169,0,0,0-6.395,6.395l-.564,2.783,0,.008h-.016l0-.008-.564-2.783a8.169,8.169,0,0,0-6.395-6.395l-2.783-.564-.008,0C68.741,14.622,68.741,14.617,68.741,14.611Z" transform="translate(-55.667 -1.414)"/>
      <path id="Trazado_1007040" data-name="Trazado 1007040" d="M283.308,98.929l-3.287.666a2.672,2.672,0,0,0,0,5.238l3.287.666a6.994,6.994,0,0,1,5.475,5.475l.667,3.287a2.672,2.672,0,0,0,5.238,0l.667-3.287a6.994,6.994,0,0,1,5.475-5.475l3.287-.666a2.672,2.672,0,0,0,0-5.238l-3.287-.666a6.994,6.994,0,0,1-5.475-5.475l-.667-3.287a2.672,2.672,0,0,0-5.238,0l-.667,3.287A6.994,6.994,0,0,1,283.308,98.929Zm7.866-4.99.667-3.287a.233.233,0,0,1,.456,0l.667,3.287a9.429,9.429,0,0,0,7.381,7.381l3.287.666a.233.233,0,0,1,0,.456l-3.287.666a9.429,9.429,0,0,0-7.381,7.381l-.667,3.287a.233.233,0,0,1-.456,0l-.667-3.287a9.429,9.429,0,0,0-7.381-7.381l-3.287-.666a.233.233,0,0,1,0-.456l3.287-.666A9.429,9.429,0,0,0,291.173,93.938Z" transform="translate(-233.308 -73.287)"/>
    </g>
  </g>
</svg>
