<svg xmlns="http://www.w3.org/2000/svg" width="170" height="160" viewBox="0 0 170 160">
  <g id="Grupo_1193404" data-name="Grupo 1193404" transform="translate(-309.828 -2049)">
    <rect id="Rectángulo_455604" data-name="Rectángulo 455604" width="170" height="160" rx="20" transform="translate(309.828 2049)" fill="#a4c2ff"/>
    <g id="_319030130_b5b8d46f-ca6e-434b-90af-23f7e268dbdb" data-name="319030130_b5b8d46f-ca6e-434b-90af-23f7e268dbdb" transform="translate(116.275 1969.172)">
      <g id="Grupo_1193403" data-name="Grupo 1193403" transform="translate(194.553 86.829)">
        <path id="Trazado_1007041" data-name="Trazado 1007041" d="M196.967,711.913a3.128,3.128,0,0,1,1.274.39,3.041,3.041,0,0,1,1.189,2.124,5.077,5.077,0,0,1-.428,1.1,2.642,2.642,0,0,1-1.872,1.251,2.956,2.956,0,0,1-1.562-.449q-.1-.067-.187-.142t-.172-.161a2.339,2.339,0,0,1-.291-.37q-.063-.1-.116-.2t-.095-.216q-.042-.11-.072-.224a2.342,2.342,0,0,1-.049-.23q-.02-.114-.028-.229t0-.231q0-.116.018-.23t.04-.227q.026-.113.062-.222t.084-.215q.047-.106.1-.206t.124-.195A2.806,2.806,0,0,1,196.967,711.913Z" transform="translate(-194.553 -648.385)" fill="#aed5e8"/>
        <path id="Trazado_1007042" data-name="Trazado 1007042" d="M330.95,908.749c.431.005.868.025,1.3.006-.761,2.616-1.072,7.651.11,10.121-.8.019-2.149.224-2.847-.2a3.464,3.464,0,0,1-.582-1.775c-.162-1.349-.381-6.909.457-7.843C329.75,908.655,330.458,908.747,330.95,908.749Z" transform="translate(-315.135 -825.207)" fill="#83361e"/>
        <path id="Trazado_1007043" data-name="Trazado 1007043" d="M1707.83,1384.653c.046.01.091.022.138.031.854.148,5.144-2.87,7.2-1.412a.938.938,0,0,1,.012.8,12.743,12.743,0,0,1-3.691,5.133,66.576,66.576,0,0,1-7.387-.011c.029-.018.058-.035.085-.054C1705.058,1388.585,1707.645,1385.595,1707.83,1384.653Z" transform="translate(-1550.689 -1251.154)" fill="#2ab4b6"/>
        <path id="Trazado_1007044" data-name="Trazado 1007044" d="M329.462,707.38l1.978-.012a2.958,2.958,0,0,0-1.135,2.3c-.162,1.967-.15,5.521.549,7.312-.3.038-.6.061-.9.076q-1.534-.024-3.068.008a2.3,2.3,0,0,1-1.241-.435c-.641-.574-.709-2.127-.742-2.927-.068-1.659-.42-4.712.828-5.963a1.584,1.584,0,0,1,1.356-.353C327.879,707.381,328.672,707.392,329.462,707.38Z" transform="translate(-311.57 -644.302)" fill="#1b3f63"/>
        <path id="Trazado_1007045" data-name="Trazado 1007045" d="M1689.311,1271.07a.777.777,0,0,1,.593.383c1.2,1.9.193,7.148-.424,9.287-.289,1-.743,2.788-1.51,3.474-.185.942-2.773,3.932-3.638,4.489-.027.018-.056.036-.085.054a20.668,20.668,0,0,1-2.248.015c.182-1.921,3.535-10,4.436-11.86a29.077,29.077,0,0,0,1.9-3.682l-.153-.244A4.613,4.613,0,0,0,1689.311,1271.07Z" transform="translate(-1530.827 -1150.714)" fill="#148e91"/>
        <path id="Trazado_1007046" data-name="Trazado 1007046" d="M1259.115,110.428a4.875,4.875,0,0,1,3.092.533,4.456,4.456,0,0,1,2.066,2.791,4.654,4.654,0,0,1-.5,3.56,4.738,4.738,0,0,1-3.181,2.071,4.923,4.923,0,0,1-2.909-.555q-.1-.057-.2-.118t-.193-.128q-.095-.066-.186-.137t-.179-.146q-.088-.075-.171-.155t-.163-.164q-.079-.084-.155-.172t-.146-.179q-.071-.091-.137-.186t-.127-.193q-.061-.1-.117-.2t-.107-.2q-.051-.1-.1-.21t-.086-.215q-.04-.109-.075-.219t-.064-.222a4.367,4.367,0,0,1,.481-3.383A4.791,4.791,0,0,1,1259.115,110.428Z" transform="translate(-1147.527 -107.99)" fill="#aed5e8"/>
        <path id="Trazado_1007047" data-name="Trazado 1007047" d="M1649.884,1280.15a15.01,15.01,0,0,0,1.658-2.735c1.7-2.629,5.12-5.669,8.212-6.345a4.611,4.611,0,0,1-1.134,1.915l.153.244a29.062,29.062,0,0,1-1.9,3.682c-.9,1.864-4.253,9.939-4.436,11.86l-.619,0a12.8,12.8,0,0,1-1.717,0,.781.781,0,0,0,.024-.08,12.18,12.18,0,0,0-1.032-2.96c.325-.706.032-1.854.115-2.642C1649.3,1282.228,1650.018,1280.953,1649.884,1280.15Z" transform="translate(-1501.27 -1150.714)" fill="#1e9a9d"/>
        <path id="Trazado_1007048" data-name="Trazado 1007048" d="M1682.7,1289.9l.153.244a29.054,29.054,0,0,1-1.9,3.682c-.9,1.864-4.253,9.939-4.436,11.86l-.619,0a16.294,16.294,0,0,0,1.266-3.434q1.427-3.987,3.2-7.832C1680.891,1293.324,1682.514,1290.87,1682.7,1289.9Z" transform="translate(-1525.355 -1167.63)" fill="#0c8182"/>
        <path id="Trazado_1007049" data-name="Trazado 1007049" d="M242.109,1444.972a9.255,9.255,0,0,0,6.854,3.051c.5,0,.988,0,1.484.027-1.913.167-3.883.084-5.8.074l-9.413-.043-29.44.034c-.013-1.046.009-2.094.015-3.141q2.623-.023,5.246.006l7.33,0,.66.01,2.01,0,6.067.011,3.788-.007c1.285,0,2.585-.042,3.868.008l.611-.006C237.607,1445,239.9,1445.124,242.109,1444.972Z" transform="translate(-204.646 -1306.935)" fill="#3d6686"/>
        <path id="Trazado_1007050" data-name="Trazado 1007050" d="M197.393,1316.635a16.914,16.914,0,0,1,8.444,1.452,20.6,20.6,0,0,0,2.271,1.03l.063.016c1.088,3.792,2.567,7.6,5.337,10.483l-2.01,0-.66-.01-7.33,0q-.726-.687-1.421-1.406A16.173,16.173,0,0,1,197.393,1316.635Z" transform="translate(-197.101 -1191.554)" fill="#2ab4b6"/>
        <path id="Trazado_1007051" data-name="Trazado 1007051" d="M220.424,1338.821c-1-1.113-2.119-2.139-3.19-3.181-2.941-2.862-6.019-5.618-8.888-8.549h-.078l0-.1-.2-.2c1.019.126,11.835,10.452,12.888,11.834.043.056.1.149.135.2Z" transform="translate(-206.688 -1200.773)" fill="#1e9a9d"/>
        <path id="Trazado_1007052" data-name="Trazado 1007052" d="M397.814,996.315c4.16-.15,8.36-.021,12.525-.044l-.607,1.138c-1.13,2.242-5.092,10.3-5.161,12.324-.441,2.466-.472,4.136.967,6.286a.591.591,0,0,1-.336-.128,13.653,13.653,0,0,1-2.333-2.979,35.022,35.022,0,0,1-6.2-15.438c-.6,0-1.2.012-1.794-.044a10.879,10.879,0,0,1,1.509-.028c.23-.016.339-.011.485-.187l-.086-.313.024-.307C397.065,996.359,397.47,996.386,397.814,996.315Z" transform="translate(-374.518 -903.816)" fill="#aed5e8"/>
        <path id="Trazado_1007053" data-name="Trazado 1007053" d="M397.813,996.315c4.16-.15,8.36-.021,12.525-.044l-.607,1.138-13.061.065c-.6,0-1.2.012-1.794-.044a10.879,10.879,0,0,1,1.509-.028c.23-.016.339-.011.485-.187l-.086-.313.024-.307C397.065,996.359,397.469,996.386,397.813,996.315Z" transform="translate(-374.517 -903.816)" fill="#ce3043"/>
        <path id="Trazado_1007054" data-name="Trazado 1007054" d="M453.093,1226.41c.238,2.127.651,4.318.774,6.446.053.326.11.651.145.979.276,1.723.579,3.446.8,5.176.578,3.583.779,6.7,3.2,9.619-2.213.152-4.5.032-6.723.028l-.611.006c-1.284-.049-2.583-.008-3.868-.008-.176-1.01-.477-1.969-.593-3a21.832,21.832,0,0,1,1.885-10.795c.311-.722.718-1.4,1.063-2.108A36.743,36.743,0,0,1,453.093,1226.41Z" transform="translate(-420.55 -1110.593)" fill="#2ab4b6"/>
        <path id="Trazado_1007055" data-name="Trazado 1007055" d="M494.2,1289.83c.053.326.11.651.145.979-.339,1.372-.533,2.823-.8,4.215q-1.03,5.292-1.919,10.608l-.611.006a38.583,38.583,0,0,0,.787-4.19q.741-4.4,1.638-8.78A10.247,10.247,0,0,1,494.2,1289.83Z" transform="translate(-460.883 -1167.567)" fill="#1e9a9d"/>
        <path id="Trazado_1007056" data-name="Trazado 1007056" d="M499.746,1299.47c.276,1.723.579,3.446.8,5.176.578,3.583.779,6.7,3.2,9.619-2.213.152-4.5.032-6.723.028q.889-5.317,1.919-10.609C499.213,1302.293,499.407,1300.841,499.746,1299.47Z" transform="translate(-466.284 -1176.227)" fill="#2ab4b6"/>
        <path id="Trazado_1007057" data-name="Trazado 1007057" d="M1324.771,1445.086c1.931.051,3.865.027,5.8.026,1.09,0,2.237.069,3.32-.02.869.022,1.743.066,2.612.008a12.8,12.8,0,0,0,1.717,0l.619,0a20.667,20.667,0,0,0,2.248-.015,66.576,66.576,0,0,0,7.387.011,57.079,57.079,0,0,0,6.861.026,5.57,5.57,0,0,1,.1,2.694,1.428,1.428,0,0,1-.114.225l-34.911,0c-6.61,0-13.23.062-19.839-.021q-.254-1.456-.552-2.9l16.3-.017C1319.125,1445.1,1321.963,1445.192,1324.771,1445.086Z" transform="translate(-1187.664 -1307.043)" fill="#3d6686"/>
        <path id="Trazado_1007058" data-name="Trazado 1007058" d="M358.4,908.934l22.235-.015q-.59,1.039-1.2,2.065a8.36,8.36,0,0,1-.519.9l-.65,1.2-.211.318-.418.789-.132.208q-.622,1.1-1.2,2.223l-.177.31-.463.881c-4.165.023-8.365-.106-12.525.044-.344.071-.748.044-1,.28l-.024.307.086.313c-.146.176-.254.171-.485.187a10.888,10.888,0,0,0-1.509.028l-1.471.037-1.667.019c-1.182-2.47-.87-7.5-.11-10.121l.211.049A9.331,9.331,0,0,1,358.4,908.934Z" transform="translate(-339.848 -825.354)" fill="#d73d37"/>
        <path id="Trazado_1007059" data-name="Trazado 1007059" d="M356.959,908.9l.211.049a6.483,6.483,0,0,0,1.384.073,19.946,19.946,0,0,0-.317,8.567c.115.487.351.936.5,1.414l-1.667.019C355.887,916.552,356.2,911.517,356.959,908.9Z" transform="translate(-339.847 -825.353)" fill="#ce3043"/>
        <path id="Trazado_1007060" data-name="Trazado 1007060" d="M422.748,929.413q8.2-.079,16.4-.058a8.36,8.36,0,0,1-.519.9l-.65,1.2-.211.318-.418.789-.132.208q-.622,1.1-1.2,2.223l-.177.31-.463.881c-4.165.023-8.365-.106-12.525.044-.031-.254-.029-.516-.036-.772C422.837,933.439,422.783,931.424,422.748,929.413Z" transform="translate(-399.556 -843.724)" fill="#e36e52"/>
        <path id="Trazado_1007061" data-name="Trazado 1007061" d="M423.415,988.015c1.347.055,2.73-.022,4.081-.038l8.944-.115-.463.881c-4.165.023-8.365-.106-12.525.044C423.421,988.533,423.423,988.271,423.415,988.015Z" transform="translate(-400.155 -896.289)" fill="#e7525d"/>
        <path id="Trazado_1007062" data-name="Trazado 1007062" d="M426.724,951.662c4.851.214,9.783-.085,14.6.149l-.418.789c-4.688-.1-9.422.19-14.1-.033C426.649,952.371,426.722,951.919,426.724,951.662Z" transform="translate(-403.111 -863.768)" fill="#fefdfc"/>
        <path id="Trazado_1007063" data-name="Trazado 1007063" d="M426.852,937.319c5.132.036,10.326-.206,15.45.025l-.65,1.2-.211.318c-4.817-.234-9.749.065-14.6-.149l-.005-.164Z" transform="translate(-403.229 -850.814)" fill="#fefdfc"/>
        <path id="Trazado_1007064" data-name="Trazado 1007064" d="M426.836,949.642c4.933-.022,9.884-.089,14.816-.005l-.211.318c-4.817-.234-9.749.065-14.6-.149Z" transform="translate(-403.229 -861.911)" fill="#f6c378"/>
        <path id="Trazado_1007065" data-name="Trazado 1007065" d="M426.558,962.881q7.042.046,14.083.006-.622,1.1-1.2,2.223c-4.267.09-8.591.157-12.855.054Z" transform="translate(-402.979 -873.846)" fill="#fefdfc"/>
        <path id="Trazado_1007066" data-name="Trazado 1007066" d="M1674.615,529.428a8.284,8.284,0,0,1,6.076,1.692,8.078,8.078,0,0,1,3.027,5.542,7.893,7.893,0,0,1-1.769,5.7,8.46,8.46,0,0,1-5.668,2.922,7.47,7.47,0,0,1-4.951-1.143,8.28,8.28,0,0,1-3.633-5.129,7.519,7.519,0,0,1,1.042-5.737A8.435,8.435,0,0,1,1674.615,529.428Z" transform="translate(-1517.817 -484.412)" fill="#aed5e8"/>
        <path id="Trazado_1007067" data-name="Trazado 1007067" d="M291.562,1111.91c.248.145.487.3.729.46.787,2.4,1.351,4.883,1.993,7.323q1.415,5.379,2.982,10.715,1.583,5.3,3.282,10.572c.522,1.6,1.215,3.2,1.64,4.821l-6.067-.011c-2.769-2.884-4.248-6.691-5.337-10.483C288.763,1128.538,288.748,1118.458,291.562,1111.91Z" transform="translate(-279.714 -1007.73)" fill="#148e91"/>
        <path id="Trazado_1007068" data-name="Trazado 1007068" d="M318.3,1116.43a45.768,45.768,0,0,1,16.04,17.523c-.346.706-.752,1.387-1.063,2.108a21.831,21.831,0,0,0-1.885,10.795c.116,1.029.417,1.988.593,3l-3.788.007c-.425-1.626-1.118-3.219-1.64-4.821q-1.7-5.268-3.282-10.571-1.567-5.337-2.982-10.715C319.649,1121.313,319.086,1118.829,318.3,1116.43Z" transform="translate(-305.722 -1011.79)" fill="#1e9a9d"/>
        <path id="Trazado_1007069" data-name="Trazado 1007069" d="M338.6,707.145c.637,0,1.3.029,1.93-.025a13.888,13.888,0,0,0-.164,3.264c0,1.714.05,3.428-.094,5.138a3.5,3.5,0,0,1,.185-.585,1.373,1.373,0,0,0,.211.478,1.884,1.884,0,0,0,1.391.482c3.03.1,6.105,0,9.137-.047,2.142-.032,4.287,0,6.43-.022,2.615-.026,5.218-.034,7.831-.136.9-.035,1.85-.009,2.74-.121a.867.867,0,0,0,.646-.318,39.783,39.783,0,0,1,6.082-5.152q.09,9.99.051,19.98c.011,2.038-.115,4.11,1.462,5.658a5.24,5.24,0,0,0,3.042,1.314c.484.946,1.189,2.451,2.291,2.819a2.058,2.058,0,0,0,.343.078.82.82,0,0,1-.752-.084,6.009,6.009,0,0,1-1.347-1.375,22.6,22.6,0,0,1,2.04,4.446c.712,2.432,4.043,7.464,4.249,9.529a14.981,14.981,0,0,0-3.153,3.958c-.016.025-.032.049-.049.074-.384.546-1.031.775-1.347,1.361-1.473,2.73-2.782,7.494-1.934,10.534.461.224.944.434,1.382.7a2.758,2.758,0,0,1-.962.513l-.138.043-.084.023c0,1.795-.225,6.378.159,7.824a3,3,0,0,0,.458.866c-1.5-.014-2.993.013-4.49.012-.563,2.213-.954,4.55-1.318,6.806l-10.3.018c-.5-.026-.988-.024-1.484-.027a9.255,9.255,0,0,1-6.854-3.051c-2.419-2.924-2.62-6.037-3.2-9.619-.225-1.73-.529-3.453-.8-5.176-.034-.328-.092-.654-.145-.979-.123-2.128-.536-4.319-.774-6.446a19.61,19.61,0,0,1-.166-2.212c-.481-.445-.918-.915-1.357-1.4-1.439-2.15-1.408-3.821-.967-6.287.069-2.02,4.031-10.083,5.161-12.324l.607-1.138.463-.881.177-.31q.578-1.123,1.2-2.223l.132-.208.418-.789.211-.318.65-1.2a8.378,8.378,0,0,0,.519-.9q.61-1.027,1.2-2.065l-22.235.015a9.331,9.331,0,0,0-1.232.017l-.211-.049c-.43.019-.867,0-1.3-.006-1.022-.959-1.4-1.122-1.628-2.605-.322-2.092-.134-6.464,1.131-8.181q1.534-.032,3.068-.008c.3-.015.6-.038.9-.076-.7-1.79-.711-5.345-.549-7.312A2.957,2.957,0,0,1,338.6,707.145Z" transform="translate(-318.733 -644.079)" fill="#3d6686"/>
        <path id="Trazado_1007070" data-name="Trazado 1007070" d="M376.939,707.145c.637,0,1.3.029,1.93-.025a13.888,13.888,0,0,0-.164,3.264c0,1.714.05,3.428-.094,5.138-.026.34-.026.673-.026,1.013l.13.026,0,.13c3.021-.018,6.131-.172,9.142.034a33.162,33.162,0,0,0-4.2.09,20.383,20.383,0,0,1-2.52.042c-1.892.016-3.8.064-5.69-.031.3-.015.6-.038.9-.076-.7-1.79-.711-5.345-.549-7.312A2.958,2.958,0,0,1,376.939,707.145Z" transform="translate(-357.069 -644.079)" fill="#344496"/>
        <path id="Trazado_1007071" data-name="Trazado 1007071" d="M611.294,933.045c.011,2.038-.115,4.11,1.462,5.658a5.24,5.24,0,0,0,3.042,1.314,4.189,4.189,0,0,1-.05,1.274,11.617,11.617,0,0,1-3.136-1.022,25.172,25.172,0,0,0-1.77,2.793l-6.034,9.814A75.838,75.838,0,0,0,595.83,949a14,14,0,0,1,5.234.638l5.728-9.355C608.227,937.891,609.626,935.273,611.294,933.045Z" transform="translate(-555.048 -847.043)" fill="#1b3f63"/>
        <path id="Trazado_1007072" data-name="Trazado 1007072" d="M695.161,1001.64c.484.946,1.189,2.451,2.291,2.819a2.058,2.058,0,0,0,.343.078.821.821,0,0,1-.752-.084,6.011,6.011,0,0,1-1.347-1.375,22.6,22.6,0,0,1,2.04,4.446l-.331-.421a16.756,16.756,0,0,0-.967-2.243l-1.328.95a59.493,59.493,0,0,0-.916,8.524c-.138,1.794-.385,3.62-.457,5.414l-.479-.306c-1.373-.72-2.758-1.451-4.083-2.254-1.631-.948-3.3-1.874-5-2.687l6.034-9.814a25.207,25.207,0,0,1,1.77-2.793,11.619,11.619,0,0,0,3.136,1.022A4.188,4.188,0,0,0,695.161,1001.64Z" transform="translate(-634.41 -908.666)" fill="#83361e"/>
        <path id="Trazado_1007073" data-name="Trazado 1007073" d="M775.4,1015.5l.215.18a3.335,3.335,0,0,1,1.142,1.63l-1.328.95a59.485,59.485,0,0,0-.916,8.524c-.138,1.794-.385,3.62-.457,5.414l-.479-.306c.1-1.724.322-3.46.486-5.181C774.418,1022.982,774.8,1019.2,775.4,1015.5Z" transform="translate(-714.729 -921.118)" fill="#4b2010"/>
        <path id="Trazado_1007074" data-name="Trazado 1007074" d="M791.981,1017.27a3.335,3.335,0,0,1,1.142,1.63l-1.328.95C791.889,1018.991,791.936,1018.133,791.981,1017.27Z" transform="translate(-731.096 -922.708)" fill="#1b3f63"/>
        <path id="Trazado_1007075" data-name="Trazado 1007075" d="M684.17,1041.41l6.034-9.814c-.036,2.155-.309,4.325-.5,6.471-.178,2.008-.278,4.03-.532,6.03C687.542,1043.149,685.873,1042.223,684.17,1041.41Z" transform="translate(-634.409 -935.578)" fill="#a15333"/>
        <path id="Trazado_1007076" data-name="Trazado 1007076" d="M334.049,802.548q1.534-.032,3.068-.008c1.89.094,3.8.047,5.69.031a20.384,20.384,0,0,0,2.52-.042c2.664.169,5.389.041,8.061.033q6.976-.036,13.951.047l-1.546,1.843c-.4.53-.778,1.129-1.218,1.62l-.488.676-.344.454-.55.771-.32.447-.492.73-.334.472-.611.875-1.913,2.86-22.235.015a9.321,9.321,0,0,0-1.232.017l-.211-.049c-.43.019-.867,0-1.3-.006-1.022-.959-1.4-1.122-1.628-2.605C332.6,808.638,332.783,804.266,334.049,802.548Z" transform="translate(-318.731 -729.792)" fill="#f6c378"/>
        <path id="Trazado_1007077" data-name="Trazado 1007077" d="M402.6,871.225q7.117-.015,14.234.081c2.618.012,5.33-.15,7.937.029l-.611.875q-7.081.019-14.162-.071c-2.312-.009-4.946.17-7.223-.076A1.329,1.329,0,0,1,402.6,871.225Z" transform="translate(-381.459 -791.504)" fill="#fefdfc"/>
        <path id="Trazado_1007078" data-name="Trazado 1007078" d="M348.945,812.465l2.66.027c-.566,2.034-1.164,5.336-.321,7.329a2.593,2.593,0,0,0,1.664,1.508,9.62,9.62,0,0,1-3.494-.1,1.355,1.355,0,0,1-.771-.779C347.853,818.677,348.281,814.3,348.945,812.465Z" transform="translate(-332.607 -738.718)" fill="#f29c64"/>
        <path id="Trazado_1007079" data-name="Trazado 1007079" d="M402.641,859.6q7.682.077,15.365.063c2.521,0,5.077-.082,7.594.028l-.492.73-.334.472c-2.606-.179-5.319-.018-7.937-.029q-7.117-.1-14.234-.081l.011-.435Z" transform="translate(-381.459 -781.065)" fill="#fefdfc"/>
        <path id="Trazado_1007080" data-name="Trazado 1007080" d="M402.614,866.965c7.49.149,15,.031,22.494.073l-.334.472c-2.606-.179-5.319-.018-7.937-.029q-7.117-.1-14.234-.081Z" transform="translate(-381.459 -787.679)" fill="#fae39c"/>
        <path id="Trazado_1007081" data-name="Trazado 1007081" d="M402.685,849.069a4.228,4.228,0,0,1,.015-1.169c7.936.023,15.881-.088,23.815.042l-.55.771-.32.447c-2.518-.11-5.073-.025-7.594-.028Q410.367,849.146,402.685,849.069Z" transform="translate(-381.502 -770.531)" fill="#fefdfc"/>
        <path id="Trazado_1007082" data-name="Trazado 1007082" d="M402.685,849.266a4.228,4.228,0,0,1,.015-1.169c.032.274,0,.554.213.74,3.285.13,6.609.025,9.9.022l13.153.052-.32.447c-2.518-.11-5.073-.025-7.594-.028Q410.367,849.343,402.685,849.266Z" transform="translate(-381.502 -770.728)" fill="#fae39c"/>
        <path id="Trazado_1007083" data-name="Trazado 1007083" d="M403.171,835.712c2.376.012,23.768-.169,24.6.131l-.488.676-.344.454c-7.934-.13-15.879-.019-23.815-.042l.044-.432Z" transform="translate(-381.926 -759.563)" fill="#fefdfc"/>
        <path id="Trazado_1007084" data-name="Trazado 1007084" d="M403.168,843.523q12.058-.081,24.115.02l-.344.454c-7.934-.129-15.879-.019-23.815-.042Z" transform="translate(-381.927 -766.587)" fill="#fae39c"/>
        <path id="Trazado_1007085" data-name="Trazado 1007085" d="M403.639,821.279c8.591.013,17.183-.18,25.775-.082-.4.53-.778,1.129-1.218,1.62-.831-.3-22.223-.12-24.6-.131Z" transform="translate(-382.352 -746.537)" fill="#fae39c"/>
        <path id="Trazado_1007086" data-name="Trazado 1007086" d="M518.544,1034.264l1.328-.95a16.756,16.756,0,0,1,.967,2.243l.331.421c.712,2.432,4.043,7.464,4.249,9.529a14.98,14.98,0,0,0-3.153,3.958c-.016.025-.032.05-.049.074-.384.546-1.031.775-1.347,1.36-1.473,2.73-2.782,7.494-1.934,10.534.461.224.944.434,1.382.7a2.759,2.759,0,0,1-.962.513l-.138.043-.084.023c0,1.795-.225,6.378.159,7.824a3,3,0,0,0,.458.865c-1.5-.014-2.993.012-4.49.012-.563,2.213-.954,4.551-1.318,6.806l-10.3.018c-.5-.026-.988-.025-1.484-.027a9.255,9.255,0,0,1-6.854-3.051c-2.419-2.924-2.62-6.037-3.2-9.619-.225-1.73-.529-3.453-.8-5.176-.034-.328-.092-.654-.145-.979-.123-2.128-.536-4.319-.774-6.446a19.616,19.616,0,0,1-.166-2.212c-.481-.445-.918-.915-1.357-1.4-1.439-2.15-1.408-3.821-.967-6.287l.052.07a40.741,40.741,0,0,0,2.742,3.88c5.779,6.343,14.872,8.87,23.042,10.222.539.089,1.1.146,1.632.271a67.088,67.088,0,0,1,3.84-8.187c-.682-.354-1.382-.69-2.035-1.094.072-1.794.318-3.62.456-5.414A59.465,59.465,0,0,1,518.544,1034.264Z" transform="translate(-457.845 -937.121)" fill="#1b3f63"/>
        <path id="Trazado_1007087" data-name="Trazado 1007087" d="M813.543,1055.38l.331.421c.712,2.432,4.043,7.464,4.249,9.529a14.983,14.983,0,0,0-3.153,3.958C813.162,1066.926,813.406,1058.558,813.543,1055.38Z" transform="translate(-750.55 -956.945)" fill="#3d6686"/>
        <path id="Trazado_1007088" data-name="Trazado 1007088" d="M513.125,1204.64c2.243,1.989,10.807,6.57,13.685,7.2a12.713,12.713,0,0,1-6.935,6.879,15.471,15.471,0,0,1-4.862.729c-.225-1.73-.529-3.453-.8-5.176-.034-.328-.092-.654-.145-.979-.123-2.128-.536-4.319-.774-6.446A19.667,19.667,0,0,1,513.125,1204.64Z" transform="translate(-480.748 -1091.035)" fill="#a15333"/>
        <path id="Trazado_1007089" data-name="Trazado 1007089" d="M543.51,1275.53c2.963,1.113,5.927,2.228,8.97,3.107a19.737,19.737,0,0,1,2.141.584,58.441,58.441,0,0,1-.836,7.685,2.193,2.193,0,0,0,.521,1.727,1.869,1.869,0,0,0,.556.379c-.563,2.213-.954,4.55-1.318,6.806l-10.3.018c-.5-.026-.988-.025-1.484-.027a9.255,9.255,0,0,1-6.854-3.051c-2.419-2.924-2.62-6.036-3.2-9.619a15.47,15.47,0,0,0,4.862-.729A12.714,12.714,0,0,0,543.51,1275.53Z" transform="translate(-497.447 -1154.721)" fill="#592b1f"/>
        <path id="Trazado_1007090" data-name="Trazado 1007090" d="M730.177,1306.1a19.737,19.737,0,0,1,2.141.584,58.431,58.431,0,0,1-.836,7.685c-.489.007-1.489.213-1.878-.106C729.261,1312.967,729.983,1307.739,730.177,1306.1Z" transform="translate(-675.145 -1182.184)" fill="#4b2010"/>
        <path id="Trazado_1007091" data-name="Trazado 1007091" d="M766.893,97.57a23.728,23.728,0,0,1,16.2-9.284c4.724-.548,10,.208,13.8,3.262a8.472,8.472,0,0,1,1.391,1.385c2.761-.63,6.3.528,8.619,1.989q.293.184.579.381t.563.4q.277.208.546.427t.528.449q.259.23.509.471t.489.491q.24.251.469.511t.447.529q.218.269.425.547t.4.564q.2.286.379.58t.355.6q.171.3.33.61t.3.623q.146.314.279.635t.253.645a19.968,19.968,0,0,1-.362,14.9,5.649,5.649,0,0,1,.676,4.65,13.432,13.432,0,0,1-1.058,2.26,6.346,6.346,0,0,1-3.936,1.859c-.475-.123-.954-.235-1.418-.4a15.2,15.2,0,0,1-.352,1.525,32.058,32.058,0,0,1-1.316,3.453,20.843,20.843,0,0,1-6.965,7.768,10.265,10.265,0,0,1-1.993,1.071,14.516,14.516,0,0,1-6.284,1.8l-.184.016c-3,.548-6.7-.539-9.425-1.794-4.845-2.637-7.727-6.272-9.953-11.251a24.949,24.949,0,0,0-.8-2.63,7.253,7.253,0,0,1-2.338.1,6.8,6.8,0,0,1-3.475-1.949,7.138,7.138,0,0,1-1.439-3.163,4.484,4.484,0,0,1,.917-3.643,8.227,8.227,0,0,1-1.01-3.147A23.275,23.275,0,0,1,766.893,97.57Z" transform="translate(-704.99 -87.99)" fill="#2e2738"/>
        <path id="Trazado_1007092" data-name="Trazado 1007092" d="M973.36,211.22c.056.428-.409,1-.643,1.343-2.477,3.657-4.713,5.532-9.17,6.384.092-.319.926-.721,1.23-.919A54.585,54.585,0,0,0,973.36,211.22Z" transform="translate(-885.393 -198.578)" fill="#50485e"/>
        <path id="Trazado_1007093" data-name="Trazado 1007093" d="M1127.841,153.254a13.294,13.294,0,0,1,6.6,3.426c3.229,3.025,4.734,7.787,4.879,12.118a20.518,20.518,0,0,0-5.193-6.759,65.771,65.771,0,0,0,1.776,7.427,43.465,43.465,0,0,1-6.144-7.78q.127,1.362.345,2.713a26.328,26.328,0,0,0,2.649,6.862c-4.615-4.36-6.776-10.522-7.388-16.718.971,1.9,2.1,3.684,3.248,5.484a23.466,23.466,0,0,1-.13-3.649,18.985,18.985,0,0,1,4.4,3.36A13.558,13.558,0,0,0,1127.841,153.254Z" transform="translate(-1030.761 -146.503)" fill="#50485e"/>
        <path id="Trazado_1007094" data-name="Trazado 1007094" d="M810.977,104.579a9.657,9.657,0,0,1,1.447-.056c-2.937.854-7.247,2.423-9.463,4.581a33.82,33.82,0,0,1,10.6-.89,18.261,18.261,0,0,0-7.479,4.539c6.645.166,10.066.988,16.246-2.388a18.185,18.185,0,0,1-3.347,4.071c-4.174,3.59-12.44,5.507-17.663,7.88a31.493,31.493,0,0,1,3.979-3.529c1.307-1.1,2.694-2.1,4.016-3.183-5.162.647-10.606,2.854-14.253,6.666-.718.75-1.193,1.664-1.841,2.466l-.062.076a23.758,23.758,0,0,1,3.679-7.81c.9-1.25,1.9-2.461,2.7-3.784a14.849,14.849,0,0,0-6.133,4.862c-.444.623-.806,1.3-1.236,1.928a17.244,17.244,0,0,1,3.959-8.478C799.958,107.087,805.219,105.008,810.977,104.579Z" transform="translate(-731.423 -102.725)" fill="#50485e"/>
        <path id="Trazado_1007095" data-name="Trazado 1007095" d="M799.091,205.516c-1.781,4.086-6.475,9.317-10.054,11.981a21.029,21.029,0,0,0,11.037-10.416c1.387,5.443,3.751,9.721,8.7,12.671a17.3,17.3,0,0,0,2.4,1.2c-.006.921-.036,1.85-.006,2.77a5.388,5.388,0,0,1-.093-1.651,16.352,16.352,0,0,1-4.972-2.437c-3.11-2.313-5.65-5.541-6.234-9.465a26.6,26.6,0,0,1-11.509,9.124c-.865.379-1.862.459-2.705.879l-.064.033c-2.141-.481-3.83-1.056-5.872.2-.167.1-.322.22-.481.336-.082.06-.166.117-.249.177-.594-.229-1.995.463-2.687.587.632,8.855-.437,15.508,6.956,21.923a17.016,17.016,0,0,0,10.218,4.333c-3,.548-6.7-.539-9.425-1.794-4.845-2.637-7.727-6.272-9.953-11.251a24.934,24.934,0,0,0-.8-2.63,7.252,7.252,0,0,1-2.338.1,6.8,6.8,0,0,1-3.475-1.949,7.137,7.137,0,0,1-1.438-3.163,4.483,4.483,0,0,1,.917-3.643,3.363,3.363,0,0,1,.993-.855,3.957,3.957,0,0,1,3.193-.165l.631-1.735c.625-.207,1.254-.358,1.9-.5,7.94-1.528,16.276-4.066,21.993-10.123a29.221,29.221,0,0,0,2.864-3.71Z" transform="translate(-707.907 -193.454)" fill="#f29c64"/>
        <path id="Trazado_1007096" data-name="Trazado 1007096" d="M817.525,350.227c.625-.207,1.254-.358,1.9-.5a19.168,19.168,0,0,0-.913,3.265,4.681,4.681,0,0,0-1.613-1.027Z" transform="translate(-753.645 -323.005)" fill="#232530"/>
        <path id="Trazado_1007097" data-name="Trazado 1007097" d="M792.639,392.436a4.043,4.043,0,0,1,.611-.045,2.656,2.656,0,0,1,1.963.949c.144,1.061.107,2.152.238,3.22.047.382.32,1.086.191,1.432a1.891,1.891,0,0,1-1.022.033,4,4,0,0,1-2.606-1.735,3.239,3.239,0,0,1-.489-2.414A2.249,2.249,0,0,1,792.639,392.436Z" transform="translate(-730.789 -361.336)" fill="#d73d37"/>
        <path id="Trazado_1007098" data-name="Trazado 1007098" d="M891.11,251.325c.584,3.924,3.124,7.152,6.234,9.465a16.352,16.352,0,0,0,4.972,2.437,5.392,5.392,0,0,0,.093,1.65l.029.121q.218-.222.446-.434a3.28,3.28,0,0,1,2.427-1.019,3.388,3.388,0,0,1,2.237,1.357,5.649,5.649,0,0,1,.676,4.65,13.432,13.432,0,0,1-1.058,2.26,6.347,6.347,0,0,1-3.936,1.859c-.475-.123-.954-.235-1.418-.4a15.2,15.2,0,0,1-.352,1.525,32.06,32.06,0,0,1-1.316,3.453,20.843,20.843,0,0,1-6.965,7.768,10.268,10.268,0,0,1-1.993,1.071,14.517,14.517,0,0,1-6.284,1.8l-.184.016a17.016,17.016,0,0,1-10.218-4.333c-7.392-6.415-6.324-13.068-6.956-21.923.693-.124,2.093-.815,2.687-.587.083-.059.167-.117.249-.177.159-.115.314-.233.481-.336,2.042-1.253,3.73-.677,5.872-.2l.064-.033c.844-.42,1.84-.5,2.705-.879A26.6,26.6,0,0,0,891.11,251.325Z" transform="translate(-799.146 -234.607)" fill="#f7b57a"/>
        <path id="Trazado_1007099" data-name="Trazado 1007099" d="M997.419,525.915a.878.878,0,0,1,.139.019c.233.072.26.156.35.36a.469.469,0,0,1-.077.231,5.115,5.115,0,0,1-2.858,1.536,5.878,5.878,0,0,1-4.607-1.03l-.317-.357c-.047-.273-.1-.332.052-.571.658-.121.919.476,1.431.776a4.677,4.677,0,0,0,1.706.5A5.572,5.572,0,0,0,997.419,525.915Z" transform="translate(-909.158 -481.29)" fill="#e36e52"/>
        <path id="Trazado_1007100" data-name="Trazado 1007100" d="M1008.926,469.478a3.083,3.083,0,0,1,1.791.222,1.36,1.36,0,0,1,.74.845.856.856,0,0,1-.173.716,2.575,2.575,0,0,1-1.763.685,3.73,3.73,0,0,1-2.077-.411,1.183,1.183,0,0,1-.579-.779.781.781,0,0,1,.192-.618A2.609,2.609,0,0,1,1008.926,469.478Z" transform="translate(-924.301 -430.553)" fill="#f29c64"/>
        <path id="Trazado_1007101" data-name="Trazado 1007101" d="M1017.013,476.449a3.4,3.4,0,0,1,1.856.236.375.375,0,0,1,.257.312,1.269,1.269,0,0,1-.709.379,4.538,4.538,0,0,1-1.611-.1c-.27-.077-.38-.1-.508-.349A1.336,1.336,0,0,1,1017.013,476.449Z" transform="translate(-932.782 -436.827)" fill="#f7b57a"/>
        <path id="Trazado_1007102" data-name="Trazado 1007102" d="M1096.02,364.4a19.787,19.787,0,0,1,5.174.025l-.214.126a20.246,20.246,0,0,0-.083,3.2l-.08-.084c-.863-.889-1.985-1.848-3.317-1.643a7.556,7.556,0,0,1-1.286.264c-.462-.492.5-1.014.423-1.642C1096.426,364.434,1096.308,364.45,1096.02,364.4Z" transform="translate(-1004.403 -336.039)" fill="#f29c64"/>
        <path id="Trazado_1007103" data-name="Trazado 1007103" d="M1038.33,493.019c1.008-.544,3.222-.746,4.527-1.322a21.655,21.655,0,0,0,10.215-9.356,35.682,35.682,0,0,0,1.585-3.8l.231.384a32.1,32.1,0,0,1-1.316,3.453,20.843,20.843,0,0,1-6.965,7.768,10.267,10.267,0,0,1-1.993,1.071A14.516,14.516,0,0,1,1038.33,493.019Z" transform="translate(-952.576 -438.73)" fill="#f29c64"/>
        <path id="Trazado_1007104" data-name="Trazado 1007104" d="M887.31,365.978c1.635-1.283,3.694-1.29,5.691-1.279a4.032,4.032,0,0,1,.858,2.248c-1.338-.48-2.945-.945-4.314-.3a3.5,3.5,0,0,0-1.685,1.833,13.341,13.341,0,0,0-.378-2.414Z" transform="translate(-816.904 -336.457)" fill="#f29c64"/>
        <path id="Trazado_1007105" data-name="Trazado 1007105" d="M887.531,345.838c.083-.059.167-.117.249-.177.159-.115.314-.233.481-.336,2.042-1.253,3.73-.677,5.872-.2a1.739,1.739,0,0,1,.538.706c-.016.207,0,.3-.157.453-.452.431-1.394.354-1.97.329-2-.01-4.056,0-5.691,1.279-.011-.057-.022-.115-.031-.173A2.415,2.415,0,0,1,887.531,345.838Z" transform="translate(-816.447 -318.375)" fill="#232530"/>
        <path id="Trazado_1007106" data-name="Trazado 1007106" d="M1089.7,345.617a1.292,1.292,0,0,1-.64-.4.759.759,0,0,1,.029-.715,3.188,3.188,0,0,1,2.087-1.048,6.431,6.431,0,0,1,4.7.774,4.135,4.135,0,0,1,1.5,2.909,3.912,3.912,0,0,0-2.5-1.491A19.788,19.788,0,0,0,1089.7,345.617Z" transform="translate(-998.078 -317.257)" fill="#232530"/>
        <path id="Trazado_1007107" data-name="Trazado 1007107" d="M1104.648,458.491a3.57,3.57,0,0,1,1.683.2,2.435,2.435,0,0,1,1.376,1.34,1.554,1.554,0,0,1-.065,1.288,2.749,2.749,0,0,1-1.847,1.184,3.849,3.849,0,0,1-1.626-.141,2.306,2.306,0,0,1-1.428-1.175,1.607,1.607,0,0,1-.061-.157,1.563,1.563,0,0,1-.043-.163,1.6,1.6,0,0,1-.026-.167,1.552,1.552,0,0,1-.008-.168,1.581,1.581,0,0,1,.01-.168,1.6,1.6,0,0,1,.028-.166,1.562,1.562,0,0,1,.109-.318A2.975,2.975,0,0,1,1104.648,458.491Z" transform="translate(-1010.316 -420.704)" fill="#f29c64"/>
        <path id="Trazado_1007108" data-name="Trazado 1007108" d="M902.69,458.305a4.531,4.531,0,0,1,2.379.294,2.2,2.2,0,0,1,1.2,1.309,1.459,1.459,0,0,1-.114,1.136,2.87,2.87,0,0,1-1.8,1.2,4.172,4.172,0,0,1-2.335-.321,2.239,2.239,0,0,1-1.19-1.325,1.493,1.493,0,0,1,.118-1.168A2.724,2.724,0,0,1,902.69,458.305Z" transform="translate(-828.991 -420.521)" fill="#f29c64"/>
        <path id="Trazado_1007109" data-name="Trazado 1007109" d="M905.147,395.492a3.147,3.147,0,0,1,1.483.132,2.2,2.2,0,0,1,1.23,1.242,2.914,2.914,0,0,1-.06,2.23,2.953,2.953,0,0,1-1.745,1.6,2.434,2.434,0,0,1-.993-.06,2.466,2.466,0,0,1-1.5-1.25,2.756,2.756,0,0,1-.18-2.18A2.86,2.86,0,0,1,905.147,395.492Z" transform="translate(-831.207 -364.097)" fill="#09121c"/>
        <path id="Trazado_1007110" data-name="Trazado 1007110" d="M928.874,402.61a1.565,1.565,0,0,1,.91.188.869.869,0,0,1,.426.624,1.253,1.253,0,0,1-.417,1.009,1.127,1.127,0,0,1-1.019-.225.92.92,0,0,1-.336-.724A1.148,1.148,0,0,1,928.874,402.61Z" transform="translate(-853.852 -370.516)" fill="#fefdfc"/>
        <path id="Trazado_1007111" data-name="Trazado 1007111" d="M1097.331,395.558a4.318,4.318,0,0,1,1.339.047,2.255,2.255,0,0,1,.441.162,2.212,2.212,0,0,1,.205.114,2.235,2.235,0,0,1,.193.135,2.291,2.291,0,0,1,.177.154,2.288,2.288,0,0,1,.3.359,2.206,2.206,0,0,1,.122.2,2.852,2.852,0,0,1,.17,2.134,3.248,3.248,0,0,1-1.748,1.989,2.4,2.4,0,0,1-1.328-.144,2.8,2.8,0,0,1-1.482-1.553,2.833,2.833,0,0,1,.016-2.212A2.577,2.577,0,0,1,1097.331,395.558Z" transform="translate(-1003.94 -364.156)" fill="#09121c"/>
        <path id="Trazado_1007112" data-name="Trazado 1007112" d="M1121.912,402.282a1.652,1.652,0,0,1,.883.483.866.866,0,0,1,.223.711c-.062.447-.38.666-.722.907l-.073-.007a1.135,1.135,0,0,1-.846-.456.93.93,0,0,1-.171-.74A1.3,1.3,0,0,1,1121.912,402.282Z" transform="translate(-1027.014 -370.222)" fill="#fefdfc"/>
        <path id="Trazado_1007113" data-name="Trazado 1007113" d="M1200.194,372.963q.218-.222.446-.434a3.28,3.28,0,0,1,2.427-1.019,3.387,3.387,0,0,1,2.237,1.357,5.649,5.649,0,0,1,.676,4.65,13.432,13.432,0,0,1-1.058,2.26,6.347,6.347,0,0,1-3.936,1.859c-.475-.123-.954-.235-1.418-.4a15.2,15.2,0,0,1-.352,1.525l-.231-.384a17.6,17.6,0,0,0,.757-3.07l.131-.662c.182-1.732.257-3.46.293-5.2Z" transform="translate(-1096.902 -342.571)" fill="#f29c64"/>
        <path id="Trazado_1007114" data-name="Trazado 1007114" d="M1207.58,389.419c.561-.056,1.419-.2,1.881.206a1.626,1.626,0,0,1,.358,1.208c0,1.187-.189,2.915-1.063,3.812a2.341,2.341,0,0,1-1.747.727q-.286-.007-.571-.03l.131-.662c.182-1.732.257-3.46.292-5.2Z" transform="translate(-1103.598 -358.602)" fill="#e36e52"/>
        <path id="Trazado_1007115" data-name="Trazado 1007115" d="M227.895,149.909l-.044-.054-.074-.09a23.968,23.968,0,0,0-2.356-2.265c-.722-.678-1.4-1.409-2.06-2.144a34.038,34.038,0,0,1-8.781-19.3,35.433,35.433,0,0,1,7.877-26.406A36.051,36.051,0,0,1,246.49,86.993q.35-.034.7-.061t.7-.047q.351-.02.7-.033t.7-.019q.352-.006.7,0t.7.009q.352.008.7.023t.7.037q.351.022.7.051t.7.065q.35.036.7.079t.7.093q.348.05.7.107t.693.12q.346.064.691.134t.688.148q.343.077.685.161t.682.175q.34.091.678.189t.674.2q.336.1.67.215t.665.229q.332.118.661.242t.656.255q.327.131.651.268t.645.281q.321.144.64.294t.634.306q.315.156.627.319t.621.331q.309.169.614.343t.607.355a52.61,52.61,0,0,1,6.192,4.549,23.276,23.276,0,0,0-3.851,17.25,8.23,8.23,0,0,0,1.011,3.147,4.484,4.484,0,0,0-.917,3.643,7.137,7.137,0,0,0,1.438,3.163,6.8,6.8,0,0,0,3.475,1.949,7.247,7.247,0,0,0,2.338-.1,24.978,24.978,0,0,1,.8,2.63c2.226,4.979,5.107,8.614,9.953,11.251-.045,1.127-.048,2.276-.179,3.4a5.319,5.319,0,0,1-.291,1.908,1.467,1.467,0,0,1-.523.233,16.642,16.642,0,0,0-6.178,3.915c-.5-.787-.184-1.013-1.136-1.512l-.152-.071a42.318,42.318,0,0,0-6.352,1.374c-.912.2-1.816.412-2.716.661a3.168,3.168,0,0,0-2.037,1.486,5.621,5.621,0,0,0-.387,2.121A39.8,39.8,0,0,0,262.489,158a.866.866,0,0,1-.646.318c-.89.112-1.841.086-2.74.121-2.613.1-5.216.109-7.831.136-2.143.022-4.288-.01-6.43.022-3.032.045-6.107.146-9.137.047a1.883,1.883,0,0,1-1.391-.482,1.375,1.375,0,0,1-.211-.478,3.517,3.517,0,0,0-.185.585c.143-1.71.1-3.424.094-5.138a13.887,13.887,0,0,1,.164-3.264c-.633.054-1.294.021-1.93.025l-1.978.012C229.478,149.92,228.685,149.909,227.895,149.909Z" transform="translate(-212.376 -86.829)" fill="#aed5e8"/>
        <path id="Trazado_1007116" data-name="Trazado 1007116" d="M370.526,466.476l2.848,0q.021,1.924.014,3.848l-2.861-.018C370.566,469.034,370.529,467.75,370.526,466.476Z" transform="translate(-352.642 -427.892)" fill="#a97f4b"/>
        <path id="Trazado_1007117" data-name="Trazado 1007117" d="M619.464,467.418l2.948.01c-.014,1.248-.052,2.5.013,3.749q-1.474.009-2.947-.024Z" transform="translate(-576.28 -428.738)" fill="#f6c378"/>
        <path id="Trazado_1007118" data-name="Trazado 1007118" d="M427.185,749.143l17.741.038h5.512c.674,0,1.457-.09,2.118-.022a.791.791,0,0,1,.286.106,1.3,1.3,0,0,1,.063.831c-3.82-.225-8.089-.033-11.957-.032-4.591,0-9.193-.171-13.782-.047Z" transform="translate(-403.525 -681.823)" fill="#fefdfc"/>
        <path id="Trazado_1007119" data-name="Trazado 1007119" d="M427.349,738.908a1.716,1.716,0,0,1,.146-.772,33.141,33.141,0,0,1,3.892-.013q3,.023,6.01,0h10.017c1.851,0,3.724-.07,5.573,0,.155.21.088.489.08.747-.141.167-.249.137-.458.154-2.424.192-5,.022-7.438.025l-17.821-.021Z" transform="translate(-403.69 -671.881)" fill="#fefdfc"/>
        <path id="Trazado_1007120" data-name="Trazado 1007120" d="M558.188,467.085l1.98,0h2.405l.013,3.735a18.556,18.556,0,0,0-2.463,0l-1.93,0-2.052.019,0-3.627C556.465,466.942,557.74,467.082,558.188,467.085Z" transform="translate(-519.39 -428.404)" fill="#a97f4b"/>
        <path id="Trazado_1007121" data-name="Trazado 1007121" d="M576.311,467.408l1.98,0a31.762,31.762,0,0,1-.045,3.736l-1.93,0Q576.34,469.275,576.311,467.408Z" transform="translate(-537.512 -428.727)" fill="#b79152"/>
        <path id="Trazado_1007122" data-name="Trazado 1007122" d="M556.137,467.212c.327-.27,1.6-.13,2.05-.126q.029,1.867.005,3.735l-2.052.019Z" transform="translate(-519.389 -428.404)" fill="#a97f4b"/>
        <path id="Trazado_1007123" data-name="Trazado 1007123" d="M402.163,465.794a10.239,10.239,0,0,1,2.8.053l.045.216a35.04,35.04,0,0,0-.044,3.576l-2.775,0c-1.207.021-2.417,0-3.625,0q.007-1.924-.014-3.848Z" transform="translate(-377.816 -427.213)" fill="#b79152"/>
        <path id="Trazado_1007124" data-name="Trazado 1007124" d="M434.114,465.794a10.239,10.239,0,0,1,2.8.053l.045.216a35.04,35.04,0,0,0-.044,3.576l-2.775,0Z" transform="translate(-409.767 -427.213)" fill="#f6c378"/>
        <path id="Trazado_1007125" data-name="Trazado 1007125" d="M427.094,757.428c4.59-.124,9.191.047,13.782.047,3.868,0,8.136-.193,11.957.032l-.008.1a1.359,1.359,0,0,1-.036.881.754.754,0,0,1-.491.161c-2.392.078-4.829-.021-7.225-.017q-8.982-.021-17.964.068l-.023-.455Z" transform="translate(-403.453 -689.233)" fill="#fefdfc"/>
        <path id="Trazado_1007126" data-name="Trazado 1007126" d="M427.095,757.428c4.59-.124,9.191.047,13.782.047,3.868,0,8.136-.193,11.957.032l-.008.1c-2.927.1-24.921-.193-25.546.064a.924.924,0,0,0-.193.575Z" transform="translate(-403.454 -689.233)" fill="#dbd2d7"/>
        <path id="Trazado_1007127" data-name="Trazado 1007127" d="M465.534,468.773c1.5-.05,4.175.226,5.513-.1l0,3.627-2.711,0h-3.9l-2.992-.012a35.04,35.04,0,0,1,.044-3.576l.943.053Q463.982,468.74,465.534,468.773Z" transform="translate(-434.298 -429.869)" fill="#3e5c97"/>
        <path id="Trazado_1007128" data-name="Trazado 1007128" d="M501.9,468.773c1.5-.05,4.175.226,5.513-.1l0,3.627-2.711,0,.005-3.491A26.591,26.591,0,0,1,501.9,468.773Z" transform="translate(-470.661 -429.869)" fill="#5e8eb9"/>
        <path id="Trazado_1007129" data-name="Trazado 1007129" d="M461.488,469.089l.943.053c.676.059,1.345.076,2.024.082,0,1.145.052,2.311-.018,3.454l-2.992-.012A34.98,34.98,0,0,1,461.488,469.089Z" transform="translate(-434.298 -430.239)" fill="#1b3f63"/>
        <path id="Trazado_1007130" data-name="Trazado 1007130" d="M379.8,503.8l2.992.012h3.9l2.711,0,2.052-.019,1.931,0a18.556,18.556,0,0,1,2.463,0q1.473.033,2.947.024c0,.708.006,1.419-.013,2.127q-1.474,0-2.948.028c-.861.057-1.717.055-2.579.049l-1.767.026c-.694.016-1.382.019-2.076,0a16.9,16.9,0,0,1-2.727.077l-3.858-.011c-.987-.008-1.978,0-2.963-.053l.019,10.214c0,1.7.1,3.477-.026,5.171a46.234,46.234,0,0,1-.055-5.22l-.011-10.226q-1.4-.03-2.8-.041c-1.211-.038-2.432-.007-3.644-.009l-2.8.007-.011-2.158,2.861.018c1.207,0,2.418.018,3.625,0Z" transform="translate(-352.651 -461.371)" fill="#7e949f"/>
        <path id="Trazado_1007131" data-name="Trazado 1007131" d="M580.378,525.361q1.474-.027,2.948-.028c-.3,6.125,0,12.314-.073,18.449l-2.553.02q-1.935.068-3.87-.012l-.873.018q.084-9.186.074-18.373l1.767-.026C578.661,525.416,579.516,525.418,580.378,525.361Z" transform="translate(-537.194 -480.767)" fill="#a97f4b"/>
        <path id="Trazado_1007132" data-name="Trazado 1007132" d="M576.03,526.116l1.767-.026c-.009,1.674.143,18.008-.011,18.292q-.478.053-.957.088l-.873.018Q576.04,535.3,576.03,526.116Z" transform="translate(-537.193 -481.447)" fill="#b79152"/>
        <path id="Trazado_1007133" data-name="Trazado 1007133" d="M619.116,525.361q1.474-.027,2.948-.028c-.3,6.125,0,12.314-.073,18.449l-2.553.02a1.942,1.942,0,0,1-.288-.1C619,543.315,619.128,527.611,619.116,525.361Z" transform="translate(-575.933 -480.767)" fill="#f6c378"/>
        <path id="Trazado_1007134" data-name="Trazado 1007134" d="M373.408,525.254c1.212,0,2.433-.028,3.644.009q1.4.01,2.8.041l.011,10.226a46.241,46.241,0,0,0,.055,5.22l.006,2.95-.106.006a29.388,29.388,0,0,1-5.305.022c-.633.054-1.294.021-1.93.025l-1.978.012,0-18.5Z" transform="translate(-352.712 -480.688)" fill="#b79152"/>
        <path id="Trazado_1007135" data-name="Trazado 1007135" d="M434.051,525.432q1.4.01,2.8.041l.011,10.227a46.24,46.24,0,0,0,.055,5.22l.006,2.95-.106.006-2.757-.006C434.189,537.737,434.12,531.566,434.051,525.432Z" transform="translate(-409.71 -480.856)" fill="#f6c378"/>
        <path id="Trazado_1007136" data-name="Trazado 1007136" d="M370.608,525.347l2.8-.007c-.068,6.136.1,12.282-.038,18.416a6.089,6.089,0,0,1,1.142.059c-.633.054-1.294.021-1.93.025l-1.978.012Z" transform="translate(-352.712 -480.774)" fill="#a97f4b"/>
        <path id="Trazado_1007137" data-name="Trazado 1007137" d="M421.746,526.294c.694.024,1.382.02,2.076,0q.01,9.186-.074,18.373l.873-.018q1.935.08,3.87.012l2.553-.02,4.361-.008.006,2.112-26.81.021a13.252,13.252,0,0,0,.044,1.887v.293l-.019.874-.008.817.023.455a1.133,1.133,0,0,0,.093.765,41.654,41.654,0,0,0,5.485.045c1.992,0,20.2-.111,20.56.015a1.336,1.336,0,0,1,.226.134,1.552,1.552,0,0,1,.094.748.866.866,0,0,1-.646.318c-.89.112-1.841.086-2.74.121-2.613.1-5.216.109-7.831.136-2.143.022-4.288-.01-6.43.022-3.032.045-6.107.146-9.137.047a1.884,1.884,0,0,1-1.391-.482,1.375,1.375,0,0,1-.211-.478,3.519,3.519,0,0,0-.185.585c.143-1.71.1-3.424.094-5.138a13.887,13.887,0,0,1,.164-3.264,29.394,29.394,0,0,0,5.305-.022l.106-.006-.006-2.95c.124-1.695.027-3.469.026-5.171l-.019-10.214c.985.055,1.977.044,2.963.053l3.858.011A16.88,16.88,0,0,0,421.746,526.294Z" transform="translate(-384.986 -481.631)" fill="#3e5c97"/>
        <path id="Trazado_1007138" data-name="Trazado 1007138" d="M462.25,526.426c.985.055,1.977.045,2.963.053l-.032,18.335a25.516,25.516,0,0,1-2.932-.053l-.006-2.95c.124-1.695.027-3.469.026-5.171Z" transform="translate(-435.037 -481.749)" fill="#1b3f63"/>
        <path id="Trazado_1007139" data-name="Trazado 1007139" d="M531.987,526.294c.694.024,1.382.02,2.076,0q.01,9.186-.074,18.373h-2l-2.749.018.019-18.319A16.873,16.873,0,0,0,531.987,526.294Z" transform="translate(-495.226 -481.631)" fill="#5e8eb9"/>
        <path id="Trazado_1007140" data-name="Trazado 1007140" d="M556.258,526.294c.694.024,1.382.02,2.076,0q.01,9.186-.074,18.373h-2Z" transform="translate(-519.497 -481.631)" fill="#a97f4b"/>
        <path id="Trazado_1007141" data-name="Trazado 1007141" d="M686.634,448.756a6.8,6.8,0,0,0,3.475,1.949,7.247,7.247,0,0,0,2.338-.1,24.978,24.978,0,0,1,.8,2.63c2.226,4.979,5.107,8.614,9.953,11.251-.044,1.127-.048,2.276-.179,3.4a5.319,5.319,0,0,1-.291,1.908,1.467,1.467,0,0,1-.523.233,16.642,16.642,0,0,0-6.178,3.915c-.5-.787-.184-1.013-1.136-1.512l-.152-.071a42.321,42.321,0,0,0-6.352,1.374c-.912.2-1.816.412-2.716.661a3.168,3.168,0,0,0-2.037,1.486,10.579,10.579,0,0,0-1.241-.728,15.287,15.287,0,0,1-3.289-2.31,9.878,9.878,0,0,1-3.124-6.808c-.006-2.833,1.832-4.9,3.709-6.786C682.849,456.2,685.342,453.014,686.634,448.756Z" transform="translate(-627.05 -411.973)" fill="#342c42"/>
        <path id="Trazado_1007142" data-name="Trazado 1007142" d="M719.423,448.756A6.8,6.8,0,0,0,722.9,450.7a7.978,7.978,0,0,0-1.309,2.091c-1.942,3.689-3.69,8.252-3.859,12.462-.1,2.38.541,3.433.785,5.491a3.306,3.306,0,0,1-.483-.634c-2.282-3.685-1.652-7.86-.729-11.838-1.252,1.566-2.273,3.272-3.492,4.853q-.233-.46-.434-.935t-.368-.962q-.168-.488-.3-.986t-.232-1C715.637,456.2,718.131,453.014,719.423,448.756Z" transform="translate(-659.839 -411.973)" fill="#2e2738"/>
        <path id="Trazado_1007143" data-name="Trazado 1007143" d="M769.258,467.04a7.247,7.247,0,0,0,2.338-.1,24.976,24.976,0,0,1,.8,2.63,9.726,9.726,0,0,0-.671,1.828,21.869,21.869,0,0,0-.99,12.255c.29,1.2,1.354,4.29,2.438,4.923a1.743,1.743,0,0,0,.717.113,42.319,42.319,0,0,0-6.352,1.374.579.579,0,0,1-.065-.017c-.781-.3-2.165-2.207-2.593-2.962-.244-2.058-.88-3.111-.785-5.491.169-4.21,1.916-8.773,3.859-12.462A7.981,7.981,0,0,1,769.258,467.04Z" transform="translate(-706.199 -428.308)" fill="#232530"/>
        <path id="Trazado_1007144" data-name="Trazado 1007144" d="M826.918,492.814c2.226,4.979,5.107,8.614,9.953,11.251-.044,1.127-.048,2.276-.179,3.4a5.319,5.319,0,0,1-.291,1.908,1.467,1.467,0,0,1-.523.233,16.642,16.642,0,0,0-6.178,3.915c-.5-.787-.184-1.013-1.136-1.512l-.152-.071a1.743,1.743,0,0,1-.717-.113c-1.084-.633-2.148-3.726-2.438-4.923a21.869,21.869,0,0,1,.99-12.255A9.717,9.717,0,0,1,826.918,492.814Z" transform="translate(-760.725 -451.553)" fill="#09121c"/>
        <path id="Trazado_1007145" data-name="Trazado 1007145" d="M1116.883,106.8c3.592.247,7.008-.283,9.826-2.736,1.915-1.667,2.968-3.824,4.585-5.716,3.9-4.558,10.556-6.768,16.43-6.382q.249.017.5.041t.5.053q.248.029.5.065t.494.077q.246.041.491.089t.489.1q.245.053.488.113t.483.124q.242.065.48.136t.479.147q.237.077.473.159t.469.17q.234.088.467.182t.46.193q.229.1.456.2t.451.215q.223.11.445.226t.441.237q.219.121.433.247t.429.258q.213.131.422.268t.415.278q.205.142.409.288t.4.3q.2.151.394.307t.386.317q.192.161.378.326t.371.335q.184.17.363.344t.353.353q.175.179.346.361t.336.37a21.476,21.476,0,0,1,5.016,15.478c-.95,13.256-13.716,15.9-14.294,28.984-.276,6.264,2.693,11.764,6.317,16.661,1.418,1.916,2.972,3.7,4.226,5.733a28.934,28.934,0,0,1,4.29,12.661q.058.669.088,1.341t.029,1.343q0,.672-.03,1.343t-.087,1.341q-.059.669-.147,1.335t-.2,1.328q-.117.662-.261,1.318t-.319,1.3c-1.035,3.733-2.954,8.044-5.945,10.626a15.2,15.2,0,0,0-1.857,1.659c-1.968,2.385-2.482,6.255-2.7,9.245-.1,1.262-.146,2.548-.131,3.813a17.094,17.094,0,0,1,.017,2.676,1.784,1.784,0,0,1-.237.173,8.363,8.363,0,0,1,1.258,3.566.512.512,0,0,1-.008.068c.134.8-.579,2.079-.67,2.939-.083.788.21,1.936-.115,2.642a12.178,12.178,0,0,1,1.032,2.96.751.751,0,0,1-.024.08c-.869.058-1.743.014-2.612-.008-1.083.089-2.231.02-3.32.02-1.931,0-3.865.025-5.8-.026-2.808.105-5.647.016-8.46.016l-16.3.017a51.006,51.006,0,0,0-1.581-6.441l-.379-1.049a9.719,9.719,0,0,1,2.548-.517l6.732-1.155a32.285,32.285,0,0,0,3.527-.655,1.867,1.867,0,0,0,.889-.462c.43-.506.188-1.614.128-2.235.8-.175,1.633-.187,2.435-.352a1.361,1.361,0,0,0,.968-.536c.4-.69-.1-2.114-.251-2.842a48.248,48.248,0,0,0,11.063-6.666c1.5-1.225,3.358-2.574,3.544-4.653.1-1.166-.571-5.782-1.336-6.68.179-.714-.907-3.147-1.205-3.917a82.417,82.417,0,0,0-17.816-27.393q-1.336-1.362-2.769-2.621t-2.954-2.41a31.756,31.756,0,0,1-3.446-2.556,3.042,3.042,0,0,0-.615-1.855,1.89,1.89,0,0,1-.544-.3,2.2,2.2,0,0,0-1.57-.93,5.558,5.558,0,0,1-.627-.042,33.385,33.385,0,0,0-4.089-.674l-2.538-.422c-.534-.086-1.069-.144-1.606-.2a1.381,1.381,0,0,0-1,.49,4.328,4.328,0,0,0-.338,1.229c-1.931-.965-3.325-2.682-5.13-3.8a4.273,4.273,0,0,0-1.562-.488l-.193-.095a24.916,24.916,0,0,1-.594-5.371,10.264,10.264,0,0,0,1.993-1.071,20.844,20.844,0,0,0,6.965-7.768,32.045,32.045,0,0,0,1.316-3.453,15.2,15.2,0,0,0,.352-1.525c.464.161.943.273,1.418.4a6.346,6.346,0,0,0,3.936-1.859,13.428,13.428,0,0,0,1.058-2.26,5.649,5.649,0,0,0-.676-4.65A19.962,19.962,0,0,0,1116.883,106.8Z" transform="translate(-1008.121 -91.403)" fill="#aed5e8"/>
        <path id="Trazado_1007146" data-name="Trazado 1007146" d="M1512.278,1273.284c.315-.738-.229-3.1-.2-4.127a14.518,14.518,0,0,1,1.03-4.792c.363-.919.868-2.229,1.842-2.649a3.413,3.413,0,0,1,1.438.771c1.138.9,3.6,4.209,3.752,5.625a8.363,8.363,0,0,1,1.258,3.566.509.509,0,0,1-.008.068c.134.8-.579,2.079-.67,2.94-.084.788.21,1.936-.115,2.642a12.18,12.18,0,0,1,1.032,2.96.781.781,0,0,1-.024.08c-.869.058-1.743.014-2.612-.008-1.083.089-2.231.02-3.32.02-1.931,0-3.865.025-5.8-.026-.172-.568-1.169-1.23-1.542-1.767a14.527,14.527,0,0,1-2.058-4.539,2.815,2.815,0,0,1-.015-2.078,1.98,1.98,0,0,1,1.308-.246C1508.87,1271.785,1511.42,1272.329,1512.278,1273.284Z" transform="translate(-1372.779 -1142.31)" fill="#2ab4b6"/>
        <path id="Trazado_1007147" data-name="Trazado 1007147" d="M1634.916,1415.32a12.182,12.182,0,0,1,1.032,2.96.812.812,0,0,1-.024.08c-.869.058-1.743.014-2.612-.008a1.892,1.892,0,0,0,.217-.184A5.457,5.457,0,0,0,1634.916,1415.32Z" transform="translate(-1487.088 -1280.304)" fill="#148e91"/>
        <path id="Trazado_1007148" data-name="Trazado 1007148" d="M1116.142,452.921a19.391,19.391,0,0,0,2.226,5.592c1.456,2.133,3.511,3.654,5.179,5.585a8.546,8.546,0,0,1,1.3,9.879,13.191,13.191,0,0,1-4.89,4.819,1.891,1.891,0,0,1-.544-.3,2.2,2.2,0,0,0-1.57-.93,5.558,5.558,0,0,1-.627-.042,33.379,33.379,0,0,0-4.089-.674l-2.538-.422c-.534-.086-1.069-.144-1.606-.2a1.381,1.381,0,0,0-1,.49,4.329,4.329,0,0,0-.338,1.229c-1.931-.966-3.325-2.682-5.13-3.8a4.273,4.273,0,0,0-1.562-.488l-.193-.095a24.916,24.916,0,0,1-.594-5.371,10.265,10.265,0,0,0,1.993-1.071,20.844,20.844,0,0,0,6.965-7.768,32.02,32.02,0,0,0,1.316-3.453,15.2,15.2,0,0,0,.352-1.525c.464.161.943.273,1.418.4A6.345,6.345,0,0,0,1116.142,452.921Z" transform="translate(-1008.123 -415.715)" fill="#342c42"/>
        <path id="Trazado_1007149" data-name="Trazado 1007149" d="M1268.175,543.983c2.231,2.474,4.052,5.763,3.868,9.191a7.922,7.922,0,0,1-2.493,5.5,8.4,8.4,0,0,1-.98.7,5.562,5.562,0,0,1-.627-.042c2.349-4.088,2.8-7.122,1.567-11.668A26.952,26.952,0,0,0,1268.175,543.983Z" transform="translate(-1158.854 -497.522)" fill="#50485e"/>
        <path id="Trazado_1007150" data-name="Trazado 1007150" d="M1188.733,467.322c.464.161.943.273,1.418.4l.555.093c.617.868.826,2.474,1.188,3.511.7,2.009,1.678,3.914,2.382,5.916a15.515,15.515,0,0,1,.53,1.926q.1.522.159,1.052t.062,1.062q.007.533-.035,1.063t-.132,1.056c-.326,1.917-1.776,5.047-3.388,6.251a.777.777,0,0,1-.4.145l-2.538-.422c-.534-.086-1.068-.144-1.606-.2l.311-.123a10.541,10.541,0,0,0,1.649-3.653c.923-3.365.272-6.679-.675-9.952a14.9,14.9,0,0,0-1.146-3.145,32.073,32.073,0,0,0,1.316-3.453A15.024,15.024,0,0,0,1188.733,467.322Z" transform="translate(-1086.068 -428.652)" fill="#232530"/>
        <path id="Trazado_1007151" data-name="Trazado 1007151" d="M1109.12,516.293a14.912,14.912,0,0,1,1.146,3.145c.947,3.273,1.6,6.586.675,9.952a10.544,10.544,0,0,1-1.649,3.653l-.311.123a1.381,1.381,0,0,0-1,.49,4.328,4.328,0,0,0-.338,1.229c-1.931-.966-3.325-2.682-5.13-3.8a4.274,4.274,0,0,0-1.562-.488l-.193-.095a24.916,24.916,0,0,1-.594-5.371,10.262,10.262,0,0,0,1.993-1.071A20.842,20.842,0,0,0,1109.12,516.293Z" transform="translate(-1008.124 -472.646)" fill="#09121c"/>
        <path id="Trazado_1007152" data-name="Trazado 1007152" d="M758.151,603.294c2.727,1.255,6.42,2.342,9.425,1.794l.184-.016a14.514,14.514,0,0,0,6.284-1.8,24.916,24.916,0,0,0,.594,5.371l.193.095a4.272,4.272,0,0,1,1.562.488c1.8,1.116,3.2,2.832,5.13,3.8a4.331,4.331,0,0,1,.338-1.229,1.381,1.381,0,0,1,1-.49c.538.056,1.072.113,1.606.2l2.538.422a33.389,33.389,0,0,1,4.089.674,5.558,5.558,0,0,0,.627.042,2.2,2.2,0,0,1,1.57.93,1.9,1.9,0,0,0,.544.3,3.042,3.042,0,0,1,.615,1.855,31.756,31.756,0,0,0,3.446,2.556q1.522,1.15,2.955,2.41t2.769,2.622A82.414,82.414,0,0,1,821.437,650.7c.3.77,1.384,3.2,1.205,3.917.764.9,1.439,5.514,1.336,6.68-.185,2.078-2.044,3.427-3.544,4.653a48.252,48.252,0,0,1-11.063,6.666c.154.729.65,2.153.252,2.842a1.361,1.361,0,0,1-.968.536c-.8.165-1.639.177-2.435.352.06.621.3,1.73-.128,2.235a1.867,1.867,0,0,1-.889.462,32.281,32.281,0,0,1-3.527.655l-6.732,1.155a9.724,9.724,0,0,0-2.548.517l.379,1.049a51.016,51.016,0,0,1,1.581,6.441q.3,1.448.552,2.9c.338,1.915.652,3.859.861,5.792H737.15c.289-1.9.7-3.774.953-5.677.364-2.256.755-4.593,1.318-6.806,1.5,0,2.992-.026,4.49-.012a3,3,0,0,1-.458-.865c-.385-1.446-.16-6.03-.159-7.824l.084-.023.138-.043a2.759,2.759,0,0,0,.962-.513c-.439-.264-.922-.474-1.382-.7-.848-3.04.462-7.8,1.934-10.534.316-.586.963-.814,1.347-1.361.017-.024.033-.049.049-.074a14.983,14.983,0,0,1,3.153-3.958c-.206-2.065-3.537-7.1-4.249-9.529a22.6,22.6,0,0,0-2.04-4.446,6.006,6.006,0,0,0,1.347,1.375.821.821,0,0,0,.752.084,2.053,2.053,0,0,1-.343-.078c-1.1-.367-1.807-1.872-2.291-2.819a5.24,5.24,0,0,1-3.042-1.314c-1.578-1.547-1.451-3.62-1.462-5.658q.039-9.99-.051-19.98a5.622,5.622,0,0,1,.387-2.121,3.169,3.169,0,0,1,2.037-1.486c.9-.249,1.8-.46,2.716-.661a42.3,42.3,0,0,1,6.352-1.374l.152.071c.952.5.636.726,1.136,1.512a16.643,16.643,0,0,1,6.178-3.915,1.47,1.47,0,0,0,.523-.233,5.321,5.321,0,0,0,.292-1.908C758.1,605.57,758.106,604.421,758.151,603.294Z" transform="translate(-682.005 -550.782)" fill="#fefdfc"/>
        <path id="Trazado_1007153" data-name="Trazado 1007153" d="M1010.942,832.93c.122-.014.245-.027.368-.033a1.132,1.132,0,0,1,.865.32.8.8,0,0,1,.225.673,1.17,1.17,0,0,1-.5.713,1.4,1.4,0,0,1-1.044-.193.727.727,0,0,1-.318-.519A1.184,1.184,0,0,1,1010.942,832.93Z" transform="translate(-927.601 -757.072)" fill="#9faeca"/>
        <path id="Trazado_1007154" data-name="Trazado 1007154" d="M995.6,1012.48c.118,0,.235,0,.353.012a1.126,1.126,0,0,1,.827.462.861.861,0,0,1,.109.68c-.081.434-.375.6-.71.841a.849.849,0,0,1-.094,0,1.277,1.277,0,0,1-.758-.328,1.073,1.073,0,0,1-.254-.859A1.158,1.158,0,0,1,995.6,1012.48Z" transform="translate(-913.709 -918.405)" fill="#8abfde"/>
        <path id="Trazado_1007155" data-name="Trazado 1007155" d="M983.971,914.859a1.479,1.479,0,0,1,.981.334.8.8,0,0,1,.283.585c.024.49-.267.735-.585,1.054a3.3,3.3,0,0,1-.443-.016,1,1,0,0,1-.708-.436.937.937,0,0,1-.143-.74A1.17,1.17,0,0,1,983.971,914.859Z" transform="translate(-903.17 -830.705)" fill="#8abfde"/>
        <path id="Trazado_1007156" data-name="Trazado 1007156" d="M999.211,1105.2a1.537,1.537,0,0,1,1.1.286.852.852,0,0,1,.321.648,1.437,1.437,0,0,1-.557,1.025,1.161,1.161,0,0,1-.978-.189.914.914,0,0,1-.342-.707A1.429,1.429,0,0,1,999.211,1105.2Z" transform="translate(-917.025 -1001.701)" fill="#8abfde"/>
        <path id="Trazado_1007157" data-name="Trazado 1007157" d="M1001.788,1199.86l.093.009a1.132,1.132,0,0,1,.892.457.975.975,0,0,1,.134.792,1.4,1.4,0,0,1-.747.9l-.084-.013a1.234,1.234,0,0,1-.936-.533.9.9,0,0,1-.108-.754C1001.142,1200.268,1001.416,1200.1,1001.788,1199.86Z" transform="translate(-919.036 -1086.741)" fill="#5e8eb9"/>
        <path id="Trazado_1007158" data-name="Trazado 1007158" d="M1002.181,1288.79c.072.014.143.028.214.044a1.091,1.091,0,0,1,.812.545.883.883,0,0,1,.036.748,1.429,1.429,0,0,1-.833.737,1.882,1.882,0,0,1-.5-.076.965.965,0,0,1-.578-.5.941.941,0,0,1,0-.785A1.358,1.358,0,0,1,1002.181,1288.79Z" transform="translate(-919.266 -1166.633)" fill="#5e8eb9"/>
        <path id="Trazado_1007159" data-name="Trazado 1007159" d="M954.574,1348.78c.106.77.217,1.547.284,2.322-5.19-.208-10.436.023-15.634-.033a24.388,24.388,0,0,1,4.853-.111l9.633.006a13.429,13.429,0,0,0-2.091-1.763c.456-.012.909-.044,1.364-.076A10.543,10.543,0,0,0,954.574,1348.78Z" transform="translate(-863.542 -1220.526)" fill="#aed5e8"/>
        <path id="Trazado_1007160" data-name="Trazado 1007160" d="M901.5,1164l.448.11c1.771.876,3.31,1.937,3.979,3.9a6.767,6.767,0,0,1,.149,3.191,23.616,23.616,0,0,1-2.252-1C903.161,1168.085,902.282,1166.064,901.5,1164Z" transform="translate(-829.652 -1054.526)" fill="#f6c378"/>
        <path id="Trazado_1007161" data-name="Trazado 1007161" d="M851.125,923.3l.129-.09c2.95-2.13,4.491-6.064,5.07-9.563l.011,25.555-.448-.11c-1.827-4.306-3.426-8.729-5.16-13.075A23.576,23.576,0,0,0,851.125,923.3Z" transform="translate(-784.038 -829.613)" fill="#3d6686"/>
        <path id="Trazado_1007162" data-name="Trazado 1007162" d="M799.662,999.528a2.554,2.554,0,0,0,1.359-.73c.692-.793.346-1.81.272-2.733l.133.128a1.473,1.473,0,0,0,.136.418,20.111,20.111,0,0,0,1.4,3.447c1.735,4.346,3.333,8.769,5.16,13.075.782,2.064,1.661,4.084,2.324,6.192-1.3-.171-3.053-1.088-4.525-1.363-.765-1.945-1.282-3.98-2.074-5.918-.206-2.065-3.537-7.1-4.249-9.529a22.6,22.6,0,0,0-2.04-4.446,6,6,0,0,0,1.347,1.375A.822.822,0,0,0,799.662,999.528Z" transform="translate(-736.278 -903.658)" fill="#592b1f"/>
        <path id="Trazado_1007163" data-name="Trazado 1007163" d="M924.921,761.328a25.935,25.935,0,0,0,5.8-4.452q-.082,2.712-.069,5.426c-.04.03-.08.059-.12.09a16.421,16.421,0,0,0-1.267,1.344,5.894,5.894,0,0,1-4.52,1.566c-2.466-.276-5.019-2.251-6.512-4.141a5.821,5.821,0,0,1-.421-.6c-.973,2.008-3.811,3.943-5.862,4.657a4.464,4.464,0,0,1-3.7-.18,11.847,11.847,0,0,1-2.4-1.737l0-4.69A36.978,36.978,0,0,0,910,761.333a84.815,84.815,0,0,0,7.595-3.831C920.035,758.777,922.442,760.124,924.921,761.328Z" transform="translate(-833.556 -688.778)" fill="#dbd2d7"/>
        <path id="Trazado_1007164" data-name="Trazado 1007164" d="M799.767,1153.28c.792,1.938,1.309,3.973,2.074,5.918,1.471.276,3.223,1.192,4.525,1.363a23.636,23.636,0,0,0,2.252,1,3.048,3.048,0,0,1,1.586,1.876,1.794,1.794,0,0,1-.215,1.428.82.82,0,0,1-.054.066l-.276.374a3.185,3.185,0,0,1,.388,2.353,1.132,1.132,0,0,1-.648.713l-.065.295a2.779,2.779,0,0,1-.583,2.337c-.054.066-.11.126-.17.188-.07.653-.065,1.161-.605,1.61a5.352,5.352,0,0,1-2.736.732l-.207,1.92a10.837,10.837,0,0,1-.371,2.1,3.264,3.264,0,0,1-2.252,1.523,11.615,11.615,0,0,1-2.168.065,45.574,45.574,0,0,0-6.143.033,3,3,0,0,1-.458-.865c-.385-1.446-.16-6.03-.159-7.824l.084-.023.138-.043a2.76,2.76,0,0,0,.962-.513c-.439-.264-.922-.474-1.382-.7-.847-3.04.462-7.8,1.934-10.534.316-.586.963-.814,1.346-1.361.017-.024.033-.049.049-.074A15,15,0,0,1,799.767,1153.28Z" transform="translate(-732.194 -1044.895)" fill="#f29c64"/>
        <path id="Trazado_1007165" data-name="Trazado 1007165" d="M894.051,1292.59c.769.1,1.53.336,2.29.494a22.419,22.419,0,0,0,3.825.443l-.065.295A10.631,10.631,0,0,1,894.051,1292.59Z" transform="translate(-822.96 -1170.047)" fill="#e36e52"/>
        <path id="Trazado_1007166" data-name="Trazado 1007166" d="M911.989,1263.209a9.051,9.051,0,0,1-3.59-.305c-.359-.091-1.285-.311-1.477-.635a14.805,14.805,0,0,1,3.157.438c.717.094,1.462.1,2.186.129Z" transform="translate(-834.523 -1142.794)" fill="#e36e52"/>
        <path id="Trazado_1007167" data-name="Trazado 1007167" d="M798.2,1316.85c1.8.987,5.078,3.042,6.94,3.427a18.275,18.275,0,0,0,3.634.206l-.207,1.92a10.832,10.832,0,0,1-.371,2.1,3.264,3.264,0,0,1-2.252,1.523,11.615,11.615,0,0,1-2.168.065,45.574,45.574,0,0,0-6.143.033,3,3,0,0,1-.458-.865c-.385-1.446-.16-6.03-.159-7.824l.084-.023.138-.043A2.753,2.753,0,0,0,798.2,1316.85Z" transform="translate(-735.728 -1191.841)" fill="#3d6686"/>
        <path id="Trazado_1007168" data-name="Trazado 1007168" d="M879.042,603.294c2.727,1.255,6.42,2.342,9.425,1.794l.184-.016a14.514,14.514,0,0,0,6.284-1.8,24.916,24.916,0,0,0,.594,5.371l.193.095a4.272,4.272,0,0,1,1.562.488c1.8,1.116,3.2,2.832,5.13,3.8a11.841,11.841,0,0,0-.053,1.313,10.148,10.148,0,0,1-1.642,3.637c-.208.3-.472.591-.653.91a25.933,25.933,0,0,1-5.8,4.452c-2.48-1.2-4.886-2.551-7.329-3.825a84.815,84.815,0,0,1-7.595,3.831,36.986,36.986,0,0,1-4.147-2.722,23.1,23.1,0,0,1-3.394-4.21,14.314,14.314,0,0,1,.075-3.66,16.645,16.645,0,0,1,6.178-3.915,1.467,1.467,0,0,0,.523-.233,5.319,5.319,0,0,0,.291-1.908C878.994,605.57,879,604.421,879.042,603.294Z" transform="translate(-802.897 -550.782)" fill="#f29c64"/>
        <path id="Trazado_1007169" data-name="Trazado 1007169" d="M942.206,603.294c2.727,1.255,6.42,2.342,9.425,1.794l.184-.016a14.514,14.514,0,0,0,6.284-1.8,24.916,24.916,0,0,0,.594,5.371,26.388,26.388,0,0,1-13.174-.778,21.739,21.739,0,0,0-3.492-1.173C942.157,605.57,942.161,604.421,942.206,603.294Z" transform="translate(-866.06 -550.782)" fill="#e36e52"/>
        <path id="Trazado_1007170" data-name="Trazado 1007170" d="M895.726,657.054a4.273,4.273,0,0,1,1.562.488c1.8,1.116,3.2,2.832,5.13,3.8a11.839,11.839,0,0,0-.053,1.313,10.147,10.147,0,0,1-1.642,3.637c-.208.3-.472.591-.653.91a25.931,25.931,0,0,1-5.8,4.452c-2.48-1.2-4.886-2.551-7.329-3.825a84.831,84.831,0,0,1-7.595,3.831,36.984,36.984,0,0,1-4.147-2.722,23.1,23.1,0,0,1-3.394-4.21,14.312,14.312,0,0,1,.075-3.66,16.644,16.644,0,0,1,6.178-3.915,6.014,6.014,0,0,1-.429,1.476,4,4,0,0,0,.443,3.187c1.818,3.4,5.513,4.856,8.987,5.911,3.281-1.08,6.726-2.56,8.468-5.767.941-1.732.61-2.948.073-4.723Z" transform="translate(-802.901 -599.101)" fill="#fefdfc"/>
        <path id="Trazado_1007171" data-name="Trazado 1007171" d="M1020.842,682.306c.538.056,1.072.113,1.606.2l2.538.422a33.379,33.379,0,0,1,4.089.674,5.558,5.558,0,0,0,.626.042,2.2,2.2,0,0,1,1.57.93,1.9,1.9,0,0,0,.544.3,3.044,3.044,0,0,1,.615,1.855c-.016,1.8.055,3.595.1,5.39.03,1.109,0,2.261.108,3.364,1.028-.18,2.061-.346,3.086-.543a14.5,14.5,0,0,1,1.15,1.521q-4.346.881-8.708,1.685c-2.2.4-4.427.768-6.612,1.266l-.376.074q-6.353,1.361-12.736,2.57a19.539,19.539,0,0,1-2.263.471l-.184.156a39.283,39.283,0,0,0,.6,4.6c.53,3.973,1.006,7.959,1.575,11.926.243,1.694.893,4.848.912,6.374-.352.927.322,5.424.457,6.656q.762,6.59,1.4,13.193c.127,1.287.374,2.605.457,3.887a1.091,1.091,0,0,1-.088.621,1.1,1.1,0,0,1-.3.1,10.389,10.389,0,0,1-1.59.345c-.455.032-.908.063-1.364.076a4.809,4.809,0,0,1-.751-.6c-.667-4.986-1.062-10.045-1.6-15.049l-2.34-21.06c-.441-4.262-.745-8.538-1.318-12.785,5.025-.754,10.044-1.683,15.044-2.593q.022-1.533-.011-3.065-.013-2.714.069-5.426c.181-.319.445-.6.653-.91a10.148,10.148,0,0,0,1.642-3.637,11.885,11.885,0,0,1,.053-1.313,4.327,4.327,0,0,1,.338-1.229A1.378,1.378,0,0,1,1020.842,682.306Z" transform="translate(-919.986 -621.787)" fill="#2ab4b6"/>
        <path id="Trazado_1007172" data-name="Trazado 1007172" d="M1023.382,913.908c-.538-5.7-1.334-11.4-2-17.088-.659-5.6-1.194-11.215-1.893-16.805l-1.192-9.432a54.857,54.857,0,0,1-.707-6.245l.19-.011a2.287,2.287,0,0,1,.2.189c.591.7,1.52.9,2.166,1.528l-.184.156a39.311,39.311,0,0,0,.6,4.6c.53,3.973,1.006,7.959,1.575,11.926.243,1.694.893,4.848.912,6.374-.352.927.322,5.424.457,6.656q.762,6.59,1.4,13.193c.127,1.287.374,2.605.458,3.887a1.092,1.092,0,0,1-.088.621,1.1,1.1,0,0,1-.3.1A10.38,10.38,0,0,1,1023.382,913.908Z" transform="translate(-933.941 -785.31)" fill="#0c8182"/>
        <path id="Trazado_1007173" data-name="Trazado 1007173" d="M1153.716,682.306c.538.056,1.072.113,1.606.2l2.538.422a33.379,33.379,0,0,1,4.089.674,5.558,5.558,0,0,0,.626.042,2.2,2.2,0,0,1,1.57.93,1.9,1.9,0,0,0,.544.3,3.044,3.044,0,0,1,.615,1.855c-.016,1.8.055,3.595.1,5.39.03,1.109,0,2.261.108,3.364l-1.183.215c-3.42.622-6.829,1.317-10.252,1.915l-1.314.231c-.932.176-1.869.341-2.8.536q.022-1.533-.011-3.065-.013-2.714.069-5.426c.181-.319.445-.6.653-.91a10.148,10.148,0,0,0,1.642-3.637,11.9,11.9,0,0,1,.053-1.313,4.328,4.328,0,0,1,.338-1.229A1.378,1.378,0,0,1,1153.716,682.306Z" transform="translate(-1052.859 -621.787)" fill="#a15333"/>
        <path id="Trazado_1007174" data-name="Trazado 1007174" d="M1289.374,704.614a1.9,1.9,0,0,0,.544.3,3.043,3.043,0,0,1,.615,1.855c-.016,1.8.055,3.595.1,5.39.03,1.109,0,2.261.108,3.364l-1.183.215C1289.251,715.138,1289.381,705.958,1289.374,704.614Z" transform="translate(-1178.086 -641.828)" fill="#83361e"/>
        <path id="Trazado_1007175" data-name="Trazado 1007175" d="M1174.607,682.306c.538.056,1.072.113,1.606.2a2.613,2.613,0,0,0-1.435.7c-.4,1.377-.109,9.673-.015,11.593.045.922.214,1.9.209,2.815l-1.314.231c.019-1.153-.226-11.906-.444-12.5a11.9,11.9,0,0,1,.053-1.313,4.329,4.329,0,0,1,.338-1.229A1.378,1.378,0,0,1,1174.607,682.306Z" transform="translate(-1073.75 -621.787)" fill="#83361e"/>
        <path id="Trazado_1007176" data-name="Trazado 1007176" d="M1152.321,712.139c.218.6.463,11.349.444,12.5-.932.176-1.868.341-2.8.536q.022-1.533-.011-3.065-.013-2.714.069-5.426c.181-.319.445-.6.653-.91A10.158,10.158,0,0,0,1152.321,712.139Z" transform="translate(-1052.857 -648.588)" fill="#1b3f63"/>
        <path id="Trazado_1007177" data-name="Trazado 1007177" d="M758.971,680.944l.152.071c.952.5.636.726,1.136,1.512a14.317,14.317,0,0,0-.075,3.66,23.1,23.1,0,0,0,3.394,4.21l0,4.69c0,3.157.1,6.353,0,9.507-.578,3.5-2.12,7.433-5.07,9.563l-.129.09a23.615,23.615,0,0,1-.4,2.717,20.115,20.115,0,0,1-1.4-3.447,1.469,1.469,0,0,1-.136-.418l-.133-.128c.074.924.42,1.94-.272,2.733a2.554,2.554,0,0,1-1.359.73,2.047,2.047,0,0,1-.343-.078c-1.1-.367-1.807-1.872-2.291-2.819a5.241,5.241,0,0,1-3.042-1.314c-1.578-1.547-1.451-3.62-1.462-5.658q.039-9.99-.051-19.98a5.62,5.62,0,0,1,.387-2.121,3.168,3.168,0,0,1,2.037-1.486c.9-.25,1.8-.46,2.716-.661A42.313,42.313,0,0,1,758.971,680.944Z" transform="translate(-691.284 -620.563)" fill="#a15333"/>
        <path id="Trazado_1007178" data-name="Trazado 1007178" d="M759.123,681.639c.952.5.636.726,1.136,1.512a14.317,14.317,0,0,0-.075,3.66,23.1,23.1,0,0,0,3.394,4.21l0,4.69c0,3.157.1,6.353,0,9.507-.578,3.5-2.12,7.433-5.07,9.563l-.129.09a23.6,23.6,0,0,1-.4,2.717,20.115,20.115,0,0,1-1.4-3.447,1.473,1.473,0,0,1-.136-.418l-.133-.128c.074.924.42,1.94-.272,2.733a2.553,2.553,0,0,1-1.359.73,2.047,2.047,0,0,1-.343-.078c-1.1-.367-1.807-1.872-2.291-2.819a5.24,5.24,0,0,1-3.042-1.314c-1.578-1.547-1.451-3.62-1.462-5.658q.039-9.99-.051-19.98a5.622,5.622,0,0,1,.387-2.121A3.168,3.168,0,0,1,749.9,683.6a3.59,3.59,0,0,0-1.329,2.948c-.116,4.82-.006,9.665,0,14.488l0,4.668a16.743,16.743,0,0,0,.052,2.456,2.64,2.64,0,0,0,.792,1.364c1.132,1.111,6.552.672,8.279.614a4.38,4.38,0,0,0,.687-.5,1.99,1.99,0,0,0,.652-1.186,53.77,53.77,0,0,0,.074-6.9L759.1,690.91C759.081,687.819,759,684.729,759.123,681.639Z" transform="translate(-691.283 -621.188)" fill="#83361e"/>
        <path id="Trazado_1007179" data-name="Trazado 1007179" d="M840.534,732.527a23.1,23.1,0,0,0,3.394,4.21l0,4.69c0,3.157.1,6.353,0,9.507-.578,3.5-2.12,7.433-5.07,9.563l-.129.09a23.628,23.628,0,0,1-.4,2.717,20.114,20.114,0,0,1-1.4-3.447,6.735,6.735,0,0,0,1.983-1.161,5.05,5.05,0,0,0,1.524-2.474,29.141,29.141,0,0,0,.144-5.639l.01-12.539c0-1.774-.171-3.657-.053-5.417C840.529,732.593,840.531,732.56,840.534,732.527Z" transform="translate(-771.633 -666.904)" fill="#1b3f63"/>
        <path id="Trazado_1007180" data-name="Trazado 1007180" d="M773.322,1370.84a2.9,2.9,0,0,0,1.219,1.591,3.957,3.957,0,0,0,1.913.6,24.448,24.448,0,0,0,4.753-.558q3.9-.565,7.781-1.213a17.114,17.114,0,0,1,3.146-.493.413.413,0,0,1,.261.09l.379,1.049a51.015,51.015,0,0,1,1.581,6.441q.3,1.448.552,2.9c.338,1.915.652,3.859.861,5.792H737.15c.289-1.9.7-3.774.953-5.677.364-2.256.755-4.593,1.318-6.806,1.5,0,2.992-.026,4.49-.012a45.573,45.573,0,0,1,6.143-.033,11.636,11.636,0,0,0,2.168-.065,3.264,3.264,0,0,0,2.252-1.523,10.837,10.837,0,0,0,.371-2.1c.94,0,1.906.04,2.843-.019C762.885,1370.863,768.132,1370.633,773.322,1370.84Z" transform="translate(-682.005 -1240.265)" fill="#232530"/>
        <path id="Trazado_1007181" data-name="Trazado 1007181" d="M926.448,1370.84a2.9,2.9,0,0,0,1.219,1.591,3.957,3.957,0,0,0,1.913.6,24.448,24.448,0,0,0,4.753-.558q3.9-.565,7.781-1.213a17.114,17.114,0,0,1,3.146-.493.413.413,0,0,1,.261.09l.379,1.049c-1.837,1.12-14.846,2.226-17.72,2.3a53.132,53.132,0,0,1-8.331-.309c-.1,4.377-.06,8.763-.06,13.141h-1.233v-13.2c-3.628-.354-7.316-.835-10.959-.916a10.837,10.837,0,0,0,.371-2.1c.94,0,1.906.04,2.843-.019C916.011,1370.863,921.259,1370.633,926.448,1370.84Z" transform="translate(-835.131 -1240.265)" fill="#09121c"/>
        <path id="Trazado_1007182" data-name="Trazado 1007182" d="M754.473,1392.11c3.643.081,7.33.562,10.959.916v13.2H737.15c.289-1.9.7-3.774.953-5.677.364-2.256.755-4.593,1.318-6.806,1.5,0,2.992-.026,4.49-.012a45.573,45.573,0,0,1,6.143-.033,11.636,11.636,0,0,0,2.168-.065A3.265,3.265,0,0,0,754.473,1392.11Z" transform="translate(-682.005 -1259.452)" fill="#232530"/>
        <path id="Trazado_1007183" data-name="Trazado 1007183" d="M743.911,1408.023a26.709,26.709,0,0,0,4.768.023l-1.136,7.691c-.231,1.583-.409,3.216-.74,4.781H737.15c.289-1.9.7-3.774.953-5.677.364-2.256.755-4.593,1.318-6.806C740.918,1408.035,742.413,1408.009,743.911,1408.023Z" transform="translate(-682.005 -1273.744)" fill="#09121c"/>
        <path id="Trazado_1007184" data-name="Trazado 1007184" d="M1067.32,725.778a31.748,31.748,0,0,0,3.446,2.556q1.522,1.15,2.954,2.41t2.769,2.621a82.416,82.416,0,0,1,17.816,27.393c.3.77,1.384,3.2,1.205,3.917.764.9,1.439,5.514,1.336,6.68-.185,2.078-2.044,3.427-3.544,4.653a48.248,48.248,0,0,1-11.063,6.666c.154.729.65,2.153.251,2.842a1.361,1.361,0,0,1-.968.536c-.8.165-1.639.177-2.435.352.06.621.3,1.73-.128,2.235a1.867,1.867,0,0,1-.889.462,32.285,32.285,0,0,1-3.527.655l-6.732,1.155a9.72,9.72,0,0,0-2.548.517.413.413,0,0,0-.261-.09,17.123,17.123,0,0,0-3.146.493q-3.884.648-7.781,1.213a24.458,24.458,0,0,1-4.753.558,3.955,3.955,0,0,1-1.913-.6,2.894,2.894,0,0,1-1.219-1.591c-.068-.775-.178-1.552-.284-2.322a.459.459,0,0,0,.389-.722c-.083-1.282-.33-2.6-.457-3.887q-.639-6.6-1.4-13.193c-.135-1.233-.809-5.729-.458-6.656-.019-1.526-.668-4.68-.912-6.374-.569-3.967-1.045-7.953-1.575-11.926a39.257,39.257,0,0,1-.6-4.6l.184-.156a19.554,19.554,0,0,0,2.263-.471q6.383-1.209,12.736-2.57l.376-.074c2.185-.5,4.408-.863,6.612-1.266q4.361-.8,8.707-1.685a14.509,14.509,0,0,0-1.15-1.521c-1.025.2-2.058.363-3.086.543-.107-1.1-.078-2.254-.108-3.364C1067.375,729.373,1067.3,727.575,1067.32,725.778Z" transform="translate(-954.874 -660.841)" fill="#e7525d"/>
        <path id="Trazado_1007185" data-name="Trazado 1007185" d="M1193.76,1071.7l.108-.013c.346.332.438,1.463.548,1.964-2.489.578-5.091.925-7.607,1.394l-12.135,2.354-.165-.01a5.533,5.533,0,0,1-.469-1.914c3.276-.754,6.621-1.317,9.924-1.942C1187.229,1072.916,1190.482,1072.227,1193.76,1071.7Z" transform="translate(-1074.494 -971.595)" fill="#fefdfc"/>
        <path id="Trazado_1007186" data-name="Trazado 1007186" d="M1119.126,972.844a2.229,2.229,0,0,1,1.622.116,1.389,1.389,0,0,1,.539.669,29.95,29.95,0,0,1,.9,4.719c.388,2.18.872,4.351,1.216,6.537.154.676.289,1.347.392,2.033a3.386,3.386,0,0,1-.9.662c-.724-4.5-1.693-8.955-2.445-13.45q-7.028,1.461-14.085,2.779-4.8.826-9.566,1.868a34.107,34.107,0,0,0-4.165.958c.452,2.979.8,5.974,1.221,8.958q.722,4.847,1.5,9.686l-.808.057-1.744.1c-.3-1.16-.443-2.4-.638-3.586q-.586-3.452-1.072-6.919c-.4-2.782-.94-5.559-1.224-8.354a3.7,3.7,0,0,1,.937-1.33c.451-.112.921-.185,1.378-.275,2.982-.463,5.965-1.158,8.931-1.728Q1110.133,974.66,1119.126,972.844Z" transform="translate(-998.876 -882.713)" fill="#ce3043"/>
        <path id="Trazado_1007187" data-name="Trazado 1007187" d="M1090.8,1025.349c.451-.112.921-.185,1.378-.275a9.809,9.809,0,0,0-.909,1.55c.229,1.754,2.973,18.328,3.216,18.78l.056.039-1.744.1c-.3-1.16-.443-2.4-.638-3.586q-.586-3.452-1.072-6.919c-.4-2.782-.94-5.559-1.224-8.354A3.706,3.706,0,0,1,1090.8,1025.349Z" transform="translate(-998.872 -929.719)" fill="#e7525d"/>
        <path id="Trazado_1007188" data-name="Trazado 1007188" d="M1093.4,819.57l1.312-.223q.658,5.058,1.254,10.124c.232,1.841.4,3.747.791,5.561q-8.992,1.815-18.011,3.5c-2.966.57-5.949,1.265-8.931,1.728-.457.09-.927.163-1.378.275a3.7,3.7,0,0,0-.937,1.33c-.473-1.6-.511-3.754-.872-5.462l-.06-.51c-.244-1.2-.344-2.458-.523-3.674l-1.076-7.05q6.383-1.209,12.736-2.57l.376-.074c2.185-.5,4.408-.863,6.612-1.266Q1089.051,820.451,1093.4,819.57Z" transform="translate(-976.504 -744.9)" fill="#f6c378"/>
        <path id="Trazado_1007189" data-name="Trazado 1007189" d="M1078.077,839.386c2.185-.5,4.408-.863,6.612-1.266-5.395,6.435-11.076,12.667-16.257,19.275a3.7,3.7,0,0,0-.937,1.33c-.473-1.6-.511-3.754-.872-5.462l-.06-.51c-.244-1.2-.344-2.458-.523-3.674l-1.076-7.05q6.383-1.209,12.736-2.57Z" transform="translate(-976.504 -761.765)" fill="#fae39c"/>
        <path id="Trazado_1007190" data-name="Trazado 1007190" d="M1091.837,850.653l.376-.074a.753.753,0,0,1-.22.713c-1.316,1.775-2.832,3.462-4.242,5.166-1.333,1.611-5.616,7.055-6.991,8l-.06-.51c2.507-3.335,5.229-6.517,7.948-9.68A36.336,36.336,0,0,1,1091.837,850.653Z" transform="translate(-990.639 -772.958)" fill="#f6c378"/>
        <path id="Trazado_1007191" data-name="Trazado 1007191" d="M1064.97,853.873q6.383-1.209,12.736-2.57a36.29,36.29,0,0,0-3.189,3.614c-2.719,3.163-5.441,6.344-7.948,9.68-.244-1.2-.344-2.458-.523-3.674Z" transform="translate(-976.508 -773.608)" fill="#fae39c"/>
        <path id="Trazado_1007192" data-name="Trazado 1007192" d="M1041.067,877.063a19.544,19.544,0,0,0,2.263-.471l1.076,7.05c.179,1.216.279,2.471.523,3.674l.06.51c.361,1.709.4,3.864.872,5.462.283,2.8.828,5.573,1.224,8.354q.486,3.467,1.072,6.919c.2,1.185.336,2.426.638,3.586l1.744-.1.808-.057a12.359,12.359,0,0,0,4.149-1.143,1.087,1.087,0,0,0,.664-.718c-.409-1.058-3.762-1.322-4.772-2.238a1.95,1.95,0,0,1-.4-1.366,1.675,1.675,0,0,1,.3-.438c.418-.384,1.057-.273,1.575-.24a17.261,17.261,0,0,1,8.411,3.319,14.582,14.582,0,0,0,2.39,1.822,68.834,68.834,0,0,0,2.651,10.357c.115.228.249.458.341.7,5.27-1.209,10.541-1.832,15.582-3.885.154.729.65,2.153.252,2.842a1.361,1.361,0,0,1-.968.536c-.8.165-1.639.177-2.435.352.06.621.3,1.73-.128,2.235a1.867,1.867,0,0,1-.889.462,32.285,32.285,0,0,1-3.527.655l-6.732,1.155a9.722,9.722,0,0,0-2.548.517.413.413,0,0,0-.261-.09,17.124,17.124,0,0,0-3.146.493q-3.884.648-7.781,1.213a24.467,24.467,0,0,1-4.753.558,3.956,3.956,0,0,1-1.913-.6,2.894,2.894,0,0,1-1.219-1.591c-.068-.775-.178-1.552-.285-2.322a1.106,1.106,0,0,0,.3-.1,1.092,1.092,0,0,0,.088-.621c-.083-1.282-.331-2.6-.458-3.887q-.639-6.6-1.4-13.193c-.135-1.233-.809-5.729-.457-6.656-.019-1.526-.669-4.68-.912-6.374-.569-3.967-1.046-7.953-1.575-11.926a39.311,39.311,0,0,1-.6-4.6Z" transform="translate(-954.868 -796.327)" fill="#f6c378"/>
        <path id="Trazado_1007193" data-name="Trazado 1007193" d="M1146.192,1316.97c.115.228.249.458.341.7l-.114.033c-1.4.417-2.722,1.212-4.1,1.724-2.09.775-9.628,2.936-11.529,2.073-.5-.69-.476-1.542-.988-2.309a.409.409,0,0,1,.185.059,7.152,7.152,0,0,0,1.97.685C1135.634,1320.373,1142.3,1317.811,1146.192,1316.97Z" transform="translate(-1034.75 -1191.949)" fill="#b79152"/>
        <path id="Trazado_1007194" data-name="Trazado 1007194" d="M1070.412,1108.11c.52,2.225.726,4.577,1.036,6.84l1.858,14.3c.214,1.591.326,3.257.649,4.824a2.486,2.486,0,0,0,1.717,1.075,28.927,28.927,0,0,0,5.373-.806l12.7-2.275,7.484-1.346c1.424-.258,2.9-.457,4.3-.849.06.621.3,1.73-.128,2.235a1.868,1.868,0,0,1-.889.462,32.283,32.283,0,0,1-3.527.655l-6.732,1.155a9.719,9.719,0,0,0-2.548.517.413.413,0,0,0-.261-.09,17.124,17.124,0,0,0-3.146.493q-3.884.648-7.781,1.213a24.477,24.477,0,0,1-4.753.558,3.957,3.957,0,0,1-1.913-.6,2.9,2.9,0,0,1-1.219-1.591c-.068-.775-.178-1.552-.284-2.322a1.108,1.108,0,0,0,.3-.1,1.092,1.092,0,0,0,.088-.621c-.083-1.282-.33-2.6-.457-3.887q-.639-6.6-1.4-13.193C1070.734,1113.533,1070.06,1109.037,1070.412,1108.11Z" transform="translate(-981.307 -1004.316)" fill="#1e9a9d"/>
        <path id="Trazado_1007195" data-name="Trazado 1007195" d="M1105.241,1164.809a1.674,1.674,0,0,1,.3-.438c.418-.384,1.057-.273,1.575-.24a17.261,17.261,0,0,1,8.411,3.318,14.589,14.589,0,0,0,2.39,1.822,68.818,68.818,0,0,0,2.651,10.358c-3.892.841-10.558,3.4-14.236,2.959a7.148,7.148,0,0,1-1.97-.685.414.414,0,0,0-.185-.059l-.31-1.4a2.315,2.315,0,0,1-1.054-1.317,9.224,9.224,0,0,1,.229-1.92l-.344-.417a2.935,2.935,0,0,1-.818-1.326,1.985,1.985,0,0,1,.406-1.645l-.02-.2a.59.59,0,0,1-.065-.02,2.084,2.084,0,0,1-.836-.905,1.269,1.269,0,0,1,.078-1.07,2.3,2.3,0,0,1,1.61-1.2l1.744-.1.808-.057a12.359,12.359,0,0,0,4.149-1.143,1.087,1.087,0,0,0,.664-.718c-.409-1.058-3.762-1.323-4.772-2.238A1.95,1.95,0,0,1,1105.241,1164.809Z" transform="translate(-1009.127 -1054.607)" fill="#f29c64"/>
        <path id="Trazado_1007196" data-name="Trazado 1007196" d="M1140.26,1164.809a1.674,1.674,0,0,1,.3-.438c.418-.384,1.057-.273,1.575-.24a1.405,1.405,0,0,1-.1,1,.717.717,0,0,1-.662.107A9.8,9.8,0,0,1,1140.26,1164.809Z" transform="translate(-1044.146 -1054.607)" fill="#f7b57a"/>
        <path id="Trazado_1007197" data-name="Trazado 1007197" d="M1110.99,1257.85c.318,0,3.882.261,3.976.328a1.188,1.188,0,0,1-.809.389,4.394,4.394,0,0,1-3.147-.513Z" transform="translate(-1017.851 -1138.837)" fill="#e36e52"/>
        <path id="Trazado_1007198" data-name="Trazado 1007198" d="M1115.24,1289.09c.712.006,1.413.179,2.125.214.573.028,1.165-.078,1.73-.02.219.022.31.01.464.162a3.848,3.848,0,0,1-2.352.381,5.623,5.623,0,0,1-1.622-.32Z" transform="translate(-1021.669 -1166.902)" fill="#e36e52"/>
        <path id="Trazado_1007199" data-name="Trazado 1007199" d="M1116.38,1312.08l.106.081c1.637,1.237,4.711.6,4.993.873.056.054.034.151.052.227a1.175,1.175,0,0,1-.935.374,8.778,8.778,0,0,1-3.162-.239A2.316,2.316,0,0,1,1116.38,1312.08Z" transform="translate(-1022.693 -1187.556)" fill="#e36e52"/>
        <path id="Trazado_1007200" data-name="Trazado 1007200" d="M1268.656,725.778a31.748,31.748,0,0,0,3.446,2.556q1.522,1.15,2.954,2.41t2.769,2.621a82.416,82.416,0,0,1,17.816,27.393c.3.77,1.384,3.2,1.205,3.917.764.9,1.439,5.514,1.336,6.68-.185,2.078-2.044,3.427-3.544,4.653a48.248,48.248,0,0,1-11.063,6.666c-5.041,2.053-10.313,2.676-15.583,3.885-.092-.238-.226-.468-.341-.7A68.83,68.83,0,0,1,1265,775.5a15.328,15.328,0,0,1,2.768-1.656c1.423-.992,2.929-1.9,4.383-2.846l8.074-5.294a3.386,3.386,0,0,0,.9-.662c-.1-.686-.238-1.357-.392-2.033-.345-2.185-.829-4.357-1.216-6.537a29.935,29.935,0,0,0-.9-4.719,1.388,1.388,0,0,0-.539-.669,2.228,2.228,0,0,0-1.622-.116c-.4-1.814-.559-3.72-.791-5.561q-.6-5.066-1.254-10.124l-1.312.223a14.493,14.493,0,0,0-1.15-1.521c-1.025.2-2.058.363-3.086.543-.107-1.1-.078-2.254-.108-3.364C1268.71,729.373,1268.639,727.575,1268.656,725.778Z" transform="translate(-1156.209 -660.841)" fill="#3d6686"/>
        <path id="Trazado_1007201" data-name="Trazado 1007201" d="M1419.83,1079.977c1.691-.436,7.015-1.929,8.609-1.163a.6.6,0,0,1,.144.573.49.49,0,0,1-.318.372,9.312,9.312,0,0,1-2.189.367c-1.666.235-4.58.806-5.855,1.883C1420.12,1081.324,1419.984,1080.653,1419.83,1079.977Z" transform="translate(-1295.303 -977.804)" fill="#1b3f63"/>
        <path id="Trazado_1007202" data-name="Trazado 1007202" d="M1296.847,1108.49c.764.9,1.439,5.514,1.336,6.68-.185,2.078-2.044,3.427-3.544,4.653a48.251,48.251,0,0,1-11.063,6.666c-5.041,2.053-10.313,2.676-15.582,3.885-.092-.238-.226-.468-.341-.7A68.814,68.814,0,0,1,1265,1119.32a15.324,15.324,0,0,1,2.768-1.656,56.68,56.68,0,0,1,2.521,8.213,67.909,67.909,0,0,0,13.3-4.371c4.457-2.121,9.66-5.74,12.123-10.146A18.675,18.675,0,0,0,1296.847,1108.49Z" transform="translate(-1156.21 -1004.657)" fill="#1b3f63"/>
      </g>
    </g>
  </g>
</svg>
