<svg xmlns="http://www.w3.org/2000/svg" width="84" height="84" viewBox="0 0 84 84">
  <g id="Grupo_1192445" data-name="Grupo 1192445" transform="translate(-205.503 -1149)">
    <rect id="Rectángulo_454995" data-name="Rectángulo 454995" width="84" height="84" rx="10" transform="translate(205.503 1149)" fill="#a4c2ff"/>
    <g id="Grupo_1192454" data-name="Grupo 1192454" transform="translate(208.095 1113.835)">
      <g id="Grupo_1192453" data-name="Grupo 1192453" transform="translate(7.719 51.742)">
        <g id="Grupo_1192446" data-name="Grupo 1192446" transform="translate(24.087 0)">
          <path id="Trazado_1004956" data-name="Trazado 1004956" d="M197.718,151.884h16.205a1.388,1.388,0,0,0,1.328-1.788,9.852,9.852,0,0,0-18.862,0,1.388,1.388,0,0,0,1.328,1.788Z" transform="translate(-196.327 -132.319)" fill="#8ac9fe" fill-rule="evenodd"/>
          <path id="Trazado_1004957" data-name="Trazado 1004957" d="M269.291,151.884a1.388,1.388,0,0,0,1.328-1.788,9.86,9.86,0,0,0-10.819-6.9,9.86,9.86,0,0,1,8.043,6.9,1.388,1.388,0,0,1-1.328,1.788h2.775Z" transform="translate(-251.695 -132.319)" fill="#60b7ff" fill-rule="evenodd"/>
          <circle id="Elipse_13789" data-name="Elipse 13789" cx="4.98" cy="4.98" r="4.98" transform="translate(4.514)" fill="#f6dccd"/>
          <path id="Trazado_1004958" data-name="Trazado 1004958" d="M265.928,58.721a4.98,4.98,0,1,1-.694,9.911,4.98,4.98,0,0,0,0-9.863A5.013,5.013,0,0,1,265.928,58.721Z" transform="translate(-256.434 -58.721)" fill="#f1cbbc" fill-rule="evenodd"/>
        </g>
        <g id="Grupo_1192449" data-name="Grupo 1192449" transform="translate(5.237 17.588)">
          <g id="Grupo_1192447" data-name="Grupo 1192447" transform="translate(10.085)">
            <path id="Trazado_1004959" data-name="Trazado 1004959" d="M128.72,196.439h34.473a1.024,1.024,0,0,1,1.022,1.022v28.149a.8.8,0,0,1-.8.8H128.5a.8.8,0,0,1-.8-.8V197.461A1.024,1.024,0,0,1,128.72,196.439Z" transform="translate(-127.698 -196.439)" fill="#ecba78" fill-rule="evenodd"/>
            <path id="Trazado_1004960" data-name="Trazado 1004960" d="M385.634,196.439h2.554a1.024,1.024,0,0,1,1.022,1.022v28.149a.8.8,0,0,1-.8.8h-2.554a.8.8,0,0,0,.8-.8V197.461A1.024,1.024,0,0,0,385.634,196.439Z" transform="translate(-352.694 -196.439)" fill="#e3a76f" fill-rule="evenodd"/>
          </g>
          <g id="Grupo_1192448" data-name="Grupo 1192448" transform="translate(0 0)">
            <path id="Trazado_1004961" data-name="Trazado 1004961" d="M105.248,211.482l-9.53-14.58a1,1,0,0,0-.855-.463H59.279a1,1,0,0,0-.855.463l-9.53,14.58a1.02,1.02,0,0,0,.855,1.581h54.644A1.02,1.02,0,0,0,105.248,211.482Z" transform="translate(-48.728 -196.439)" fill="#e3a76f" fill-rule="evenodd"/>
            <path id="Trazado_1004962" data-name="Trazado 1004962" d="M105.248,211.482l-9.53-14.58a1,1,0,0,0-.855-.463H92.675l8.163,12.489a1.02,1.02,0,0,1-.855,1.581H49.53l-.636.974a1.02,1.02,0,0,0,.855,1.581h54.644A1.02,1.02,0,0,0,105.248,211.482Z" transform="translate(-48.728 -196.439)" fill="#c48958" fill-rule="evenodd"/>
          </g>
        </g>
        <g id="Grupo_1192450" data-name="Grupo 1192450" transform="translate(26.766 20.504)">
          <path id="Trazado_1004963" data-name="Trazado 1004963" d="M217.833,219.277c3.025.1,3.86,1.036,6.21,1.471v8.291a19.9,19.9,0,0,0-6.252-1.679.511.511,0,0,1-.486-.51v-7.063A.509.509,0,0,1,217.833,219.277Z" transform="translate(-217.306 -219.276)" fill="#d1d1d6" fill-rule="evenodd"/>
          <path id="Trazado_1004964" data-name="Trazado 1004964" d="M276.427,219.276c-3.04.1-4.014,1.036-6.364,1.472v8.291a20.773,20.773,0,0,1,6.406-1.679.51.51,0,0,0,.486-.51v-7.063a.51.51,0,0,0-.527-.511Z" transform="translate(-263.326 -219.275)" fill="#eceff1" fill-rule="evenodd"/>
        </g>
        <g id="Grupo_1192452" data-name="Grupo 1192452" transform="translate(0 28.752)">
          <g id="Grupo_1192451" data-name="Grupo 1192451">
            <circle id="Elipse_13790" data-name="Elipse 13790" cx="10.076" cy="10.076" r="10.076" transform="matrix(0.987, -0.16, 0.16, 0.987, 0, 3.224)" fill="#8ac9fe"/>
            <path id="Trazado_1004965" data-name="Trazado 1004965" d="M89.573,295.476a10.181,10.181,0,0,0-1.277.08,10.078,10.078,0,0,1,0,19.992,10.077,10.077,0,1,0,1.277-20.073Z" transform="translate(-78.006 -293.993)" fill="#60b7ff" fill-rule="evenodd"/>
          </g>
          <path id="Trazado_1004966" data-name="Trazado 1004966" d="M48.937,340.213a1.783,1.783,0,0,1,2.514,0l1.8,1.8,4.873-4.873a1.778,1.778,0,0,1,2.514,2.514l-6.1,6.1a1.942,1.942,0,0,1-2.842-.258l-2.765-2.765A1.783,1.783,0,0,1,48.937,340.213Z" transform="translate(-43.221 -329.884)" fill="#eceff1" fill-rule="evenodd"/>
        </g>
      </g>
      <path id="Trazado_1004967" data-name="Trazado 1004967" d="M24.227,89.542l-6.1,6.1a.629.629,0,0,1-.581.207,1.565,1.565,0,0,1-.816-.465l-2.765-2.764a.756.756,0,1,1,1.069-1.071l1.8,1.8a1.022,1.022,0,0,0,1.445,0l4.873-4.873a.756.756,0,0,1,1.069,1.069Zm1.445-2.514a2.8,2.8,0,0,0-3.959,0l-4.151,4.152L16.483,90.1a2.8,2.8,0,0,0-3.959,0h0a2.8,2.8,0,0,0,0,3.959l2.765,2.765a3.6,3.6,0,0,0,1.951,1.041,2.889,2.889,0,0,0,.423.032,2.671,2.671,0,0,0,1.913-.815l6.1-6.1A2.8,2.8,0,0,0,25.672,87.027ZM46.9,79.343a19.923,19.923,0,0,0-4.849,1.178V74.538c.6-.154,1.115-.332,1.619-.507a11.394,11.394,0,0,1,3.23-.736ZM35.318,73.293a10.285,10.285,0,0,1,3.084.723c.5.179,1.007.361,1.61.518v5.98a18.537,18.537,0,0,0-4.694-1.171Zm12.608-2.077a13.148,13.148,0,0,0-4.92.884,14.742,14.742,0,0,1-1.971.576,13.354,13.354,0,0,1-1.941-.581,12.316,12.316,0,0,0-4.8-.878,1.021,1.021,0,0,0-1.022,1.021v8.08A1.022,1.022,0,0,0,34.3,81.339a17.729,17.729,0,0,1,6.33,1.606l.029.012v0a1,1,0,0,0,.757,0,19.025,19.025,0,0,1,6.513-1.618,1.022,1.022,0,0,0,1.022-1.022v-8.08A1.021,1.021,0,0,0,47.926,71.216ZM27.6,84.931H68.433L58.9,70.351H23.319l-7.2,11.01A11.084,11.084,0,0,1,27.6,84.931ZM58.347,98.276H28.283a11.08,11.08,0,0,0,.681-11.3H58.347ZM19.1,101.108a9.055,9.055,0,1,0-9.055-9.054A9.065,9.065,0,0,0,19.1,101.108Zm22.01-37.952h.005a9.212,9.212,0,0,1,8.3,5.151h-16.6A9.212,9.212,0,0,1,41.108,63.156Zm-4.172-6.218a4.175,4.175,0,1,1,4.177,4.175h-.005A4.179,4.179,0,0,1,36.936,56.938Zm34.24,28.456L60.31,68.77a1.021,1.021,0,0,0-.855-.462H51.639a11.239,11.239,0,0,0-6.649-6.516,6.218,6.218,0,1,0-7.759,0,11.238,11.238,0,0,0-6.649,6.516H22.767a1.021,1.021,0,0,0-.855.462L12.542,83.1A11.093,11.093,0,1,0,26.5,100.319H58.572a1.821,1.821,0,0,0,1.819-1.82V86.975h9.931a1.022,1.022,0,0,0,.855-1.581Z" transform="translate(-0.245 0)" fill="#242222" fill-rule="evenodd"/>
    </g>
  </g>
</svg>
