<svg xmlns="http://www.w3.org/2000/svg" width="50" height="50" viewBox="0 0 50 50">
  <g id="Page-1" transform="translate(0 0)">
    <g id="_002---Open-Book" data-name="002---Open-Book" transform="translate(0 0)">
      <path id="Rectangle-path" d="M26,29h6.667V45.667H26Z" transform="translate(-4.333 -4.834)" fill="#c81e1e"/>
      <path id="Shape" d="M32.667,19.833V24H26V19.833A.833.833,0,0,1,26.833,19h5A.833.833,0,0,1,32.667,19.833Z" transform="translate(-4.333 -3.167)" fill="#c81e1e"/>
      <path id="Shape-2" data-name="Shape" d="M32.667,53v4.167a.833.833,0,0,1-.833.833h-5A.833.833,0,0,1,26,57.167V53Z" transform="translate(-4.333 -8.834)" fill="#c81e1e"/>
      <path id="Shape-3" data-name="Shape" d="M21.833,18.267V49.784a.833.833,0,0,1-1.167.758L1.5,42.109A.826.826,0,0,1,1,41.35V9.834a.828.828,0,0,1,1.167-.758l.817.358,18.35,8.075a.817.817,0,0,1,.5.758Z" transform="translate(-0.167 -1.501)" fill="#f44335"/>
      <path id="Shape-4" data-name="Shape" d="M21.337,17.509,2.987,9.434l-.817-.358a.822.822,0,0,0-1.146.592l17.812,7.842a.818.818,0,0,1,.5.758V49.784a.8.8,0,0,1-.021.167l1.354.6a.833.833,0,0,0,1.167-.758V18.267a.818.818,0,0,0-.5-.758Z" transform="translate(-0.171 -1.501)" fill="#c81e1e"/>
      <path id="Shape-5" data-name="Shape" d="M54.833,9.834V41.35a.826.826,0,0,1-.5.758L35.167,50.542A.833.833,0,0,1,34,49.784V18.267a.818.818,0,0,1,.5-.758L52.85,9.434l.817-.358a.827.827,0,0,1,1.167.758Z" transform="translate(-5.667 -1.501)" fill="#c81e1e"/>
      <path id="Shape-6" data-name="Shape" d="M52.183,8.794l-18.35,8.075a.817.817,0,0,0-.5.758v-.1a.833.833,0,0,0-.833-.833H30v-2.5s.008-.058.025-.167c.4-1.542,6.15-5.65,14.142-7.908,1.292-.367,2.642-.683,4.033-.933a1.683,1.683,0,0,1,1.583.608Z" transform="translate(-5 -0.861)" fill="#ffe0b2"/>
      <path id="Shape-7" data-name="Shape" d="M50.129,5.794a1.683,1.683,0,0,0-1.583-.608c-.44.079-.868.176-1.3.267a1.667,1.667,0,0,1,.383.341l2.4,3-17.952,7.9h.769a.833.833,0,0,1,.833.833v.1a.818.818,0,0,1,.5-.758l18.35-8.075Z" transform="translate(-5.346 -0.861)" fill="#dfc49c"/>
      <path id="Shape-8" data-name="Shape" d="M25.563,14.194v2.5h-2.5a.833.833,0,0,0-.833.833v.1a.818.818,0,0,0-.5-.758L3.38,8.794l2.4-3a1.683,1.683,0,0,1,1.583-.608c1.392.25,2.742.567,4.033.933,7.992,2.258,13.742,6.367,14.142,7.908.017.108.025.167.025.167Z" transform="translate(-0.563 -0.861)" fill="#ffe0b2"/>
      <path id="Shape-9" data-name="Shape" d="M27.142,13.333c-.4-1.542-6.15-5.65-14.142-7.908V1C25.317,3.308,26.967,12.017,27.142,13.333Z" transform="translate(-2.167 -0.167)" fill="#dfc49c"/>
      <path id="Shape-10" data-name="Shape" d="M44.172,1V5.425C36.18,7.683,30.43,11.792,30.03,13.333,30.2,12.017,31.855,3.308,44.172,1Z" transform="translate(-5.005 -0.167)" fill="#dfc49c"/>
      <path id="Shape-11" data-name="Shape" d="M52.167,26.333,38,33V24.667L52.167,18Z" transform="translate(-6.333 -3)" fill="#f57c00"/>
      <path id="Shape-12" data-name="Shape" d="M5,26.333,19.167,33V24.667L5,18Z" transform="translate(-0.833 -3)" fill="#ff9801"/>
      <path id="Rectangle-path-2" data-name="Rectangle-path" d="M26,25h6.667v3.333H26Z" transform="translate(-4.333 -4.167)" fill="#ffdc00"/>
      <path id="Rectangle-path-3" data-name="Rectangle-path" d="M31,25h2.5v3.333H31Z" transform="translate(-5.167 -4.167)" fill="#fec108"/>
      <path id="Rectangle-path-4" data-name="Rectangle-path" d="M26,49h6.667v3.333H26Z" transform="translate(-4.333 -8.167)" fill="#ffdc00"/>
      <path id="Rectangle-path-5" data-name="Rectangle-path" d="M31,49h2.5v3.333H31Z" transform="translate(-5.167 -8.167)" fill="#fec108"/>
      <g id="Grupo_1193084" data-name="Grupo 1193084">
        <path id="Shape-13" data-name="Shape" d="M49.244,6.938a1.667,1.667,0,0,0-1.583-.13l-.23.1-2-2.5a2.491,2.491,0,0,0-2.382-.905C42.016,3.69,41,3.917,40,4.172V.833a.833.833,0,0,0-.3-.642.842.842,0,0,0-.686-.177C29.882,1.726,26.347,6.908,25,10.225,23.648,6.9,20.113,1.725,10.987.014A.843.843,0,0,0,10.3.192a.833.833,0,0,0-.3.642V4.177c-1-.258-2.017-.484-3.049-.667a2.5,2.5,0,0,0-2.382.907l-2,2.5-.23-.1A1.667,1.667,0,0,0,0,8.333V39.847a1.667,1.667,0,0,0,.995,1.525l19.167,8.433a1.6,1.6,0,0,0,1.448-.068A1.649,1.649,0,0,0,22.5,50h5a1.649,1.649,0,0,0,.889-.263,1.654,1.654,0,0,0,.777.21,1.672,1.672,0,0,0,.673-.142L49,41.373A1.667,1.667,0,0,0,50,39.847V8.333a1.662,1.662,0,0,0-.756-1.4Zm-5.9-1.79a.838.838,0,0,1,.787.306l1.723,2.151L28.494,15.243c-.024.01-.042.029-.066.041A1.659,1.659,0,0,0,27.5,15H25.833V13.363c.351-1.174,7.278-6.385,17.509-8.215ZM27.5,16.667V20h-5V16.667Zm-5,5h5v1.667h-5ZM22.5,25h5V40h-5Zm0,16.667h5v1.667h-5ZM38.333,1.857V4.64a38.959,38.959,0,0,0-11.444,5.422c1.361-2.8,4.459-6.617,11.444-8.2Zm-26.667,0c6.98,1.583,10.078,5.4,11.442,8.2A38.952,38.952,0,0,0,11.667,4.64Zm-5.8,3.6a.839.839,0,0,1,.787-.306c10.212,1.827,17.132,7.022,17.5,8.161l.012.083V15H22.5a1.659,1.659,0,0,0-.928.283c-.024-.012-.042-.031-.067-.042L4.147,7.605Zm-4.2,34.392V8.333l19.167,8.433V48.28ZM22.5,48.333V45h5v3.333Zm6.667-.053V16.768L48.333,8.333V39.847Z" transform="translate(0 0)"/>
        <path id="Shape-14" data-name="Shape" d="M52.447,17.13a.833.833,0,0,0-.8-.051L37.478,23.746A.833.833,0,0,0,37,24.5v8.333a.833.833,0,0,0,1.188.754l14.167-6.667a.833.833,0,0,0,.478-.754V17.833a.833.833,0,0,0-.387-.7Zm-1.28,8.508-12.5,5.882V25.029l12.5-5.882Z" transform="translate(-6.167 -2.834)"/>
        <path id="Shape-15" data-name="Shape" d="M19.355,23.751,5.188,17.084A.833.833,0,0,0,4,17.834v8.333a.833.833,0,0,0,.478.754l14.167,6.667a.834.834,0,0,0,1.188-.754V24.5A.833.833,0,0,0,19.355,23.751Zm-1.188,7.77-12.5-5.882V19.147l12.5,5.882Z" transform="translate(-0.667 -2.835)"/>
        <path id="Shape-16" data-name="Shape" d="M19.355,38.751,5.188,32.084a.834.834,0,1,0-.71,1.508l14.167,6.667a.834.834,0,0,0,.71-1.508Z" transform="translate(-0.667 -5.335)"/>
        <path id="Shape-17" data-name="Shape" d="M18,43.11,7.2,38.027a.833.833,0,1,0-.7,1.51l10.8,5.083A.833.833,0,1,0,18,43.112Z" transform="translate(-1 -6.324)"/>
        <path id="Shape-18" data-name="Shape" d="M51.645,32.084,37.478,38.751a.834.834,0,1,0,.71,1.508l14.167-6.667a.834.834,0,0,0-.71-1.508Z" transform="translate(-6.167 -5.334)"/>
        <path id="Shape-19" data-name="Shape" d="M50.3,38.029,39.507,43.109a.833.833,0,0,0,.71,1.507l10.8-5.083a.833.833,0,1,0-.709-1.508Z" transform="translate(-6.507 -6.323)"/>
      </g>
    </g>
  </g>
</svg>
