<svg xmlns="http://www.w3.org/2000/svg" width="330" height="200" viewBox="0 0 330 200">
  <g id="Grupo_1192801" data-name="Grupo 1192801" transform="translate(-373.827 -2034)">
    <rect id="Rectángulo_455594" data-name="Rectángulo 455594" width="330" height="200" rx="10" transform="translate(373.827 2034)" fill="none"/>
    <g id="Grupo_1192726" data-name="Grupo 1192726" transform="translate(445.827 2035)">
      <g id="Grupo_1192740" data-name="Grupo 1192740" transform="translate(89.225 76.2)">
        <path id="Trazado_1005521" data-name="Trazado 1005521" d="M206.047,318.13c-9.165,2.681-26.452,28.91-26.118,38.906s16.8,26.748,16.8,26.748l5.2-3.424s-7-19.012-6.445-24.344,11.066-9.31,13.327-14.975S216.023,315.21,206.047,318.13Z" transform="translate(-179.924 -267.93)" fill="#ffccb6"/>
        <g id="Grupo_1192727" data-name="Grupo 1192727" transform="translate(12.586 48.31)">
          <path id="Trazado_1005522" data-name="Trazado 1005522" d="M256.82,387.958H203.508s4.236-50.768,14.123-71.3c0,0,17.863-5.665,36.19,3Z" transform="translate(-203.508 -314.84)" fill="#b2bc4b"/>
          <g id="Grupo_1192726-2" data-name="Grupo 1192726" transform="translate(2.965 0.06)">
            <path id="Trazado_1005523" data-name="Trazado 1005523" d="M240.5,354.308a5.936,5.936,0,1,1-5.937-5.936A5.937,5.937,0,0,1,240.5,354.308Z" transform="translate(-218.185 -330.536)" fill="#899929"/>
            <path id="Trazado_1005524" data-name="Trazado 1005524" d="M268.826,395.309a5.936,5.936,0,1,1-5.936-5.937A5.936,5.936,0,0,1,268.826,395.309Z" transform="translate(-231.395 -349.654)" fill="#899929"/>
            <path id="Trazado_1005525" data-name="Trazado 1005525" d="M237.151,426.408a5.936,5.936,0,1,1-5.936-5.937A5.935,5.935,0,0,1,237.151,426.408Z" transform="translate(-216.625 -364.156)" fill="#899929"/>
            <path id="Trazado_1005526" data-name="Trazado 1005526" d="M216.249,388.412a5.936,5.936,0,0,0-5.326-5.9c-.7,3.995-1.318,7.95-1.86,11.706a5.93,5.93,0,0,0,7.186-5.8Z" transform="translate(-209.063 -346.453)" fill="#899929"/>
            <path id="Trazado_1005527" data-name="Trazado 1005527" d="M280.783,354.308a5.934,5.934,0,0,0,10.093,4.234l-.387-8.819a5.936,5.936,0,0,0-9.706,4.584Z" transform="translate(-242.507 -330.536)" fill="#899929"/>
            <path id="Trazado_1005528" data-name="Trazado 1005528" d="M256.954,319.56a5.936,5.936,0,1,0,10.688-3.546,53.542,53.542,0,0,0-8.489-1.063A5.922,5.922,0,0,0,256.954,319.56Z" transform="translate(-231.395 -314.951)" fill="#899929"/>
            <path id="Trazado_1005529" data-name="Trazado 1005529" d="M231.591,319.855a5.9,5.9,0,0,0-.912-3.15,34.091,34.091,0,0,0-3.459.823,66.2,66.2,0,0,0-3.149,8.042,5.918,5.918,0,0,0,7.52-5.715Z" transform="translate(-216.061 -315.769)" fill="#899929"/>
            <path id="Trazado_1005530" data-name="Trazado 1005530" d="M297.636,434.581a5.929,5.929,0,0,0-4.736,9.214h5.142Z" transform="translate(-247.693 -370.736)" fill="#899929"/>
          </g>
        </g>
        <g id="Grupo_1192728" data-name="Grupo 1192728" transform="translate(34.962 37.577)">
          <path id="Trazado_1005531" data-name="Trazado 1005531" d="M257.519,294.728l.972,15s-1.771,4.885-6.772,4.775-6.285-5.22-6.285-5.22l1.887-13.137Z" transform="translate(-245.434 -294.728)" fill="#ffccb6"/>
          <path id="Trazado_1005532" data-name="Trazado 1005532" d="M258.306,294.728l.15,2.337a19.534,19.534,0,0,1-11.334,5.941l.986-6.865Z" transform="translate(-246.221 -294.728)" fill="#ff9676"/>
        </g>
        <g id="Grupo_1192731" data-name="Grupo 1192731" transform="translate(25.145 0)">
          <path id="Trazado_1005533" data-name="Trazado 1005533" d="M276.567,234.916A10.232,10.232,0,0,1,283.759,230c8.251-1.483,19.929,12.42,13.256,39.3a32.747,32.747,0,0,1-15.573,0s1.881-29.166,1.761-30.9c-.185-2.679-4.636,0-4.636,0Z" transform="translate(-250.135 -226.919)" fill="#fdc450"/>
          <g id="Grupo_1192729" data-name="Grupo 1192729" transform="translate(28.01 5.212)">
            <path id="Trazado_1005534" data-name="Trazado 1005534" d="M296.334,245c-.872-3.448-2.222-7-5.095-9.272-3.306-2.61-7.8-1.521-11.535-.7-.315.069-.182.552.132.482,4.248-.939,8.7-1.841,12.128,1.517,2.55,2.5,3.542,6.426,4.289,9.792a51.458,51.458,0,0,1,1.046,11.665c-.039,3.988-.205,8.262-1.6,12.029-.112.3.371.432.482.133,1.483-4,1.583-8.528,1.625-12.754A50.557,50.557,0,0,0,296.334,245Z" transform="translate(-279.525 -234.084)" fill="#ffac3e"/>
            <path id="Trazado_1005535" data-name="Trazado 1005535" d="M290.157,240.162c-2.34-2.055-5.658-2.313-8.615-2.561-.322-.027-.319.473,0,.5,3.5.295,6.851.742,9.34,3.474,2.262,2.483,3.038,6.153,3.591,9.356,1.216,7.047.647,14.506-.058,21.58-.032.321.469.318.5,0,.792-7.951,1.324-16.258-.436-24.115A14.99,14.99,0,0,0,290.157,240.162Z" transform="translate(-280.353 -235.724)" fill="#ffac3e"/>
            <path id="Trazado_1005536" data-name="Trazado 1005536" d="M289.369,243.433c-1.714-2.243-4.518-2.643-7.148-2.841-.322-.024-.32.476,0,.5a13.126,13.126,0,0,1,4.873,1.068,7.511,7.511,0,0,1,3.291,4.061,29.783,29.783,0,0,1,1.732,9.4c.43,6.186-.211,12.389-.212,18.578a.25.25,0,0,0,.5,0c0-7.435.832-14.878-.16-22.285C291.851,248.955,291.215,245.85,289.369,243.433Z" transform="translate(-280.67 -237.118)" fill="#ffac3e"/>
            <path id="Trazado_1005537" data-name="Trazado 1005537" d="M290.2,247.3c-.064-.315-.545-.182-.482.132a108.176,108.176,0,0,1,2.3,15.3,36.505,36.505,0,0,1-.39,8.168,18.49,18.49,0,0,0-.384,6.115c.051.318.533.183.483-.132-.386-2.423.275-4.718.584-7.1a41.609,41.609,0,0,0,.171-7.691A104.964,104.964,0,0,0,290.2,247.3Z" transform="translate(-284.276 -240.163)" fill="#ffac3e"/>
          </g>
          <path id="Trazado_1005538" data-name="Trazado 1005538" d="M277.157,231.574a4.14,4.14,0,0,0-1.465-.7c1.252-1.817,3.79-5.648,3.226-6.07-.742-.557-3.609-.742-3.89,0a31.338,31.338,0,0,0-.466,4.355s-2.133-4.87-3.06-4.845-2.036,2.311-1.666,2.977a32.681,32.681,0,0,0,3.65,3.275c-.263-.007-.426,0-.426,0l.335,1,4.133,4.232.659-.387S278.547,232.687,277.157,231.574Z" transform="translate(-246.962 -224.318)" fill="#ff8b84"/>
          <path id="Trazado_1005539" data-name="Trazado 1005539" d="M228.046,251.194s-2.966-6.974,1.285-12.722,16.594-8.343,24.458-3.8c8.746,5.05,12.906,25.152-4.849,32.97Z" transform="translate(-227.04 -228.066)" fill="#fdc450"/>
          <g id="Grupo_1192730" data-name="Grupo 1192730" transform="translate(1.178 5.343)">
            <path id="Trazado_1005540" data-name="Trazado 1005540" d="M251.619,235.334c.313.075.447-.408.133-.481a21.565,21.565,0,0,0-14.421,1.859c-4.292,2.068-6.814,5.626-8.075,10.134a.25.25,0,0,0,.482.132,14.776,14.776,0,0,1,7.362-9.585A20.641,20.641,0,0,1,251.619,235.334Z" transform="translate(-229.247 -234.33)" fill="#ffac3e"/>
            <path id="Trazado_1005541" data-name="Trazado 1005541" d="M247.229,240.446a22.194,22.194,0,0,1,11.207-3.432c.322-.011.322-.51,0-.5a23.812,23.812,0,0,0-11.459,3.5c-3.185,1.908-5.311,5.135-6.956,8.372-.146.286.285.539.431.252A20.238,20.238,0,0,1,247.229,240.446Z" transform="translate(-234.257 -235.349)" fill="#ffac3e"/>
            <path id="Trazado_1005542" data-name="Trazado 1005542" d="M248.633,253.345c-.1.306.379.436.482.134,2.339-6.882,7.923-11.857,14.387-14.86.292-.136.038-.567-.252-.432C256.664,241.247,251.014,246.342,248.633,253.345Z" transform="translate(-238.28 -236.116)" fill="#ffac3e"/>
            <path id="Trazado_1005543" data-name="Trazado 1005543" d="M257.737,249.861c2.458-3.163,5.555-6.387,6.02-10.546.035-.32-.465-.317-.5,0-.476,4.271-3.96,7.825-6.536,11.031a26.449,26.449,0,0,1-9.872,7.606c-.294.131-.04.561.252.432A27.71,27.71,0,0,0,257.737,249.861Z" transform="translate(-237.394 -236.543)" fill="#ffac3e"/>
            <path id="Trazado_1005544" data-name="Trazado 1005544" d="M266.625,253.754a28.651,28.651,0,0,1-8.041,8.837c-.251.194,0,.629.252.432a30.519,30.519,0,0,0,8.221-9.017c2.223-3.926,4.074-8.677,3.277-13.235-.056-.316-.537-.182-.482.133C270.635,245.382,268.71,249.88,266.625,253.754Z" transform="translate(-242.878 -237.25)" fill="#ffac3e"/>
            <path id="Trazado_1005545" data-name="Trazado 1005545" d="M272.374,244.445c-.05-.317-.53-.182-.482.133,1.552,9.968-4.141,20.643-13.154,25.1-.289.143-.036.574.253.432A25.189,25.189,0,0,0,272.374,244.445Z" transform="translate(-242.939 -238.962)" fill="#ffac3e"/>
            <path id="Trazado_1005546" data-name="Trazado 1005546" d="M275.788,253.873c-.036-.316-.536-.321-.5,0,.591,5.236-.981,10.1-3.721,14.53-2.364,3.817-5.987,6.454-9.931,8.457-.288.146-.035.577.252.432A25.213,25.213,0,0,0,272,268.655,22.517,22.517,0,0,0,275.788,253.873Z" transform="translate(-244.291 -243.332)" fill="#ffac3e"/>
          </g>
        </g>
        <g id="Grupo_1192737" data-name="Grupo 1192737" transform="translate(25.426 15.248)">
          <path id="Trazado_1005547" data-name="Trazado 1005547" d="M250.74,267.555A3.282,3.282,0,0,0,248.1,268.9c-6.235-3.71-3.907-11.614-3.907-11.614-9.685,1.5-14.278-4.393-14.278-4.393-1.8,3.295-5.491,21.668,3.1,26.66,6.75,3.332,16.177-2.332,16.177-2.332v-3.478a3.26,3.26,0,0,0,1.554.406,3.3,3.3,0,0,0,0-6.591Z" transform="translate(-227.565 -252.889)" fill="#ffccb6"/>
          <path id="Trazado_1005548" data-name="Trazado 1005548" d="M268.078,285.186a1.554,1.554,0,1,0,1.554-1.554A1.554,1.554,0,0,0,268.078,285.186Z" transform="translate(-246.457 -267.225)" fill="#ff9676"/>
          <g id="Grupo_1192736" data-name="Grupo 1192736" transform="translate(0 8.719)">
            <g id="Grupo_1192732" data-name="Grupo 1192732" transform="translate(2.931 0.844)">
              <path id="Trazado_1005549" data-name="Trazado 1005549" d="M235.841,279.457a.25.25,0,0,0,.051-.5,3.11,3.11,0,0,1-2.057-1.173,1.738,1.738,0,0,1-.235-1.339.3.3,0,0,1,.167-.222,3.147,3.147,0,0,1,1.932.394.257.257,0,0,0,.231-.007.254.254,0,0,0,.127-.192l.57-5.338a.248.248,0,0,0-.221-.275.251.251,0,0,0-.276.221l-.533,5a2.994,2.994,0,0,0-2.047-.252.789.789,0,0,0-.437.565,2.247,2.247,0,0,0,.3,1.717,3.583,3.583,0,0,0,2.374,1.391A.27.27,0,0,0,235.841,279.457Z" transform="translate(-233.057 -270.808)" fill="#ff9676"/>
            </g>
            <path id="Trazado_1005550" data-name="Trazado 1005550" d="M249.785,279.258a1.981,1.981,0,1,0,1.981-1.981A1.981,1.981,0,0,0,249.785,279.258Z" transform="translate(-237.927 -272.981)" fill="#fa6060" opacity="0.4"/>
            <path id="Trazado_1005551" data-name="Trazado 1005551" d="M227.653,272.456a1.984,1.984,0,1,1-.082,3.212C227.552,274.588,227.583,273.509,227.653,272.456Z" transform="translate(-227.566 -270.573)" fill="#fa6060" opacity="0.4"/>
            <g id="Grupo_1192733" data-name="Grupo 1192733" transform="translate(3.453 10.042)">
              <path id="Trazado_1005552" data-name="Trazado 1005552" d="M234.21,291.154c1.195.374,2.645.8,3.837.162a5.591,5.591,0,0,0,2.285-2.893c.135-.291-.3-.545-.432-.252a5.846,5.846,0,0,1-1.813,2.557c-1.112.771-2.581.308-3.745-.055-.308-.1-.438.386-.132.481Z" transform="translate(-234.035 -288.042)" fill="#fa6060"/>
            </g>
            <g id="Grupo_1192735" data-name="Grupo 1192735" transform="translate(1.59)">
              <g id="Grupo_1192734" data-name="Grupo 1192734" transform="translate(9.773 2.173)">
                <path id="Trazado_1005553" data-name="Trazado 1005553" d="M251.21,273.581c.156-.149-.081-.384-.235-.236a1.7,1.7,0,0,1-.569.361.558.558,0,0,0-.366-.374c-.416-.094-.912.526-1.105,1.385s-.014,1.633.4,1.725.912-.525,1.105-1.385a3.148,3.148,0,0,0,.064-.441,2.322,2.322,0,0,0,.51-.074.167.167,0,0,0-.088-.321,2.036,2.036,0,0,1-.413.064,1.994,1.994,0,0,0-.025-.256A2.087,2.087,0,0,0,251.21,273.581Z" transform="translate(-248.857 -273.298)"/>
              </g>
              <path id="Trazado_1005554" data-name="Trazado 1005554" d="M230.711,269.469c-.107-.187.187-.345.294-.159a1.667,1.667,0,0,0,.441.509.564.564,0,0,1,.458-.254c.425.03.721.766.661,1.644s-.454,1.568-.88,1.54-.721-.766-.661-1.644a3.382,3.382,0,0,1,.064-.441,2.349,2.349,0,0,1-.466-.217.167.167,0,0,1,.177-.283,1.873,1.873,0,0,0,.377.179,2.23,2.23,0,0,1,.1-.236A2.117,2.117,0,0,1,230.711,269.469Z" transform="translate(-230.545 -269.227)"/>
            </g>
          </g>
        </g>
        <g id="Grupo_1192739" data-name="Grupo 1192739" transform="translate(47.706 50.845)">
          <path id="Trazado_1005555" data-name="Trazado 1005555" d="M289.226,377.569s27.6-6.761,29.511-19.25c2.405-15.713-30.758-44.931-39.948-37.559-7.583,13.185,22.1,28.662,21.9,33.88-.242,6.309-14.464,18.908-14.464,18.908s-4.976-5.881-10.794-4.077-6.288,3.136-5.073,4.138c0,0-1.652,1.011-.809,2.1.6.777,3.632,0,3.632,0s-2.888,2.583-1.423,3.584,5.373-3.007,7.028-2.206S284.574,383.06,289.226,377.569Z" transform="translate(-269.314 -319.589)" fill="#ffccb6"/>
          <g id="Grupo_1192738" data-name="Grupo 1192738" transform="translate(0.881 51.17)">
            <path id="Trazado_1005556" data-name="Trazado 1005556" d="M284,421.514a8.628,8.628,0,0,0-3.8-1.086c-1.52.138-3.784,2.091-3.88,2.175a.166.166,0,0,0-.016.234.169.169,0,0,0,.125.057.166.166,0,0,0,.109-.041c.023-.019,2.278-1.966,3.691-2.094a8.58,8.58,0,0,1,3.614,1.047.166.166,0,0,0,.158-.292Z" transform="translate(-273.432 -417.776)" fill="#ff9676"/>
            <path id="Trazado_1005557" data-name="Trazado 1005557" d="M278.6,415.951a.167.167,0,0,0,.092-.321c-3.185-.923-7.487,2.415-7.667,2.559a.166.166,0,1,0,.205.262C271.277,418.417,275.585,415.074,278.6,415.951Z" transform="translate(-270.965 -415.469)" fill="#ff9676"/>
          </g>
        </g>
      </g>
      <g id="Grupo_1192755" data-name="Grupo 1192755" transform="translate(8.593 65.116)">
        <g id="Grupo_1192741" data-name="Grupo 1192741" transform="translate(0 104.356)">
          <path id="Trazado_1005558" data-name="Trazado 1005558" d="M28.838,427.243s2.5-17.328,6.331-28.157H79.819l5,28.157Z" transform="translate(-28.838 -399.086)" fill="#6f3663"/>
          <path id="Trazado_1005559" data-name="Trazado 1005559" d="M83.434,405.88l-1.206-6.794H37.578A114.992,114.992,0,0,0,34,412.235C41.694,412.992,64.1,414.236,83.434,405.88Z" transform="translate(-31.247 -399.086)" fill="#4f2748"/>
        </g>
        <g id="Grupo_1192743" data-name="Grupo 1192743" transform="translate(35.868 43.85)">
          <path id="Trazado_1005560" data-name="Trazado 1005560" d="M122.032,343.836c14.661-.029,28.846-14.176,28.846-14.176,5.122.793,10.616-2.568,11.665-3.981s-.26-2.7-2.139-1.365-3.1.517-2.682-.449c1.95-4.474,6.578-5.45,7.092-6.692.77-1.863-2.729-1.335-2.729-1.335s1.842-.923,1.728-1.98-3.958.207-6.856,2.19c-4.337,2.971-7.935,8.628-7.935,8.628s-27.989,10.912-36.05-7.344L99,325.49S103.136,343.875,122.032,343.836Z" transform="translate(-97.422 -298.659)" fill="#d85e4e"/>
          <g id="Grupo_1192742" data-name="Grupo 1192742" transform="translate(57.943 16.973)">
            <path id="Trazado_1005561" data-name="Trazado 1005561" d="M204.785,322.808a.17.17,0,0,1-.084-.022.167.167,0,0,1-.061-.227,12.012,12.012,0,0,1,7.014-5.037.169.169,0,0,1,.2.12.166.166,0,0,1-.12.2,11.648,11.648,0,0,0-6.807,4.879A.168.168,0,0,1,204.785,322.808Z" transform="translate(-204.618 -317.517)" fill="#bc473b"/>
          </g>
          <path id="Trazado_1005562" data-name="Trazado 1005562" d="M101.673,285.74c4.449-.552,7.91,7.3,13.528,23.542a21.1,21.1,0,0,1-16.077,10.212S90.726,287.1,101.673,285.74Z" transform="translate(-96.046 -285.713)" fill="#e795ff"/>
        </g>
        <path id="Trazado_1005563" data-name="Trazado 1005563" d="M33.16,347.152s25.561,13.4,51.123,1.266c0,0-2.048-43.713-11.935-64.243,0,0-17.863-5.665-36.19,3C36.158,287.174,33.171,336.477,33.16,347.152Z" transform="translate(-30.853 -240.297)" fill="#e795ff"/>
        <path id="Trazado_1005564" data-name="Trazado 1005564" d="M118.524,350.007s-2.048-43.713-11.935-64.243" transform="translate(-65.094 -241.886)" fill="none" stroke="#4f41b0" stroke-linecap="round" stroke-linejoin="round" stroke-miterlimit="10" stroke-width="0.5"/>
        <g id="Grupo_1192744" data-name="Grupo 1192744" transform="translate(23.098 32.659)">
          <path id="Trazado_1005565" data-name="Trazado 1005565" d="M73.091,264.744l-.972,14.994s1.771,4.886,6.772,4.775,6.285-5.219,6.285-5.219L83.29,266.157Z" transform="translate(-72.119 -264.744)" fill="#d85e4e"/>
          <path id="Trazado_1005566" data-name="Trazado 1005566" d="M73.809,264.744l-.152,2.337a19.545,19.545,0,0,0,11.335,5.941l-.986-6.865Z" transform="translate(-72.836 -264.744)" fill="#bc473b"/>
        </g>
        <g id="Grupo_1192746" data-name="Grupo 1192746" transform="translate(13.956 0)">
          <path id="Trazado_1005567" data-name="Trazado 1005567" d="M84.53,219.171s4.7-3.795,1.95-10.784-17.439-5.891-23.174,0c0,0-6.634-1.1-7.932,4.294s1.1,8.187,1.1,8.187-1.5,2.572-.9,7.677,3.982,9.118,9.286,9.662C70.863,238.824,84.53,219.171,84.53,219.171Z" transform="translate(-54.987 -203.548)" fill="#241a5b"/>
          <g id="Grupo_1192745" data-name="Grupo 1192745" transform="translate(2.004 1.517)">
            <path id="Trazado_1005568" data-name="Trazado 1005568" d="M95.721,213.069c-.895,2.458-3.191,3.911-5.42,5.044a21.1,21.1,0,0,1-4.19,1.611,9.2,9.2,0,0,1-5.429-.572c-.3-.107-.435.376-.132.481,3.507,1.228,6.3.648,9.613-.9,2.5-1.168,5.058-2.834,6.04-5.534C96.313,212.9,95.83,212.768,95.721,213.069Z" transform="translate(-68.831 -209.425)"/>
            <path id="Trazado_1005569" data-name="Trazado 1005569" d="M79.217,215.319a.25.25,0,0,0,0,.5A19.652,19.652,0,0,0,87,213.876c2.617-1.148,5.368-2.359,7.339-4.487.218-.236-.134-.591-.353-.354-1.716,1.854-3.964,2.87-6.207,3.934A20.323,20.323,0,0,1,79.217,215.319Z" transform="translate(-68.177 -207.587)"/>
            <path id="Trazado_1005570" data-name="Trazado 1005570" d="M72.458,211.161c4.644-3.124,10.489-5.024,16.1-4,.315.058.45-.423.132-.482-5.742-1.05-11.719.845-16.482,4.048C71.94,210.908,72.19,211.341,72.458,211.161Z" transform="translate(-64.968 -206.39)"/>
            <path id="Trazado_1005571" data-name="Trazado 1005571" d="M76.219,214.76c3.8-3.624,9.467-4.086,14.424-4.646.316-.036.32-.535,0-.5-5.108.576-10.871,1.063-14.778,4.791C75.632,214.629,75.986,214.982,76.219,214.76Z" transform="translate(-66.692 -207.893)"/>
            <path id="Trazado_1005572" data-name="Trazado 1005572" d="M73.737,227.446a14.791,14.791,0,0,1-.622,8.321,6.225,6.225,0,0,1-3.484,3.562c-.517-.728-.115-2.459,0-3.233.2-1.4.993-2.352,1.511-3.585a2.9,2.9,0,0,0-.211-2.324c-.708-1.922.1-3.781,1.338-5.264.2-.245-.147-.6-.354-.354a6.641,6.641,0,0,0-1.683,3.276,6.061,6.061,0,0,0,.067,2.024q.143.46.318.91a2.713,2.713,0,0,1-.489,2.381,9.124,9.124,0,0,0-1.116,3.9,4.122,4.122,0,0,0,.15,2.471c-.469.191-.954.365-1.457.516a.25.25,0,0,0,.133.481c2.368-.712,4.385-1.732,5.513-4.038a14.416,14.416,0,0,0,.869-9.183C74.152,227,73.671,227.131,73.737,227.446Z" transform="translate(-62.84 -214.829)"/>
            <path id="Trazado_1005573" data-name="Trazado 1005573" d="M67.746,241.527c-8.04.155-10.967-9.859-6.081-15.416a.252.252,0,0,0,.039-.3,8.4,8.4,0,0,1-1.542-5.359A6.461,6.461,0,0,1,61,217.272c.787-1.356,2.493-1.539,3.87-1.666.318-.029.321-.529,0-.5-1.4.129-3.077.313-4,1.523a7.346,7.346,0,0,0-1.2,4.879,9.125,9.125,0,0,0,.542,2.649c.236.693,1.136,1.535.626,2.169a9.746,9.746,0,0,0-1.681,3.457c-1.717,6.006,2.1,12.371,8.592,12.245A.25.25,0,0,0,67.746,241.527Z" transform="translate(-58.743 -210.454)"/>
            <path id="Trazado_1005574" data-name="Trazado 1005574" d="M64.89,222.556a4.887,4.887,0,0,0-.034,2.176c.241,1.484,1.7,2.667.982,4.332-.337.783-.92,1.43-1.235,2.232a9.274,9.274,0,0,0-.687,3.4,6.044,6.044,0,0,0,2.49,4.756c.249.2.6-.153.353-.354a5.847,5.847,0,0,1-2.336-4.971,7.78,7.78,0,0,1,1.1-3.553,7.781,7.781,0,0,0,.963-1.758c.353-1.412-.543-2.46-1.019-3.752-.872-2.362.684-4.364,2.534-5.588.267-.178.018-.611-.252-.432A6.334,6.334,0,0,0,64.89,222.556Z" transform="translate(-61.155 -212.27)"/>
          </g>
        </g>
        <g id="Grupo_1192750" data-name="Grupo 1192750" transform="translate(18.978 10.33)">
          <path id="Trazado_1005575" data-name="Trazado 1005575" d="M88.518,222.9S83.925,228.8,74.24,227.3c0,0,2.33,7.9-3.906,11.615a3.307,3.307,0,1,0-1.086,4.842v3.479s9.426,5.665,16.176,2.332C94.011,244.573,90.316,226.2,88.518,222.9Z" transform="translate(-64.399 -222.905)" fill="#d85e4e"/>
          <path id="Trazado_1005576" data-name="Trazado 1005576" d="M70.769,255.2a1.554,1.554,0,1,1-1.554-1.554A1.554,1.554,0,0,1,70.769,255.2Z" transform="translate(-65.92 -237.241)" fill="#bc473b"/>
          <g id="Grupo_1192749" data-name="Grupo 1192749" transform="translate(10.649 8.665)">
            <g id="Grupo_1192747" data-name="Grupo 1192747" transform="translate(9.318 0.897)">
              <path id="Trazado_1005577" data-name="Trazado 1005577" d="M102.6,249.471a.25.25,0,0,1-.05-.494,3.1,3.1,0,0,0,2.056-1.174,1.737,1.737,0,0,0,.235-1.339.293.293,0,0,0-.166-.222,3.147,3.147,0,0,0-1.932.393.249.249,0,0,1-.358-.2l-.571-5.338a.25.25,0,1,1,.5-.054l.534,5a3,3,0,0,1,2.047-.253.793.793,0,0,1,.436.566,2.246,2.246,0,0,1-.3,1.717,3.581,3.581,0,0,1-2.373,1.392A.279.279,0,0,1,102.6,249.471Z" transform="translate(-101.813 -240.823)" fill="#bc473b"/>
            </g>
            <path id="Trazado_1005578" data-name="Trazado 1005578" d="M94,258.918c-.437.011.669,3.726,2.782,4.361s4.752-2.969,4.544-3.2A22.233,22.233,0,0,0,94,258.918Z" transform="translate(-88.806 -248.362)" fill="#fff"/>
            <path id="Trazado_1005579" data-name="Trazado 1005579" d="M88.315,249.274a1.981,1.981,0,1,1-1.981-1.981A1.981,1.981,0,0,1,88.315,249.274Z" transform="translate(-84.353 -242.942)" fill="#fa6060" opacity="0.4"/>
            <path id="Trazado_1005580" data-name="Trazado 1005580" d="M111.128,242.471a1.986,1.986,0,1,0,.082,3.213C111.23,244.605,111.2,243.526,111.128,242.471Z" transform="translate(-95.397 -240.535)" fill="#fa6060" opacity="0.4"/>
            <g id="Grupo_1192748" data-name="Grupo 1192748" transform="translate(2.853)">
              <path id="Trazado_1005581" data-name="Trazado 1005581" d="M91.243,244.9c0,.881-.346,1.6-.772,1.6s-.772-.714-.772-1.6.345-1.594.772-1.594S91.243,244.019,91.243,244.9Z" transform="translate(-89.699 -241.083)"/>
              <path id="Trazado_1005582" data-name="Trazado 1005582" d="M108.133,240.736c0,.881-.345,1.6-.772,1.6s-.772-.714-.772-1.6.346-1.595.772-1.595S108.133,239.855,108.133,240.736Z" transform="translate(-97.575 -239.141)"/>
            </g>
          </g>
        </g>
        <g id="Grupo_1192754" data-name="Grupo 1192754" transform="translate(1.317 28.662)">
          <path id="Trazado_1005583" data-name="Trazado 1005583" d="M48.013,306.223s13.619,18.375,30.5,14.4c19.08-4.5,24.078-42.817,24.078-42.817s6.457-1.523,6.459-4.564c0-5.932-5.011-6.6-5.011-6.6s.912-10.1-.607-9.339-4.707,15.9-4.707,15.9-12.812,26.93-18.677,26.93-15.636-8.821-15.636-8.821Z" transform="translate(-39.097 -257.255)" fill="#d85e4e"/>
          <path id="Trazado_1005584" data-name="Trazado 1005584" d="M35.294,290.883c-7.185,4.277-3.878,22.059,3.713,33.9,0,0,14.6-4.45,21.114-16.953C60.122,307.833,42.513,286.585,35.294,290.883Z" transform="translate(-31.307 -272.668)" fill="#e795ff"/>
          <g id="Grupo_1192753" data-name="Grupo 1192753" transform="translate(61.81 9.189)">
            <g id="Grupo_1192751" data-name="Grupo 1192751" transform="translate(0)">
              <path id="Trazado_1005585" data-name="Trazado 1005585" d="M147.29,277.724a.131.131,0,0,1-.043-.006.166.166,0,0,1-.118-.2c.036-.137.917-3.354,3.149-3.019a.167.167,0,0,1,.141.189.172.172,0,0,1-.189.141c-1.947-.279-2.77,2.744-2.778,2.775A.167.167,0,0,1,147.29,277.724Z" transform="translate(-147.124 -274.472)" fill="#bc473b"/>
            </g>
            <g id="Grupo_1192752" data-name="Grupo 1192752" transform="translate(2.77 1.157)">
              <path id="Trazado_1005586" data-name="Trazado 1005586" d="M152.481,280.094l-.026,0a.166.166,0,0,1-.139-.19c.014-.09.359-2.209,1.569-2.983a1.782,1.782,0,0,1,1.512-.2.166.166,0,0,1-.091.32,1.444,1.444,0,0,0-1.241.156c-1.086.694-1.416,2.732-1.42,2.753A.167.167,0,0,1,152.481,280.094Z" transform="translate(-152.314 -276.639)" fill="#bc473b"/>
            </g>
          </g>
        </g>
        <path id="Trazado_1005587" data-name="Trazado 1005587" d="M38.627,317.585a50.072,50.072,0,0,0,3.794,7.2s14.6-4.45,21.114-16.953c0,0-17.61-21.248-24.828-16.95" transform="translate(-33.403 -244.005)" fill="none" stroke="#4f41b0" stroke-linecap="round" stroke-linejoin="round" stroke-miterlimit="10" stroke-width="0.5"/>
        <path id="Trazado_1005588" data-name="Trazado 1005588" d="M111.015,354.278s11.166-4.827,16.244-22.5" transform="translate(-67.158 -263.342)" fill="none" stroke="#bc473b" stroke-linecap="round" stroke-linejoin="round" stroke-miterlimit="10" stroke-width="0.5"/>
      </g>
      <g id="Grupo_1192800" data-name="Grupo 1192800" transform="translate(0 196.828)">
        <path id="Trazado_1005668" data-name="Trazado 1005668" d="M198.829,451.946H13.124c-.214,0-.387-.359-.387-.8s.173-.8.387-.8H198.83c.214,0,.387.359.387.8S199.043,451.946,198.829,451.946Z" transform="translate(-12.737 -450.345)"/>
      </g>
      <path id="Trazado_1005669" data-name="Trazado 1005669" d="M125.563,81.537c-22.744,0-41.182,11.736-41.182,26.213,0,12.638,14.052,23.186,32.754,25.661l-5.869,20.341,14.92-19.8c22.455-.213,40.558-11.859,40.558-26.2C166.744,93.273,148.307,81.537,125.563,81.537Z" transform="translate(-46.146 -81.537)" fill="#fff" opacity="0.4"/>
      <path id="Trazado_1005670" data-name="Trazado 1005670" d="M191.717,128.894c-16.835,0-30.482,9.606-30.482,21.456,0,7.251,5.116,13.658,12.941,17.542L185.6,183.056l-3.567-12.362a42.259,42.259,0,0,0,9.681,1.112c16.835,0,30.482-9.606,30.482-21.456S208.552,128.894,191.717,128.894Z" transform="translate(-81.984 -103.62)" fill="#fff" opacity="0.4"/>
    </g>
  </g>
</svg>
