<svg xmlns="http://www.w3.org/2000/svg" width="330" height="200" viewBox="0 0 330 200">
  <g id="Grupo_1192802" data-name="Grupo 1192802" transform="translate(-895 -2034)">
    <rect id="Rectángulo_455595" data-name="Rectángulo 455595" width="330" height="200" rx="10" transform="translate(895 2034)" fill="none"/>
    <g id="Grupo_1192727" data-name="Grupo 1192727" transform="translate(955.975 2045.557)">
      <g id="Grupo_1192783" data-name="Grupo 1192783" transform="translate(92.259 46.404)">
        <g id="Grupo_1192766" data-name="Grupo 1192766" transform="translate(50.912 0)">
          <path id="Trazado_1005589" data-name="Trazado 1005589" d="M624.064,218.273a10.818,10.818,0,0,1-3.321-7.793c.2-5.431,10.89-12.973,26.946-4.015,0,0,6-1.885,7.652,3.554,1.8,5.907,2.079,20.495-7.986,26.354Z" transform="translate(-620.737 -202.318)" fill="#241a5b"/>
          <g id="Grupo_1192765" data-name="Grupo 1192765" transform="translate(2.05 1.434)">
            <g id="Grupo_1192756" data-name="Grupo 1192756" transform="translate(0 5.167)">
              <path id="Trazado_1005590" data-name="Trazado 1005590" d="M624.474,214.492a22.427,22.427,0,0,0,9.693,4.39,23.419,23.419,0,0,0,12.033-1.527c.317-.12.18-.631-.14-.512a23.833,23.833,0,0,1-11.752,1.527,21.227,21.227,0,0,1-9.566-4.337c-.276-.2-.54.257-.268.458Z" transform="translate(-624.36 -213.984)" fill="#4f41b0"/>
            </g>
            <g id="Grupo_1192757" data-name="Grupo 1192757" transform="translate(2.531 2.146)">
              <path id="Trazado_1005591" data-name="Trazado 1005591" d="M628.96,209.143c6.22,3.679,13.214,5.386,20.258,3.156.325-.1.186-.613-.14-.51-6.919,2.189-13.745.509-19.849-3.1a.265.265,0,0,0-.268.458Z" transform="translate(-628.833 -208.646)" fill="#4f41b0"/>
            </g>
            <g id="Grupo_1192758" data-name="Grupo 1192758" transform="translate(7.226 0.188)">
              <path id="Trazado_1005592" data-name="Trazado 1005592" d="M637.258,205.683a26.051,26.051,0,0,0,17.127,3.255c.339-.049.195-.559-.14-.512a25.462,25.462,0,0,1-16.72-3.2.265.265,0,0,0-.267.458Z" transform="translate(-637.131 -205.185)" fill="#4f41b0"/>
            </g>
            <g id="Grupo_1192759" data-name="Grupo 1192759" transform="translate(13.481)">
              <path id="Trazado_1005593" data-name="Trazado 1005593" d="M648.317,205.343a23.637,23.637,0,0,0,10.993,2.383.265.265,0,0,0,0-.529,23.024,23.024,0,0,1-10.724-2.311c-.3-.159-.571.3-.269.458Z" transform="translate(-648.185 -204.853)" fill="#4f41b0"/>
            </g>
            <g id="Grupo_1192760" data-name="Grupo 1192760" transform="translate(19.254 10.472)">
              <path id="Trazado_1005594" data-name="Trazado 1005594" d="M658.389,223.617c.089,5.064,2.492,10.257,6.979,12.848a.265.265,0,0,0,.268-.458c-4.326-2.5-6.631-7.511-6.717-12.391a.265.265,0,0,0-.53,0Z" transform="translate(-658.389 -223.361)" fill="#4f41b0"/>
            </g>
            <g id="Grupo_1192761" data-name="Grupo 1192761" transform="translate(25.618 3.233)">
              <path id="Trazado_1005595" data-name="Trazado 1005595" d="M670.784,211.012c3.845,3.372,4.524,7.947,4.135,12.813-.405,5.064-1.663,10.105-5.211,13.909-.233.249.141.625.374.375,3.679-3.942,4.881-9.056,5.366-14.284.463-4.983-.383-9.762-4.291-13.188-.255-.225-.631.149-.373.375Z" transform="translate(-669.635 -210.567)" fill="#4f41b0"/>
            </g>
            <g id="Grupo_1192762" data-name="Grupo 1192762" transform="translate(24.536 5.672)">
              <path id="Trazado_1005596" data-name="Trazado 1005596" d="M667.856,215.369c3.339,1.786,3.717,5.58,3.836,8.99a30.7,30.7,0,0,1-1.708,12.329c-.123.319.39.457.51.14,1.716-4.47,1.935-9.088,1.667-13.821-.182-3.212-1.009-6.479-4.037-8.1-.3-.161-.568.3-.267.459Z" transform="translate(-667.723 -214.877)" fill="#4f41b0"/>
            </g>
            <g id="Grupo_1192763" data-name="Grupo 1192763" transform="translate(23.074 8.599)">
              <path id="Trazado_1005597" data-name="Trazado 1005597" d="M665.214,220.508c4.363,4.7,3.386,12.392,2.181,18.133-.07.333.441.475.511.141,1.25-5.951,2.2-13.786-2.319-18.65-.232-.25-.606.126-.373.376Z" transform="translate(-665.14 -220.05)" fill="#4f41b0"/>
            </g>
            <g id="Grupo_1192764" data-name="Grupo 1192764" transform="translate(21.096 10.386)">
              <path id="Trazado_1005598" data-name="Trazado 1005598" d="M661.7,223.586a21.771,21.771,0,0,1,3.3,5.775c.8,2.174.911,4.527,1.372,6.78.068.334.578.192.51-.14a48.976,48.976,0,0,0-1.568-7.319,20.711,20.711,0,0,0-3.152-5.365c-.206-.266-.666,0-.459.268Z" transform="translate(-661.644 -223.207)" fill="#4f41b0"/>
            </g>
          </g>
        </g>
        <g id="Grupo_1192769" data-name="Grupo 1192769" transform="translate(0 47.514)">
          <path id="Trazado_1005599" data-name="Trazado 1005599" d="M549.375,329.524s-8.071,1.394-14.5-2.026c-5.807-3.091-4.2-4.161-2.723-4.118a8.369,8.369,0,0,1,2.594.484c-1.678-.9-2.914-2.355-2.473-2.912s2.965.654,2.965.654c-1.1-1.17-.642-2.435,1.744-1.372s7.166,3.768,9.157,3.685.868-1.551-1.67-2.19-2.779-2.212,2.748-1.77,6.628,6.726,6.628,6.726l4.249,7.718-6.614,3.968Z" transform="translate(-530.759 -300.854)" fill="#ffccb6"/>
          <g id="Grupo_1192767" data-name="Grupo 1192767" transform="translate(3.322 20.411)">
            <path id="Trazado_1005600" data-name="Trazado 1005600" d="M536.664,326.43a.175.175,0,0,1,.246-.04,18.3,18.3,0,0,0,7.1,2.6.177.177,0,0,1-.029.352h-.018a18.323,18.323,0,0,1-7.256-2.668A.175.175,0,0,1,536.664,326.43Z" transform="translate(-536.629 -324.097)" fill="#fa6060"/>
            <path id="Trazado_1005601" data-name="Trazado 1005601" d="M537.524,322.444a.179.179,0,0,1,.246-.052,29.643,29.643,0,0,0,7,2.9.177.177,0,0,1-.051.347.167.167,0,0,1-.041-.006,30.086,30.086,0,0,1-7.1-2.945A.177.177,0,0,1,537.524,322.444Z" transform="translate(-537.006 -322.364)" fill="#fa6060"/>
          </g>
          <path id="Trazado_1005602" data-name="Trazado 1005602" d="M603.019,286.868c-3.2-6.329-19.462,41.522-20.946,39.51-1.073-1.453-8.641-7.876-12.406-13.409a56.2,56.2,0,0,1-6.138,5.079c1.753,11.029,7.106,34.113,21.413,36.293C603.806,357.217,610.084,300.862,603.019,286.868Z" transform="translate(-544.987 -286.291)" fill="#d32f53"/>
          <g id="Grupo_1192768" data-name="Grupo 1192768" transform="translate(20.096 30.337)">
            <path id="Trazado_1005603" data-name="Trazado 1005603" d="M566.592,344.613a13.58,13.58,0,0,0,5.343-4.328c.206-.273-.255-.536-.457-.268a12.905,12.905,0,0,1-5.027,4.085c-.309.13-.173.643.142.511Z" transform="translate(-566.276 -339.905)" fill="#aa1737"/>
          </g>
        </g>
        <g id="Grupo_1192770" data-name="Grupo 1192770" transform="translate(41.502 111.337)">
          <path id="Trazado_1005604" data-name="Trazado 1005604" d="M663.458,428.939s-2.65-18.371-6.712-29.853h-47.34l-5.3,29.853Z" transform="translate(-604.107 -399.086)" fill="#4f41b0"/>
          <path id="Trazado_1005605" data-name="Trazado 1005605" d="M611.215,406.289l1.278-7.2h47.34a122.015,122.015,0,0,1,3.789,13.941C655.468,413.83,631.709,415.148,611.215,406.289Z" transform="translate(-607.193 -399.086)" fill="#241a5b"/>
        </g>
        <path id="Trazado_1005606" data-name="Trazado 1005606" d="M663.088,351.055s-27.1,14.205-54.2,1.342c0,0,2.171-46.345,12.652-68.112,0,0,18.938-6.006,38.369,3.18C659.91,287.464,663.077,339.737,663.088,351.055Z" transform="translate(-564.68 -237.068)" fill="#d32f53"/>
        <path id="Trazado_1005607" data-name="Trazado 1005607" d="M663.088,352.534s-27.1,14.205-54.2,1.342c0,0,2.171-46.345,12.652-68.112" transform="translate(-564.68 -238.548)" fill="none" stroke="#aa1737" stroke-linecap="round" stroke-linejoin="round" stroke-miterlimit="10" stroke-width="0.5"/>
        <g id="Grupo_1192771" data-name="Grupo 1192771" transform="translate(66.056 32.435)">
          <path id="Trazado_1005608" data-name="Trazado 1005608" d="M660.637,271.457l-1.29-11.816-10.736,1.972L647.5,272.84l2.161,1.919,1.331,4.26a.017.017,0,0,1,.008,0l1.751-3.067Z" transform="translate(-647.501 -259.641)" fill="#ffccb6"/>
          <path id="Trazado_1005609" data-name="Trazado 1005609" d="M659.644,259.642l.271,2.467a20.723,20.723,0,0,1-11.731,6.822l.724-7.317Z" transform="translate(-647.797 -259.641)" fill="#fa6060"/>
        </g>
        <g id="Grupo_1192776" data-name="Grupo 1192776" transform="translate(53.529 10.805)">
          <path id="Trazado_1005610" data-name="Trazado 1005610" d="M654.166,237.1a3.485,3.485,0,0,0-6.5-1.267c-7.05-3.074-5.65-11.7-5.65-11.7-9.989,2.862-15.6-2.724-15.6-2.724-1.453,3.7-2.9,23.522,6.8,27.633,7.544,2.607,16.7-4.6,16.7-4.6l-.461-3.656a3.468,3.468,0,0,0,4.716-3.684Z" transform="translate(-625.362 -221.414)" fill="#ffccb6"/>
          <path id="Trazado_1005611" data-name="Trazado 1005611" d="M667.242,248.856a1.647,1.647,0,1,0,1.428-1.84A1.648,1.648,0,0,0,667.242,248.856Z" transform="translate(-643.539 -232.524)" fill="#ff9676"/>
          <g id="Grupo_1192775" data-name="Grupo 1192775" transform="translate(0.075 9.001)">
            <g id="Grupo_1192772" data-name="Grupo 1192772" transform="translate(3.636 0.536)">
              <path id="Trazado_1005612" data-name="Trazado 1005612" d="M635.214,247.44a.265.265,0,0,0-.013-.528,3.287,3.287,0,0,1-2.318-.961,1.836,1.836,0,0,1-.427-1.376.314.314,0,0,1,.145-.256,3.328,3.328,0,0,1,2.085.157.264.264,0,0,0,.35-.255l-.106-5.692a.265.265,0,1,0-.531.011l.1,5.329a3.162,3.162,0,0,0-2.185.007.842.842,0,0,0-.384.652,2.38,2.38,0,0,0,.549,1.767,3.782,3.782,0,0,0,2.681,1.145A.274.274,0,0,0,635.214,247.44Z" transform="translate(-631.921 -238.269)" fill="#ff9676"/>
            </g>
            <path id="Trazado_1005613" data-name="Trazado 1005613" d="M648.4,245.247a2.1,2.1,0,1,0,1.821-2.348A2.1,2.1,0,0,0,648.4,245.247Z" transform="translate(-635.43 -239.736)" fill="#fa6060" opacity="0.4"/>
            <path id="Trazado_1005614" data-name="Trazado 1005614" d="M625.5,241.248a2.106,2.106,0,1,1,.341,3.39C625.672,243.507,625.561,242.369,625.5,241.248Z" transform="translate(-625.495 -238.799)" fill="#fa6060" opacity="0.4"/>
            <g id="Grupo_1192773" data-name="Grupo 1192773" transform="translate(2.368)">
              <path id="Trazado_1005615" data-name="Trazado 1005615" d="M646.988,241.118c.117.926.575,1.631,1.024,1.576s.717-.854.6-1.781-.577-1.63-1.024-1.574S646.869,240.191,646.988,241.118Z" transform="translate(-637.183 -238.196)"/>
              <path id="Trazado_1005616" data-name="Trazado 1005616" d="M629.708,239.1c.118.926.575,1.632,1.024,1.576s.719-.853.6-1.781-.575-1.632-1.024-1.574S629.591,238.178,629.708,239.1Z" transform="translate(-629.681 -237.321)"/>
            </g>
            <g id="Grupo_1192774" data-name="Grupo 1192774" transform="translate(6.318 10.286)" opacity="0.4">
              <path id="Trazado_1005617" data-name="Trazado 1005617" d="M637.018,260.207c2.887.033,5.985-1.225,6.681-4.285a.354.354,0,0,0-.689-.158c-.628,2.76-3.465,3.767-6.024,3.737-.456,0-.424.7.031.707Z" transform="translate(-636.661 -255.499)" fill="#fa6060"/>
            </g>
          </g>
        </g>
        <g id="Grupo_1192779" data-name="Grupo 1192779" transform="translate(63.448 42.977)">
          <g id="Grupo_1192777" data-name="Grupo 1192777" transform="translate(0.773 17.291)">
            <path id="Trazado_1005618" data-name="Trazado 1005618" d="M649.959,310.152c0,.731-.4,1.323-.887,1.323s-.888-.592-.888-1.323.4-1.322.888-1.322S649.959,309.422,649.959,310.152Z" transform="translate(-645.963 -308.83)" fill="#aa1737"/>
            <path id="Trazado_1005619" data-name="Trazado 1005619" d="M648.652,337.535c0,.73-.4,1.323-.888,1.323s-.887-.593-.887-1.323.4-1.322.887-1.322S648.652,336.8,648.652,337.535Z" transform="translate(-645.396 -320.719)" fill="#aa1737"/>
            <path id="Trazado_1005620" data-name="Trazado 1005620" d="M647.343,364.917c0,.731-.4,1.323-.888,1.323s-.887-.592-.887-1.323.4-1.322.887-1.322S647.343,364.186,647.343,364.917Z" transform="translate(-644.827 -332.607)" fill="#aa1737"/>
            <path id="Trazado_1005621" data-name="Trazado 1005621" d="M646.034,392.3c0,.73-.4,1.323-.887,1.323s-.888-.593-.888-1.323.4-1.322.888-1.322S646.034,391.568,646.034,392.3Z" transform="translate(-644.259 -344.496)" fill="#aa1737"/>
          </g>
          <g id="Grupo_1192778" data-name="Grupo 1192778">
            <path id="Trazado_1005622" data-name="Trazado 1005622" d="M657.782,290.99l-1-6.947c.377-.59,8.323-5.771,8.323-5.771l2.728,3.279Z" transform="translate(-648.923 -278.271)" fill="#d32f53"/>
            <path id="Trazado_1005623" data-name="Trazado 1005623" d="M645.248,278.271l2.414,4.576-1.246,7.7-3.523-9.392Z" transform="translate(-642.892 -278.271)" fill="#d32f53"/>
          </g>
          <path id="Trazado_1005624" data-name="Trazado 1005624" d="M656.783,286.558l1,6.947,10.053-9.44" transform="translate(-648.923 -280.787)" fill="none" stroke="#aa1737" stroke-linecap="round" stroke-linejoin="round" stroke-miterlimit="10" stroke-width="0.5"/>
          <path id="Trazado_1005625" data-name="Trazado 1005625" d="M647.661,285.059l-1.246,7.7-3.523-9.392" transform="translate(-642.892 -280.483)" fill="none" stroke="#aa1737" stroke-linecap="round" stroke-linejoin="round" stroke-miterlimit="10" stroke-width="0.5"/>
        </g>
        <g id="Grupo_1192782" data-name="Grupo 1192782" transform="translate(43.009 48.06)">
          <path id="Trazado_1005626" data-name="Trazado 1005626" d="M648.921,370.271c-2.637,1.725-19.315-4.539-19.315-4.539s-9.489-10.88-9.918-9.345,4.768,6.327,3.224,6.9-9.781-.383-12.854-.959-2.49,1.919,0,3.645c0,0-3.288-.927-3.288.38,0,2.108,3.288,2.689,3.288,2.689s-2.3.547-1.207,1.725,9.316,3.643,19.26,1.151c0,0,19.982,16.686,32.608,13.617Z" transform="translate(-606.769 -317.205)" fill="#ffccb6"/>
          <g id="Grupo_1192780" data-name="Grupo 1192780" transform="translate(3.045 48.527)">
            <path id="Trazado_1005627" data-name="Trazado 1005627" d="M619.548,374.04a20.119,20.119,0,0,1-7.067-1.007.242.242,0,1,0-.175.451,19.806,19.806,0,0,0,6.6,1.049c.216,0,.435,0,.658-.009a.242.242,0,0,0,.234-.25A.236.236,0,0,0,619.548,374.04Z" transform="translate(-612.151 -373.016)" fill="#fa6060"/>
            <path id="Trazado_1005628" data-name="Trazado 1005628" d="M619.285,379.368a16.108,16.108,0,0,1-6.8-.908.242.242,0,1,0-.184.448,16.167,16.167,0,0,0,5.672,1c.436,0,.888-.019,1.352-.057a.244.244,0,0,0-.04-.485Z" transform="translate(-612.151 -375.371)" fill="#fa6060"/>
          </g>
          <path id="Trazado_1005629" data-name="Trazado 1005629" d="M668.079,287.587c-6.461,1.606,3.042,46.29,0,48.28-2.236,1.463-14.809-.78-21.309-2.07a63.158,63.158,0,0,1-1.216,11.283c7.205,5.265,22.8,15.323,33.675,12.681C693.788,354.223,691.467,281.769,668.079,287.587Z" transform="translate(-623.608 -287.255)" fill="#d32f53"/>
          <g id="Grupo_1192781" data-name="Grupo 1192781" transform="translate(25.009 47.194)">
            <path id="Trazado_1005630" data-name="Trazado 1005630" d="M651.842,370.918a62.478,62.478,0,0,1-.871,11.669c-.05.332.461.478.511.14a63.4,63.4,0,0,0,.89-11.809c-.013-.341-.543-.341-.53,0Z" transform="translate(-650.968 -370.662)" fill="#aa1737"/>
          </g>
          <path id="Trazado_1005631" data-name="Trazado 1005631" d="M668.079,287.842c-6.461,1.606,3.042,46.29,0,48.28-2.236,1.463-14.809-.78-21.309-2.07a63.158,63.158,0,0,1-1.216,11.283c7.205,5.265,22.8,15.323,33.675,12.681" transform="translate(-623.608 -287.51)" fill="none" stroke="#aa1737" stroke-linecap="round" stroke-linejoin="round" stroke-miterlimit="10" stroke-width="0.5"/>
        </g>
      </g>
      <g id="Grupo_1192799" data-name="Grupo 1192799" transform="translate(0 64.285)">
        <g id="Grupo_1192785" data-name="Grupo 1192785" transform="translate(15.49 0)">
          <path id="Trazado_1005632" data-name="Trazado 1005632" d="M433.748,252.08s6.789-12-2.593-16.7-21.464,3.452-21.464,3.452-5.881-2.111-8.817,1.33c-5.512,6.46.334,27.2-2.352,29.378s-5.958,7.007-.419,13.072,29.713,8.078,35.421-.9c4.43-6.971-.911-12.73-4.261-13.349Z" transform="translate(-395.084 -233.919)" fill="#6f3663"/>
          <g id="Grupo_1192784" data-name="Grupo 1192784" transform="translate(2.188 1.415)">
            <path id="Trazado_1005633" data-name="Trazado 1005633" d="M443.145,240.522c.174.209.343.42.5.643,1.947,2.861.326,6.145-1.208,8.756a.266.266,0,0,0,.458.268c1.46-2.488,2.753-5.1,1.829-8.016-.717-2.263-2.971-3.965-5.094-4.809-6.727-2.679-13.358.866-19.133,4.176a.265.265,0,0,0,.268.457c4.835-2.77,10.106-5.719,15.848-4.914a57.3,57.3,0,0,1-12.425,4.544c-.332.077-.191.587.141.512a58.544,58.544,0,0,0,12.972-4.8.229.229,0,0,0,.113-.123,10.8,10.8,0,0,1,3.026,1.116c-1.646,2.906-5.255,3.947-8.272,4.823a25.452,25.452,0,0,1-10.428.336c-.34-.046-.335.485,0,.529a27.028,27.028,0,0,0,11.717-.695c2.817-.861,5.929-2.049,7.446-4.735a9.5,9.5,0,0,1,1.874,1.525,12.849,12.849,0,0,1-7.4,6.071c-4.164,1.515-7.866,1.219-12-.205-.324-.111-.462.4-.141.512a22.946,22.946,0,0,0,6.253,1.374,16.109,16.109,0,0,0,6.028-1.168A13.114,13.114,0,0,0,443.145,240.522Z" transform="translate(-408.248 -236.42)" fill="#87447a"/>
            <path id="Trazado_1005634" data-name="Trazado 1005634" d="M423.929,257.542c2.628,5.506,2.163,12.194-2.883,16.058-.268.206,0,.667.267.458a10.985,10.985,0,0,0,4.387-6.579,15.579,15.579,0,0,0-1.312-10.206C424.239,256.965,423.782,257.234,423.929,257.542Z" transform="translate(-408.495 -245.415)" fill="#87447a"/>
            <path id="Trazado_1005635" data-name="Trazado 1005635" d="M419.913,271.088a23.1,23.1,0,0,0,.79-17.58c-.123-.315-.635-.178-.512.14a22.6,22.6,0,0,1-.737,17.173C419.308,271.126,419.765,271.4,419.913,271.088Z" transform="translate(-407.841 -243.762)" fill="#87447a"/>
            <path id="Trazado_1005636" data-name="Trazado 1005636" d="M452.844,297.082c-.282-.2-.547.264-.268.458a8.57,8.57,0,0,1,3.785,7.059c.122,3.431-1.739,5.605-4.316,7.556-.269.2,0,.664.268.459,2.673-2.025,4.39-4.063,4.574-7.519A9.039,9.039,0,0,0,452.844,297.082Z" transform="translate(-421.954 -262.737)" fill="#87447a"/>
            <path id="Trazado_1005637" data-name="Trazado 1005637" d="M448.386,299.478a.265.265,0,0,0-.458.268,10.93,10.93,0,0,1-1.782,13.633c-.255.229.121.6.375.376A11.469,11.469,0,0,0,448.386,299.478Z" transform="translate(-419.405 -263.743)" fill="#87447a"/>
            <path id="Trazado_1005638" data-name="Trazado 1005638" d="M443.38,298.533c-.142-.311-.6-.04-.458.268,1.615,3.56,1.223,7.507-1.667,10.277-.248.238.128.612.375.375C444.7,306.511,445.094,302.309,443.38,298.533Z" transform="translate(-417.283 -263.328)" fill="#87447a"/>
            <path id="Trazado_1005639" data-name="Trazado 1005639" d="M402.4,252.726c.766-4.064,2.392-8.171,7.11-8.212a.266.266,0,0,0,0-.531c-3.394.029-5.4,1.9-6.615,4.963-1.854,4.671-1.864,10.108-1.363,15.026.25,2.45.99,4.84,1.111,7.3.128,2.571-2.081,4.485-3.006,6.7-1.55,3.724-.35,7.154,2.384,9.912a.265.265,0,0,0,.375-.374c-3.306-3.333-3.711-7.187-1.247-11.175a10.883,10.883,0,0,0,1.935-3.956,19.769,19.769,0,0,0-.639-5.969A37.849,37.849,0,0,1,402.4,252.726Z" transform="translate(-398.952 -239.704)" fill="#87447a"/>
            <path id="Trazado_1005640" data-name="Trazado 1005640" d="M413.871,248.037c.324-.1.184-.614-.14-.51-2.976.953-3.985,3.085-4.475,6.016-.791,4.733-.255,9.782.331,14.509.294,2.369,1.434,5.35.289,7.562a14.525,14.525,0,0,0-1.992,5.2c-.436,3.741.115,7.526,2.669,10.433.225.257.6-.12.375-.376-2.665-3.03-3.1-7.24-2.336-11.078.335-1.691,1.406-2.876,2-4.417.61-1.595.145-3.252-.125-4.878a74.048,74.048,0,0,1-1.007-12.921C409.5,253.824,409.734,249.365,413.871,248.037Z" transform="translate(-402.771 -241.236)" fill="#87447a"/>
            <path id="Trazado_1005641" data-name="Trazado 1005641" d="M420.743,293.779c-2.632-1.429-3.857-3.889-4.514-6.707-.882-3.791.293-7.468,1.05-11.151a8.09,8.09,0,0,0-.008-3.181,41.361,41.361,0,0,1-.826-5.875,35.364,35.364,0,0,1,1.356-10.471.265.265,0,0,0-.51-.14,38.41,38.41,0,0,0-1.375,10.612,28.271,28.271,0,0,0,.541,4.7,15.135,15.135,0,0,1,.454,3.092,15.926,15.926,0,0,1-.732,3.631c-1.4,5.422-1.292,12.913,4.3,15.95C420.776,294.4,421.044,293.941,420.743,293.779Z" transform="translate(-406.105 -244.949)" fill="#87447a"/>
          </g>
        </g>
        <g id="Grupo_1192788" data-name="Grupo 1192788" transform="translate(38.101 47.736)">
          <path id="Trazado_1005642" data-name="Trazado 1005642" d="M455.467,322.884c3.7,4.779,2.342,30.045,7.222,32.329s28.317-.325,28.317-.325,5.231-3.65,9.441-.042,2.93,4.546.683,3.2-4.075-1.113-2.731.359,6.634,2.955,9.067,3.9,1.865,2.161.259,2.2c0,0,2.636.937,2.554,1.641s-1.988.855-3.81.3a8.429,8.429,0,0,1,2.173,1.5c1.074,1.02,1.446,2.912-4.842.972-6.961-2.15-11.657-8.832-11.657-8.832s-31.143,15.465-41.6,7.1-13.318-17.939-14.01-29.17C435.8,326.149,447.986,313.234,455.467,322.884Z" transform="translate(-435.676 -318.815)" fill="#d85e4e"/>
          <g id="Grupo_1192786" data-name="Grupo 1192786" transform="translate(64.145 42.8)">
            <path id="Trazado_1005643" data-name="Trazado 1005643" d="M555.69,400.276a.175.175,0,0,0-.147-.2,18.333,18.333,0,0,1-6.849-3.2.177.177,0,0,0-.23.269.116.116,0,0,0,.012.011,18.328,18.328,0,0,0,7.009,3.266A.181.181,0,0,0,555.69,400.276Z" transform="translate(-548.409 -395.191)" fill="#bc473b"/>
            <path id="Trazado_1005644" data-name="Trazado 1005644" d="M557.823,397.077a.178.178,0,0,0-.137-.209,29.766,29.766,0,0,1-6.99-2.92.177.177,0,0,0-.21.281.14.14,0,0,0,.033.025,30.145,30.145,0,0,0,7.094,2.959A.177.177,0,0,0,557.823,397.077Z" transform="translate(-549.287 -393.924)" fill="#bc473b"/>
          </g>
          <g id="Grupo_1192787" data-name="Grupo 1192787">
            <path id="Trazado_1005645" data-name="Trazado 1005645" d="M459.529,340.738l-22.592,9.914s-3.351-11.753-1.131-18.418,9.793-19.018,19-11.713C458.127,323.157,459.529,340.738,459.529,340.738Z" transform="translate(-435.045 -318.284)" fill="#fdc450"/>
            <path id="Trazado_1005646" data-name="Trazado 1005646" d="M445.654,338.35a66.926,66.926,0,0,0,16.176-3.874c-.195-.96-.405-1.9-.635-2.778a64.423,64.423,0,0,1-15.812,3.839A1.414,1.414,0,0,0,445.654,338.35Z" transform="translate(-438.998 -324.108)" fill="#ffac3e"/>
            <path id="Trazado_1005647" data-name="Trazado 1005647" d="M447.274,351.047a91.653,91.653,0,0,1-12.113,1.636c.058.949.15,1.892.265,2.8a98.1,98.1,0,0,0,12.715-1.748,87.932,87.932,0,0,0,11.147-3.22c-.092-.845-.206-1.821-.346-2.877A89.721,89.721,0,0,1,447.274,351.047Z" transform="translate(-435.096 -331.03)" fill="#ffac3e"/>
          </g>
        </g>
        <g id="Grupo_1192790" data-name="Grupo 1192790" transform="translate(11.758 45.787)">
          <path id="Trazado_1005648" data-name="Trazado 1005648" d="M388.488,392.361H445.01s-4.492-53.826-14.972-75.593c0,0-18.94-6.006-38.371,3.179Z" transform="translate(-388.488 -314.84)" fill="#fdc450"/>
          <g id="Grupo_1192789" data-name="Grupo 1192789" transform="translate(0.618 10.744)">
            <path id="Trazado_1005649" data-name="Trazado 1005649" d="M436.376,336.541a.374.374,0,0,0,.039-.015q-.41-1.379-.839-2.7c-18.418,4.985-41.716,1.406-41.951,1.37a1.33,1.33,0,0,0-.157-.009l-.126,2.825a135.584,135.584,0,0,0,19,1.317A93.808,93.808,0,0,0,436.376,336.541Z" transform="translate(-391.214 -333.828)" fill="#ffac3e"/>
            <path id="Trazado_1005650" data-name="Trazado 1005650" d="M439.113,359.172q-.3-1.4-.625-2.782a1.476,1.476,0,0,0-.27.092c-19.087,8.639-45.621,4.97-45.887,4.933-.046-.007-.092,0-.138-.007l-.125,2.823a110.752,110.752,0,0,0,14.179.857C415.741,365.087,428.373,363.959,439.113,359.172Z" transform="translate(-390.661 -343.624)" fill="#ffac3e"/>
            <path id="Trazado_1005651" data-name="Trazado 1005651" d="M410.669,397.9c9.135,0,21.266-1.083,31.3-5.7q-.22-1.406-.455-2.833a1.4,1.4,0,0,0-.376.111c-20.022,9.424-49.825,4.051-50.122,4a1.352,1.352,0,0,0-.2-.016l-.124,2.831a122.306,122.306,0,0,0,17.771,1.587Q409.533,397.9,410.669,397.9Z" transform="translate(-390.063 -357.944)" fill="#ffac3e"/>
            <path id="Trazado_1005652" data-name="Trazado 1005652" d="M439.388,422.418c-6.128,1.305-12.424,1.512-18.667,1.771-10.44.433-20.936.081-31.014-2.564l-.127,2.9c10.339,2.627,21.112,2.909,31.794,2.466a118.048,118.048,0,0,0,18.765-1.846c1.288-.263,2.568-.575,3.837-.913-.11-.918-.226-1.871-.349-2.85Q441.529,421.961,439.388,422.418Z" transform="translate(-389.58 -371.84)" fill="#ffac3e"/>
          </g>
          <path id="Trazado_1005653" data-name="Trazado 1005653" d="M476.892,393.841s-4.492-53.826-14.972-75.593" transform="translate(-420.37 -316.319)" fill="none" stroke="#ffac3e" stroke-linecap="round" stroke-linejoin="round" stroke-miterlimit="10" stroke-width="0.5"/>
        </g>
        <g id="Grupo_1192791" data-name="Grupo 1192791" transform="translate(30.716 34.408)">
          <path id="Trazado_1005654" data-name="Trazado 1005654" d="M423.023,294.728l-1.03,13.047s1.878,5.289,7.18,5.172,6.662-2.792,6.662-2.792l-2-13.929Z" transform="translate(-421.993 -294.728)" fill="#d85e4e"/>
          <path id="Trazado_1005655" data-name="Trazado 1005655" d="M423.69,294.728l-.161,2.478a20.718,20.718,0,0,0,12.018,6.3l-1.045-7.279Z" transform="translate(-422.66 -294.728)" fill="#bc473b"/>
        </g>
        <g id="Grupo_1192796" data-name="Grupo 1192796" transform="translate(26.605 10.734)">
          <path id="Trazado_1005656" data-name="Trazado 1005656" d="M440.3,252.889s-4.869,6.247-15.138,4.659c0,0,2.469,8.379-4.142,12.312A3.5,3.5,0,1,0,419.868,275v3.687s9.994,6.006,17.15,2.473C446.123,275.862,442.205,256.384,440.3,252.889Z" transform="translate(-414.727 -252.889)" fill="#d85e4e"/>
          <path id="Trazado_1005657" data-name="Trazado 1005657" d="M421.286,285.279a1.647,1.647,0,1,1-1.648-1.647A1.648,1.648,0,0,1,421.286,285.279Z" transform="translate(-416.145 -266.237)" fill="#bc473b"/>
          <g id="Grupo_1192795" data-name="Grupo 1192795" transform="translate(11.291 9.244)">
            <g id="Grupo_1192792" data-name="Grupo 1192792" transform="translate(9.88 0.895)">
              <path id="Trazado_1005658" data-name="Trazado 1005658" d="M452.976,279.977a.265.265,0,0,1-.054-.525,3.3,3.3,0,0,0,2.181-1.244,1.851,1.851,0,0,0,.25-1.419.319.319,0,0,0-.177-.235,3.342,3.342,0,0,0-2.047.416.264.264,0,0,1-.38-.209l-.6-5.66a.265.265,0,0,1,.527-.057l.567,5.3a3.179,3.179,0,0,1,2.171-.268.834.834,0,0,1,.462.6,2.381,2.381,0,0,1-.323,1.82,3.8,3.8,0,0,1-2.517,1.476A.3.3,0,0,1,452.976,279.977Z" transform="translate(-452.142 -270.808)" fill="#bc473b"/>
            </g>
            <path id="Trazado_1005659" data-name="Trazado 1005659" d="M438.882,279.376a2.1,2.1,0,1,1-2.1-2.1A2.1,2.1,0,0,1,438.882,279.376Z" transform="translate(-434.681 -272.721)" fill="#fa6060" opacity="0.4"/>
            <path id="Trazado_1005660" data-name="Trazado 1005660" d="M461.644,272.476a2.1,2.1,0,1,0,.085,3.405C461.752,274.737,461.718,273.593,461.644,272.476Z" transform="translate(-444.964 -270.48)" fill="#fa6060" opacity="0.4"/>
            <path id="Trazado_1005661" data-name="Trazado 1005661" d="M442.478,288.891c-.145.332.087,4.65,3.918,4.522,2.879-.1,3.807-4.64,3.213-4.681S442.76,288.245,442.478,288.891Z" transform="translate(-438.053 -277.613)" fill="#fff"/>
            <g id="Grupo_1192794" data-name="Grupo 1192794" transform="translate(2.177)">
              <g id="Grupo_1192793" data-name="Grupo 1192793" transform="translate(0 2.304)">
                <path id="Trazado_1005662" data-name="Trazado 1005662" d="M438.582,273.6c-.166-.158.085-.407.25-.25a1.779,1.779,0,0,0,.6.383.59.59,0,0,1,.389-.4c.44-.1.964.557,1.171,1.468s.014,1.731-.426,1.829-.967-.557-1.172-1.469a3.313,3.313,0,0,1-.068-.467,2.444,2.444,0,0,1-.54-.078.177.177,0,0,1,.094-.341,2.08,2.08,0,0,0,.437.066,2.023,2.023,0,0,1,.028-.27A2.19,2.19,0,0,1,438.582,273.6Z" transform="translate(-438.528 -273.298)"/>
              </g>
              <path id="Trazado_1005663" data-name="Trazado 1005663" d="M459.519,269.483c.113-.2-.2-.366-.312-.169a1.777,1.777,0,0,1-.466.54.606.606,0,0,0-.485-.27c-.451.033-.766.812-.7,1.744s.482,1.662.932,1.631.764-.811.7-1.742a3.591,3.591,0,0,0-.069-.467,2.506,2.506,0,0,0,.5-.23.177.177,0,0,0-.188-.3,2.021,2.021,0,0,1-.4.19,2.671,2.671,0,0,0-.1-.251A2.235,2.235,0,0,0,459.519,269.483Z" transform="translate(-446.785 -269.226)"/>
            </g>
          </g>
        </g>
        <g id="Grupo_1192798" data-name="Grupo 1192798" transform="translate(0 47.344)">
          <path id="Trazado_1005664" data-name="Trazado 1005664" d="M390.651,319.026c5.54,2.213-6.091,37.857,5.361,75.007H380.828s-9.378-19.7-9.963-37.149S382.016,315.578,390.651,319.026Z" transform="translate(-369.07 -318.068)" fill="#d85e4e"/>
          <g id="Grupo_1192797" data-name="Grupo 1192797">
            <path id="Trazado_1005665" data-name="Trazado 1005665" d="M391.024,348.351a29.557,29.557,0,0,1-23.316-4.875s6.02-30.046,23.175-25.4C390.883,318.079,394.753,325.627,391.024,348.351Z" transform="translate(-367.708 -317.59)" fill="#fdc450"/>
            <path id="Trazado_1005666" data-name="Trazado 1005666" d="M385.316,324.1a21.237,21.237,0,0,0-2.086,2.2,45.658,45.658,0,0,0,16.043,3.467c-.063-1.048-.151-1.993-.251-2.837A43.35,43.35,0,0,1,385.316,324.1Z" transform="translate(-374.447 -320.415)" fill="#ffac3e"/>
            <path id="Trazado_1005667" data-name="Trazado 1005667" d="M371.671,347.623a61.274,61.274,0,0,0,22.238,3.77c.094-.981.174-1.924.236-2.825a58.62,58.62,0,0,1-21.455-3.586C372.317,345.886,371.977,346.772,371.671,347.623Z" transform="translate(-369.429 -329.483)" fill="#ffac3e"/>
          </g>
        </g>
      </g>
      <g id="Grupo_1192800" data-name="Grupo 1192800" transform="translate(0 186.745)">
        <path id="Trazado_1005668" data-name="Trazado 1005668" d="M220.356,452.043H13.169c-.239,0-.432-.38-.432-.849s.193-.849.432-.849H220.356c.238,0,.432.38.432.849S220.594,452.043,220.356,452.043Z" transform="translate(-12.737 -450.345)"/>
      </g>
      <path id="Trazado_1005671" data-name="Trazado 1005671" d="M483.9,120.307H439.749a12.538,12.538,0,0,0-12.538,12.538V162.36A12.538,12.538,0,0,0,439.749,174.9h23.486l-5.894,20.427L472.735,174.9H483.9a12.539,12.539,0,0,0,12.538-12.539V132.845A12.538,12.538,0,0,0,483.9,120.307Z" transform="translate(-393.542 -120.307)" fill="#fff" opacity="0.4"/>
      <path id="Trazado_1005672" data-name="Trazado 1005672" d="M571.059,149.194H547.193a10.538,10.538,0,0,0-10.537,10.538v12.225a10.538,10.538,0,0,0,10.537,10.538h14.157l14.371,19.072-5.5-19.072h.84A10.538,10.538,0,0,0,581.6,171.957V159.732A10.537,10.537,0,0,0,571.059,149.194Z" transform="translate(-441.06 -132.849)" fill="#fff" opacity="0.4"/>
    </g>
  </g>
</svg>
