<svg xmlns="http://www.w3.org/2000/svg" width="84" height="84" viewBox="0 0 84 84">
  <g id="Grupo_1192723" data-name="Grupo 1192723" transform="translate(-205.503 -1149)">
    <rect id="Rectángulo_454995" data-name="Rectángulo 454995" width="84" height="84" rx="10" transform="translate(205.503 1149)" fill="#a4c2ff"/>
    <g id="Grupo_1193049" data-name="Grupo 1193049" transform="translate(184.966 1161.827)">
      <g id="Grupo_1193047" data-name="Grupo 1193047" transform="translate(38.51 0.848)">
        <path id="Trazado_1006080" data-name="Trazado 1006080" d="M69.178,255.975H48a2.849,2.849,0,0,0-2.849,2.849v20.387a4.114,4.114,0,0,0,5.245,3.956l1.293-.369a19.932,19.932,0,0,1,10.952,0l3.975,1.136a9.326,9.326,0,0,0,5.125,0c4.6-1.315,8.752-2.9,14.927-1.136l1.293.369a4.114,4.114,0,0,0,5.245-3.956V258.824a2.849,2.849,0,0,0-2.849-2.849Z" transform="translate(-45.151 -227.65)" fill="#ff6e80"/>
        <path id="Trazado_1006081" data-name="Trazado 1006081" d="M276.571,238.686v21.5a.8.8,0,0,1-1.046.658l-1.551-.369c-7.952-1.894-13.717-.4-18,.619V236.462l2.157-.539a33.568,33.568,0,0,1,16.281,0,2.849,2.849,0,0,1,2.158,2.764Z" transform="translate(-231.948 -208.995)" fill="#dbdafd"/>
        <path id="Trazado_1006082" data-name="Trazado 1006082" d="M75.255,238.686v21.5a.8.8,0,0,0,1.046.658l1.551-.369c7.952-1.894,13.717-.4,18,.619V236.462l-2.157-.539a33.568,33.568,0,0,0-16.281,0,2.849,2.849,0,0,0-2.158,2.764Z" transform="translate(-71.824 -208.995)" fill="#cacafd"/>
        <path id="Trazado_1006083" data-name="Trazado 1006083" d="M358.411,350.7l-3.727-1.065a1.14,1.14,0,0,1-.827-1.1v-5.352a1.14,1.14,0,0,1,1.453-1.1l3.727,1.065a1.14,1.14,0,0,1,.827,1.1v5.352A1.14,1.14,0,0,1,358.411,350.7Z" transform="translate(-318.675 -303.916)" fill="#cacafd"/>
        <path id="Trazado_1006084" data-name="Trazado 1006084" d="M191.828,27.762a15.422,15.422,0,0,1-6.145,12.332,8.213,8.213,0,0,0-3.294,6.546h-8.459c-1.278-2.726-2.945-6.213-5.122-10.673-10.137-20.774,11.917-23.032,11.917-23.032A15.455,15.455,0,0,1,191.828,27.762Z" transform="translate(-152.355 -12.308)" fill="#fcec78"/>
        <path id="Trazado_1006085" data-name="Trazado 1006085" d="M138.544,41.767h-8.661a8.214,8.214,0,0,0-3.294-6.546A15.449,15.449,0,0,1,140.234,8.062a15.443,15.443,0,0,0-4.984,27.159A8.214,8.214,0,0,1,138.544,41.767Z" transform="translate(-111.863 -7.435)" fill="#ffcf6b"/>
        <path id="Trazado_1006086" data-name="Trazado 1006086" d="M207.323,293.622h-9.439a2.145,2.145,0,0,0,0,4.29l4.72,1.372,4.72-1.372a2.145,2.145,0,0,0,0-4.29Z" transform="translate(-178.577 -261.007)" fill="#7a8fa5"/>
        <path id="Trazado_1006087" data-name="Trazado 1006087" d="M222.618,366.536a4.29,4.29,0,0,1-4.29-4.29v-.858h8.581v.858A4.29,4.29,0,0,1,222.618,366.536Z" transform="translate(-198.592 -321.049)" fill="#485c70"/>
        <path id="Trazado_1006088" data-name="Trazado 1006088" d="M207.322,335.559h-9.439a2.145,2.145,0,0,1,0-4.291h9.439a2.145,2.145,0,0,1,0,4.291Z" transform="translate(-178.576 -294.362)" fill="#5b778f"/>
      </g>
      <g id="Grupo_1193048" data-name="Grupo 1193048" transform="translate(37.656 0.001)">
        <path id="Trazado_1006089" data-name="Trazado 1006089" d="M83.714,28.319h-.466a3.7,3.7,0,0,0-2.066-1.372,34.483,34.483,0,0,0-5.569-.913,16.3,16.3,0,0,0-.338-19.9A.855.855,0,1,0,73.94,7.2a14.593,14.593,0,0,1-2.617,20.756,9.1,9.1,0,0,0-3.284,4.76c-.546-.148-.017-.1-10.221-.1a2.993,2.993,0,0,0-.782.1,9.11,9.11,0,0,0-3.284-4.761A14.592,14.592,0,1,1,71.463,4.758a.855.855,0,1,0,1.047-1.352c-10.523-8.149-26.1-.785-26.271,12.678a16.227,16.227,0,0,0,3.222,9.949,34.471,34.471,0,0,0-5.568.913,3.7,3.7,0,0,0-2.066,1.372H41.36a3.708,3.708,0,0,0-3.7,3.7V44.666a.855.855,0,0,0,1.709,0V32.023a2,2,0,0,1,1.754-1.978c-.052.388-.033,0-.033,21.992a1.646,1.646,0,0,0,2.1,1.489l1.551-.369c10.134-2.414,16.9.879,18,.619,3.766-.9,9.554-2.537,17.6-.619,1.525.363,2.138.646,2.926.149a1.487,1.487,0,0,0,.724-1.269c0-21.989.019-21.6-.033-21.992a2,2,0,0,1,1.754,1.978V52.409a3.234,3.234,0,0,1-1.3,2.6c-1.492,1.126-2.842.537-4.151.163-5.845-1.672-10.057-.432-14.131.766-3.612,1.063-4.388.822-7.191,0-6.561-1.927-9.29-2.147-15.419-.4a3.258,3.258,0,0,1-4.155-3.135V48.034a.855.855,0,1,0-1.709,0v4.375a4.967,4.967,0,0,0,6.334,4.779c10.307-2.945,13.455,1.158,18.547,1.158,4.381,0,9.114-3.855,17.254-1.527,4.865,1.39,7.627-1.071,7.627-4.409V32.023a3.708,3.708,0,0,0-3.7-3.7Zm-16.458,6a1.29,1.29,0,0,1,0,2.581H57.817a1.29,1.29,0,0,1,0-2.581Zm1.29,5.581a1.292,1.292,0,0,1-1.29,1.29H57.817a1.29,1.29,0,0,1,0-2.581h9.439A1.292,1.292,0,0,1,68.547,39.9Zm-6.01,5.581A3.446,3.446,0,0,1,59.209,42.9h6.657A3.442,3.442,0,0,1,62.537,45.481Zm-18.2,6.012-1.545.368c0-22.26-.132-21.578.238-22.266a1.993,1.993,0,0,1,1.273-.989,32.757,32.757,0,0,1,6.54-.944,16.363,16.363,0,0,0,1.873,1.655,7.387,7.387,0,0,1,2.8,4.371,2.985,2.985,0,0,0-.651,2.457,34.16,34.16,0,0,0-8.778.454.855.855,0,1,0,.307,1.682,32.472,32.472,0,0,1,9.169-.358,2.988,2.988,0,0,0-.729,1.652,34.187,34.187,0,0,0-8.747.457.855.855,0,0,0,.308,1.682,32.5,32.5,0,0,1,8.778-.4,3.006,3.006,0,0,0,2.286,1.562c.025.15.055.3.092.444a34.561,34.561,0,0,0-11.463.14.855.855,0,0,0,.307,1.682,32.8,32.8,0,0,1,12.1.081,5.147,5.147,0,0,0,3.186,1.893v4.743l-1.543-.368a34.26,34.26,0,0,0-15.8,0Zm37.938.366a35.177,35.177,0,0,0-17.343-.366l-1.543.368V47.118a5.126,5.126,0,0,0,2.486-1.164,30.589,30.589,0,0,1,4.426-.481.855.855,0,1,0-.088-1.707c-1.07.055-1.956.094-2.918.228a5.094,5.094,0,0,0,.316-1.116,3,3,0,0,0,1.737-5.123,2.993,2.993,0,0,0,.206-4.068,7.372,7.372,0,0,1,2.8-4.37,15.722,15.722,0,0,0,1.872-1.655,32.772,32.772,0,0,1,6.542.944,1.993,1.993,0,0,1,1.273.989c.371.688.238,0,.238,22.264Z" transform="translate(-37.656 -0.001)"/>
        <path id="Trazado_1006090" data-name="Trazado 1006090" d="M283.444,410.848l-.183.009a22.956,22.956,0,0,0-4.273.493.855.855,0,0,0,.354,1.672,22.258,22.258,0,0,1,4.189-.467.855.855,0,1,0-.088-1.707Z" transform="translate(-250.884 -364.024)"/>
        <path id="Trazado_1006091" data-name="Trazado 1006091" d="M119.385,412.826a34.5,34.5,0,0,0-13.19-.175.855.855,0,1,0,.307,1.682,32.774,32.774,0,0,1,12.53.166.855.855,0,1,0,.352-1.673Z" transform="translate(-97.763 -365.135)"/>
        <path id="Trazado_1006092" data-name="Trazado 1006092" d="M352.627,335.686l-3.727-1.065a1.994,1.994,0,0,0-2.542,1.918v5.352a2,2,0,0,0,1.446,1.918l3.727,1.065h0a1.994,1.994,0,0,0,2.542-1.918V337.6A2,2,0,0,0,352.627,335.686Zm-.376,7.5a.279.279,0,0,1-.25.046l-3.727-1.065a.286.286,0,0,1-.207-.274c0-5.578-.061-5.448.113-5.58s.045-.105,3.977,1.019a.286.286,0,0,1,.207.274C352.364,343.181,352.425,343.052,352.25,343.184Z" transform="translate(-311.176 -296.417)"/>
        <path id="Trazado_1006096" data-name="Trazado 1006096" d="M385.372,4.118,388.8,1.544A.855.855,0,1,0,387.778.176L384.346,2.75a.855.855,0,1,0,1.026,1.368Z" transform="translate(-344.532 -0.005)"/>
        <path id="Trazado_1006097" data-name="Trazado 1006097" d="M414.138,62.119a.855.855,0,0,0,1.006.671l4.29-.858a.855.855,0,0,0-.335-1.676l-4.29.858A.855.855,0,0,0,414.138,62.119Z" transform="translate(-371.217 -53.373)"/>
        <path id="Trazado_1006098" data-name="Trazado 1006098" d="M419.583,122.249l-4.29-1.716a.855.855,0,0,0-.635,1.587l4.29,1.716a.855.855,0,0,0,.635-1.587Z" transform="translate(-371.217 -106.742)"/>
        <path id="Trazado_1006099" data-name="Trazado 1006099" d="M83.169,1.543,86.6,4.117A.855.855,0,1,0,87.627,2.75L84.195.176a.855.855,0,0,0-1.026,1.368Z" transform="translate(-77.679 -0.004)"/>
        <path id="Trazado_1006100" data-name="Trazado 1006100" d="M45.867,61.931l4.29.858a.855.855,0,1,0,.335-1.676l-4.29-.858a.855.855,0,0,0-.335,1.676Z" transform="translate(-44.322 -53.373)"/>
        <path id="Trazado_1006101" data-name="Trazado 1006101" d="M50.007,120.535l-4.29,1.716a.855.855,0,1,0,.635,1.587l4.29-1.716a.855.855,0,1,0-.635-1.587Z" transform="translate(-44.321 -106.744)"/>
      </g>
    </g>
  </g>
</svg>
