<svg xmlns="http://www.w3.org/2000/svg" xmlns:xlink="http://www.w3.org/1999/xlink" width="96" height="96" viewBox="0 0 96 96">
  <defs>
    <clipPath id="clip-path">
      <rect id="Rect치ngulo_454535" data-name="Rect치ngulo 454535" width="25.231" height="26.467" fill="#e795ff"/>
    </clipPath>
  </defs>
  <g id="Grupo_1192981" data-name="Grupo 1192981" transform="translate(-1192.711 -1019)">
    <path id="Elipse_5729" data-name="Elipse 5729" d="M48,0A48,48,0,1,1,0,48,48,48,0,0,1,48,0Z" transform="translate(1192.711 1019)" fill="#cff878"/>
    <g id="Grupo_1192539" data-name="Grupo 1192539" transform="translate(1035 82)">
      <rect id="Rect치ngulo_455479" data-name="Rect치ngulo 455479" width="70" height="70" rx="35" transform="translate(170.711 950)" fill="#f8dfff"/>
      <g id="Grupo_1192527" data-name="Grupo 1192527" transform="translate(174.711 954)">
        <g id="Grupo_1176862" data-name="Grupo 1176862" clip-path="url(#clip-path)">
          <path id="Trazado_991676" data-name="Trazado 991676" d="M14.729,5.187,13.176.407a.589.589,0,0,0-1.12,0L10.5,5.187a.589.589,0,0,1-.906.294L5.53,2.527a.589.589,0,0,0-.906.658l1.553,4.78a.589.589,0,0,1-.56.771H.59A.589.589,0,0,0,.244,9.8l4.066,2.954a.589.589,0,0,1,0,.953L.244,16.664A.589.589,0,0,0,.59,17.73H5.617a.589.589,0,0,1,.56.771l-1.553,4.78a.589.589,0,0,0,.906.659L9.6,20.985a.589.589,0,0,1,.906.294l1.553,4.78a.589.589,0,0,0,1.12,0l1.553-4.78a.589.589,0,0,1,.906-.294L19.7,23.94a.589.589,0,0,0,.906-.658L19.055,18.5a.589.589,0,0,1,.56-.771h5.026a.589.589,0,0,0,.346-1.065L20.922,13.71a.589.589,0,0,1,0-.953L24.988,9.8a.589.589,0,0,0-.346-1.065H19.615a.589.589,0,0,1-.56-.771l1.553-4.78a.589.589,0,0,0-.906-.658L15.636,5.482a.589.589,0,0,1-.906-.294" transform="translate(0 0)" fill="#e795ff"/>
        </g>
      </g>
      <g id="Grupo_1193056" data-name="Grupo 1193056" transform="translate(177.628 956.917)">
        <g id="Grupo_1193054" data-name="Grupo 1193054" transform="translate(0.878 0.878)">
          <path id="Trazado_1006102" data-name="Trazado 1006102" d="M60.765,23.54H9.646A1.646,1.646,0,0,1,8,21.894V9.646A1.646,1.646,0,0,1,9.646,8H60.765a1.646,1.646,0,0,1,1.646,1.646V21.894A1.646,1.646,0,0,1,60.765,23.54Z" transform="translate(-8 -8)" fill="#f9da86"/>
          <path id="Trazado_1006103" data-name="Trazado 1006103" d="M60.765,118.3H9.646A1.646,1.646,0,0,1,8,116.658v1.975a1.646,1.646,0,0,0,1.646,1.646H60.765a1.646,1.646,0,0,0,1.646-1.646v-1.975A1.646,1.646,0,0,1,60.765,118.3Z" transform="translate(-8 -104.738)" fill="#f1c976"/>
          <path id="Trazado_1006104" data-name="Trazado 1006104" d="M152.2,52.716l5.1-3.6-5.1-3.6Z" transform="translate(-136.383 -41.401)" fill="#fc686c"/>
          <path id="Trazado_1006105" data-name="Trazado 1006105" d="M60.765,200.708H9.646A1.646,1.646,0,0,1,8,199.062V186.814a1.646,1.646,0,0,1,1.646-1.646H60.765a1.646,1.646,0,0,1,1.646,1.646v12.248A1.646,1.646,0,0,1,60.765,200.708Z" transform="translate(-8 -165.733)" fill="#b7e598"/>
          <path id="Trazado_1006106" data-name="Trazado 1006106" d="M60.765,295.472H9.646A1.646,1.646,0,0,1,8,293.826V295.8a1.646,1.646,0,0,0,1.646,1.646H60.765a1.646,1.646,0,0,0,1.646-1.646v-1.975A1.646,1.646,0,0,1,60.765,295.472Z" transform="translate(-8 -262.471)" fill="#9ed4a4"/>
          <path id="Trazado_1006107" data-name="Trazado 1006107" d="M152.2,229.885l5.1-3.6-5.1-3.6Z" transform="translate(-136.383 -199.135)" fill="#fc686c"/>
          <path id="Trazado_1006108" data-name="Trazado 1006108" d="M60.765,377.877H9.646A1.646,1.646,0,0,1,8,376.231V363.983a1.646,1.646,0,0,1,1.646-1.646H60.765a1.646,1.646,0,0,1,1.646,1.646v12.248A1.646,1.646,0,0,1,60.765,377.877Z" transform="translate(-8 -323.466)" fill="#b7effe"/>
          <path id="Trazado_1006109" data-name="Trazado 1006109" d="M60.765,472.64H9.646A1.646,1.646,0,0,1,8,470.994v1.975a1.646,1.646,0,0,0,1.646,1.646H60.765a1.646,1.646,0,0,0,1.646-1.646v-1.975A1.646,1.646,0,0,1,60.765,472.64Z" transform="translate(-8 -420.204)" fill="#a0e9f3"/>
          <path id="Trazado_1006110" data-name="Trazado 1006110" d="M152.2,407.053l5.1-3.6-5.1-3.6Z" transform="translate(-136.383 -356.868)" fill="#fc686c"/>
          <g id="Grupo_1193053" data-name="Grupo 1193053" transform="translate(15.819 6.728)">
            <path id="Trazado_1006111" data-name="Trazado 1006111" d="M152.2,71.942v1.975l5.1-3.6-1.4-.987Z" transform="translate(-152.202 -69.33)" fill="#ec6267"/>
            <path id="Trazado_1006112" data-name="Trazado 1006112" d="M152.2,249.111v1.975l5.1-3.6-1.4-.987Z" transform="translate(-152.202 -227.064)" fill="#ec6267"/>
            <path id="Trazado_1006113" data-name="Trazado 1006113" d="M152.2,426.279v1.975l5.1-3.6-1.4-.987Z" transform="translate(-152.202 -384.797)" fill="#ec6267"/>
          </g>
        </g>
        <g id="Grupo_1193055" data-name="Grupo 1193055" transform="translate(0)">
          <path id="Trazado_1006114" data-name="Trazado 1006114" d="M53.692,0H44.976a.824.824,0,1,0,0,1.649h8.716a.826.826,0,0,1,.825.825V14.746a.826.826,0,0,1-.825.825H2.474a.826.826,0,0,1-.825-.825V2.474a.826.826,0,0,1,.825-.825h39.2a.824.824,0,1,0,0-1.649H2.474A2.477,2.477,0,0,0,0,2.474V14.746a2.477,2.477,0,0,0,2.474,2.474H53.692a2.477,2.477,0,0,0,2.474-2.474V2.474A2.477,2.477,0,0,0,53.692,0Z" transform="translate(0)"/>
          <path id="Trazado_1006115" data-name="Trazado 1006115" d="M145.784,37.741a.824.824,0,0,0-1.3.674v7.213a.824.824,0,0,0,1.3.674L150.9,42.7a.824.824,0,0,0,0-1.347Zm.349,6.3V40.006l2.857,2.016Z" transform="translate(-128.634 -33.467)"/>
          <path id="Trazado_1006116" data-name="Trazado 1006116" d="M58.844,47.006a.824.824,0,0,0,.824-.824V39.329a.824.824,0,0,0-.824-.824H57.38a.824.824,0,1,0,0,1.649h.639v6.028A.824.824,0,0,0,58.844,47.006Z" transform="translate(-50.352 -34.281)"/>
          <path id="Trazado_1006117" data-name="Trazado 1006117" d="M270.613,50.507a.824.824,0,0,0-.824-.824H248.38a.824.824,0,0,0,0,1.649h21.408A.824.824,0,0,0,270.613,50.507Z" transform="translate(-220.399 -44.233)"/>
          <path id="Trazado_1006118" data-name="Trazado 1006118" d="M248.38,91.252a.824.824,0,0,0,0,1.649h11.888a.824.824,0,0,0,0-1.649Z" transform="translate(-220.399 -81.242)"/>
          <path id="Trazado_1006119" data-name="Trazado 1006119" d="M53.692,177.515H13.8a.824.824,0,1,0,0,1.649H53.692a.826.826,0,0,1,.825.825v12.272a.826.826,0,0,1-.825.825H2.474a.826.826,0,0,1-.825-.825V179.989a.826.826,0,0,1,.825-.825H10.5a.824.824,0,1,0,0-1.649H2.474A2.477,2.477,0,0,0,0,179.989v12.272a2.477,2.477,0,0,0,2.474,2.474H53.692a2.477,2.477,0,0,0,2.474-2.474V179.989A2.477,2.477,0,0,0,53.692,177.515Z" transform="translate(0 -158.042)"/>
          <path id="Trazado_1006120" data-name="Trazado 1006120" d="M145.309,223.969a.823.823,0,0,0,.475-.151l5.112-3.607a.824.824,0,0,0,0-1.347l-5.112-3.607a.824.824,0,0,0-1.3.674v7.213a.824.824,0,0,0,.824.824Zm.824-6.447,2.857,2.016-2.857,2.016Z" transform="translate(-128.635 -191.51)"/>
          <path id="Trazado_1006121" data-name="Trazado 1006121" d="M48.938,218.964c-1.084,1.55-1.731,2.4-2.078,2.853-.426.558-.64.838-.5,1.292a.855.855,0,0,0,.556.563,5.555,5.555,0,0,0,1.535.071c.524,0,1.241-.005,2.225-.018a.824.824,0,0,0-.021-1.649c-.655.008-1.349.014-1.937.015.376-.5.889-1.208,1.571-2.183a5.255,5.255,0,0,0,.855-1.774c.006-.027.011-.054.015-.082l.034-.265a.83.83,0,0,0,.007-.1,2.576,2.576,0,0,0-5.1-.5.824.824,0,0,0,1.618.318.928.928,0,0,1,1.837.137l-.02.16A3.759,3.759,0,0,1,48.938,218.964Z" transform="translate(-41.025 -191.509)"/>
          <path id="Trazado_1006122" data-name="Trazado 1006122" d="M248.38,228.847h21.408a.824.824,0,1,0,0-1.649H248.38a.824.824,0,0,0,0,1.649Z" transform="translate(-220.399 -202.275)"/>
          <path id="Trazado_1006123" data-name="Trazado 1006123" d="M248.38,270.416h11.888a.824.824,0,0,0,0-1.649H248.38a.824.824,0,1,0,0,1.649Z" transform="translate(-220.399 -239.283)"/>
          <path id="Trazado_1006124" data-name="Trazado 1006124" d="M53.692,355.029H45.06a.824.824,0,1,0,0,1.649h8.632a.826.826,0,0,1,.825.825v12.272a.826.826,0,0,1-.825.825H2.474a.826.826,0,0,1-.825-.825V357.5a.826.826,0,0,1,.825-.825H41.763a.824.824,0,0,0,0-1.649H2.474A2.477,2.477,0,0,0,0,357.5v12.272a2.477,2.477,0,0,0,2.474,2.474H53.692a2.477,2.477,0,0,0,2.474-2.474V357.5A2.477,2.477,0,0,0,53.692,355.029Z" transform="translate(0 -316.083)"/>
          <path id="Trazado_1006125" data-name="Trazado 1006125" d="M145.784,392.772a.824.824,0,0,0-1.3.674v7.213a.824.824,0,0,0,1.3.674l5.112-3.607a.824.824,0,0,0,0-1.347Zm.349,6.3v-4.032l2.857,2.016Z" transform="translate(-128.634 -349.551)"/>
          <path id="Trazado_1006126" data-name="Trazado 1006126" d="M270.613,405.537a.824.824,0,0,0-.824-.824H248.38a.824.824,0,0,0,0,1.649h21.408A.824.824,0,0,0,270.613,405.537Z" transform="translate(-220.399 -360.316)"/>
          <path id="Trazado_1006127" data-name="Trazado 1006127" d="M248.38,446.283a.824.824,0,1,0,0,1.649h11.888a.824.824,0,1,0,0-1.649Z" transform="translate(-220.399 -397.326)"/>
          <path id="Trazado_1006128" data-name="Trazado 1006128" d="M49.83,393.407a2.581,2.581,0,0,0-2.528,2.079.824.824,0,1,0,1.618.318.928.928,0,1,1,.91,1.11.824.824,0,0,0,0,1.649.929.929,0,1,1-.919,1.06.953.953,0,0,1-.009-.131.824.824,0,1,0-1.649,0,2.576,2.576,0,1,0,5.153,0,2.572,2.572,0,0,1,0-3.507A2.58,2.58,0,0,0,49.83,393.407Z" transform="translate(-42.069 -350.251)"/>
        </g>
      </g>
    </g>
  </g>
</svg>
