<svg xmlns="http://www.w3.org/2000/svg" xmlns:xlink="http://www.w3.org/1999/xlink" width="96" height="96" viewBox="0 0 96 96">
  <defs>
    <clipPath id="clip-path">
      <rect id="Rect치ngulo_454535" data-name="Rect치ngulo 454535" width="25.231" height="26.467" fill="#e795ff"/>
    </clipPath>
  </defs>
  <g id="Grupo_1193051" data-name="Grupo 1193051" transform="translate(-1192.711 -1019)">
    <path id="Elipse_5729" data-name="Elipse 5729" d="M48,0A48,48,0,1,1,0,48,48,48,0,0,1,48,0Z" transform="translate(1192.711 1019)" fill="#cff878"/>
    <g id="Grupo_1192539" data-name="Grupo 1192539" transform="translate(1035 82)">
      <rect id="Rect치ngulo_455479" data-name="Rect치ngulo 455479" width="70" height="70" rx="35" transform="translate(170.711 950)" fill="#f8dfff"/>
      <g id="Grupo_1192527" data-name="Grupo 1192527" transform="translate(174.711 954)">
        <g id="Grupo_1176862" data-name="Grupo 1176862" clip-path="url(#clip-path)">
          <path id="Trazado_991676" data-name="Trazado 991676" d="M14.729,5.187,13.176.407a.589.589,0,0,0-1.12,0L10.5,5.187a.589.589,0,0,1-.906.294L5.53,2.527a.589.589,0,0,0-.906.658l1.553,4.78a.589.589,0,0,1-.56.771H.59A.589.589,0,0,0,.244,9.8l4.066,2.954a.589.589,0,0,1,0,.953L.244,16.664A.589.589,0,0,0,.59,17.73H5.617a.589.589,0,0,1,.56.771l-1.553,4.78a.589.589,0,0,0,.906.659L9.6,20.985a.589.589,0,0,1,.906.294l1.553,4.78a.589.589,0,0,0,1.12,0l1.553-4.78a.589.589,0,0,1,.906-.294L19.7,23.94a.589.589,0,0,0,.906-.658L19.055,18.5a.589.589,0,0,1,.56-.771h5.026a.589.589,0,0,0,.346-1.065L20.922,13.71a.589.589,0,0,1,0-.953L24.988,9.8a.589.589,0,0,0-.346-1.065H19.615a.589.589,0,0,1-.56-.771l1.553-4.78a.589.589,0,0,0-.906-.658L15.636,5.482a.589.589,0,0,1-.906-.294" transform="translate(0 0)" fill="#e795ff"/>
        </g>
      </g>
      <g id="Grupo_1193082" data-name="Grupo 1193082" transform="translate(179.85 959.132)">
        <g id="Grupo_1193077" data-name="Grupo 1193077" transform="translate(1.014 1.023)">
          <g id="Grupo_1193070" data-name="Grupo 1193070">
            <path id="Trazado_1006141" data-name="Trazado 1006141" d="M10,10.009V59.7H49.753V17.95l-7.941-7.941Z" transform="translate(-10 -10.009)" fill="#fff"/>
          </g>
          <g id="Grupo_1193071" data-name="Grupo 1193071" transform="translate(31.812)">
            <path id="Trazado_1006142" data-name="Trazado 1006142" d="M323.693,10.009l7.941,7.941h-7.941Z" transform="translate(-323.693 -10.009)" fill="#f7b073"/>
          </g>
          <g id="Grupo_1193076" data-name="Grupo 1193076" transform="translate(28.598 26.209)">
            <g id="Grupo_1193075" data-name="Grupo 1193075">
              <g id="Grupo_1193073" data-name="Grupo 1193073">
                <path id="Trazado_1006144" data-name="Trazado 1006144" d="M300.088,269.868l-7.7,13.343a2.839,2.839,0,0,0,2.458,4.258h15.408a2.839,2.839,0,0,0,2.458-4.258l-7.7-13.343A2.839,2.839,0,0,0,300.088,269.868Z" transform="translate(-292 -268.448)" fill="#fdcb50"/>
              </g>
              <g id="Grupo_1193074" data-name="Grupo 1193074" transform="translate(0 0.001)">
                <path id="Trazado_1006145" data-name="Trazado 1006145" d="M302.457,274.814a14.013,14.013,0,0,1,1.367-6.057,2.84,2.84,0,0,0-3.736,1.119l-7.7,13.343a2.839,2.839,0,0,0,2.458,4.258h15.408c.044,0,.087,0,.131,0A14.069,14.069,0,0,1,302.457,274.814Z" transform="translate(-292 -268.458)" fill="#fd8f01"/>
              </g>
            </g>
          </g>
        </g>
        <g id="Grupo_1193080" data-name="Grupo 1193080" transform="translate(0 0.009)">
          <g id="Grupo_1193078" data-name="Grupo 1193078" transform="translate(5.679 7.809)">
            <path id="Trazado_1006146" data-name="Trazado 1006146" d="M59.448,83.9A3.448,3.448,0,1,0,56,80.457v3.821a4.736,4.736,0,0,0,3.1,4.433,1.014,1.014,0,1,0,.7-1.9,2.7,2.7,0,0,1-1.768-2.528V83.6A3.427,3.427,0,0,0,59.448,83.9Zm0-4.868a1.42,1.42,0,1,1-1.42,1.42A1.421,1.421,0,0,1,59.448,79.037Z" transform="translate(-56 -77.009)" fill="#fd8f01"/>
            <path id="Trazado_1006147" data-name="Trazado 1006147" d="M155.448,83.9A3.448,3.448,0,1,0,152,80.457v3.821a4.736,4.736,0,0,0,3.1,4.433,1.014,1.014,0,1,0,.7-1.9,2.7,2.7,0,0,1-1.768-2.528V83.6A3.427,3.427,0,0,0,155.448,83.9Zm0-4.868a1.42,1.42,0,1,1-1.42,1.42A1.421,1.421,0,0,1,155.448,79.037Z" transform="translate(-142.265 -77.009)" fill="#fd8f01"/>
          </g>
          <path id="Trazado_1006148" data-name="Trazado 1006148" d="M51.2,41.487,43.5,28.144a3.827,3.827,0,0,0-1.714-1.572V8.964a1.014,1.014,0,0,0-.3-.717L33.543.306a1.014,1.014,0,0,0-.717-.3H1.014A1.014,1.014,0,0,0,0,1.023V50.715a1.014,1.014,0,0,0,1.014,1.014H40.767a1.014,1.014,0,0,0,1.014-1.014V47.267h6.081A3.853,3.853,0,0,0,51.2,41.487ZM39.753,49.7H2.028V2.037H32.406l7.347,7.347V26.24a3.806,3.806,0,0,0-2.931,1.9l-7.7,13.343a3.853,3.853,0,0,0,3.337,5.779h7.3Zm9.69-5.374a1.806,1.806,0,0,1-1.58.912H32.455a1.825,1.825,0,0,1-1.58-2.737l7.7-13.343a1.825,1.825,0,0,1,3.16,0l7.7,13.343A1.806,1.806,0,0,1,49.443,44.326Z" transform="translate(0 -0.009)"/>
          <g id="Grupo_1193079" data-name="Grupo 1193079" transform="translate(39.145 32.459)">
            <path id="Trazado_1006149" data-name="Trazado 1006149" d="M387.015,320.086A1.014,1.014,0,0,0,386,321.1v3.681a1.014,1.014,0,0,0,2.028,0V321.1A1.014,1.014,0,0,0,387.015,320.086Z" transform="translate(-386.001 -320.086)" fill="#fff"/>
            <circle id="Elipse_13807" data-name="Elipse 13807" cx="1.014" cy="1.014" r="1.014" transform="translate(0 8.225)" fill="#fff"/>
          </g>
        </g>
        <g id="Grupo_1193081" data-name="Grupo 1193081" transform="translate(5.676 12.685)">
          <path id="Trazado_1006150" data-name="Trazado 1006150" d="M181.558,221.009H164.014a1.014,1.014,0,1,0,0,2.028h17.544a1.014,1.014,0,0,0,0-2.028Z" transform="translate(-152.146 -211.274)"/>
          <path id="Trazado_1006151" data-name="Trazado 1006151" d="M57.014,223.037h4.868a1.014,1.014,0,0,0,0-2.028H57.014a1.014,1.014,0,0,0,0,2.028Z" transform="translate(-55.997 -211.274)"/>
          <path id="Trazado_1006152" data-name="Trazado 1006152" d="M276.466,269.009h-4.23a1.014,1.014,0,0,0,0,2.028h4.23a1.014,1.014,0,0,0,0-2.028Z" transform="translate(-249.393 -254.406)"/>
          <path id="Trazado_1006153" data-name="Trazado 1006153" d="M57.014,271.037h17.04a1.014,1.014,0,1,0,0-2.028H57.014a1.014,1.014,0,0,0,0,2.028Z" transform="translate(-55.997 -254.406)"/>
          <path id="Trazado_1006154" data-name="Trazado 1006154" d="M177.154,317.009H164.938a1.014,1.014,0,1,0,0,2.028h12.216a1.014,1.014,0,0,0,0-2.028Z" transform="translate(-152.976 -297.538)"/>
          <path id="Trazado_1006155" data-name="Trazado 1006155" d="M57.014,319.037H62.7a1.014,1.014,0,0,0,0-2.028H57.014a1.014,1.014,0,0,0,0,2.028Z" transform="translate(-55.997 -297.538)"/>
          <path id="Trazado_1006156" data-name="Trazado 1006156" d="M100.286,413.687a1.014,1.014,0,1,0,1.873,0A1.021,1.021,0,0,0,100.286,413.687Z" transform="translate(-95.719 -383.855)" fill="#6864f7"/>
          <path id="Trazado_1006157" data-name="Trazado 1006157" d="M144.515,413.689a1.014,1.014,0,1,0,1.873,0A1.021,1.021,0,0,0,144.515,413.689Z" transform="translate(-135.463 -383.856)" fill="#6864f7"/>
          <path id="Trazado_1006158" data-name="Trazado 1006158" d="M77.449,365.009H57.014a1.014,1.014,0,1,0,0,2.028H77.449a1.014,1.014,0,1,0,0-2.028Z" transform="translate(-55.997 -340.67)"/>
          <path id="Trazado_1006159" data-name="Trazado 1006159" d="M246.014,127.037h9.228a1.014,1.014,0,1,0,0-2.028h-9.228a1.014,1.014,0,0,0,0,2.028Z" transform="translate(-225.83 -125.009)"/>
          <path id="Trazado_1006160" data-name="Trazado 1006160" d="M255.243,173.009h-9.228a1.014,1.014,0,0,0,0,2.028h9.228a1.014,1.014,0,1,0,0-2.028Z" transform="translate(-225.83 -168.141)"/>
          <path id="Trazado_1006161" data-name="Trazado 1006161" d="M56.047,413.687a1.014,1.014,0,1,0,1.873,0A1.021,1.021,0,0,0,56.047,413.687Z" transform="translate(-55.967 -383.855)" fill="#6864f7"/>
        </g>
      </g>
    </g>
  </g>
</svg>
