<svg xmlns="http://www.w3.org/2000/svg" width="150" height="150" viewBox="0 0 150 150">
  <g id="Grupo_1177378" data-name="Grupo 1177378" transform="translate(-72.746 -7992)">
    <g id="Elipse_13628" data-name="Elipse 13628" transform="translate(72.746 7992)" fill="#fff7e2" stroke="#cff878" stroke-width="6">
      <circle cx="75" cy="75" r="75" stroke="none"/>
      <circle cx="75" cy="75" r="72" fill="none"/>
    </g>
    <g id="Grupo_1192458" data-name="Grupo 1192458" transform="translate(99.541 8024.602)">
      <g id="Grupo_1192456" data-name="Grupo 1192456" transform="translate(6.963 0)">
        <path id="Trazado_1004968" data-name="Trazado 1004968" d="M221.512,460.583V462.7a5.068,5.068,0,0,1-.03.553,4.982,4.982,0,0,1-4.95,4.427H208.9a4.982,4.982,0,0,1-4.95-4.427,5.068,5.068,0,0,1-.03-.553v-2.116a5.286,5.286,0,0,0,2.158.456h13.28A5.286,5.286,0,0,0,221.512,460.583Z" transform="translate(-171.224 -384.128)" fill="#50758d"/>
        <g id="Grupo_1192455" data-name="Grupo 1192455" transform="translate(0)">
          <path id="Trazado_1004969" data-name="Trazado 1004969" d="M249.162,10.883a1.245,1.245,0,0,1-1.245-1.245V1.245a1.245,1.245,0,1,1,2.49,0V9.638A1.245,1.245,0,0,1,249.162,10.883Z" transform="translate(-207.92 0)" fill="#ffe7c9"/>
          <path id="Trazado_1004970" data-name="Trazado 1004970" d="M84.716,79a1.242,1.242,0,0,1-.88-.365L77.9,72.7a1.245,1.245,0,0,1,1.761-1.761L85.6,76.874A1.245,1.245,0,0,1,84.716,79Z" transform="translate(-65.821 -58.859)" fill="#ffe7c9"/>
          <path id="Trazado_1004971" data-name="Trazado 1004971" d="M16.6,243.443H8.208a1.245,1.245,0,1,1,0-2.49H16.6a1.245,1.245,0,0,1,0,2.49Z" transform="translate(-6.963 -200.956)" fill="#ffe7c9"/>
          <path id="Trazado_1004972" data-name="Trazado 1004972" d="M78.781,384a1.245,1.245,0,0,1-.88-2.125l5.935-5.935a1.245,1.245,0,0,1,1.761,1.761l-5.935,5.935A1.242,1.242,0,0,1,78.781,384Z" transform="translate(-65.821 -313.236)" fill="#ffe7c9"/>
          <path id="Trazado_1004973" data-name="Trazado 1004973" d="M389.721,384a1.242,1.242,0,0,1-.88-.365l-5.935-5.935a1.245,1.245,0,0,1,1.761-1.761l5.935,5.935a1.245,1.245,0,0,1-.88,2.125Z" transform="translate(-320.197 -313.236)" fill="#ffe7c9"/>
          <path id="Trazado_1004974" data-name="Trazado 1004974" d="M447.945,243.443h-8.393a1.245,1.245,0,1,1,0-2.49h8.393a1.245,1.245,0,0,1,0,2.49Z" transform="translate(-366.706 -200.956)" fill="#ffe7c9"/>
          <path id="Trazado_1004975" data-name="Trazado 1004975" d="M383.786,79a1.245,1.245,0,0,1-.88-2.125l5.935-5.935A1.245,1.245,0,1,1,390.6,72.7l-5.935,5.935A1.241,1.241,0,0,1,383.786,79Z" transform="translate(-320.197 -58.859)" fill="#ffe7c9"/>
        </g>
        <path id="Trazado_1004976" data-name="Trazado 1004976" d="M212.715,453.333s-8.139,1.5-8.8,1.2v2.116a5.07,5.07,0,0,0,.03.553,4.982,4.982,0,0,0,4.95,4.427h2.158a4.983,4.983,0,0,1-4.694-3.313.5.5,0,0,1,.468-.67h12.526a5.285,5.285,0,0,0,2.128-.443,5.07,5.07,0,0,0,.03-.553v-2.116C220.854,454.83,212.715,453.333,212.715,453.333Z" transform="translate(-171.224 -378.082)" fill="#2b597f"/>
        <path id="Trazado_1004977" data-name="Trazado 1004977" d="M208.353,382.961a5.307,5.307,0,0,1-5.312,5.312h-13.28a5.307,5.307,0,0,1-5.312-5.312s-.078-7.759-.093-7.961v-.007l12.045-1.66,11.907,1.66Z" transform="translate(-154.91 -311.361)" fill="#50758d"/>
        <path id="Trazado_1004978" data-name="Trazado 1004978" d="M193.912,396.613h-4.15a5.307,5.307,0,0,1-5.312-5.312s-.078-7.759-.093-7.961v-.007h4.15v.007c.015.2.093,7.961.093,7.961a5.307,5.307,0,0,0,5.312,5.312Z" transform="translate(-154.91 -319.702)" fill="#2b597f"/>
        <path id="Trazado_1004979" data-name="Trazado 1004979" d="M301.395,418.323h-4.233a1.245,1.245,0,1,1,0-2.49h4.22l.007,1.245Z" transform="translate(-247.952 -346.807)" fill="#2b597f"/>
        <path id="Trazado_1004980" data-name="Trazado 1004980" d="M199.872,417.078a1.245,1.245,0,0,1-1.245,1.245H184.765l-.028-2.49h13.891A1.245,1.245,0,0,1,199.872,417.078Z" transform="translate(-155.227 -346.807)" fill="#2b597f"/>
        <path id="Trazado_1004981" data-name="Trazado 1004981" d="M138.109,90.488h0c-12.82-.2-23.6,10.976-23.37,23.7a23.811,23.811,0,0,0,6.738,16.658c2.455,2.525,4.58,4.859,4.816,8.248l23.951.04c.134-3.489,2.118-5.846,4.59-8.428a23.808,23.808,0,0,0,6.6-16.518A23.527,23.527,0,0,0,138.109,90.488Z" transform="translate(-96.845 -75.465)" fill="#fad207"/>
        <path id="Trazado_1004982" data-name="Trazado 1004982" d="M150.242,139.132v.007l-23.951-.04c-.236-3.39-2.36-5.724-4.816-8.248a23.811,23.811,0,0,1-6.738-16.658c-.231-12.727,10.551-23.9,23.37-23.7.647,0,1.288.028,1.922.08a23.828,23.828,0,0,0-14.405,40.28c2.455,2.525,4.58,4.859,4.816,8.248Z" transform="translate(-96.845 -75.467)" fill="#faa515"/>
        <path id="Trazado_1004983" data-name="Trazado 1004983" d="M195.12,211.672a2.738,2.738,0,0,1-2.061,1.057l-.1,0a2.739,2.739,0,0,1-2.032-.9l-7.8-8.632a2.739,2.739,0,0,1,4.064-3.673l5.611,6.207,8.952-11.529a2.739,2.739,0,1,1,4.326,3.36Z" transform="translate(-153.292 -161.083)" fill="#faa515"/>
      </g>
      <g id="Grupo_1192457" data-name="Grupo 1192457" transform="translate(6.963 0)">
        <path id="Trazado_1004984" data-name="Trazado 1004984" d="M249.162,10.883a1.245,1.245,0,0,0,1.245-1.245V1.245a1.245,1.245,0,1,0-2.49,0V9.638A1.245,1.245,0,0,0,249.162,10.883Z" transform="translate(-207.92 0)"/>
        <path id="Trazado_1004985" data-name="Trazado 1004985" d="M83.836,78.634A1.245,1.245,0,0,0,85.6,76.874l-5.935-5.935A1.245,1.245,0,0,0,77.9,72.7Z" transform="translate(-65.821 -58.859)"/>
        <path id="Trazado_1004986" data-name="Trazado 1004986" d="M16.6,240.953H8.208a1.245,1.245,0,1,0,0,2.49H16.6a1.245,1.245,0,0,0,0-2.49Z" transform="translate(-6.963 -200.956)"/>
        <path id="Trazado_1004987" data-name="Trazado 1004987" d="M83.836,375.944,77.9,381.879a1.245,1.245,0,0,0,1.761,1.761L85.6,377.7a1.245,1.245,0,0,0-1.761-1.761Z" transform="translate(-65.821 -313.235)"/>
        <path id="Trazado_1004988" data-name="Trazado 1004988" d="M384.668,375.944a1.245,1.245,0,1,0-1.761,1.761l5.935,5.935a1.245,1.245,0,1,0,1.761-1.761Z" transform="translate(-320.198 -313.235)"/>
        <path id="Trazado_1004989" data-name="Trazado 1004989" d="M447.945,240.953h-8.393a1.245,1.245,0,1,0,0,2.49h8.393a1.245,1.245,0,0,0,0-2.49Z" transform="translate(-366.706 -200.956)"/>
        <path id="Trazado_1004990" data-name="Trazado 1004990" d="M388.842,70.939l-5.935,5.935a1.245,1.245,0,1,0,1.761,1.761L390.6,72.7a1.245,1.245,0,1,0-1.761-1.761Z" transform="translate(-320.198 -58.859)"/>
        <path id="Trazado_1004991" data-name="Trazado 1004991" d="M156.443,107.948A24.8,24.8,0,0,0,131.849,83a24.255,24.255,0,0,0-13.333,3.981,24.9,24.9,0,0,0-8.909,10.309,1.245,1.245,0,0,0,2.257,1.053,22.053,22.053,0,0,1,42.091,9.605,22.527,22.527,0,0,1-6.258,15.658c-2.326,2.429-4.306,4.751-4.816,8H121.144c-.642-3.377-2.945-5.745-5.015-7.872a22.508,22.508,0,0,1-6.385-15.789,23,23,0,0,1,.418-4.368,1.245,1.245,0,1,0-2.444-.474,25.482,25.482,0,0,0-.463,4.842,24.984,24.984,0,0,0,7.09,17.525c2.626,2.7,4.485,4.852,4.485,8.009,0,.011,0,.022,0,.033l.071,7.306a6.559,6.559,0,0,0,3.154,5.6v1.369a6.232,6.232,0,0,0,6.225,6.225h7.636a6.232,6.232,0,0,0,6.225-6.225v-1.369a6.559,6.559,0,0,0,3.154-5.6s-.009-8.138-.025-8.219c.236-2.885,1.985-4.936,4.224-7.275a25.006,25.006,0,0,0,6.95-17.38Zm-16.792,39.846a3.739,3.739,0,0,1-3.735,3.735H128.28a3.739,3.739,0,0,1-3.735-3.735v-.48a6.57,6.57,0,0,0,.913.065h13.28a6.6,6.6,0,0,0,.913-.065Zm-.913-2.9h-13.28a4.071,4.071,0,0,1-4.067-4.067v-.083h12.616a1.245,1.245,0,1,0,0-2.49H121.392V134.1h21.375l.039,4.15h-2.988a1.245,1.245,0,0,0,0,2.49H142.8v.083A4.071,4.071,0,0,1,138.738,144.889Z" transform="translate(-90.607 -69.222)"/>
        <path id="Trazado_1004992" data-name="Trazado 1004992" d="M196.372,193.712a1.245,1.245,0,0,0,1.967,1.527l2.465-3.174a3.984,3.984,0,0,0-6.293-4.887l-8.041,10.355-4.615-5.106a3.984,3.984,0,0,0-5.911,5.343l7.8,8.632a4.009,4.009,0,0,0,6.1-.228l4.928-6.346a1.245,1.245,0,1,0-1.967-1.527l-4.928,6.346a1.5,1.5,0,0,1-2.288.085l-7.8-8.632a1.494,1.494,0,1,1,2.217-2l5.611,6.208a1.254,1.254,0,0,0,1.907-.071l8.952-11.529a1.494,1.494,0,1,1,2.36,1.833Z" transform="translate(-147.036 -154.822)"/>
      </g>
    </g>
  </g>
</svg>
