<svg xmlns="http://www.w3.org/2000/svg" xmlns:xlink="http://www.w3.org/1999/xlink" width="96" height="96" viewBox="0 0 96 96">
  <defs>
    <clipPath id="clip-path">
      <rect id="Rect치ngulo_454535" data-name="Rect치ngulo 454535" width="25.231" height="26.467" fill="#cff878"/>
    </clipPath>
  </defs>
  <g id="Grupo_1192538" data-name="Grupo 1192538" transform="translate(-1192.711 -1019)">
    <path id="Elipse_5729" data-name="Elipse 5729" d="M48,0A48,48,0,1,1,0,48,48,48,0,0,1,48,0Z" transform="translate(1192.711 1019)" fill="#e795ff"/>
    <g id="Grupo_1192539" data-name="Grupo 1192539" transform="translate(1035 82)">
      <rect id="Rect치ngulo_455479" data-name="Rect치ngulo 455479" width="70" height="70" rx="35" transform="translate(170.711 950)" fill="#f8dfff"/>
      <g id="Grupo_1192527" data-name="Grupo 1192527" transform="translate(174.711 954)">
        <g id="Grupo_1176862" data-name="Grupo 1176862" clip-path="url(#clip-path)">
          <path id="Trazado_991676" data-name="Trazado 991676" d="M14.729,5.187,13.176.407a.589.589,0,0,0-1.12,0L10.5,5.187a.589.589,0,0,1-.906.294L5.53,2.527a.589.589,0,0,0-.906.658l1.553,4.78a.589.589,0,0,1-.56.771H.59A.589.589,0,0,0,.244,9.8l4.066,2.954a.589.589,0,0,1,0,.953L.244,16.664A.589.589,0,0,0,.59,17.73H5.617a.589.589,0,0,1,.56.771l-1.553,4.78a.589.589,0,0,0,.906.659L9.6,20.985a.589.589,0,0,1,.906.294l1.553,4.78a.589.589,0,0,0,1.12,0l1.553-4.78a.589.589,0,0,1,.906-.294L19.7,23.94a.589.589,0,0,0,.906-.658L19.055,18.5a.589.589,0,0,1,.56-.771h5.026a.589.589,0,0,0,.346-1.065L20.922,13.71a.589.589,0,0,1,0-.953L24.988,9.8a.589.589,0,0,0-.346-1.065H19.615a.589.589,0,0,1-.56-.771l1.553-4.78a.589.589,0,0,0-.906-.658L15.636,5.482a.589.589,0,0,1-.906-.294" transform="translate(0 0)" fill="#cff878"/>
        </g>
      </g>
      <g id="Grupo_1192519" data-name="Grupo 1192519" transform="translate(171.453 962.381)">
        <path id="Trazado_1005080" data-name="Trazado 1005080" d="M27.414,26.775h5.655a1.415,1.415,0,0,0,1.414-1.414V20.414A1.415,1.415,0,0,0,33.068,19H27.414A1.415,1.415,0,0,0,26,20.414v4.948a1.415,1.415,0,0,0,1.414,1.414Zm0-6.362h4.592l-2,1.859-.345-.325a.707.707,0,0,0-.969,1.029l.826.778a.707.707,0,0,0,.966,0l2.58-2.4v4.006H27.414Z" transform="translate(-5.173 -12.285)" fill="#5c3b66"/>
        <path id="Trazado_1005081" data-name="Trazado 1005081" d="M54.707,25.414h11.31a.707.707,0,0,0,0-1.414H54.707a.707.707,0,0,0,0,1.414Z" transform="translate(-23.277 -15.518)" fill="#5c3b66"/>
        <path id="Trazado_1005082" data-name="Trazado 1005082" d="M54,84.707a.707.707,0,0,0,.707.707h7.775a.707.707,0,1,0,0-1.414H54.707a.707.707,0,0,0-.707.707Z" transform="translate(-23.277 -54.312)" fill="#5c3b66"/>
        <path id="Trazado_1005083" data-name="Trazado 1005083" d="M54.707,33.414h5.66a3.686,3.686,0,0,1,2.814-.624.7.7,0,0,0,.008-.083A.707.707,0,0,0,62.482,32H54.707a.707.707,0,1,0,0,1.414Z" transform="translate(-23.277 -20.69)" fill="#5c3b66"/>
        <path id="Trazado_1005084" data-name="Trazado 1005084" d="M20.12,45.238H38.172a.707.707,0,0,0,.5-.21L47.484,36.1a.706.706,0,0,0,.2-.5V30.816a2.051,2.051,0,0,1-1.414.252v3.567H39.806a2.052,2.052,0,0,0-2.014,2.084v7.105H20.12a.7.7,0,0,1-.706-.686V2.1a.7.7,0,0,1,.706-.686H45.568a.7.7,0,0,1,.706.686V12.769a3.68,3.68,0,0,1,.416.5,3.768,3.768,0,0,1-.121,4.365,15.868,15.868,0,0,1,1.119,1.428V2.1A2.113,2.113,0,0,0,45.568,0H20.12A2.113,2.113,0,0,0,18,2.1V43.138a2.113,2.113,0,0,0,2.12,2.1Zm19.085-8.519a.639.639,0,0,1,.6-.67h5.745l-6.345,6.429Z" transform="translate(0 0)" fill="#5c3b66"/>
        <path id="Trazado_1005085" data-name="Trazado 1005085" d="M59.74,78.411l-.216.032a3.241,3.241,0,0,1-1.036-.018l-.485.35c-.053.038-.11.069-.165.1h5.9c-.173-.079-.342-.154-.5-.217A5.948,5.948,0,0,0,59.74,78.411Z" transform="translate(-25.758 -50.602)" fill="#5c3b66"/>
        <path id="Trazado_1005086" data-name="Trazado 1005086" d="M35.91,76.637l-1.374,1.28-.345-.325a.707.707,0,1,0-.969,1.029l.826.778a.707.707,0,0,0,.966,0L36.738,77.8a2.091,2.091,0,0,1-.828-1.161Z" transform="translate(-9.699 -49.552)" fill="#5c3b66"/>
        <path id="Trazado_1005087" data-name="Trazado 1005087" d="M26,77.362a1.415,1.415,0,0,0,1.414,1.414h5.655a1.415,1.415,0,0,0,1.414-1.414V74.514l-1.06.02a2.107,2.107,0,0,1-.353-.033v2.861H27.414V72.414H31.3a2.118,2.118,0,0,1,.134-.742L31.686,71H27.414A1.415,1.415,0,0,0,26,72.414Z" transform="translate(-5.173 -45.907)" fill="#5c3b66"/>
        <path id="Trazado_1005088" data-name="Trazado 1005088" d="M26,51.362a1.415,1.415,0,0,0,1.414,1.414h4.8l.211-.565a2.11,2.11,0,0,1,.465-.73c-.017-.039-.029-.079-.043-.118H27.414V46.414h4.592l-2,1.859-.345-.325a.707.707,0,0,0-.969,1.029l.826.778a.707.707,0,0,0,.966,0l2.58-2.4v2.112a2.115,2.115,0,0,1,.735-.681,3.418,3.418,0,0,0,.679-.647V46.414A1.415,1.415,0,0,0,33.068,45H27.414A1.415,1.415,0,0,0,26,46.414Z" transform="translate(-5.173 -29.096)" fill="#5c3b66"/>
        <path id="Trazado_1005089" data-name="Trazado 1005089" d="M62.015,41.461l.414-.3a2.33,2.33,0,0,0,.549-3.178,2.223,2.223,0,0,0-1.463-.952,2.192,2.192,0,0,0-1.677.387l-1.263.912a4.95,4.95,0,0,0-1.477-.917c-.8-.274-1.82.384-3.423,1.484a10.307,10.307,0,0,1-2.054,1.225c-1.464.36-2.1.676-3.025,2.586a5.194,5.194,0,0,1-1.82,2.137.707.707,0,0,0-.07,1.19,4.38,4.38,0,0,0,.668.38l-1.091.788a.707.707,0,0,0-.248.326l-.991,2.65a.707.707,0,0,0,.662.954h.014l2.754-.053a.707.707,0,0,0,.4-.134l1.073-.775a1.638,1.638,0,0,0,1.071.19l.213-.031a7.29,7.29,0,0,1,4.225.332c.49.194.995.443,1.529.708,1.543.762,3.28,1.62,4.975,1.148l1.777,1a.707.707,0,0,0,.693-1.232l-2.048-1.152a.708.708,0,0,0-.6-.043c-1.22.47-2.653-.238-4.17-.987-.537-.265-1.092-.54-1.636-.755a8.686,8.686,0,0,0-4.951-.415l-.209.031a.321.321,0,0,1-.147,0,.316.316,0,0,1,0-.213c.039-.145.235-.65,1.146-1.054a5.185,5.185,0,0,1,3.672.286,1.91,1.91,0,0,0,2.167-.543,2.113,2.113,0,0,0,.5-1.555,2.092,2.092,0,0,0-.551-1.238L60.855,42.3A13.437,13.437,0,0,1,63.2,45.224a.708.708,0,0,0,.2.233l3.436,2.706a.707.707,0,0,0,.858-1.124L64.38,44.425A14.913,14.913,0,0,0,62.015,41.461ZM49.87,43.324c.719-1.491.982-1.556,2.089-1.828a9.739,9.739,0,0,0,2.516-1.432,10.1,10.1,0,0,1,2.208-1.3,3.065,3.065,0,0,1,.7.422L48.82,45.374a1.811,1.811,0,0,1-.375-.061,7.035,7.035,0,0,0,1.426-1.989Zm6.719,3.188a.506.506,0,0,1-.579.154c-.251-.1-.524-.2-.812-.283l1.251-.9a.7.7,0,0,0,.068.064.656.656,0,0,1,.231.458.693.693,0,0,1-.159.51Zm5.013-6.5h0l-8.349,6.028a4.568,4.568,0,0,0-2.007.357,2.869,2.869,0,0,0-2,2.537l-1.018.735-1.493.029.552-1.476,13.381-9.661a.789.789,0,0,1,.6-.141.821.821,0,0,1,.538.354A.907.907,0,0,1,61.6,40.016Z" transform="translate(-17.457 -23.922)" fill="#5c3b66"/>
      </g>
    </g>
  </g>
</svg>
