<svg xmlns="http://www.w3.org/2000/svg" xmlns:xlink="http://www.w3.org/1999/xlink" width="96" height="96" viewBox="0 0 96 96">
  <defs>
    <clipPath id="clip-path">
      <rect id="Rect치ngulo_454535" data-name="Rect치ngulo 454535" width="25.231" height="26.467" fill="#cff878"/>
    </clipPath>
  </defs>
  <g id="Grupo_1192540" data-name="Grupo 1192540" transform="translate(-1192.711 -1019)">
    <path id="Elipse_5729" data-name="Elipse 5729" d="M48,0A48,48,0,1,1,0,48,48,48,0,0,1,48,0Z" transform="translate(1192.711 1019)" fill="#e795ff"/>
    <g id="Grupo_1192541" data-name="Grupo 1192541" transform="translate(1035 82)">
      <rect id="Rect치ngulo_455479" data-name="Rect치ngulo 455479" width="70" height="70" rx="35" transform="translate(170.711 950)" fill="#f8dfff"/>
      <g id="Grupo_1192528" data-name="Grupo 1192528" transform="translate(174.711 954)">
        <g id="Grupo_1176862" data-name="Grupo 1176862" clip-path="url(#clip-path)">
          <path id="Trazado_991676" data-name="Trazado 991676" d="M14.729,5.187,13.176.407a.589.589,0,0,0-1.12,0L10.5,5.187a.589.589,0,0,1-.906.294L5.53,2.527a.589.589,0,0,0-.906.658l1.553,4.78a.589.589,0,0,1-.56.771H.59A.589.589,0,0,0,.244,9.8l4.066,2.954a.589.589,0,0,1,0,.953L.244,16.664A.589.589,0,0,0,.59,17.73H5.617a.589.589,0,0,1,.56.771l-1.553,4.78a.589.589,0,0,0,.906.659L9.6,20.985a.589.589,0,0,1,.906.294l1.553,4.78a.589.589,0,0,0,1.12,0l1.553-4.78a.589.589,0,0,1,.906-.294L19.7,23.94a.589.589,0,0,0,.906-.658L19.055,18.5a.589.589,0,0,1,.56-.771h5.026a.589.589,0,0,0,.346-1.065L20.922,13.71a.589.589,0,0,1,0-.953L24.988,9.8a.589.589,0,0,0-.346-1.065H19.615a.589.589,0,0,1-.56-.771l1.553-4.78a.589.589,0,0,0-.906-.658L15.636,5.482a.589.589,0,0,1-.906-.294" transform="translate(0 0)" fill="#cff878"/>
        </g>
      </g>
      <g id="Grupo_1192520" data-name="Grupo 1192520" transform="translate(162.933 962.211)">
        <path id="Trazado_1005090" data-name="Trazado 1005090" d="M147,153.589a6.288,6.288,0,1,0,3.362,11.6.668.668,0,1,0-.716-1.127,4.956,4.956,0,1,1,1.841-2.092.668.668,0,1,0,1.21.564,6.312,6.312,0,0,0-1.252-7.107A6.248,6.248,0,0,0,147,153.589Z" transform="translate(-108.201 -139.917)" fill="#5c3b66"/>
        <path id="Trazado_1005091" data-name="Trazado 1005091" d="M60.228.039H47.92a3.391,3.391,0,0,0-3.387,3.386v9.637A8.968,8.968,0,0,0,30.485,16.6H24.942a1.663,1.663,0,0,1-1.661-1.661V6.42H39.758V8.589a.668.668,0,0,0,1.335,0V3h0a3,3,0,0,0-3-3H24.941a3,3,0,0,0-3,3V14.941a3,3,0,0,0,3,3h5.125A8.97,8.97,0,0,0,32.459,26.3q.2.2.416.39H23.281V24.571a1.683,1.683,0,0,1,1.661-1.652H27.69a.668.668,0,0,0,0-1.335H24.95a3.06,3.06,0,0,0-3,2.995v18a3,3,0,0,0,3,3H38.1a3,3,0,0,0,3-3V28.634a8.889,8.889,0,0,0,3.56-1.877l1.606,1.605-.017.017a2.5,2.5,0,0,0,0,3.53l3.009,3.009a2.5,2.5,0,0,0,3.53,0l.978-.978a2.5,2.5,0,0,0,0-3.53L50.749,27.4a2.5,2.5,0,0,0-3.53,0l-.017.017L45.6,25.813a8.9,8.9,0,0,0,2.172-5.852,9.04,9.04,0,0,0-.234-2.046,3.389,3.389,0,0,0,.384.024h1.791v3.251a1.4,1.4,0,0,0,2.568.746l2.539-4h5.411a3.39,3.39,0,0,0,3.385-3.386V3.425A3.39,3.39,0,0,0,60.228.039ZM38.1,1.335A1.663,1.663,0,0,1,39.758,3V5.085H23.281V3a1.663,1.663,0,0,1,1.661-1.661ZM48.984,28.006a1.153,1.153,0,0,1,.821.34l3.009,3.009a1.161,1.161,0,0,1,0,1.641l-.978.978a1.161,1.161,0,0,1-1.641,0l-3.009-3.009a1.161,1.161,0,0,1,0-1.641l.977-.977a1.152,1.152,0,0,1,.821-.34ZM39.758,42.583a1.662,1.662,0,0,1-1.66,1.66H24.942a1.663,1.663,0,0,1-1.661-1.66V28.027H34.872a9.092,9.092,0,0,0,4.886.851v13.7ZM44.2,25.358a7.63,7.63,0,1,1,0-10.795A7.642,7.642,0,0,1,44.2,25.358Zm18.08-10.807a2.053,2.053,0,0,1-2.05,2.051H54.451a.668.668,0,0,0-.564.31l-2.736,4.307a.056.056,0,0,1-.106-.031V14.6a.668.668,0,0,0-1.335,0v2H47.92a2.054,2.054,0,0,1-.882-.2,8.9,8.9,0,0,0-1.17-1.966V3.425A2.054,2.054,0,0,1,47.92,1.374H60.228a2.053,2.053,0,0,1,2.05,2.051V14.551Z" transform="translate(0)" fill="#5c3b66"/>
        <path id="Trazado_1005092" data-name="Trazado 1005092" d="M375.4,154.767a.679.679,0,1,0,.679.679A.679.679,0,0,0,375.4,154.767Z" transform="translate(-321.37 -140.99)" fill="#5c3b66"/>
        <path id="Trazado_1005093" data-name="Trazado 1005093" d="M346.358,26.8a3.521,3.521,0,0,0-3.6,3.523.668.668,0,1,0,1.335,0,2.23,2.23,0,0,1,.021-.306,2.188,2.188,0,1,1,2.167,2.495.668.668,0,0,0-.668.668v2.987a.668.668,0,0,0,1.335,0V33.779a3.529,3.529,0,0,0,2.851-3.648,3.534,3.534,0,0,0-3.446-3.336Z" transform="translate(-292.261 -24.409)" fill="#5c3b66"/>
        <path id="Trazado_1005094" data-name="Trazado 1005094" d="M60.27,29.947a.679.679,0,1,0-.679-.679A.679.679,0,0,0,60.27,29.947Z" transform="translate(-34.297 -26.043)" fill="#5c3b66"/>
        <path id="Trazado_1005095" data-name="Trazado 1005095" d="M59.591,270.977a.679.679,0,1,0,.679-.679A.679.679,0,0,0,59.591,270.977Z" transform="translate(-34.297 -246.236)" fill="#5c3b66"/>
        <path id="Trazado_1005096" data-name="Trazado 1005096" d="M71.2,358.046H60.39a.668.668,0,1,0,0,1.335H71.2a.668.668,0,0,0,0-1.335Z" transform="translate(-34.417 -326.173)" fill="#5c3b66"/>
        <path id="Trazado_1005097" data-name="Trazado 1005097" d="M71.2,399.909H60.39a.668.668,0,1,0,0,1.335H71.2a.668.668,0,0,0,0-1.335Z" transform="translate(-34.417 -364.309)" fill="#5c3b66"/>
        <path id="Trazado_1005098" data-name="Trazado 1005098" d="M91.572,441.771H85.39a.668.668,0,1,0,0,1.335h6.182a.668.668,0,0,0,0-1.335Z" transform="translate(-57.191 -402.445)" fill="#5c3b66"/>
      </g>
    </g>
  </g>
</svg>
