<svg xmlns="http://www.w3.org/2000/svg" xmlns:xlink="http://www.w3.org/1999/xlink" width="96" height="96" viewBox="0 0 96 96">
  <defs>
    <clipPath id="clip-path">
      <rect id="Rect치ngulo_454535" data-name="Rect치ngulo 454535" width="25.231" height="26.467" fill="#cff878"/>
    </clipPath>
  </defs>
  <g id="Grupo_1192542" data-name="Grupo 1192542" transform="translate(-1192.711 -1019)">
    <path id="Elipse_5729" data-name="Elipse 5729" d="M48,0A48,48,0,1,1,0,48,48,48,0,0,1,48,0Z" transform="translate(1192.711 1019)" fill="#e795ff"/>
    <g id="Grupo_1192543" data-name="Grupo 1192543" transform="translate(1035 82)">
      <rect id="Rect치ngulo_455479" data-name="Rect치ngulo 455479" width="70" height="70" rx="35" transform="translate(170.711 950)" fill="#f8dfff"/>
      <g id="Grupo_1192529" data-name="Grupo 1192529" transform="translate(174.711 954)">
        <g id="Grupo_1176862" data-name="Grupo 1176862" clip-path="url(#clip-path)">
          <path id="Trazado_991676" data-name="Trazado 991676" d="M14.729,5.187,13.176.407a.589.589,0,0,0-1.12,0L10.5,5.187a.589.589,0,0,1-.906.294L5.53,2.527a.589.589,0,0,0-.906.658l1.553,4.78a.589.589,0,0,1-.56.771H.59A.589.589,0,0,0,.244,9.8l4.066,2.954a.589.589,0,0,1,0,.953L.244,16.664A.589.589,0,0,0,.59,17.73H5.617a.589.589,0,0,1,.56.771l-1.553,4.78a.589.589,0,0,0,.906.659L9.6,20.985a.589.589,0,0,1,.906.294l1.553,4.78a.589.589,0,0,0,1.12,0l1.553-4.78a.589.589,0,0,1,.906-.294L19.7,23.94a.589.589,0,0,0,.906-.658L19.055,18.5a.589.589,0,0,1,.56-.771h5.026a.589.589,0,0,0,.346-1.065L20.922,13.71a.589.589,0,0,1,0-.953L24.988,9.8a.589.589,0,0,0-.346-1.065H19.615a.589.589,0,0,1-.56-.771l1.553-4.78a.589.589,0,0,0-.906-.658L15.636,5.482a.589.589,0,0,1-.906-.294" transform="translate(0 0)" fill="#cff878"/>
        </g>
      </g>
      <g id="Grupo_1192521" data-name="Grupo 1192521" transform="translate(182.897 963.361)">
        <path id="Trazado_1005099" data-name="Trazado 1005099" d="M32.907,3.515h-3.87A3.151,3.151,0,0,0,26.071,1H23.878a3.041,3.041,0,0,0-2.967,2.515h-3.87a.609.609,0,0,0-.645.645V5.386H10.721a2.081,2.081,0,0,0-2,2.128V22.026A9.61,9.61,0,0,0,4.4,30.088,9.8,9.8,0,0,0,8.657,38.15v2a2.081,2.081,0,0,0,2,2.128H39.228a2.081,2.081,0,0,0,2-2.128V7.514a2.081,2.081,0,0,0-2-2.128H33.552V4.16a.646.646,0,0,0-.645-.645ZM17.686,4.805h3.805a.609.609,0,0,0,.645-.645,1.806,1.806,0,0,1,1.741-1.87h2.193a1.806,1.806,0,0,1,1.741,1.87.609.609,0,0,0,.645.645h3.805V7.256H17.686Zm-12,25.282A8.542,8.542,0,1,1,14.268,38.6,8.569,8.569,0,0,1,5.69,30.088Zm33.6-23.412A.793.793,0,0,1,40,7.514v32.7a.793.793,0,0,1-.709.838H10.656a.793.793,0,0,1-.709-.838v-1.29A9.9,9.9,0,0,0,23.1,34.344H36.97a.645.645,0,0,0,0-1.29H23.62a9.2,9.2,0,0,0,.451-2.967v-.645h12.9a.645.645,0,0,0,0-1.29H23.878a9.453,9.453,0,0,0-1.548-3.612H36.97a.645.645,0,0,0,0-1.29H21.233a9.924,9.924,0,0,0-11.351-2V7.514a.793.793,0,0,1,.709-.838h5.8V7.9a.609.609,0,0,0,.645.645H32.907a.609.609,0,0,0,.645-.645V6.676Z" fill="#5c3b66"/>
        <path id="Trazado_1005100" data-name="Trazado 1005100" d="M35.306,4a1.872,1.872,0,1,0,1.806,1.87A1.859,1.859,0,0,0,35.306,4Zm0,2.451a.584.584,0,1,1,.516-.58A.569.569,0,0,1,35.306,6.451Z" transform="translate(-10.332 -1.065)" fill="#5c3b66"/>
        <path id="Trazado_1005101" data-name="Trazado 1005101" d="M19.86,20.1H17.345a.645.645,0,0,0,0,1.29H19.86a.645.645,0,0,0,0-1.29Z" transform="translate(-4.367 -6.781)" fill="#5c3b66"/>
        <path id="Trazado_1005102" data-name="Trazado 1005102" d="M19.86,27.8H17.345a.645.645,0,0,0,0,1.29H19.86a.645.645,0,0,0,0-1.29Z" transform="translate(-4.367 -9.515)" fill="#5c3b66"/>
        <path id="Trazado_1005103" data-name="Trazado 1005103" d="M27.1,20.745a.609.609,0,0,0,.645.645H45.03a.645.645,0,0,0,0-1.29H27.745A.694.694,0,0,0,27.1,20.745Z" transform="translate(-8.059 -6.781)" fill="#5c3b66"/>
        <path id="Trazado_1005104" data-name="Trazado 1005104" d="M45.03,27.8H27.745a.645.645,0,0,0,0,1.29H45.03a.609.609,0,0,0,.645-.645A.646.646,0,0,0,45.03,27.8Z" transform="translate(-8.059 -9.515)" fill="#5c3b66"/>
        <path id="Trazado_1005105" data-name="Trazado 1005105" d="M15.518,47.63a.586.586,0,0,0,.451-.193l5.74-5.74a.638.638,0,0,0-.9-.9l-5.289,5.289L13.2,43.76a.638.638,0,0,0-.9.9l2.773,2.773a.5.5,0,0,0,.451.193Z" transform="translate(-2.734 -14.06)" fill="#5c3b66"/>
      </g>
    </g>
  </g>
</svg>
