<svg xmlns="http://www.w3.org/2000/svg" xmlns:xlink="http://www.w3.org/1999/xlink" width="293" height="219.456" viewBox="0 0 293 219.456">
  <defs>
    <clipPath id="clip-path">
      <rect id="Rectángulo_455627" data-name="Rectángulo 455627" width="292" height="219.456" fill="none"/>
    </clipPath>
    <clipPath id="clip-path-3">
      <rect id="Rectángulo_455614" data-name="Rectángulo 455614" width="105.683" height="35.219" fill="none"/>
    </clipPath>
    <clipPath id="clip-path-4">
      <rect id="Rectángulo_455615" data-name="Rectángulo 455615" width="10.677" height="15.831" fill="none"/>
    </clipPath>
    <clipPath id="clip-path-5">
      <rect id="Rectángulo_455616" data-name="Rectángulo 455616" width="10.677" height="15.83" fill="none"/>
    </clipPath>
    <clipPath id="clip-path-6">
      <rect id="Rectángulo_455617" data-name="Rectángulo 455617" width="17.059" height="8.519" fill="none"/>
    </clipPath>
    <clipPath id="clip-path-7">
      <rect id="Rectángulo_455618" data-name="Rectángulo 455618" width="5.668" height="18.892" fill="none"/>
    </clipPath>
    <clipPath id="clip-path-8">
      <rect id="Rectángulo_455619" data-name="Rectángulo 455619" width="9.823" height="11.686" fill="none"/>
    </clipPath>
    <clipPath id="clip-path-10">
      <rect id="Rectángulo_455621" data-name="Rectángulo 455621" width="5.668" height="18.908" fill="none"/>
    </clipPath>
    <clipPath id="clip-path-11">
      <rect id="Rectángulo_455622" data-name="Rectángulo 455622" width="154.111" height="38.169" fill="none"/>
    </clipPath>
    <clipPath id="clip-path-12">
      <rect id="Rectángulo_455623" data-name="Rectángulo 455623" width="104.403" height="38.169" fill="none"/>
    </clipPath>
    <clipPath id="clip-path-13">
      <rect id="Rectángulo_455624" data-name="Rectángulo 455624" width="196.554" height="30.179" fill="none"/>
    </clipPath>
    <clipPath id="clip-path-14">
      <rect id="Rectángulo_455625" data-name="Rectángulo 455625" width="113.376" height="17.91" fill="none"/>
    </clipPath>
  </defs>
  <g id="Grupo_1192958" data-name="Grupo 1192958" transform="translate(-1121.711 -2035.544)">
    <rect id="Rectángulo_455494" data-name="Rectángulo 455494" width="293" height="188" rx="10" transform="translate(1121.711 2067)" fill="#f8dfff"/>
    <g id="Grupo_1192882" data-name="Grupo 1192882" transform="translate(1122 2035.544)">
      <g id="Grupo_1192881" data-name="Grupo 1192881" clip-path="url(#clip-path)">
        <g id="Grupo_1192880" data-name="Grupo 1192880">
          <g id="Grupo_1192879" data-name="Grupo 1192879" clip-path="url(#clip-path)">
            <path id="Trazado_1005679" data-name="Trazado 1005679" d="M292,252.305v40.179H0V252.305c29.7-45.978,83.973-76.755,146-76.755s116.3,30.777,146,76.755" transform="translate(0 -73.029)" fill="#6bcacc"/>
            <path id="Trazado_1005680" data-name="Trazado 1005680" d="M211.648,242.162,263.6,207.894c-6.924-3.444-26,4.461-52.085,9.766-26.081-5.305-44.921-12.056-53.6-10.1l53.517,34.6v.11l.109-.055.11.055Z" transform="translate(-65.692 -86.134)" fill="#454e63"/>
            <path id="Trazado_1005681" data-name="Trazado 1005681" d="M211.648,242.162,263.6,207.894c-6.924-3.444-26,4.461-52.085,9.766-26.081-5.305-44.921-12.056-53.6-10.1l53.517,34.6v.11l.109-.055.11.055Z" transform="translate(-65.692 -86.134)" fill="#293959"/>
            <g id="Grupo_1192845" data-name="Grupo 1192845" transform="translate(92.222 120.919)" opacity="0.2" style="mix-blend-mode: multiply;isolation: isolate">
              <g id="Grupo_1192844" data-name="Grupo 1192844">
                <g id="Grupo_1192843" data-name="Grupo 1192843" clip-path="url(#clip-path-3)">
                  <path id="Trazado_1005682" data-name="Trazado 1005682" d="M211.648,242.162,263.6,207.894c-6.924-3.444-26,4.461-52.085,9.766-26.081-5.305-44.921-12.056-53.6-10.1l53.517,34.6v.11l.109-.055.11.055Z" transform="translate(-157.914 -207.053)" fill="#606060"/>
                </g>
              </g>
            </g>
            <path id="Trazado_1005683" data-name="Trazado 1005683" d="M254.554,109.738c-.308.908-.6,1.871-.856,2.866a42.92,42.92,0,0,0-.894,4.436.607.607,0,0,0-.014.078c-.053.4-.1.789-.159,1.2-.1.739-.164,1.492-.216,2.268-.048.726-.092,1.456-.106,2.2,0,.219.144,7.844.322,16.912.077,3.847.154,7.959.231,11.87.2,9.885.37,9.237.37,9.237-19.94,11.076-36.428,10.533-53.966,0,0,0,.173.626.37-9.272.077-3.884.154-7.955.231-11.774.178-9.091.327-16.749.322-16.972-.015-.748-.058-1.478-.106-2.2-.053-.776-.116-1.529-.217-2.268-.057-.411-.106-.8-.158-1.2a.592.592,0,0,0-.015-.077,42.768,42.768,0,0,0-.894-4.436c-.259-.995-.548-1.958-.855-2.866-2.625-7.881-.832-6.9-.832-6.9A35.082,35.082,0,0,1,214.972,89.1c13.8-6.211,5.532-2.145,11.279-2.688,5.868.6,5.171-.068,10.463,2.328a39.181,39.181,0,0,1,18.671,14.1s1.792-.981-.832,6.9" transform="translate(-81.75 -35.609)" fill="#d84459"/>
            <path id="Trazado_1005684" data-name="Trazado 1005684" d="M196.245,250.482s-24.287-.942-29.029-.045-8.792,2.717-9.086,10.117c-.314,7.894,4.934,7.855,9.088,8.138s25.1-3.418,26.468-4.056,2.559-14.154,2.559-14.154" transform="translate(-65.776 -104.021)" fill="#fff"/>
            <path id="Trazado_1005685" data-name="Trazado 1005685" d="M209.5,267.951s-5.9,4.589-11.08,5.829c-5.244,1.256-9.983,1.619-20.432,2.039,0,0-.712-4.52,1.921-5.013s24.872-5.7,29.59-2.855" transform="translate(-74.007 -111.116)" fill="#20a5ae"/>
            <path id="Trazado_1005686" data-name="Trazado 1005686" d="M215.623,261.012a29.232,29.232,0,0,1-14.279,4.211c-3.479,0-4-11.382-1.487-12.089s14.455-2.425,14.455-2.425Z" transform="translate(-82.489 -104.295)" fill="#e0b3aa"/>
            <path id="Trazado_1005687" data-name="Trazado 1005687" d="M193.979,258.269a5.459,5.459,0,0,1-.278,3.038,10.97,10.97,0,0,1-3.463,5.158s-12.205-.735-15.29.835c-2.886,1.474-1.878,1.946-2.7,1.994a1.043,1.043,0,0,1-.189.011s-.619-.037-1.543-.037a5.707,5.707,0,0,1-1.055-.095c-6.611-1.186-7.907-13.763-2.288-15.83a35.547,35.547,0,0,1,4.1-.839c7.005-.856,22.484-1.086,25.721-1.065-1.228.037-4.014.614-8.233,2.419,0,0,4.381,1.574,5.221,4.413" transform="translate(-68.071 -104.597)" fill="#ff9600"/>
            <g id="Grupo_1192848" data-name="Grupo 1192848" transform="translate(95.561 148.744)" style="mix-blend-mode: soft-light;isolation: isolate">
              <g id="Grupo_1192847" data-name="Grupo 1192847">
                <g id="Grupo_1192846" data-name="Grupo 1192846" clip-path="url(#clip-path-4)">
                  <path id="Trazado_1005688" data-name="Trazado 1005688" d="M174.3,263.352c.137,3.573-2.088,5.8-4.843,7.178-6.611-1.186-7.907-13.763-2.288-15.83,3.127,1.023,6.926,3.353,7.131,8.653" transform="translate(-163.631 -254.699)" fill="#fff"/>
                </g>
              </g>
            </g>
            <path id="Trazado_1005689" data-name="Trazado 1005689" d="M223.232,232.594s49.22-23.008,58.4-24.965c9.936-3.091,24.42,6.7,13.276,17.266-12.237,11.744-68.712,19.54-68.712,19.54-.847.4-4.112-6.683-2.961-11.841" transform="translate(-92.764 -86.132)" fill="#293959"/>
            <path id="Trazado_1005690" data-name="Trazado 1005690" d="M271.454,250.465s24.287-.942,29.029-.044,8.792,2.717,9.086,10.117c.314,7.893-4.933,7.855-9.088,8.137s-25.1-3.418-26.468-4.056-2.559-14.154-2.559-14.154" transform="translate(-112.925 -104.014)" fill="#fff"/>
            <path id="Trazado_1005691" data-name="Trazado 1005691" d="M262.849,267.935s5.9,4.589,11.08,5.829c5.244,1.256,9.983,1.619,20.432,2.039,0,0,.712-4.52-1.921-5.012s-24.872-5.7-29.59-2.855" transform="translate(-109.345 -111.109)" fill="#20a5ae"/>
            <path id="Trazado_1005692" data-name="Trazado 1005692" d="M266.891,261a29.228,29.228,0,0,0,14.279,4.21c3.479,0,4-11.382,1.487-12.089s-14.455-2.425-14.455-2.425Z" transform="translate(-111.027 -104.288)" fill="#e5b7ac"/>
            <path id="Trazado_1005693" data-name="Trazado 1005693" d="M277.117,258.252a5.459,5.459,0,0,0,.278,3.038,10.97,10.97,0,0,0,3.463,5.158s12.205-.735,15.29.835c2.886,1.474,1.878,1.946,2.7,1.994a1.046,1.046,0,0,0,.189.011s.62-.037,1.543-.037a5.7,5.7,0,0,0,1.055-.095c6.611-1.186,7.907-13.763,2.288-15.831a35.55,35.55,0,0,0-4.1-.839c-7.005-.856-22.484-1.086-25.721-1.065,1.228.037,4.014.614,8.233,2.419,0,0-4.381,1.574-5.221,4.413" transform="translate(-114.028 -104.59)" fill="#ff9600"/>
            <g id="Grupo_1192851" data-name="Grupo 1192851" transform="translate(182.76 148.735)" style="mix-blend-mode: soft-light;isolation: isolate">
              <g id="Grupo_1192850" data-name="Grupo 1192850">
                <g id="Grupo_1192849" data-name="Grupo 1192849" clip-path="url(#clip-path-5)">
                  <path id="Trazado_1005694" data-name="Trazado 1005694" d="M312.951,263.336c-.137,3.574,2.088,5.8,4.843,7.178,6.611-1.186,7.907-13.763,2.288-15.831-3.127,1.023-6.926,3.353-7.131,8.653" transform="translate(-312.945 -254.683)" fill="#fff"/>
                </g>
              </g>
            </g>
            <path id="Trazado_1005695" data-name="Trazado 1005695" d="M217.531,232.594s-49.22-23.008-58.4-24.965c-9.936-3.091-24.42,6.7-13.276,17.266,12.237,11.744,68.712,19.54,68.712,19.54.847.4,4.112-6.683,2.961-11.841" transform="translate(-59.002 -86.132)" fill="#364a6b"/>
            <path id="Trazado_1005696" data-name="Trazado 1005696" d="M250.454,86.246s2.016,15.329-10.783,15.363-10.822-15.05-10.822-15.05,1.775-.509,2.293-4.244a11.8,11.8,0,0,0,.006-3.107h16.824s-.016.137-.038.376c-.006.131-.016.3-.022.5a8.3,8.3,0,0,0,2.543,6.166" transform="translate(-95.155 -32.95)" fill="#e5b7ac"/>
            <g id="Grupo_1192854" data-name="Grupo 1192854" transform="translate(135.987 46.257)" opacity="0.5">
              <g id="Grupo_1192853" data-name="Grupo 1192853">
                <g id="Grupo_1192852" data-name="Grupo 1192852" clip-path="url(#clip-path-6)">
                  <path id="Trazado_1005697" data-name="Trazado 1005697" d="M249.913,79.606s-.1.175-.29.474c-1.079,1.718-5,7.535-8.722,7.643-4.372.142-8.042-5.4-8.042-5.4l-.005-.005a11.827,11.827,0,0,0,.005-3.107h12.578l4.209.376Z" transform="translate(-232.854 -79.207)" fill="#ca7e86"/>
                </g>
              </g>
            </g>
            <path id="Trazado_1005698" data-name="Trazado 1005698" d="M192.513,122.8s-2,7.477-4.313,15.71c-1.028,3.689-2.125,7.535-3.116,10.925-1.433,4.843-2.666,8.762-3.259,9.985l-10.2.829c-.01-.005-.015-.011-.015-.021a8.4,8.4,0,0,1-2.021-5.153,11.782,11.782,0,0,1,.221-3.064c.084-.436.278-1.2.551-2.2.508-1.868,1.3-4.575,2.187-7.577,2.634-8.857,6.181-20.264,6.181-20.264,6.307-6.228,13.785.829,13.785.829" transform="translate(-70.539 -49.674)" fill="#e5b7ac"/>
            <path id="Trazado_1005699" data-name="Trazado 1005699" d="M205.689,91.588s-11.411,22.257-11.618,31.071a24.922,24.922,0,0,1-.642,3.989c-.036.168-.077.342-.119.519a31.3,31.3,0,0,1-3.811.384,29.264,29.264,0,0,1-3.45-.062,36.49,36.49,0,0,1-13.6-3.941s4.2-10.977,6.724-16.508c4.785-10.506,26.514-15.452,26.514-15.452" transform="translate(-71.74 -38.101)" fill="#d84459"/>
            <g id="Grupo_1192857" data-name="Grupo 1192857" transform="translate(115.271 70.583)" opacity="0.3" style="mix-blend-mode: multiply;isolation: isolate">
              <g id="Grupo_1192856" data-name="Grupo 1192856">
                <g id="Grupo_1192855" data-name="Grupo 1192855" clip-path="url(#clip-path-7)">
                  <path id="Trazado_1005700" data-name="Trazado 1005700" d="M203.049,120.861l-2.2,18.854-.015.015a29.512,29.512,0,0,1-3.45-.062Z" transform="translate(-197.381 -120.861)" fill="#606060"/>
                </g>
              </g>
            </g>
            <g id="Grupo_1192860" data-name="Grupo 1192860" transform="translate(99.82 92.566)" opacity="0.5">
              <g id="Grupo_1192859" data-name="Grupo 1192859">
                <g id="Grupo_1192858" data-name="Grupo 1192858" clip-path="url(#clip-path-8)">
                  <path id="Trazado_1005701" data-name="Trazado 1005701" d="M180.747,168.385c.047,4.3-6.805-.147-9.822-2.3.509-1.868,1.3-4.576,2.188-7.577,1.837,1.18,7.582,5.252,7.635,9.88" transform="translate(-170.925 -158.504)" fill="#ca7e86"/>
                </g>
              </g>
            </g>
            <path id="Trazado_1005702" data-name="Trazado 1005702" d="M163.592,176.676l-11.069-13.708c.1-3.427,5.222-6.189,5.222-6.189l14.838,8.657c8.227,7.1-1.893,19.464-8.991,11.24" transform="translate(-63.45 -65.22)" fill="#e5b7ac"/>
            <path id="Trazado_1005703" data-name="Trazado 1005703" d="M287.11,122.8s2,7.477,4.313,15.71c1.028,3.689,2.125,7.535,3.117,10.925,1.433,4.843,2.666,8.762,3.259,9.985l10.2.829c.01-.005.016-.011.016-.021a8.4,8.4,0,0,0,2.02-5.153,11.78,11.78,0,0,0-.22-3.064c-.084-.436-.278-1.2-.551-2.2-.509-1.868-1.3-4.575-2.188-7.577-2.634-8.857-6.181-20.264-6.181-20.264-6.307-6.228-13.784.829-13.784.829" transform="translate(-119.438 -49.674)" fill="#e5b7ac"/>
            <g id="Grupo_1192863" data-name="Grupo 1192863" transform="translate(180.003 92.566)" opacity="0.5">
              <g id="Grupo_1192862" data-name="Grupo 1192862">
                <g id="Grupo_1192861" data-name="Grupo 1192861" clip-path="url(#clip-path-8)">
                  <path id="Trazado_1005704" data-name="Trazado 1005704" d="M308.224,168.385c-.047,4.3,6.805-.147,9.822-2.3-.509-1.868-1.3-4.576-2.188-7.577-1.837,1.18-7.582,5.252-7.635,9.88" transform="translate(-308.224 -158.504)" fill="#ca7e86"/>
                </g>
              </g>
            </g>
            <path id="Trazado_1005705" data-name="Trazado 1005705" d="M315.9,176.676l11.069-13.708c-.1-3.427-4.942-6.189-4.942-6.189l-15.117,8.657c-8.227,7.1,1.893,19.464,8.991,11.24" transform="translate(-126.395 -65.22)" fill="#e5b7ac"/>
            <path id="Trazado_1005706" data-name="Trazado 1005706" d="M265.922,91.26s11.161,22.448,11.368,31.263a24.907,24.907,0,0,0,.641,3.989c.036.168.078.342.119.519a31.283,31.283,0,0,0,3.812.384,29.259,29.259,0,0,0,3.45-.062,36.485,36.485,0,0,0,13.6-3.941s-4.2-10.977-6.724-16.509C287.4,96.4,265.922,91.26,265.922,91.26" transform="translate(-110.624 -37.964)" fill="#d84459"/>
            <g id="Grupo_1192866" data-name="Grupo 1192866" transform="translate(169.02 70.583)" opacity="0.3" style="mix-blend-mode: multiply;isolation: isolate">
              <g id="Grupo_1192865" data-name="Grupo 1192865">
                <g id="Grupo_1192864" data-name="Grupo 1192864" clip-path="url(#clip-path-10)">
                  <path id="Trazado_1005707" data-name="Trazado 1005707" d="M289.418,120.861l1.876,18.892c-.326.039,2.649,0,3.792-.086Z" transform="translate(-289.418 -120.861)" fill="#606060"/>
                </g>
              </g>
            </g>
            <path id="Trazado_1005708" data-name="Trazado 1005708" d="M270.075,52.131s2.577-6.564,6.84-5.115-.138,12.349-6.689,10.213Z" transform="translate(-112.351 -19.472)" fill="#e5b7ac"/>
            <path id="Trazado_1005709" data-name="Trazado 1005709" d="M276.286,52.33a6.072,6.072,0,0,0-4.73,2.927.251.251,0,0,0,.091.344.243.243,0,0,0,.134.034.251.251,0,0,0,.21-.124,6.558,6.558,0,0,1,1.751-1.824c1.059.648.578,2.421.572,2.439a.252.252,0,0,0,.484.14c.025-.086.531-1.952-.591-2.863a4.408,4.408,0,0,1,2.008-.567h.078a.25.25,0,0,0,.249-.255.253.253,0,0,0-.255-.249" transform="translate(-112.953 -21.769)" fill="#ca7e86"/>
            <path id="Trazado_1005710" data-name="Trazado 1005710" d="M218.842,51.8l.151,5.1c-4.263,1.678-7.923-2.466-8.671-5.921-.374-1.743-.008-3.305,1.386-3.881,2.947-1.2,5.279,1.638,6.4,3.409a12.168,12.168,0,0,1,.733,1.3" transform="translate(-87.437 -19.472)" fill="#e5b7ac"/>
            <path id="Trazado_1005711" data-name="Trazado 1005711" d="M215.032,52.334a6.073,6.073,0,0,1,4.9,2.641.252.252,0,1,1-.419.28,6.546,6.546,0,0,0-1.856-1.718c-1.019.71-.433,2.45-.427,2.469a.252.252,0,0,1-.154.321.24.24,0,0,1-.076.015.25.25,0,0,1-.245-.168c-.03-.085-.646-1.917.42-2.893a4.4,4.4,0,0,0-2.038-.447l-.078,0a.249.249,0,0,1-.263-.24.251.251,0,0,1,.239-.263" transform="translate(-89.354 -21.769)" fill="#ca7e86"/>
            <path id="Trazado_1005712" data-name="Trazado 1005712" d="M251.555,37.853c.337,11.6-5.592,21.243-13.348,21.859a3.432,3.432,0,0,1-.488.035c-6.627.2-12.406-6.232-14.383-15.185a30.482,30.482,0,0,1-.733-5.849c-.349-11.848,5.849-17.441,13.837-17.685S251.206,26,251.555,37.853" transform="translate(-92.597 -8.745)" fill="#e5b7ac"/>
            <path id="Trazado_1005713" data-name="Trazado 1005713" d="M250.608,27.693s-2.408,1.576-3.1,3.013a26.394,26.394,0,0,1-1.125,7.925s-.649-6.71.255-10.415c.024-.11.053-.221.068-.321a10.207,10.207,0,0,0,.216-2.326,11.361,11.361,0,0,0-.106-1.4c-1.043-.913-3.882-2.245-4.146-5.541,0,0-11.612,6.226-16.99,5.6,1.211-2.389,4.042-4.175,4.09-4.285-.2.129-6.662,2.393-9.873,2.561a11.782,11.782,0,0,0-.471,3.057,10.841,10.841,0,0,0,.183,2.244c.043.231.091.461.154.7.975,3.69.466,10.405.466,10.405a27.091,27.091,0,0,1-1.293-8.045,5.728,5.728,0,0,0-2.514-2.888c-.216-.658-3.694-9.646-3.309-12a7.1,7.1,0,0,1,4.035-5.177l-3.172.115c4.4-10.553,19.18-12.745,26.567-9.558s6.94,9.822,6.94,9.822a5.6,5.6,0,0,1,6.453,4.908c.321,3.446-3.325,11.615-3.325,11.615" transform="translate(-88.641 0)" fill="#293959"/>
            <path id="Trazado_1005714" data-name="Trazado 1005714" d="M229.767,59.6c-.027.242-.645.371-1.379.288s-1.308-.345-1.281-.588.645-.371,1.379-.288,1.307.346,1.28.588" transform="translate(-94.476 -24.541)" fill="#ca7e86"/>
            <path id="Trazado_1005715" data-name="Trazado 1005715" d="M230.07,62.323c-.041-.24-.665-.332-1.393-.207s-1.285.422-1.243.662.665.332,1.393.207,1.285-.422,1.243-.662" transform="translate(-94.611 -25.817)" fill="#ca7e86"/>
            <path id="Trazado_1005716" data-name="Trazado 1005716" d="M263.741,61.345c.027-.242.644-.371,1.379-.288s1.308.345,1.28.587-.644.371-1.379.289-1.308-.346-1.28-.588" transform="translate(-109.716 -25.389)" fill="#ca7e86"/>
            <path id="Trazado_1005717" data-name="Trazado 1005717" d="M263.451,58.588c.041.24.665.332,1.393.207s1.285-.422,1.243-.662-.665-.332-1.393-.206-1.285.422-1.243.662" transform="translate(-109.595 -24.074)" fill="#ca7e86"/>
            <path id="Trazado_1005718" data-name="Trazado 1005718" d="M246.922,61.824c-.03,0-.061,0-.092,0-.379-.022-1.279-.318-1.441-2.59a19.416,19.416,0,0,1,.3-5.882.252.252,0,0,1,.486.13,19.352,19.352,0,0,0-.285,5.716c.109,1.531.571,2.1.968,2.123.581.041,1.427-.976,1.746-2.669a.252.252,0,1,1,.5.093c-.336,1.782-1.242,3.053-2.178,3.081" transform="translate(-102.052 -22.116)" fill="#ca7e86"/>
            <path id="Trazado_1005719" data-name="Trazado 1005719" d="M248.766,71.139a.54.54,0,0,0-.409.27,3.528,3.528,0,0,1-3.133,1.579H245.2a4.159,4.159,0,0,1-3.531-1.633.555.555,0,0,0-.424-.238.342.342,0,0,0-.31.134.288.288,0,0,0,0,.313,4.859,4.859,0,0,0,4.273,2.081h.029c3.058-.168,3.857-2.028,3.891-2.1a.278.278,0,0,0-.038-.3.358.358,0,0,0-.328-.106" transform="translate(-100.211 -29.585)" fill="#ca7e86"/>
            <path id="Trazado_1005720" data-name="Trazado 1005720" d="M257.26,45.9a3.545,3.545,0,0,0-2.783.092.716.716,0,1,1-.52-1.334,4.916,4.916,0,0,1,3.9-.059c1.818.818,2.5,3.55,2.132,3.687a12.24,12.24,0,0,0-2.73-2.386" transform="translate(-105.456 -18.396)" fill="#293959"/>
            <path id="Trazado_1005721" data-name="Trazado 1005721" d="M229.268,48.5c-.378-.114.143-2.882,1.91-3.806a4.91,4.91,0,0,1,3.9-.172.716.716,0,1,1-.44,1.363,3.543,3.543,0,0,0-2.794.078,12.253,12.253,0,0,0-2.574,2.537" transform="translate(-95.327 -18.391)" fill="#293959"/>
            <path id="Trazado_1005722" data-name="Trazado 1005722" d="M235.295,54.336c0,1.532.486,2.773,1.086,2.773s1.086-1.242,1.086-2.773-.486-2.774-1.086-2.774-1.086,1.242-1.086,2.774" transform="translate(-97.883 -21.45)" fill="#293959"/>
            <path id="Trazado_1005723" data-name="Trazado 1005723" d="M255.813,54.336c0,1.532.486,2.773,1.086,2.773s1.086-1.242,1.086-2.773-.487-2.774-1.086-2.774-1.086,1.242-1.086,2.774" transform="translate(-106.418 -21.45)" fill="#293959"/>
            <path id="Trazado_1005724" data-name="Trazado 1005724" d="M236.518,132.865l6.373-3.9,7.043,4.228s-2.979,3.665-7.441,3.381a6.986,6.986,0,0,1-5.975-3.706" transform="translate(-98.391 -53.648)" fill="#8e8e8e"/>
            <path id="Trazado_1005725" data-name="Trazado 1005725" d="M157.018,114.906l6.423-4.879a60.874,60.874,0,0,0,16.445,1.606c14.209-.732,24.7,1.281,29.932,9.452l-6.7,5.123s-23.417-11.627-46.1-11.3" transform="translate(-65.319 -45.771)" fill="#fff"/>
            <path id="Trazado_1005726" data-name="Trazado 1005726" d="M184.191,113.477a77.116,77.116,0,0,1-15.545-.984,59.88,59.88,0,0,0,15.569,1.471c14.976-.744,23.6,1.878,27.991,8.505l.407-.27c-4.5-6.787-13.263-9.478-28.422-8.723" transform="translate(-70.157 -46.797)" fill="#e5e6e7"/>
            <path id="Trazado_1005727" data-name="Trazado 1005727" d="M181.957,114.8a77.134,77.134,0,0,1-15.545-.984,59.853,59.853,0,0,0,15.569,1.471c14.976-.745,23.6,1.878,27.991,8.505l.407-.27c-4.5-6.788-13.263-9.479-28.422-8.723" transform="translate(-69.227 -47.347)" fill="#e5e6e7"/>
            <path id="Trazado_1005728" data-name="Trazado 1005728" d="M179.428,116.39a77.077,77.077,0,0,1-15.545-.984,59.83,59.83,0,0,0,15.569,1.471c14.977-.744,23.6,1.878,27.992,8.505l.406-.27c-4.5-6.787-13.26-9.478-28.422-8.723" transform="translate(-68.175 -48.009)" fill="#e5e6e7"/>
            <path id="Trazado_1005729" data-name="Trazado 1005729" d="M300.23,114.906l-6.423-4.879a60.874,60.874,0,0,1-16.445,1.606c-14.209-.732-24.7,1.281-29.932,9.452l6.7,5.123s23.417-11.627,46.1-11.3" transform="translate(-102.931 -45.771)" fill="#fff"/>
            <path id="Trazado_1005730" data-name="Trazado 1005730" d="M279.8,113.477a77.116,77.116,0,0,0,15.545-.984,59.88,59.88,0,0,1-15.569,1.471c-14.976-.744-23.6,1.878-27.991,8.505l-.407-.27c4.5-6.787,13.263-9.478,28.422-8.723" transform="translate(-104.574 -46.797)" fill="#e5e6e7"/>
            <path id="Trazado_1005731" data-name="Trazado 1005731" d="M282.244,114.8a77.134,77.134,0,0,0,15.546-.984,59.853,59.853,0,0,1-15.569,1.471c-14.976-.745-23.6,1.878-27.991,8.505l-.407-.27c4.5-6.788,13.263-9.479,28.422-8.723" transform="translate(-105.59 -47.347)" fill="#e5e6e7"/>
            <path id="Trazado_1005732" data-name="Trazado 1005732" d="M284.815,116.39a77.077,77.077,0,0,0,15.545-.984,59.83,59.83,0,0,1-15.569,1.471c-14.977-.744-23.6,1.878-27.992,8.505l-.407-.27c4.5-6.787,13.26-9.478,28.423-8.723" transform="translate(-106.659 -48.009)" fill="#e5e6e7"/>
            <path id="Trazado_1005733" data-name="Trazado 1005733" d="M207.212,129.863v44.029a9.242,9.242,0,0,1-5.235-1.308,6.1,6.1,0,0,1-2.024-2.034l-.078-.151c-13.045-5.932-41.336-5.4-41.336-5.4l-7.786-47.941s33.784-.366,48.3,7.927a7.845,7.845,0,0,0,2.927,3.484,8.987,8.987,0,0,0,5.235,1.395" transform="translate(-62.713 -48.695)" fill="#20a5ae"/>
            <path id="Trazado_1005734" data-name="Trazado 1005734" d="M236.382,134.116v44.117a6.113,6.113,0,0,1-2.025-2.034l-.078-.151-.825-45.415a7.837,7.837,0,0,0,2.927,3.484" transform="translate(-97.117 -54.343)" fill="#a5e3e4"/>
            <path id="Trazado_1005735" data-name="Trazado 1005735" d="M199.874,167.689c.051,0,.1.011.15.015L198.567,135.1a2.371,2.371,0,0,1-2.2-3.248c-5.509-1.715-21.031-6.033-35.752-5.39a2.37,2.37,0,0,1-2.22,3.234,2.394,2.394,0,0,1-.478-.048L162.871,163a2.125,2.125,0,0,1,2.792,1.9c5.786-.079,20.494.23,32.066,4.8A2.134,2.134,0,0,1,199.874,167.689Z" transform="translate(-65.692 -52.58)" fill="none" stroke="#fff" stroke-miterlimit="10" stroke-width="0.835"/>
            <path id="Trazado_1005736" data-name="Trazado 1005736" d="M247.429,129.863v44.029a9.238,9.238,0,0,0,5.234-1.308,6.1,6.1,0,0,0,2.025-2.034l.078-.151c13.045-5.932,41.336-5.4,41.336-5.4l7.786-47.941s-33.784-.366-48.3,7.927a7.844,7.844,0,0,1-2.928,3.484,8.983,8.983,0,0,1-5.234,1.395" transform="translate(-102.93 -48.695)" fill="#20a5ae"/>
            <path id="Trazado_1005737" data-name="Trazado 1005737" d="M256.392,134.116v44.117a6.113,6.113,0,0,0,2.025-2.034l.078-.151.824-45.415a7.837,7.837,0,0,1-2.927,3.484" transform="translate(-106.659 -54.343)" fill="#a5e3e4"/>
            <path id="Trazado_1005738" data-name="Trazado 1005738" d="M264.99,167.689c-.051,0-.1.011-.15.015L266.3,135.1a2.383,2.383,0,0,0,2.371-2.382,2.357,2.357,0,0,0-.168-.866c5.509-1.715,21.031-6.033,35.752-5.39a2.37,2.37,0,0,0,2.22,3.234,2.394,2.394,0,0,0,.478-.048L301.993,163a2.125,2.125,0,0,0-2.792,1.9c-5.786-.079-20.494.23-32.066,4.8A2.134,2.134,0,0,0,264.99,167.689Z" transform="translate(-110.173 -52.58)" fill="none" stroke="#fff" stroke-miterlimit="10" stroke-width="0.835"/>
            <path id="Trazado_1005739" data-name="Trazado 1005739" d="M273.454,124.262s7.789,20.1,5.91,26.754l-2.764-2.835-1.789,3.491s-1.412-16.771-5.617-25.949c0,0,2.177-1.748,4.261-1.461" transform="translate(-111.984 -51.68)" fill="#ff9600"/>
            <path id="Trazado_1005740" data-name="Trazado 1005740" d="M151.515,150.528s6.76-2.519,7.17-.475c.018,1.281-4.155,3.232-5.406,3.788,2.891-.668,7.375-2.391,8.078-.924.776,1.911-6.988,4.76-7.247,4.879s7.678-2.544,8.03-.667c.363,1.652-4.887,3.206-6.657,4.112,0,0,4.795-.892,5.07.159.378,1.631-2.712,2.4-5.33,2.907-1.734.2-2.777,0-3.106-.707-.4-.571.068-1.469.068-1.469a2.473,2.473,0,0,1-1.111-3.158s-2.369-1.817-1.156-3.856c0,0-3.6-2.363,1.6-4.59" transform="translate(-61.861 -62.089)" fill="#e5b7ac"/>
            <path id="Trazado_1005741" data-name="Trazado 1005741" d="M334.871,150.528s-6.76-2.519-7.17-.475c-.018,1.281,4.155,3.232,5.406,3.788-2.891-.668-7.375-2.391-8.078-.924-.776,1.911,6.988,4.76,7.247,4.879s-7.678-2.544-8.03-.667c-.363,1.652,4.887,3.206,6.657,4.112,0,0-4.795-.892-5.07.159-.378,1.631,2.712,2.4,5.33,2.907,1.735.2,2.777,0,3.106-.707.4-.571-.068-1.469-.068-1.469a2.473,2.473,0,0,0,1.112-3.158s2.369-1.817,1.156-3.856c0,0,3.6-2.363-1.6-4.59" transform="translate(-134.879 -62.089)" fill="#e5b7ac"/>
            <path id="Trazado_1005742" data-name="Trazado 1005742" d="M151.586,288.23c.134,8.445-5.543,15.2-12.689,15.2H76.422c.041-1.384.062-2.786.047-4.2,0-.59-.011-1.186-.026-1.781q-.047-2.391-.2-4.841c-.036-.6-.072-1.2-.119-1.81-.119-1.612-.264-3.247-.445-4.9-.062-.607-.13-1.215-.207-1.828q-.287-2.453-.663-4.97c-.093-.613-.186-1.232-.29-1.851-.238-1.53-.507-3.083-.8-4.649h64.3c7.354,0,13.424,7.055,13.564,15.64" transform="translate(-30.67 -113.397)" fill="#fff"/>
            <path id="Trazado_1005743" data-name="Trazado 1005743" d="M78.4,316.921c0-.59-.011-1.186-.026-1.781h63.395Z" transform="translate(-32.606 -131.098)" fill="#e5e6e7"/>
            <path id="Trazado_1005744" data-name="Trazado 1005744" d="M77.957,305.56c-.036-.6-.072-1.2-.119-1.81h63.52Z" transform="translate(-32.381 -126.36)" fill="#e5e6e7"/>
            <path id="Trazado_1005745" data-name="Trazado 1005745" d="M76.929,294.058c-.062-.607-.13-1.215-.207-1.828H140.7Z" transform="translate(-31.916 -121.568)" fill="#e5e6e7"/>
            <path id="Trazado_1005746" data-name="Trazado 1005746" d="M75.382,282.4c-.093-.613-.186-1.232-.29-1.851h64.725Z" transform="translate(-31.238 -116.709)" fill="#e5e6e7"/>
            <path id="Trazado_1005747" data-name="Trazado 1005747" d="M272.615,274.467c-2.565-4.831-7.133-7.99-12.6-7.99H89.874l.281,3.571h54.586c6.656,0,12.276,5.8,13.372,13.281a17.929,17.929,0,0,1,.192,2.358,17.54,17.54,0,0,1-.116,2.337c-.05.46-.123.913-.21,1.361s-.192.884-.311,1.309c-1.659,5.952-6.4,10.183-12.052,10.183H92.579l.3,3.769H257.058c8.824,0,16.725-8.3,17.692-18.745a20.338,20.338,0,0,0-2.135-11.435" transform="translate(-37.388 -110.854)" fill="#8092e8"/>
            <g id="Grupo_1192869" data-name="Grupo 1192869" transform="translate(68.05 155.623)" style="mix-blend-mode: soft-light;isolation: isolate">
              <g id="Grupo_1192868" data-name="Grupo 1192868">
                <g id="Grupo_1192867" data-name="Grupo 1192867" clip-path="url(#clip-path-11)">
                  <path id="Trazado_1005748" data-name="Trazado 1005748" d="M270.565,285.9c-.818,10.442-8.641,18.745-17.424,18.745H118.979l-.242-3.769H156.7c5.657,0,10.393-4.232,12.051-10.183q.18-.638.311-1.309c.088-.448.159-.9.21-1.361a17.74,17.74,0,0,0,.116-2.337,18.046,18.046,0,0,0-.192-2.358c-1.1-7.483-6.716-13.281-13.372-13.281H116.753l-.23-3.571H255.552c8.3,0,14.654,7.316,15.063,16.692a22.93,22.93,0,0,1-.049,2.733" transform="translate(-116.524 -266.477)" fill="#fff"/>
                </g>
              </g>
            </g>
            <path id="Trazado_1005749" data-name="Trazado 1005749" d="M228.482,266.477H89.875l.28,3.571h54.587c6.656,0,12.276,5.8,13.372,13.281a18.046,18.046,0,0,1,.192,2.358,17.74,17.74,0,0,1-.116,2.337c-.051.46-.123.913-.21,1.361s-.192.884-.311,1.308c-1.658,5.952-6.395,10.184-12.051,10.184H92.579l.3,3.769H226.631c7.523,0,14.226-6.066,16.431-14.34a22.806,22.806,0,0,0,.719-4.405c.677-10.644-6.186-19.424-15.3-19.424" transform="translate(-37.388 -110.854)" fill="#8092e8"/>
            <g id="Grupo_1192872" data-name="Grupo 1192872" transform="translate(52.487 155.623)" style="mix-blend-mode: soft-light;isolation: isolate">
              <g id="Grupo_1192871" data-name="Grupo 1192871">
                <g id="Grupo_1192870" data-name="Grupo 1192870" clip-path="url(#clip-path-12)">
                  <path id="Trazado_1005750" data-name="Trazado 1005750" d="M178.077,266.477h-88.2l.281,3.571h54.586c6.656,0,12.276,5.8,13.372,13.281a18.048,18.048,0,0,1,.193,2.358,17.64,17.64,0,0,1-.116,2.337c-.05.46-.122.913-.21,1.361s-.192.884-.311,1.308c-1.659,5.952-6.4,10.184-12.052,10.184H92.579l.3,3.769h85.116a15.121,15.121,0,0,0,11.413-5.5,20.794,20.794,0,0,0,4.871-13.242c.185-10.644-7.1-19.424-16.2-19.424" transform="translate(-89.874 -266.477)" fill="#fff"/>
                </g>
              </g>
            </g>
            <path id="Trazado_1005751" data-name="Trazado 1005751" d="M152.015,266.477H66a1.747,1.747,0,0,0-1.913,1.786l.034.374a2.07,2.07,0,0,0,1.938,1.761,4.19,4.19,0,0,0,.787.074l56.176-.356,10.99-.068c6.656,0,12.276,5.8,13.372,13.281a18.045,18.045,0,0,1,.193,2.358,17.737,17.737,0,0,1-.116,2.337c-.051.465-.123.919-.211,1.361s-.191.884-.311,1.308a12.032,12.032,0,0,1-11.855,9.195l-10.391-.086-54.929-.471a1.383,1.383,0,0,0-.478.1,3.056,3.056,0,0,0-.494.267,2.717,2.717,0,0,0-1.222,2.073,2.844,2.844,0,0,0,.814,2.15,1.926,1.926,0,0,0,1.322.728h82.76a14.658,14.658,0,0,0,10.473-4.56,20.233,20.233,0,0,0,5.542-14.184c.036-10.65-7.357-19.424-16.464-19.424" transform="translate(-26.657 -110.854)" fill="#8092e8"/>
            <g id="Grupo_1192875" data-name="Grupo 1192875" transform="translate(40.906 163.612)" opacity="0.2" style="mix-blend-mode: multiply;isolation: isolate">
              <g id="Grupo_1192874" data-name="Grupo 1192874">
                <g id="Grupo_1192873" data-name="Grupo 1192873" clip-path="url(#clip-path-13)">
                  <path id="Trazado_1005752" data-name="Trazado 1005752" d="M266.5,291.593c-.967,10.442-8.867,18.745-17.692,18.745H72.186a1.926,1.926,0,0,1-1.322-.728,2.844,2.844,0,0,1-.814-2.15q7.38-.008,14.347-.032,7.779-.032,15.055-.085c26.306-.2,47.929-.678,65.968-1.566,5.578-.273,10.809-.589,15.734-.943,23.872-1.739,40.542-4.516,53.658-8.836a95.026,95.026,0,0,0,16.468-7.138,101.8,101.8,0,0,0,13.086-8.7,20.337,20.337,0,0,1,2.135,11.435" transform="translate(-70.044 -280.158)" fill="#a5a7a9"/>
                </g>
              </g>
            </g>
            <path id="Trazado_1005753" data-name="Trazado 1005753" d="M368.445,338.146c-.025.14-.055.28-.074.42-.243,1.32-.471,2.622-.68,3.919-.094.566-.183,1.127-.267,1.688q-.357,2.278-.645,4.508c-.075.555-.144,1.11-.208,1.659-.179,1.5-.342,2.984-.476,4.444-.05.549-.1,1.092-.144,1.635q-.157,1.875-.258,3.7H293.879c-.015-.047-.03-.093-.04-.134-.025-.1-.054-.2-.084-.292s-.054-.2-.074-.292c-.06-.216-.109-.438-.159-.654-.02-.088-.034-.175-.055-.263-.029-.128-.054-.251-.074-.38,0-.023-.01-.041-.015-.064-.015-.088-.035-.175-.05-.269-.02-.134-.04-.263-.065-.4-.03-.234-.054-.473-.084-.712-.025-.263-.05-.526-.064-.794-.015-.21-.025-.432-.03-.648-.005-.1-.01-.2-.01-.3-.005-.216-.005-.444,0-.666s.01-.45.02-.672c.01-.1.015-.2.02-.3.015-.216.034-.432.054-.637v-.018c.025-.269.06-.531.094-.788.035-.239.07-.473.109-.712s.094-.467.144-.7c.02-.117.05-.234.079-.35s.055-.228.079-.345.065-.228.089-.333.064-.228.1-.339c.06-.21.129-.42.2-.631a.465.465,0,0,1,.03-.105c.054-.164.109-.327.168-.485.03-.07.05-.134.079-.193.069-.187.139-.368.213-.549.05-.111.095-.222.144-.327s.084-.187.128-.28a.513.513,0,0,0,.02-.058c.02-.047.045-.088.065-.134a.338.338,0,0,1,.025-.047c.06-.128.124-.257.189-.385.079-.152.158-.3.238-.444.065-.117.129-.228.194-.339.015-.035.03-.058.044-.088a.057.057,0,0,0,.015-.012c.079-.146.164-.286.248-.42s.173-.28.263-.415c.124-.181.248-.362.372-.537.064-.088.129-.175.2-.263s.128-.169.2-.251c.085-.117.169-.222.263-.333.015-.018.025-.023.035-.035.064-.082.129-.152.189-.228.094-.1.178-.2.273-.3a1.566,1.566,0,0,1,.128-.134,4.4,4.4,0,0,1,.382-.391c.075-.076.149-.146.228-.222s.154-.14.228-.2c.154-.14.308-.28.467-.409.079-.058.158-.128.243-.193a.828.828,0,0,0,.119-.093.612.612,0,0,1,.124-.088c.164-.129.327-.245.5-.356a10.139,10.139,0,0,1,1.031-.625c.179-.1.357-.187.536-.274.089-.047.179-.082.268-.123a2.332,2.332,0,0,1,.273-.117,4.526,4.526,0,0,1,.436-.169.166.166,0,0,1,.055-.023c.034-.012.069-.023.109-.041q.252-.088.506-.158a.108.108,0,0,1,.034-.012c.129-.035.258-.076.392-.111a.391.391,0,0,1,.04-.012.249.249,0,0,0,.064-.012c.045-.006.079-.018.124-.023.164-.041.337-.076.51-.111.193-.035.392-.058.59-.082s.392-.041.6-.053.4-.023.6-.023l37.8.006Z" transform="translate(-121.918 -140.666)" fill="#fff"/>
            <path id="Trazado_1005754" data-name="Trazado 1005754" d="M374.057,366.64c-.05.549-.1,1.092-.144,1.635l-61.7-1.635Z" transform="translate(-129.88 -152.522)" fill="#e5e6e7"/>
            <path id="Trazado_1005755" data-name="Trazado 1005755" d="M374.893,356.19c-.074.555-.144,1.11-.208,1.659l-62.108-1.659Z" transform="translate(-130.032 -148.175)" fill="#e5e6e7"/>
            <path id="Trazado_1005756" data-name="Trazado 1005756" d="M375.961,345.58c-.094.566-.183,1.127-.268,1.688L312.95,345.58Z" transform="translate(-130.187 -143.761)" fill="#e5e6e7"/>
            <path id="Trazado_1005757" data-name="Trazado 1005757" d="M114.487,331.835c-5.116,0-9.386,3.043-11.859,7.754a21.819,21.819,0,0,0-2.169,12.266,25.067,25.067,0,0,0,1.219,5.644H213.7c-.015-.048-.029-.091-.039-.134-.019-.069-.043-.145-.062-.22-.009-.027-.014-.048-.024-.075-.024-.1-.053-.193-.077-.289-.057-.215-.109-.435-.156-.655-.019-.086-.038-.172-.057-.263-.029-.129-.052-.252-.075-.381,0-.022-.01-.038-.015-.06-.013-.086-.033-.178-.046-.274-.023-.129-.041-.259-.064-.393-.032-.237-.058-.474-.085-.717-.009-.092-.018-.183-.026-.281-.018-.167-.03-.335-.043-.507-.012-.216-.023-.432-.029-.654,0-.1-.007-.2-.011-.3,0-.222,0-.444,0-.672s.013-.45.022-.667l.02-.31c.014-.212.033-.424.052-.636V350c.025-.266.06-.527.1-.784s.07-.474.11-.714.091-.47.141-.7c.022-.114.05-.235.078-.35s.055-.224.083-.345.061-.224.088-.333.066-.23.1-.339c.06-.208.126-.422.2-.625a.416.416,0,0,1,.033-.1c.055-.17.109-.329.169-.488.027-.066.049-.132.076-.2.071-.182.141-.363.217-.544.048-.11.092-.22.14-.325s.086-.193.129-.286a.548.548,0,0,0,.022-.055l.064-.132c.011-.017.016-.033.027-.05.06-.133.124-.259.188-.386.075-.149.156-.3.236-.441.064-.116.129-.226.193-.342.016-.033.032-.061.048-.088l.01-.011c.081-.144.166-.281.251-.42s.171-.277.262-.409c.123-.188.246-.366.373-.537.064-.095.128-.183.2-.266s.128-.166.2-.249a3.3,3.3,0,0,1,.266-.333.251.251,0,0,1,.032-.039c.064-.078.128-.15.192-.228.09-.1.175-.2.271-.294a.957.957,0,0,1,.127-.133,4.306,4.306,0,0,1,.382-.395l.228-.222.228-.206c.154-.139.307-.273.466-.406.079-.061.159-.128.244-.189.042-.028.079-.061.121-.095a1.02,1.02,0,0,1,.121-.089c.164-.128.328-.245.5-.357a11.791,11.791,0,0,1,1.034-.625c.174-.1.353-.19.532-.274.089-.044.179-.083.269-.123s.179-.078.273-.117c.147-.062.289-.123.436-.173a.2.2,0,0,1,.053-.022,1.03,1.03,0,0,0,.11-.039c.168-.056.336-.112.509-.157a.077.077,0,0,1,.031-.011c.131-.033.258-.072.394-.106.011-.006.026-.006.037-.011l.068-.017c.042-.005.079-.017.12-.022.168-.039.341-.078.513-.112.194-.034.392-.061.591-.084s.391-.039.595-.05.4-.017.6-.017H278.87l.31-3.688Z" transform="translate(-41.74 -138.043)" fill="#fec442"/>
            <path id="Trazado_1005758" data-name="Trazado 1005758" d="M274.642,331.835l-.253,3.688H236.582c-.2,0-.4.006-.6.017s-.4.028-.6.05-.4.05-.59.084c-.173.034-.346.073-.513.112-.041.005-.078.017-.12.022l-.068.017c-.011.005-.026.005-.037.011-.136.034-.262.073-.393.106a.076.076,0,0,0-.032.011c-.173.045-.341.1-.509.157a1.033,1.033,0,0,1-.11.039.2.2,0,0,0-.053.022c-.147.05-.289.112-.437.173-.095.039-.184.072-.273.117s-.179.078-.269.123c-.179.084-.358.179-.532.274-.353.19-.7.4-1.034.625-.169.117-.333.234-.5.357a.973.973,0,0,0-.121.089c-.043.033-.079.067-.121.095-.085.061-.164.128-.244.189-.159.134-.312.267-.466.406l-.228.206-.228.222a4.465,4.465,0,0,0-.382.395.992.992,0,0,0-.127.133c-.1.095-.18.194-.27.294-.064.078-.128.15-.192.228a.249.249,0,0,0-.032.039,3.378,3.378,0,0,0-.266.333c-.069.083-.133.166-.2.249a3.284,3.284,0,0,0-.2.266c-.128.171-.251.349-.373.537-.091.133-.176.271-.262.409s-.171.276-.251.42l-.011.011c-.016.027-.032.055-.048.088-.064.116-.128.227-.193.342-.081.144-.161.293-.236.441-.064.127-.129.253-.188.386-.011.016-.016.033-.027.05-.022.044-.043.088-.064.132-.006.022-.016.039-.022.055-.043.093-.086.193-.13.286s-.092.215-.14.325c-.075.182-.146.363-.216.544-.027.066-.049.132-.076.2-.06.159-.114.318-.169.488a.393.393,0,0,0-.033.1c-.071.2-.136.416-.2.625-.033.109-.066.224-.1.339s-.061.224-.088.333-.061.235-.083.345-.055.235-.078.35c-.05.235-.1.47-.141.7s-.075.469-.11.714-.071.517-.1.784v.016c-.019.212-.039.424-.052.636l-.021.31c-.009.217-.018.445-.022.667s0,.45,0,.672c0,.1.006.2.01.3.006.221.018.437.03.654.012.173.025.34.042.507.009.1.018.189.026.281.027.242.053.479.085.717.023.134.041.264.065.393.013.1.032.188.046.274,0,.022.009.038.014.06.023.129.047.252.075.381.019.091.038.178.057.263.047.22.1.44.156.655.024.1.053.193.077.289.009.027.014.048.024.075.019.075.043.15.062.22.01.043.024.086.039.134H126.869a24.908,24.908,0,0,1-1.138-5.644,23.7,23.7,0,0,1,.366-6.67c1.574-7.744,7.049-13.35,13.968-13.35Z" transform="translate(-52.268 -138.043)" fill="#ff9600"/>
            <path id="Trazado_1005759" data-name="Trazado 1005759" d="M166.358,331.835c-7.823,0-13.892,7.143-14.628,16.426a24.739,24.739,0,0,0,1.032,9.238h82.29c-.015-.048-.029-.091-.039-.134-.019-.069-.043-.145-.062-.22-.009-.027-.014-.048-.024-.075-.023-.1-.053-.193-.076-.289-.057-.215-.11-.435-.156-.655-.019-.086-.038-.172-.057-.263-.029-.129-.052-.252-.075-.381,0-.022-.01-.038-.015-.06-.013-.086-.033-.178-.046-.274-.023-.129-.041-.259-.064-.393-.032-.237-.058-.474-.085-.717-.009-.092-.018-.183-.026-.281-.018-.167-.03-.335-.043-.507-.012-.216-.023-.432-.029-.654,0-.1-.007-.2-.011-.3,0-.222,0-.444,0-.672s.013-.45.022-.667l.02-.31c.014-.212.033-.424.052-.636V350c.025-.266.06-.527.1-.784s.07-.474.11-.714.091-.47.141-.7c.023-.114.05-.235.078-.35s.055-.224.083-.345.061-.224.088-.333.066-.23.1-.339c.06-.208.126-.422.2-.625a.416.416,0,0,1,.033-.1c.055-.17.109-.329.169-.488.027-.066.049-.132.076-.2.071-.182.141-.363.217-.544.048-.11.092-.22.14-.325s.086-.193.129-.286a.437.437,0,0,0,.022-.055l.065-.132c.01-.017.016-.033.026-.05.06-.133.124-.259.188-.386.075-.149.156-.3.236-.441.064-.116.129-.226.193-.342.016-.033.032-.061.048-.088l.01-.011c.081-.144.166-.281.251-.42s.171-.277.262-.409c.123-.188.245-.366.373-.537a3.279,3.279,0,0,1,.2-.266c.064-.083.128-.166.2-.249a3.3,3.3,0,0,1,.266-.333.251.251,0,0,1,.032-.039c.064-.078.128-.15.192-.228.091-.1.175-.2.271-.294a.957.957,0,0,1,.127-.133,4.306,4.306,0,0,1,.382-.395l.228-.222.228-.206c.154-.139.307-.273.466-.406.079-.061.158-.128.243-.189.042-.028.079-.061.121-.095a1.02,1.02,0,0,1,.121-.089c.164-.128.328-.245.5-.357a11.791,11.791,0,0,1,1.034-.625c.174-.1.353-.19.532-.274.089-.044.179-.083.269-.123s.179-.078.273-.117c.147-.062.289-.123.436-.173a.2.2,0,0,1,.053-.022,1.03,1.03,0,0,0,.11-.039c.168-.056.336-.112.509-.157a.076.076,0,0,1,.032-.011c.131-.033.257-.072.393-.106.011-.006.026-.006.037-.011l.068-.017c.042-.005.079-.017.121-.022.168-.039.34-.078.513-.112.194-.034.392-.061.591-.084s.391-.039.595-.05.4-.017.6-.017h52.815l.31-3.688Z" transform="translate(-63.089 -138.043)" fill="#fec442"/>
            <path id="Trazado_1005760" data-name="Trazado 1005760" d="M249.237,331.835c-8.81,0-15.837,9.058-15.633,20.02.005.281.015.558.031.833a23.916,23.916,0,0,0,.741,4.81H269.14c-.014-.048-.029-.091-.038-.134-.019-.069-.043-.145-.062-.22-.009-.027-.014-.048-.024-.075-.024-.1-.053-.193-.077-.289-.057-.215-.109-.435-.157-.655-.019-.086-.037-.172-.056-.263-.029-.129-.052-.252-.075-.381,0-.022-.009-.038-.014-.06-.014-.086-.033-.178-.046-.274-.023-.129-.041-.259-.065-.393-.032-.237-.058-.474-.084-.717-.009-.092-.018-.183-.026-.281-.018-.167-.03-.335-.043-.507-.012-.216-.023-.432-.03-.654,0-.1-.006-.2-.01-.3,0-.222,0-.444,0-.672s.013-.45.022-.667l.021-.31c.014-.212.033-.424.052-.636V350c.025-.266.061-.527.1-.784s.07-.474.11-.714.09-.47.141-.7c.022-.114.05-.235.078-.35s.055-.224.083-.345.061-.224.088-.333.066-.23.1-.339c.061-.208.126-.422.2-.625a.416.416,0,0,1,.033-.1c.055-.17.109-.329.169-.488.027-.066.049-.132.076-.2.07-.182.141-.363.216-.544.048-.11.092-.22.141-.325s.086-.193.129-.286c.005-.016.016-.033.022-.055l.064-.132c.011-.017.016-.033.027-.05.06-.133.124-.259.188-.386.075-.149.156-.3.236-.441.064-.116.129-.226.193-.342.016-.033.032-.061.048-.088l.01-.011c.08-.144.166-.281.251-.42s.171-.277.262-.409c.123-.188.245-.366.373-.537.064-.095.128-.183.2-.266s.128-.166.2-.249a3.374,3.374,0,0,1,.266-.333.289.289,0,0,1,.032-.039c.064-.078.127-.15.192-.228.09-.1.175-.2.27-.294a.99.99,0,0,1,.127-.133,4.389,4.389,0,0,1,.383-.395l.228-.222.228-.206c.154-.139.307-.273.466-.406.079-.061.159-.128.244-.189.042-.028.079-.061.121-.095a1.02,1.02,0,0,1,.121-.089c.164-.128.328-.245.5-.357a11.791,11.791,0,0,1,1.034-.625c.174-.1.353-.19.532-.274.089-.044.179-.083.268-.123s.179-.078.274-.117c.147-.062.289-.123.436-.173a.2.2,0,0,1,.053-.022,1.03,1.03,0,0,0,.11-.039c.168-.056.336-.112.509-.157a.079.079,0,0,1,.032-.011c.131-.033.257-.072.394-.106.011-.006.026-.006.037-.011l.068-.017c.042-.005.079-.017.12-.022.168-.039.34-.078.513-.112.194-.034.392-.061.59-.084s.392-.039.6-.05.4-.017.6-.017h52.815l.31-3.688Z" transform="translate(-97.177 -138.043)" fill="#ff9600"/>
            <path id="Trazado_1005761" data-name="Trazado 1005761" d="M357.7,331.835H274.44c-8.815,0-15.968,9.058-15.929,20.02,0,.482.019.953.051,1.423a23.633,23.633,0,0,0,.636,4.221h20.314c-.039-.118-.072-.235-.11-.353s-.067-.246-.1-.364c-.057-.215-.109-.435-.157-.655-.019-.086-.038-.172-.057-.263-.028-.129-.051-.252-.075-.381,0-.022-.009-.038-.014-.06-.014-.086-.033-.178-.047-.274-.023-.129-.041-.259-.064-.393-.032-.237-.058-.474-.085-.717-.009-.092-.017-.183-.026-.281-.018-.167-.03-.335-.042-.507-.012-.216-.023-.432-.03-.654,0-.1-.007-.2-.01-.3,0-.222,0-.444,0-.672s.013-.45.022-.667l.02-.31c.014-.212.033-.424.052-.636V350c.025-.266.06-.527.1-.784s.07-.474.11-.714.091-.47.141-.7c.023-.114.051-.235.078-.35s.055-.224.083-.345.06-.224.088-.333.066-.23.1-.339c.06-.208.126-.422.2-.625a.373.373,0,0,1,.033-.1c.054-.17.109-.329.169-.488.027-.066.048-.132.075-.2.071-.182.141-.363.217-.544.048-.11.092-.22.14-.325s.086-.193.129-.286a.427.427,0,0,0,.022-.055l.065-.132c.011-.017.016-.033.027-.05.059-.133.123-.259.188-.386.075-.149.155-.3.236-.441.064-.116.128-.226.193-.342.016-.033.032-.061.048-.088l.01-.011c.081-.144.166-.281.252-.42s.171-.277.262-.409c.123-.188.245-.366.373-.537.064-.095.128-.183.2-.266s.128-.166.2-.249a3.46,3.46,0,0,1,.266-.333.22.22,0,0,1,.032-.039c.064-.078.127-.15.191-.228.091-.1.176-.2.271-.294a.992.992,0,0,1,.127-.133,4.469,4.469,0,0,1,.382-.395l.228-.222.228-.206c.154-.139.307-.273.466-.406.079-.061.159-.128.243-.189.043-.028.079-.061.122-.095a.928.928,0,0,1,.121-.089c.164-.128.328-.245.5-.357a11.964,11.964,0,0,1,1.034-.625c.174-.1.353-.19.532-.274.09-.044.179-.083.269-.123s.179-.078.273-.117c.147-.062.29-.123.436-.173a.216.216,0,0,1,.053-.022,1.132,1.132,0,0,0,.11-.039c.168-.056.336-.112.509-.157a.076.076,0,0,1,.032-.011c.131-.033.257-.072.393-.106.01-.006.026-.006.037-.011l.068-.017c.041-.005.078-.017.12-.022.168-.039.34-.078.513-.112.193-.034.392-.061.59-.084s.392-.039.6-.05.4-.017.6-.017l62.136.42,2.845.017c1.1,0,2.515-.442,2.659-1.9l.037-.383a1.721,1.721,0,0,0-1.829-1.847" transform="translate(-107.541 -138.043)" fill="#fec442"/>
            <g id="Grupo_1192878" data-name="Grupo 1192878" transform="translate(58.597 201.546)" opacity="0.2" style="mix-blend-mode: multiply;isolation: isolate">
              <g id="Grupo_1192877" data-name="Grupo 1192877">
                <g id="Grupo_1192876" data-name="Grupo 1192876" clip-path="url(#clip-path-14)">
                  <path id="Trazado_1005762" data-name="Trazado 1005762" d="M213.713,363.023H101.678a25.067,25.067,0,0,1-1.219-5.644,21.819,21.819,0,0,1,2.169-12.266c1.975,1.658,5.765,3.641,12.941,5.595a146.33,146.33,0,0,0,14.813,3.077c11.216,1.8,26.627,3.393,47.816,4.427q6.864.341,14.566.589,9.439.315,20.216.48c.008.1.017.189.026.281.026.242.053.479.085.717.023.134.041.263.064.393.013.1.033.188.046.274,0,.022.01.038.015.06.023.128.046.252.075.381.019.091.037.178.057.263.047.22.1.44.156.655.033.118.067.241.1.364s.072.235.111.353" transform="translate(-100.337 -345.113)" fill="#a5a7a9"/>
                </g>
              </g>
            </g>
          </g>
        </g>
      </g>
    </g>
  </g>
</svg>
