<svg xmlns="http://www.w3.org/2000/svg" xmlns:xlink="http://www.w3.org/1999/xlink" width="150" height="150" viewBox="0 0 150 150">
  <defs>
    <clipPath id="clip-path">
      <rect id="Rect치ngulo_454535" data-name="Rect치ngulo 454535" width="47.347" height="49.665" fill="#cff878"/>
    </clipPath>
  </defs>
  <g id="Grupo_1192885" data-name="Grupo 1192885" transform="translate(-308.711 -3533)">
    <path id="Elipse_5729" data-name="Elipse 5729" d="M75,0A75,75,0,1,1,0,75,75,75,0,0,1,75,0Z" transform="translate(308.711 3533)" fill="#e795ff"/>
    <rect id="Rect치ngulo_455479" data-name="Rect치ngulo 455479" width="120" height="120" rx="60" transform="translate(323.711 3548)" fill="#f8dfff"/>
    <g id="Grupo_1192524" data-name="Grupo 1192524" transform="translate(326.653 3558.335)">
      <g id="Grupo_1176862" data-name="Grupo 1176862" clip-path="url(#clip-path)">
        <path id="Trazado_991676" data-name="Trazado 991676" d="M27.639,9.734,24.725.764a1.105,1.105,0,0,0-2.1,0l-2.915,8.97a1.105,1.105,0,0,1-1.7.553L10.377,4.743a1.105,1.105,0,0,0-1.7,1.236l2.915,8.97A1.105,1.105,0,0,1,10.54,16.4H1.108a1.105,1.105,0,0,0-.65,2l7.631,5.544a1.105,1.105,0,0,1,0,1.788L.458,31.271a1.105,1.105,0,0,0,.65,2H10.54a1.105,1.105,0,0,1,1.051,1.447l-2.915,8.97a1.105,1.105,0,0,0,1.7,1.236l7.631-5.544a1.105,1.105,0,0,1,1.7.552l2.915,8.97a1.105,1.105,0,0,0,2.1,0l2.915-8.97a1.105,1.105,0,0,1,1.7-.552l7.631,5.544a1.105,1.105,0,0,0,1.7-1.236l-2.915-8.97a1.105,1.105,0,0,1,1.051-1.447H46.24a1.105,1.105,0,0,0,.65-2l-7.631-5.544a1.105,1.105,0,0,1,0-1.788l7.631-5.544a1.105,1.105,0,0,0-.65-2H36.808a1.105,1.105,0,0,1-1.051-1.447l2.915-8.97a1.105,1.105,0,0,0-1.7-1.236L29.34,10.287a1.105,1.105,0,0,1-1.7-.553" transform="translate(0)" fill="#cff878"/>
      </g>
    </g>
    <g id="layer1" transform="translate(340.541 3564.83)">
      <path id="path6238" d="M12.406,15.1.905,10.725,2.316,5.6.265.265,9.6,4.754,7.712,9.067Z" transform="translate(1.084 1.084)" fill="#ffca28"/>
      <path id="circle6231" d="M29.153,19.471a8.094,8.094,0,1,1-8.094-8.094A8.094,8.094,0,0,1,29.153,19.471Z" transform="translate(53.139 46.632)" fill="#e4eff8"/>
      <path id="circle6235" d="M21.059,11.377a8.087,8.087,0,0,0-4.211,15,8.08,8.08,0,0,1,11.119-11.1,8.094,8.094,0,0,0-6.909-3.892Z" transform="translate(53.139 46.632)" fill="#c4dcf0"/>
      <path id="path6204" d="M13.507,23.437c1.742,4.292-1.944,3.38,1.314,6.681s2.406-.385,6.685,1.423,1.024,3.759,5.672,3.8,1.427-1.967,5.737-3.7,3.393,1.937,6.708-1.309-.387-2.4,1.428-6.658,3.774-1.02,3.814-5.869c-.04-4.849-2-1.608-3.814-5.869s1.886-3.412-1.428-6.658-2.4.426-6.708-1.309S31.826.226,27.178.265s-1.393,1.991-5.672,3.8-3.426-1.879-6.685,1.423.428,2.389-1.314,6.681S9.75,13.252,9.79,17.8c-.04,4.551,1.975,1.343,3.717,5.635Z" transform="translate(40.126 1.084)" fill="#549ad4"/>
      <g id="Grupo_1192884" data-name="Grupo 1192884" transform="translate(49.915 1.348)">
        <path id="path6219" d="M9.8,3.677c0,.055-.008.082-.008.14-.04,4.551,1.976,1.344,3.718,5.636s-1.946,3.378,1.312,6.679c2.988,3.027,2.532.192,5.731,1.091A25.745,25.745,0,0,0,9.8,3.677Z" transform="translate(-9.789 13.722)" fill="#3588cb"/>
        <path id="path6217" d="M14.788.265a6.214,6.214,0,0,0-1.976.25c1.515.582.3,2.1,3.665,3.452a4.267,4.267,0,0,0,4.037-.005C16.226,2.228,19.431.226,14.788.265Z" transform="translate(2.6 -0.264)" fill="#3588cb"/>
        <path id="path6215" d="M17.533.977c-.845-.067-1.343.72-2.88.54a9.1,9.1,0,0,1,.988.854c3.315,3.245-.387,2.394,1.428,6.656s3.776,1.022,3.815,5.871c-.04,4.849-2,1.609-3.815,5.871s1.887,3.41-1.428,6.656a9.1,9.1,0,0,1-.988.854c2.443-.286,2.242,1.881,5.035-.854C23,24.178,19.3,25.03,21.116,20.768s3.776-1.022,3.815-5.871c-.04-4.849-2-1.609-3.815-5.871S23,5.617,19.688,2.371C18.652,1.357,18.031,1.017,17.533.977Z" transform="translate(10.145 2.641)" fill="#3588cb"/>
        <path id="path6209" d="M18.414,6.326a6.1,6.1,0,0,0-1.937.487c-3.366,1.355-2.15,2.869-3.665,3.452a6.214,6.214,0,0,0,1.976.25c4.643.039,1.438-1.963,5.726-3.7a4.81,4.81,0,0,0-2.1-.493Z" transform="translate(2.6 24.56)" fill="#3588cb"/>
      </g>
      <path id="path6166" d="M31.293,61.89l-6.655,2.7L11.057,63.239,6.83,44.435.265,42.458,6.829,28.616a25.722,25.722,0,0,1,51.445,0c0,14.64,0,32.085,0,44.445H21.85L20.5,64.588Z" transform="translate(1.084 11.929)" fill="#ffd1b5"/>
      <path id="path6168" d="M41.325,4.174C55.058,47.942,16.175,54.563,2.271,55.55l.564,2.508,10.619,1.054-1.175.3,1.349,8.474H50.052V23.436A25.612,25.612,0,0,0,41.325,4.175Z" transform="translate(9.307 17.11)" fill="#ffb98d"/>
      <path id="path6174" d="M6.939,30.632c2.01,4.952-2.244,3.9,1.516,7.709s2.776-.445,7.713,1.642,1.182,4.337,6.545,4.383,1.647-2.269,6.619-4.271,3.915,2.235,7.74-1.51S36.626,35.82,38.72,30.9s4.355-1.177,4.4-6.772c-.046-5.595-2.306-1.855-4.4-6.772s2.176-3.937-1.648-7.682-2.768.492-7.74-1.51S28.076,3.849,22.713,3.9s-1.608,2.3-6.545,4.383S12.215,6.11,8.455,9.92s.494,2.756-1.516,7.709S2.6,18.879,2.65,24.13c-.046,5.251,2.278,1.55,4.288,6.5Z" transform="translate(10.86 15.962)" fill="#e4eff8"/>
      <path id="path6202" d="M26.083,16.613A10.792,10.792,0,1,1,15.29,5.821,10.793,10.793,0,0,1,26.083,16.613Z" transform="translate(18.436 23.858)" fill="#549ad4"/>
      <path id="path6185" d="M8.154,3.895A8.647,8.647,0,0,0,6.2,4.087c2.185.589.43,2.438,4.506,4.079,2.515,1.013,3.487.434,4.329.095-.091-.034-.169-.057-.263-.095-4.972-2-1.256-4.317-6.619-4.271Z" transform="translate(25.42 15.961)" fill="#c4dcf0"/>
      <path id="path6183" d="M11.071,4.717c-.847-.067-1.392.608-2.68.653a10.454,10.454,0,0,1,1.1.951c3.825,3.745-.445,2.766,1.649,7.683s4.354,1.177,4.4,6.772c-.046,5.595-2.306,1.854-4.4,6.772s2.175,3.939-1.649,7.683a10.426,10.426,0,0,1-1.107.954c2.167.073,2.214,1.943,5.172-.954,3.825-3.745-.445-2.766,1.649-7.683s4.354-1.177,4.4-6.772c-.046-5.595-2.306-1.854-4.4-6.772s2.175-3.939-1.649-7.683c-1.2-1.17-1.913-1.559-2.487-1.6Z" transform="translate(34.373 19.315)" fill="#c4dcf0"/>
      <path id="path6178" d="M12.939,10.889a7.016,7.016,0,0,0-2.232.561C6.632,13.091,8.386,14.939,6.2,15.529a8.643,8.643,0,0,0,1.952.192c5.363.045,1.647-2.269,6.619-4.271.095-.038.173-.061.263-.095a4.292,4.292,0,0,0-2.1-.466Z" transform="translate(25.42 44.607)" fill="#c4dcf0"/>
      <path id="path6187" d="M21.216,13.576c0,5.4-4.047,6.745-4.047,8.355v3.786a2.692,2.692,0,0,1-2.7,2.7h-2.7a2.692,2.692,0,0,1-2.7-2.7V21.931c0-1.61-4.047-2.959-4.047-8.355a8.094,8.094,0,1,1,16.189,0Z" transform="translate(20.605 22.469)" fill="#ffca28"/>
      <path id="path6198" d="M8.784,5.482a8.067,8.067,0,0,0-2.7.472,8.088,8.088,0,0,1,5.4,7.623c0,5.4-4.047,6.745-4.047,8.355v3.786a2.684,2.684,0,0,1-1.349,2.327,2.674,2.674,0,0,0,1.349.372h2.7a2.692,2.692,0,0,0,2.7-2.7V21.931c0-1.61,4.047-2.959,4.047-8.355A8.094,8.094,0,0,0,8.784,5.482Z" transform="translate(24.943 22.469)" fill="#ecb200"/>
      <path id="path6189" d="M13.915,8.708v3.786a2.692,2.692,0,0,1-2.7,2.7h-2.7a2.692,2.692,0,0,1-2.7-2.7V8.708Z" transform="translate(23.859 35.693)" fill="#e4eff8"/>
      <path id="path6191" d="M11.609,8.708a8.841,8.841,0,0,1-5.641,5.649,2.683,2.683,0,0,0,1.947.835h2.7a2.692,2.692,0,0,0,2.7-2.7V8.708Z" transform="translate(24.462 35.692)" fill="#c4dcf0"/>
      <path id="circle6224" d="M27.825,10.209a8.092,8.092,0,1,1-8.092-8.092A8.092,8.092,0,0,1,27.825,10.209Z" transform="translate(47.717 8.68)" fill="#e4eff8"/>
      <path id="circle6228" d="M19.733,2.118A8.085,8.085,0,0,0,15.526,17.11a8.079,8.079,0,0,1,11.114-11.1,8.092,8.092,0,0,0-6.906-3.889Z" transform="translate(47.717 8.68)" fill="#c4dcf0"/>
      <path id="path11361" d="M.091,1.833,1.983,6.755l-1.294,4.7a1.349,1.349,0,0,0,.825,1.615l11.493,4.382a1.349,1.349,0,0,0,1.555-2.092l-4.2-5.4,1.562-3.575a1.347,1.347,0,0,0-.648-1.763L1.933.131a1.35,1.35,0,0,0-1.842,1.7ZM48.58,1.206l-.34,2.669a1.351,1.351,0,0,0,2.68.34l.337-2.68a1.348,1.348,0,0,0-2.677-.33ZM84.308,14.5a3.487,3.487,0,0,1-.9-.477,3.89,3.89,0,0,1-.988-1.533A3.823,3.823,0,0,1,82,10.725a2.82,2.82,0,0,1,.277-.927A2.861,2.861,0,0,0,82.4,7.745,6.17,6.17,0,0,0,80.7,5.4,6.2,6.2,0,0,0,78.3,3.743a2.8,2.8,0,0,0-2.05.15,2.858,2.858,0,0,1-.927.287A3.861,3.861,0,0,1,73.546,3.8,3.832,3.832,0,0,1,72,2.847a2.9,2.9,0,0,1-.469-.856A2.84,2.84,0,0,0,70.16.457,6.154,6.154,0,0,0,67.454,0a6.153,6.153,0,0,0-2.706.456,2.841,2.841,0,0,0-1.373,1.533,2.9,2.9,0,0,1-.469.856,3.832,3.832,0,0,1-1.544.956,3.826,3.826,0,0,1-1.781.377,2.813,2.813,0,0,1-.927-.287,2.805,2.805,0,0,0-2.05-.15A6.2,6.2,0,0,0,54.211,5.4a6.169,6.169,0,0,0-1.7,2.348A2.872,2.872,0,0,0,52.63,9.8a2.883,2.883,0,0,1,.277.927,3.847,3.847,0,0,1-.417,1.763,3.893,3.893,0,0,1-.988,1.533,3.483,3.483,0,0,1-.9.477,2.9,2.9,0,0,0-1.536,1.433,5.4,5.4,0,0,0-.472,2.058A27.078,27.078,0,0,0,6.57,40.208l-6.44,13.6a1.365,1.365,0,0,0,.827,1.871l5.815,1.755,4.052,18.032a1.35,1.35,0,0,0,1.186,1.046l8.345.827L21.6,85.2a1.348,1.348,0,0,0,1.333,1.136H59.365a1.351,1.351,0,0,0,1.344-1.357V40.54a26.988,26.988,0,0,0-.935-7.066,4.44,4.44,0,0,1,1.332.392,3.883,3.883,0,0,1,1.533.977,2.925,2.925,0,0,1,.448.864,2.808,2.808,0,0,0,1.346,1.555,6.076,6.076,0,0,0,2.856.508,6.48,6.48,0,0,0,2.869-.458,2.867,2.867,0,0,0,1.373-1.533A2.9,2.9,0,0,1,72,34.922a3.851,3.851,0,0,1,1.544-.946,3.913,3.913,0,0,1,1.781-.39,2.823,2.823,0,0,1,.927.29,2.851,2.851,0,0,0,2.05.15A6.1,6.1,0,0,0,80.7,32.372a6.05,6.05,0,0,0,1.7-2.35,2.84,2.84,0,0,0-.121-2.05A2.87,2.87,0,0,1,82,27.044a3.851,3.851,0,0,1,.416-1.763,3.894,3.894,0,0,1,.988-1.533,3.484,3.484,0,0,1,.9-.477,2.916,2.916,0,0,0,1.536-1.433,6.631,6.631,0,0,0,.5-2.954,6.636,6.636,0,0,0-.5-2.954A2.9,2.9,0,0,0,84.308,14.5ZM68.9,2.849c.086.041.057.005.163.226a5.325,5.325,0,0,0,.9,1.544A6.61,6.61,0,0,0,72.538,6.3a6.576,6.576,0,0,0,3.017.569,5.443,5.443,0,0,0,1.723-.48c.136-.062.211-.113.314-.036a4.655,4.655,0,0,1,1.209.964,4.512,4.512,0,0,1,1,1.217c.031.087.059.031-.036.277a5.415,5.415,0,0,0-.458,1.734,6.5,6.5,0,0,0,.627,3,6.635,6.635,0,0,0,1.723,2.54,5.662,5.662,0,0,0,1.533.877c.208.095.183.072.245.2a5.127,5.127,0,0,1,.2,1.72,4.734,4.734,0,0,1-.219,1.773c-.041.082-.119.094-.229.158a5.661,5.661,0,0,0-1.533.877,6.635,6.635,0,0,0-1.723,2.54,6.544,6.544,0,0,0-.627,3.006,5.343,5.343,0,0,0,.458,1.723c.02.08.082.158.053.245a4.652,4.652,0,0,1-1.02,1.249,4.656,4.656,0,0,1-1.267,1c-.092.031-.112-.02-.255-.061a5.411,5.411,0,0,0-1.723-.487,7.882,7.882,0,0,0-5.6,2.25,5.325,5.325,0,0,0-.9,1.544c-.1.242-.1.2-.242.25a5.2,5.2,0,0,1-1.51.126,4.724,4.724,0,0,1-1.623-.2c-.036-.02-.075-.147-.111-.208A5.4,5.4,0,0,0,64.7,33.1a7.935,7.935,0,0,0-5.481-2.345c-.111.005-.229.015-.332.031a27.159,27.159,0,0,0-7.565-10.723,8.923,8.923,0,0,1-.061-1.183,5.066,5.066,0,0,1,.2-1.72c.063-.128.036-.106.245-.2a5.662,5.662,0,0,0,1.534-.877,6.636,6.636,0,0,0,1.723-2.54,6.5,6.5,0,0,0,.627-3,5.413,5.413,0,0,0-.458-1.734c-.1-.245-.066-.189-.036-.277a4.548,4.548,0,0,1,1-1.217,4.606,4.606,0,0,1,1.209-.964c.1-.076.178-.025.314.036a5.455,5.455,0,0,0,1.723.48A6.572,6.572,0,0,0,62.371,6.3a6.609,6.609,0,0,0,2.58-1.681,5.325,5.325,0,0,0,.9-1.544c.106-.221.078-.184.163-.226a7.284,7.284,0,0,1,2.89,0ZM42.862,2.8A1.349,1.349,0,0,0,41.777,5l1.655,2.121A1.349,1.349,0,1,0,45.56,5.469L43.9,3.337A1.349,1.349,0,0,0,42.862,2.8ZM3.835,4.043l5.1,2.45L7.561,9.61a1.349,1.349,0,0,0,.169,1.365l1.742,2.24L3.616,10.986,4.7,7.041a1.342,1.342,0,0,0-.041-.835Zm34.387,7.636,2.68.332a1.35,1.35,0,0,0,.327-2.68L38.552,9c-.046-.005-.089-.01-.2-.014A1.349,1.349,0,0,0,38.222,11.679ZM67.451,9.444a9.444,9.444,0,1,0,9.441,9.448,9.458,9.458,0,0,0-9.441-9.448Zm0,2.706a6.742,6.742,0,1,1-6.743,6.742A6.739,6.739,0,0,1,67.451,12.15ZM66.1,16.189v1.349H64.755a1.349,1.349,0,1,0,0,2.7H66.1v1.349a1.349,1.349,0,1,0,2.7,0V20.236h1.349a1.349,1.349,0,1,0,0-2.7H68.8V16.189a1.349,1.349,0,0,0-2.7,0ZM58.01,40.54v43.1H24.092l-.967-6.034,2.469.248a1.388,1.388,0,0,0,.638-.09l6.653-2.7a1.35,1.35,0,1,0-1.017-2.5l-6.342,2.572L13.247,73.919,9.234,56.066a1.351,1.351,0,0,0-.927-1L3.237,53.547l5.9-12.428a1.363,1.363,0,0,0,.129-.58,24.374,24.374,0,0,1,48.747,0ZM30.7,19.393a3.066,3.066,0,0,0-1.483,1.663,3.5,3.5,0,0,1-.569,1.035,4.7,4.7,0,0,1-1.871,1.154,4.715,4.715,0,0,1-2.142.469,3.629,3.629,0,0,1-1.146-.358,3.1,3.1,0,0,0-2.219-.169,6.863,6.863,0,0,0-2.669,1.86,6.83,6.83,0,0,0-1.913,2.629,3.165,3.165,0,0,0,.129,2.232,3.507,3.507,0,0,1,.34,1.125,4.579,4.579,0,0,1-.5,2.132,4.663,4.663,0,0,1-1.2,1.842,4.205,4.205,0,0,1-1.1.588,3.2,3.2,0,0,0-1.673,1.552,7.7,7.7,0,0,0-.548,3.317,7.7,7.7,0,0,0,.548,3.317,3.132,3.132,0,0,0,1.673,1.552,4.21,4.21,0,0,1,1.1.588,4.663,4.663,0,0,1,1.2,1.842,4.645,4.645,0,0,1,.5,2.132,3.6,3.6,0,0,1-.34,1.136,3.024,3.024,0,0,0-.129,2.221A6.924,6.924,0,0,0,18.6,55.879a7.179,7.179,0,0,0,2.669,1.86,3.078,3.078,0,0,0,2.219-.169,3.632,3.632,0,0,1,1.146-.358,4.729,4.729,0,0,1,2.142.469,4.707,4.707,0,0,1,1.871,1.154,3.506,3.506,0,0,1,.569,1.035A3.083,3.083,0,0,0,30.7,61.533a6.611,6.611,0,0,0,3.03.522,6.611,6.611,0,0,0,3.03-.522,3.084,3.084,0,0,0,1.483-1.663,3.5,3.5,0,0,1,.569-1.035,4.7,4.7,0,0,1,1.871-1.154,4.714,4.714,0,0,1,2.142-.469,3.629,3.629,0,0,1,1.146.358,3.078,3.078,0,0,0,2.219.169,7.176,7.176,0,0,0,2.669-1.86,6.923,6.923,0,0,0,1.913-2.629,3.024,3.024,0,0,0-.129-2.221,3.559,3.559,0,0,1-.34-1.136,4.579,4.579,0,0,1,.5-2.132A4.664,4.664,0,0,1,52,45.92a4.221,4.221,0,0,1,1.1-.588,3.133,3.133,0,0,0,1.673-1.552,7.7,7.7,0,0,0,.548-3.317,7.7,7.7,0,0,0-.548-3.317,3.2,3.2,0,0,0-1.673-1.552,4.211,4.211,0,0,1-1.1-.588,4.663,4.663,0,0,1-1.2-1.842,4.645,4.645,0,0,1-.5-2.132,3.542,3.542,0,0,1,.34-1.125,3.166,3.166,0,0,0,.129-2.232,6.831,6.831,0,0,0-1.913-2.629,6.865,6.865,0,0,0-2.669-1.86,3.1,3.1,0,0,0-2.219.169,3.632,3.632,0,0,1-1.146.358,4.728,4.728,0,0,1-2.142-.469,4.706,4.706,0,0,1-1.871-1.154,3.505,3.505,0,0,1-.569-1.035,3.065,3.065,0,0,0-1.483-1.663,6.626,6.626,0,0,0-3.03-.506,6.632,6.632,0,0,0-3.03.506ZM35.545,21.8c.106.031.15.16.229.34a6,6,0,0,0,1.007,1.731,7.369,7.369,0,0,0,2.888,1.884,7.423,7.423,0,0,0,3.4.646,5.98,5.98,0,0,0,1.921-.548c.2-.084.265-.128.408-.09a5.355,5.355,0,0,1,1.573,1.207,5.117,5.117,0,0,1,1.246,1.552c.046.141-.052.29-.082.4a5.977,5.977,0,0,0-.516,1.931,7.3,7.3,0,0,0,.706,3.365,7.42,7.42,0,0,0,1.934,2.848,6.4,6.4,0,0,0,1.721.985c.26.118.315.157.374.305a5.566,5.566,0,0,1,.264,2.105,5.492,5.492,0,0,1-.279,2.132c-.031.117-.165.191-.358.279a6.4,6.4,0,0,0-1.721.985,7.421,7.421,0,0,0-1.934,2.848,7.3,7.3,0,0,0-.706,3.365A5.982,5.982,0,0,0,48.132,52c.025.1.131.251.082.4a4.948,4.948,0,0,1-1.246,1.552,5.027,5.027,0,0,1-1.573,1.207c-.135.041-.232-.02-.408-.09a5.991,5.991,0,0,0-1.921-.548,7.428,7.428,0,0,0-3.4.646,7.37,7.37,0,0,0-2.888,1.884,6.015,6.015,0,0,0-1.007,1.731c-.081.183-.114.273-.229.34a4.785,4.785,0,0,1-1.815.226,4.785,4.785,0,0,1-1.815-.226c-.116-.067-.149-.158-.229-.34a6,6,0,0,0-1.007-1.731,7.369,7.369,0,0,0-2.888-1.884,7.424,7.424,0,0,0-3.4-.646,5.981,5.981,0,0,0-1.921.548c-.176.072-.273.132-.408.09a5.047,5.047,0,0,1-1.573-1.207A4.952,4.952,0,0,1,19.246,52.4c-.051-.15.056-.3.082-.4a5.977,5.977,0,0,0,.516-1.931,7.3,7.3,0,0,0-.706-3.365A7.42,7.42,0,0,0,17.2,43.859a6.4,6.4,0,0,0-1.721-.985c-.193-.088-.327-.163-.358-.279a5.448,5.448,0,0,1-.279-2.132,5.508,5.508,0,0,1,.264-2.105c.059-.149.114-.188.374-.305a6.389,6.389,0,0,0,1.721-.985,7.42,7.42,0,0,0,1.934-2.848,7.3,7.3,0,0,0,.706-3.365,5.984,5.984,0,0,0-.516-1.931c-.031-.111-.128-.259-.082-.4a5.115,5.115,0,0,1,1.246-1.552,5.329,5.329,0,0,1,1.573-1.207c.144-.041.2.005.408.09a5.99,5.99,0,0,0,1.921.548,7.421,7.421,0,0,0,3.4-.646,7.369,7.369,0,0,0,2.888-1.884,6.016,6.016,0,0,0,1.007-1.731c.08-.18.123-.312.229-.34a5.04,5.04,0,0,1,1.815-.211,5.041,5.041,0,0,1,1.815.211Zm-1.818,5.18A9.447,9.447,0,0,0,25.8,31.289a12.133,12.133,0,0,0,2.846,20.2,4.054,4.054,0,0,0,3.734,2.477h2.693A4,4,0,0,0,38.8,51.511a12.142,12.142,0,0,0,2.808-20.287,9.372,9.372,0,0,0-7.88-4.242Zm6.745,9.448a6.86,6.86,0,0,1-1.713,4.729c-.451.54-.933,1-1.375,1.512-.125.145-.269.326-.39.5H35.074V41.051l.964-.959a1.352,1.352,0,0,0-1.913-1.91l-.4.4-.388-.4a1.352,1.352,0,1,0-1.913,1.91l.949.943v2.134H30.46c-.121-.171-.265-.353-.39-.5-.443-.51-.925-.972-1.375-1.512a6.86,6.86,0,0,1-1.713-4.729,6.745,6.745,0,1,1,13.491,0Zm-1.339,11.8-.005-3.373s-.02-.055.3-.419.843-.879,1.4-1.552a9.45,9.45,0,0,0,2.144-4.375,9.549,9.549,0,0,1,.106,3.358,9.451,9.451,0,0,1-3.947,6.36ZM28.028,44.434c.316.365.3.408.3.408v3.367A9.43,9.43,0,0,1,24.5,38.571a9.574,9.574,0,0,0,2.129,4.31c.561.673,1.088,1.188,1.4,1.552Zm48.065-2.619a1.349,1.349,0,1,0,.329-2.677l-2.68-.34c-.046-.005-.089-.01-.2-.014a1.349,1.349,0,0,0-.125,2.691ZM70.17,43.151a1.349,1.349,0,0,0-1.086,2.2l1.663,2.121a1.349,1.349,0,1,0,2.132-1.652l-1.665-2.132a1.35,1.35,0,0,0-1.043-.538ZM63.725,46.6,63.4,49.274a1.345,1.345,0,1,0,2.669.34l.34-2.68a1.35,1.35,0,0,0-2.68-.33Zm-32.7-.735h5.407v4.042a1.356,1.356,0,0,1-1.357,1.354H32.381a1.356,1.356,0,0,1-1.357-1.354ZM74.2,56.651A9.444,9.444,0,1,0,83.639,66.1,9.458,9.458,0,0,0,74.2,56.651Zm0,2.706A6.741,6.741,0,1,1,67.456,66.1,6.741,6.741,0,0,1,74.2,59.357Zm-2.7,5.4a1.349,1.349,0,1,0,0,2.7h5.4a1.349,1.349,0,1,0,0-2.7Z" transform="translate(0 0)"/>
    </g>
  </g>
</svg>
