<svg xmlns="http://www.w3.org/2000/svg" xmlns:xlink="http://www.w3.org/1999/xlink" width="150" height="150" viewBox="0 0 150 150">
  <defs>
    <clipPath id="clip-path">
      <rect id="Rect치ngulo_454535" data-name="Rect치ngulo 454535" width="47.347" height="49.665" fill="#cff878"/>
    </clipPath>
  </defs>
  <g id="Grupo_1192886" data-name="Grupo 1192886" transform="translate(-308.711 -3533)">
    <path id="Elipse_5729" data-name="Elipse 5729" d="M75,0A75,75,0,1,1,0,75,75,75,0,0,1,75,0Z" transform="translate(308.711 3533)" fill="#e795ff"/>
    <rect id="Rect치ngulo_455479" data-name="Rect치ngulo 455479" width="120" height="120" rx="60" transform="translate(323.711 3548)" fill="#f8dfff"/>
    <g id="Grupo_1192524" data-name="Grupo 1192524" transform="translate(326.653 3558.335)">
      <g id="Grupo_1176862" data-name="Grupo 1176862" clip-path="url(#clip-path)">
        <path id="Trazado_991676" data-name="Trazado 991676" d="M27.639,9.734,24.725.764a1.105,1.105,0,0,0-2.1,0l-2.915,8.97a1.105,1.105,0,0,1-1.7.553L10.377,4.743a1.105,1.105,0,0,0-1.7,1.236l2.915,8.97A1.105,1.105,0,0,1,10.54,16.4H1.108a1.105,1.105,0,0,0-.65,2l7.631,5.544a1.105,1.105,0,0,1,0,1.788L.458,31.271a1.105,1.105,0,0,0,.65,2H10.54a1.105,1.105,0,0,1,1.051,1.447l-2.915,8.97a1.105,1.105,0,0,0,1.7,1.236l7.631-5.544a1.105,1.105,0,0,1,1.7.552l2.915,8.97a1.105,1.105,0,0,0,2.1,0l2.915-8.97a1.105,1.105,0,0,1,1.7-.552l7.631,5.544a1.105,1.105,0,0,0,1.7-1.236l-2.915-8.97a1.105,1.105,0,0,1,1.051-1.447H46.24a1.105,1.105,0,0,0,.65-2l-7.631-5.544a1.105,1.105,0,0,1,0-1.788l7.631-5.544a1.105,1.105,0,0,0-.65-2H36.808a1.105,1.105,0,0,1-1.051-1.447l2.915-8.97a1.105,1.105,0,0,0-1.7-1.236L29.34,10.287a1.105,1.105,0,0,1-1.7-.553" transform="translate(0)" fill="#cff878"/>
      </g>
    </g>
    <g id="Grupo_1192888" data-name="Grupo 1192888" transform="translate(264.006 3553.487)">
      <g id="Grupo_1192887" data-name="Grupo 1192887" transform="translate(84.429 1.6)">
        <path id="Trazado_1005763" data-name="Trazado 1005763" d="M125.616,7.512a35.28,35.28,0,0,1,17.336,66.005,4.55,4.55,0,0,0-2.626,4.2V86.35l-15.35,1.919-14.07-1.919V77.712a4.767,4.767,0,0,0-2.638-4.2,35.281,35.281,0,0,1,17.348-66Z" transform="translate(-90.341 -7.512)" fill="#fff9df" fill-rule="evenodd"/>
        <path id="Trazado_1005764" data-name="Trazado 1005764" d="M244.533,7.512a35.28,35.28,0,0,1,17.336,66.005,4.55,4.55,0,0,0-2.626,4.2V86.35h-6.2V77.712a4.549,4.549,0,0,1,2.626-4.2A35.283,35.283,0,0,0,241.43,7.645c1.026-.085,2.058-.133,3.1-.133Z" transform="translate(-209.257 -7.512)" fill="#fff3bf" fill-rule="evenodd"/>
        <path id="Trazado_1005765" data-name="Trazado 1005765" d="M216.339,430.839a14.71,14.71,0,0,1-29.42,0l14.813-1.244Z" transform="translate(-166.354 -339.717)" fill="#90d8f9" fill-rule="evenodd"/>
        <path id="Trazado_1005766" data-name="Trazado 1005766" d="M259.243,435.434a14.706,14.706,0,0,1-17.813,14.378,14.713,14.713,0,0,0,11.614-14.378h6.2Z" transform="translate(-209.257 -344.313)" fill="#6bbef6" fill-rule="evenodd"/>
        <path id="Trazado_1005767" data-name="Trazado 1005767" d="M186.919,377.75h29.42v12.284h-29.42Z" transform="translate(-166.354 -298.912)" fill="#365e7d" fill-rule="evenodd"/>
        <path id="Trazado_1005768" data-name="Trazado 1005768" d="M144.686,62.73a5.6,5.6,0,0,1,5.583,5.578,5.58,5.58,0,0,1,11.161,0v1.738A6.2,6.2,0,0,1,172,76.529a8.932,8.932,0,0,1,0,17.384A6.2,6.2,0,0,1,161.43,100.4v1.738a5.58,5.58,0,1,1-11.161,0,5.58,5.58,0,1,1-11.161,0V100.4a6.2,6.2,0,0,1-10.569-6.483,8.932,8.932,0,0,1,0-17.384,6.2,6.2,0,0,1,10.569-6.482V68.308a5.6,5.6,0,0,1,5.578-5.578Z" transform="translate(-114.994 -50.972)" fill="#fca7ac" fill-rule="evenodd"/>
        <path id="Trazado_1005769" data-name="Trazado 1005769" d="M295.97,377.75h6.2v12.284h-6.2Z" transform="translate(-252.184 -298.912)" fill="#2b4d66" fill-rule="evenodd"/>
      </g>
      <path id="Trazado_1005770" data-name="Trazado 1005770" d="M114.121,11.758a7.179,7.179,0,0,1,5.583,2.674,7.183,7.183,0,0,1,12.567,2.843l.078-.042a7.795,7.795,0,0,1,11.2,8.952,10.527,10.527,0,0,1,0,19.327,7.846,7.846,0,0,1,.284,2.083,7.791,7.791,0,0,1-11.559,6.827,7.206,7.206,0,0,1-1.913,3.41,7.323,7.323,0,0,1-1.364,1.075l-3.73,19.931h7.557V71.8a6,6,0,0,1,.948-3.356,6.955,6.955,0,0,1,2.517-2.239,33.681,33.681,0,0,0,6.821-53.559,1.59,1.59,0,1,1,2.2-2.294,36.861,36.861,0,0,1-7.448,58.617,4,4,0,0,0-1.419,1.219,2.881,2.881,0,0,0-.428,1.612V92.721a16.31,16.31,0,0,1-32.619,0V71.8a2.824,2.824,0,0,0-.429-1.546,3.791,3.791,0,0,0-1.412-1.28q-1.5-.851-2.946-1.865-1.431-1-2.783-2.149a1.589,1.589,0,1,1,2.058-2.421c.809.688,1.654,1.34,2.547,1.962q1.313.923,2.71,1.708a7.008,7.008,0,0,1,2.523,2.348,6,6,0,0,1,.924,3.242v7.038h7.557l-3.731-19.932a7.33,7.33,0,0,1-1.364-1.075,7.2,7.2,0,0,1-1.913-3.41l-.078.042a7.795,7.795,0,0,1-11.2-8.952,10.53,10.53,0,0,1,0-19.327,7.849,7.849,0,0,1-.284-2.082,7.791,7.791,0,0,1,11.559-6.827,7.2,7.2,0,0,1,6.984-5.517ZM125.56,59.933a7.2,7.2,0,0,1-5.855-2.668,7.2,7.2,0,0,1-5.855,2.668l3.537,18.905h4.636Zm7.262,31.189v-9.09H106.588v9.09h9.5a1.6,1.6,0,0,1,0,3.193h-9.4a13.118,13.118,0,0,0,26.04,0h-9.4a1.6,1.6,0,0,1,0-3.193ZM93.109,57.555a1.589,1.589,0,1,1-2.5,1.955A36.867,36.867,0,0,1,139.376,5.686a1.594,1.594,0,0,1-1.7,2.7,33.689,33.689,0,0,0-44.571,49.17ZM138.616,43.78a4.614,4.614,0,0,0-2.584-.791,4.364,4.364,0,0,0-1.418.223,1.6,1.6,0,0,1-.99-3.036,8.154,8.154,0,0,1,2.408-.38,7.768,7.768,0,0,1,4.37,1.34,7.66,7.66,0,0,1,1.678,1.539,7.339,7.339,0,0,0-1.008-13.968,1.6,1.6,0,0,1-1.2-1.913,1.521,1.521,0,0,1,.211-.5,4.85,4.85,0,0,0,.4-1.02,4.61,4.61,0,1,0-9.06-1.177,4.556,4.556,0,0,0,.749,2.523,4.625,4.625,0,0,0,2.016,1.708,1.591,1.591,0,0,1-1.274,2.916,7.769,7.769,0,0,1-4.219-9.8,7.477,7.477,0,0,1,.567-1.219v-1.3a4,4,0,0,0-3.984-3.984,4,4,0,0,0-3.984,3.984v16.5a3.984,3.984,0,0,0,7.968,0,1.6,1.6,0,1,1,3.193,0,7.177,7.177,0,0,1-11.161,5.97V52.762a3.984,3.984,0,0,0,7.968,0V51.024a1.595,1.595,0,0,1,2.976-.8,4.553,4.553,0,0,0,1.612,1.436,4.607,4.607,0,0,0,4.756-7.878Zm-41.287-1.1a7.666,7.666,0,0,1,1.678-1.539,7.768,7.768,0,0,1,4.37-1.34,8.154,8.154,0,0,1,2.408.38,1.6,1.6,0,0,1-.99,3.036,4.364,4.364,0,0,0-1.418-.223,4.606,4.606,0,1,0,2.173,8.668,4.553,4.553,0,0,0,1.612-1.436,1.595,1.595,0,0,1,2.976.8v1.738a3.984,3.984,0,0,0,7.968,0V41.408a7.184,7.184,0,0,1-11.161-5.97,1.6,1.6,0,1,1,3.193,0,3.984,3.984,0,0,0,7.968,0v-16.5a3.984,3.984,0,0,0-7.968,0v1.3a7.46,7.46,0,0,1,.567,1.219,7.782,7.782,0,0,1-4.219,9.8,1.591,1.591,0,0,1-1.274-2.916,4.629,4.629,0,0,0,2.016-1.708,4.679,4.679,0,0,0,.483-4.092,4.613,4.613,0,0,0-8.794,2.746c.157.579.5,1.038.616,1.515a1.6,1.6,0,0,1-1.2,1.913,7.34,7.34,0,0,0-1.008,13.968Z"/>
    </g>
  </g>
</svg>
