<svg xmlns="http://www.w3.org/2000/svg" xmlns:xlink="http://www.w3.org/1999/xlink" width="150" height="150" viewBox="0 0 150 150">
  <defs>
    <clipPath id="clip-path">
      <rect id="Rect치ngulo_454535" data-name="Rect치ngulo 454535" width="47.347" height="49.665" fill="#cff878"/>
    </clipPath>
  </defs>
  <g id="Grupo_1192889" data-name="Grupo 1192889" transform="translate(-308.711 -3533)">
    <path id="Elipse_5729" data-name="Elipse 5729" d="M75,0A75,75,0,1,1,0,75,75,75,0,0,1,75,0Z" transform="translate(308.711 3533)" fill="#e795ff"/>
    <rect id="Rect치ngulo_455479" data-name="Rect치ngulo 455479" width="120" height="120" rx="60" transform="translate(323.711 3548)" fill="#f8dfff"/>
    <g id="Grupo_1192524" data-name="Grupo 1192524" transform="translate(326.653 3558.335)">
      <g id="Grupo_1176862" data-name="Grupo 1176862" clip-path="url(#clip-path)">
        <path id="Trazado_991676" data-name="Trazado 991676" d="M27.639,9.734,24.725.764a1.105,1.105,0,0,0-2.1,0l-2.915,8.97a1.105,1.105,0,0,1-1.7.553L10.377,4.743a1.105,1.105,0,0,0-1.7,1.236l2.915,8.97A1.105,1.105,0,0,1,10.54,16.4H1.108a1.105,1.105,0,0,0-.65,2l7.631,5.544a1.105,1.105,0,0,1,0,1.788L.458,31.271a1.105,1.105,0,0,0,.65,2H10.54a1.105,1.105,0,0,1,1.051,1.447l-2.915,8.97a1.105,1.105,0,0,0,1.7,1.236l7.631-5.544a1.105,1.105,0,0,1,1.7.552l2.915,8.97a1.105,1.105,0,0,0,2.1,0l2.915-8.97a1.105,1.105,0,0,1,1.7-.552l7.631,5.544a1.105,1.105,0,0,0,1.7-1.236l-2.915-8.97a1.105,1.105,0,0,1,1.051-1.447H46.24a1.105,1.105,0,0,0,.65-2l-7.631-5.544a1.105,1.105,0,0,1,0-1.788l7.631-5.544a1.105,1.105,0,0,0-.65-2H36.808a1.105,1.105,0,0,1-1.051-1.447l2.915-8.97a1.105,1.105,0,0,0-1.7-1.236L29.34,10.287a1.105,1.105,0,0,1-1.7-.553" transform="translate(0)" fill="#cff878"/>
      </g>
    </g>
    <g id="Layer_32" data-name="Layer 32" transform="translate(334.24 3558.54)">
      <g id="Grupo_1192890" data-name="Grupo 1192890" transform="translate(7.262 8.824)">
        <path id="Trazado_1005771" data-name="Trazado 1005771" d="M71.393,31.943H58.886a1.563,1.563,0,0,1-1.452-.982L54.7,24.127H37V21H55.76a1.563,1.563,0,0,1,1.452.982l2.733,6.835H71.393Z" transform="translate(13.026 2.45)" fill="#68c1f7"/>
        <path id="Trazado_1005772" data-name="Trazado 1005772" d="M55.76,16.943H37V13.817H54.7l2.733-6.835A1.563,1.563,0,0,1,58.886,6H71.393V9.127H59.945l-2.733,6.835A1.563,1.563,0,0,1,55.76,16.943Z" transform="translate(13.026 -6)" fill="#68c1f7"/>
        <path id="Trazado_1005773" data-name="Trazado 1005773" d="M40,16H69.7v3.127H40Z" transform="translate(14.716 -0.367)" fill="#68c1f7"/>
        <path id="Trazado_1005774" data-name="Trazado 1005774" d="M17.507,31.943H5V28.817H16.448l2.733-6.835A1.563,1.563,0,0,1,20.633,21h18.76v3.127h-17.7l-2.733,6.835A1.563,1.563,0,0,1,17.507,31.943Z" transform="translate(-5 2.45)" fill="#68c1f7"/>
        <path id="Trazado_1005775" data-name="Trazado 1005775" d="M39.393,16.943H20.633a1.563,1.563,0,0,1-1.452-.982L16.448,9.127H5V6H17.507a1.563,1.563,0,0,1,1.452.982l2.733,6.835h17.7Z" transform="translate(-5 -6)" fill="#68c1f7"/>
        <path id="Trazado_1005776" data-name="Trazado 1005776" d="M5,16H34.7v3.127H5Z" transform="translate(-5 -0.367)" fill="#68c1f7"/>
      </g>
      <ellipse id="Elipse_13798" data-name="Elipse 13798" cx="5" cy="4.5" rx="5" ry="4.5" transform="translate(86.471 21.46)" fill="#fadd60"/>
      <circle id="Elipse_13799" data-name="Elipse 13799" cx="5" cy="5" r="5" transform="translate(86.471 5.46)" fill="#fadd60"/>
      <ellipse id="Elipse_13800" data-name="Elipse 13800" cx="5" cy="4.5" rx="5" ry="4.5" transform="translate(86.471 37.46)" fill="#fadd60"/>
      <ellipse id="Elipse_13801" data-name="Elipse 13801" cx="5" cy="4.5" rx="5" ry="4.5" transform="translate(2.471 21.46)" fill="#fadd60"/>
      <circle id="Elipse_13802" data-name="Elipse 13802" cx="5" cy="5" r="5" transform="translate(2.471 5.46)" fill="#fadd60"/>
      <ellipse id="Elipse_13803" data-name="Elipse 13803" cx="5" cy="4.5" rx="5" ry="4.5" transform="translate(2.471 37.46)" fill="#fadd60"/>
      <path id="Trazado_1005777" data-name="Trazado 1005777" d="M59.537,20.193a20.281,20.281,0,0,1-6.253,16.9A14.131,14.131,0,0,0,48.7,47.336v14.07H29.942V46.97a13.376,13.376,0,0,0-4.454-9.76A20.323,20.323,0,1,1,59.537,20.193Z" transform="translate(10.149 0.572)" fill="#a2c6dd"/>
      <path id="Trazado_1005778" data-name="Trazado 1005778" d="M57.287,19.069A20.336,20.336,0,0,0,49.078,4.824a19.742,19.742,0,0,0-3.408-.691A20.323,20.323,0,0,0,29.491,39.213a13.376,13.376,0,0,1,4.454,9.76V60.282H46.452V46.212a14.131,14.131,0,0,1,4.581-10.244A20.281,20.281,0,0,0,57.287,19.069Z" transform="translate(12.4 1.696)" fill="#afcfe8"/>
      <path id="Trazado_1005779" data-name="Trazado 1005779" d="M49.013,14H24v3.127h4.873L31.829,40.77l3.183.258-2.988-23.9h8.964L38,41.028l3.183-.258L44.14,17.127h4.873Z" transform="translate(12.965 7.331)" fill="#f5fbff"/>
      <path id="Trazado_1005780" data-name="Trazado 1005780" d="M26,31H44.76v6.253H26Z" transform="translate(14.091 16.907)" fill="#798499"/>
      <path id="Trazado_1005781" data-name="Trazado 1005781" d="M26,35H44.76v7.817H26Z" transform="translate(14.091 19.161)" fill="#8a96a8"/>
      <path id="Trazado_1005782" data-name="Trazado 1005782" d="M16.823,75.52a7.807,7.807,0,0,1-.688-15.586,6.125,6.125,0,0,1-.875-3.174,6.253,6.253,0,0,1,6.253-6.253,6.253,6.253,0,0,1,6.253-6.253,6.52,6.52,0,0,1,1.579.2.891.891,0,0,1-.016-.2,6.253,6.253,0,1,1,12.507,0V75.52Z" transform="translate(4.509 20.85)" fill="#ec525b"/>
      <path id="Trazado_1005783" data-name="Trazado 1005783" d="M16.129,59.935a6.125,6.125,0,0,1-.875-3.174,6.253,6.253,0,0,1,6.253-6.253,6.253,6.253,0,0,1,6.253-6.253,6.52,6.52,0,0,1,1.579.2.891.891,0,0,1-.016-.2,6.061,6.061,0,0,1,7.076-6.17,23.189,23.189,0,0,1,2.3,10.079A22.288,22.288,0,0,1,16.817,70.831,21.124,21.124,0,0,1,9.194,69.39a7.757,7.757,0,0,1,6.935-9.455Z" transform="translate(4.515 20.849)" fill="#fc6372"/>
      <path id="Trazado_1005784" data-name="Trazado 1005784" d="M21,49.69h3.127a1.563,1.563,0,0,1,3.127,0H30.38a4.69,4.69,0,1,0-9.38,0Z" transform="translate(11.275 24.794)" fill="#ffaebe"/>
      <path id="Trazado_1005785" data-name="Trazado 1005785" d="M13,60.69h3.127a1.563,1.563,0,0,1,3.127,0H22.38a4.69,4.69,0,0,0-9.38,0Z" transform="translate(6.768 30.99)" fill="#ffaebe"/>
      <path id="Trazado_1005786" data-name="Trazado 1005786" d="M21.69,58.38V55.253a1.563,1.563,0,0,1,0-3.127V49a4.69,4.69,0,0,0,0,9.38Z" transform="translate(9.022 27.047)" fill="#ffaebe"/>
      <path id="Trazado_1005787" data-name="Trazado 1005787" d="M21,57.69h3.127a1.563,1.563,0,1,1,3.127,0H30.38a4.69,4.69,0,0,0-9.38,0Z" transform="translate(11.275 29.3)" fill="#ffaebe"/>
      <path id="Trazado_1005788" data-name="Trazado 1005788" d="M28.127,58a6.023,6.023,0,0,0,1.752,4.232L32,64.253H27.5A9.167,9.167,0,0,1,25,58Z" transform="translate(13.528 32.117)" fill="#ffaebe"/>
      <path id="Trazado_1005789" data-name="Trazado 1005789" d="M29.127,45.69H26A4.69,4.69,0,0,1,30.69,41h1.343a6.217,6.217,0,0,1,.22,1.563v1.563H30.69A1.563,1.563,0,0,0,29.127,45.69Z" transform="translate(14.091 22.54)" fill="#ffaebe"/>
      <path id="Trazado_1005790" data-name="Trazado 1005790" d="M59.013,75.52A7.807,7.807,0,0,0,59.7,59.933a6.125,6.125,0,0,0,.875-3.174,6.253,6.253,0,0,0-6.253-6.253,6.253,6.253,0,0,0-6.253-6.253,6.521,6.521,0,0,0-1.579.2.891.891,0,0,0,.016-.2,6.253,6.253,0,1,0-12.507,0V75.52Z" transform="translate(18.598 20.85)" fill="#ec525b"/>
      <path id="Trazado_1005791" data-name="Trazado 1005791" d="M58.576,59.935a6.125,6.125,0,0,0,.875-3.174A6.253,6.253,0,0,0,53.2,50.508a6.253,6.253,0,0,0-6.253-6.253,6.52,6.52,0,0,0-1.579.2.891.891,0,0,0,.016-.2,6.061,6.061,0,0,0-7.076-6.17A23.189,23.189,0,0,0,36,48.163,22.288,22.288,0,0,0,57.888,70.831,21.124,21.124,0,0,0,65.51,69.39a7.757,7.757,0,0,0-6.935-9.455Z" transform="translate(19.723 20.849)" fill="#fc6372"/>
      <path id="Trazado_1005792" data-name="Trazado 1005792" d="M46.38,49.69H43.253a1.563,1.563,0,0,0-3.127,0H37a4.69,4.69,0,1,1,9.38,0Z" transform="translate(20.288 24.794)" fill="#ffaebe"/>
      <path id="Trazado_1005793" data-name="Trazado 1005793" d="M54.38,60.69H51.253a1.563,1.563,0,0,0-3.127,0H45a4.69,4.69,0,0,1,9.38,0Z" transform="translate(24.795 30.99)" fill="#ffaebe"/>
      <path id="Trazado_1005794" data-name="Trazado 1005794" d="M44,58.38V55.253a1.563,1.563,0,0,0,0-3.127V49a4.69,4.69,0,0,1,0,9.38Z" transform="translate(24.231 27.047)" fill="#ffaebe"/>
      <path id="Trazado_1005795" data-name="Trazado 1005795" d="M46.38,57.69H43.253a1.563,1.563,0,1,0-3.127,0H37a4.69,4.69,0,0,1,9.38,0Z" transform="translate(20.288 29.3)" fill="#ffaebe"/>
      <path id="Trazado_1005796" data-name="Trazado 1005796" d="M38.395,58a6.023,6.023,0,0,1-1.752,4.232l-2.118,2.021h4.5A9.167,9.167,0,0,0,41.521,58Z" transform="translate(18.893 32.117)" fill="#ffaebe"/>
      <path id="Trazado_1005797" data-name="Trazado 1005797" d="M37.127,45.69h3.127A4.69,4.69,0,0,0,35.563,41H34.22A6.217,6.217,0,0,0,34,42.563v1.563h1.563A1.563,1.563,0,0,1,37.127,45.69Z" transform="translate(18.598 22.54)" fill="#ffaebe"/>
      <path id="Trazado_1005798" data-name="Trazado 1005798" d="M25.69,45A4.69,4.69,0,0,0,21,49.69h3.127a1.563,1.563,0,0,1,3.127,0H30.38A4.69,4.69,0,0,0,25.69,45Z" transform="translate(11.275 24.794)"/>
      <path id="Trazado_1005799" data-name="Trazado 1005799" d="M17.69,56A4.69,4.69,0,0,0,13,60.69h3.127a1.563,1.563,0,0,1,3.127,0H22.38A4.69,4.69,0,0,0,17.69,56Z" transform="translate(6.768 30.99)"/>
      <path id="Trazado_1005800" data-name="Trazado 1005800" d="M17,53.69a4.69,4.69,0,0,0,4.69,4.69V55.253a1.563,1.563,0,0,1,0-3.127V49A4.69,4.69,0,0,0,17,53.69Z" transform="translate(9.022 27.047)"/>
      <path id="Trazado_1005801" data-name="Trazado 1005801" d="M25.69,53A4.69,4.69,0,0,0,21,57.69h3.127a1.563,1.563,0,1,1,3.127,0H30.38A4.69,4.69,0,0,0,25.69,53Z" transform="translate(11.275 29.3)"/>
      <path id="Trazado_1005802" data-name="Trazado 1005802" d="M37,49.69h3.127a1.563,1.563,0,0,1,3.127,0H46.38a4.69,4.69,0,1,0-9.38,0Z" transform="translate(20.288 24.794)"/>
      <path id="Trazado_1005803" data-name="Trazado 1005803" d="M45,60.69h3.127a1.563,1.563,0,0,1,3.127,0H54.38a4.69,4.69,0,0,0-9.38,0Z" transform="translate(24.795 30.99)"/>
      <path id="Trazado_1005804" data-name="Trazado 1005804" d="M48.69,53.69A4.69,4.69,0,0,0,44,49v3.127a1.563,1.563,0,0,1,0,3.127V58.38A4.69,4.69,0,0,0,48.69,53.69Z" transform="translate(24.231 27.047)"/>
      <path id="Trazado_1005805" data-name="Trazado 1005805" d="M41.69,53A4.69,4.69,0,0,0,37,57.69h3.127a1.563,1.563,0,1,1,3.127,0H46.38A4.69,4.69,0,0,0,41.69,53Z" transform="translate(20.288 29.3)"/>
      <path id="Trazado_1005806" data-name="Trazado 1005806" d="M77.5,18.786l2.733-6.835H85.65a6.253,6.253,0,1,0,0-3.127H79.174a1.563,1.563,0,0,0-1.452.982l-2.733,6.835H70.446a21.861,21.861,0,0,0-41.924,0h-4.57L21.221,9.806a1.563,1.563,0,0,0-1.452-.982H13.293a6.253,6.253,0,1,0,0,3.127H18.71l2.733,6.835a1.563,1.563,0,0,0,1.452.982h4.943a21.7,21.7,0,0,0-.253,3.127c0,.524.044,1.043.081,1.563H13.293a6.253,6.253,0,1,0,0,3.127H28.107a21.946,21.946,0,0,0,1.623,4.69H22.895a1.563,1.563,0,0,0-1.452.982L18.71,40.091H13.293a6.253,6.253,0,1,0,0,3.127h6.475a1.563,1.563,0,0,0,1.452-.982L23.953,35.4h7.57a21.706,21.706,0,0,0,3.052,3.527,11.752,11.752,0,0,1,3.954,8.615v9.916a7.817,7.817,0,0,0-6.1,6.081,7.8,7.8,0,0,0-7.843,6.383,7.817,7.817,0,0,0-6.117,9.707,9.38,9.38,0,0,0,2.861,18.3H46.345a1.563,1.563,0,0,0,1.563-1.563V65.1a7.816,7.816,0,0,0-.156-1.563h3.439a7.816,7.816,0,0,0-.156,1.563V96.37A1.563,1.563,0,0,0,52.6,97.934H77.611a9.38,9.38,0,0,0,2.859-18.3,7.817,7.817,0,0,0-6.117-9.707,7.779,7.779,0,0,0-7.842-6.385,7.817,7.817,0,0,0-6.1-6.081V47.907A12.507,12.507,0,0,1,64.5,38.8a21.886,21.886,0,0,0,2.906-3.4h7.579l2.733,6.835a1.563,1.563,0,0,0,1.452.982H85.65a6.253,6.253,0,1,0,0-3.127H80.233L77.5,33.256a1.563,1.563,0,0,0-1.452-.982H69.232a21.682,21.682,0,0,0,1.6-4.69H85.65a6.253,6.253,0,1,0,0-3.127H71.267a22.48,22.48,0,0,0-.025-3.85c-.03-.285-.083-.56-.123-.84h4.929a1.563,1.563,0,0,0,1.452-.982ZM91.681,7.261a3.127,3.127,0,1,1-3.127,3.127A3.127,3.127,0,0,1,91.681,7.261ZM7.262,13.514a3.127,3.127,0,1,1,3.127-3.127A3.127,3.127,0,0,1,7.262,13.514Zm0,15.633a3.127,3.127,0,1,1,3.127-3.127A3.127,3.127,0,0,1,7.262,29.147Zm0,15.633a3.127,3.127,0,1,1,3.127-3.127A3.127,3.127,0,0,1,7.262,44.781Zm84.419-6.253a3.127,3.127,0,1,1-3.127,3.127A3.127,3.127,0,0,1,91.681,38.527Zm0-15.633a3.127,3.127,0,1,1-3.127,3.127A3.127,3.127,0,0,1,91.681,22.894ZM41.655,49.471H57.288V52.6H41.655Zm6.07-3.127L44.989,24.457h8.964L51.218,46.344Zm-3.86,48.463-.458-.458a6.023,6.023,0,0,1-1.752-4.232H38.528a9.158,9.158,0,0,0,1.316,4.69H21.332a6.244,6.244,0,0,1-.56-12.464,1.563,1.563,0,0,0,1.213-2.361,4.56,4.56,0,0,1-.653-2.372,4.69,4.69,0,0,1,4.69-4.69,1.563,1.563,0,0,0,1.563-1.563,4.69,4.69,0,0,1,4.69-4.69,4.907,4.907,0,0,1,1.2.156A1.563,1.563,0,0,0,35.4,65.088a4.677,4.677,0,0,1,9.1-1.52,4.69,4.69,0,0,0-4.41,4.662h3.127a1.563,1.563,0,0,1,1.563-1.563v28.14ZM46.3,60.414a7.8,7.8,0,0,0-4.649-2.97v-1.72H57.288v1.72a7.8,7.8,0,0,0-4.649,2.97ZM63.541,65.09a1.563,1.563,0,0,0,1.928,1.734,4.907,4.907,0,0,1,1.2-.156,4.69,4.69,0,0,1,4.69,4.69,1.563,1.563,0,0,0,1.563,1.563,4.69,4.69,0,0,1,4.69,4.69,4.56,4.56,0,0,1-.653,2.372,1.563,1.563,0,0,0,1.213,2.361,6.244,6.244,0,0,1-.56,12.464H59.1a9.158,9.158,0,0,0,1.316-4.69H57.288a6.024,6.024,0,0,1-1.752,4.232l-.458.458h-.916V66.667a1.563,1.563,0,0,1,1.563,1.563h3.127a4.69,4.69,0,0,0-4.41-4.662,4.677,4.677,0,0,1,9.1,1.521ZM62.358,36.526a15.747,15.747,0,0,0-4.987,9.818h-3l2.736-21.886h4.873V21.331H36.965v3.127h4.873l2.736,21.886H41.591A14.975,14.975,0,0,0,36.7,36.636a18.76,18.76,0,1,1,25.656-.109Z"/>
    </g>
  </g>
</svg>
