<svg xmlns="http://www.w3.org/2000/svg" width="150" height="150" viewBox="0 0 150 150">
  <g id="Grupo_1192585" data-name="Grupo 1192585" transform="translate(-72.746 -7992)">
    <g id="Elipse_13628" data-name="Elipse 13628" transform="translate(72.746 7992)" fill="#fff7e2" stroke="#cff878" stroke-width="6">
      <circle cx="75" cy="75" r="75" stroke="none"/>
      <circle cx="75" cy="75" r="72" fill="none"/>
    </g>
    <g id="Grupo_1192897" data-name="Grupo 1192897" transform="translate(111.78 8031.034)">
      <g id="Grupo_1192895" data-name="Grupo 1192895" transform="translate(1.054 1.054)">
        <g id="Grupo_1192891" data-name="Grupo 1192891">
          <path id="Trazado_1005807" data-name="Trazado 1005807" d="M47.806,25.666H9.771A2.271,2.271,0,0,1,7.5,23.4V9.771A2.271,2.271,0,0,1,9.771,7.5H47.806a2.271,2.271,0,0,1,2.271,2.271V23.4A2.271,2.271,0,0,1,47.806,25.666Z" transform="translate(-7.5 -7.5)" fill="#eaf6ff"/>
          <path id="Trazado_1005808" data-name="Trazado 1005808" d="M271.812,7.5h-3.69a2.271,2.271,0,0,1,2.271,2.271V23.4a2.271,2.271,0,0,1-2.271,2.271h3.69a2.271,2.271,0,0,0,2.271-2.271V9.771A2.271,2.271,0,0,0,271.812,7.5Z" transform="translate(-231.506 -7.5)" fill="#d8ecfe"/>
          <path id="Trazado_1005809" data-name="Trazado 1005809" d="M9.771,25.666H21.124V7.5H9.771A2.271,2.271,0,0,0,7.5,9.771V23.4a2.271,2.271,0,0,0,2.271,2.271Z" transform="translate(-7.5 -7.5)" fill="#00f2a6"/>
        </g>
        <g id="Grupo_1192892" data-name="Grupo 1192892" transform="translate(16.527 22.729)">
          <path id="Trazado_1005810" data-name="Trazado 1005810" d="M165.439,187.443H127.4a2.271,2.271,0,0,1-2.271-2.271V171.548a2.271,2.271,0,0,1,2.271-2.271h38.035a2.271,2.271,0,0,1,2.271,2.271v13.624A2.271,2.271,0,0,1,165.439,187.443Z" transform="translate(-125.133 -169.277)" fill="#eaf6ff"/>
          <path id="Trazado_1005811" data-name="Trazado 1005811" d="M389.446,169.277h-3.69a2.271,2.271,0,0,1,2.271,2.271v13.624a2.271,2.271,0,0,1-2.271,2.271h3.69a2.271,2.271,0,0,0,2.271-2.271V171.548A2.271,2.271,0,0,0,389.446,169.277Z" transform="translate(-349.14 -169.277)" fill="#d8ecfe"/>
          <path id="Trazado_1005812" data-name="Trazado 1005812" d="M127.4,187.443h11.354V169.277H127.4a2.271,2.271,0,0,0-2.271,2.271v13.624A2.271,2.271,0,0,0,127.4,187.443Z" transform="translate(-125.133 -169.277)" fill="#fe5694"/>
        </g>
        <g id="Grupo_1192893" data-name="Grupo 1192893" transform="translate(0 45.436)">
          <path id="Trazado_1005813" data-name="Trazado 1005813" d="M47.806,349.068H9.771A2.271,2.271,0,0,1,7.5,346.8V333.173A2.271,2.271,0,0,1,9.771,330.9H47.806a2.271,2.271,0,0,1,2.271,2.271V346.8A2.271,2.271,0,0,1,47.806,349.068Z" transform="translate(-7.5 -330.902)" fill="#eaf6ff"/>
          <path id="Trazado_1005814" data-name="Trazado 1005814" d="M271.812,330.9h-3.69a2.271,2.271,0,0,1,2.271,2.271V346.8a2.271,2.271,0,0,1-2.271,2.271h3.69a2.271,2.271,0,0,0,2.271-2.271V333.174A2.271,2.271,0,0,0,271.812,330.9Z" transform="translate(-231.506 -330.903)" fill="#d8ecfe"/>
          <path id="Trazado_1005815" data-name="Trazado 1005815" d="M9.771,349.069H21.124V330.9H9.771A2.271,2.271,0,0,0,7.5,333.174V346.8a2.271,2.271,0,0,0,2.271,2.271Z" transform="translate(-7.5 -330.903)" fill="#ffe177"/>
        </g>
        <g id="Grupo_1192894" data-name="Grupo 1192894" transform="translate(42.576 31.812)">
          <path id="Trazado_1005816" data-name="Trazado 1005816" d="M335.172,249.872a2.725,2.725,0,0,0-2.824,2.723v-1.706a2.768,2.768,0,0,0-2.626-2.788,2.725,2.725,0,0,0-2.824,2.723v-1.3a2.767,2.767,0,0,0-2.626-2.788,2.725,2.725,0,0,0-2.824,2.723V236.655a2.725,2.725,0,1,0-5.45,0v16.4l-2.952,1.476a4.519,4.519,0,0,0-2.5,4.041v7.168a4.542,4.542,0,0,0,1.33,3.211l2.987,2.987H337.8V252.66a2.767,2.767,0,0,0-2.626-2.788Z" transform="translate(-310.549 -233.93)" fill="#fed2a4"/>
          <path id="Trazado_1005817" data-name="Trazado 1005817" d="M480.065,347.392a2.725,2.725,0,0,0-.939.134,2.827,2.827,0,0,1,.443,1.519v20.418h3.122V350.18A2.767,2.767,0,0,0,480.065,347.392Z" transform="translate(-455.442 -331.45)" fill="#ffbd86"/>
        </g>
      </g>
      <g id="Grupo_1192896" data-name="Grupo 1192896" transform="translate(0 0)">
        <path id="Trazado_1005818" data-name="Trazado 1005818" d="M39.6,34.18h.888V42.21a1.054,1.054,0,1,0,2.107,0V33.127a1.054,1.054,0,0,0-1.054-1.054H39.6a1.054,1.054,0,1,0,0,2.107Z" transform="translate(-33.132 -27.567)"/>
        <path id="Trazado_1005819" data-name="Trazado 1005819" d="M3.324,20.273H41.36a3.328,3.328,0,0,0,3.324-3.324V3.324A3.328,3.328,0,0,0,41.36,0H27.834a1.054,1.054,0,0,0,0,2.107H41.36a1.218,1.218,0,0,1,1.217,1.217V16.949a1.218,1.218,0,0,1-1.217,1.217H15.732V2.107H22.9A1.054,1.054,0,1,0,22.9,0H3.324A3.328,3.328,0,0,0,0,3.324V16.949a3.328,3.328,0,0,0,3.324,3.324ZM2.107,3.324A1.218,1.218,0,0,1,3.324,2.107h10.3V18.166H3.324a1.218,1.218,0,0,1-1.217-1.217Z" transform="translate(0 0)"/>
        <path id="Trazado_1005820" data-name="Trazado 1005820" d="M151.277,65.7a1.054,1.054,0,0,0-1.054-1.054H130.355a1.054,1.054,0,0,0,0,2.107h19.869A1.054,1.054,0,0,0,151.277,65.7Z" transform="translate(-111.135 -55.567)"/>
        <path id="Trazado_1005821" data-name="Trazado 1005821" d="M150.224,32.325H130.355a1.054,1.054,0,0,0,0,2.107h19.869a1.054,1.054,0,0,0,0-2.107Z" transform="translate(-111.135 -27.784)"/>
        <path id="Trazado_1005822" data-name="Trazado 1005822" d="M130.355,96.976a1.054,1.054,0,0,0,0,2.107h15.611a1.054,1.054,0,1,0,0-2.107Z" transform="translate(-111.135 -83.352)"/>
        <path id="Trazado_1005823" data-name="Trazado 1005823" d="M154.7,203.327h-2.484c.463-.658,1.1-1.569,1.984-2.829l.012-.018a4.942,4.942,0,0,0,1.166-2.856,3.325,3.325,0,0,0-6.587-.643,1.054,1.054,0,1,0,2.068.406,1.217,1.217,0,0,1,2.411.237c0,.436-.208.787-.8,1.674-2.744,3.92-3.122,4.436-3.136,4.454a1.054,1.054,0,0,0,.846,1.681H154.7a1.054,1.054,0,1,0,0-2.107Z" transform="translate(-127.869 -167.002)"/>
        <path id="Trazado_1005824" data-name="Trazado 1005824" d="M246.934,195.157a1.054,1.054,0,0,0,1.054,1.054h19.869a1.054,1.054,0,0,0,0-2.107H247.988A1.054,1.054,0,0,0,246.934,195.157Z" transform="translate(-212.241 -166.833)"/>
        <path id="Trazado_1005825" data-name="Trazado 1005825" d="M38.973,358.8a3.325,3.325,0,0,0-6.587-.643,1.054,1.054,0,0,0,2.068.406,1.217,1.217,0,1,1,1.194,1.454,1.054,1.054,0,0,0,0,2.107,1.217,1.217,0,1,1-1.205,1.388,1.241,1.241,0,0,1-.012-.171,1.054,1.054,0,1,0-2.107,0,3.322,3.322,0,0,0,3.324,3.324,3.323,3.323,0,0,0,2.426-5.6A3.313,3.313,0,0,0,38.973,358.8Z" transform="translate(-27.783 -305.534)"/>
        <path id="Trazado_1005826" data-name="Trazado 1005826" d="M151.277,389.108a1.054,1.054,0,0,0-1.054-1.054H130.355a1.054,1.054,0,1,0,0,2.107h19.869A1.054,1.054,0,0,0,151.277,389.108Z" transform="translate(-111.135 -333.535)"/>
        <path id="Trazado_1005827" data-name="Trazado 1005827" d="M150.224,355.729H130.355a1.054,1.054,0,1,0,0,2.107h19.869a1.054,1.054,0,1,0,0-2.107Z" transform="translate(-111.135 -305.751)"/>
        <path id="Trazado_1005828" data-name="Trazado 1005828" d="M130.355,420.379a1.054,1.054,0,0,0,0,2.107h15.611a1.054,1.054,0,0,0,0-2.107Z" transform="translate(-111.135 -361.319)"/>
        <path id="Trazado_1005829" data-name="Trazado 1005829" d="M68.291,186.806a3.75,3.75,0,0,0-2.11.552,3.768,3.768,0,0,0-5.6-1.675,3.769,3.769,0,0,0-5-1.626v-2h2.3a3.328,3.328,0,0,0,3.324-3.324V165.1a3.328,3.328,0,0,0-3.324-3.324H48.707a1.054,1.054,0,1,0,0,2.107h9.179A1.218,1.218,0,0,1,59.1,165.1v13.625a1.218,1.218,0,0,1-1.217,1.217h-2.3v-5.3a3.783,3.783,0,0,0-3.779-3.779H35.746a1.054,1.054,0,0,0,0,2.107H48.417a3.754,3.754,0,0,0-.391,1.671v.763H35.746a1.054,1.054,0,0,0,0,2.107h12.28v2.434H32.259V163.887H43.776a1.054,1.054,0,1,0,0-2.107H19.852a3.329,3.329,0,0,0-3.325,3.324v13.625a3.329,3.329,0,0,0,3.325,3.324H48.026v8.342l-2.37,1.185a5.65,5.65,0,0,0-.973.618v-4.386a3.329,3.329,0,0,0-3.324-3.325H24.176a1.054,1.054,0,1,0,0,2.107H41.36a1.219,1.219,0,0,1,1.217,1.218v13.626a1.218,1.218,0,0,1-1.217,1.214H15.732V186.594h3.513a1.054,1.054,0,1,0,0-2.107H3.324A3.329,3.329,0,0,0,0,187.812v13.624a3.328,3.328,0,0,0,3.324,3.324H41.36a3.307,3.307,0,0,0,1.27-.253,5.553,5.553,0,0,0,1.585,3.181l2.987,2.987a1.054,1.054,0,0,0,1.49-1.49L45.705,206.2a3.465,3.465,0,0,1-1.022-2.466V196.56a3.446,3.446,0,0,1,1.915-3.095l1.427-.714v3.836l-.824.824a1.054,1.054,0,1,0,1.49,1.49l1.132-1.132a1.053,1.053,0,0,0,.309-.745V174.641a1.671,1.671,0,0,1,3.342,0v16.97a1.054,1.054,0,1,0,2.107,0v-4.163a1.678,1.678,0,0,1,1.733-1.67,1.719,1.719,0,0,1,1.609,1.736v4.1a1.054,1.054,0,0,0,2.107,0v-2.8a1.669,1.669,0,0,1,1.733-1.67,1.72,1.72,0,0,1,1.609,1.735v2.735a1.054,1.054,0,0,0,2.107,0v-1.029a1.671,1.671,0,0,1,1.733-1.67,1.72,1.72,0,0,1,1.609,1.735V209.93a1.054,1.054,0,0,0,2.107,0V190.647a3.8,3.8,0,0,0-3.642-3.841Zm-49.657-8.077V165.1a1.219,1.219,0,0,1,1.218-1.217h10.3v16.058h-10.3a1.219,1.219,0,0,1-1.218-1.217ZM2.107,201.436V187.812a1.219,1.219,0,0,1,1.217-1.218h10.3v16.058H3.324a1.218,1.218,0,0,1-1.217-1.217Z" transform="translate(0 -139.051)"/>
      </g>
    </g>
  </g>
</svg>
