<svg xmlns="http://www.w3.org/2000/svg" width="150" height="150" viewBox="0 0 150 150">
  <g id="Grupo_1177379" data-name="Grupo 1177379" transform="translate(-72.746 -7992)">
    <g id="Elipse_13628" data-name="Elipse 13628" transform="translate(72.746 7992)" fill="#fff7e2" stroke="#cff878" stroke-width="6">
      <circle cx="75" cy="75" r="75" stroke="none"/>
      <circle cx="75" cy="75" r="72" fill="none"/>
    </g>
    <g id="Grupo_1192472" data-name="Grupo 1192472" transform="translate(102.502 8026.201)">
      <g id="Grupo_1192470" data-name="Grupo 1192470" transform="translate(16.696 1.205)">
        <g id="Grupo_1192468" data-name="Grupo 1192468" transform="translate(0)">
          <g id="Grupo_1192466" data-name="Grupo 1192466" transform="translate(16.352)">
            <g id="Grupo_1192463" data-name="Grupo 1192463" transform="translate(0)">
              <g id="Grupo_1192459" data-name="Grupo 1192459" transform="translate(18.316)">
                <path id="Trazado_1004993" data-name="Trazado 1004993" d="M326.568,23.713l-.208-4.126-4.108-.52a11.01,11.01,0,0,0-1.332-2.784l2.193-3.493-3.086-2.769-3.279,2.518a11.183,11.183,0,0,0-2.924-1.035L312.889,7.5l-4.156.21-.527,4.079a11.178,11.178,0,0,0-2.8,1.324l-3.516-2.175-2.791,3.066,2.534,3.254a11.009,11.009,0,0,0-1.044,2.9l-4.035.932.208,4.126,4.108.52a11.009,11.009,0,0,0,1.332,2.784L300,32.016l3.086,2.769,3.279-2.518a11.183,11.183,0,0,0,2.924,1.035l.935,4.005,4.156-.21.527-4.079a11.179,11.179,0,0,0,2.8-1.324l3.516,2.175,2.791-3.066-2.534-3.254a11.008,11.008,0,0,0,1.044-2.9Zm-14.721,4.42a5.737,5.737,0,1,1,5.482-6.022A5.758,5.758,0,0,1,311.848,28.134Z" transform="translate(-296.548 -7.5)" fill="#7974e3"/>
              </g>
              <g id="Grupo_1192462" data-name="Grupo 1192462" transform="translate(0 9.89)">
                <g id="Grupo_1192461" data-name="Grupo 1192461">
                  <path id="Trazado_1004994" data-name="Trazado 1004994" d="M182.511,104.08,208.562,115.5l11.6-26.456-4.788-12.293-17.514-7.679Z" transform="translate(-182.511 -69.075)" fill="#f0f0ff"/>
                  <g id="Grupo_1192460" data-name="Grupo 1192460" transform="translate(20.662 12.242)">
                    <path id="Trazado_1004995" data-name="Trazado 1004995" d="M321.722,153.023l-10.563,24.093,5.389,2.363,11.6-26.456-3.011-7.73Z" transform="translate(-311.159 -145.293)" fill="#e8e8ff"/>
                  </g>
                  <path id="Trazado_1004996" data-name="Trazado 1004996" d="M367.457,116.886,363.7,125.4l8.55,3.777Z" transform="translate(-334.595 -109.207)" fill="#cfcfff"/>
                </g>
              </g>
            </g>
            <g id="Grupo_1192465" data-name="Grupo 1192465" transform="translate(24.712 36.679)">
              <g id="Grupo_1192464" data-name="Grupo 1192464">
                <path id="Trazado_1004997" data-name="Trazado 1004997" d="M336.372,269.387h20.59v20.524h-20.59Z" transform="translate(-336.372 -264.004)" fill="#96e1ff"/>
                <path id="Trazado_1004998" data-name="Trazado 1004998" d="M469.631,256.393l-5.063,5.383V241.252l5.063-5.383Z" transform="translate(-443.978 -235.869)" fill="#fdf486"/>
                <path id="Trazado_1004999" data-name="Trazado 1004999" d="M356.962,241.252h-20.59l5.063-5.383h20.59Z" transform="translate(-336.372 -235.869)" fill="#fd6dc3"/>
              </g>
            </g>
            <path id="Trazado_1005000" data-name="Trazado 1005000" d="M281.163,371.5l2.379-2.381-1.932-2.767a8.971,8.971,0,0,0,.954-2.326l3.309-.584-.014-3.378-3.314-.605a9.109,9.109,0,0,0-.973-2.332l1.909-2.754-2.4-2.4-2.753,1.912a9.107,9.107,0,0,0-2.333-.971l-.608-3.313-3.378-.011-.581,3.309a8.97,8.97,0,0,0-2.325.956l-2.768-1.929-2.379,2.381,1.932,2.767a8.972,8.972,0,0,0-.954,2.326l-3.309.584.014,3.378,3.314.605a9.109,9.109,0,0,0,.973,2.332l-1.909,2.754,2.4,2.4,2.753-1.912a9.106,9.106,0,0,0,2.333.971l.608,3.313,3.378.011.581-3.309a8.969,8.969,0,0,0,2.325-.956Zm-10.4-6.794a4.243,4.243,0,1,1,6.022.019A4.258,4.258,0,0,1,270.76,364.7Z" transform="translate(-248.919 -294.645)" fill="#7974e3"/>
          </g>
          <g id="Grupo_1192467" data-name="Grupo 1192467" transform="translate(0 8.072)">
            <path id="Trazado_1005001" data-name="Trazado 1005001" d="M105.187,57.759c-.2,0-.394,0-.592.006a24.6,24.6,0,0,0-10.969,46.246v4.13a3.048,3.048,0,0,0,3.042,3.054h8.518Z" transform="translate(-80.698 -57.759)" fill="#fdf486"/>
            <path id="Trazado_1005002" data-name="Trazado 1005002" d="M188.656,390.46h-8.518V397.2a5.478,5.478,0,0,0,5.478,5.478h3.04Z" transform="translate(-164.167 -337.024)" fill="#cfcfff"/>
          </g>
        </g>
        <g id="Grupo_1192469" data-name="Grupo 1192469" transform="translate(43.524 57.327)">
          <path id="Trazado_1005003" data-name="Trazado 1005003" d="M358.162,376.477l3.309-.584-.014-3.378-3.314-.605a9.108,9.108,0,0,0-.973-2.332l1.909-2.754-2.4-2.4-2.753,1.911a9.1,9.1,0,0,0-2.24-.945,11.719,11.719,0,0,1,1.007,17.255,8.92,8.92,0,0,0,1.3-.626l2.768,1.929,2.379-2.381-1.932-2.767A8.968,8.968,0,0,0,358.162,376.477Z" transform="translate(-351.688 -364.426)" fill="#6b64e8"/>
        </g>
      </g>
      <g id="Grupo_1192471" data-name="Grupo 1192471" transform="translate(4.449 0)">
        <path id="Trazado_1005004" data-name="Trazado 1005004" d="M142.321,37.823a1.217,1.217,0,0,0-1.2-1.145h-13.86l2.249-5.129a1.22,1.22,0,0,0,.019-.921l-1.151-2.956a12.381,12.381,0,0,0,1.857-.861l2.887,1.785a1.209,1.209,0,0,0,1.524-.214l2.791-3.066a1.2,1.2,0,0,0,.06-1.551l-2.073-2.662a12.216,12.216,0,0,0,.629-1.749l3.31-.764a1.2,1.2,0,0,0,.932-1.235l-.208-4.126a1.2,1.2,0,0,0-1.052-1.134l-3.37-.427a12.208,12.208,0,0,0-.8-1.677l1.794-2.857a1.2,1.2,0,0,0-.216-1.537l-3.086-2.769a1.2,1.2,0,0,0-1.538-.059l-2.692,2.067a12.383,12.383,0,0,0-1.773-.628l-.766-3.28A1.2,1.2,0,0,0,125.352,0L121.2.212a1.2,1.2,0,0,0-1.134,1.049L119.63,4.6a12.372,12.372,0,0,0-1.7.8L115.042,3.62a1.2,1.2,0,0,0-1.524.214L110.727,6.9a1.2,1.2,0,0,0-.06,1.551l2.073,2.661a12.241,12.241,0,0,0-.51,1.353l-5.642-2.474a1.2,1.2,0,0,0-1.587.619l-4.789,10.923V2.821a1.205,1.205,0,0,0-2.409,0V8.1A25.711,25.711,0,0,0,77.361,19.84a1.2,1.2,0,0,0,2.02,1.313A23.305,23.305,0,0,1,97.8,10.509v51H90.375a1.845,1.845,0,0,1-1.838-1.849v-4.13a1.2,1.2,0,0,0-.633-1.061A23.4,23.4,0,0,1,76.662,26.927a1.205,1.205,0,0,0-2.3-.718A25.811,25.811,0,0,0,86.129,56.237v3.422a4.264,4.264,0,0,0,3.042,4.083v5.707a6.691,6.691,0,0,0,6.683,6.683H97.8v4.262a1.205,1.205,0,0,0,2.409,0V51.561l12.274,5.381-.276,1.573a10.176,10.176,0,0,0-1.185.487L108.863,57.5a1.2,1.2,0,0,0-1.541.137l-2.379,2.381a1.2,1.2,0,0,0-.136,1.541l1.509,2.162a10.183,10.183,0,0,0-.486,1.185l-2.576.455a1.2,1.2,0,0,0-1,1.191l.014,3.378a1.2,1.2,0,0,0,.988,1.18l2.591.473a10.305,10.305,0,0,0,.5,1.2l-1.488,2.147A1.2,1.2,0,0,0,105,76.465l2.4,2.4a1.2,1.2,0,0,0,1.539.137l2.145-1.49a10.316,10.316,0,0,0,1.2.5l.475,2.591a1.2,1.2,0,0,0,1.181.987l3.378.011h0a1.2,1.2,0,0,0,1.186-1l.452-2.576a10.165,10.165,0,0,0,1.185-.487l2.163,1.507a1.2,1.2,0,0,0,1.541-.137l2.379-2.381a1.2,1.2,0,0,0,.136-1.541l-1.509-2.162a10.18,10.18,0,0,0,.486-1.185l2.576-.455a1.2,1.2,0,0,0,1-1.191l-.014-3.378a1.2,1.2,0,0,0-.988-1.18l-2.436-.445c3.448-.015,6.949-.016,10.353-.016a1.228,1.228,0,0,0,1.1-.358L142,59.233a1.205,1.205,0,0,0,.327-.825V37.883C142.326,37.863,142.322,37.844,142.321,37.823Zm-3.987,1.265-2.745,2.918H118.307l2.745-2.918ZM124.741,18.336a1.227,1.227,0,0,0-.639-.666l-4.572-2a4.571,4.571,0,1,1,6.016,4.737Zm-1.192,3.577,1.3,3.34,1.376,3.533-4.78-2.112ZM115.1,10.223l-1.91-2.453,1.435-1.576,2.665,1.648a1.205,1.205,0,0,0,1.294-.017,9.971,9.971,0,0,1,2.5-1.182,1.2,1.2,0,0,0,.837-1l.4-3.081,2.146-.108.706,3.025a1.205,1.205,0,0,0,.933.907,9.967,9.967,0,0,1,2.609.923,1.205,1.205,0,0,0,1.289-.114l2.485-1.909,1.586,1.423-1.653,2.633a1.2,1.2,0,0,0,.017,1.307,9.815,9.815,0,0,1,1.186,2.479,1.2,1.2,0,0,0,1,.833l3.108.393.107,2.111-3.052.7a1.2,1.2,0,0,0-.909.929,9.8,9.8,0,0,1-.93,2.586,1.205,1.205,0,0,0,.115,1.3l1.91,2.453-1.435,1.576-2.665-1.648a1.205,1.205,0,0,0-1.294.017,9.976,9.976,0,0,1-2.076,1.037l-1.083-2.78a6.949,6.949,0,1,0-9.168-7.981l-2.8-1.228a9.839,9.839,0,0,1,.766-1.913,1.2,1.2,0,0,0-.115-1.3Zm-19.248,63.5a4.279,4.279,0,0,1-4.274-4.274V63.917H97.8v9.8Zm4.359-46.189,6.512-14.852,15.3,6.71L118.755,26.8a1.2,1.2,0,0,0,.615,1.589l7.451,3.291-2.191,5h-4.1a1.2,1.2,0,0,0-.877.379l-5.063,5.384a2.212,2.212,0,0,0-.348,1.347V54.945h-.316l-13.715-6.013ZM126.5,68.988l-2.31.408a1.2,1.2,0,0,0-.958.889,7.763,7.763,0,0,1-.826,2.014,1.2,1.2,0,0,0,.052,1.3l1.354,1.94-.953.954-1.941-1.352a1.2,1.2,0,0,0-1.3-.05,7.766,7.766,0,0,1-2.013.828,1.2,1.2,0,0,0-.888.959l-.406,2.31-1.363,0-.427-2.329a1.2,1.2,0,0,0-.88-.948,7.91,7.91,0,0,1-2.025-.842,1.2,1.2,0,0,0-1.3.048l-1.926,1.337-.975-.974,1.336-1.928a1.2,1.2,0,0,0,.046-1.3,7.917,7.917,0,0,1-.844-2.024,1.2,1.2,0,0,0-.949-.88l-2.33-.425-.006-1.363,2.309-.408a1.2,1.2,0,0,0,.958-.889,7.763,7.763,0,0,1,.826-2.014,1.2,1.2,0,0,0-.051-1.3L107.36,61l.953-.954,1.941,1.352a1.2,1.2,0,0,0,1.3.05,7.773,7.773,0,0,1,2.013-.828,1.2,1.2,0,0,0,.888-.959l.405-2.31,1.363,0,.427,2.329a1.2,1.2,0,0,0,.88.948,7.906,7.906,0,0,1,2.025.842,1.2,1.2,0,0,0,1.3-.048l1.926-1.337.975.974L122.42,63a1.2,1.2,0,0,0-.047,1.3,7.917,7.917,0,0,1,.844,2.024,1.2,1.2,0,0,0,.949.88l2.33.425Zm10.764-8.24c0-1.186,0-4.116,0-4.116a1.205,1.205,0,0,0-2.409,0v5.933c-3.041,0-6.146,0-9.214.016l.67-.967a1.2,1.2,0,0,0-.139-1.538l-2.4-2.4a1.2,1.2,0,0,0-1.539-.137l-2.145,1.49a10.315,10.315,0,0,0-1.2-.5l-.475-2.591a1.432,1.432,0,0,0-1.743-.989c-.02-1.338.125-8.334,0-10.481h18.185v5.871a1.205,1.205,0,0,0,2.409,0s0-4.529,0-6.6l2.65-2.818V57.93Z" transform="translate(-62.158 0)" fill="#060606"/>
        <path id="Trazado_1005005" data-name="Trazado 1005005" d="M308.607,390.994h-.018a5.426,5.426,0,0,0-5.431,5.454,5.5,5.5,0,0,0,5.476,5.471h.018a5.426,5.426,0,0,0,5.431-5.454,5.5,5.5,0,0,0-5.476-5.471Zm2.184,7.632a2.979,2.979,0,0,1-2.15.884,3.091,3.091,0,0,1-3.075-3.072A3.017,3.017,0,0,1,308.6,393.4a3.091,3.091,0,0,1,3.075,3.072A3,3,0,0,1,310.791,398.626Z" transform="translate(-255.182 -328.196)" fill="#060606"/>
        <path id="Trazado_1005006" data-name="Trazado 1005006" d="M73.915,52.248a1.234,1.234,0,0,0,.852-2.056L70.66,46.084a1.205,1.205,0,0,0-1.7,1.7L73.064,51.9A1.2,1.2,0,0,0,73.915,52.248Z" transform="translate(-58.297 -38.383)" fill="#060606"/>
        <path id="Trazado_1005007" data-name="Trazado 1005007" d="M11.426,204.487H5.617a1.205,1.205,0,0,0,0,2.409h5.809A1.205,1.205,0,0,0,11.426,204.487Z" transform="translate(-4.449 -171.644)" fill="#060606"/>
        <path id="Trazado_1005008" data-name="Trazado 1005008" d="M75.352,337.035l-4.107,4.108a1.205,1.205,0,0,0,1.7,1.7l4.107-4.108A1.205,1.205,0,0,0,75.352,337.035Z" transform="translate(-60.217 -282.604)" fill="#060606"/>
      </g>
    </g>
  </g>
</svg>
