<svg xmlns="http://www.w3.org/2000/svg" width="150" height="150" viewBox="0 0 150 150">
  <g id="Grupo_1192586" data-name="Grupo 1192586" transform="translate(-72.746 -7992)">
    <g id="Elipse_13628" data-name="Elipse 13628" transform="translate(72.746 7992)" fill="#fff7e2" stroke="#cff878" stroke-width="6">
      <circle cx="75" cy="75" r="75" stroke="none"/>
      <circle cx="75" cy="75" r="72" fill="none"/>
    </g>
    <g id="Grupo_1192906" data-name="Grupo 1192906" transform="translate(113.618 8032.872)">
      <g id="Grupo_1192904" data-name="Grupo 1192904" transform="translate(1 1)">
        <path id="Trazado_1005830" data-name="Trazado 1005830" d="M105.487,108.145H69.114A14.739,14.739,0,0,1,54.392,93.423v-.183A14.739,14.739,0,0,1,69.114,78.517h24.31a9.4,9.4,0,1,0,0-18.809H57.051a2.659,2.659,0,0,1,0-5.318H93.424a14.722,14.722,0,1,1,0,29.445H69.114a9.415,9.415,0,0,0-9.4,9.4v.183a9.415,9.415,0,0,0,9.4,9.4h36.373a2.659,2.659,0,1,1,0,5.318Z" transform="translate(-48.141 -48.139)" fill="#756e78"/>
        <g id="Grupo_1192898" data-name="Grupo 1192898" transform="translate(6.251 11.569)">
          <path id="Trazado_1005831" data-name="Trazado 1005831" d="M347.174,113.089h3.218a9.4,9.4,0,1,0,0-18.809h-3.218a9.4,9.4,0,0,1,0,18.809Z" transform="translate(-308.142 -94.28)" fill="#665e66"/>
          <path id="Trazado_1005832" data-name="Trazado 1005832" d="M57.611,250.273v-.183a14.739,14.739,0,0,1,14.722-14.722H69.115a14.739,14.739,0,0,0-14.722,14.722v.183a14.739,14.739,0,0,0,14.722,14.722h3.218A14.739,14.739,0,0,1,57.611,250.273Z" transform="translate(-54.393 -216.558)" fill="#665e66"/>
        </g>
        <g id="Grupo_1192899" data-name="Grupo 1192899">
          <path id="Trazado_1005833" data-name="Trazado 1005833" d="M20.784,25.32H12.04A4.538,4.538,0,0,1,7.5,20.782V12.038A4.538,4.538,0,0,1,12.04,7.5h8.744a4.538,4.538,0,0,1,4.538,4.538v8.744A4.538,4.538,0,0,1,20.784,25.32Z" transform="translate(-7.502 -7.5)" fill="#dd636e"/>
          <path id="Trazado_1005834" data-name="Trazado 1005834" d="M15.831,25.324h-3.79A4.538,4.538,0,0,1,7.5,20.785V12.043A4.538,4.538,0,0,1,12.041,7.5h3.79a4.538,4.538,0,0,0-4.537,4.539v8.742A4.538,4.538,0,0,0,15.831,25.324Z" transform="translate(-7.502 -7.503)" fill="#da4a54"/>
        </g>
        <g id="Grupo_1192900" data-name="Grupo 1192900" transform="translate(48.436 48.436)">
          <path id="Trazado_1005835" data-name="Trazado 1005835" d="M384.11,388.646h-8.744a4.538,4.538,0,0,1-4.538-4.538v-8.744a4.538,4.538,0,0,1,4.538-4.538h8.744a4.538,4.538,0,0,1,4.538,4.538v8.744A4.538,4.538,0,0,1,384.11,388.646Z" transform="translate(-370.828 -370.826)" fill="#dd636e"/>
          <path id="Trazado_1005836" data-name="Trazado 1005836" d="M379.157,388.65h-3.79a4.538,4.538,0,0,1-4.539-4.539v-8.742a4.538,4.538,0,0,1,4.539-4.539h3.79a4.538,4.538,0,0,0-4.537,4.539v8.742A4.538,4.538,0,0,0,379.157,388.65Z" transform="translate(-370.828 -370.829)" fill="#da4a54"/>
        </g>
        <g id="Grupo_1192901" data-name="Grupo 1192901" transform="translate(24.127)">
          <path id="Trazado_1005837" data-name="Trazado 1005837" d="M201.763,25.32h-8.744a4.538,4.538,0,0,1-4.538-4.538V12.038A4.538,4.538,0,0,1,193.019,7.5h8.744a4.538,4.538,0,0,1,4.538,4.538v8.744A4.538,4.538,0,0,1,201.763,25.32Z" transform="translate(-188.481 -7.5)" fill="#b3e59f"/>
          <path id="Trazado_1005838" data-name="Trazado 1005838" d="M196.81,25.324h-3.79a4.538,4.538,0,0,1-4.539-4.539V12.043A4.538,4.538,0,0,1,193.02,7.5h3.79a4.538,4.538,0,0,0-4.537,4.539v8.742A4.538,4.538,0,0,0,196.81,25.324Z" transform="translate(-188.481 -7.503)" fill="#95d6a4"/>
        </g>
        <g id="Grupo_1192902" data-name="Grupo 1192902" transform="translate(24.127 24.127)">
          <path id="Trazado_1005839" data-name="Trazado 1005839" d="M201.763,206.3h-8.744a4.538,4.538,0,0,1-4.538-4.538v-8.744a4.538,4.538,0,0,1,4.538-4.538h8.744a4.538,4.538,0,0,1,4.538,4.538v8.744A4.538,4.538,0,0,1,201.763,206.3Z" transform="translate(-188.481 -188.478)" fill="#dd636e"/>
          <path id="Trazado_1005840" data-name="Trazado 1005840" d="M196.81,206.3h-3.79a4.538,4.538,0,0,1-4.539-4.539v-8.742a4.538,4.538,0,0,1,4.539-4.539h3.79a4.538,4.538,0,0,0-4.537,4.539v8.742A4.538,4.538,0,0,0,196.81,206.3Z" transform="translate(-188.481 -188.481)" fill="#da4a54"/>
        </g>
        <g id="Grupo_1192903" data-name="Grupo 1192903" transform="translate(24.127 48.16)">
          <path id="Trazado_1005841" data-name="Trazado 1005841" d="M201.763,386.571h-8.744a4.538,4.538,0,0,1-4.538-4.538v-8.744a4.538,4.538,0,0,1,4.538-4.538h8.744a4.538,4.538,0,0,1,4.538,4.538v8.744A4.538,4.538,0,0,1,201.763,386.571Z" transform="translate(-188.481 -368.751)" fill="#ffe07d"/>
          <path id="Trazado_1005842" data-name="Trazado 1005842" d="M196.81,386.574h-3.79a4.538,4.538,0,0,1-4.539-4.539v-8.743a4.538,4.538,0,0,1,4.539-4.539h3.79a4.538,4.538,0,0,0-4.537,4.539v8.742A4.538,4.538,0,0,0,196.81,386.574Z" transform="translate(-188.481 -368.754)" fill="#ffd064"/>
        </g>
      </g>
      <g id="Grupo_1192905" data-name="Grupo 1192905" transform="translate(0 0)">
        <path id="Trazado_1005843" data-name="Trazado 1005843" d="M62.719,48.437H59.765a1,1,0,1,0,0,2h2.954a3.542,3.542,0,0,1,3.538,3.538v8.743a3.543,3.543,0,0,1-3.538,3.539H53.975a3.543,3.543,0,0,1-3.538-3.539V53.975a3.542,3.542,0,0,1,3.538-3.538h1.79a1,1,0,1,0,0-2h-1.79a5.544,5.544,0,0,0-5.538,5.538v.713h-4.49V53.7a5.544,5.544,0,0,0-5.538-5.538H29.665A5.544,5.544,0,0,0,24.127,53.7v.989H21.974a8.414,8.414,0,0,1-8.4-8.4V46.1a8.414,8.414,0,0,1,8.4-8.4h2.154v.713a5.544,5.544,0,0,0,5.538,5.538h8.744a5.544,5.544,0,0,0,5.538-5.538V37.7h2.336a15.722,15.722,0,1,0,0-31.445H43.947V5.538A5.544,5.544,0,0,0,38.409,0H29.665a5.544,5.544,0,0,0-5.538,5.538v.713H19.82V5.538A5.544,5.544,0,0,0,14.282,0H5.538A5.544,5.544,0,0,0,0,5.538V9.473a1,1,0,1,0,2,0V5.538A3.542,3.542,0,0,1,5.538,2h8.744A3.542,3.542,0,0,1,17.82,5.538v8.744a3.542,3.542,0,0,1-3.538,3.538H5.538A3.542,3.542,0,0,1,2,14.282v-.809a1,1,0,0,0-2,0v.809A5.544,5.544,0,0,0,5.538,19.82h8.744a5.544,5.544,0,0,0,5.538-5.538v-.713h4.308v.713a5.544,5.544,0,0,0,5.538,5.538h8.744a5.544,5.544,0,0,0,5.538-5.538v-.713h2.336a8.4,8.4,0,1,1,0,16.81H43.947v-.713a5.544,5.544,0,0,0-5.538-5.538H29.665a5.544,5.544,0,0,0-5.538,5.538v.713H21.974A15.74,15.74,0,0,0,6.251,46.1v.183A15.739,15.739,0,0,0,21.974,62.005h2.154v.436a5.544,5.544,0,0,0,5.538,5.538h8.744a5.544,5.544,0,0,0,5.538-5.538v-.436h4.49v.713a5.545,5.545,0,0,0,5.538,5.539h8.744a5.545,5.545,0,0,0,5.538-5.539V53.975a5.544,5.544,0,0,0-5.538-5.538ZM19.82,11.569V8.251h4.308v3.318Zm22.128,2.713a3.542,3.542,0,0,1-3.538,3.538H29.665a3.542,3.542,0,0,1-3.538-3.538V5.538A3.542,3.542,0,0,1,29.665,2h8.744a3.542,3.542,0,0,1,3.538,3.538Zm4.336,18.1a10.4,10.4,0,0,0,0-20.809H43.947V8.251h2.336a13.723,13.723,0,0,1,0,27.445H43.947V32.378ZM29.665,26.126h8.744a3.542,3.542,0,0,1,3.538,3.538v8.744a3.542,3.542,0,0,1-3.538,3.538H29.665a3.542,3.542,0,0,1-3.538-3.538V29.665a3.542,3.542,0,0,1,3.538-3.539ZM21.974,60.005A13.738,13.738,0,0,1,8.251,46.284V46.1A13.738,13.738,0,0,1,21.974,32.378h2.154V35.7H21.974a10.416,10.416,0,0,0-10.4,10.4v.183a10.416,10.416,0,0,0,10.4,10.4h2.154v3.318H21.974Zm19.974,2.436a3.542,3.542,0,0,1-3.538,3.538H29.665a3.542,3.542,0,0,1-3.538-3.538V53.7a3.542,3.542,0,0,1,3.538-3.538h8.744A3.542,3.542,0,0,1,41.947,53.7Zm2-2.436V56.687h4.49v3.318Z" transform="translate(0 0)"/>
        <path id="Trazado_1005844" data-name="Trazado 1005844" d="M62.2,42.446a1,1,0,0,0,1-1V31.852a1,1,0,0,0-1-1H60.146a1,1,0,0,0,0,2H61.2v8.6A1,1,0,0,0,62.2,42.446Z" transform="translate(-51.261 -26.739)"/>
        <path id="Trazado_1005845" data-name="Trazado 1005845" d="M415.547,395.622a1,1,0,1,0,0-2h-3.6a1,1,0,0,0-.986.836l-.714,4.31a1,1,0,0,0,1.443,1.053l.079-.037a3,3,0,0,1,1.463-.29,1.936,1.936,0,0,1,1.932,2.039,1.939,1.939,0,0,1-1.891,1.83h-.039a1.943,1.943,0,0,1-1.664-.944,1,1,0,1,0-1.716,1.026,3.946,3.946,0,0,0,3.38,1.917h.079a3.946,3.946,0,0,0,3.848-3.726,3.9,3.9,0,0,0-1.076-2.916,3.951,3.951,0,0,0-2.853-1.226,7.106,7.106,0,0,0-.752.036l.316-1.91Z" transform="translate(-355.086 -341.147)"/>
        <path id="Trazado_1005846" data-name="Trazado 1005846" d="M232.244,398.864h-.22c.014-2.323.021-4.837-.007-5.181a1.682,1.682,0,0,0-1.114-1.519,1.621,1.621,0,0,0-1.741.64c-.555.681-3.277,5.6-3.817,6.577a1,1,0,0,0,.875,1.483h3.792c0,.646-.01,1.266-.014,1.823a1,1,0,0,0,.991,1.008H231a1,1,0,0,0,1-.991c0-.34.008-1.011.015-1.841h.234a1,1,0,1,0,0-2Zm-2.22,0h-2.106c.8-1.428,1.579-2.8,2.119-3.716C230.037,396.1,230.031,397.456,230.023,398.864Z" transform="translate(-195.194 -339.828)"/>
        <path id="Trazado_1005847" data-name="Trazado 1005847" d="M234.316,39.907H234.3c-1.038.013-2.143.021-3.026.022.539-.717,1.312-1.769,2.383-3.3a7.2,7.2,0,0,0,1.175-2.43,1,1,0,0,0,.018-.1l.047-.371a1.006,1.006,0,0,0,.008-.127,3.455,3.455,0,0,0-6.845-.669,1,1,0,1,0,1.962.385,1.456,1.456,0,0,1,2.882.228l-.031.246a5.388,5.388,0,0,1-.854,1.69c-1.521,2.173-2.428,3.361-2.916,4-.6.785-.848,1.111-.676,1.67a1.045,1.045,0,0,0,.68.688,8.123,8.123,0,0,0,2.12.091c.73,0,1.728-.007,3.1-.024a1,1,0,0,0-.012-2Z" transform="translate(-197.643 -26.128)"/>
        <path id="Trazado_1005848" data-name="Trazado 1005848" d="M232.855,220.8a1.46,1.46,0,0,1-1.441-1.251,1.484,1.484,0,0,1-.014-.2,1,1,0,1,0-2,0,3.455,3.455,0,0,0,6.91,0,3.444,3.444,0,0,0-1.026-2.455,3.454,3.454,0,1,0-5.819-3.124,1,1,0,1,0,1.962.385,1.456,1.456,0,1,1,1.428,1.739,1,1,0,1,0,0,2,1.455,1.455,0,1,1,0,2.911Z" transform="translate(-198.818 -182.853)"/>
      </g>
    </g>
  </g>
</svg>
