<svg xmlns="http://www.w3.org/2000/svg" width="150" height="150" viewBox="0 0 150 150">
  <g id="Grupo_1192588" data-name="Grupo 1192588" transform="translate(-72.746 -7991.711)">
    <g id="Elipse_13628" data-name="Elipse 13628" transform="translate(72.746 7991.711)" fill="#fff7e2" stroke="#cff878" stroke-width="6">
      <circle cx="75" cy="75" r="75" stroke="none"/>
      <circle cx="75" cy="75" r="72" fill="none"/>
    </g>
    <g id="Grupo_1192925" data-name="Grupo 1192925" transform="translate(107.247 8024.979)">
      <g id="Grupo_1192908" data-name="Grupo 1192908" transform="translate(1.198 18.559)">
        <path id="Trazado_1005849" data-name="Trazado 1005849" d="M33.138,151.793a9.382,9.382,0,0,1,9.382-9.382h.031V120.465l-1.89,1.89a.918.918,0,0,1-1.212.079,16.292,16.292,0,0,1-2.787-2.787.918.918,0,0,1,.079-1.212l2.329-2.329a.923.923,0,0,0,.159-1.085,11.422,11.422,0,0,1-.8-1.923.923.923,0,0,0-.879-.654H34.258a.917.917,0,0,1-.913-.8,16.318,16.318,0,0,1-.119-1.971c0-.03,0-.06,0-.091H15.276a1.6,1.6,0,0,0-1.13.468l-6.178,6.178a1.6,1.6,0,0,0-.468,1.13v34.526a1.6,1.6,0,0,0,1.6,1.6H33.292A9.424,9.424,0,0,1,33.138,151.793Z" transform="translate(-7.5 -109.581)" fill="#fef1da"/>
        <g id="Grupo_1192907" data-name="Grupo 1192907" transform="translate(0)">
          <path id="Trazado_1005850" data-name="Trazado 1005850" d="M14.129,151.883V117.357a1.6,1.6,0,0,1,.468-1.13l6.178-6.178a1.6,1.6,0,0,1,1.13-.468H15.276a1.6,1.6,0,0,0-1.13.468l-6.178,6.178a1.6,1.6,0,0,0-.468,1.13v34.526a1.6,1.6,0,0,0,1.6,1.6h6.629a1.6,1.6,0,0,1-1.6-1.6Z" transform="translate(-7.5 -109.581)" fill="#fae2c0"/>
        </g>
      </g>
      <g id="Grupo_1192911" data-name="Grupo 1192911" transform="translate(26.836 51.389)">
        <g id="Grupo_1192909" data-name="Grupo 1192909">
          <circle id="Elipse_13804" data-name="Elipse 13804" cx="9.382" cy="9.382" r="9.382" fill="#05e39c"/>
        </g>
        <g id="Grupo_1192910" data-name="Grupo 1192910" transform="translate(0 0)">
          <path id="Trazado_1005851" data-name="Trazado 1005851" d="M173.352,324.485a9.384,9.384,0,0,1,6.7-8.991,9.382,9.382,0,1,0,0,17.983A9.384,9.384,0,0,1,173.352,324.485Z" transform="translate(-167.993 -315.103)" fill="#0ed290"/>
        </g>
      </g>
      <g id="Grupo_1192917" data-name="Grupo 1192917" transform="translate(26.924 2.452)">
        <g id="Grupo_1192912" data-name="Grupo 1192912" transform="translate(0 0)">
          <path id="Trazado_1005852" data-name="Trazado 1005852" d="M195.1,18.514l2.329-2.329a.918.918,0,0,0,.079-1.212,16.291,16.291,0,0,0-2.787-2.787.918.918,0,0,0-1.212.079l-2.329,2.329a.923.923,0,0,1-1.085.159,11.422,11.422,0,0,0-1.923-.8.923.923,0,0,1-.654-.879V9.783a.917.917,0,0,0-.8-.913,16.32,16.32,0,0,0-3.942,0,.917.917,0,0,0-.8.913v3.295a.922.922,0,0,1-.654.879,11.448,11.448,0,0,0-1.923.8.923.923,0,0,1-1.085-.159l-2.329-2.329a.918.918,0,0,0-1.212-.079,16.291,16.291,0,0,0-2.787,2.787.918.918,0,0,0,.079,1.212l2.329,2.329a.923.923,0,0,1,.159,1.085,11.421,11.421,0,0,0-.8,1.923.923.923,0,0,1-.879.654h-3.295a.917.917,0,0,0-.913.8,16.319,16.319,0,0,0,0,3.942.917.917,0,0,0,.913.8h3.295a.922.922,0,0,1,.879.654,11.45,11.45,0,0,0,.8,1.923.923.923,0,0,1-.159,1.085l-2.329,2.329a.918.918,0,0,0-.079,1.212,16.291,16.291,0,0,0,2.787,2.787.917.917,0,0,0,1.212-.079l2.329-2.329a.923.923,0,0,1,1.085-.159,11.422,11.422,0,0,0,1.923.8.923.923,0,0,1,.654.879v3.295a.917.917,0,0,0,.8.913,16.32,16.32,0,0,0,3.942,0,.917.917,0,0,0,.8-.913V36.819a.922.922,0,0,1,.654-.879,11.448,11.448,0,0,0,1.923-.8.923.923,0,0,1,1.085.159l2.329,2.329a.918.918,0,0,0,1.212.079,16.292,16.292,0,0,0,2.787-2.787.918.918,0,0,0-.079-1.212L195.1,31.382a.923.923,0,0,1-.159-1.085,11.422,11.422,0,0,0,.8-1.923.923.923,0,0,1,.879-.654h3.295a.917.917,0,0,0,.913-.8,16.319,16.319,0,0,0,0-3.942.917.917,0,0,0-.913-.8h-3.295a.922.922,0,0,1-.879-.654,11.447,11.447,0,0,0-.8-1.923A.923.923,0,0,1,195.1,18.514Z" transform="translate(-168.544 -8.751)" fill="#7ca1b1"/>
        </g>
        <g id="Grupo_1192913" data-name="Grupo 1192913" transform="translate(0 0)">
          <path id="Trazado_1005853" data-name="Trazado 1005853" d="M182.163,33.006a8.46,8.46,0,0,1,0-16.115,12.346,12.346,0,0,1,5.375-3.617.9.9,0,0,1-.024-.2V9.783a.917.917,0,0,0-.8-.913,16.319,16.319,0,0,0-3.942,0,.917.917,0,0,0-.8.913v3.295a.922.922,0,0,1-.654.879,11.448,11.448,0,0,0-1.923.8.923.923,0,0,1-1.085-.159l-2.329-2.329a.918.918,0,0,0-1.212-.079,16.291,16.291,0,0,0-2.787,2.787.918.918,0,0,0,.079,1.212l2.329,2.329a.923.923,0,0,1,.159,1.085,11.421,11.421,0,0,0-.8,1.923.923.923,0,0,1-.879.654h-3.295a.917.917,0,0,0-.913.8,16.319,16.319,0,0,0,0,3.942.917.917,0,0,0,.913.8h3.295a.922.922,0,0,1,.879.654,11.45,11.45,0,0,0,.8,1.923.923.923,0,0,1-.159,1.085l-2.329,2.329a.918.918,0,0,0-.079,1.212,16.291,16.291,0,0,0,2.787,2.787.918.918,0,0,0,1.212-.079l2.329-2.329a.923.923,0,0,1,1.085-.159,11.421,11.421,0,0,0,1.923.8.923.923,0,0,1,.654.879v3.295a.917.917,0,0,0,.8.913,16.319,16.319,0,0,0,3.942,0,.917.917,0,0,0,.8-.913V36.819a.9.9,0,0,1,.024-.2A12.341,12.341,0,0,1,182.163,33.006Z" transform="translate(-168.544 -8.751)" fill="#678d98"/>
        </g>
        <g id="Grupo_1192914" data-name="Grupo 1192914" transform="translate(8.935 8.935)">
          <circle id="Elipse_13805" data-name="Elipse 13805" cx="7.262" cy="7.262" r="7.262" fill="#3e5959"/>
        </g>
        <g id="Grupo_1192915" data-name="Grupo 1192915" transform="translate(8.935 8.935)">
          <path id="Trazado_1005854" data-name="Trazado 1005854" d="M228.553,71.947a7.264,7.264,0,0,1,5.224-6.97,7.262,7.262,0,1,0,0,13.94,7.264,7.264,0,0,1-5.224-6.97Z" transform="translate(-224.476 -64.685)" fill="#384949"/>
        </g>
        <g id="Grupo_1192916" data-name="Grupo 1192916" transform="translate(13.676 13.676)">
          <circle id="Elipse_13806" data-name="Elipse 13806" cx="2.521" cy="2.521" r="2.521" fill="#fff"/>
        </g>
      </g>
      <g id="Grupo_1192918" data-name="Grupo 1192918" transform="translate(51.651 40.841)">
        <path id="Trazado_1005855" data-name="Trazado 1005855" d="M351.48,259.4H324.139a.8.8,0,0,1-.8-.8v-8.738a.8.8,0,0,1,.8-.8H351.48a.8.8,0,0,1,.8.8V258.6A.8.8,0,0,1,351.48,259.4Z" transform="translate(-323.34 -249.066)" fill="#01d0fb"/>
      </g>
      <g id="Grupo_1192919" data-name="Grupo 1192919" transform="translate(51.651 40.841)">
        <path id="Trazado_1005856" data-name="Trazado 1005856" d="M328.717,258.6v-8.738a.8.8,0,0,1,.8-.8h-5.377a.8.8,0,0,0-.8.8V258.6a.8.8,0,0,0,.8.8h5.377A.8.8,0,0,1,328.717,258.6Z" transform="translate(-323.34 -249.066)" fill="#01c0fa"/>
      </g>
      <g id="Grupo_1192920" data-name="Grupo 1192920" transform="translate(51.651 55.975)">
        <path id="Trazado_1005857" data-name="Trazado 1005857" d="M351.48,354.141H324.139a.8.8,0,0,1-.8-.8V344.6a.8.8,0,0,1,.8-.8H351.48a.8.8,0,0,1,.8.8v8.738A.8.8,0,0,1,351.48,354.141Z" transform="translate(-323.34 -343.806)" fill="#fed402"/>
      </g>
      <g id="Grupo_1192921" data-name="Grupo 1192921" transform="translate(51.651 55.975)">
        <path id="Trazado_1005858" data-name="Trazado 1005858" d="M328.717,353.343V344.6a.8.8,0,0,1,.8-.8h-5.377a.8.8,0,0,0-.8.8v8.738a.8.8,0,0,0,.8.8h5.377A.8.8,0,0,1,328.717,353.343Z" transform="translate(-323.34 -343.806)" fill="#fac600"/>
      </g>
      <g id="Grupo_1192922" data-name="Grupo 1192922" transform="translate(51.651 71.108)">
        <path id="Trazado_1005859" data-name="Trazado 1005859" d="M351.48,448.88H324.139a.8.8,0,0,1-.8-.8v-8.738a.8.8,0,0,1,.8-.8H351.48a.8.8,0,0,1,.8.8v8.738A.8.8,0,0,1,351.48,448.88Z" transform="translate(-323.34 -438.545)" fill="#fd5426"/>
      </g>
      <g id="Grupo_1192923" data-name="Grupo 1192923" transform="translate(51.651 71.108)">
        <path id="Trazado_1005860" data-name="Trazado 1005860" d="M328.717,448.082v-8.738a.8.8,0,0,1,.8-.8h-5.377a.8.8,0,0,0-.8.8v8.738a.8.8,0,0,0,.8.8h5.377A.8.8,0,0,1,328.717,448.082Z" transform="translate(-323.34 -438.545)" fill="#ef4424"/>
      </g>
      <g id="Grupo_1192924" data-name="Grupo 1192924" transform="translate(0 1.255)">
        <path id="Trazado_1005861" data-name="Trazado 1005861" d="M403.464,110.167v.241a1.2,1.2,0,0,0,2.4,0v-.241a3.6,3.6,0,0,0-.843-2.313,1.2,1.2,0,1,0-1.833,1.543A1.185,1.185,0,0,1,403.464,110.167Z" transform="translate(-338.542 -90.467)"/>
        <path id="Trazado_1005862" data-name="Trazado 1005862" d="M407.618,180.589a1.2,1.2,0,0,0-1.2,1.2V183.7a1.2,1.2,0,0,0,2.4,0v-1.917A1.2,1.2,0,0,0,407.618,180.589Z" transform="translate(-341.497 -151.942)"/>
        <path id="Trazado_1005863" data-name="Trazado 1005863" d="M408.816,144.787a1.2,1.2,0,0,0-2.4,0V146.7a1.2,1.2,0,0,0,2.4,0Z" transform="translate(-341.497 -120.852)"/>
        <path id="Trazado_1005864" data-name="Trazado 1005864" d="M275.615,463.395H273.7a1.2,1.2,0,0,0,0,2.4h1.917a1.2,1.2,0,0,0,0-2.4Z" transform="translate(-228.97 -389.572)"/>
        <path id="Trazado_1005865" data-name="Trazado 1005865" d="M238.615,463.395H236.7a1.2,1.2,0,0,0,0,2.4h1.917a1.2,1.2,0,0,0,0-2.4Z" transform="translate(-197.881 -389.572)"/>
        <path id="Trazado_1005866" data-name="Trazado 1005866" d="M201.615,463.395H199.7a1.2,1.2,0,0,0,0,2.4h1.917a1.2,1.2,0,0,0,0-2.4Z" transform="translate(-166.791 -389.572)"/>
        <path id="Trazado_1005867" data-name="Trazado 1005867" d="M164.615,463.395H162.7a1.2,1.2,0,1,0,0,2.4h1.917a1.2,1.2,0,1,0,0-2.4Z" transform="translate(-135.702 -389.572)"/>
        <path id="Trazado_1005868" data-name="Trazado 1005868" d="M131.507,455.238a1.206,1.206,0,0,1-.649-.672,1.2,1.2,0,1,0-2.235.864,3.617,3.617,0,0,0,1.945,2.012,1.2,1.2,0,1,0,.94-2.2Z" transform="translate(-108.009 -381.509)"/>
        <path id="Trazado_1005869" data-name="Trazado 1005869" d="M128.738,421.24a1.2,1.2,0,0,0,1.2-1.2v-1.917a1.2,1.2,0,0,0-2.4,0v1.917A1.2,1.2,0,0,0,128.738,421.24Z" transform="translate(-107.166 -350.526)"/>
        <path id="Trazado_1005870" data-name="Trazado 1005870" d="M75.513,172.244H58.9a1.2,1.2,0,0,0,0,2.4H75.513a1.2,1.2,0,1,0,0-2.4Z" transform="translate(-48.482 -144.93)"/>
        <path id="Trazado_1005871" data-name="Trazado 1005871" d="M75.513,208.582H58.9a1.2,1.2,0,1,0,0,2.4H75.513a1.2,1.2,0,1,0,0-2.4Z" transform="translate(-48.482 -175.463)"/>
        <path id="Trazado_1005872" data-name="Trazado 1005872" d="M75.513,244.756H58.9a1.2,1.2,0,1,0,0,2.4H75.513a1.2,1.2,0,1,0,0-2.4Z" transform="translate(-48.482 -205.858)"/>
        <path id="Trazado_1005873" data-name="Trazado 1005873" d="M76.711,282.454a1.2,1.2,0,0,0-1.2-1.2H58.9a1.2,1.2,0,1,0,0,2.4H75.513A1.2,1.2,0,0,0,76.711,282.454Z" transform="translate(-48.482 -236.528)"/>
        <path id="Trazado_1005874" data-name="Trazado 1005874" d="M58.9,317.593a1.2,1.2,0,1,0,0,2.4h7.449a1.2,1.2,0,0,0,0-2.4Z" transform="translate(-48.482 -267.06)"/>
        <path id="Trazado_1005875" data-name="Trazado 1005875" d="M196.674,359.548a1.2,1.2,0,0,0,1.694,0l4.836-4.836a1.2,1.2,0,1,0-1.694-1.694l-3.989,3.989-2.8-2.8a1.2,1.2,0,0,0-1.694,1.694Z" transform="translate(-161.9 -296.531)"/>
        <path id="Trazado_1005876" data-name="Trazado 1005876" d="M53.834,32.355a17.507,17.507,0,0,0,2.992-2.992,2.117,2.117,0,0,0-.175-2.8l-2.184-2.184A12.7,12.7,0,0,0,55.2,22.62h3.09a2.116,2.116,0,0,0,2.1-1.854c.041-.334.071-.671.092-1.009h1.34a1.2,1.2,0,0,0,0-2.4H60.467c-.02-.277-.045-.553-.079-.827a2.116,2.116,0,0,0-2.1-1.854H55.2a12.7,12.7,0,0,0-.729-1.761l2.184-2.184a2.117,2.117,0,0,0,.175-2.8,17.517,17.517,0,0,0-2.992-2.992,2.116,2.116,0,0,0-2.8.175L48.853,7.3a12.675,12.675,0,0,0-1.761-.729V3.484a2.116,2.116,0,0,0-1.854-2.1,17.594,17.594,0,0,0-4.232,0,2.116,2.116,0,0,0-1.854,2.1v3.09A12.675,12.675,0,0,0,37.39,7.3L35.206,5.119a2.116,2.116,0,0,0-2.8-.175,17.5,17.5,0,0,0-2.992,2.992,2.116,2.116,0,0,0,.175,2.8l2.184,2.184a12.7,12.7,0,0,0-.729,1.761h-3.09a2.116,2.116,0,0,0-2.1,1.854c-.033.274-.058.55-.079.827H8.974A2.777,2.777,0,0,0,7,18.179L.819,24.358A2.777,2.777,0,0,0,0,26.335V60.861a2.8,2.8,0,0,0,2.8,2.8H20.374v1.2a1.2,1.2,0,0,0,2.4,0v-1.2h3.271A10.579,10.579,0,1,0,37.446,50.265V44.824a1.2,1.2,0,0,0-2.4,0v5.434a10.594,10.594,0,0,0-9.413,10.514c0,.164,0,.327.012.489H2.8a.4.4,0,0,1-.4-.4V26.335a.4.4,0,0,1,.117-.282l6.178-6.178a.4.4,0,0,1,.282-.117H25.761c.021.338.052.675.092,1.009a2.116,2.116,0,0,0,2.1,1.854h3.09a12.674,12.674,0,0,0,.729,1.761l-2.184,2.184a2.116,2.116,0,0,0-.175,2.8,17.511,17.511,0,0,0,2.992,2.992,2.116,2.116,0,0,0,2.642-.035v6.913a1.2,1.2,0,1,0,2.4,0V30.023a12.673,12.673,0,0,0,1.7.7v3.09A2.116,2.116,0,0,0,41,35.917a17.527,17.527,0,0,0,4.232,0,2.116,2.116,0,0,0,1.854-2.1v-3.09A12.693,12.693,0,0,0,48.852,30l2.184,2.184a2.117,2.117,0,0,0,2.8.175ZM36.217,52.588a8.184,8.184,0,1,1-8.184,8.184A8.193,8.193,0,0,1,36.217,52.588Zm11.7-24.8a10.269,10.269,0,0,1-1.721.712,2.112,2.112,0,0,0-1.5,2.023v3.047a15.181,15.181,0,0,1-3.148,0V30.52a2.113,2.113,0,0,0-1.5-2.023,10.255,10.255,0,0,1-1.721-.712,2.114,2.114,0,0,0-2.489.372L33.686,30.31a15.118,15.118,0,0,1-2.226-2.226l2.153-2.153a2.113,2.113,0,0,0,.372-2.489,10.273,10.273,0,0,1-.713-1.721,2.113,2.113,0,0,0-2.023-1.5H28.2a15.13,15.13,0,0,1,0-3.148H31.25a2.113,2.113,0,0,0,2.023-1.5,10.284,10.284,0,0,1,.712-1.721,2.113,2.113,0,0,0-.372-2.489L31.46,9.215a15.11,15.11,0,0,1,2.226-2.226L35.84,9.142a2.113,2.113,0,0,0,2.489.372A10.282,10.282,0,0,1,40.05,8.8a2.113,2.113,0,0,0,1.5-2.023V3.732a15.181,15.181,0,0,1,3.148,0V6.779a2.113,2.113,0,0,0,1.5,2.023,10.267,10.267,0,0,1,1.721.713A2.113,2.113,0,0,0,50.4,9.142l2.153-2.153a15.11,15.11,0,0,1,2.226,2.226l-2.153,2.153h0a2.113,2.113,0,0,0-.372,2.489,10.261,10.261,0,0,1,.713,1.721,2.112,2.112,0,0,0,2.023,1.5h3.047a15.1,15.1,0,0,1,0,3.148H54.991a2.112,2.112,0,0,0-2.023,1.5,10.3,10.3,0,0,1-.712,1.721,2.113,2.113,0,0,0,.372,2.489l2.153,2.153a15.118,15.118,0,0,1-2.226,2.226L50.4,28.157a2.113,2.113,0,0,0-2.489-.373Z" transform="translate(0 -1.255)"/>
        <path id="Trazado_1005877" data-name="Trazado 1005877" d="M231.592,61.609a1.2,1.2,0,0,0-.609,1.581,6.062,6.062,0,1,1-3.39-3.214,1.2,1.2,0,0,0,.852-2.24,8.462,8.462,0,1,0,4.728,4.481,1.2,1.2,0,0,0-1.581-.609Z" transform="translate(-182.317 -48.251)"/>
        <path id="Trazado_1005878" data-name="Trazado 1005878" d="M250.374,86.864a3.719,3.719,0,1,0,3.719,3.719A3.724,3.724,0,0,0,250.374,86.864Zm0,5.043a1.323,1.323,0,1,1,1.323-1.323A1.325,1.325,0,0,1,250.374,91.907Z" transform="translate(-207.254 -73.189)"/>
        <path id="Trazado_1005879" data-name="Trazado 1005879" d="M339.851,234.151a2,2,0,0,0,2-2v-8.738a2,2,0,0,0-2-2H327.14a1.191,1.191,0,0,0,.238-.715v-1.917a1.2,1.2,0,1,0-2.4,0V220.7a1.191,1.191,0,0,0,.238.715H312.51a2,2,0,0,0-2,2v8.738a2,2,0,0,0,2,2h12.473v2.4H312.51a2,2,0,0,0-2,2v8.738a2,2,0,0,0,2,2h12.473v2.4H312.51a2,2,0,0,0-2,2v3.187a1.2,1.2,0,0,0,0,2.364v3.187a2,2,0,0,0,2,2h27.342a2,2,0,0,0,2-2v-8.738a2,2,0,0,0-2-2H327.378v-2.4h3.128a1.2,1.2,0,1,0,0-2.4h-17.6v-7.939h26.543v7.939H336.1a1.2,1.2,0,0,0,0,2.4h3.754a2,2,0,0,0,2-2V238.55a2,2,0,0,0-2-2H327.378v-2.4Zm-.4,19.932v7.939H312.909v-7.939Zm-26.543-22.329v-7.939h26.543v7.939Z" transform="translate(-260.06 -183.031)"/>
        <path id="Trazado_1005880" data-name="Trazado 1005880" d="M370.193,273.916h-17.57a1.2,1.2,0,0,0,0,2.4h17.57a1.2,1.2,0,0,0,0-2.4Z" transform="translate(-295.288 -230.36)"/>
        <path id="Trazado_1005881" data-name="Trazado 1005881" d="M371.391,369.854a1.2,1.2,0,0,0-1.2-1.2h-17.57a1.2,1.2,0,0,0,0,2.4h17.57A1.2,1.2,0,0,0,371.391,369.854Z" transform="translate(-295.288 -309.966)"/>
        <path id="Trazado_1005882" data-name="Trazado 1005882" d="M352.623,465.791h17.57a1.2,1.2,0,1,0,0-2.4h-17.57a1.2,1.2,0,0,0,0,2.4Z" transform="translate(-295.287 -389.572)"/>
      </g>
    </g>
  </g>
</svg>
