<svg xmlns="http://www.w3.org/2000/svg" width="150" height="150" viewBox="0 0 150 150">
  <g id="Grupo_1192587" data-name="Grupo 1192587" transform="translate(-72.746 -7991.711)">
    <g id="Elipse_13628" data-name="Elipse 13628" transform="translate(72.746 7991.711)" fill="#fff7e2" stroke="#cff878" stroke-width="6">
      <circle cx="75" cy="75" r="75" stroke="none"/>
      <circle cx="75" cy="75" r="72" fill="none"/>
    </g>
    <g id="Grupo_1192929" data-name="Grupo 1192929" transform="translate(104.746 8023.711)">
      <g id="Grupo_1192927" data-name="Grupo 1192927" transform="translate(1.352 1.352)">
        <path id="Trazado_1005883" data-name="Trazado 1005883" d="M68.4,11.465h0A38.455,38.455,0,0,0,30.148,46.037L40.3,45.561A28.493,28.493,0,0,1,68.4,21.479l-.045.016v3.887l9.814-7.93L68.36,8v3.481" transform="translate(-26.405 -8)" fill="#ffe27a"/>
        <path id="Trazado_1005884" data-name="Trazado 1005884" d="M116.568,76.693l7.392-5.973a28.454,28.454,0,0,0-35.8,26.169l.346-.016A28.492,28.492,0,0,1,116.613,72.79l-.045.016Z" transform="translate(-74.613 -59.312)" fill="#f9cf58"/>
        <path id="Trazado_1005885" data-name="Trazado 1005885" d="M180.755,160.163l-3.216-.483a15,15,0,0,0-2.365-5.707l1.933-2.616a1.151,1.151,0,0,0-.112-1.5l-1.664-1.664a1.151,1.151,0,0,0-1.5-.112l-2.616,1.933a15,15,0,0,0-5.706-2.365l-.483-3.216a1.151,1.151,0,0,0-1.138-.979h-2.354a1.15,1.15,0,0,0-1.138.979l-.483,3.216a15,15,0,0,0-5.706,2.365l-2.616-1.933a1.15,1.15,0,0,0-1.5.112l-1.664,1.664a1.151,1.151,0,0,0-.112,1.5l1.933,2.616a15,15,0,0,0-2.365,5.707l-3.216.483a1.151,1.151,0,0,0-.979,1.138v2.354a1.151,1.151,0,0,0,.979,1.138l3.216.483a15,15,0,0,0,2.365,5.707l-1.933,2.616a1.151,1.151,0,0,0,.112,1.5l1.664,1.664a1.15,1.15,0,0,0,1.5.112l2.616-1.933a15,15,0,0,0,5.706,2.365l.483,3.216a1.151,1.151,0,0,0,1.138.979h2.354a1.15,1.15,0,0,0,1.138-.979l.483-3.216a15,15,0,0,0,5.706-2.365l2.616,1.933a1.15,1.15,0,0,0,1.5-.112L177,175.1a1.151,1.151,0,0,0,.112-1.5l-1.933-2.616a15,15,0,0,0,2.365-5.707l3.216-.483a1.151,1.151,0,0,0,.979-1.138V161.3A1.151,1.151,0,0,0,180.755,160.163Zm-18.042,9.928a7.614,7.614,0,1,1,7.614-7.614A7.614,7.614,0,0,1,162.713,170.091Z" transform="translate(-120.758 -120.562)" fill="#ff4755"/>
        <path id="Trazado_1005886" data-name="Trazado 1005886" d="M11.5,207.514c0,.013,0,.026,0,.039a38.455,38.455,0,0,0,34.573,38.257l-.6-10.171a28.444,28.444,0,0,1-23.964-28.086c0-.013,0-.026,0-.039h3.863l-7.93-9.814L8,207.514h3.481" transform="translate(-8 -165.638)" fill="#8bcaff"/>
        <path id="Trazado_1005887" data-name="Trazado 1005887" d="M207.514,303.068h.078a28.444,28.444,0,0,0,28.085-23.956l10.18-.692a38.455,38.455,0,0,1-38.265,34.661h-.078v3.466L197.7,307.1l9.814-7.93v3.887Z" transform="translate(-165.638 -232.716)" fill="#98db7c"/>
        <path id="Trazado_1005888" data-name="Trazado 1005888" d="M226.412,266.521A7.645,7.645,0,0,0,226.26,265a7.615,7.615,0,0,1-14.923,0,7.614,7.614,0,1,0,15.075,1.521Z" transform="translate(-176.844 -221.563)" fill="#fc2b3a"/>
        <path id="Trazado_1005889" data-name="Trazado 1005889" d="M218.761,310.041a38.627,38.627,0,0,1-7.621-.757l7.543,7.264v-3.466h.078a38.455,38.455,0,0,0,38.265-34.661l-.524.544A38.462,38.462,0,0,1,218.761,310.041Z" transform="translate(-176.806 -232.717)" fill="#82d361"/>
        <path id="Trazado_1005890" data-name="Trazado 1005890" d="M59.563,290.459a38.47,38.47,0,0,1-30.712-34.691h-.117c0,.013,0,.026,0,.039a38.455,38.455,0,0,0,34.573,38.257Z" transform="translate(-25.229 -213.891)" fill="#6cc4ff"/>
        <path id="Trazado_1005891" data-name="Trazado 1005891" d="M313.323,67.906c0-.013,0-.026,0-.039A38.455,38.455,0,0,0,278.664,29.6l6.023,5.8-5.406,4.368a28.444,28.444,0,0,1,24.029,28.1c0,.013,0,.026,0,.039h-3.941l7.93,9.814,9.452-9.814Z" transform="translate(-232.918 -25.951)" fill="#ffba57"/>
        <g id="Grupo_1192926" data-name="Grupo 1192926" transform="translate(46.364 11.409)">
          <path id="Trazado_1005892" data-name="Trazado 1005892" d="M285.3,75.5l-2.983,2.41A28.446,28.446,0,0,1,306.3,104.494q.04-.759.041-1.529A28.448,28.448,0,0,0,285.3,75.5Z" transform="translate(-282.316 -75.501)" fill="#ffac3e"/>
        </g>
      </g>
      <g id="Grupo_1192928" data-name="Grupo 1192928" transform="translate(0 0)">
        <path id="Trazado_1005893" data-name="Trazado 1005893" d="M212.47,203.347a8.9,8.9,0,0,0-8.36,11.956,1.27,1.27,0,1,0,2.386-.873,6.359,6.359,0,1,1,2.7,3.267,1.27,1.27,0,0,0-1.311,2.176,8.9,8.9,0,1,0,4.587-16.526Z" transform="translate(-169.164 -168.978)"/>
        <path id="Trazado_1005894" data-name="Trazado 1005894" d="M174.539,152.468l-2.355-.354a16.18,16.18,0,0,0-1.883-4.543l1.416-1.917a2.409,2.409,0,0,0-.236-3.153l-1.668-1.668a2.409,2.409,0,0,0-3.153-.236l-1.917,1.416a16.172,16.172,0,0,0-4.543-1.883l-.354-2.355a2.409,2.409,0,0,0-2.4-2.063h-2.358a2.409,2.409,0,0,0-2.4,2.063l-.354,2.355a16.174,16.174,0,0,0-4.543,1.883l-1.917-1.416a2.408,2.408,0,0,0-3.153.236l-1.667,1.668a2.408,2.408,0,0,0-.236,3.153l1.415,1.916a16.164,16.164,0,0,0-1.882,4.543l-2.355.354a2.408,2.408,0,0,0-2.063,2.4v2.358a2.408,2.408,0,0,0,2.063,2.4l2.355.354a16.176,16.176,0,0,0,1.882,4.543l-1.415,1.916a2.408,2.408,0,0,0,.235,3.153l1.668,1.668a2.408,2.408,0,0,0,3.153.235l1.916-1.416a16.173,16.173,0,0,0,4.543,1.883l.354,2.355a2.409,2.409,0,0,0,2.4,2.063h2.358a2.409,2.409,0,0,0,2.4-2.063l.354-2.355a16.172,16.172,0,0,0,4.543-1.883l1.917,1.416a2.409,2.409,0,0,0,3.153-.236l1.668-1.668a2.409,2.409,0,0,0,.235-3.153l-1.416-1.916a16.169,16.169,0,0,0,1.883-4.543l2.355-.354a2.408,2.408,0,0,0,2.063-2.4v-2.358A2.408,2.408,0,0,0,174.539,152.468Zm-.478,4.654-3.122.469a1.27,1.27,0,0,0-1.059,1.022,13.694,13.694,0,0,1-2.17,5.235,1.27,1.27,0,0,0,.027,1.472l1.876,2.54-1.525,1.525-2.54-1.877a1.271,1.271,0,0,0-1.472-.027,13.694,13.694,0,0,1-5.235,2.17,1.27,1.27,0,0,0-1.022,1.06l-.469,3.122h-2.156l-.469-3.122a1.27,1.27,0,0,0-1.022-1.06,13.694,13.694,0,0,1-5.235-2.17,1.269,1.269,0,0,0-1.472.027l-2.54,1.876-1.525-1.525,1.876-2.54a1.27,1.27,0,0,0,.027-1.472,13.692,13.692,0,0,1-2.169-5.235,1.27,1.27,0,0,0-1.059-1.022l-3.122-.469v-2.156l3.122-.469a1.27,1.27,0,0,0,1.059-1.022,13.693,13.693,0,0,1,2.169-5.235,1.27,1.27,0,0,0-.027-1.472l-1.876-2.54,1.525-1.525,2.54,1.876a1.27,1.27,0,0,0,1.472.027,13.7,13.7,0,0,1,5.235-2.17,1.27,1.27,0,0,0,1.022-1.06l.469-3.122h2.156l.469,3.122a1.271,1.271,0,0,0,1.022,1.06,13.691,13.691,0,0,1,5.235,2.17,1.27,1.27,0,0,0,1.472-.027l2.54-1.877,1.525,1.525-1.876,2.54a1.27,1.27,0,0,0-.027,1.472,13.693,13.693,0,0,1,2.17,5.235,1.27,1.27,0,0,0,1.059,1.022l3.122.469Z" transform="translate(-112.966 -112.775)"/>
        <path id="Trazado_1005895" data-name="Trazado 1005895" d="M86.434,42.81a1.27,1.27,0,0,0-1.169-.773H83.084A39.8,39.8,0,0,0,47.673,3.71L44.186.352a1.278,1.278,0,0,0-2.151.915V3.489A39.515,39.515,0,0,0,20.4,10.719,1.27,1.27,0,1,0,21.862,12.8,37.015,37.015,0,0,1,43.306,6.009a1.27,1.27,0,0,0,1.27-1.27V4.254l6.646,6.4-6.646,5.37V14.773a1.27,1.27,0,0,0-1.27-1.27A29.773,29.773,0,0,0,14.447,35.965L11.725,32.6a1.278,1.278,0,0,0-1.9-.083l-2.983,3.1a37.211,37.211,0,0,1,11.2-19.726,1.27,1.27,0,1,0-1.723-1.867A39.718,39.718,0,0,0,3.758,38.811L.352,42.348A1.279,1.279,0,0,0,1.267,44.5h2.26A39.8,39.8,0,0,0,38.85,82.817l3.5,3.367a1.278,1.278,0,0,0,2.151-.915V83.049a39.491,39.491,0,0,0,21.986-7.425A1.27,1.27,0,1,0,65,73.56,37,37,0,0,1,43.29,80.526h-.063a1.27,1.27,0,0,0-1.27,1.27v.486l-6.646-6.4,6.646-5.37v1.25a1.27,1.27,0,0,0,1.262,1.27h.087A29.774,29.774,0,0,0,72.144,50.644l2.663,3.3a1.278,1.278,0,0,0,1.9.083l3.082-3.2A37.233,37.233,0,0,1,68.8,70.435a1.27,1.27,0,1,0,1.739,1.852A39.742,39.742,0,0,0,82.862,47.634l3.318-3.446a1.269,1.269,0,0,0,.254-1.378Zm-53.84,32a1.278,1.278,0,0,0-.083,1.9l3.139,3.023a37.269,37.269,0,0,1-29.6-36.464v-.044a1.27,1.27,0,0,0-1.27-1.27H4.253l6.4-6.646,5.37,6.646H14.812a1.266,1.266,0,0,0-1.27,1.266v.044a29.774,29.774,0,0,0,22.4,28.842ZM61.067,63.9A27.21,27.21,0,0,1,44.5,70.466V67.852a1.279,1.279,0,0,0-2.068-.988l-3.958,3.2A27.232,27.232,0,0,1,16.109,44.5h2.573a1.279,1.279,0,0,0,.988-2.069L16.5,38.5A27.231,27.231,0,0,1,42.035,16.073v2.611a1.279,1.279,0,0,0,2.068.988l3.973-3.21A27.232,27.232,0,0,1,70.5,42.037H67.85a1.279,1.279,0,0,0-.988,2.069L70.1,48.111A27.238,27.238,0,0,1,61.067,63.9ZM75.879,51.224l-5.37-6.646H71.8a1.266,1.266,0,0,0,1.27-1.266v-.044A29.774,29.774,0,0,0,50.615,14.41l3.323-2.685a1.278,1.278,0,0,0,.083-1.9L50.861,6.78a37.267,37.267,0,0,1,29.7,36.483v.044a1.27,1.27,0,0,0,1.27,1.27h.447Z" transform="translate(0 0)"/>
      </g>
    </g>
  </g>
</svg>
