<svg xmlns="http://www.w3.org/2000/svg" width="84" height="84" viewBox="0 0 84 84">
  <g id="Grupo_1192613" data-name="Grupo 1192613" transform="translate(-205.503 -1149)">
    <rect id="Rectángulo_454995" data-name="Rectángulo 454995" width="84" height="84" rx="10" transform="translate(205.503 1149)" fill="#a4c2ff"/>
    <g id="Grupo_1192946" data-name="Grupo 1192946" transform="translate(218.692 1162.189)">
      <g id="Grupo_1192944" data-name="Grupo 1192944" transform="translate(1.897 1.897)">
        <g id="Grupo_1192930" data-name="Grupo 1192930" transform="translate(37.697 10.765)">
          <path id="Trazado_1005896" data-name="Trazado 1005896" d="M53.87,18.486l-6.343,6.343a15.213,15.213,0,0,0-3.409-5.365l-.1-.1L49.385,14Z" transform="translate(-44.02 -14)" fill="#5cd6b3"/>
        </g>
        <g id="Grupo_1192931" data-name="Grupo 1192931" transform="translate(8.971 36.997)">
          <path id="Trazado_1005897" data-name="Trazado 1005897" d="M23.842,48.228l-7.356,7.356L12,51.1l7.859-7.859A17.644,17.644,0,0,1,23.842,48.228Z" transform="translate(-12 -43.24)" fill="#5cd6b3"/>
        </g>
        <g id="Grupo_1192932" data-name="Grupo 1192932" transform="translate(4.486 32.054)">
          <path id="Trazado_1005898" data-name="Trazado 1005898" d="M19.344,42.673l-7.859,7.859L7,46.046l8.316-8.316a15.2,15.2,0,0,0,2.943,3.876c.359.359.718.718,1.086,1.068Z" transform="translate(-7 -37.73)" fill="#ff826e"/>
        </g>
        <g id="Grupo_1192933" data-name="Grupo 1192933" transform="translate(32.233 6.28)">
          <path id="Trazado_1005899" data-name="Trazado 1005899" d="M48.758,13.486,43.393,18.85a15.123,15.123,0,0,0-5.463-3.508L44.273,9Z" transform="translate(-37.93 -9)" fill="#ff826e"/>
        </g>
        <g id="Grupo_1192934" data-name="Grupo 1192934" transform="translate(41.267 0)">
          <path id="Trazado_1005900" data-name="Trazado 1005900" d="M60.56,8.343A6.327,6.327,0,0,1,58.7,12.828L56.971,14.56,48,5.588l1.731-1.731A6.343,6.343,0,0,1,60.56,8.343Z" transform="translate(-48 -2)" fill="#aab2bd"/>
        </g>
        <g id="Grupo_1192935" data-name="Grupo 1192935" transform="translate(0 40.37)">
          <path id="Trazado_1005901" data-name="Trazado 1005901" d="M15.457,55.971l-11.4,4.387a1.587,1.587,0,0,1-.538.1A1.52,1.52,0,0,1,2,58.941a1.587,1.587,0,0,1,.1-.538L6.486,47l4.486,4.486Z" transform="translate(-2 -47)" fill="#ccd1d9"/>
        </g>
        <g id="Grupo_1192936" data-name="Grupo 1192936" transform="translate(38.576 3.588)">
          <path id="Trazado_1005902" data-name="Trazado 1005902" d="M56.662,14.971l-2.691,2.691-4.486-4.486L45,8.691,47.691,6Z" transform="translate(-45 -6)" fill="#e6e9ed"/>
        </g>
        <g id="Grupo_1192937" data-name="Grupo 1192937" transform="translate(32.449 26.913)">
          <path id="Trazado_1005903" data-name="Trazado 1005903" d="M49.68,32.942a2.612,2.612,0,0,0,1.615,2.422c.009,0,.027.009.036.009a2.608,2.608,0,0,0,2.862-.556l.673-.673L57.4,36.683l-.673.673a2.608,2.608,0,0,0-.556,2.862c0,.009.009.027.009.036a2.612,2.612,0,0,0,2.422,1.615h.942v3.588h-.942a2.612,2.612,0,0,0-2.422,1.615c0,.009-.009.027-.009.036a2.608,2.608,0,0,0,.556,2.862l.673.673-2.539,2.539-.673-.673a2.608,2.608,0,0,0-2.862-.556c-.009,0-.027.009-.036.009a2.612,2.612,0,0,0-1.615,2.422v.942H46.092v-.942a2.612,2.612,0,0,0-1.615-2.422c-.009,0-.027-.009-.036-.009a2.608,2.608,0,0,0-2.862.556l-.673.673-2.27-2.27a1.775,1.775,0,0,0,.278-.969,1.8,1.8,0,0,0-.745-1.453c.87-2.8,2.718-4.62,4.575-6.423a5.55,5.55,0,0,0-.242,1.6,5.383,5.383,0,1,0,5.383-5.383,5.473,5.473,0,0,0-2.072.413A10.968,10.968,0,0,0,47.886,32H49.68Z" transform="translate(-38.17 -32)" fill="#ffc729"/>
        </g>
        <g id="Grupo_1192938" data-name="Grupo 1192938" transform="translate(36.782 33.193)">
          <path id="Trazado_1005904" data-name="Trazado 1005904" d="M48.383,39A5.383,5.383,0,1,1,43,44.383a5.549,5.549,0,0,1,.242-1.6v-.009a24.888,24.888,0,0,0,3.068-3.364A5.473,5.473,0,0,1,48.383,39Zm1.794,5.383a1.794,1.794,0,1,0-1.794,1.794A1.8,1.8,0,0,0,50.177,44.383Z" transform="translate(-43 -39)" fill="#fcd770"/>
        </g>
        <g id="Grupo_1192939" data-name="Grupo 1192939" transform="translate(22.428 50.238)">
          <path id="Trazado_1005905" data-name="Trazado 1005905" d="M31.486,61.588a4.6,4.6,0,0,1-4.459-3.481L27,58h8.971l-.027.108a4.631,4.631,0,0,1-1.633,2.512A4.582,4.582,0,0,1,31.486,61.588Z" transform="translate(-27 -58)" fill="#aab2bd"/>
        </g>
        <g id="Grupo_1192940" data-name="Grupo 1192940" transform="translate(20.634 46.65)">
          <path id="Trazado_1005906" data-name="Trazado 1005906" d="M35.765,54a1.8,1.8,0,0,1,1.794,1.794,1.807,1.807,0,0,1-1.794,1.794H26.794A1.8,1.8,0,0,1,25,55.794,1.807,1.807,0,0,1,26.794,54Z" transform="translate(-25 -54)" fill="#ccd1d9"/>
        </g>
        <g id="Grupo_1192941" data-name="Grupo 1192941" transform="translate(20.634 43.061)">
          <path id="Trazado_1005907" data-name="Trazado 1005907" d="M37.56,51.794a1.775,1.775,0,0,1-.278.969,1.992,1.992,0,0,1-.251.3,1.754,1.754,0,0,1-1.265.529H26.794A1.8,1.8,0,0,1,25,51.794a1.754,1.754,0,0,1,.529-1.265,1.082,1.082,0,0,1,.215-.188A1.769,1.769,0,0,1,26.794,50h8.971a1.769,1.769,0,0,1,1.05.341,1.8,1.8,0,0,1,.745,1.453Z" transform="translate(-25 -50)" fill="#ccd1d9"/>
        </g>
        <g id="Grupo_1192942" data-name="Grupo 1192942" transform="translate(11.662 11.662)">
          <path id="Trazado_1005908" data-name="Trazado 1005908" d="M44.542,24.931a15.213,15.213,0,0,0-3.409-5.365l-.1-.1A15.291,15.291,0,0,0,30.547,15h-.009a6.14,6.14,0,0,1,.61,2.691,6.211,6.211,0,0,1-.332,2.01v.009a3.513,3.513,0,0,1,1.229-.224,3.588,3.588,0,1,1,0,7.177H15.422A15.231,15.231,0,0,0,15,30.251a11.14,11.14,0,0,0,1.139,5.14,15.2,15.2,0,0,0,2.943,3.876c.359.359.718.718,1.086,1.068a17.644,17.644,0,0,1,3.983,4.988,8.647,8.647,0,0,1,.565,1.417,1.769,1.769,0,0,1,1.05-.341h8.971a1.769,1.769,0,0,1,1.05.341c.87-2.8,2.718-4.62,4.575-6.423v-.009a24.888,24.888,0,0,0,3.068-3.364A10.968,10.968,0,0,0,45.5,30.251a15.127,15.127,0,0,0-.96-5.32Z" transform="translate(-15 -15)" fill="#ffeaa7"/>
        </g>
        <g id="Grupo_1192943" data-name="Grupo 1192943" transform="translate(0 3.588)">
          <path id="Trazado_1005909" data-name="Trazado 1005909" d="M21.109,10.97a6.279,6.279,0,0,1,8.092,3.1,6.14,6.14,0,0,1,.61,2.691,6.211,6.211,0,0,1-.332,2.01v.009a3.513,3.513,0,0,1,1.229-.224,3.588,3.588,0,1,1,0,7.177H6.486a4.482,4.482,0,0,1-.431-8.944v-.009a7.959,7.959,0,0,1-.466-2.709A8.073,8.073,0,0,1,21.1,10.934Z" transform="translate(-2 -6)" fill="#e6e9ed"/>
        </g>
      </g>
      <g id="Grupo_1192945" data-name="Grupo 1192945" transform="translate(1 1)">
        <path id="Trazado_1005910" data-name="Trazado 1005910" d="M48.691,47.383A2.691,2.691,0,1,0,46,44.691,2.695,2.695,0,0,0,48.691,47.383Zm0-3.588a.9.9,0,1,1-.9.9A.9.9,0,0,1,48.691,43.794Z" transform="translate(-5.63 -5.218)"/>
        <path id="Trazado_1005911" data-name="Trazado 1005911" d="M53.176,36.685a1.722,1.722,0,0,1,.367-1.887l1.305-1.306-3.807-3.807-1.307,1.306a1.731,1.731,0,0,1-1.921.352,1.709,1.709,0,0,1-1.06-1.586V27.913h-1.84a15.893,15.893,0,0,0-.795-4.171L54.5,13.361A7.241,7.241,0,1,0,44.261,3.121L33.89,13.492a15.937,15.937,0,0,0-4.232-.79,7.139,7.139,0,0,0-8.2-3.347,8.954,8.954,0,0,0-16.633,6.23A5.382,5.382,0,0,0,6.383,26.119H12.89a16.267,16.267,0,0,0-.228,2.691,12.317,12.317,0,0,0,.955,4.954l-8,8L1.161,53.347A2.388,2.388,0,0,0,1,54.211a2.41,2.41,0,0,0,3.275,2.25l11.578-4.453,5.852-5.853a2.622,2.622,0,0,0,.628,2.393,2.668,2.668,0,0,0,1.31,4.387,5.465,5.465,0,0,0,10.335,0,2.687,2.687,0,0,0,2.01-2.593c0-.067-.015-.13-.02-.2l1.114,1.114,1.307-1.306a1.757,1.757,0,0,1,2.981,1.235v1.844h5.383V51.189a1.758,1.758,0,0,1,2.982-1.235l1.306,1.306,3.807-3.807-1.305-1.306a1.735,1.735,0,0,1-.353-1.921,1.712,1.712,0,0,1,1.587-1.061h1.844V37.782H54.778a1.726,1.726,0,0,1-1.6-1.1ZM39.734,39.33a26.774,26.774,0,0,0,2.805-3.06,4.433,4.433,0,0,1,1.522-.283,4.529,4.529,0,1,1-4.328,3.343Zm1.077-21.251,4.147-4.148,3.217,3.217L43.384,21.94A16.281,16.281,0,0,0,40.811,18.079Zm.93-9.9,1.423-1.423,7.7,7.7L49.444,15.88ZM49.38,2.794a5.447,5.447,0,0,1,3.851,9.3l-1.1,1.1-7.7-7.7,1.1-1.1a5.413,5.413,0,0,1,3.851-1.6ZM40.473,9.445l3.217,3.217-4.146,4.146a16.262,16.262,0,0,0-3.858-2.576Zm2.691,19.365c0,4.668-2.35,6.961-4.839,9.387a17.545,17.545,0,0,0-4.5,5.917,2.653,2.653,0,0,0-.531-.054H29.708V39.576a2.7,2.7,0,0,0-2.691-2.691H25.222a.9.9,0,1,1,0-1.794h8.971a2.691,2.691,0,0,0,0-5.383H27.016a.9.9,0,0,1-.9-.9V26.119H30.6a4.486,4.486,0,0,0,0-8.971c-.025,0-.048.007-.074.007a7.063,7.063,0,0,0,.074-.9,7.187,7.187,0,0,0-.212-1.7A14.43,14.43,0,0,1,43.164,28.811ZM23.428,46.753a.9.9,0,0,1,.9-.9H33.3a.9.9,0,0,1,0,1.794H24.325A.9.9,0,0,1,23.428,46.753Zm-11.291,0,6.595-6.595a16.284,16.284,0,0,1,2.883,3.55L15.354,49.97ZM2.794,20.737a3.588,3.588,0,1,1,7.177,0h1.794a5.385,5.385,0,0,0-5.153-5.371,7.17,7.17,0,0,1,13.2-5.3A7.183,7.183,0,0,0,16.3,15.467a3.588,3.588,0,0,0-2.736,3.475h1.794a1.794,1.794,0,0,1,3.588,0h1.794A3.583,3.583,0,0,0,18.1,15.5a5.376,5.376,0,1,1,10.51,2.136,4.476,4.476,0,0,0-2.494,4h1.794A2.691,2.691,0,1,1,30.6,24.325H6.383A3.592,3.592,0,0,1,2.794,20.737Zm21.531,5.383v2.691A2.7,2.7,0,0,0,27.016,31.5h7.177a.9.9,0,0,1,0,1.794H25.222a2.691,2.691,0,1,0,0,5.383h1.794a.9.9,0,0,1,.9.9v4.486H24.325a2.653,2.653,0,0,0-.531.054A17.545,17.545,0,0,0,19.3,38.2c-2.489-2.427-4.839-4.72-4.839-9.387a14.462,14.462,0,0,1,.276-2.691ZM17.45,38.9l-6.582,6.582L7.651,42.267,14.5,35.422A20.18,20.18,0,0,0,17.45,38.9ZM6.724,43.878,13.744,50.9,7.8,53.182,4.439,49.82ZM3.632,54.786a.617.617,0,0,1-.8-.8l.9-2.338,2.235,2.235Zm25.178.041a3.686,3.686,0,0,1-3.161-1.794h6.323a3.686,3.686,0,0,1-3.161,1.794ZM33.3,51.238H24.325a.9.9,0,1,1,0-1.794H33.3a.9.9,0,0,1,0,1.794ZM54.827,41.37h-.049a3.552,3.552,0,0,0-2.5,6.045l.038.038-1.27,1.27L51,48.685a3.552,3.552,0,0,0-6.045,2.5v.049H43.164v-.049a3.552,3.552,0,0,0-6.046-2.5l-.038.038-1.216-1.216a2.63,2.63,0,0,0,.122-.754,2.665,2.665,0,0,0-.6-1.677,11.57,11.57,0,0,1,2.451-3.824,6.277,6.277,0,1,0,6.226-7.059c-.088,0-.173.009-.26.013a11.77,11.77,0,0,0,1.129-4.5h.028v.049A3.552,3.552,0,0,0,51,32.261l.038-.038,1.27,1.27-.038.038a3.552,3.552,0,0,0,2.5,6.045h.049Z" transform="translate(-1 -1)"/>
      </g>
    </g>
  </g>
</svg>
