<svg xmlns="http://www.w3.org/2000/svg" width="80" height="80" viewBox="0 0 80 80">
  <g id="Grupo_1192961" data-name="Grupo 1192961" transform="translate(-561.711 -5044)">
    <g id="Rectángulo_455640" data-name="Rectángulo 455640" transform="translate(561.711 5044)" fill="#ecf2fe" stroke="#cff878" stroke-width="8">
      <rect width="80" height="80" rx="10" stroke="none"/>
      <rect x="4" y="4" width="72" height="72" rx="6" fill="none"/>
    </g>
    <g id="Grupo_1192963" data-name="Grupo 1192963" transform="translate(580.035 5062.324)">
      <g id="Page-1_42_" transform="translate(0)">
        <g id="_x30_43---Paragraph-Text" transform="translate(0)">
          <path id="Shape_164_" d="M39.739,0H3.613A3.617,3.617,0,0,0,0,3.613V39.739a3.617,3.617,0,0,0,3.613,3.613H39.739a3.617,3.617,0,0,0,3.613-3.613V3.613A3.617,3.617,0,0,0,39.739,0Zm2.168,39.739a2.168,2.168,0,0,1-2.168,2.168H3.613a2.168,2.168,0,0,1-2.168-2.168V3.613A2.168,2.168,0,0,1,3.613,1.445H39.739a2.168,2.168,0,0,1,2.168,2.168V39.739Z" transform="translate(0)" fill="#5c3b66" stroke="#5c3b66" stroke-width="0.7"/>
          <g id="Grupo_1192962" data-name="Grupo 1192962" transform="translate(3.613 4.335)">
            <path id="Path_143_" d="M43.389,62.76a.722.722,0,0,0,0,1.445h2.89a.722.722,0,0,0,0-1.445h-.722V52.645h.722a.723.723,0,0,0,0-1.445h-2.89a.722.722,0,1,0,0,1.445h.722V62.76Z" transform="translate(-42.667 -51.2)" fill="#5c3b66" stroke="#5c3b66" stroke-width="0.7" fill-rule="evenodd"/>
            <path id="Path_142_" d="M78.071,238.933H43.389a.722.722,0,1,0,0,1.445H78.071a.722.722,0,1,0,0-1.445Z" transform="translate(-42.667 -223.038)" fill="#5c3b66" stroke="#5c3b66" stroke-width="0.7" fill-rule="evenodd"/>
            <path id="Path_141_" d="M312.395,290.133H299.39a.723.723,0,1,0,0,1.445h13.005a.723.723,0,0,0,0-1.445Z" transform="translate(-276.991 -269.902)" fill="#5c3b66" stroke="#5c3b66" stroke-width="0.7" fill-rule="evenodd"/>
            <path id="Path_140_" d="M43.39,291.579H62.175a.723.723,0,0,0,0-1.445H43.39a.723.723,0,0,0,0,1.445Z" transform="translate(-42.667 -269.903)" fill="#5c3b66" stroke="#5c3b66" stroke-width="0.7" fill-rule="evenodd"/>
            <path id="Path_139_" d="M156.178,341.333H128.722a.723.723,0,1,0,0,1.445h27.456a.723.723,0,1,0,0-1.445Z" transform="translate(-120.775 -316.767)" fill="#5c3b66" stroke="#5c3b66" stroke-width="0.7" fill-rule="evenodd"/>
            <path id="Path_138_" d="M43.389,342.779h4.335a.723.723,0,0,0,0-1.445H43.389a.723.723,0,0,0,0,1.445Z" transform="translate(-42.667 -316.768)" fill="#5c3b66" stroke="#5c3b66" stroke-width="0.7" fill-rule="evenodd"/>
            <path id="Path_137_" d="M78.071,392.533H43.389a.722.722,0,1,0,0,1.445H78.071a.722.722,0,1,0,0-1.445Z" transform="translate(-42.667 -363.632)" fill="#5c3b66" stroke="#5c3b66" stroke-width="0.7" fill-rule="evenodd"/>
            <path id="Path_136_" d="M69.4,443.733H43.389a.723.723,0,0,0,0,1.445H69.4a.723.723,0,0,0,0-1.445Z" transform="translate(-42.667 -410.497)" fill="#5c3b66" stroke="#5c3b66" stroke-width="0.7" fill-rule="evenodd"/>
          </g>
        </g>
      </g>
    </g>
  </g>
</svg>
