<svg xmlns="http://www.w3.org/2000/svg" width="80" height="80" viewBox="0 0 80 80">
  <g id="Grupo_1192960" data-name="Grupo 1192960" transform="translate(-561.711 -5044)">
    <g id="Rectángulo_455640" data-name="Rectángulo 455640" transform="translate(561.711 5044)" fill="#ecf2fe" stroke="#cff878" stroke-width="8">
      <rect width="80" height="80" rx="10" stroke="none"/>
      <rect x="4" y="4" width="72" height="72" rx="6" fill="none"/>
    </g>
    <g id="_x32_39_x2C__After_x2C__Paragraph_x2C__Spacing_x2C__Text" transform="translate(526.712 5009)">
      <g id="Grupo_1192959" data-name="Grupo 1192959" transform="translate(49.999 50)">
        <path id="Trazado_1005912" data-name="Trazado 1005912" d="M203.9,290H171.169a1.169,1.169,0,1,0,0,2.338H203.9a1.169,1.169,0,1,0,0-2.338Z" transform="translate(-155.973 -261.947)" fill="#5c3b66"/>
        <path id="Trazado_1005913" data-name="Trazado 1005913" d="M203.9,330H171.169a1.169,1.169,0,1,0,0,2.338H203.9a1.169,1.169,0,1,0,0-2.338Z" transform="translate(-155.973 -297.271)" fill="#5c3b66"/>
        <path id="Trazado_1005914" data-name="Trazado 1005914" d="M203.9,370H171.169a1.169,1.169,0,1,0,0,2.338H203.9a1.169,1.169,0,1,0,0-2.338Z" transform="translate(-155.973 -332.596)" fill="#5c3b66"/>
        <path id="Trazado_1005915" data-name="Trazado 1005915" d="M203.9,410H171.169a1.169,1.169,0,1,0,0,2.338H203.9a1.169,1.169,0,1,0,0-2.338Z" transform="translate(-155.973 -367.92)" fill="#5c3b66"/>
        <path id="Trazado_1005916" data-name="Trazado 1005916" d="M192.209,450h-21.04a1.169,1.169,0,1,0,0,2.338h21.04a1.169,1.169,0,1,0,0-2.338Z" transform="translate(-155.973 -403.245)" fill="#5c3b66"/>
        <path id="Trazado_1005917" data-name="Trazado 1005917" d="M56.442,290.169a1.167,1.167,0,0,0-1.413.166c-.136.134-2.843,2.842-4.687,4.686A1.169,1.169,0,1,0,52,296.674l2.68-2.68v15.88a1.169,1.169,0,1,0,2.338,0v-15.88l2.68,2.68a1.169,1.169,0,0,0,1.653-1.653C56.418,290.094,56.629,290.28,56.442,290.169Z" transform="translate(-50 -261.95)" fill="#5c3b66"/>
        <path id="Trazado_1005918" data-name="Trazado 1005918" d="M171.169,52.338H203.9a1.169,1.169,0,1,0,0-2.338H171.169a1.169,1.169,0,1,0,0,2.338Z" transform="translate(-155.973 -50)" fill="#5c3b66"/>
        <path id="Trazado_1005919" data-name="Trazado 1005919" d="M203.9,90H171.169a1.169,1.169,0,1,0,0,2.338H203.9a1.169,1.169,0,1,0,0-2.338Z" transform="translate(-155.973 -85.324)" fill="#5c3b66"/>
        <path id="Trazado_1005920" data-name="Trazado 1005920" d="M203.9,130H171.169a1.169,1.169,0,1,0,0,2.338H203.9a1.169,1.169,0,1,0,0-2.338Z" transform="translate(-155.973 -120.649)" fill="#5c3b66"/>
        <path id="Trazado_1005921" data-name="Trazado 1005921" d="M203.9,170H171.169a1.169,1.169,0,1,0,0,2.338H203.9a1.169,1.169,0,1,0,0-2.338Z" transform="translate(-155.973 -155.973)" fill="#5c3b66"/>
        <path id="Trazado_1005922" data-name="Trazado 1005922" d="M171.169,212.338h21.04a1.169,1.169,0,1,0,0-2.338h-21.04a1.169,1.169,0,1,0,0,2.338Z" transform="translate(-155.973 -191.298)" fill="#5c3b66"/>
        <path id="Trazado_1005923" data-name="Trazado 1005923" d="M59.692,64.369l-2.68,2.68V51.169a1.169,1.169,0,1,0-2.338,0v15.88l-2.68-2.68a1.169,1.169,0,0,0-1.653,1.653L55.017,70.7a1.17,1.17,0,0,0,1.274.253c.288-.119.061.061,5.055-4.929a1.169,1.169,0,0,0-1.653-1.653Z" transform="translate(-49.999 -50)" fill="#5c3b66"/>
      </g>
    </g>
  </g>
</svg>
