<svg xmlns="http://www.w3.org/2000/svg" width="128" height="128" viewBox="0 0 128 128">
  <g id="Grupo_1178369" data-name="Grupo 1178369" transform="translate(-72.746 -7992.477)">
    <g id="Elipse_13628" data-name="Elipse 13628" transform="translate(72.746 7992.477)" fill="#fff7e2" stroke="#cff878" stroke-width="6">
      <circle cx="64" cy="64" r="64" stroke="none"/>
      <circle cx="64" cy="64" r="61" fill="none"/>
    </g>
    <g id="Grupo_1192977" data-name="Grupo 1192977" transform="translate(93.746 7993.035)">
      <g id="Grupo_1192974" data-name="Grupo 1192974" transform="translate(1.264 24.712)">
        <path id="Trazado_1005974" data-name="Trazado 1005974" d="M245.291,56.119a20.225,20.225,0,0,1-6.052,14.455,15.877,15.877,0,0,0-4.817,11.292v4.218h-8.578c.131-6.151-1.1-16.021-2.964-18.969-6.478-10.264-6.608-28.274,8.363-30.308a20.3,20.3,0,0,1,14.047,19.312Z" transform="translate(-183.117 -35.826)" fill="#f3f5fc"/>
        <path id="Trazado_1005975" data-name="Trazado 1005975" d="M155.883,61.749c2.031,4.493.977,13.343.846,19.494h-10.27V77.025a15.823,15.823,0,0,0-4.8-11.275,20.3,20.3,0,0,1,20.47-33.784C150.719,37.47,150.883,50.69,155.883,61.749Z" transform="translate(-114.002 -30.985)" fill="#d7ddf5"/>
        <path id="Trazado_1005976" data-name="Trazado 1005976" d="M247.681,337.547V352.3a9.422,9.422,0,0,1-5.322,8.487c-2.3.551-4.2-1.082-4.938-1.824a9.4,9.4,0,0,1-2.761-6.664l2.375-14.755Z" transform="translate(-196.376 -285.881)" fill="#83deff"/>
        <path id="Trazado_1005977" data-name="Trazado 1005977" d="M213.606,360.789A9.427,9.427,0,0,1,200.08,352.3V337.547h8.2V352.3a9.435,9.435,0,0,0,5.324,8.487Z" transform="translate(-167.624 -285.881)" fill="#5ad6ff"/>
        <path id="Trazado_1005978" data-name="Trazado 1005978" d="M237.981,316.867a4.362,4.362,0,0,1-4.36,4.362H220.513c-4.893,0-6.188-1.953-6.188-4.362a4.337,4.337,0,0,1,1.277-3.082c.789-.789,1.208-1.277,4.91-1.277h13.109A4.359,4.359,0,0,1,237.981,316.867Z" transform="translate(-179.468 -265.061)" fill="#77899b"/>
        <path id="Trazado_1005979" data-name="Trazado 1005979" d="M173.107,321.229H161.67a4.361,4.361,0,0,1,0-8.722h11.437a4.361,4.361,0,0,0,0,8.722Z" transform="translate(-132.062 -265.061)" fill="#6b7d8e"/>
        <g id="Grupo_1192972" data-name="Grupo 1192972" transform="translate(31.863 10.871)">
          <path id="Trazado_1005980" data-name="Trazado 1005980" d="M251.208,112.659l-2.877,2.8.679,3.959a2.432,2.432,0,0,1-3.529,2.563l-3.554-1.869c-5.617-4.056-1.9-16.457,2.282-15.578l1.677,3.4,3.974.576a2.433,2.433,0,0,1,1.348,4.149Z" transform="translate(-231.908 -102.976)" fill="#fce3a0"/>
          <g id="Grupo_1192971" data-name="Grupo 1192971">
            <path id="Trazado_1005981" data-name="Trazado 1005981" d="M206.576,112.629l-3.554,1.869a2.432,2.432,0,0,1-3.529-2.563l.679-3.959-2.877-2.8a2.433,2.433,0,0,1,1.348-4.149l3.974-.576,1.778-3.6a2.431,2.431,0,0,1,4.362,0l.1.206c-2.552.571-6.406,8.578-2.282,15.578Z" transform="translate(-196.558 -95.489)" fill="#f9d171"/>
          </g>
        </g>
        <g id="Grupo_1192973" data-name="Grupo 1192973">
          <path id="Trazado_1005982" data-name="Trazado 1005982" d="M10.829,135.493h7.152a3.329,3.329,0,1,0,0-6.659H10.829a3.329,3.329,0,1,0,0,6.659Z" transform="translate(-7.5 -112.343)" fill="#f9d171"/>
          <path id="Trazado_1005983" data-name="Trazado 1005983" d="M26.706,37.406l6.642,2.652a3.329,3.329,0,0,0,2.469-6.184l-6.642-2.652a3.329,3.329,0,0,0-2.469,6.184Z" transform="translate(-21.726 -30.984)" fill="#f9d171"/>
          <path id="Trazado_1005984" data-name="Trazado 1005984" d="M35.817,217.361l-6.642,2.652a3.329,3.329,0,1,1-2.469-6.184l6.642-2.652a3.329,3.329,0,1,1,2.469,6.184Z" transform="translate(-21.726 -180.611)" fill="#f9d171"/>
        </g>
        <path id="Trazado_1005985" data-name="Trazado 1005985" d="M433.034,135.493h-7.152a3.329,3.329,0,0,1,0-6.659h7.152a3.329,3.329,0,1,1,0,6.659Z" transform="translate(-352.603 -112.343)" fill="#fce3a0"/>
        <path id="Trazado_1005986" data-name="Trazado 1005986" d="M419.664,37.406l-6.642,2.652a3.329,3.329,0,0,1-2.469-6.184l6.642-2.652a3.329,3.329,0,0,1,2.469,6.184Z" transform="translate(-340.882 -30.984)" fill="#fce3a0"/>
        <path id="Trazado_1005987" data-name="Trazado 1005987" d="M410.552,217.361l6.642,2.652a3.329,3.329,0,0,0,2.469-6.184l-6.642-2.652a3.329,3.329,0,0,0-2.469,6.184Z" transform="translate(-340.882 -180.611)" fill="#fce3a0"/>
      </g>
      <g id="Grupo_1192976" data-name="Grupo 1192976" transform="translate(0 23.441)">
        <path id="Trazado_1005988" data-name="Trazado 1005988" d="M11.745,130.477a4.593,4.593,0,0,0,0-9.187H4.593a4.593,4.593,0,0,0,0,9.187Zm-9.217-4.593a2.068,2.068,0,0,1,2.065-2.066h7.152a2.065,2.065,0,0,1,0,4.131H4.593a2.068,2.068,0,0,1-2.065-2.065Z" transform="translate(0 -104.799)"/>
        <path id="Trazado_1005989" data-name="Trazado 1005989" d="M20,32.306l6.643,2.652a4.593,4.593,0,0,0,3.406-8.532L23.41,23.774A4.593,4.593,0,0,0,20,32.306Zm-.215-5.032a2.07,2.07,0,0,1,2.684-1.152l6.642,2.651a2.065,2.065,0,0,1-1.531,3.836l-6.642-2.652a2.075,2.075,0,0,1-1.153-2.684Z" transform="translate(-14.23 -23.445)"/>
        <path id="Trazado_1005990" data-name="Trazado 1005990" d="M426.8,121.29h-7.152a4.593,4.593,0,0,0,0,9.187H426.8a4.593,4.593,0,0,0,0-9.187Zm0,6.659h-7.152a2.065,2.065,0,0,1,0-4.131H426.8a2.065,2.065,0,0,1,0,4.131Z" transform="translate(-345.103 -104.799)"/>
        <path id="Trazado_1005991" data-name="Trazado 1005991" d="M405.561,35.284a4.574,4.574,0,0,0,1.7-.327l6.642-2.652a4.593,4.593,0,0,0-3.406-8.532l-6.642,2.651a4.593,4.593,0,0,0,1.709,8.86Zm-.771-6.512,6.642-2.651a2.065,2.065,0,1,1,1.531,3.836l-6.642,2.652a2.065,2.065,0,0,1-1.532-3.836Z" transform="translate(-333.386 -23.445)"/>
        <path id="Trazado_1005992" data-name="Trazado 1005992" d="M413.876,206.369l-6.642-2.651a4.594,4.594,0,0,0-5.969,2.563,4.615,4.615,0,0,0,2.563,5.969l6.642,2.652a4.593,4.593,0,0,0,3.406-8.532Zm.215,5.032a2.068,2.068,0,0,1-2.684,1.152l-6.642-2.652a2.065,2.065,0,1,1,1.531-3.836l6.642,2.651A2.068,2.068,0,0,1,414.092,211.4Z" transform="translate(-333.362 -173.061)"/>
        <g id="Grupo_1192975" data-name="Grupo 1192975" transform="translate(2.884)">
          <path id="Trazado_1005993" data-name="Trazado 1005993" d="M30.162,203.762a4.564,4.564,0,0,0-3.515-.046L20,206.368A4.593,4.593,0,0,0,23.41,214.9l6.642-2.652a4.615,4.615,0,0,0,2.563-5.969,4.562,4.562,0,0,0-2.454-2.518Zm.085,5.036a2.051,2.051,0,0,1-1.132,1.1l-6.642,2.652a2.065,2.065,0,0,1-1.531-3.837l6.643-2.651a2.065,2.065,0,0,1,2.663,2.733Z" transform="translate(-17.114 -173.06)"/>
          <path id="Trazado_1005994" data-name="Trazado 1005994" d="M161.92,70.887h-1.583a14.526,14.526,0,0,1,4.438-10.532,21.554,21.554,0,0,0,1.144-29.5,1.264,1.264,0,1,0-1.907,1.659A19.026,19.026,0,0,1,163,58.554a17.036,17.036,0,0,0-5.193,12.333h-6.9V54.81l1.7.895a3.7,3.7,0,0,0,5.363-3.9l-.566-3.3,2.4-2.339a3.7,3.7,0,0,0-2.049-6.3l-3.316-.482-1.483-3a3.7,3.7,0,0,0-6.63,0l-1.483,3-3.316.482a3.7,3.7,0,0,0-2.049,6.3l2.4,2.339-.566,3.3a3.7,3.7,0,0,0,5.363,3.9l1.7-.895V70.887h-6.9a16.985,16.985,0,0,0-5.177-12.318A19.03,19.03,0,0,1,159.8,28.9a1.264,1.264,0,1,0,1.351-2.137,21.558,21.558,0,0,0-26.615,33.607,14.476,14.476,0,0,1,4.421,10.515h-1.583a5.625,5.625,0,1,0,0,11.249h1.583v9a10.632,10.632,0,0,0,1.875,6.046,1.264,1.264,0,1,0,2.084-1.432A8.127,8.127,0,0,1,141.9,93.7h15.5a8.159,8.159,0,0,1-10.414,5.159,1.264,1.264,0,0,0-.826,2.389,10.688,10.688,0,0,0,14.179-10.1v-9h1.583a5.625,5.625,0,1,0,0-11.25Zm-16.415-17.42a1.168,1.168,0,0,1-1.7-1.232l.679-3.958a1.264,1.264,0,0,0-.364-1.119l-2.876-2.8a1.168,1.168,0,0,1,.648-1.993l3.974-.578a1.264,1.264,0,0,0,.952-.691l1.777-3.6a1.168,1.168,0,0,1,2.1,0l1.777,3.6a1.264,1.264,0,0,0,.952.691l3.974.578a1.168,1.168,0,0,1,.648,1.993l-2.876,2.8a1.264,1.264,0,0,0-.364,1.119l.679,3.958a1.168,1.168,0,0,1-1.7,1.232L150.237,51.6a1.265,1.265,0,0,0-1.176,0Zm12.3,32.2H141.487V82.137h16.322Zm-16.321,5.5c0-.009,0-.018,0-.027V88.2h16.322V91.14c0,.009,0,.018,0,.027ZM161.92,79.609H137.376a3.1,3.1,0,1,1,0-6.193H161.92a3.1,3.1,0,1,1,0,6.193Z" transform="translate(-109.388 -23.441)"/>
        </g>
      </g>
    </g>
  </g>
</svg>
