<svg xmlns="http://www.w3.org/2000/svg" width="150" height="150" viewBox="0 0 150 150">
  <g id="Grupo_1177380" data-name="Grupo 1177380" transform="translate(-72.746 -7992)">
    <g id="Elipse_13628" data-name="Elipse 13628" transform="translate(72.746 7992)" fill="#fff7e2" stroke="#cff878" stroke-width="6">
      <circle cx="75" cy="75" r="75" stroke="none"/>
      <circle cx="75" cy="75" r="72" fill="none"/>
    </g>
    <g id="Grupo_1192473" data-name="Grupo 1192473" transform="translate(112.413 8031.666)">
      <path id="Trazado_1005009" data-name="Trazado 1005009" d="M92.24,77.907H44.76A2.76,2.76,0,0,1,42,75.147V12.76A2.76,2.76,0,0,1,44.76,10H92.24A2.76,2.76,0,0,1,95,12.76V75.147A2.76,2.76,0,0,1,92.24,77.907Zm0,0" transform="translate(-36.203 -8.62)" fill="#fff"/>
      <path id="Trazado_1005010" data-name="Trazado 1005010" d="M430.094,77.25H426V64h4.094a2.531,2.531,0,0,1,2.531,2.53v8.189a2.53,2.53,0,0,1-2.531,2.531Zm0,0" transform="translate(-367.202 -55.167)" fill="#cbe558"/>
      <path id="Trazado_1005011" data-name="Trazado 1005011" d="M430.094,173.25H426V160h4.094a2.531,2.531,0,0,1,2.531,2.53v8.189A2.53,2.53,0,0,1,430.094,173.25Zm0,0" transform="translate(-367.202 -137.916)" fill="#00ccf2"/>
      <path id="Trazado_1005012" data-name="Trazado 1005012" d="M430.094,269.25H426V256h4.094a2.531,2.531,0,0,1,2.531,2.53v8.189A2.53,2.53,0,0,1,430.094,269.25Zm0,0" transform="translate(-367.202 -220.666)" fill="#d675a7"/>
      <path id="Trazado_1005013" data-name="Trazado 1005013" d="M161.958,170.39a13.719,13.719,0,1,0-21.236,11.477,5.006,5.006,0,0,1,2.179,3.271h10.675a4.96,4.96,0,0,1,2.152-3.253,13.706,13.706,0,0,0,6.229-11.495Zm0,0" transform="translate(-115.953 -135.047)" fill="#ffcb7c"/>
      <path id="Trazado_1005014" data-name="Trazado 1005014" d="M203.02,372.045h-4.88a2.9,2.9,0,0,0-2.9-2.9v-6.226h10.675v6.226A2.9,2.9,0,0,0,203.02,372.045Zm0,0" transform="translate(-168.294 -312.83)" fill="#b0aeed"/>
      <path id="Trazado_1005015" data-name="Trazado 1005015" d="M304.371,298.894l16.719,16.719a3.865,3.865,0,1,1-5.465,5.466l-16.719-16.719-5.472-10.938Zm0,0" transform="translate(-252.933 -252.923)" fill="#00ccf2"/>
      <path id="Trazado_1005016" data-name="Trazado 1005016" d="M298.9,304.36l5.465-5.465-10.938-5.472Zm0,0" transform="translate(-252.929 -252.923)" fill="#fff"/>
      <path id="Trazado_1005017" data-name="Trazado 1005017" d="M440.6,446.056l1.879,1.879a3.865,3.865,0,0,0,5.465-5.466l-1.879-1.878Zm0,0" transform="translate(-379.785 -379.779)" fill="#d675a7"/>
      <path id="Trazado_1005018" data-name="Trazado 1005018" d="M203.513,197.793l-6.243,9.966h3.77V213.9l6.625-9.656h-4.152Zm0,0" transform="translate(-170.042 -170.493)" fill="#fff"/>
      <path id="Trazado_1005019" data-name="Trazado 1005019" d="M225.294,98.375a1.38,1.38,0,0,0,1.38-1.38V95.17a1.38,1.38,0,0,0-2.76,0v1.825A1.38,1.38,0,0,0,225.294,98.375Zm0,0" transform="translate(-193.009 -80.844)"/>
      <path id="Trazado_1005020" data-name="Trazado 1005020" d="M73.1,246.152a1.38,1.38,0,0,0,0,2.76h2.118a1.38,1.38,0,0,0,0-2.76Zm0,0" transform="translate(-61.82 -212.177)"/>
      <path id="Trazado_1005021" data-name="Trazado 1005021" d="M362.8,248.744a1.38,1.38,0,0,0,0-2.76h-2.379a1.38,1.38,0,1,0,0,2.76Zm0,0" transform="translate(-309.483 -212.033)"/>
      <path id="Trazado_1005022" data-name="Trazado 1005022" d="M116.786,345.985a1.38,1.38,0,0,0,1.952,0l1.629-1.629a1.38,1.38,0,1,0-1.952-1.952l-1.629,1.629A1.381,1.381,0,0,0,116.786,345.985Zm0,0" transform="translate(-100.319 -294.796)"/>
      <path id="Trazado_1005023" data-name="Trazado 1005023" d="M323.782,142.1l1.407-1.407a1.38,1.38,0,0,0-1.952-1.952l-1.407,1.407a1.38,1.38,0,1,0,1.952,1.952Zm0,0" transform="translate(-277.061 -119.239)"/>
      <path id="Trazado_1005024" data-name="Trazado 1005024" d="M119.033,142.6a1.38,1.38,0,0,0,.976-2.357l-1.39-1.39a1.38,1.38,0,0,0-1.952,1.952l1.39,1.39A1.376,1.376,0,0,0,119.033,142.6Zm0,0" transform="translate(-100.215 -119.34)"/>
      <path id="Trazado_1005025" data-name="Trazado 1005025" d="M69.133,61.714l-1.878-1.878h0l-7.075-7.075V49.964h2.715a3.915,3.915,0,0,0,3.91-3.91V37.865a3.892,3.892,0,0,0-.933-2.531A3.89,3.89,0,0,0,66.8,32.8V24.615a3.889,3.889,0,0,0-.933-2.53,3.893,3.893,0,0,0,.933-2.531v-8.19a3.915,3.915,0,0,0-3.91-3.91H60.178V4.141A4.145,4.145,0,0,0,56.037,0H37.808a1.38,1.38,0,1,0,0,2.76h18.23a1.382,1.382,0,0,1,1.38,1.38V50l-5-5a1.374,1.374,0,0,0-.358-.258L45.983,41.7a15.1,15.1,0,0,0-13.7-21.454h0a15.1,15.1,0,0,0-8.271,27.73,3.644,3.644,0,0,1,1.556,2.26v6.084a1.38,1.38,0,0,0,1.38,1.38,1.52,1.52,0,0,1,1.518,1.518,1.38,1.38,0,0,0,1.38,1.38h4.88a1.38,1.38,0,0,0,1.38-1.38A1.519,1.519,0,0,1,37.623,57.7,1.38,1.38,0,0,0,39,56.318V50.234a3.586,3.586,0,0,1,1.527-2.24A15.2,15.2,0,0,0,42.112,46.8l2.626,5.25a1.387,1.387,0,0,0,.258.358L57.433,64.85a1.431,1.431,0,0,0-.016.2v1.477a1.382,1.382,0,0,1-1.38,1.38H8.557a1.382,1.382,0,0,1-1.38-1.38V57.694h.276a1.382,1.382,0,0,1,1.38,1.38,1.38,1.38,0,1,0,2.76,0,4.145,4.145,0,0,0-4.141-4.141H7.177V41.867h.276a1.382,1.382,0,0,1,1.38,1.38,1.38,1.38,0,0,0,2.76,0,4.145,4.145,0,0,0-4.141-4.141H7.177V26.04h.276a1.382,1.382,0,0,1,1.38,1.38,1.38,1.38,0,1,0,2.76,0A4.146,4.146,0,0,0,7.453,23.28H7.177V10.214h.276a1.382,1.382,0,0,1,1.38,1.38,1.38,1.38,0,0,0,2.76,0A4.145,4.145,0,0,0,7.453,7.453H7.177V4.141a1.382,1.382,0,0,1,1.38-1.38H26.765a1.38,1.38,0,1,0,0-2.76H8.558A4.145,4.145,0,0,0,4.417,4.141V7.453H4.141a4.141,4.141,0,1,0,0,8.281h.276V23.28H4.141a4.141,4.141,0,1,0,0,8.281h.276v7.545H4.141a4.141,4.141,0,0,0,0,8.281h.276v7.545H4.141a4.141,4.141,0,1,0,0,8.281h.276v3.313a4.145,4.145,0,0,0,4.141,4.141h47.48a4.148,4.148,0,0,0,4.029-3.186l1.65,1.65a5.245,5.245,0,1,0,7.417-7.418Zm-5.09-37.1V32.8a1.152,1.152,0,0,1-1.15,1.151H60.178V23.464h2.715a1.151,1.151,0,0,1,1.15,1.15Zm0,21.44a1.151,1.151,0,0,1-1.15,1.15H60.178V36.714h2.715a1.151,1.151,0,0,1,1.15,1.15Zm-1.15-35.84a1.151,1.151,0,0,1,1.15,1.15v8.189a1.152,1.152,0,0,1-1.15,1.151H60.178V10.214ZM4.141,12.974a1.38,1.38,0,0,1,0-2.76h.276v2.76Zm0,15.827a1.38,1.38,0,1,1,0-2.76h.276V28.8Zm0,15.826a1.38,1.38,0,0,1,0-2.76h.276v2.76Zm0,15.827a1.38,1.38,0,1,1,0-2.76h.276v2.76Zm43.784-9.017,3.513-3.513L64.326,60.812l-3.514,3.514ZM36.243,55.166a4.3,4.3,0,0,0-2.669,2.669H31a4.3,4.3,0,0,0-2.669-2.669V51.472h7.914Zm2.779-9.484a6.339,6.339,0,0,0-2.436,3.029h-8.6a6.431,6.431,0,0,0-2.459-3.045A12.339,12.339,0,0,1,32.282,23h0A12.342,12.342,0,0,1,43.514,40.463l-2.4-1.2a1.38,1.38,0,0,0-1.852,1.852l1.564,3.125a12.418,12.418,0,0,1-1.808,1.44Zm4.567-2.094,5.519,2.762-2.758,2.758ZM67.181,67.18a2.484,2.484,0,0,1-3.513,0l-.9-.9,3.514-3.513.9.9a2.484,2.484,0,0,1,0,3.513Zm0,0" transform="translate(0 0)"/>
      <path id="Trazado_1005026" data-name="Trazado 1005026" d="M199.045,194.239h-2.772v-5.066a1.38,1.38,0,0,0-2.55-.733l-6.243,9.966a1.38,1.38,0,0,0,1.169,2.113h2.39v4.756a1.38,1.38,0,0,0,2.518.781l6.625-9.656a1.38,1.38,0,0,0-1.138-2.161Zm-5.245,6.585v-1.685a1.38,1.38,0,0,0-1.38-1.38h-1.277l2.37-3.783v1.643a1.38,1.38,0,0,0,1.38,1.38h1.531Zm0,0" transform="translate(-161.421 -161.873)"/>
      <path id="Trazado_1005027" data-name="Trazado 1005027" d="M225.3,2.76A1.38,1.38,0,0,1,224.326.4a1.38,1.38,0,1,1,1.951,1.952A1.39,1.39,0,0,1,225.3,2.76Zm0,0" transform="translate(-193.016)"/>
    </g>
  </g>
</svg>
