<svg xmlns="http://www.w3.org/2000/svg" width="128" height="128" viewBox="0 0 128 128">
  <g id="Grupo_1178371" data-name="Grupo 1178371" transform="translate(-72.746 -7992)">
    <g id="Elipse_13628" data-name="Elipse 13628" transform="translate(72.746 7992)" fill="#fff7e2" stroke="#cff878" stroke-width="6">
      <circle cx="64" cy="64" r="64" stroke="none"/>
      <circle cx="64" cy="64" r="61" fill="none"/>
    </g>
    <g id="Grupo_1192966" data-name="Grupo 1192966" transform="translate(98.097 8011.308)">
      <path id="Trazado_1005931" data-name="Trazado 1005931" d="M215.121,137.258v3.511a1.262,1.262,0,0,0,1.262,1.262h2.84a1.262,1.262,0,0,0,1.262-1.262v-3.511A1.261,1.261,0,0,0,219.223,136h-2.84A1.261,1.261,0,0,0,215.121,137.258Zm0,0" transform="translate(-177.566 -112.254)" fill="#86919e"/>
      <path id="Trazado_1005932" data-name="Trazado 1005932" d="M33.328,106.7,19.556,83.864a3.286,3.286,0,0,0-4.516-1.115l-5.985,3.62a3.3,3.3,0,0,0-1.116,4.523L22.09,114.359Zm0,0" transform="translate(-6.162 -67.91)" fill="#84eaf5"/>
      <path id="Trazado_1005933" data-name="Trazado 1005933" d="M192.268,17.723a10.251,10.251,0,1,0-14.351,9.4v2.435a2.246,2.246,0,0,0,2.246,2.246h3.708a2.246,2.246,0,0,0,2.246-2.246V27.118a10.251,10.251,0,0,0,6.15-9.4Zm0,0" transform="translate(-141.781 -6.167)" fill="#feda5f"/>
      <path id="Trazado_1005934" data-name="Trazado 1005934" d="M343.294,106.062l6.391-10.6L349.6,82.273l-11.711,6.085-6.309,10.46Zm0,0" transform="translate(-273.692 -67.91)" fill="#fce49d"/>
      <path id="Trazado_1005935" data-name="Trazado 1005935" d="M315.709,122.314v0l-4.915-5.187-12.039,20,4.437,6,7.047,1.653,12.354-20.547Zm0,0" transform="translate(-246.598 -96.681)" fill="#f4c84e"/>
      <path id="Trazado_1005936" data-name="Trazado 1005936" d="M341.5,169.3l12.354-20.547-6.883-1.922L336.629,163.9Zm0,0" transform="translate(-277.861 -121.195)" fill="#feda5f"/>
      <path id="Trazado_1005937" data-name="Trazado 1005937" d="M415.022,82.273l-4.182,2.173,4.214,2.593Zm0,0" transform="translate(-339.117 -67.91)" fill="#86919e"/>
      <path id="Trazado_1005938" data-name="Trazado 1005938" d="M79.863,231.211H96.868a10.048,10.048,0,0,0,.7-20.072,10.048,10.048,0,0,0-14.683-10.986,10.051,10.051,0,0,0-18.568,0,10.047,10.047,0,0,0-14.677,11.013,10.049,10.049,0,0,0,1.042,20.044Zm0,0" transform="translate(-33.536 -160.093)" fill="#f0a8d0"/>
      <path id="Trazado_1005939" data-name="Trazado 1005939" d="M302.307,234.477a10.048,10.048,0,0,0-13.631-11.493,10.046,10.046,0,0,1,5.975,11.493,10.048,10.048,0,0,1-.7,20.072h7.656a10.048,10.048,0,0,0,.7-20.072Zm0,0" transform="translate(-238.28 -183.43)" fill="#ea89bf"/>
      <path id="Trazado_1005940" data-name="Trazado 1005940" d="M180.1,293.324l9.5.119-5.25,13.567,8.684.228-18.505,22.973,6.438-16.98-8.022-.1Zm0,0" transform="translate(-142.753 -242.116)" fill="#feda5f"/>
      <path id="Trazado_1005941" data-name="Trazado 1005941" d="M296.938,110.95l2.784,1.74a1.306,1.306,0,0,0,1.384-2.214l-2.784-1.74A1.305,1.305,0,0,0,296.938,110.95Zm0,0" transform="translate(-244.604 -89.582)"/>
      <path id="Trazado_1005942" data-name="Trazado 1005942" d="M299.673,5.248a1.3,1.3,0,0,0,.691-.2l2.784-1.74A1.306,1.306,0,0,0,301.764,1.1l-2.784,1.74a1.315,1.315,0,0,0,.692,2.412Zm0,0" transform="translate(-246.298 -0.733)"/>
      <path id="Trazado_1005943" data-name="Trazado 1005943" d="M310.219,61.055a1.3,1.3,0,0,0,1.3,1.305H315a1.306,1.306,0,0,0,0-2.61h-3.48a1.3,1.3,0,0,0-1.3,1.3Zm0,0" transform="translate(-256.062 -49.319)"/>
      <path id="Trazado_1005944" data-name="Trazado 1005944" d="M137.272,108.739l-2.784,1.74a1.306,1.306,0,0,0,1.383,2.214l2.784-1.74A1.305,1.305,0,0,0,137.272,108.739Zm0,0" transform="translate(-110.515 -89.584)"/>
      <path id="Trazado_1005945" data-name="Trazado 1005945" d="M132.485,3.308l2.784,1.74a1.306,1.306,0,0,0,1.384-2.213l-2.784-1.74a1.306,1.306,0,0,0-1.383,2.214Zm0,0" transform="translate(-108.861 -0.731)"/>
      <path id="Trazado_1005946" data-name="Trazado 1005946" d="M117.369,62.36h3.48a1.306,1.306,0,0,0,0-2.61h-3.48A1.306,1.306,0,0,0,117.369,62.36Zm0,0" transform="translate(-95.837 -49.319)"/>
      <path id="Trazado_1005947" data-name="Trazado 1005947" d="M170.438,21.769v1.618a3.545,3.545,0,0,0,1.418,2.833v3.557a1.305,1.305,0,0,0,1.305,1.3h5.363a1.3,1.3,0,0,0,1.3-1.3V26.22a3.543,3.543,0,0,0,1.418-2.833V21.769a11.567,11.567,0,0,0,6.082-11.481,1.306,1.306,0,0,0-2.594.284,8.957,8.957,0,0,1-5.315,9.182,1.306,1.306,0,0,0-.782,1.2v2.436a.943.943,0,0,1-.941.942H173.99a.943.943,0,0,1-.942-.942V20.951a1.3,1.3,0,0,0-.782-1.2,8.946,8.946,0,1,1,8.588-15.612,1.306,1.306,0,0,0,1.463-2.161,11.556,11.556,0,1,0-11.879,19.787Zm4.029,6.7V26.938h2.753v1.534Zm0,0" transform="translate(-135.607 0)"/>
      <path id="Trazado_1005948" data-name="Trazado 1005948" d="M70.714,100.569l.006-.008,6.391-10.6a1.327,1.327,0,0,0,.188-.683L77.211,76.09A1.317,1.317,0,0,0,75.3,74.94L63.593,81.025c-.757.393-1.144,1.526-1.549,2.2L52.289,99.4a11.365,11.365,0,0,0-2.339.665,11.358,11.358,0,0,0-19.778,0,11.4,11.4,0,0,0-2.145-.632L14.512,77.014A4.592,4.592,0,0,0,8.2,75.457L2.218,79.076A4.608,4.608,0,0,0,.659,85.389l14.047,23.295a11.366,11.366,0,0,0-.1,3.05,11.356,11.356,0,0,0,2.538,22.424H21.1a1.306,1.306,0,0,0,0-2.61H17.142a8.745,8.745,0,0,1-.908-17.442,1.317,1.317,0,0,0,1.139-1.586A8.74,8.74,0,0,1,25.9,101.836a8.967,8.967,0,0,1,7.173,3.72,1.305,1.305,0,0,0,2.068-1.591,13.9,13.9,0,0,0-2.68-2.644,8.745,8.745,0,0,1,15.68.974,1.317,1.317,0,0,0,1.84.64,8.744,8.744,0,0,1,12.988,7.645,8.606,8.606,0,0,1-.061,1.015,9.363,9.363,0,0,0-5.2,2.175,1.306,1.306,0,0,0,1.846,1.845,7.375,7.375,0,0,1,4.51-1.481c4.46,0,8.011,4.432,8.011,8.668a8.754,8.754,0,0,1-8.744,8.745H48.179l3.119-3.872a1.325,1.325,0,0,0-.983-2.123l-6.832-.179,4.582-11.841a1.317,1.317,0,0,0-1.2-1.776l-9.5-.119a1.3,1.3,0,0,0-1.244.862l-7.139,19.776a1.325,1.325,0,0,0,1.169,1.882h6.178l-5.767,15.21a1.314,1.314,0,0,0,2.237,1.281l13.3-16.513a1.311,1.311,0,0,0,.233.022H63.332a11.354,11.354,0,0,0,2.193-22.493c.068-.7-.255-2.069.085-2.633Zm-54.927,4.854L2.895,84.041a1.994,1.994,0,0,1,.674-2.732L9.553,77.69a1.98,1.98,0,0,1,2.723.672l1.355,2.246L11.18,82.091a1.305,1.305,0,0,0,1.351,2.233l2.447-1.48,2.646,4.388L13.7,89.6a1.305,1.305,0,0,0,1.351,2.233l3.918-2.37,2.646,4.388-2.451,1.482a1.305,1.305,0,1,0,1.351,2.233l2.447-1.481,1.92,3.184a11.371,11.371,0,0,0-9.1,6.15Zm23.648,27.89a1.305,1.305,0,0,0-1.2-1.768l-6.189-.078,6.213-17.208,6.7.084-4.572,11.815a1.305,1.305,0,0,0,1.183,1.776l6.047.158L35.9,142.626ZM55.4,99.287,59,93.328,59,93.317l5.422-8.992,3.051,3.219-7.915,13.019a11.28,11.28,0,0,0-4.16-1.276Zm14.4-13.08-3.472-3.665,5.3-2.752L74.638,81.6l.04,5.964Zm4.812-7.664-.273-.164.271-.14ZM61.709,102.054l8-13.164,4.278,1.194-9.475,15.709a11.416,11.416,0,0,0-2.806-3.739Zm0,0" transform="translate(0 -61.734)"/>
    </g>
  </g>
</svg>
