<svg xmlns="http://www.w3.org/2000/svg" width="128" height="128" viewBox="0 0 128 128">
  <g id="Grupo_1192616" data-name="Grupo 1192616" transform="translate(-72.746 -7992)">
    <g id="Elipse_13628" data-name="Elipse 13628" transform="translate(72.746 7992)" fill="#fff7e2" stroke="#cff878" stroke-width="6">
      <circle cx="64" cy="64" r="64" stroke="none"/>
      <circle cx="64" cy="64" r="61" fill="none"/>
    </g>
    <g id="Grupo_1192970" data-name="Grupo 1192970" transform="translate(89.329 8014.413)">
      <g id="Grupo_1192968" data-name="Grupo 1192968" transform="translate(6.963 0)">
        <path id="Trazado_1005949" data-name="Trazado 1005949" d="M221.176,460.583v2.076a4.976,4.976,0,0,1-.029.542,4.887,4.887,0,0,1-4.855,4.342H208.8a4.887,4.887,0,0,1-4.855-4.342,4.976,4.976,0,0,1-.029-.542v-2.076a5.185,5.185,0,0,0,2.117.448h13.026A5.185,5.185,0,0,0,221.176,460.583Z" transform="translate(-171.849 -385.59)" fill="#50758d"/>
        <g id="Grupo_1192967" data-name="Grupo 1192967" transform="translate(0 0)">
          <path id="Trazado_1005950" data-name="Trazado 1005950" d="M249.138,10.675a1.221,1.221,0,0,1-1.221-1.221V1.221a1.221,1.221,0,1,1,2.442,0V9.454A1.221,1.221,0,0,1,249.138,10.675Z" transform="translate(-208.684 0)" fill="#ffe7c9"/>
          <path id="Trazado_1005951" data-name="Trazado 1005951" d="M84.579,78.838a1.218,1.218,0,0,1-.864-.358l-5.822-5.822a1.221,1.221,0,0,1,1.727-1.727l5.822,5.822a1.221,1.221,0,0,1-.863,2.085Z" transform="translate(-66.045 -59.083)" fill="#ffe7c9"/>
          <path id="Trazado_1005952" data-name="Trazado 1005952" d="M16.417,243.4H8.184a1.221,1.221,0,1,1,0-2.442h8.233a1.221,1.221,0,0,1,0,2.442Z" transform="translate(-6.963 -201.721)" fill="#ffe7c9"/>
          <path id="Trazado_1005953" data-name="Trazado 1005953" d="M78.758,383.844a1.221,1.221,0,0,1-.864-2.085l5.822-5.822a1.221,1.221,0,0,1,1.727,1.727l-5.822,5.822A1.218,1.218,0,0,1,78.758,383.844Z" transform="translate(-66.045 -314.427)" fill="#ffe7c9"/>
          <path id="Trazado_1005954" data-name="Trazado 1005954" d="M389.584,383.844a1.218,1.218,0,0,1-.864-.358l-5.822-5.822a1.221,1.221,0,0,1,1.727-1.727l5.822,5.822a1.221,1.221,0,0,1-.863,2.085Z" transform="translate(-321.389 -314.427)" fill="#ffe7c9"/>
          <path id="Trazado_1005955" data-name="Trazado 1005955" d="M447.761,243.4h-8.233a1.221,1.221,0,0,1,0-2.442h8.233a1.221,1.221,0,0,1,0,2.442Z" transform="translate(-368.075 -201.721)" fill="#ffe7c9"/>
          <path id="Trazado_1005956" data-name="Trazado 1005956" d="M383.763,78.838a1.221,1.221,0,0,1-.864-2.085l5.822-5.822a1.221,1.221,0,0,1,1.727,1.727l-5.822,5.822A1.217,1.217,0,0,1,383.763,78.838Z" transform="translate(-321.389 -59.083)" fill="#ffe7c9"/>
        </g>
        <path id="Trazado_1005957" data-name="Trazado 1005957" d="M212.547,453.333s-7.983,1.469-8.63,1.18v2.076a4.976,4.976,0,0,0,.029.542,4.887,4.887,0,0,0,4.855,4.342h2.117a4.888,4.888,0,0,1-4.6-3.25.49.49,0,0,1,.459-.658h12.286a5.184,5.184,0,0,0,2.087-.435,4.976,4.976,0,0,0,.029-.542v-2.076C220.53,454.8,212.547,453.333,212.547,453.333Z" transform="translate(-171.849 -379.521)" fill="#2b597f"/>
        <path id="Trazado_1005958" data-name="Trazado 1005958" d="M207.894,382.777a5.206,5.206,0,0,1-5.21,5.21H189.658a5.206,5.206,0,0,1-5.21-5.21s-.077-7.61-.091-7.809v-.007l11.814-1.628,11.679,1.628Z" transform="translate(-155.473 -312.546)" fill="#50758d"/>
        <path id="Trazado_1005959" data-name="Trazado 1005959" d="M193.729,396.359h-4.071a5.206,5.206,0,0,1-5.21-5.21s-.077-7.61-.091-7.809v-.007h4.071v.007c.015.2.091,7.809.091,7.809a5.206,5.206,0,0,0,5.21,5.21Z" transform="translate(-155.473 -320.918)" fill="#2b597f"/>
        <path id="Trazado_1005960" data-name="Trazado 1005960" d="M301.29,418.275h-4.152a1.221,1.221,0,1,1,0-2.442h4.139l.007,1.221Z" transform="translate(-248.869 -348.126)" fill="#2b597f"/>
        <path id="Trazado_1005961" data-name="Trazado 1005961" d="M199.583,417.054a1.222,1.222,0,0,1-1.221,1.221h-13.6l-.028-2.442h13.625A1.222,1.222,0,0,1,199.583,417.054Z" transform="translate(-155.792 -348.126)" fill="#2b597f"/>
        <path id="Trazado_1005962" data-name="Trazado 1005962" d="M137.662,90.488h0c-12.575-.193-23.15,10.766-22.924,23.25a23.356,23.356,0,0,0,6.609,16.339c2.408,2.477,4.492,4.766,4.723,8.091l23.494.039c.132-3.423,2.078-5.735,4.5-8.266a23.353,23.353,0,0,0,6.477-16.2A23.077,23.077,0,0,0,137.662,90.488Z" transform="translate(-97.187 -75.752)" fill="#fad207"/>
        <path id="Trazado_1005963" data-name="Trazado 1005963" d="M149.564,138.2v.007l-23.494-.039c-.231-3.325-2.315-5.614-4.723-8.091a23.356,23.356,0,0,1-6.609-16.339c-.226-12.484,10.349-23.443,22.924-23.249.635,0,1.264.028,1.885.078a23.372,23.372,0,0,0-14.13,39.51c2.408,2.477,4.492,4.766,4.723,8.091Z" transform="translate(-97.187 -75.754)" fill="#faa515"/>
        <path id="Trazado_1005964" data-name="Trazado 1005964" d="M194.877,211.318a2.686,2.686,0,0,1-2.022,1.037l-.1,0a2.687,2.687,0,0,1-1.993-.885l-7.653-8.467a2.687,2.687,0,0,1,3.986-3.6l5.5,6.089,8.78-11.308a2.686,2.686,0,1,1,4.244,3.3Z" transform="translate(-153.849 -161.696)" fill="#faa515"/>
      </g>
      <g id="Grupo_1192969" data-name="Grupo 1192969" transform="translate(6.963 0)">
        <path id="Trazado_1005965" data-name="Trazado 1005965" d="M249.138,10.675a1.221,1.221,0,0,0,1.221-1.221V1.221a1.221,1.221,0,1,0-2.442,0V9.454A1.221,1.221,0,0,0,249.138,10.675Z" transform="translate(-208.684 0)"/>
        <path id="Trazado_1005966" data-name="Trazado 1005966" d="M83.715,78.48a1.221,1.221,0,0,0,1.727-1.727l-5.822-5.822a1.221,1.221,0,0,0-1.727,1.727Z" transform="translate(-66.045 -59.083)"/>
        <path id="Trazado_1005967" data-name="Trazado 1005967" d="M16.417,240.953H8.184a1.221,1.221,0,1,0,0,2.442h8.233a1.221,1.221,0,0,0,0-2.442Z" transform="translate(-6.963 -201.721)"/>
        <path id="Trazado_1005968" data-name="Trazado 1005968" d="M83.715,375.937l-5.822,5.822a1.221,1.221,0,0,0,1.727,1.727l5.822-5.822a1.221,1.221,0,0,0-1.727-1.727Z" transform="translate(-66.045 -314.427)"/>
        <path id="Trazado_1005969" data-name="Trazado 1005969" d="M384.627,375.937a1.221,1.221,0,0,0-1.727,1.727l5.822,5.822a1.221,1.221,0,1,0,1.727-1.727Z" transform="translate(-321.39 -314.427)"/>
        <path id="Trazado_1005970" data-name="Trazado 1005970" d="M447.761,240.953h-8.233a1.221,1.221,0,0,0,0,2.442h8.233a1.221,1.221,0,0,0,0-2.442Z" transform="translate(-368.075 -201.721)"/>
        <path id="Trazado_1005971" data-name="Trazado 1005971" d="M388.721,70.932,382.9,76.753a1.221,1.221,0,0,0,1.727,1.727l5.822-5.822a1.221,1.221,0,0,0-1.727-1.727Z" transform="translate(-321.39 -59.083)"/>
        <path id="Trazado_1005972" data-name="Trazado 1005972" d="M155.5,107.471A24.327,24.327,0,0,0,131.379,83,23.791,23.791,0,0,0,118.3,86.9a24.418,24.418,0,0,0-8.739,10.112,1.221,1.221,0,1,0,2.213,1.033,21.631,21.631,0,0,1,41.286,9.422,22.1,22.1,0,0,1-6.139,15.358c-2.282,2.383-4.224,4.66-4.723,7.85h-21.32c-.63-3.312-2.889-5.636-4.919-7.722a22.077,22.077,0,0,1-6.263-15.487,22.562,22.562,0,0,1,.41-4.284,1.221,1.221,0,1,0-2.4-.465,25,25,0,0,0-.454,4.749,24.506,24.506,0,0,0,6.955,17.19c2.576,2.647,4.4,4.76,4.4,7.856,0,.011,0,.022,0,.033l.07,7.166a6.434,6.434,0,0,0,3.094,5.5v1.343a6.113,6.113,0,0,0,6.106,6.106h7.49a6.113,6.113,0,0,0,6.106-6.106v-1.343a6.434,6.434,0,0,0,3.094-5.5s-.009-7.982-.025-8.062c.232-2.83,1.947-4.842,4.143-7.136A24.528,24.528,0,0,0,155.5,107.471Zm-16.471,39.084a3.668,3.668,0,0,1-3.663,3.663h-7.49a3.668,3.668,0,0,1-3.663-3.663v-.471a6.446,6.446,0,0,0,.9.064h13.026a6.474,6.474,0,0,0,.9-.064Zm-.9-2.849H125.11a3.993,3.993,0,0,1-3.989-3.989v-.081H133.5a1.221,1.221,0,0,0,0-2.442H121.121v-4.071h20.966l.038,4.071h-2.931a1.221,1.221,0,1,0,0,2.442h2.931v.081A3.994,3.994,0,0,1,138.136,143.705Z" transform="translate(-90.925 -69.486)"/>
        <path id="Trazado_1005973" data-name="Trazado 1005973" d="M195.961,193.558a1.221,1.221,0,0,0,1.929,1.5l2.418-3.113a3.908,3.908,0,0,0-6.173-4.793l-7.887,10.157-4.526-5.008a3.908,3.908,0,0,0-5.8,5.241l7.653,8.467a3.932,3.932,0,0,0,5.985-.224l4.833-6.225a1.221,1.221,0,0,0-1.929-1.5l-4.833,6.225a1.474,1.474,0,0,1-2.244.084l-7.653-8.467a1.465,1.465,0,1,1,2.174-1.965l5.5,6.089a1.23,1.23,0,0,0,1.87-.07l8.78-11.308a1.465,1.465,0,1,1,2.315,1.8Z" transform="translate(-147.569 -155.411)"/>
      </g>
    </g>
  </g>
</svg>
