<svg xmlns="http://www.w3.org/2000/svg" xmlns:xlink="http://www.w3.org/1999/xlink" width="96" height="96" viewBox="0 0 96 96">
  <defs>
    <clipPath id="clip-path">
      <rect id="Rect치ngulo_454535" data-name="Rect치ngulo 454535" width="25.231" height="26.467" fill="#cff878"/>
    </clipPath>
  </defs>
  <g id="Grupo_1192530" data-name="Grupo 1192530" transform="translate(-735.746 -1018.999)">
    <path id="Elipse_5729" data-name="Elipse 5729" d="M48,0A48,48,0,1,1,0,48,48,48,0,0,1,48,0Z" transform="translate(735.746 1018.999)" fill="#e795ff"/>
    <g id="Grupo_1192476" data-name="Grupo 1192476" transform="translate(578 82)">
      <rect id="Rect치ngulo_455479" data-name="Rect치ngulo 455479" width="70" height="70" rx="35" transform="translate(170.711 950)" fill="#f8dfff"/>
      <g id="Grupo_1192522" data-name="Grupo 1192522" transform="translate(174.711 954)">
        <g id="Grupo_1176862" data-name="Grupo 1176862" clip-path="url(#clip-path)">
          <path id="Trazado_991676" data-name="Trazado 991676" d="M14.729,5.187,13.176.407a.589.589,0,0,0-1.12,0L10.5,5.187a.589.589,0,0,1-.906.294L5.53,2.527a.589.589,0,0,0-.906.658l1.553,4.78a.589.589,0,0,1-.56.771H.59A.589.589,0,0,0,.244,9.8l4.066,2.954a.589.589,0,0,1,0,.953L.244,16.664A.589.589,0,0,0,.59,17.73H5.617a.589.589,0,0,1,.56.771l-1.553,4.78a.589.589,0,0,0,.906.659L9.6,20.985a.589.589,0,0,1,.906.294l1.553,4.78a.589.589,0,0,0,1.12,0l1.553-4.78a.589.589,0,0,1,.906-.294L19.7,23.94a.589.589,0,0,0,.906-.658L19.055,18.5a.589.589,0,0,1,.56-.771h5.026a.589.589,0,0,0,.346-1.065L20.922,13.71a.589.589,0,0,1,0-.953L24.988,9.8a.589.589,0,0,0-.346-1.065H19.615a.589.589,0,0,1-.56-.771l1.553-4.78a.589.589,0,0,0-.906-.658L15.636,5.482a.589.589,0,0,1-.906-.294" transform="translate(0 0)" fill="#cff878"/>
        </g>
      </g>
      <g id="Grupo_1192475" data-name="Grupo 1192475" transform="translate(174.528 951.502)">
        <circle id="Elipse_13791" data-name="Elipse 13791" cx="0.759" cy="0.759" r="0.759" transform="translate(21.491 53.492)" fill="#5c3b66"/>
        <path id="Trazado_1005028" data-name="Trazado 1005028" d="M54.517,26.609a.759.759,0,0,1,.759-.759h25.41a.759.759,0,0,1,.759.759v.835a3.794,3.794,0,0,1,.759-.076h.759v-.759a2.276,2.276,0,0,0-2.276-2.276H55.276A2.276,2.276,0,0,0,53,26.609v3.674a13.605,13.605,0,0,1,1.517-.21Z" transform="translate(-33.406 -14.835)" fill="#5c3b66"/>
        <path id="Trazado_1005029" data-name="Trazado 1005029" d="M67.5,96.333H65.758a.752.752,0,0,0-.737.933A9.037,9.037,0,0,0,67.5,96.333Z" transform="translate(-40.854 -59.529)" fill="#5c3b66"/>
        <path id="Trazado_1005030" data-name="Trazado 1005030" d="M65.759,87.85H70.2a9.13,9.13,0,0,0,.988-1.517H65.758a.759.759,0,0,0,0,1.517Z" transform="translate(-40.854 -53.321)" fill="#5c3b66"/>
        <path id="Trazado_1005031" data-name="Trazado 1005031" d="M65.759,77.85h6.247a9.082,9.082,0,0,0,.19-1.517H65.759a.759.759,0,0,0,0,1.517Z" transform="translate(-40.855 -47.114)" fill="#5c3b66"/>
        <path id="Trazado_1005032" data-name="Trazado 1005032" d="M65.759,67.85h6.247a9.021,9.021,0,0,0-.466-1.517H65.758a.759.759,0,1,0,0,1.517Z" transform="translate(-40.854 -40.906)" fill="#5c3b66"/>
        <path id="Trazado_1005033" data-name="Trazado 1005033" d="M65.758,57.85H70.2a9.179,9.179,0,0,0-1.546-1.517h-2.9a.759.759,0,0,0,0,1.517Z" transform="translate(-40.854 -34.699)" fill="#5c3b66"/>
        <path id="Trazado_1005034" data-name="Trazado 1005034" d="M54.517,51.528A9.036,9.036,0,0,0,53,51.85V69.262a9.036,9.036,0,0,0,1.517.322Z" transform="translate(-33.406 -31.716)" fill="#5c3b66"/>
        <path id="Trazado_1005035" data-name="Trazado 1005035" d="M89.933,126.333H72.785l.077,1.517H89.933a.759.759,0,1,0,0-1.517Z" transform="translate(-45.687 -78.151)" fill="#5c3b66"/>
        <path id="Trazado_1005036" data-name="Trazado 1005036" d="M72.375,117.07l.04.78H89.679a.759.759,0,1,0,0-1.517H73.058a2.283,2.283,0,0,1-.683.737Z" transform="translate(-45.432 -71.944)" fill="#5c3b66"/>
        <path id="Trazado_1005037" data-name="Trazado 1005037" d="M75,106.986v.865H91.308a.759.759,0,1,0,0-1.517H76.232a13.775,13.775,0,0,1-1.232.652Z" transform="translate(-47.062 -65.736)" fill="#5c3b66"/>
        <path id="Trazado_1005038" data-name="Trazado 1005038" d="M85.892,97.85H98.069a.759.759,0,1,0,0-1.517H87.159a13.6,13.6,0,0,1-1.267,1.517Z" transform="translate(-53.823 -59.528)" fill="#5c3b66"/>
        <path id="Trazado_1005039" data-name="Trazado 1005039" d="M102.319,86.333h-9a13.6,13.6,0,0,1-.58,1.517h9.58a.759.759,0,0,0,0-1.517Z" transform="translate(-58.073 -53.321)" fill="#5c3b66"/>
        <path id="Trazado_1005040" data-name="Trazado 1005040" d="M104.125,76.333H95.767a13.763,13.763,0,0,1-.12,1.517h8.477a.759.759,0,1,0,0-1.517Z" transform="translate(-59.879 -47.114)" fill="#5c3b66"/>
        <path id="Trazado_1005041" data-name="Trazado 1005041" d="M103.637,66.333H94.861a13.568,13.568,0,0,1,.3,1.517h8.478a.759.759,0,0,0,0-1.517Z" transform="translate(-59.39 -40.906)" fill="#5c3b66"/>
        <path id="Trazado_1005042" data-name="Trazado 1005042" d="M100.966,57.85a.759.759,0,0,0,0-1.517H90.558a13.637,13.637,0,0,1,.817,1.517Z" transform="translate(-56.72 -34.699)" fill="#5c3b66"/>
        <path id="Trazado_1005043" data-name="Trazado 1005043" d="M95.977,47.092a.759.759,0,0,0-.758-.759H81.3a13.759,13.759,0,0,1,1.733,1.517H95.218a.759.759,0,0,0,.759-.758Z" transform="translate(-50.972 -28.492)" fill="#5c3b66"/>
        <g id="Grupo_1192475-2" data-name="Grupo 1192475" transform="translate(5.183 14.049)">
          <path id="Trazado_1005049" data-name="Trazado 1005049" d="M66.474,78.81H60.335l2.058-8.574a.742.742,0,0,0,.015-.149V38.609a2.278,2.278,0,0,0-2.276-2.276H58.615a2.278,2.278,0,0,0-2.276,2.276V70.087a.741.741,0,0,0,.015.149l2.058,8.574H35.02a3.607,3.607,0,0,0,.683-2.317l-.606-10.2h.382a.759.759,0,0,0,.759-.758V62.522a12.136,12.136,0,1,0-8.344,0v3.014a.759.759,0,0,0,.758.759h.382L28.43,76.5a3.6,3.6,0,0,0,.683,2.31H15.864a.765.765,0,1,0,0,1.517h50.61a.765.765,0,1,0,0-1.517ZM34.721,64.777h-5.31V62.964a12.051,12.051,0,0,0,5.31,0ZM21.447,51.124A10.619,10.619,0,1,1,32.067,61.743,10.619,10.619,0,0,1,21.447,51.124Zm9.079,27.025a2.1,2.1,0,0,1-.582-1.566l.611-10.289h3.023l.611,10.283a2.125,2.125,0,0,1-3.663,1.572Zm27.33-39.541a.759.759,0,0,1,.759-.759h1.517a.759.759,0,0,1,.759.759v.759H57.856Zm0,2.276H60.89V69.329H57.856Zm.167,29.962h2.7L59.373,75.7Z" transform="translate(-15 -36.333)" fill="#5c3b66"/>
        </g>
      </g>
    </g>
  </g>
</svg>
