<svg xmlns="http://www.w3.org/2000/svg" xmlns:xlink="http://www.w3.org/1999/xlink" width="96" height="96" viewBox="0 0 96 96">
  <defs>
    <clipPath id="clip-path">
      <rect id="Rect치ngulo_454535" data-name="Rect치ngulo 454535" width="25.231" height="26.467" fill="#cff878"/>
    </clipPath>
  </defs>
  <g id="Grupo_1192531" data-name="Grupo 1192531" transform="translate(-962.711 -1018.999)">
    <path id="Elipse_5729" data-name="Elipse 5729" d="M48,0A48,48,0,1,1,0,48,48,48,0,0,1,48,0Z" transform="translate(962.711 1018.999)" fill="#e795ff"/>
    <g id="Grupo_1192477" data-name="Grupo 1192477" transform="translate(805 82)">
      <rect id="Rect치ngulo_455479" data-name="Rect치ngulo 455479" width="70" height="70" rx="35" transform="translate(170.711 950)" fill="#f8dfff"/>
      <g id="Grupo_1192523" data-name="Grupo 1192523" transform="translate(174.711 954)">
        <g id="Grupo_1176862" data-name="Grupo 1176862" clip-path="url(#clip-path)">
          <path id="Trazado_991676" data-name="Trazado 991676" d="M14.729,5.187,13.176.407a.589.589,0,0,0-1.12,0L10.5,5.187a.589.589,0,0,1-.906.294L5.53,2.527a.589.589,0,0,0-.906.658l1.553,4.78a.589.589,0,0,1-.56.771H.59A.589.589,0,0,0,.244,9.8l4.066,2.954a.589.589,0,0,1,0,.953L.244,16.664A.589.589,0,0,0,.59,17.73H5.617a.589.589,0,0,1,.56.771l-1.553,4.78a.589.589,0,0,0,.906.659L9.6,20.985a.589.589,0,0,1,.906.294l1.553,4.78a.589.589,0,0,0,1.12,0l1.553-4.78a.589.589,0,0,1,.906-.294L19.7,23.94a.589.589,0,0,0,.906-.658L19.055,18.5a.589.589,0,0,1,.56-.771h5.026a.589.589,0,0,0,.346-1.065L20.922,13.71a.589.589,0,0,1,0-.953L24.988,9.8a.589.589,0,0,0-.346-1.065H19.615a.589.589,0,0,1-.56-.771l1.553-4.78a.589.589,0,0,0-.906-.658L15.636,5.482a.589.589,0,0,1-.906-.294" transform="translate(0 0)" fill="#cff878"/>
        </g>
      </g>
      <g id="Grupo_1192478" data-name="Grupo 1192478" transform="translate(165.471 944.76)">
        <path id="Trazado_1005050" data-name="Trazado 1005050" d="M128.808,65.616h3.232a.808.808,0,0,0,0-1.616h-3.232a.808.808,0,0,0,0,1.616Z" transform="translate(-100.688 -43.152)" fill="#5c3b66"/>
        <path id="Trazado_1005051" data-name="Trazado 1005051" d="M112.808,97.616H124.12a.808.808,0,0,0,0-1.616H112.808a.808.808,0,0,0,0,1.616Z" transform="translate(-86.304 -71.92)" fill="#5c3b66"/>
        <path id="Trazado_1005052" data-name="Trazado 1005052" d="M112.808,129.616h3.232a.808.808,0,1,0,0-1.616h-3.232a.808.808,0,1,0,0,1.616Z" transform="translate(-86.304 -100.688)" fill="#5c3b66"/>
        <path id="Trazado_1005053" data-name="Trazado 1005053" d="M192.808,65.616h3.232a.808.808,0,1,0,0-1.616h-3.232a.808.808,0,0,0,0,1.616Z" transform="translate(-158.224 -43.152)" fill="#5c3b66"/>
        <path id="Trazado_1005054" data-name="Trazado 1005054" d="M181.656,128h-4.848a.808.808,0,0,0,0,1.616h4.848a.808.808,0,1,0,0-1.616Z" transform="translate(-143.84 -100.688)" fill="#5c3b66"/>
        <path id="Trazado_1005055" data-name="Trazado 1005055" d="M263.272,227.232h-.947a2.436,2.436,0,0,0-1.477-1.477v-.947a.808.808,0,1,0-1.616,0v.947a2.436,2.436,0,0,0-1.477,1.477h-.947a.808.808,0,0,0,0,1.616h.947a2.436,2.436,0,0,0,1.477,1.477v.947a.808.808,0,1,0,1.616,0v-.947a2.436,2.436,0,0,0,1.477-1.477h.947a.808.808,0,1,0,0-1.616Zm-3.232,1.616a.808.808,0,1,1,.808-.808.808.808,0,0,1-.808.808Z" transform="translate(-215.76 -186.992)" fill="#5c3b66"/>
        <path id="Trazado_1005056" data-name="Trazado 1005056" d="M63.338,54.923l-4.75-4.75a.808.808,0,0,0-1.143,0l-.237.237L56.4,49.6V43.472h.808a2.424,2.424,0,1,0,0-4.848H56.4V16.808A.808.808,0,0,0,55.592,16H20.04a.808.808,0,0,0-.808.808V54.784H16.808a.808.808,0,0,0-.808.808V60.44a4.045,4.045,0,0,0,4.04,4.04H52.36a4.045,4.045,0,0,0,4.04-4.04V58.351l1.755,1.755a3.876,3.876,0,0,0,2.759,1.143,3.567,3.567,0,0,0,3.567-3.567A3.876,3.876,0,0,0,63.338,54.923Zm-8.553-2.089-2.606-2.606a12.279,12.279,0,0,0,1.282-1.281l2.606,2.606ZM30.544,41.048a.809.809,0,0,1,.808-.808h3.232a.808.808,0,0,1,0,1.616H31.352A.809.809,0,0,1,30.544,41.048ZM41.856,30.827v.525a2.408,2.408,0,0,0,.253,1.077,8.92,8.92,0,0,0-6.448,6.448,2.408,2.408,0,0,0-1.077-.253h-.525A10.556,10.556,0,0,1,41.856,30.827ZM44.28,48.32a7.272,7.272,0,1,1,7.272-7.272A7.272,7.272,0,0,1,44.28,48.32Zm2.171-15.891a2.408,2.408,0,0,0,.253-1.077v-.525a10.556,10.556,0,0,1,7.8,7.8h-.525a2.408,2.408,0,0,0-1.077.253A8.92,8.92,0,0,0,46.451,32.429Zm1.869-2.806a11.95,11.95,0,0,0-1.616-.448V28.12a2.423,2.423,0,0,0-3.232-2.285V22.464H48.32Zm-4.04-2.31a.809.809,0,0,1,.808.808v3.232a.808.808,0,0,1-1.616,0V28.12a.809.809,0,0,1,.808-.808ZM31.352,43.472h1.054a11.951,11.951,0,0,0,.562,1.92V48.32H26.5V43.472Zm2.707,0h.525a2.408,2.408,0,0,0,1.077-.253,8.92,8.92,0,0,0,6.448,6.448,2.408,2.408,0,0,0-.253,1.077v.525a10.556,10.556,0,0,1-7.8-7.8Zm7.936,11.312h-6.6V53.168h6.464v.808a2.413,2.413,0,0,0,.139.808Zm1.477-.808V50.744a.808.808,0,1,1,1.616,0v3.232a.808.808,0,0,1-1.616,0Zm2.979-4.309A8.92,8.92,0,0,0,52.9,43.219a2.408,2.408,0,0,0,1.077.253H54.5a10.556,10.556,0,0,1-7.8,7.8v-.525a2.408,2.408,0,0,0-.253-1.077Zm7.989-2.026q.179-.275.344-.56v.9Zm3.576-6.593a.809.809,0,0,1-.808.808H53.976a.808.808,0,1,1,0-1.616h3.232A.809.809,0,0,1,58.016,41.048ZM20.848,17.616H54.784v17.4a12.246,12.246,0,0,0-4.848-4.68V21.656a.808.808,0,0,0-.808-.808H42.664a.808.808,0,0,0-.808.808v7.518a12,12,0,0,0-3.721,1.436.806.806,0,0,0-.319-.066H26.5a.808.808,0,0,0,0,1.616h9.55A12.267,12.267,0,0,0,34.6,33.777H26.5a.808.808,0,1,0,0,1.616h7.063a11.989,11.989,0,0,0-1.162,3.232H31.352a2.423,2.423,0,0,0-2.285,3.232H25.7a.808.808,0,0,0-.808.808v6.464a.808.808,0,0,0,.808.808h8.08a.808.808,0,0,0,.808-.808V48.3a12.251,12.251,0,0,0,3.663,3.249H34.584a.808.808,0,0,0-.808.808v2.424H20.848ZM20.04,62.864a2.427,2.427,0,0,1-2.424-2.424V56.4h30.7v4.04a4.019,4.019,0,0,0,.81,2.424ZM54.784,60.44a2.424,2.424,0,1,1-4.848,0V55.592a.808.808,0,0,0-.808-.808H46.565a2.413,2.413,0,0,0,.139-.808V52.922a12.02,12.02,0,0,0,4.169-1.714l2.768,2.768-.237.237a.808.808,0,0,0,0,1.143l1.379,1.379Zm7.509-1.379a1.938,1.938,0,0,1-1.379.571,2.271,2.271,0,0,1-1.616-.669l-4.179-4.179,2.9-2.9,4.179,4.179a2.271,2.271,0,0,1,.669,1.616A1.938,1.938,0,0,1,62.293,59.061Z" fill="#5c3b66"/>
      </g>
    </g>
  </g>
</svg>
