<svg xmlns="http://www.w3.org/2000/svg" xmlns:xlink="http://www.w3.org/1999/xlink" width="96" height="96" viewBox="0 0 96 96">
  <defs>
    <clipPath id="clip-path">
      <rect id="Rect치ngulo_454535" data-name="Rect치ngulo 454535" width="25.231" height="26.467" fill="#cff878"/>
    </clipPath>
  </defs>
  <g id="Grupo_1192534" data-name="Grupo 1192534" transform="translate(-1192.711 -1019)">
    <path id="Elipse_5729" data-name="Elipse 5729" d="M48,0A48,48,0,1,1,0,48,48,48,0,0,1,48,0Z" transform="translate(1192.711 1019)" fill="#e795ff"/>
    <g id="Grupo_1192535" data-name="Grupo 1192535" transform="translate(1035 82)">
      <rect id="Rect치ngulo_455479" data-name="Rect치ngulo 455479" width="70" height="70" rx="35" transform="translate(170.711 950)" fill="#f8dfff"/>
      <g id="Grupo_1192525" data-name="Grupo 1192525" transform="translate(174.711 954)">
        <g id="Grupo_1176862" data-name="Grupo 1176862" clip-path="url(#clip-path)">
          <path id="Trazado_991676" data-name="Trazado 991676" d="M14.729,5.187,13.176.407a.589.589,0,0,0-1.12,0L10.5,5.187a.589.589,0,0,1-.906.294L5.53,2.527a.589.589,0,0,0-.906.658l1.553,4.78a.589.589,0,0,1-.56.771H.59A.589.589,0,0,0,.244,9.8l4.066,2.954a.589.589,0,0,1,0,.953L.244,16.664A.589.589,0,0,0,.59,17.73H5.617a.589.589,0,0,1,.56.771l-1.553,4.78a.589.589,0,0,0,.906.659L9.6,20.985a.589.589,0,0,1,.906.294l1.553,4.78a.589.589,0,0,0,1.12,0l1.553-4.78a.589.589,0,0,1,.906-.294L19.7,23.94a.589.589,0,0,0,.906-.658L19.055,18.5a.589.589,0,0,1,.56-.771h5.026a.589.589,0,0,0,.346-1.065L20.922,13.71a.589.589,0,0,1,0-.953L24.988,9.8a.589.589,0,0,0-.346-1.065H19.615a.589.589,0,0,1-.56-.771l1.553-4.78a.589.589,0,0,0-.906-.658L15.636,5.482a.589.589,0,0,1-.906-.294" transform="translate(0 0)" fill="#cff878"/>
        </g>
      </g>
      <path id="Trazado_1005073" data-name="Trazado 1005073" d="M16.516,15.168a.873.873,0,0,1,.873-.873h9.4a.873.873,0,1,1,0,1.745h-9.4A.873.873,0,0,1,16.516,15.168Zm-3.337,6.439h13.61a.873.873,0,1,0,0-1.745H13.178a.873.873,0,1,0,0,1.745ZM62.1,14.234V42.47a.873.873,0,0,1-.873.873H43.507a12.384,12.384,0,0,1-5.45,2.972l.055,3.644a1.932,1.932,0,0,1,.558.377,1.906,1.906,0,0,1,.584,1.348l.133,8.816a1.922,1.922,0,0,1-1.891,1.949l-3.28.049h-.029a1.922,1.922,0,0,1-1.919-1.891l-.133-8.816a1.926,1.926,0,0,1,1.326-1.855l-.051-3.361a12.359,12.359,0,0,1-6.813-3.232H8.873A.873.873,0,0,1,8,42.47V14.234a.873.873,0,0,1,.256-.617l4.854-4.854a.873.873,0,0,1,.617-.256H31.094a.873.873,0,0,1,.873.873v12.9a12.437,12.437,0,0,1,6.168,0V9.381a.873.873,0,0,1,.873-.873H56.375a.873.873,0,0,1,.617.256l4.854,4.854a.872.872,0,0,1,.256.617Zm-4.854-.873h1.874l-1.874-1.874Zm-46.269,0h1.874V11.487ZM9.745,41.6h15.3a12.376,12.376,0,0,1-1.722-3.292H13.178a.873.873,0,1,1,0-1.745h9.687a12.445,12.445,0,0,1-.112-3.821H13.178a.873.873,0,1,1,0-1.745H23.1a12.351,12.351,0,0,1,1.807-3.821H13.178a.873.873,0,0,1,0-1.745H26.395a12.435,12.435,0,0,1,3.827-2.553V10.253H14.6v3.981a.873.873,0,0,1-.873.873H9.745Zm25.306,3.341a10.643,10.643,0,0,0,7.783-17.91.875.875,0,0,1-.265-.274,10.647,10.647,0,1,0-7.518,18.184Zm2.59,15.587-.133-8.816a.178.178,0,0,0-.175-.172h0l-3.28.049a.178.178,0,0,0-.172.177l.133,8.816a.18.18,0,0,0,.177.172l3.28-.049a.177.177,0,0,0,.172-.178ZM36.316,46.62q-.573.058-1.161.063l.047,3.142,1.161-.017ZM60.356,41.6V15.107H56.375a.873.873,0,0,1-.873-.873V10.253H39.88V22.875a12.439,12.439,0,0,1,3.827,2.553H56.923a.873.873,0,0,1,0,1.745H45.193A12.349,12.349,0,0,1,47,30.994h9.923a.873.873,0,0,1,0,1.745H47.349a12.445,12.445,0,0,1-.112,3.821h9.687a.873.873,0,0,1,0,1.745H46.777A12.369,12.369,0,0,1,45.055,41.6ZM43.313,16.04h9.4a.873.873,0,0,0,0-1.745h-9.4a.873.873,0,1,0,0,1.745Zm13.61,3.821H43.313a.873.873,0,1,0,0,1.745h13.61a.873.873,0,0,0,0-1.745ZM35.051,43.343A9.053,9.053,0,1,1,44.1,34.29,9.064,9.064,0,0,1,35.051,43.343Zm7.308-9.053A7.308,7.308,0,1,0,35.051,41.6,7.316,7.316,0,0,0,42.359,34.29Z" transform="translate(170.66 949.497)" fill="#5c3b66"/>
    </g>
  </g>
</svg>
