<svg xmlns="http://www.w3.org/2000/svg" xmlns:xlink="http://www.w3.org/1999/xlink" width="96" height="96" viewBox="0 0 96 96">
  <defs>
    <clipPath id="clip-path">
      <rect id="Rect치ngulo_454535" data-name="Rect치ngulo 454535" width="25.231" height="26.467" fill="#cff878"/>
    </clipPath>
  </defs>
  <g id="Grupo_1192536" data-name="Grupo 1192536" transform="translate(-1192.711 -1019)">
    <path id="Elipse_5729" data-name="Elipse 5729" d="M48,0A48,48,0,1,1,0,48,48,48,0,0,1,48,0Z" transform="translate(1192.711 1019)" fill="#e795ff"/>
    <g id="Grupo_1192537" data-name="Grupo 1192537" transform="translate(1035 82)">
      <rect id="Rect치ngulo_455479" data-name="Rect치ngulo 455479" width="70" height="70" rx="35" transform="translate(170.711 950)" fill="#f8dfff"/>
      <g id="Grupo_1192526" data-name="Grupo 1192526" transform="translate(174.711 954)">
        <g id="Grupo_1176862" data-name="Grupo 1176862" clip-path="url(#clip-path)">
          <path id="Trazado_991676" data-name="Trazado 991676" d="M14.729,5.187,13.176.407a.589.589,0,0,0-1.12,0L10.5,5.187a.589.589,0,0,1-.906.294L5.53,2.527a.589.589,0,0,0-.906.658l1.553,4.78a.589.589,0,0,1-.56.771H.59A.589.589,0,0,0,.244,9.8l4.066,2.954a.589.589,0,0,1,0,.953L.244,16.664A.589.589,0,0,0,.59,17.73H5.617a.589.589,0,0,1,.56.771l-1.553,4.78a.589.589,0,0,0,.906.659L9.6,20.985a.589.589,0,0,1,.906.294l1.553,4.78a.589.589,0,0,0,1.12,0l1.553-4.78a.589.589,0,0,1,.906-.294L19.7,23.94a.589.589,0,0,0,.906-.658L19.055,18.5a.589.589,0,0,1,.56-.771h5.026a.589.589,0,0,0,.346-1.065L20.922,13.71a.589.589,0,0,1,0-.953L24.988,9.8a.589.589,0,0,0-.346-1.065H19.615a.589.589,0,0,1-.56-.771l1.553-4.78a.589.589,0,0,0-.906-.658L15.636,5.482a.589.589,0,0,1-.906-.294" transform="translate(0 0)" fill="#cff878"/>
        </g>
      </g>
      <g id="Grupo_1192518" data-name="Grupo 1192518" transform="translate(182.544 961.833)">
        <path id="Trazado_1005074" data-name="Trazado 1005074" d="M265.972,243.609a2.094,2.094,0,0,0,1.51-.637l3.558-3.647a2.109,2.109,0,0,0-3.02-2.945l-2.087,2.14-.366-.355a2.109,2.109,0,1,0-2.941,3.024l1.876,1.824A2.1,2.1,0,0,0,265.972,243.609Zm-2.413-4.455a.75.75,0,0,1,1.059-.015l.852.829a.68.68,0,0,0,.961-.013l2.561-2.626a.749.749,0,0,1,1.073,1.046l-3.558,3.647a.753.753,0,0,1-1.059.014l-1.876-1.824A.75.75,0,0,1,263.559,239.154Z" transform="translate(-238.279 -214.41)" fill="#5c3b66"/>
        <path id="Trazado_1005075" data-name="Trazado 1005075" d="M219.08,193.558a.68.68,0,0,0-1.086.819,8.966,8.966,0,0,0,.814.935,8.847,8.847,0,1,0-2.173-3.561.68.68,0,0,0,1.3-.414,7.5,7.5,0,1,1,1.84,3.013A7.614,7.614,0,0,1,219.08,193.558Z" transform="translate(-196.645 -163.896)" fill="#5c3b66"/>
        <path id="Trazado_1005076" data-name="Trazado 1005076" d="M45.4,37.581l-4.291-4.29a.68.68,0,0,0-.962,0l-.026.026-1.651-1.651a11.948,11.948,0,0,0,1.9-5.752.68.68,0,0,0-1.358-.086,10.6,10.6,0,0,1-10.577,9.931H28.37a10.6,10.6,0,1,1,10.5-12.483.68.68,0,0,0,1.339-.24,11.976,11.976,0,0,0-6.163-8.447V9.107a.688.688,0,0,0-.2-.481L25.414.2a.689.689,0,0,0-.481-.2H2.039A2.043,2.043,0,0,0,0,2.04V7.756a.68.68,0,0,0,1.36,0V2.04a.681.681,0,0,1,.68-.68H24.253V7.747a2.043,2.043,0,0,0,2.04,2.04h6.388v4.185a12.018,12.018,0,0,0-4.128-.776l-.02,0H13.348a.68.68,0,1,0,0,1.36h9.523A11.921,11.921,0,0,0,20.158,16.5h-6.81a.68.68,0,1,0,0,1.36h5.586A11.838,11.838,0,0,0,16.7,22.725H13.348a.68.68,0,1,0,0,1.36H16.5q-.047.532-.048,1.072,0,.443.032.881H13.348a.68.68,0,1,0,0,1.36h3.316a11.837,11.837,0,0,0,2.272,5.056H13.348a.68.68,0,1,0,0,1.36H20.16a11.92,11.92,0,0,0,2.709,1.945H13.348a.68.68,0,1,0,0,1.36H28.424a12.026,12.026,0,0,0,4.257-.778V44.3a.681.681,0,0,1-.68.68H2.039a.681.681,0,0,1-.68-.68V10.477a.68.68,0,0,0-1.36,0V44.3a2.043,2.043,0,0,0,2.041,2.04H32a2.043,2.043,0,0,0,2.04-2.04v-8.57q.455-.242.893-.525l1.651,1.651a.686.686,0,0,0-.026.988l4.291,4.291A3.216,3.216,0,0,0,45.4,37.581ZM26.293,8.427a.681.681,0,0,1-.68-.68V2.322l6.106,6.105Zm9.75,25.958q.435-.36.844-.766t.766-.843l1.5,1.5-1.61,1.61Zm8.393,6.782a1.865,1.865,0,0,1-2.624,0L38,37.357l2.625-2.624,3.81,3.81A1.864,1.864,0,0,1,44.436,41.167Z" fill="#5c3b66"/>
        <path id="Trazado_1005077" data-name="Trazado 1005077" d="M52.914,144.327H55.89a1.523,1.523,0,0,0,1.521-1.521v-2.975a1.523,1.523,0,0,0-1.521-1.521H52.914a1.523,1.523,0,0,0-1.521,1.521v2.975a1.523,1.523,0,0,0,1.521,1.521Zm-.161-4.5a.161.161,0,0,1,.161-.161H55.89a.161.161,0,0,1,.161.161v2.975a.161.161,0,0,1-.161.161H52.914a.161.161,0,0,1-.161-.161Z" transform="translate(-46.743 -125.793)" fill="#5c3b66"/>
        <path id="Trazado_1005078" data-name="Trazado 1005078" d="M51.393,248.174a1.523,1.523,0,0,0,1.521,1.521H55.89a1.523,1.523,0,0,0,1.521-1.521V245.2a1.523,1.523,0,0,0-1.521-1.521H52.914a1.523,1.523,0,0,0-1.521,1.521Zm1.36-2.975a.161.161,0,0,1,.161-.161H55.89a.161.161,0,0,1,.161.161v2.975a.161.161,0,0,1-.161.161H52.914a.161.161,0,0,1-.161-.161Z" transform="translate(-46.743 -221.626)" fill="#5c3b66"/>
        <path id="Trazado_1005079" data-name="Trazado 1005079" d="M51.393,355.681a1.523,1.523,0,0,0,1.521,1.521H55.89a1.523,1.523,0,0,0,1.521-1.521v-2.975a1.523,1.523,0,0,0-1.521-1.521H52.914a1.523,1.523,0,0,0-1.521,1.521Zm1.36-2.975a.161.161,0,0,1,.161-.161H55.89a.161.161,0,0,1,.161.161v2.975a.161.161,0,0,1-.161.161H52.914a.161.161,0,0,1-.161-.161Z" transform="translate(-46.743 -319.403)" fill="#5c3b66"/>
      </g>
    </g>
  </g>
</svg>
