<svg xmlns="http://www.w3.org/2000/svg" width="50" height="50" viewBox="0 0 50 50">
  <g id="Grupo_1192442" data-name="Grupo 1192442" transform="translate(-186.371 -819)">
    <circle id="Elipse_6022" data-name="Elipse 6022" cx="25" cy="25" r="25" transform="translate(186.371 819)" fill="#e795ff"/>
    <path id="book-solid-full" d="M112.509,86.012H100.127A4.128,4.128,0,0,1,96,81.885V68.127A4.128,4.128,0,0,1,100.127,64H113.2a2.064,2.064,0,0,1,2.064,2.064V78.445a2.069,2.069,0,0,1-1.376,1.948v2.868a1.376,1.376,0,0,1,0,2.752Zm-12.382-5.5a1.376,1.376,0,1,0,0,2.752h11.006V80.509Zm1.376-9.974a1.029,1.029,0,0,0,1.032,1.032H110.1a1.032,1.032,0,0,0,0-2.064h-7.567A1.029,1.029,0,0,0,101.5,70.535Zm1.032,3.1a1.032,1.032,0,1,0,0,2.064H110.1a1.032,1.032,0,0,0,0-2.064Z" transform="translate(103.717 769)" fill="#5c3b66"/>
  </g>
</svg>
