<svg xmlns="http://www.w3.org/2000/svg" width="15.5" height="14.691" viewBox="0 0 15.5 14.691">
  <path id="book-open-solid-full" d="M71.75,99.309v9.364l.015-.006a13.593,13.593,0,0,1,5.216-1.041h.581V97.938h-.581a9.724,9.724,0,0,0-3.727.745Zm-.76-2.416.76.318.76-.318A11.625,11.625,0,0,1,76.981,96h1.066A1.453,1.453,0,0,1,79.5,97.453v10.656a1.453,1.453,0,0,1-1.453,1.453H76.981a11.625,11.625,0,0,0-4.471.893l-.388.16a.963.963,0,0,1-.745,0l-.388-.16a11.625,11.625,0,0,0-4.471-.893H65.453A1.453,1.453,0,0,1,64,108.109V97.453A1.453,1.453,0,0,1,65.453,96h1.066A11.625,11.625,0,0,1,70.99,96.893Z" transform="translate(-64 -96)" fill="#cff878"/>
</svg>
