<svg xmlns="http://www.w3.org/2000/svg" width="150" height="150" viewBox="0 0 150 150">
  <g id="Grupo_1177379" data-name="Grupo 1177379" transform="translate(-72.746 -7992)">
    <g id="Elipse_13628" data-name="Elipse 13628" transform="translate(72.746 7992)" fill="#fff7e2" stroke="#cff878" stroke-width="6">
      <circle cx="75" cy="75" r="75" stroke="none"/>
      <circle cx="75" cy="75" r="72" fill="none"/>
    </g>
    <g id="Grupo_1192706" data-name="Grupo 1192706" transform="translate(79.665 8025.796)">
      <g id="Grupo_1192704" data-name="Grupo 1192704" transform="translate(33.143 1.207)">
        <g id="Grupo_1192700" data-name="Grupo 1192700" transform="translate(43.236 15.419)">
          <g id="Grupo_1192699" data-name="Grupo 1192699">
            <path id="Trazado_1005489" data-name="Trazado 1005489" d="M328.869,103.3h-15.52a5.67,5.67,0,0,0-5.287,3.622,24.563,24.563,0,0,1,13.577,16.218h11.21a1.69,1.69,0,0,0,1.69-1.69v-12.48a5.67,5.67,0,0,0-5.67-5.67Z" transform="translate(-308.062 -103.297)" fill="#99e6fc"/>
            <path id="Trazado_1005490" data-name="Trazado 1005490" d="M390.529,103.3h-.246v13.418a1.69,1.69,0,0,1-1.69,1.69H381.55a24.239,24.239,0,0,1,1.749,4.733h11.21a1.69,1.69,0,0,0,1.69-1.69v-12.48a5.67,5.67,0,0,0-5.67-5.67Z" transform="translate(-369.722 -103.297)" fill="#62dbfb"/>
          </g>
        </g>
        <g id="Grupo_1192701" data-name="Grupo 1192701" transform="translate(48.574)">
          <circle id="Elipse_13792" data-name="Elipse 13792" cx="7.71" cy="7.71" r="7.71" fill="#ffdfcf"/>
        </g>
        <path id="Trazado_1005491" data-name="Trazado 1005491" d="M360.786,7.812a7.707,7.707,0,0,1-5.6,13,7.761,7.761,0,0,1-.87-.05,7.708,7.708,0,1,0,6.472-12.952Z" transform="translate(-303.633 -7.762)" fill="#ffcebf"/>
        <path id="Trazado_1005492" data-name="Trazado 1005492" d="M145.462,141.317l-4.043-4.163a1.029,1.029,0,0,1-.291-.718v-.717a24.662,24.662,0,0,0-28.8-24.259,14.653,14.653,0,0,1-.946,10.03l-.166.347.364-.126a14.839,14.839,0,1,1-8.5,7.546l.169-.347-.365.124a14.661,14.661,0,0,1-10.053-.246,24.607,24.607,0,0,0,7.4,25.431,1.926,1.926,0,0,1,.663,1.447v16.85a1.911,1.911,0,0,0,1.911,1.911h22.576a1.911,1.911,0,0,0,1.911-1.911v-7.267a3.993,3.993,0,0,1,4-3.991h4.931a4.908,4.908,0,0,0,4.91-4.9v-9.746a1.03,1.03,0,0,1,.538-.9l3.409-1.851A1.609,1.609,0,0,0,145.462,141.317Z" transform="translate(-83.4 -94.434)" fill="#ffb09e"/>
        <path id="Trazado_1005493" data-name="Trazado 1005493" d="M192.69,164.85l-4.043-4.163a1.029,1.029,0,0,1-.291-.718v-.717a24.567,24.567,0,0,0-10.416-20.094,24.469,24.469,0,0,1,4.5,14.178v20.635a4.907,4.907,0,0,1-4.91,4.9A8.926,8.926,0,0,0,168.6,187.8v2.332a1.911,1.911,0,0,1-1.911,1.911H148.121v4a1.911,1.911,0,0,0,1.911,1.911h22.576a1.911,1.911,0,0,0,1.911-1.911v-7.267a3.993,3.993,0,0,1,4-3.991h4.931a4.907,4.907,0,0,0,4.91-4.9v-9.746a1.03,1.03,0,0,1,.538-.9l3.409-1.851a1.609,1.609,0,0,0,.386-2.535Z" transform="translate(-130.628 -117.967)" fill="#f89580"/>
        <path id="Trazado_1005494" data-name="Trazado 1005494" d="M67.458,65.936a14.769,14.769,0,1,0-8.266,7.338,14.927,14.927,0,0,1,8.266-7.338Z" transform="translate(-39.437 -38.599)" fill="#fe4fb7"/>
        <path id="Trazado_1005495" data-name="Trazado 1005495" d="M90.59,69.458a14.792,14.792,0,0,0-8.807-20.7A14.787,14.787,0,0,1,67.007,73.429,14.8,14.8,0,0,0,82.325,76.8a14.926,14.926,0,0,1,8.266-7.338Z" transform="translate(-62.57 -42.122)" fill="#fe2aa8"/>
        <g id="Grupo_1192702" data-name="Grupo 1192702" transform="translate(6.63 15.544)">
          <path id="Trazado_1005496" data-name="Trazado 1005496" d="M86.855,105.142l1.925,1.925,1.925-1.925a3.649,3.649,0,1,1,5.16,5.16l-6.317,6.317a1.087,1.087,0,0,1-1.538,0L81.695,110.3a3.649,3.649,0,1,1,5.16-5.16Z" transform="translate(-80.626 -104.073)" fill="#fff"/>
        </g>
        <g id="Grupo_1192703" data-name="Grupo 1192703" transform="translate(12.417 15.547)">
          <path id="Trazado_1005497" data-name="Trazado 1005497" d="M126.037,105.156a3.643,3.643,0,0,0-3.366-.98,3.646,3.646,0,0,1-.183,4.957l-5.9,5.9,1.6,1.6a1.087,1.087,0,0,0,1.538,0l6.317-6.317A3.649,3.649,0,0,0,126.037,105.156Z" transform="translate(-116.585 -104.09)" fill="#f3f0f3"/>
        </g>
        <circle id="Elipse_13793" data-name="Elipse 13793" cx="15.006" cy="15.006" r="15.006" transform="translate(18.026 26.305)" fill="#ffe177"/>
        <path id="Trazado_1005498" data-name="Trazado 1005498" d="M203.336,172.213a15.008,15.008,0,0,1-10.893,27.232,15.007,15.007,0,1,0,10.893-27.232Z" transform="translate(-167.816 -145.702)" fill="#ffd15b"/>
      </g>
      <g id="Grupo_1192705" data-name="Grupo 1192705" transform="translate(31.936 0)">
        <path id="Trazado_1005499" data-name="Trazado 1005499" d="M102.857,25.718a1.207,1.207,0,0,0,1.207-1.207V22.3a6.885,6.885,0,0,0-6.877-6.877H95.518a8.917,8.917,0,1,0-12.184,0H81.666A6.862,6.862,0,0,0,75.9,18.553a25.748,25.748,0,0,0-9.674-1.877,26.134,26.134,0,0,0-3.137.19A15.993,15.993,0,0,0,34.87,12.722a1.207,1.207,0,0,0,1.97,1.4A13.577,13.577,0,0,1,61.5,21.956a13.449,13.449,0,0,1-1.127,5.421,16.307,16.307,0,0,0-8.542,7.584A13.585,13.585,0,0,1,34.652,19.1a1.207,1.207,0,0,0-2.361-.505,16,16,0,0,0,8.8,17.817A25.808,25.808,0,0,0,49.177,61.9a.721.721,0,0,1,.252.539V66.4a1.207,1.207,0,0,0,2.414,0V62.44a3.135,3.135,0,0,0-1.075-2.355,23.383,23.383,0,0,1-7.4-22.8,16,16,0,0,0,7.32.422A16.207,16.207,0,1,0,63.241,26.571a16.063,16.063,0,0,0,.443-7.342,23.685,23.685,0,0,1,2.54-.138,23.447,23.447,0,0,1,23.44,23.4v.717a2.226,2.226,0,0,0,.632,1.559l4.043,4.163a.4.4,0,0,1-.1.634l-3.409,1.851a2.235,2.235,0,0,0-1.17,1.966v9.746a3.7,3.7,0,0,1-3.7,3.7H81.03a5.206,5.206,0,0,0-5.2,5.2V79.29a.7.7,0,0,1-.7.7H52.547a.7.7,0,0,1-.7-.7V72.316a1.207,1.207,0,0,0-2.414,0V79.29a3.122,3.122,0,0,0,3.118,3.118H75.124a3.122,3.122,0,0,0,3.118-3.118V72.023A2.789,2.789,0,0,1,81.03,69.24h4.931a6.122,6.122,0,0,0,6.117-6.112v-9.64l3.316-1.8a2.816,2.816,0,0,0,.677-4.437l-3.993-4.112v-.645a25.815,25.815,0,0,0-.454-4.819h9.542a2.9,2.9,0,0,0,2.9-2.9v-4.35a1.207,1.207,0,1,0-2.414,0v4.35a.484.484,0,0,1-.483.483H91.044A25.946,25.946,0,0,0,78.128,19.581a4.45,4.45,0,0,1,3.538-1.748h15.52A4.468,4.468,0,0,1,101.65,22.3v2.215a1.207,1.207,0,0,0,1.207,1.207Zm-36.682,3a13.8,13.8,0,1,1-13.8,13.8,13.814,13.814,0,0,1,13.8-13.8Zm23.258-13.3H89.42a6.5,6.5,0,1,1,.012,0Z" transform="translate(-31.936 0)"/>
        <path id="Trazado_1005500" data-name="Trazado 1005500" d="M209.723,228.216a1.207,1.207,0,0,0,1.207-1.207V225.59a1.207,1.207,0,1,0-2.414,0v1.418A1.207,1.207,0,0,0,209.723,228.216Z" transform="translate(-180.095 -188.268)"/>
        <path id="Trazado_1005501" data-name="Trazado 1005501" d="M267.011,228.216a1.207,1.207,0,0,0,1.207-1.207V225.59a1.207,1.207,0,1,0-2.414,0v1.418A1.207,1.207,0,0,0,267.011,228.216Z" transform="translate(-228.162 -188.268)"/>
        <path id="Trazado_1005502" data-name="Trazado 1005502" d="M211.623,271.437a1.207,1.207,0,0,0-1.084,1.319,5.514,5.514,0,0,0,10.974,0,1.207,1.207,0,0,0-2.4-.235,3.1,3.1,0,0,1-6.168,0A1.206,1.206,0,0,0,211.623,271.437Z" transform="translate(-181.787 -227.743)"/>
        <path id="Trazado_1005503" data-name="Trazado 1005503" d="M74.559,98.007a4.862,4.862,0,0,0,0,6.868l6.317,6.317a2.3,2.3,0,0,0,3.245,0l6.317-6.317a4.856,4.856,0,1,0-6.867-6.868L82.5,99.078l-1.071-1.071h0A4.862,4.862,0,0,0,74.559,98.007Zm7.086,3.632a1.207,1.207,0,0,0,1.707,0l1.925-1.925a2.442,2.442,0,0,1,3.453,3.453L82.5,109.4l-6.232-6.232a2.442,2.442,0,0,1,3.453-3.453Z" transform="translate(-66.507 -81.041)"/>
      </g>
    </g>
  </g>
</svg>
