<svg xmlns="http://www.w3.org/2000/svg" width="150" height="150" viewBox="0 0 150 150">
  <g id="Grupo_1177380" data-name="Grupo 1177380" transform="translate(-72.746 -7992)">
    <g id="Elipse_13628" data-name="Elipse 13628" transform="translate(72.746 7992)" fill="#fff7e2" stroke="#cff878" stroke-width="6">
      <circle cx="75" cy="75" r="75" stroke="none"/>
      <circle cx="75" cy="75" r="72" fill="none"/>
    </g>
    <g id="Grupo_1192710" data-name="Grupo 1192710" transform="translate(109.314 8017.239)">
      <g id="Grupo_1192709" data-name="Grupo 1192709" transform="translate(1.201 14.532)">
        <g id="Grupo_1192707" data-name="Grupo 1192707" transform="translate(0 0)">
          <path id="Trazado_1005504" data-name="Trazado 1005504" d="M57.26,21.334h46.673a5.891,5.891,0,0,1,5.874,5.874V85.918a5.891,5.891,0,0,1-5.874,5.874H57.26a5.891,5.891,0,0,1-5.874-5.874V27.208a5.891,5.891,0,0,1,5.874-5.874Z" transform="translate(-44.873 -21.334)" fill="#eceff1" fill-rule="evenodd"/>
          <path id="Trazado_1005505" data-name="Trazado 1005505" d="M109.144,24.679a5.894,5.894,0,0,1,3.5,5.372V88.761a5.891,5.891,0,0,1-5.874,5.874H60.1a5.894,5.894,0,0,1-5.372-3.5,5.819,5.819,0,0,0,2.369.5h46.673a5.891,5.891,0,0,0,5.874-5.874V27.048a5.818,5.818,0,0,0-.5-2.369Z" transform="translate(-47.716 -24.177)" fill="#d1d1d6" fill-rule="evenodd"/>
          <path id="Trazado_1005506" data-name="Trazado 1005506" d="M57.259,21.334h5.208V91.792H57.259a5.891,5.891,0,0,1-5.874-5.874V27.208a5.891,5.891,0,0,1,5.874-5.874Z" transform="translate(-44.872 -21.334)" fill="#ecba78" fill-rule="evenodd"/>
          <path id="Trazado_1005507" data-name="Trazado 1005507" d="M62.466,437.413v3H57.259a5.891,5.891,0,0,1-5.874-5.874v-3a5.891,5.891,0,0,0,5.874,5.874Z" transform="translate(-44.872 -369.957)" fill="#e3a76f" fill-rule="evenodd"/>
          <path id="Trazado_1005508" data-name="Trazado 1005508" d="M10,103.087h7.562a2.01,2.01,0,0,1,2,2v2.227a2.01,2.01,0,0,1-2,2H10a2.01,2.01,0,0,1-2-2v-2.227A2.01,2.01,0,0,1,10,103.087Zm0,29.393h7.562a2.01,2.01,0,0,1,2,2v2.227a2.01,2.01,0,0,1-2,2H10a2.01,2.01,0,0,1-2-2v-2.227A2.01,2.01,0,0,1,10,132.48Zm0-44.09h7.562a2.01,2.01,0,0,1,2,2v2.227a2.01,2.01,0,0,1-2,2H10a2.01,2.01,0,0,1-2-2V90.394A2.01,2.01,0,0,1,10,88.39Zm0,29.393h7.562a2.01,2.01,0,0,1,2,2v2.227a2.01,2.01,0,0,1-2,2H10a2.01,2.01,0,0,1-2-2v-2.227A2.01,2.01,0,0,1,10,117.783Z" transform="translate(-8 -78.323)" fill="#a79ba7" fill-rule="evenodd"/>
          <path id="Trazado_1005509" data-name="Trazado 1005509" d="M18.31,103.43a2.012,2.012,0,0,1,1.553,1.953v2.227a2.01,2.01,0,0,1-2,2H10.3a2.012,2.012,0,0,1-1.953-1.553,1.989,1.989,0,0,0,.451.051h7.562a2.01,2.01,0,0,0,2-2v-2.227A2,2,0,0,0,18.31,103.43Zm0,29.393a2.012,2.012,0,0,1,1.553,1.953V137a2.01,2.01,0,0,1-2,2H10.3a2.012,2.012,0,0,1-1.953-1.553,1.989,1.989,0,0,0,.451.051h7.562a2.01,2.01,0,0,0,2-2v-2.227A2,2,0,0,0,18.31,132.823Zm0-44.09a2.012,2.012,0,0,1,1.553,1.953v2.227a2.01,2.01,0,0,1-2,2H10.3a2.012,2.012,0,0,1-1.953-1.553,1.989,1.989,0,0,0,.451.051h7.562a2.01,2.01,0,0,0,2-2V89.184A2,2,0,0,0,18.31,88.733Zm0,29.393a2.012,2.012,0,0,1,1.553,1.953v2.227a2.01,2.01,0,0,1-2,2H10.3a2.012,2.012,0,0,1-1.953-1.553,1.989,1.989,0,0,0,.451.051h7.562a2.01,2.01,0,0,0,2-2v-2.227A2,2,0,0,0,18.31,118.126Z" transform="translate(-8.292 -78.615)" fill="#837683" fill-rule="evenodd"/>
          <path id="Trazado_1005510" data-name="Trazado 1005510" d="M211.656,122.113H184.748a1.5,1.5,0,0,0-1.5,1.5v6.45a1.5,1.5,0,0,0,1.5,1.5h26.908a1.5,1.5,0,0,0,1.5-1.5v-6.45A1.5,1.5,0,0,0,211.656,122.113Z" transform="translate(-156.938 -106.984)" fill="#8ac9fe" fill-rule="evenodd"/>
          <path id="Trazado_1005511" data-name="Trazado 1005511" d="M184.748,122.113a1.5,1.5,0,0,0-1.5,1.5v6.45a1.5,1.5,0,0,0,1.5,1.5h26.908a1.5,1.5,0,0,0,1.5-1.5H186.249a1.5,1.5,0,0,1-1.5-1.5Z" transform="translate(-156.938 -106.984)" fill="#60b7ff" fill-rule="evenodd"/>
        </g>
        <g id="Grupo_1192708" data-name="Grupo 1192708" transform="translate(29.655 11.711)">
          <path id="Trazado_1005512" data-name="Trazado 1005512" d="M207.95,133.891l33.2-33.2a4.63,4.63,0,0,1,6.535,0L248.992,102a4.63,4.63,0,0,1,0,6.535l-33.2,33.2-8.866,2.376a1.1,1.1,0,0,1-1.352-1.352Z" transform="translate(-205.535 -99.342)" fill="#ffe177" fill-rule="evenodd"/>
          <path id="Trazado_1005513" data-name="Trazado 1005513" d="M270.305,123.4a4.634,4.634,0,0,1-.733,5.581l-33.2,33.2-6.622,1.774Z" transform="translate(-226.115 -119.788)" fill="#ffd064" fill-rule="evenodd"/>
          <path id="Trazado_1005514" data-name="Trazado 1005514" d="M205.574,338.345l2.376-8.866,7.842,7.842-8.866,2.376a1.1,1.1,0,0,1-1.352-1.352Z" transform="translate(-205.534 -294.93)" fill="#685e68" fill-rule="evenodd"/>
        </g>
      </g>
      <path id="Trazado_1005515" data-name="Trazado 1005515" d="M73.467,34.556,41.224,66.8,35.1,60.682,67.349,28.437a3.41,3.41,0,0,1,4.816,0l1.3,1.3a3.413,3.413,0,0,1,0,4.816ZM34.028,63l-1.785,6.659,6.66-1.783ZM54.477,37.913,56.22,36.17V31.162a.305.305,0,0,0-.3-.3H29.012a.3.3,0,0,0-.3.3v6.451a.3.3,0,0,0,.3.3Zm10.457,41.2V46.488L42.072,69.347a1.187,1.187,0,0,1-.537.311L30.856,72.519a1.162,1.162,0,0,1-.311.042,1.2,1.2,0,0,1-1.161-1.512l2.862-10.68a1.2,1.2,0,0,1,.311-.537L52.075,40.315H29.012a2.705,2.705,0,0,1-2.7-2.7V31.162a2.705,2.705,0,0,1,2.7-2.7H55.919a2.706,2.706,0,0,1,2.7,2.7v2.606l6.312-6.313v-7.05a4.679,4.679,0,0,0-4.672-4.673H20V83.789H60.262a4.679,4.679,0,0,0,4.672-4.673Zm-56.018,0V76.124h1.851a3.208,3.208,0,0,0,3.205-3.205V70.692a3.208,3.208,0,0,0-3.205-3.205H8.916V61.427h1.851a3.208,3.208,0,0,0,3.205-3.205V56a3.208,3.208,0,0,0-3.205-3.205H8.916V46.731h1.851a3.209,3.209,0,0,0,3.205-3.205V41.3a3.207,3.207,0,0,0-3.205-3.2H8.916V32.034h1.851a3.208,3.208,0,0,0,3.205-3.205V26.6A3.208,3.208,0,0,0,10.767,23.4H8.916V20.405a4.678,4.678,0,0,1,4.672-4.673h4.007V83.789H13.587a4.678,4.678,0,0,1-4.672-4.673ZM2.4,72.919a.814.814,0,0,0,.8.8h7.562a.814.814,0,0,0,.8-.8V70.692a.814.814,0,0,0-.8-.8H3.205a.814.814,0,0,0-.8.8Zm0-14.7a.814.814,0,0,0,.8.8h7.562a.814.814,0,0,0,.8-.8V56a.814.814,0,0,0-.8-.8H3.205a.814.814,0,0,0-.8.8Zm0-14.7a.814.814,0,0,0,.8.8h7.562a.814.814,0,0,0,.8-.8V41.3a.814.814,0,0,0-.8-.8H3.205a.814.814,0,0,0-.8.8Zm0-14.7a.814.814,0,0,0,.8.8h7.562a.814.814,0,0,0,.8-.8V26.6a.814.814,0,0,0-.8-.8H3.205a.814.814,0,0,0-.8.8Zm74.461,3.319a5.766,5.766,0,0,0-1.7-4.106l-1.3-1.3a5.826,5.826,0,0,0-6.528-1.172V20.405a7.083,7.083,0,0,0-7.074-7.075H13.587a7.082,7.082,0,0,0-7.074,7.075V23.4H3.205A3.209,3.209,0,0,0,0,26.6v2.226a3.209,3.209,0,0,0,3.205,3.205H6.514v6.061H3.205A3.208,3.208,0,0,0,0,41.3v2.226A3.209,3.209,0,0,0,3.2,46.731H6.513V52.79H3.205A3.209,3.209,0,0,0,0,56v2.226A3.208,3.208,0,0,0,3.2,61.426H6.513v6.061H3.205A3.21,3.21,0,0,0,0,70.692v2.226a3.209,3.209,0,0,0,3.205,3.205H6.514v2.992a7.083,7.083,0,0,0,7.074,7.075H60.262a7.083,7.083,0,0,0,7.074-7.075V44.086l7.83-7.832a5.765,5.765,0,0,0,1.7-4.106Z" fill-rule="evenodd"/>
    </g>
  </g>
</svg>
