<svg xmlns="http://www.w3.org/2000/svg" width="400" height="1300" viewBox="0 0 400 1300">
  <g id="Grupo_1193046" data-name="Grupo 1193046" transform="translate(5996 9379)">
    <rect id="Rectángulo_455579" data-name="Rectángulo 455579" width="400" height="1300" rx="10" transform="translate(-5996 -9379)" fill="#f9fbff"/>
    <rect id="Rectángulo_455580" data-name="Rectángulo 455580" width="228" height="60" rx="9" transform="translate(-5910 -9298)" fill="#cff878"/>
    <rect id="Rectángulo_455641" data-name="Rectángulo 455641" width="240" height="60" rx="9" transform="translate(-5883 -9141)" fill="#e795ff"/>
    <rect id="Rectángulo_455644" data-name="Rectángulo 455644" width="240" height="190" rx="9" transform="translate(-5883 -9054)" fill="#f8dfff"/>
    <rect id="Rectángulo_455646" data-name="Rectángulo 455646" width="240" height="190" rx="9" transform="translate(-5883 -8306)" fill="#f8dfff"/>
    <rect id="Rectángulo_455645" data-name="Rectángulo 455645" width="240" height="190" rx="9" transform="translate(-5883 -8680)" fill="#f8dfff"/>
    <rect id="Rectángulo_455642" data-name="Rectángulo 455642" width="240" height="60" rx="9" transform="translate(-5883 -8767)" fill="#e795ff"/>
    <path id="Trazado_1007389" data-name="Trazado 1007389" d="M-95.37-9.633v2.268h3.744v2.971H-95.37V0h-3.8V-12.6h7.9v2.971ZM-84.041,0V-1.389h-.035a4.926,4.926,0,0,1-.839.94,3.23,3.23,0,0,1-.844.483A2.983,2.983,0,0,1-86.854.22,2.722,2.722,0,0,1-89.1-.738a4.429,4.429,0,0,1-.773-2.83V-9h3.744v5.15q0,1.327.993,1.327a.972.972,0,0,0,.822-.36,1.642,1.642,0,0,0,.277-1.02V-9H-80.3V0Zm11.373,0V-4.913a2.184,2.184,0,0,0-.25-1.2.915.915,0,0,0-.813-.365.88.88,0,0,0-.756.378,1.613,1.613,0,0,0-.272.967V0H-78.5V-9h3.744v1.406h.035a3.177,3.177,0,0,1,1.2-1.2,3.29,3.29,0,0,1,1.644-.426q2.953,0,2.953,3.727V0Zm12.85-.255a3.529,3.529,0,0,1-1.134.343A10.719,10.719,0,0,1-62.736.22a5.488,5.488,0,0,1-2.544-.576,4.2,4.2,0,0,1-1.736-1.613A4.478,4.478,0,0,1-67.632-4.3a5.1,5.1,0,0,1,.655-2.65,4.268,4.268,0,0,1,1.868-1.687A6.407,6.407,0,0,1-62.3-9.22a9.839,9.839,0,0,1,1.578.114,2.411,2.411,0,0,1,.9.264v2.918a2.6,2.6,0,0,0-.809-.387,3.248,3.248,0,0,0-.976-.167,2.375,2.375,0,0,0-1.666.523,1.9,1.9,0,0,0-.567,1.472,1.868,1.868,0,0,0,.558,1.446,2.177,2.177,0,0,0,1.534.514,3.82,3.82,0,0,0,1.925-.5Zm5.458-11.171a1.608,1.608,0,0,1-.576,1.283,2.252,2.252,0,0,1-1.516.492,2.2,2.2,0,0,1-1.5-.51,1.612,1.612,0,0,1-.584-1.266,1.561,1.561,0,0,1,.567-1.252,2.272,2.272,0,0,1,1.516-.479,2.293,2.293,0,0,1,1.516.479A1.551,1.551,0,0,1-54.36-11.426ZM-58.324,0V-9h3.744V0Zm15.557-4.658a4.687,4.687,0,0,1-1.375,3.577A5.375,5.375,0,0,1-47.988.22a5.4,5.4,0,0,1-3.819-1.27,4.546,4.546,0,0,1-1.367-3.5,4.692,4.692,0,0,1,.642-2.487A4.172,4.172,0,0,1-50.7-8.657a6.311,6.311,0,0,1,2.733-.562,6.113,6.113,0,0,1,2.773.589A4.286,4.286,0,0,1-43.4-7,4.452,4.452,0,0,1-42.768-4.658Zm-3.8.018q0-1.837-1.406-1.837t-1.406,1.925q0,2.03,1.424,2.03Q-46.564-2.522-46.564-4.641ZM-35.534,0V-4.913a2.184,2.184,0,0,0-.25-1.2.915.915,0,0,0-.813-.365.88.88,0,0,0-.756.378,1.613,1.613,0,0,0-.272.967V0H-41.37V-9h3.744v1.406h.035a3.177,3.177,0,0,1,1.2-1.2,3.29,3.29,0,0,1,1.644-.426q2.953,0,2.953,3.727V0Zm8.657-3.437a1.265,1.265,0,0,0,.668.91A3.012,3.012,0,0,0-24.7-2.2a6.226,6.226,0,0,0,2.479-.5V-.325a8.908,8.908,0,0,1-3.3.545,5.214,5.214,0,0,1-3.665-1.2A4.277,4.277,0,0,1-30.5-4.3a5.467,5.467,0,0,1,.576-2.558,4.142,4.142,0,0,1,1.705-1.736,5.038,5.038,0,0,1,2.492-.628,4.9,4.9,0,0,1,2.391.545,3.63,3.63,0,0,1,1.507,1.529,4.906,4.906,0,0,1,.514,2.3v1.406Zm2.25-1.96q0-1.556-1.116-1.556a.944.944,0,0,0-.782.426A2.127,2.127,0,0,0-26.895-5.4Zm11.918,2.408A2.749,2.749,0,0,1-13.874-.62,5.474,5.474,0,0,1-17.121.22,11.291,11.291,0,0,1-18.62.1a9.257,9.257,0,0,1-1.455-.3V-2.83a7.162,7.162,0,0,0,2.777.738q1.1,0,1.1-.571a.451.451,0,0,0-.255-.391,9.009,9.009,0,0,0-1.336-.514,3.773,3.773,0,0,1-1.74-1A2.382,2.382,0,0,1-20.074-6.2a2.594,2.594,0,0,1,1.112-2.21,5.216,5.216,0,0,1,3.125-.813,9.931,9.931,0,0,1,2.5.343v2.522a7.549,7.549,0,0,0-1.213-.4,4.9,4.9,0,0,0-1.107-.158,1.205,1.205,0,0,0-.589.123.379.379,0,0,0-.22.343.478.478,0,0,0,.237.413,4.2,4.2,0,0,0,.949.378,4.4,4.4,0,0,1,1.978,1.037A2.272,2.272,0,0,1-12.709-2.988ZM-.316,0V-1.046H-.352a3.089,3.089,0,0,1-1.169.927A3.331,3.331,0,0,1-2.944.22a3.663,3.663,0,0,1-2.03-.567A3.443,3.443,0,0,1-6.289-1.934a6.106,6.106,0,0,1-.435-2.408,5.925,5.925,0,0,1,.519-2.54A4.059,4.059,0,0,1-4.746-8.6,3.769,3.769,0,0,1-2.637-9.22a3.193,3.193,0,0,1,1.024.158A2.77,2.77,0,0,1-.8-8.635,1.273,1.273,0,0,1-.352-8.1h.035v-5.221H3.428V0Zm.079-4.772A1.974,1.974,0,0,0-.593-6.029a1.164,1.164,0,0,0-.962-.448,1.155,1.155,0,0,0-.989.558,2.593,2.593,0,0,0-.382,1.49q0,1.907,1.318,1.907a1.173,1.173,0,0,0,1-.514,2.531,2.531,0,0,0,.374-1.5ZM8.455-3.437a1.265,1.265,0,0,0,.668.91,3.012,3.012,0,0,0,1.512.33,6.226,6.226,0,0,0,2.479-.5V-.325a8.908,8.908,0,0,1-3.3.545,5.214,5.214,0,0,1-3.665-1.2A4.277,4.277,0,0,1,4.834-4.3,5.467,5.467,0,0,1,5.41-6.855,4.142,4.142,0,0,1,7.115-8.591,5.038,5.038,0,0,1,9.606-9.22,4.9,4.9,0,0,1,12-8.675,3.63,3.63,0,0,1,13.5-7.146a4.906,4.906,0,0,1,.514,2.3v1.406Zm2.25-1.96q0-1.556-1.116-1.556a.944.944,0,0,0-.782.426A2.127,2.127,0,0,0,8.438-5.4ZM15.311,0V-13.324h3.744V0ZM25.857,0V-13.324H29.6V0Zm8.771-3.437a1.265,1.265,0,0,0,.668.91,3.012,3.012,0,0,0,1.512.33,6.226,6.226,0,0,0,2.479-.5V-.325a8.908,8.908,0,0,1-3.3.545,5.214,5.214,0,0,1-3.665-1.2A4.277,4.277,0,0,1,31.008-4.3a5.467,5.467,0,0,1,.576-2.558,4.142,4.142,0,0,1,1.705-1.736A5.038,5.038,0,0,1,35.78-9.22a4.9,4.9,0,0,1,2.391.545,3.63,3.63,0,0,1,1.507,1.529,4.906,4.906,0,0,1,.514,2.3v1.406Zm2.25-1.96q0-1.556-1.116-1.556a.944.944,0,0,0-.782.426A2.127,2.127,0,0,0,34.611-5.4ZM47.32,0V-4.913a2.184,2.184,0,0,0-.25-1.2.915.915,0,0,0-.813-.365A.88.88,0,0,0,45.5-6.1a1.613,1.613,0,0,0-.272.967V0H41.484V-9h3.744v1.406h.035a3.177,3.177,0,0,1,1.2-1.2,3.29,3.29,0,0,1,1.644-.426q2.953,0,2.953,3.727V0ZM62.508-1.257a5.116,5.116,0,0,1-1.63,4.039,6.962,6.962,0,0,1-4.759,1.446A9.93,9.93,0,0,1,54.483,4.1a4.5,4.5,0,0,1-1.134-.3V.861a5.022,5.022,0,0,0,1.318.563,5.072,5.072,0,0,0,1.345.211,3.122,3.122,0,0,0,2.013-.606A1.959,1.959,0,0,0,58.781-.58v-.554h-.035a2.909,2.909,0,0,1-1.112.984A3.23,3.23,0,0,1,56.118.22,3.4,3.4,0,0,1,53.367-.989a5.045,5.045,0,0,1-1.011-3.335A5.964,5.964,0,0,1,52.884-6.9a4.018,4.018,0,0,1,1.468-1.718,3.769,3.769,0,0,1,2.074-.6,2.6,2.6,0,0,1,2.32,1.151h.035V-9h3.727Zm-3.665-3.5a2.02,2.02,0,0,0-.356-1.257,1.13,1.13,0,0,0-.945-.466,1.163,1.163,0,0,0-1.011.563,2.656,2.656,0,0,0-.378,1.5,2.6,2.6,0,0,0,.316,1.38,1.092,1.092,0,0,0,1,.51,1.161,1.161,0,0,0,1.006-.523,2.408,2.408,0,0,0,.365-1.4ZM70.04,0V-1.389H70a4.926,4.926,0,0,1-.839.94,3.23,3.23,0,0,1-.844.483A2.983,2.983,0,0,1,67.228.22a2.722,2.722,0,0,1-2.25-.958,4.429,4.429,0,0,1-.773-2.83V-9h3.744v5.15q0,1.327.993,1.327a.972.972,0,0,0,.822-.36A1.642,1.642,0,0,0,70.04-3.9V-9h3.744V0ZM80.569,0V-1.371h-.035A2.944,2.944,0,0,1,77.792.22a2.625,2.625,0,0,1-2-.756,2.808,2.808,0,0,1-.721-2.021q0-2.654,3.261-3.076l2.232-.29a.851.851,0,0,0-.4-.721,1.8,1.8,0,0,0-1.063-.281,7,7,0,0,0-3.19.861V-8.5a8.535,8.535,0,0,1,1.828-.519,10.639,10.639,0,0,1,1.881-.2,4.722,4.722,0,0,1,3.327.98,4.368,4.368,0,0,1,1.033,3.274V0ZM78.354-3.059a.83.83,0,0,0,.233.606.888.888,0,0,0,.664.237,1.18,1.18,0,0,0,.954-.439,1.7,1.7,0,0,0,.365-1.125v-.343L79.3-3.946Q78.354-3.788,78.354-3.059ZM89.64-11.426a1.608,1.608,0,0,1-.576,1.283,2.252,2.252,0,0,1-1.516.492,2.2,2.2,0,0,1-1.5-.51,1.612,1.612,0,0,1-.584-1.266,1.561,1.561,0,0,1,.567-1.252,2.272,2.272,0,0,1,1.516-.479,2.293,2.293,0,0,1,1.516.479A1.551,1.551,0,0,1,89.64-11.426ZM89.42.088a4.982,4.982,0,0,1-.466,2.167,3.2,3.2,0,0,1-1.371,1.477,4.413,4.413,0,0,1-2.153.5,4.846,4.846,0,0,1-1.494-.264V1.222a1.883,1.883,0,0,0,.9.272.7.7,0,0,0,.655-.312,1.864,1.864,0,0,0,.189-.945V-9H89.42Zm5.027-3.524a1.265,1.265,0,0,0,.668.91,3.012,3.012,0,0,0,1.512.33,6.226,6.226,0,0,0,2.479-.5V-.325A8.908,8.908,0,0,1,95.8.22a5.214,5.214,0,0,1-3.665-1.2A4.277,4.277,0,0,1,90.826-4.3,5.467,5.467,0,0,1,91.4-6.855a4.142,4.142,0,0,1,1.705-1.736A5.038,5.038,0,0,1,95.6-9.22a4.9,4.9,0,0,1,2.391.545A3.63,3.63,0,0,1,99.5-7.146a4.906,4.906,0,0,1,.514,2.3v1.406ZM96.7-5.4q0-1.556-1.116-1.556a.944.944,0,0,0-.782.426A2.127,2.127,0,0,0,94.43-5.4Z" transform="translate(-5796 -9262)" fill="#12263f"/>
    <path id="Trazado_1007388" data-name="Trazado 1007388" d="M-88.778-8.446a4.1,4.1,0,0,1-.655,2.294A4.267,4.267,0,0,1-91.3-4.6a6.78,6.78,0,0,1-2.821.549h-1.16V0h-3.8V-12.6h5.168a6.119,6.119,0,0,1,3.9,1.011A3.83,3.83,0,0,1-88.778-8.446Zm-4.017.132a1.477,1.477,0,0,0-.448-1.169,1.937,1.937,0,0,0-1.318-.4h-.721v3.111h.853Q-92.795-6.768-92.795-8.314Zm8.4,4.878a1.265,1.265,0,0,0,.668.91,3.012,3.012,0,0,0,1.512.33,6.226,6.226,0,0,0,2.479-.5V-.325a8.908,8.908,0,0,1-3.3.545A5.214,5.214,0,0,1-86.7-.984,4.277,4.277,0,0,1-88.014-4.3a5.467,5.467,0,0,1,.576-2.558,4.142,4.142,0,0,1,1.705-1.736,5.038,5.038,0,0,1,2.492-.628,4.9,4.9,0,0,1,2.391.545,3.63,3.63,0,0,1,1.507,1.529,4.906,4.906,0,0,1,.514,2.3v1.406Zm2.25-1.96q0-1.556-1.116-1.556a.944.944,0,0,0-.782.426A2.127,2.127,0,0,0-84.41-5.4Zm11.373-.4a2.91,2.91,0,0,0-.571-.176,2.891,2.891,0,0,0-.6-.079q-1.854,0-1.854,2.145V0h-3.744V-9h3.744v1.582h.035a2.81,2.81,0,0,1,.976-1.3,2.506,2.506,0,0,1,1.477-.444,1.269,1.269,0,0,1,.536.105Zm8.394,2.8A2.749,2.749,0,0,1-63.541-.62,5.474,5.474,0,0,1-66.788.22,11.291,11.291,0,0,1-68.287.1a9.257,9.257,0,0,1-1.455-.3V-2.83a7.162,7.162,0,0,0,2.777.738q1.1,0,1.1-.571a.451.451,0,0,0-.255-.391,9.009,9.009,0,0,0-1.336-.514,3.773,3.773,0,0,1-1.74-1A2.382,2.382,0,0,1-69.741-6.2a2.594,2.594,0,0,1,1.112-2.21A5.216,5.216,0,0,1-65.5-9.22a9.931,9.931,0,0,1,2.5.343v2.522a7.549,7.549,0,0,0-1.213-.4,4.9,4.9,0,0,0-1.107-.158,1.205,1.205,0,0,0-.589.123.379.379,0,0,0-.22.343.478.478,0,0,0,.237.413,4.2,4.2,0,0,0,.949.378,4.4,4.4,0,0,1,1.978,1.037A2.272,2.272,0,0,1-62.376-2.988ZM-55.266,0V-1.389H-55.3a4.926,4.926,0,0,1-.839.94,3.23,3.23,0,0,1-.844.483A2.983,2.983,0,0,1-58.078.22a2.722,2.722,0,0,1-2.25-.958,4.429,4.429,0,0,1-.773-2.83V-9h3.744v5.15q0,1.327.993,1.327a.972.972,0,0,0,.822-.36,1.642,1.642,0,0,0,.277-1.02V-9h3.744V0Zm10.529,0V-1.371h-.035A2.944,2.944,0,0,1-47.514.22a2.625,2.625,0,0,1-2-.756,2.808,2.808,0,0,1-.721-2.021q0-2.654,3.261-3.076l2.232-.29a.851.851,0,0,0-.4-.721A1.8,1.8,0,0,0-46.2-6.926a7,7,0,0,0-3.19.861V-8.5a8.535,8.535,0,0,1,1.828-.519,10.639,10.639,0,0,1,1.881-.2,4.722,4.722,0,0,1,3.327.98,4.368,4.368,0,0,1,1.033,3.274V0Zm-2.215-3.059a.83.83,0,0,0,.233.606.888.888,0,0,0,.664.237,1.18,1.18,0,0,0,.954-.439,1.7,1.7,0,0,0,.365-1.125v-.343L-46-3.946Q-46.951-3.788-46.951-3.059Zm14.634.07A2.749,2.749,0,0,1-33.482-.62,5.474,5.474,0,0,1-36.729.22,11.291,11.291,0,0,1-38.228.1a9.257,9.257,0,0,1-1.455-.3V-2.83a7.162,7.162,0,0,0,2.777.738q1.1,0,1.1-.571a.451.451,0,0,0-.255-.391A9.009,9.009,0,0,0-37.4-3.568a3.773,3.773,0,0,1-1.74-1A2.382,2.382,0,0,1-39.683-6.2a2.594,2.594,0,0,1,1.112-2.21,5.216,5.216,0,0,1,3.125-.813,9.931,9.931,0,0,1,2.5.343v2.522a7.549,7.549,0,0,0-1.213-.4,4.9,4.9,0,0,0-1.107-.158,1.205,1.205,0,0,0-.589.123.379.379,0,0,0-.22.343.478.478,0,0,0,.237.413,4.2,4.2,0,0,0,.949.378,4.4,4.4,0,0,1,1.978,1.037A2.272,2.272,0,0,1-32.317-2.988Zm5.344-8.437a1.608,1.608,0,0,1-.576,1.283,2.252,2.252,0,0,1-1.516.492,2.2,2.2,0,0,1-1.5-.51,1.612,1.612,0,0,1-.584-1.266,1.561,1.561,0,0,1,.567-1.252,2.272,2.272,0,0,1,1.516-.479,2.293,2.293,0,0,1,1.516.479A1.551,1.551,0,0,1-26.974-11.426ZM-30.937,0V-9h3.744V0Zm12.1,0h-4.447l-3.006-9h3.9l1.1,4.913A11.366,11.366,0,0,1-21-2.3h.053q.018-.176.048-.36T-19.591-9h3.885Zm9.018,0V-1.371h-.035A2.944,2.944,0,0,1-12.595.22a2.625,2.625,0,0,1-2-.756,2.808,2.808,0,0,1-.721-2.021q0-2.654,3.261-3.076l2.232-.29a.851.851,0,0,0-.4-.721,1.8,1.8,0,0,0-1.063-.281,7,7,0,0,0-3.19.861V-8.5a8.535,8.535,0,0,1,1.828-.519,10.639,10.639,0,0,1,1.881-.2,4.722,4.722,0,0,1,3.327.98A4.368,4.368,0,0,1-6.4-4.966V0Zm-2.215-3.059a.83.83,0,0,0,.233.606.888.888,0,0,0,.664.237,1.18,1.18,0,0,0,.954-.439,1.7,1.7,0,0,0,.365-1.125v-.343l-1.266.176Q-12.032-3.788-12.032-3.059ZM10.3-4.658A4.687,4.687,0,0,1,8.925-1.081,5.375,5.375,0,0,1,5.08.22,5.4,5.4,0,0,1,1.261-1.05a4.546,4.546,0,0,1-1.367-3.5A4.692,4.692,0,0,1,.536-7.04,4.172,4.172,0,0,1,2.364-8.657,6.311,6.311,0,0,1,5.1-9.22a6.113,6.113,0,0,1,2.773.589A4.286,4.286,0,0,1,9.672-7,4.452,4.452,0,0,1,10.3-4.658Zm-3.8.018Q6.5-6.478,5.1-6.478T3.691-4.553q0,2.03,1.424,2.03Q6.5-2.522,6.5-4.641ZM24.943,0,24.39-2.32H20.628L20.03,0h-4.1l4.342-12.6h4.711L29.065,0ZM22.553-9.861h-.088a6.123,6.123,0,0,1-.123.694q-.105.483-1.063,4.148h2.408l-.879-3.428A10.84,10.84,0,0,1,22.553-9.861Zm17.8,5.089a6.4,6.4,0,0,1-.5,2.61A4.046,4.046,0,0,1,38.435-.4,3.564,3.564,0,0,1,36.378.22a2.755,2.755,0,0,1-2.4-1.151h-.035V4.14H30.2V-9h3.744v1.222h.035a3.171,3.171,0,0,1,1.16-1.059,3.364,3.364,0,0,1,1.617-.382,3.215,3.215,0,0,1,2.667,1.16A5.147,5.147,0,0,1,40.351-4.772Zm-3.8.114a2.346,2.346,0,0,0-.33-1.336,1.144,1.144,0,0,0-1.015-.483,1.141,1.141,0,0,0-.967.51,2.341,2.341,0,0,0-.369,1.4v.176a2.562,2.562,0,0,0,.316,1.362,1.044,1.044,0,0,0,.949.51,1.182,1.182,0,0,0,1.046-.558A2.849,2.849,0,0,0,36.554-4.658Zm8.429,1.222a1.265,1.265,0,0,0,.668.91,3.012,3.012,0,0,0,1.512.33,6.226,6.226,0,0,0,2.479-.5V-.325a8.908,8.908,0,0,1-3.3.545,5.214,5.214,0,0,1-3.665-1.2A4.277,4.277,0,0,1,41.361-4.3a5.467,5.467,0,0,1,.576-2.558,4.142,4.142,0,0,1,1.705-1.736,5.038,5.038,0,0,1,2.492-.628,4.9,4.9,0,0,1,2.391.545,3.63,3.63,0,0,1,1.507,1.529,4.906,4.906,0,0,1,.514,2.3v1.406Zm2.25-1.96q0-1.556-1.116-1.556a.944.944,0,0,0-.782.426A2.127,2.127,0,0,0,44.965-5.4ZM51.838,0V-13.324h3.744V0ZM62.376,0V-1.371h-.035A2.944,2.944,0,0,1,59.6.22a2.625,2.625,0,0,1-2-.756,2.808,2.808,0,0,1-.721-2.021q0-2.654,3.261-3.076l2.232-.29a.851.851,0,0,0-.4-.721,1.8,1.8,0,0,0-1.063-.281,7,7,0,0,0-3.19.861V-8.5a8.535,8.535,0,0,1,1.828-.519,10.639,10.639,0,0,1,1.881-.2,4.722,4.722,0,0,1,3.327.98,4.368,4.368,0,0,1,1.033,3.274V0ZM60.161-3.059a.83.83,0,0,0,.233.606.888.888,0,0,0,.664.237,1.18,1.18,0,0,0,.954-.439,1.7,1.7,0,0,0,.365-1.125v-.343l-1.266.176Q60.161-3.788,60.161-3.059ZM73.819-.123a3.648,3.648,0,0,1-.835.233,7.634,7.634,0,0,1-1.4.11,3.357,3.357,0,0,1-2.448-.861,3.269,3.269,0,0,1-.883-2.452V-6.407H66.841V-9h1.415v-1.767l3.691-1.02V-9h1.872v2.593H71.947v2.7q0,1.187.94,1.187a2.551,2.551,0,0,0,.932-.193Zm5.133-11.3a1.608,1.608,0,0,1-.576,1.283,2.252,2.252,0,0,1-1.516.492,2.2,2.2,0,0,1-1.5-.51,1.612,1.612,0,0,1-.584-1.266,1.561,1.561,0,0,1,.567-1.252,2.272,2.272,0,0,1,1.516-.479,2.293,2.293,0,0,1,1.516.479A1.551,1.551,0,0,1,78.952-11.426ZM74.988,0V-9h3.744V0Zm12.1,0H82.644L79.638-9h3.9l1.1,4.913a11.366,11.366,0,0,1,.29,1.784h.053q.018-.176.048-.36T86.335-9H90.22Zm9.018,0V-1.371h-.035A2.944,2.944,0,0,1,93.331.22a2.625,2.625,0,0,1-2-.756,2.808,2.808,0,0,1-.721-2.021q0-2.654,3.261-3.076l2.232-.29a.851.851,0,0,0-.4-.721,1.8,1.8,0,0,0-1.063-.281,7,7,0,0,0-3.19.861V-8.5a8.535,8.535,0,0,1,1.828-.519,10.639,10.639,0,0,1,1.881-.2,4.722,4.722,0,0,1,3.327.98,4.368,4.368,0,0,1,1.033,3.274V0ZM93.894-3.059a.83.83,0,0,0,.233.606.888.888,0,0,0,.664.237,1.18,1.18,0,0,0,.954-.439,1.7,1.7,0,0,0,.365-1.125v-.343l-1.266.176Q93.894-3.788,93.894-3.059Z" transform="translate(-5763 -9105)" fill="#12263f"/>
    <path id="Trazado_1007387" data-name="Trazado 1007387" d="M3.674-3.586A2.177,2.177,0,0,1,2.1-4.228a2.09,2.09,0,0,1-.659-1.556A2.152,2.152,0,0,1,2.1-7.352a2.14,2.14,0,0,1,1.573-.664,2.09,2.09,0,0,1,1.556.659,2.177,2.177,0,0,1,.642,1.573,2.118,2.118,0,0,1-.642,1.556A2.118,2.118,0,0,1,3.674-3.586Zm11.7-1.178V0H13.9V-12.6h3.463a4.571,4.571,0,0,1,3.133.984A3.515,3.515,0,0,1,21.6-8.842a3.82,3.82,0,0,1-1.235,2.936,4.718,4.718,0,0,1-3.335,1.143Zm0-6.5V-6.1h1.547a3.458,3.458,0,0,0,2.333-.7,2.474,2.474,0,0,0,.8-1.973q0-2.5-2.953-2.5ZM31.061,0H29.619V-1.424h-.035A2.96,2.96,0,0,1,26.807.211q-3.217,0-3.217-3.832V-9h1.433v5.15Q25.022-1,27.2-1a2.205,2.205,0,0,0,1.736-.778,2.976,2.976,0,0,0,.681-2.035V-9h1.441Zm4.386-1.3h-.035V0H33.97V-13.324h1.441v5.906h.035a3.408,3.408,0,0,1,3.111-1.793A3.3,3.3,0,0,1,41.269-8a4.99,4.99,0,0,1,.98,3.239,5.578,5.578,0,0,1-1.1,3.617A3.658,3.658,0,0,1,38.145.211,2.96,2.96,0,0,1,35.446-1.3Zm-.035-3.63v1.257a2.676,2.676,0,0,0,.725,1.894A2.408,2.408,0,0,0,37.978-1,2.413,2.413,0,0,0,40.03-2a4.6,4.6,0,0,0,.743-2.786,3.629,3.629,0,0,0-.694-2.355A2.3,2.3,0,0,0,38.2-8a2.554,2.554,0,0,0-2.021.875A3.211,3.211,0,0,0,35.411-4.931ZM45.993,0H44.552V-13.324h1.441Zm3.656-11.285a.913.913,0,0,1-.659-.264.89.89,0,0,1-.272-.668.9.9,0,0,1,.272-.672.905.905,0,0,1,.659-.268.931.931,0,0,1,.672.268.9.9,0,0,1,.277.672.891.891,0,0,1-.277.659A.923.923,0,0,1,49.649-11.285ZM50.353,0H48.911V-9h1.441Zm9.053-.413a4.684,4.684,0,0,1-2.461.624,4.074,4.074,0,0,1-3.107-1.252,4.539,4.539,0,0,1-1.182-3.248A4.99,4.99,0,0,1,53.93-7.862a4.458,4.458,0,0,1,3.4-1.349,4.735,4.735,0,0,1,2.092.439v1.477A3.665,3.665,0,0,0,57.278-8a2.9,2.9,0,0,0-2.263.989,3.752,3.752,0,0,0-.883,2.6,3.573,3.573,0,0,0,.831,2.5A2.863,2.863,0,0,0,57.19-1a3.613,3.613,0,0,0,2.215-.782Zm2.918-10.872a.913.913,0,0,1-.659-.264.89.89,0,0,1-.272-.668.9.9,0,0,1,.272-.672.905.905,0,0,1,.659-.268.931.931,0,0,1,.672.268.9.9,0,0,1,.277.672.891.891,0,0,1-.277.659A.923.923,0,0,1,62.323-11.285ZM63.026,0H61.585V-9h1.441Zm10.6,0H72.185V-1.529h-.035A3.327,3.327,0,0,1,69.056.211,3.362,3.362,0,0,1,66.344-1a4.958,4.958,0,0,1-1.015-3.292,5.394,5.394,0,0,1,1.125-3.577,3.71,3.71,0,0,1,3-1.345,2.885,2.885,0,0,1,2.7,1.459h.035v-5.572h1.441ZM72.185-4.069V-5.4a2.575,2.575,0,0,0-.721-1.846A2.417,2.417,0,0,0,69.636-8a2.489,2.489,0,0,0-2.074.967,4.237,4.237,0,0,0-.756,2.672A3.81,3.81,0,0,0,67.531-1.9a2.37,2.37,0,0,0,1.947.9,2.462,2.462,0,0,0,1.956-.87A3.242,3.242,0,0,0,72.185-4.069ZM82.986,0H81.545V-1.406H81.51A3.018,3.018,0,0,1,78.741.211a2.959,2.959,0,0,1-2.1-.712,2.466,2.466,0,0,1-.76-1.89q0-2.522,2.971-2.936l2.7-.378Q81.545-8,79.69-8a4.431,4.431,0,0,0-2.936,1.107V-8.367a5.577,5.577,0,0,1,3.059-.844q3.173,0,3.173,3.357ZM81.545-4.553l-2.171.3a3.525,3.525,0,0,0-1.512.5,1.432,1.432,0,0,0-.51,1.261,1.374,1.374,0,0,0,.47,1.077A1.817,1.817,0,0,0,79.075-1a2.314,2.314,0,0,0,1.771-.751,2.685,2.685,0,0,0,.7-1.9ZM93.384,0H91.942V-1.529h-.035A3.327,3.327,0,0,1,88.813.211,3.362,3.362,0,0,1,86.1-1a4.958,4.958,0,0,1-1.015-3.292,5.394,5.394,0,0,1,1.125-3.577,3.71,3.71,0,0,1,3-1.345,2.885,2.885,0,0,1,2.7,1.459h.035v-5.572h1.441ZM91.942-4.069V-5.4a2.575,2.575,0,0,0-.721-1.846A2.417,2.417,0,0,0,89.394-8a2.489,2.489,0,0,0-2.074.967,4.237,4.237,0,0,0-.756,2.672A3.81,3.81,0,0,0,87.289-1.9a2.37,2.37,0,0,0,1.947.9,2.462,2.462,0,0,0,1.956-.87A3.242,3.242,0,0,0,91.942-4.069ZM3.674,21.414A2.177,2.177,0,0,1,2.1,20.772a2.09,2.09,0,0,1-.659-1.556A2.152,2.152,0,0,1,2.1,17.648a2.14,2.14,0,0,1,1.573-.664,2.09,2.09,0,0,1,1.556.659,2.177,2.177,0,0,1,.642,1.573,2.118,2.118,0,0,1-.642,1.556A2.118,2.118,0,0,1,3.674,21.414ZM13.9,25V12.4h3.48q6.662,0,6.662,6.144a6.191,6.191,0,0,1-1.85,4.689A6.863,6.863,0,0,1,17.235,25Zm1.477-11.268v9.932h1.881a5.338,5.338,0,0,0,3.858-1.327,4.975,4.975,0,0,0,1.38-3.762q0-4.843-5.15-4.843Zm11.689-.018a.913.913,0,0,1-.659-.264.89.89,0,0,1-.272-.668.923.923,0,0,1,.932-.94.931.931,0,0,1,.672.268.939.939,0,0,1,0,1.332A.923.923,0,0,1,27.062,13.715ZM27.765,25H26.323V16h1.441Zm2.373-.325V23.128A4.266,4.266,0,0,0,32.73,24q1.9,0,1.9-1.266a1.1,1.1,0,0,0-.163-.611,1.62,1.62,0,0,0-.439-.444,3.383,3.383,0,0,0-.65-.347q-.374-.154-.8-.321a10.357,10.357,0,0,1-1.05-.479,3.173,3.173,0,0,1-.756-.545,2.028,2.028,0,0,1-.457-.69,2.441,2.441,0,0,1-.154-.905,2.15,2.15,0,0,1,.29-1.121,2.572,2.572,0,0,1,.773-.817,3.607,3.607,0,0,1,1.1-.5,4.893,4.893,0,0,1,1.279-.167,5.164,5.164,0,0,1,2.092.4v1.459A4.077,4.077,0,0,0,33.407,17a2.671,2.671,0,0,0-.729.092,1.786,1.786,0,0,0-.558.259,1.2,1.2,0,0,0-.36.4,1.053,1.053,0,0,0-.127.514,1.233,1.233,0,0,0,.127.589,1.3,1.3,0,0,0,.374.422,2.855,2.855,0,0,0,.6.334q.352.149.8.325a11.131,11.131,0,0,1,1.072.47,3.678,3.678,0,0,1,.809.545,2.129,2.129,0,0,1,.514.7,2.254,2.254,0,0,1,.18.94,2.217,2.217,0,0,1-.294,1.16,2.523,2.523,0,0,1-.787.817,3.6,3.6,0,0,1-1.134.483,5.6,5.6,0,0,1-1.345.158A5.106,5.106,0,0,1,30.138,24.675Zm14.317-.088a4.684,4.684,0,0,1-2.461.624,4.074,4.074,0,0,1-3.107-1.252,4.539,4.539,0,0,1-1.182-3.248,4.99,4.99,0,0,1,1.274-3.573,4.458,4.458,0,0,1,3.4-1.349,4.735,4.735,0,0,1,2.092.439v1.477a3.665,3.665,0,0,0-2.145-.7,2.9,2.9,0,0,0-2.263.989,3.752,3.752,0,0,0-.883,2.6,3.573,3.573,0,0,0,.831,2.5A2.863,2.863,0,0,0,42.24,24a3.613,3.613,0,0,0,2.215-.782ZM53.912,25H52.471V23.576h-.035a2.96,2.96,0,0,1-2.777,1.635q-3.217,0-3.217-3.832V16h1.433v5.15q0,2.848,2.18,2.848a2.205,2.205,0,0,0,1.736-.778,2.976,2.976,0,0,0,.681-2.035V16h1.441Zm7.6-7.541a1.763,1.763,0,0,0-1.09-.29,1.839,1.839,0,0,0-1.542.87,4.023,4.023,0,0,0-.62,2.373V25H56.821V16h1.441v1.854H58.3a3.143,3.143,0,0,1,.94-1.481,2.144,2.144,0,0,1,1.415-.532,2.353,2.353,0,0,1,.861.123Zm1.02,7.216V23.128a4.266,4.266,0,0,0,2.593.87q1.9,0,1.9-1.266a1.1,1.1,0,0,0-.163-.611,1.62,1.62,0,0,0-.439-.444,3.383,3.383,0,0,0-.65-.347q-.374-.154-.8-.321a10.357,10.357,0,0,1-1.05-.479,3.173,3.173,0,0,1-.756-.545,2.028,2.028,0,0,1-.457-.69,2.441,2.441,0,0,1-.154-.905,2.15,2.15,0,0,1,.29-1.121,2.572,2.572,0,0,1,.773-.817,3.607,3.607,0,0,1,1.1-.5A4.893,4.893,0,0,1,66,15.789a5.164,5.164,0,0,1,2.092.4v1.459A4.077,4.077,0,0,0,65.8,17a2.671,2.671,0,0,0-.729.092,1.786,1.786,0,0,0-.558.259,1.2,1.2,0,0,0-.36.4,1.053,1.053,0,0,0-.127.514,1.233,1.233,0,0,0,.127.589,1.3,1.3,0,0,0,.374.422,2.855,2.855,0,0,0,.6.334q.352.149.8.325a11.131,11.131,0,0,1,1.072.47,3.678,3.678,0,0,1,.809.545,2.129,2.129,0,0,1,.514.7,2.254,2.254,0,0,1,.18.94,2.217,2.217,0,0,1-.294,1.16,2.523,2.523,0,0,1-.787.817,3.6,3.6,0,0,1-1.134.483,5.6,5.6,0,0,1-1.345.158A5.106,5.106,0,0,1,62.534,24.675Zm11.944.536a4.175,4.175,0,0,1-3.186-1.261A4.672,4.672,0,0,1,70.1,20.605a4.867,4.867,0,0,1,1.239-3.542,4.455,4.455,0,0,1,3.349-1.274,4.037,4.037,0,0,1,3.142,1.239,4.914,4.914,0,0,1,1.129,3.437,4.835,4.835,0,0,1-1.217,3.45A4.265,4.265,0,0,1,74.479,25.211ZM74.584,17a2.742,2.742,0,0,0-2.2.945,3.88,3.88,0,0,0-.809,2.606,3.67,3.67,0,0,0,.817,2.522A2.778,2.778,0,0,0,74.584,24a2.635,2.635,0,0,0,2.149-.905,3.928,3.928,0,0,0,.751-2.575,4,4,0,0,0-.751-2.6A2.623,2.623,0,0,0,74.584,17Zm13.087,6.7h-.035v5.44H86.194V16h1.441v1.582h.035a3.408,3.408,0,0,1,3.111-1.793A3.3,3.3,0,0,1,93.5,17a5.005,5.005,0,0,1,.976,3.239,5.578,5.578,0,0,1-1.1,3.617,3.658,3.658,0,0,1-3.006,1.358A3.011,3.011,0,0,1,87.671,23.7Zm-.035-3.63v1.257a2.676,2.676,0,0,0,.725,1.894A2.587,2.587,0,0,0,92.254,23,4.6,4.6,0,0,0,93,20.21a3.629,3.629,0,0,0-.694-2.355A2.3,2.3,0,0,0,90.422,17a2.554,2.554,0,0,0-2.021.875A3.211,3.211,0,0,0,87.636,20.069Zm12.9,5.142a4.175,4.175,0,0,1-3.186-1.261,4.672,4.672,0,0,1-1.191-3.344A4.867,4.867,0,0,1,97.4,17.063a4.455,4.455,0,0,1,3.349-1.274,4.037,4.037,0,0,1,3.142,1.239,4.914,4.914,0,0,1,1.129,3.437,4.835,4.835,0,0,1-1.217,3.45A4.265,4.265,0,0,1,100.538,25.211ZM100.644,17a2.742,2.742,0,0,0-2.2.945,3.88,3.88,0,0,0-.809,2.606,3.67,3.67,0,0,0,.817,2.522,2.778,2.778,0,0,0,2.188.923,2.635,2.635,0,0,0,2.149-.905,3.928,3.928,0,0,0,.751-2.575,4,4,0,0,0-.751-2.6A2.623,2.623,0,0,0,100.644,17Zm8.121,8h-1.441V11.676h1.441Zm4.359,0h-1.441V16h1.441Zm1.292-13.588-2.3,2.883H111l1.96-2.883Zm5.8,13.5a2.779,2.779,0,0,1-1.345.281q-2.364,0-2.364-2.637V17.23h-1.547V16h1.547V13.8l1.441-.466V16h2.268v1.23h-2.268V22.3a2.1,2.1,0,0,0,.308,1.292,1.228,1.228,0,0,0,1.02.387,1.515,1.515,0,0,0,.94-.3Zm2.663-11.2a.913.913,0,0,1-.659-.264.89.89,0,0,1-.272-.668.923.923,0,0,1,.932-.94.931.931,0,0,1,.672.268.939.939,0,0,1,0,1.332A.923.923,0,0,1,122.88,13.715Zm.7,11.285h-1.441V16h1.441Zm9.053-.413a4.684,4.684,0,0,1-2.461.624,4.074,4.074,0,0,1-3.107-1.252,4.539,4.539,0,0,1-1.182-3.248,4.99,4.99,0,0,1,1.274-3.573,4.458,4.458,0,0,1,3.4-1.349,4.735,4.735,0,0,1,2.092.439v1.477a3.665,3.665,0,0,0-2.145-.7,2.9,2.9,0,0,0-2.263.989,3.752,3.752,0,0,0-.883,2.6,3.573,3.573,0,0,0,.831,2.5,2.863,2.863,0,0,0,2.228.914,3.613,3.613,0,0,0,2.215-.782Zm5.941.624a4.175,4.175,0,0,1-3.186-1.261,4.672,4.672,0,0,1-1.191-3.344,4.867,4.867,0,0,1,1.239-3.542,4.455,4.455,0,0,1,3.349-1.274,4.037,4.037,0,0,1,3.142,1.239,4.914,4.914,0,0,1,1.129,3.437,4.835,4.835,0,0,1-1.217,3.45A4.265,4.265,0,0,1,138.577,25.211ZM138.683,17a2.742,2.742,0,0,0-2.2.945,3.88,3.88,0,0,0-.809,2.606,3.67,3.67,0,0,0,.817,2.522,2.778,2.778,0,0,0,2.188.923,2.635,2.635,0,0,0,2.149-.905,3.928,3.928,0,0,0,.751-2.575,4,4,0,0,0-.751-2.6A2.623,2.623,0,0,0,138.683,17ZM3.674,46.414A2.177,2.177,0,0,1,2.1,45.772a2.09,2.09,0,0,1-.659-1.556A2.152,2.152,0,0,1,2.1,42.648a2.14,2.14,0,0,1,1.573-.664,2.09,2.09,0,0,1,1.556.659,2.177,2.177,0,0,1,.642,1.573,2.118,2.118,0,0,1-.642,1.556A2.118,2.118,0,0,1,3.674,46.414ZM23.651,50H22.017l-1.336-3.533H15.337L14.08,50H12.437l4.834-12.6H18.8ZM20.2,45.14,18.22,39.77a5.142,5.142,0,0,1-.193-.844h-.035a4.708,4.708,0,0,1-.2.844l-1.96,5.37Zm9.809-2.681a1.763,1.763,0,0,0-1.09-.29,1.839,1.839,0,0,0-1.542.87,4.023,4.023,0,0,0-.62,2.373V50H25.313V41h1.441v1.854h.035a3.143,3.143,0,0,1,.94-1.481,2.144,2.144,0,0,1,1.415-.532,2.353,2.353,0,0,1,.861.123Zm5.739,7.453a2.779,2.779,0,0,1-1.345.281q-2.364,0-2.364-2.637V42.23H30.489V41h1.547V38.8l1.441-.466V41h2.268v1.23H33.478V47.3a2.1,2.1,0,0,0,.308,1.292,1.228,1.228,0,0,0,1.02.387,1.515,1.515,0,0,0,.94-.3ZM39.111,50H37.67V41h1.441ZM40.4,36.412l-2.3,2.883H36.984l1.96-2.883Zm7.761,13.175a4.684,4.684,0,0,1-2.461.624A4.074,4.074,0,0,1,42.6,48.958a4.539,4.539,0,0,1-1.182-3.248,4.99,4.99,0,0,1,1.274-3.573,4.458,4.458,0,0,1,3.4-1.349,4.735,4.735,0,0,1,2.092.439v1.477a3.665,3.665,0,0,0-2.145-.7,2.9,2.9,0,0,0-2.263.989,3.752,3.752,0,0,0-.883,2.6,3.573,3.573,0,0,0,.831,2.5A2.863,2.863,0,0,0,45.949,49a3.613,3.613,0,0,0,2.215-.782ZM57.621,50H56.18V48.576h-.035a2.96,2.96,0,0,1-2.777,1.635q-3.217,0-3.217-3.832V41h1.433v5.15q0,2.848,2.18,2.848A2.205,2.205,0,0,0,55.5,48.22a2.976,2.976,0,0,0,.681-2.035V41h1.441Zm4.351,0H60.53V36.676h1.441Zm6.68.211a4.175,4.175,0,0,1-3.186-1.261,4.672,4.672,0,0,1-1.191-3.344,4.867,4.867,0,0,1,1.239-3.542,4.455,4.455,0,0,1,3.349-1.274A4.037,4.037,0,0,1,72,42.028a4.914,4.914,0,0,1,1.129,3.437,4.835,4.835,0,0,1-1.217,3.45A4.265,4.265,0,0,1,68.651,50.211ZM68.757,42a2.742,2.742,0,0,0-2.2.945,3.88,3.88,0,0,0-.809,2.606,3.67,3.67,0,0,0,.817,2.522A2.778,2.778,0,0,0,68.757,49a2.635,2.635,0,0,0,2.149-.905,3.928,3.928,0,0,0,.751-2.575,4,4,0,0,0-.751-2.6A2.623,2.623,0,0,0,68.757,42Zm19.292,8H86.607V48.471h-.035a3.327,3.327,0,0,1-3.094,1.74A3.362,3.362,0,0,1,80.767,49a4.958,4.958,0,0,1-1.015-3.292,5.394,5.394,0,0,1,1.125-3.577,3.71,3.71,0,0,1,3-1.345,2.885,2.885,0,0,1,2.7,1.459h.035V36.676h1.441Zm-1.441-4.069V44.6a2.575,2.575,0,0,0-.721-1.846A2.417,2.417,0,0,0,84.059,42a2.489,2.489,0,0,0-2.074.967,4.237,4.237,0,0,0-.756,2.672,3.81,3.81,0,0,0,.725,2.457A2.37,2.37,0,0,0,83.9,49a2.462,2.462,0,0,0,1.956-.87A3.242,3.242,0,0,0,86.607,45.931ZM98.2,45.86H91.846a3.366,3.366,0,0,0,.809,2.32A2.788,2.788,0,0,0,94.781,49a4.422,4.422,0,0,0,2.795-1V49.35a5.224,5.224,0,0,1-3.138.861,3.8,3.8,0,0,1-3-1.226,5.018,5.018,0,0,1-1.09-3.45,4.921,4.921,0,0,1,1.191-3.423A3.819,3.819,0,0,1,94.5,40.789a3.384,3.384,0,0,1,2.733,1.143A4.764,4.764,0,0,1,98.2,45.1Zm-1.477-1.222a2.933,2.933,0,0,0-.6-1.942A2.051,2.051,0,0,0,94.474,42a2.328,2.328,0,0,0-1.731.729,3.31,3.31,0,0,0-.879,1.907Zm12.349,5.572a4.175,4.175,0,0,1-3.186-1.261,4.672,4.672,0,0,1-1.191-3.344,4.867,4.867,0,0,1,1.239-3.542,4.455,4.455,0,0,1,3.349-1.274,4.037,4.037,0,0,1,3.142,1.239,4.914,4.914,0,0,1,1.129,3.437,4.835,4.835,0,0,1-1.217,3.45A4.265,4.265,0,0,1,109.072,50.211ZM109.178,42a2.742,2.742,0,0,0-2.2.945,3.88,3.88,0,0,0-.809,2.606,3.67,3.67,0,0,0,.817,2.522,2.778,2.778,0,0,0,2.188.923,2.635,2.635,0,0,0,2.149-.905,3.928,3.928,0,0,0,.751-2.575,4,4,0,0,0-.751-2.6A2.623,2.623,0,0,0,109.178,42Zm8.156,6.7H117.3v5.44h-1.441V41H117.3v1.582h.035a3.408,3.408,0,0,1,3.111-1.793A3.3,3.3,0,0,1,123.161,42a5.005,5.005,0,0,1,.976,3.239,5.578,5.578,0,0,1-1.1,3.617,3.658,3.658,0,0,1-3.006,1.358A3.011,3.011,0,0,1,117.334,48.7Zm-.035-3.63v1.257a2.676,2.676,0,0,0,.725,1.894A2.587,2.587,0,0,0,121.917,48a4.6,4.6,0,0,0,.743-2.786,3.629,3.629,0,0,0-.694-2.355A2.3,2.3,0,0,0,120.085,42a2.554,2.554,0,0,0-2.021.875A3.211,3.211,0,0,0,117.3,45.069Zm9.879-6.354a.913.913,0,0,1-.659-.264.89.89,0,0,1-.272-.668.923.923,0,0,1,.932-.94.931.931,0,0,1,.672.268.939.939,0,0,1,0,1.332A.923.923,0,0,1,127.178,38.715Zm.7,11.285h-1.441V41h1.441Zm10.389,0h-1.441V44.867q0-2.865-2.092-2.865a2.269,2.269,0,0,0-1.789.813,3.013,3.013,0,0,0-.708,2.052V50H130.8V41h1.441v1.494h.035a3.248,3.248,0,0,1,2.953-1.705,2.753,2.753,0,0,1,2.259.954,4.248,4.248,0,0,1,.782,2.755Zm3.454-11.285a.913.913,0,0,1-.659-.264.89.89,0,0,1-.272-.668.923.923,0,0,1,.932-.94.931.931,0,0,1,.672.268.939.939,0,0,1,0,1.332A.923.923,0,0,1,141.724,38.715Zm.7,11.285h-1.441V41h1.441Zm6.68.211a4.175,4.175,0,0,1-3.186-1.261,4.672,4.672,0,0,1-1.191-3.344,4.867,4.867,0,0,1,1.239-3.542,4.455,4.455,0,0,1,3.349-1.274,4.037,4.037,0,0,1,3.142,1.239,4.914,4.914,0,0,1,1.129,3.437,4.835,4.835,0,0,1-1.217,3.45A4.265,4.265,0,0,1,149.106,50.211ZM149.212,42a2.742,2.742,0,0,0-2.2.945,3.88,3.88,0,0,0-.809,2.606,3.67,3.67,0,0,0,.817,2.522,2.778,2.778,0,0,0,2.188.923,2.635,2.635,0,0,0,2.149-.905,3.928,3.928,0,0,0,.751-2.575,4,4,0,0,0-.751-2.6A2.623,2.623,0,0,0,149.212,42Zm2.109-5.59-2.3,2.883H147.9l1.96-2.883ZM163.362,50h-1.441V44.867q0-2.865-2.092-2.865a2.269,2.269,0,0,0-1.789.813,3.013,3.013,0,0,0-.708,2.052V50h-1.441V41h1.441v1.494h.035a3.248,3.248,0,0,1,2.953-1.705,2.753,2.753,0,0,1,2.259.954,4.248,4.248,0,0,1,.782,2.755ZM3.674,71.414A2.177,2.177,0,0,1,2.1,70.772a2.09,2.09,0,0,1-.659-1.556A2.152,2.152,0,0,1,2.1,67.648a2.14,2.14,0,0,1,1.573-.664,2.09,2.09,0,0,1,1.556.659,2.177,2.177,0,0,1,.642,1.573,2.118,2.118,0,0,1-.642,1.556A2.118,2.118,0,0,1,3.674,71.414Zm18.8,3.059a7.392,7.392,0,0,1-3.48.738,5.613,5.613,0,0,1-4.307-1.731,6.389,6.389,0,0,1-1.617-4.544,6.7,6.7,0,0,1,1.819-4.887A6.175,6.175,0,0,1,19.5,62.186a7.4,7.4,0,0,1,2.971.519v1.573a6.024,6.024,0,0,0-2.988-.756,4.585,4.585,0,0,0-3.52,1.45,5.463,5.463,0,0,0-1.349,3.876,5.2,5.2,0,0,0,1.261,3.669,4.292,4.292,0,0,0,3.309,1.367,6.208,6.208,0,0,0,3.287-.844Zm7.066-7.014a1.763,1.763,0,0,0-1.09-.29,1.839,1.839,0,0,0-1.542.87,4.023,4.023,0,0,0-.62,2.373V75H24.847V66h1.441v1.854h.035a3.143,3.143,0,0,1,.94-1.481,2.144,2.144,0,0,1,1.415-.532,2.353,2.353,0,0,1,.861.123ZM32.546,75H31.1V66h1.441Zm1.292-13.588-2.3,2.883H30.419l1.96-2.883Zm5.8,13.5a2.779,2.779,0,0,1-1.345.281q-2.364,0-2.364-2.637V67.23H34.383V66H35.93V63.8l1.441-.466V66h2.268v1.23H37.371V72.3a2.1,2.1,0,0,0,.308,1.292,1.228,1.228,0,0,0,1.02.387,1.515,1.515,0,0,0,.94-.3Zm2.663-11.2a.913.913,0,0,1-.659-.264.89.89,0,0,1-.272-.668.923.923,0,0,1,.932-.94.931.931,0,0,1,.672.268.939.939,0,0,1,0,1.332A.923.923,0,0,1,42.3,63.715ZM43,75H41.563V66H43Zm9.053-.413a4.684,4.684,0,0,1-2.461.624,4.074,4.074,0,0,1-3.107-1.252,4.539,4.539,0,0,1-1.182-3.248,4.99,4.99,0,0,1,1.274-3.573,4.458,4.458,0,0,1,3.4-1.349,4.735,4.735,0,0,1,2.092.439v1.477a3.665,3.665,0,0,0-2.145-.7,2.9,2.9,0,0,0-2.263.989,3.752,3.752,0,0,0-.883,2.6,3.573,3.573,0,0,0,.831,2.5A2.863,2.863,0,0,0,49.843,74a3.613,3.613,0,0,0,2.215-.782ZM60.68,75H59.238V73.594H59.2a3.018,3.018,0,0,1-2.769,1.617,2.959,2.959,0,0,1-2.1-.712,2.466,2.466,0,0,1-.76-1.89q0-2.522,2.971-2.936l2.7-.378Q59.238,67,57.384,67a4.431,4.431,0,0,0-2.936,1.107V66.633a5.577,5.577,0,0,1,3.059-.844q3.173,0,3.173,3.357Zm-1.441-4.553-2.171.3a3.525,3.525,0,0,0-1.512.5,1.432,1.432,0,0,0-.51,1.261,1.374,1.374,0,0,0,.47,1.077A1.817,1.817,0,0,0,56.769,74a2.314,2.314,0,0,0,1.771-.751,2.685,2.685,0,0,0,.7-1.9ZM76.008,75H74.566V73.471h-.035a3.327,3.327,0,0,1-3.094,1.74A3.362,3.362,0,0,1,68.726,74a4.958,4.958,0,0,1-1.015-3.292,5.394,5.394,0,0,1,1.125-3.577,3.71,3.71,0,0,1,3-1.345,2.885,2.885,0,0,1,2.7,1.459h.035V61.676h1.441Zm-1.441-4.069V69.6a2.575,2.575,0,0,0-.721-1.846A2.417,2.417,0,0,0,72.018,67a2.489,2.489,0,0,0-2.074.967,4.237,4.237,0,0,0-.756,2.672,3.81,3.81,0,0,0,.725,2.457,2.37,2.37,0,0,0,1.947.9,2.462,2.462,0,0,0,1.956-.87A3.242,3.242,0,0,0,74.566,70.931Zm11.593-.07H79.8a3.366,3.366,0,0,0,.809,2.32A2.788,2.788,0,0,0,82.74,74a4.422,4.422,0,0,0,2.795-1V74.35a5.224,5.224,0,0,1-3.138.861,3.8,3.8,0,0,1-3-1.226,5.018,5.018,0,0,1-1.09-3.45A4.921,4.921,0,0,1,79.5,67.112a3.819,3.819,0,0,1,2.958-1.323,3.384,3.384,0,0,1,2.733,1.143,4.764,4.764,0,0,1,.967,3.173Zm-1.477-1.222a2.933,2.933,0,0,0-.6-1.942A2.051,2.051,0,0,0,82.433,67a2.328,2.328,0,0,0-1.731.729,3.31,3.31,0,0,0-.879,1.907ZM99.712,75H98.271V73.594h-.035a3.018,3.018,0,0,1-2.769,1.617,2.959,2.959,0,0,1-2.1-.712,2.466,2.466,0,0,1-.76-1.89q0-2.522,2.971-2.936l2.7-.378Q98.271,67,96.416,67a4.431,4.431,0,0,0-2.936,1.107V66.633a5.577,5.577,0,0,1,3.059-.844q3.173,0,3.173,3.357Zm-1.441-4.553-2.171.3a3.525,3.525,0,0,0-1.512.5,1.432,1.432,0,0,0-.51,1.261,1.374,1.374,0,0,0,.47,1.077A1.817,1.817,0,0,0,95.8,74a2.314,2.314,0,0,0,1.771-.751,2.685,2.685,0,0,0,.7-1.9Zm8.851-2.988a1.763,1.763,0,0,0-1.09-.29,1.839,1.839,0,0,0-1.542.87,4.023,4.023,0,0,0-.62,2.373V75h-1.441V66h1.441v1.854h.035a3.143,3.143,0,0,1,.94-1.481,2.144,2.144,0,0,1,1.415-.532,2.353,2.353,0,0,1,.861.123Zm5.739,7.453a2.779,2.779,0,0,1-1.345.281q-2.364,0-2.364-2.637V67.23H107.6V66h1.547V63.8l1.441-.466V66h2.268v1.23h-2.268V72.3a2.1,2.1,0,0,0,.308,1.292,1.228,1.228,0,0,0,1.02.387,1.515,1.515,0,0,0,.94-.3Zm9.158-4.052h-6.354a3.366,3.366,0,0,0,.809,2.32A2.788,2.788,0,0,0,118.6,74a4.422,4.422,0,0,0,2.795-1V74.35a5.224,5.224,0,0,1-3.138.861,3.8,3.8,0,0,1-3-1.226,5.018,5.018,0,0,1-1.09-3.45,4.921,4.921,0,0,1,1.191-3.423,3.819,3.819,0,0,1,2.958-1.323,3.384,3.384,0,0,1,2.733,1.143,4.764,4.764,0,0,1,.967,3.173Zm-1.477-1.222a2.933,2.933,0,0,0-.6-1.942A2.051,2.051,0,0,0,118.292,67a2.328,2.328,0,0,0-1.731.729,3.31,3.31,0,0,0-.879,1.907ZM3.674,96.414A2.177,2.177,0,0,1,2.1,95.772a2.09,2.09,0,0,1-.659-1.556A2.152,2.152,0,0,1,2.1,92.648a2.14,2.14,0,0,1,1.573-.664,2.09,2.09,0,0,1,1.556.659,2.177,2.177,0,0,1,.642,1.573,2.118,2.118,0,0,1-.642,1.556A2.118,2.118,0,0,1,3.674,96.414Zm18.8,3.059a7.392,7.392,0,0,1-3.48.738,5.613,5.613,0,0,1-4.307-1.731,6.389,6.389,0,0,1-1.617-4.544,6.7,6.7,0,0,1,1.819-4.887A6.175,6.175,0,0,1,19.5,87.186a7.4,7.4,0,0,1,2.971.519v1.573a6.024,6.024,0,0,0-2.988-.756,4.585,4.585,0,0,0-3.52,1.45,5.463,5.463,0,0,0-1.349,3.876,5.2,5.2,0,0,0,1.261,3.669,4.292,4.292,0,0,0,3.309,1.367,6.208,6.208,0,0,0,3.287-.844Zm8.815.527H29.848V98.594h-.035a3.018,3.018,0,0,1-2.769,1.617,2.959,2.959,0,0,1-2.1-.712,2.466,2.466,0,0,1-.76-1.89q0-2.522,2.971-2.936l2.7-.378Q29.848,92,27.993,92a4.431,4.431,0,0,0-2.936,1.107V91.633a5.577,5.577,0,0,1,3.059-.844q3.173,0,3.173,3.357Zm-1.441-4.553-2.171.3a3.525,3.525,0,0,0-1.512.5,1.432,1.432,0,0,0-.51,1.261,1.374,1.374,0,0,0,.47,1.077A1.817,1.817,0,0,0,27.378,99a2.314,2.314,0,0,0,1.771-.751,2.685,2.685,0,0,0,.7-1.9ZM38.7,92.459a1.763,1.763,0,0,0-1.09-.29,1.839,1.839,0,0,0-1.542.87,4.023,4.023,0,0,0-.62,2.373V100H34V91h1.441v1.854h.035a3.143,3.143,0,0,1,.94-1.481,2.144,2.144,0,0,1,1.415-.532,2.353,2.353,0,0,1,.861.123Zm5.739,7.453a2.779,2.779,0,0,1-1.345.281q-2.364,0-2.364-2.637V92.23H39.182V91h1.547V88.8l1.441-.466V91h2.268v1.23H42.17V97.3a2.1,2.1,0,0,0,.308,1.292,1.228,1.228,0,0,0,1.02.387,1.515,1.515,0,0,0,.94-.3ZM52.8,100H51.363V98.594h-.035a3.018,3.018,0,0,1-2.769,1.617,2.959,2.959,0,0,1-2.1-.712,2.466,2.466,0,0,1-.76-1.89q0-2.522,2.971-2.936l2.7-.378Q51.363,92,49.509,92a4.431,4.431,0,0,0-2.936,1.107V91.633a5.577,5.577,0,0,1,3.059-.844q3.173,0,3.173,3.357Zm-1.441-4.553-2.171.3a3.525,3.525,0,0,0-1.512.5,1.432,1.432,0,0,0-.51,1.261,1.374,1.374,0,0,0,.47,1.077A1.817,1.817,0,0,0,48.894,99a2.314,2.314,0,0,0,1.771-.751,2.685,2.685,0,0,0,.7-1.9ZM3.674,121.414a2.177,2.177,0,0,1-1.573-.642,2.09,2.09,0,0,1-.659-1.556,2.152,2.152,0,0,1,.659-1.569,2.14,2.14,0,0,1,1.573-.664,2.09,2.09,0,0,1,1.556.659,2.177,2.177,0,0,1,.642,1.573,2.118,2.118,0,0,1-.642,1.556A2.118,2.118,0,0,1,3.674,121.414Zm15.3,3.8a5.532,5.532,0,0,1-4.293-1.767,6.552,6.552,0,0,1-1.613-4.6A6.943,6.943,0,0,1,14.713,114a5.74,5.74,0,0,1,4.474-1.811,5.408,5.408,0,0,1,4.206,1.758,6.576,6.576,0,0,1,1.6,4.6,6.965,6.965,0,0,1-1.635,4.878A5.634,5.634,0,0,1,18.976,125.211Zm.105-11.689a4.063,4.063,0,0,0-3.226,1.433,6.373,6.373,0,0,0-.031,7.51,3.941,3.941,0,0,0,3.151,1.419,4.138,4.138,0,0,0,3.27-1.354,5.532,5.532,0,0,0,1.2-3.788,5.78,5.78,0,0,0-1.16-3.858A3.978,3.978,0,0,0,19.081,113.521Zm12.366,11.391a2.779,2.779,0,0,1-1.345.281q-2.364,0-2.364-2.637V117.23H26.191V116h1.547v-2.2l1.441-.466V116h2.268v1.23H29.18V122.3a2.1,2.1,0,0,0,.308,1.292,1.228,1.228,0,0,0,1.02.387,1.515,1.515,0,0,0,.94-.3Zm6.618-7.453a1.763,1.763,0,0,0-1.09-.29,1.839,1.839,0,0,0-1.542.87,4.023,4.023,0,0,0-.62,2.373V125H33.372v-9h1.441v1.854h.035a3.143,3.143,0,0,1,.94-1.481,2.144,2.144,0,0,1,1.415-.532,2.353,2.353,0,0,1,.861.123Zm5.326,7.752a4.175,4.175,0,0,1-3.186-1.261,4.672,4.672,0,0,1-1.191-3.344,4.867,4.867,0,0,1,1.239-3.542,4.455,4.455,0,0,1,3.349-1.274,4.037,4.037,0,0,1,3.142,1.239,4.914,4.914,0,0,1,1.129,3.437,4.835,4.835,0,0,1-1.217,3.45A4.265,4.265,0,0,1,43.392,125.211ZM43.5,117a2.742,2.742,0,0,0-2.2.945,3.88,3.88,0,0,0-.809,2.606,3.67,3.67,0,0,0,.817,2.522A2.778,2.778,0,0,0,43.5,124a2.635,2.635,0,0,0,2.149-.905,3.928,3.928,0,0,0,.751-2.575,4,4,0,0,0-.751-2.6A2.623,2.623,0,0,0,43.5,117Zm6.135,7.673v-1.547a4.266,4.266,0,0,0,2.593.87q1.9,0,1.9-1.266a1.1,1.1,0,0,0-.163-.611,1.62,1.62,0,0,0-.439-.444,3.383,3.383,0,0,0-.65-.347q-.374-.154-.8-.321a10.357,10.357,0,0,1-1.05-.479,3.173,3.173,0,0,1-.756-.545,2.028,2.028,0,0,1-.457-.69,2.441,2.441,0,0,1-.154-.905,2.15,2.15,0,0,1,.29-1.121,2.572,2.572,0,0,1,.773-.817,3.607,3.607,0,0,1,1.1-.5,4.893,4.893,0,0,1,1.279-.167,5.164,5.164,0,0,1,2.092.4v1.459A4.077,4.077,0,0,0,52.9,117a2.671,2.671,0,0,0-.729.092,1.786,1.786,0,0,0-.558.259,1.2,1.2,0,0,0-.36.4,1.053,1.053,0,0,0-.127.514,1.233,1.233,0,0,0,.127.589,1.3,1.3,0,0,0,.374.422,2.855,2.855,0,0,0,.6.334q.352.149.8.325a11.131,11.131,0,0,1,1.072.47,3.678,3.678,0,0,1,.809.545,2.129,2.129,0,0,1,.514.7,2.254,2.254,0,0,1,.18.94,2.217,2.217,0,0,1-.294,1.16,2.523,2.523,0,0,1-.787.817,3.6,3.6,0,0,1-1.134.483,5.6,5.6,0,0,1-1.345.158A5.106,5.106,0,0,1,49.632,124.675Z" transform="translate(-5843 -9015)" fill="#12263f"/>
    <path id="Trazado_1007383" data-name="Trazado 1007383" d="M3.674-3.586A2.177,2.177,0,0,1,2.1-4.228a2.09,2.09,0,0,1-.659-1.556A2.152,2.152,0,0,1,2.1-7.352a2.14,2.14,0,0,1,1.573-.664,2.09,2.09,0,0,1,1.556.659,2.177,2.177,0,0,1,.642,1.573,2.118,2.118,0,0,1-.642,1.556A2.118,2.118,0,0,1,3.674-3.586ZM24.056,0H22.245L15.759-10.046a4.2,4.2,0,0,1-.4-.791H15.3a12.976,12.976,0,0,1,.07,1.731V0H13.9V-12.6h1.916l6.311,9.888q.4.615.51.844h.035a13.335,13.335,0,0,1-.088-1.854V-12.6h1.477Zm6.873.211A4.175,4.175,0,0,1,27.743-1.05a4.672,4.672,0,0,1-1.191-3.344,4.867,4.867,0,0,1,1.239-3.542A4.455,4.455,0,0,1,31.14-9.211a4.037,4.037,0,0,1,3.142,1.239,4.914,4.914,0,0,1,1.129,3.437,4.835,4.835,0,0,1-1.217,3.45A4.265,4.265,0,0,1,30.929.211ZM31.034-8a2.742,2.742,0,0,0-2.2.945,3.88,3.88,0,0,0-.809,2.606,3.67,3.67,0,0,0,.817,2.522A2.778,2.778,0,0,0,31.034-1a2.635,2.635,0,0,0,2.149-.905,3.928,3.928,0,0,0,.751-2.575,4,4,0,0,0-.751-2.6A2.623,2.623,0,0,0,31.034-8ZM41.889-.088a2.779,2.779,0,0,1-1.345.281q-2.364,0-2.364-2.637V-7.77H36.633V-9H38.18v-2.2l1.441-.466V-9h2.268v1.23H39.621V-2.7a2.1,2.1,0,0,0,.308,1.292,1.228,1.228,0,0,0,1.02.387,1.515,1.515,0,0,0,.94-.3Zm2.663-11.2a.913.913,0,0,1-.659-.264.89.89,0,0,1-.272-.668.9.9,0,0,1,.272-.672.905.905,0,0,1,.659-.268.931.931,0,0,1,.672.268.9.9,0,0,1,.277.672.891.891,0,0,1-.277.659A.923.923,0,0,1,44.552-11.285ZM45.255,0H43.813V-9h1.441Zm9.053-.413a4.684,4.684,0,0,1-2.461.624A4.074,4.074,0,0,1,48.74-1.042a4.539,4.539,0,0,1-1.182-3.248,4.99,4.99,0,0,1,1.274-3.573,4.458,4.458,0,0,1,3.4-1.349,4.735,4.735,0,0,1,2.092.439v1.477A3.665,3.665,0,0,0,52.181-8a2.9,2.9,0,0,0-2.263.989,3.752,3.752,0,0,0-.883,2.6,3.573,3.573,0,0,0,.831,2.5A2.863,2.863,0,0,0,52.093-1a3.613,3.613,0,0,0,2.215-.782Zm2.918-10.872a.913.913,0,0,1-.659-.264.89.89,0,0,1-.272-.668.9.9,0,0,1,.272-.672.905.905,0,0,1,.659-.268.931.931,0,0,1,.672.268.9.9,0,0,1,.277.672.891.891,0,0,1-.277.659A.923.923,0,0,1,57.226-11.285ZM57.929,0H56.487V-9h1.441Zm9.36,0H65.848V-1.406h-.035A3.018,3.018,0,0,1,63.044.211a2.959,2.959,0,0,1-2.1-.712,2.466,2.466,0,0,1-.76-1.89q0-2.522,2.971-2.936l2.7-.378Q65.848-8,63.993-8a4.431,4.431,0,0,0-2.936,1.107V-8.367a5.577,5.577,0,0,1,3.059-.844q3.173,0,3.173,3.357ZM65.848-4.553l-2.171.3a3.525,3.525,0,0,0-1.512.5,1.432,1.432,0,0,0-.51,1.261,1.374,1.374,0,0,0,.47,1.077A1.817,1.817,0,0,0,63.378-1a2.314,2.314,0,0,0,1.771-.751,2.685,2.685,0,0,0,.7-1.9ZM3.674,21.414A2.177,2.177,0,0,1,2.1,20.772a2.09,2.09,0,0,1-.659-1.556A2.152,2.152,0,0,1,2.1,17.648a2.14,2.14,0,0,1,1.573-.664,2.09,2.09,0,0,1,1.556.659,2.177,2.177,0,0,1,.642,1.573,2.118,2.118,0,0,1-.642,1.556A2.118,2.118,0,0,1,3.674,21.414ZM23.651,25H22.017l-1.336-3.533H15.337L14.08,25H12.437l4.834-12.6H18.8ZM20.2,20.14,18.22,14.77a5.142,5.142,0,0,1-.193-.844h-.035a4.708,4.708,0,0,1-.2.844l-1.96,5.37Zm9.809-2.681a1.763,1.763,0,0,0-1.09-.29,1.839,1.839,0,0,0-1.542.87,4.023,4.023,0,0,0-.62,2.373V25H25.313V16h1.441v1.854h.035a3.143,3.143,0,0,1,.94-1.481,2.144,2.144,0,0,1,1.415-.532,2.353,2.353,0,0,1,.861.123Zm5.739,7.453a2.779,2.779,0,0,1-1.345.281q-2.364,0-2.364-2.637V17.23H30.489V16h1.547V13.8l1.441-.466V16h2.268v1.23H33.478V22.3a2.1,2.1,0,0,0,.308,1.292,1.228,1.228,0,0,0,1.02.387,1.515,1.515,0,0,0,.94-.3ZM39.111,25H37.67V16h1.441ZM40.4,11.412l-2.3,2.883H36.984l1.96-2.883Zm7.761,13.175a4.684,4.684,0,0,1-2.461.624A4.074,4.074,0,0,1,42.6,23.958a4.539,4.539,0,0,1-1.182-3.248,4.99,4.99,0,0,1,1.274-3.573,4.458,4.458,0,0,1,3.4-1.349,4.735,4.735,0,0,1,2.092.439v1.477a3.665,3.665,0,0,0-2.145-.7,2.9,2.9,0,0,0-2.263.989,3.752,3.752,0,0,0-.883,2.6,3.573,3.573,0,0,0,.831,2.5A2.863,2.863,0,0,0,45.949,24a3.613,3.613,0,0,0,2.215-.782ZM57.621,25H56.18V23.576h-.035a2.96,2.96,0,0,1-2.777,1.635q-3.217,0-3.217-3.832V16h1.433v5.15q0,2.848,2.18,2.848A2.205,2.205,0,0,0,55.5,23.22a2.976,2.976,0,0,0,.681-2.035V16h1.441Zm4.351,0H60.53V11.676h1.441Zm6.68.211a4.175,4.175,0,0,1-3.186-1.261,4.672,4.672,0,0,1-1.191-3.344,4.867,4.867,0,0,1,1.239-3.542,4.455,4.455,0,0,1,3.349-1.274A4.037,4.037,0,0,1,72,17.028a4.914,4.914,0,0,1,1.129,3.437,4.835,4.835,0,0,1-1.217,3.45A4.265,4.265,0,0,1,68.651,25.211ZM68.757,17a2.742,2.742,0,0,0-2.2.945,3.88,3.88,0,0,0-.809,2.606,3.67,3.67,0,0,0,.817,2.522A2.778,2.778,0,0,0,68.757,24a2.635,2.635,0,0,0,2.149-.905,3.928,3.928,0,0,0,.751-2.575,4,4,0,0,0-.751-2.6A2.623,2.623,0,0,0,68.757,17Zm12.349-3.287a.913.913,0,0,1-.659-.264.89.89,0,0,1-.272-.668.923.923,0,0,1,.932-.94.931.931,0,0,1,.672.268.939.939,0,0,1,0,1.332A.923.923,0,0,1,81.105,13.715ZM81.809,25H80.367V16h1.441ZM92.2,25H90.756V19.867Q90.756,17,88.664,17a2.269,2.269,0,0,0-1.789.813,3.013,3.013,0,0,0-.708,2.052V25H84.727V16h1.441v1.494H86.2a3.248,3.248,0,0,1,2.953-1.705,2.753,2.753,0,0,1,2.259.954A4.248,4.248,0,0,1,92.2,19.5ZM99.36,12.941A1.92,1.92,0,0,0,98.4,12.7q-1.512,0-1.512,1.907V16H99v1.23H96.891V25H95.458V17.23H93.92V16h1.538V14.541a3.032,3.032,0,0,1,.817-2.237,2.759,2.759,0,0,1,2.039-.822,2.824,2.824,0,0,1,1.046.158Zm4.948,12.27a4.175,4.175,0,0,1-3.186-1.261,4.672,4.672,0,0,1-1.191-3.344,4.867,4.867,0,0,1,1.239-3.542,4.455,4.455,0,0,1,3.349-1.274,4.037,4.037,0,0,1,3.142,1.239,4.914,4.914,0,0,1,1.129,3.437,4.835,4.835,0,0,1-1.217,3.45A4.265,4.265,0,0,1,104.309,25.211ZM104.414,17a2.742,2.742,0,0,0-2.2.945,3.88,3.88,0,0,0-.809,2.606,3.67,3.67,0,0,0,.817,2.522,2.778,2.778,0,0,0,2.188.923,2.635,2.635,0,0,0,2.149-.905,3.928,3.928,0,0,0,.751-2.575,4,4,0,0,0-.751-2.6A2.623,2.623,0,0,0,104.414,17Zm11.373.457a1.763,1.763,0,0,0-1.09-.29,1.839,1.839,0,0,0-1.542.87,4.023,4.023,0,0,0-.62,2.373V25h-1.441V16h1.441v1.854h.035a3.143,3.143,0,0,1,.94-1.481,2.144,2.144,0,0,1,1.415-.532,2.353,2.353,0,0,1,.861.123ZM130.131,25h-1.441V19.832a3.9,3.9,0,0,0-.461-2.162A1.75,1.75,0,0,0,126.677,17a1.921,1.921,0,0,0-1.569.844,3.228,3.228,0,0,0-.646,2.021V25h-1.441V19.656q0-2.654-2.048-2.654a1.9,1.9,0,0,0-1.564.8,3.288,3.288,0,0,0-.615,2.07V25h-1.441V16h1.441v1.424h.035a3.058,3.058,0,0,1,2.795-1.635,2.6,2.6,0,0,1,2.549,1.863,3.212,3.212,0,0,1,2.988-1.863q2.971,0,2.971,3.665Zm9.167,0h-1.441V23.594h-.035a3.018,3.018,0,0,1-2.769,1.617,2.959,2.959,0,0,1-2.1-.712,2.466,2.466,0,0,1-.76-1.89q0-2.522,2.971-2.936l2.7-.378Q137.856,17,136,17a4.431,4.431,0,0,0-2.936,1.107V16.633a5.577,5.577,0,0,1,3.059-.844q3.173,0,3.173,3.357Zm-1.441-4.553-2.171.3a3.525,3.525,0,0,0-1.512.5,1.432,1.432,0,0,0-.51,1.261,1.374,1.374,0,0,0,.47,1.077,1.817,1.817,0,0,0,1.252.417,2.314,2.314,0,0,0,1.771-.751,2.685,2.685,0,0,0,.7-1.9Zm8.332,4.465a2.779,2.779,0,0,1-1.345.281q-2.364,0-2.364-2.637V17.23h-1.547V16h1.547V13.8l1.441-.466V16h2.268v1.23h-2.268V22.3a2.1,2.1,0,0,0,.308,1.292,1.228,1.228,0,0,0,1.02.387,1.515,1.515,0,0,0,.94-.3Zm2.663-11.2a.913.913,0,0,1-.659-.264.89.89,0,0,1-.272-.668.923.923,0,0,1,.932-.94.931.931,0,0,1,.672.268.939.939,0,0,1,0,1.332A.923.923,0,0,1,148.852,13.715Zm.7,11.285h-1.441V16h1.441Zm9.993-9-3.586,9h-1.415l-3.41-9h1.582L155,22.539a5.869,5.869,0,0,1,.316,1.257h.035a5.943,5.943,0,0,1,.281-1.222L158.027,16Zm5.309,9.211a4.175,4.175,0,0,1-3.186-1.261,4.672,4.672,0,0,1-1.191-3.344,4.867,4.867,0,0,1,1.239-3.542,4.455,4.455,0,0,1,3.349-1.274,4.037,4.037,0,0,1,3.142,1.239,4.914,4.914,0,0,1,1.129,3.437,4.835,4.835,0,0,1-1.217,3.45A4.265,4.265,0,0,1,164.856,25.211ZM164.962,17a2.742,2.742,0,0,0-2.2.945,3.88,3.88,0,0,0-.809,2.606,3.67,3.67,0,0,0,.817,2.522,2.778,2.778,0,0,0,2.188.923,2.635,2.635,0,0,0,2.149-.905,3.928,3.928,0,0,0,.751-2.575,4,4,0,0,0-.751-2.6A2.623,2.623,0,0,0,164.962,17ZM3.674,46.414A2.177,2.177,0,0,1,2.1,45.772a2.09,2.09,0,0,1-.659-1.556A2.152,2.152,0,0,1,2.1,42.648a2.14,2.14,0,0,1,1.573-.664,2.09,2.09,0,0,1,1.556.659,2.177,2.177,0,0,1,.642,1.573,2.118,2.118,0,0,1-.642,1.556A2.118,2.118,0,0,1,3.674,46.414Zm17.675-7.682H17.71V50H16.233V38.732H12.6V37.4h8.745Zm7.26,7.128H22.254a3.366,3.366,0,0,0,.809,2.32A2.788,2.788,0,0,0,25.189,49a4.422,4.422,0,0,0,2.795-1V49.35a5.224,5.224,0,0,1-3.138.861,3.8,3.8,0,0,1-3-1.226,5.018,5.018,0,0,1-1.09-3.45,4.921,4.921,0,0,1,1.191-3.423,3.819,3.819,0,0,1,2.958-1.323,3.384,3.384,0,0,1,2.733,1.143,4.764,4.764,0,0,1,.967,3.173Zm-1.477-1.222a2.933,2.933,0,0,0-.6-1.942A2.051,2.051,0,0,0,24.882,42a2.328,2.328,0,0,0-1.731.729,3.31,3.31,0,0,0-.879,1.907ZM37.362,41l-3.023,4.553L37.31,50H35.631l-1.767-2.918q-.167-.272-.4-.686h-.035q-.044.079-.413.686L31.219,50H29.558l3.067-4.412L29.689,41h1.679l1.74,3.076q.193.343.378.7h.035L35.771,41Zm5.862,8.912a2.779,2.779,0,0,1-1.345.281q-2.364,0-2.364-2.637V42.23H37.969V41h1.547V38.8l1.441-.466V41h2.268v1.23H40.957V47.3a2.1,2.1,0,0,0,.308,1.292,1.228,1.228,0,0,0,1.02.387,1.515,1.515,0,0,0,.94-.3Zm5.687.3a4.175,4.175,0,0,1-3.186-1.261,4.672,4.672,0,0,1-1.191-3.344,4.867,4.867,0,0,1,1.239-3.542,4.455,4.455,0,0,1,3.349-1.274,4.037,4.037,0,0,1,3.142,1.239,4.914,4.914,0,0,1,1.129,3.437,4.835,4.835,0,0,1-1.217,3.45A4.265,4.265,0,0,1,48.911,50.211ZM49.017,42a2.742,2.742,0,0,0-2.2.945,3.88,3.88,0,0,0-.809,2.606,3.67,3.67,0,0,0,.817,2.522A2.778,2.778,0,0,0,49.017,49a2.635,2.635,0,0,0,2.149-.905,3.928,3.928,0,0,0,.751-2.575,4,4,0,0,0-.751-2.6A2.623,2.623,0,0,0,49.017,42ZM67.86,45.86H61.506a3.366,3.366,0,0,0,.809,2.32A2.788,2.788,0,0,0,64.441,49a4.422,4.422,0,0,0,2.795-1V49.35a5.224,5.224,0,0,1-3.138.861,3.8,3.8,0,0,1-3-1.226,5.018,5.018,0,0,1-1.09-3.45A4.921,4.921,0,0,1,61.2,42.112a3.819,3.819,0,0,1,2.958-1.323,3.384,3.384,0,0,1,2.733,1.143A4.764,4.764,0,0,1,67.86,45.1Zm-1.477-1.222a2.933,2.933,0,0,0-.6-1.942A2.051,2.051,0,0,0,64.134,42a2.328,2.328,0,0,0-1.731.729,3.31,3.31,0,0,0-.879,1.907ZM69.5,49.675V48.128a4.266,4.266,0,0,0,2.593.87q1.9,0,1.9-1.266a1.1,1.1,0,0,0-.163-.611,1.62,1.62,0,0,0-.439-.444,3.383,3.383,0,0,0-.65-.347q-.374-.154-.8-.321a10.357,10.357,0,0,1-1.05-.479,3.173,3.173,0,0,1-.756-.545,2.028,2.028,0,0,1-.457-.69,2.441,2.441,0,0,1-.154-.905,2.15,2.15,0,0,1,.29-1.121,2.572,2.572,0,0,1,.773-.817,3.607,3.607,0,0,1,1.1-.5,4.893,4.893,0,0,1,1.279-.167,5.164,5.164,0,0,1,2.092.4v1.459A4.077,4.077,0,0,0,72.765,42a2.671,2.671,0,0,0-.729.092,1.786,1.786,0,0,0-.558.259,1.2,1.2,0,0,0-.36.4,1.053,1.053,0,0,0-.127.514,1.233,1.233,0,0,0,.127.589,1.3,1.3,0,0,0,.374.422,2.855,2.855,0,0,0,.6.334q.352.149.8.325a11.131,11.131,0,0,1,1.072.47,3.678,3.678,0,0,1,.809.545,2.129,2.129,0,0,1,.514.7,2.254,2.254,0,0,1,.18.94,2.217,2.217,0,0,1-.294,1.16,2.523,2.523,0,0,1-.787.817,3.6,3.6,0,0,1-1.134.483,5.6,5.6,0,0,1-1.345.158A5.106,5.106,0,0,1,69.5,49.675Zm14.317-.088a4.684,4.684,0,0,1-2.461.624,4.074,4.074,0,0,1-3.107-1.252,4.539,4.539,0,0,1-1.182-3.248,4.99,4.99,0,0,1,1.274-3.573,4.458,4.458,0,0,1,3.4-1.349,4.735,4.735,0,0,1,2.092.439v1.477a3.665,3.665,0,0,0-2.145-.7,2.9,2.9,0,0,0-2.263.989,3.752,3.752,0,0,0-.883,2.6,3.573,3.573,0,0,0,.831,2.5A2.863,2.863,0,0,0,81.6,49a3.613,3.613,0,0,0,2.215-.782Zm5.941.624a4.175,4.175,0,0,1-3.186-1.261,4.672,4.672,0,0,1-1.191-3.344,4.867,4.867,0,0,1,1.239-3.542,4.455,4.455,0,0,1,3.349-1.274,4.037,4.037,0,0,1,3.142,1.239,4.914,4.914,0,0,1,1.129,3.437,4.835,4.835,0,0,1-1.217,3.45A4.265,4.265,0,0,1,89.754,50.211ZM89.859,42a2.742,2.742,0,0,0-2.2.945,3.88,3.88,0,0,0-.809,2.606,3.67,3.67,0,0,0,.817,2.522A2.778,2.778,0,0,0,89.859,49a2.635,2.635,0,0,0,2.149-.905,3.928,3.928,0,0,0,.751-2.575,4,4,0,0,0-.751-2.6A2.623,2.623,0,0,0,89.859,42Zm8.121,8H96.539V36.676H97.98Zm9.36,0H105.9V48.594h-.035a3.018,3.018,0,0,1-2.769,1.617,2.959,2.959,0,0,1-2.1-.712,2.466,2.466,0,0,1-.76-1.89q0-2.522,2.971-2.936l2.7-.378Q105.9,42,104.045,42a4.431,4.431,0,0,0-2.936,1.107V41.633a5.577,5.577,0,0,1,3.059-.844q3.173,0,3.173,3.357ZM105.9,45.447l-2.171.3a3.525,3.525,0,0,0-1.512.5,1.432,1.432,0,0,0-.51,1.261,1.374,1.374,0,0,0,.47,1.077A1.817,1.817,0,0,0,103.43,49a2.314,2.314,0,0,0,1.771-.751,2.685,2.685,0,0,0,.7-1.9Zm8.851-2.988a1.763,1.763,0,0,0-1.09-.29,1.839,1.839,0,0,0-1.542.87,4.023,4.023,0,0,0-.62,2.373V50h-1.441V41H111.5v1.854h.035a3.143,3.143,0,0,1,.94-1.481,2.144,2.144,0,0,1,1.415-.532,2.353,2.353,0,0,1,.861.123ZM3.674,71.414A2.177,2.177,0,0,1,2.1,70.772a2.09,2.09,0,0,1-.659-1.556A2.152,2.152,0,0,1,2.1,67.648a2.14,2.14,0,0,1,1.573-.664,2.09,2.09,0,0,1,1.556.659,2.177,2.177,0,0,1,.642,1.573,2.118,2.118,0,0,1-.642,1.556A2.118,2.118,0,0,1,3.674,71.414Zm18.8,3.059a7.392,7.392,0,0,1-3.48.738,5.613,5.613,0,0,1-4.307-1.731,6.389,6.389,0,0,1-1.617-4.544,6.7,6.7,0,0,1,1.819-4.887A6.175,6.175,0,0,1,19.5,62.186a7.4,7.4,0,0,1,2.971.519v1.573a6.024,6.024,0,0,0-2.988-.756,4.585,4.585,0,0,0-3.52,1.45,5.463,5.463,0,0,0-1.349,3.876,5.2,5.2,0,0,0,1.261,3.669,4.292,4.292,0,0,0,3.309,1.367,6.208,6.208,0,0,0,3.287-.844Zm6.135.738a4.175,4.175,0,0,1-3.186-1.261,4.672,4.672,0,0,1-1.191-3.344,4.867,4.867,0,0,1,1.239-3.542,4.455,4.455,0,0,1,3.349-1.274,4.037,4.037,0,0,1,3.142,1.239,4.914,4.914,0,0,1,1.129,3.437,4.835,4.835,0,0,1-1.217,3.45A4.265,4.265,0,0,1,28.608,75.211ZM28.714,67a2.742,2.742,0,0,0-2.2.945,3.88,3.88,0,0,0-.809,2.606,3.67,3.67,0,0,0,.817,2.522A2.778,2.778,0,0,0,28.714,74a2.635,2.635,0,0,0,2.149-.905,3.928,3.928,0,0,0,.751-2.575,4,4,0,0,0-.751-2.6A2.623,2.623,0,0,0,28.714,67Zm14.15,8H41.423V69.867Q41.423,67,39.331,67a2.269,2.269,0,0,0-1.789.813,3.013,3.013,0,0,0-.708,2.052V75H35.394V66h1.441v1.494h.035a3.248,3.248,0,0,1,2.953-1.705,2.753,2.753,0,0,1,2.259.954,4.248,4.248,0,0,1,.782,2.755Zm7.163-12.059a1.92,1.92,0,0,0-.958-.237q-1.512,0-1.512,1.907V66h2.109v1.23H47.558V75H46.125V67.23H44.587V66h1.538V64.541a3.032,3.032,0,0,1,.817-2.237,2.759,2.759,0,0,1,2.039-.822,2.824,2.824,0,0,1,1.046.158Zm8.42,7.919H52.093a3.366,3.366,0,0,0,.809,2.32A2.788,2.788,0,0,0,55.028,74a4.422,4.422,0,0,0,2.795-1V74.35a5.224,5.224,0,0,1-3.138.861,3.8,3.8,0,0,1-3-1.226,5.018,5.018,0,0,1-1.09-3.45,4.921,4.921,0,0,1,1.191-3.423,3.819,3.819,0,0,1,2.958-1.323,3.384,3.384,0,0,1,2.733,1.143,4.764,4.764,0,0,1,.967,3.173Zm-1.477-1.222a2.933,2.933,0,0,0-.6-1.942A2.051,2.051,0,0,0,54.721,67a2.328,2.328,0,0,0-1.731.729,3.31,3.31,0,0,0-.879,1.907Zm8.35-2.18a1.763,1.763,0,0,0-1.09-.29,1.839,1.839,0,0,0-1.542.87,4.023,4.023,0,0,0-.62,2.373V75H60.627V66h1.441v1.854H62.1a3.143,3.143,0,0,1,.94-1.481,2.144,2.144,0,0,1,1.415-.532,2.353,2.353,0,0,1,.861.123Zm8.8,3.4H67.764a3.366,3.366,0,0,0,.809,2.32A2.788,2.788,0,0,0,70.7,74a4.422,4.422,0,0,0,2.795-1V74.35a5.224,5.224,0,0,1-3.138.861,3.8,3.8,0,0,1-3-1.226,5.018,5.018,0,0,1-1.09-3.45,4.921,4.921,0,0,1,1.191-3.423,3.819,3.819,0,0,1,2.958-1.323,3.384,3.384,0,0,1,2.733,1.143,4.764,4.764,0,0,1,.967,3.173Zm-1.477-1.222a2.933,2.933,0,0,0-.6-1.942A2.051,2.051,0,0,0,70.392,67a2.328,2.328,0,0,0-1.731.729,3.31,3.31,0,0,0-.879,1.907ZM83.769,75H82.327V69.867Q82.327,67,80.235,67a2.269,2.269,0,0,0-1.789.813,3.013,3.013,0,0,0-.708,2.052V75H76.3V66h1.441v1.494h.035a3.248,3.248,0,0,1,2.953-1.705,2.753,2.753,0,0,1,2.259.954,4.248,4.248,0,0,1,.782,2.755Zm8.851-.413a4.684,4.684,0,0,1-2.461.624,4.074,4.074,0,0,1-3.107-1.252,4.539,4.539,0,0,1-1.182-3.248,4.99,4.99,0,0,1,1.274-3.573,4.458,4.458,0,0,1,3.4-1.349,4.735,4.735,0,0,1,2.092.439v1.477a3.665,3.665,0,0,0-2.145-.7,2.9,2.9,0,0,0-2.263.989,3.752,3.752,0,0,0-.883,2.6,3.573,3.573,0,0,0,.831,2.5A2.863,2.863,0,0,0,90.4,74a3.613,3.613,0,0,0,2.215-.782Zm2.918-10.872a.913.913,0,0,1-.659-.264.89.89,0,0,1-.272-.668.923.923,0,0,1,.932-.94.931.931,0,0,1,.672.268.939.939,0,0,1,0,1.332A.923.923,0,0,1,95.537,63.715ZM96.24,75H94.8V66H96.24Zm9.36,0h-1.441V73.594h-.035a3.018,3.018,0,0,1-2.769,1.617,2.959,2.959,0,0,1-2.1-.712,2.466,2.466,0,0,1-.76-1.89q0-2.522,2.971-2.936l2.7-.378Q104.159,67,102.3,67a4.431,4.431,0,0,0-2.936,1.107V66.633a5.577,5.577,0,0,1,3.059-.844q3.173,0,3.173,3.357Zm-1.441-4.553-2.171.3a3.525,3.525,0,0,0-1.512.5,1.432,1.432,0,0,0-.51,1.261,1.374,1.374,0,0,0,.47,1.077,1.817,1.817,0,0,0,1.252.417,2.314,2.314,0,0,0,1.771-.751,2.685,2.685,0,0,0,.7-1.9ZM3.674,96.414A2.177,2.177,0,0,1,2.1,95.772a2.09,2.09,0,0,1-.659-1.556A2.152,2.152,0,0,1,2.1,92.648a2.14,2.14,0,0,1,1.573-.664,2.09,2.09,0,0,1,1.556.659,2.177,2.177,0,0,1,.642,1.573,2.118,2.118,0,0,1-.642,1.556A2.118,2.118,0,0,1,3.674,96.414Zm18.8,3.059a7.392,7.392,0,0,1-3.48.738,5.613,5.613,0,0,1-4.307-1.731,6.389,6.389,0,0,1-1.617-4.544,6.7,6.7,0,0,1,1.819-4.887A6.175,6.175,0,0,1,19.5,87.186a7.4,7.4,0,0,1,2.971.519v1.573a6.024,6.024,0,0,0-2.988-.756,4.585,4.585,0,0,0-3.52,1.45,5.463,5.463,0,0,0-1.349,3.876,5.2,5.2,0,0,0,1.261,3.669,4.292,4.292,0,0,0,3.309,1.367,6.208,6.208,0,0,0,3.287-.844Zm8.815.527H29.848V98.594h-.035a3.018,3.018,0,0,1-2.769,1.617,2.959,2.959,0,0,1-2.1-.712,2.466,2.466,0,0,1-.76-1.89q0-2.522,2.971-2.936l2.7-.378Q29.848,92,27.993,92a4.431,4.431,0,0,0-2.936,1.107V91.633a5.577,5.577,0,0,1,3.059-.844q3.173,0,3.173,3.357Zm-1.441-4.553-2.171.3a3.525,3.525,0,0,0-1.512.5,1.432,1.432,0,0,0-.51,1.261,1.374,1.374,0,0,0,.47,1.077A1.817,1.817,0,0,0,27.378,99a2.314,2.314,0,0,0,1.771-.751,2.685,2.685,0,0,0,.7-1.9ZM38.7,92.459a1.763,1.763,0,0,0-1.09-.29,1.839,1.839,0,0,0-1.542.87,4.023,4.023,0,0,0-.62,2.373V100H34V91h1.441v1.854h.035a3.143,3.143,0,0,1,.94-1.481,2.144,2.144,0,0,1,1.415-.532,2.353,2.353,0,0,1,.861.123Zm5.739,7.453a2.779,2.779,0,0,1-1.345.281q-2.364,0-2.364-2.637V92.23H39.182V91h1.547V88.8l1.441-.466V91h2.268v1.23H42.17V97.3a2.1,2.1,0,0,0,.308,1.292,1.228,1.228,0,0,0,1.02.387,1.515,1.515,0,0,0,.94-.3ZM52.8,100H51.363V98.594h-.035a3.018,3.018,0,0,1-2.769,1.617,2.959,2.959,0,0,1-2.1-.712,2.466,2.466,0,0,1-.76-1.89q0-2.522,2.971-2.936l2.7-.378Q51.363,92,49.509,92a4.431,4.431,0,0,0-2.936,1.107V91.633a5.577,5.577,0,0,1,3.059-.844q3.173,0,3.173,3.357Zm-1.441-4.553-2.171.3a3.525,3.525,0,0,0-1.512.5,1.432,1.432,0,0,0-.51,1.261,1.374,1.374,0,0,0,.47,1.077A1.817,1.817,0,0,0,48.894,99a2.314,2.314,0,0,0,1.771-.751,2.685,2.685,0,0,0,.7-1.9ZM3.674,121.414a2.177,2.177,0,0,1-1.573-.642,2.09,2.09,0,0,1-.659-1.556,2.152,2.152,0,0,1,.659-1.569,2.14,2.14,0,0,1,1.573-.664,2.09,2.09,0,0,1,1.556.659,2.177,2.177,0,0,1,.642,1.573,2.118,2.118,0,0,1-.642,1.556A2.118,2.118,0,0,1,3.674,121.414Zm18.8,3.059a7.392,7.392,0,0,1-3.48.738,5.613,5.613,0,0,1-4.307-1.731,6.389,6.389,0,0,1-1.617-4.544,6.7,6.7,0,0,1,1.819-4.887,6.175,6.175,0,0,1,4.614-1.863,7.4,7.4,0,0,1,2.971.519v1.573a6.024,6.024,0,0,0-2.988-.756,4.585,4.585,0,0,0-3.52,1.45,5.463,5.463,0,0,0-1.349,3.876,5.2,5.2,0,0,0,1.261,3.669,4.292,4.292,0,0,0,3.309,1.367,6.208,6.208,0,0,0,3.287-.844Zm8.815.527H29.848v-1.406h-.035a3.018,3.018,0,0,1-2.769,1.617,2.959,2.959,0,0,1-2.1-.712,2.466,2.466,0,0,1-.76-1.89q0-2.522,2.971-2.936l2.7-.378q0-2.294-1.854-2.294a4.431,4.431,0,0,0-2.936,1.107v-1.477a5.577,5.577,0,0,1,3.059-.844q3.173,0,3.173,3.357Zm-1.441-4.553-2.171.3a3.525,3.525,0,0,0-1.512.5,1.432,1.432,0,0,0-.51,1.261,1.374,1.374,0,0,0,.47,1.077,1.817,1.817,0,0,0,1.252.417,2.314,2.314,0,0,0,1.771-.751,2.685,2.685,0,0,0,.7-1.9Zm8.851-2.988a1.763,1.763,0,0,0-1.09-.29,1.839,1.839,0,0,0-1.542.87,4.023,4.023,0,0,0-.62,2.373V125H34v-9h1.441v1.854h.035a3.143,3.143,0,0,1,.94-1.481,2.144,2.144,0,0,1,1.415-.532,2.353,2.353,0,0,1,.861.123Zm5.739,7.453a2.779,2.779,0,0,1-1.345.281q-2.364,0-2.364-2.637V117.23H39.182V116h1.547v-2.2l1.441-.466V116h2.268v1.23H42.17V122.3a2.1,2.1,0,0,0,.308,1.292,1.228,1.228,0,0,0,1.02.387,1.515,1.515,0,0,0,.94-.3ZM53.6,120.86H47.241a3.366,3.366,0,0,0,.809,2.32,2.788,2.788,0,0,0,2.127.817,4.422,4.422,0,0,0,2.795-1v1.354a5.224,5.224,0,0,1-3.138.861,3.8,3.8,0,0,1-3-1.226,5.018,5.018,0,0,1-1.09-3.45,4.921,4.921,0,0,1,1.191-3.423,3.819,3.819,0,0,1,2.958-1.323,3.384,3.384,0,0,1,2.733,1.143A4.764,4.764,0,0,1,53.6,120.1Zm-1.477-1.222a2.933,2.933,0,0,0-.6-1.942A2.051,2.051,0,0,0,49.869,117a2.328,2.328,0,0,0-1.731.729,3.31,3.31,0,0,0-.879,1.907Zm5.1,5.361H55.775V111.676h1.441Z" transform="translate(-5847 -8267)" fill="#12263f"/>
    <path id="Trazado_1007385" data-name="Trazado 1007385" d="M3.674-3.586A2.177,2.177,0,0,1,2.1-4.228a2.09,2.09,0,0,1-.659-1.556A2.152,2.152,0,0,1,2.1-7.352a2.14,2.14,0,0,1,1.573-.664,2.09,2.09,0,0,1,1.556.659,2.177,2.177,0,0,1,.642,1.573,2.118,2.118,0,0,1-.642,1.556A2.118,2.118,0,0,1,3.674-3.586Zm11.7-1.178V0H13.9V-12.6h3.463a4.571,4.571,0,0,1,3.133.984A3.515,3.515,0,0,1,21.6-8.842a3.82,3.82,0,0,1-1.235,2.936,4.718,4.718,0,0,1-3.335,1.143Zm0-6.5V-6.1h1.547a3.458,3.458,0,0,0,2.333-.7,2.474,2.474,0,0,0,.8-1.973q0-2.5-2.953-2.5ZM26.877.211A4.175,4.175,0,0,1,23.691-1.05,4.672,4.672,0,0,1,22.5-4.395a4.867,4.867,0,0,1,1.239-3.542,4.455,4.455,0,0,1,3.349-1.274A4.037,4.037,0,0,1,30.23-7.972a4.914,4.914,0,0,1,1.129,3.437,4.835,4.835,0,0,1-1.217,3.45A4.265,4.265,0,0,1,26.877.211ZM26.982-8a2.742,2.742,0,0,0-2.2.945,3.88,3.88,0,0,0-.809,2.606,3.67,3.67,0,0,0,.817,2.522A2.778,2.778,0,0,0,26.982-1a2.635,2.635,0,0,0,2.149-.905,3.928,3.928,0,0,0,.751-2.575,4,4,0,0,0-.751-2.6A2.623,2.623,0,0,0,26.982-8ZM40.9-4.14H34.541a3.366,3.366,0,0,0,.809,2.32A2.788,2.788,0,0,0,37.477-1a4.422,4.422,0,0,0,2.795-1V-.65a5.224,5.224,0,0,1-3.138.861,3.8,3.8,0,0,1-3-1.226,5.018,5.018,0,0,1-1.09-3.45,4.921,4.921,0,0,1,1.191-3.423A3.819,3.819,0,0,1,37.2-9.211a3.384,3.384,0,0,1,2.733,1.143A4.764,4.764,0,0,1,40.9-4.9ZM39.419-5.361a2.933,2.933,0,0,0-.6-1.942A2.051,2.051,0,0,0,37.169-8a2.328,2.328,0,0,0-1.731.729,3.311,3.311,0,0,0-.879,1.907ZM42.53-.325V-1.872A4.266,4.266,0,0,0,45.123-1q1.9,0,1.9-1.266a1.1,1.1,0,0,0-.163-.611,1.62,1.62,0,0,0-.439-.444,3.383,3.383,0,0,0-.65-.347q-.374-.154-.8-.321a10.357,10.357,0,0,1-1.05-.479,3.173,3.173,0,0,1-.756-.545A2.028,2.028,0,0,1,42.7-5.7a2.441,2.441,0,0,1-.154-.905,2.15,2.15,0,0,1,.29-1.121,2.572,2.572,0,0,1,.773-.817,3.607,3.607,0,0,1,1.1-.5,4.893,4.893,0,0,1,1.279-.167,5.164,5.164,0,0,1,2.092.4v1.459A4.077,4.077,0,0,0,45.8-8a2.671,2.671,0,0,0-.729.092,1.786,1.786,0,0,0-.558.259,1.2,1.2,0,0,0-.36.4,1.053,1.053,0,0,0-.127.514,1.233,1.233,0,0,0,.127.589,1.3,1.3,0,0,0,.374.422,2.855,2.855,0,0,0,.6.334q.352.149.8.325A11.131,11.131,0,0,1,47-4.592a3.678,3.678,0,0,1,.809.545,2.129,2.129,0,0,1,.514.7,2.254,2.254,0,0,1,.18.94,2.217,2.217,0,0,1-.294,1.16,2.523,2.523,0,0,1-.787.817,3.6,3.6,0,0,1-1.134.483,5.6,5.6,0,0,1-1.345.158A5.106,5.106,0,0,1,42.53-.325ZM52.154,0H50.713V-9h1.441Zm1.292-13.588-2.3,2.883H50.027l1.96-2.883ZM61.515,0H60.073V-1.406h-.035A3.018,3.018,0,0,1,57.27.211a2.959,2.959,0,0,1-2.1-.712,2.466,2.466,0,0,1-.76-1.89q0-2.522,2.971-2.936l2.7-.378Q60.073-8,58.219-8a4.431,4.431,0,0,0-2.936,1.107V-8.367a5.577,5.577,0,0,1,3.059-.844q3.173,0,3.173,3.357ZM60.073-4.553l-2.171.3a3.525,3.525,0,0,0-1.512.5,1.432,1.432,0,0,0-.51,1.261,1.374,1.374,0,0,0,.47,1.077A1.817,1.817,0,0,0,57.6-1a2.314,2.314,0,0,0,1.771-.751,2.685,2.685,0,0,0,.7-1.9ZM3.674,21.414A2.177,2.177,0,0,1,2.1,20.772a2.09,2.09,0,0,1-.659-1.556A2.152,2.152,0,0,1,2.1,17.648a2.14,2.14,0,0,1,1.573-.664,2.09,2.09,0,0,1,1.556.659,2.177,2.177,0,0,1,.642,1.573,2.118,2.118,0,0,1-.642,1.556A2.118,2.118,0,0,1,3.674,21.414ZM24.056,25H22.245L15.759,14.954a4.2,4.2,0,0,1-.4-.791H15.3a12.976,12.976,0,0,1,.07,1.731V25H13.9V12.4h1.916l6.311,9.888q.4.615.51.844h.035a13.335,13.335,0,0,1-.088-1.854V12.4h1.477Zm6.873.211a4.175,4.175,0,0,1-3.186-1.261,4.672,4.672,0,0,1-1.191-3.344,4.867,4.867,0,0,1,1.239-3.542,4.455,4.455,0,0,1,3.349-1.274,4.037,4.037,0,0,1,3.142,1.239,4.914,4.914,0,0,1,1.129,3.437,4.835,4.835,0,0,1-1.217,3.45A4.265,4.265,0,0,1,30.929,25.211ZM31.034,17a2.742,2.742,0,0,0-2.2.945,3.88,3.88,0,0,0-.809,2.606,3.67,3.67,0,0,0,.817,2.522A2.778,2.778,0,0,0,31.034,24a2.635,2.635,0,0,0,2.149-.905,3.928,3.928,0,0,0,.751-2.575,4,4,0,0,0-.751-2.6A2.623,2.623,0,0,0,31.034,17Zm13.755-1L41.2,25H39.788l-3.41-9H37.96l2.285,6.539a5.869,5.869,0,0,1,.316,1.257H40.6a5.943,5.943,0,0,1,.281-1.222L43.269,16Zm8.78,4.86H47.215a3.366,3.366,0,0,0,.809,2.32A2.788,2.788,0,0,0,50.15,24a4.422,4.422,0,0,0,2.795-1V24.35a5.224,5.224,0,0,1-3.138.861,3.8,3.8,0,0,1-3-1.226,5.018,5.018,0,0,1-1.09-3.45,4.921,4.921,0,0,1,1.191-3.423,3.819,3.819,0,0,1,2.958-1.323A3.384,3.384,0,0,1,52.6,16.932a4.764,4.764,0,0,1,.967,3.173Zm-1.477-1.222a2.933,2.933,0,0,0-.6-1.942A2.051,2.051,0,0,0,49.843,17a2.328,2.328,0,0,0-1.731.729,3.31,3.31,0,0,0-.879,1.907ZM57.19,25H55.749V11.676H57.19Zm9.36,0H65.109V23.594h-.035a3.018,3.018,0,0,1-2.769,1.617,2.959,2.959,0,0,1-2.1-.712,2.466,2.466,0,0,1-.76-1.89q0-2.522,2.971-2.936l2.7-.378Q65.109,17,63.255,17a4.431,4.431,0,0,0-2.936,1.107V16.633a5.577,5.577,0,0,1,3.059-.844q3.173,0,3.173,3.357Zm-1.441-4.553-2.171.3a3.525,3.525,0,0,0-1.512.5,1.432,1.432,0,0,0-.51,1.261,1.374,1.374,0,0,0,.47,1.077A1.817,1.817,0,0,0,62.64,24a2.314,2.314,0,0,0,1.771-.751,2.685,2.685,0,0,0,.7-1.9ZM3.674,46.414A2.177,2.177,0,0,1,2.1,45.772a2.09,2.09,0,0,1-.659-1.556A2.152,2.152,0,0,1,2.1,42.648a2.14,2.14,0,0,1,1.573-.664,2.09,2.09,0,0,1,1.556.659,2.177,2.177,0,0,1,.642,1.573,2.118,2.118,0,0,1-.642,1.556A2.118,2.118,0,0,1,3.674,46.414Zm18.8,3.059a7.392,7.392,0,0,1-3.48.738,5.613,5.613,0,0,1-4.307-1.731,6.389,6.389,0,0,1-1.617-4.544,6.7,6.7,0,0,1,1.819-4.887A6.175,6.175,0,0,1,19.5,37.186a7.4,7.4,0,0,1,2.971.519v1.573a6.024,6.024,0,0,0-2.988-.756,4.585,4.585,0,0,0-3.52,1.45,5.463,5.463,0,0,0-1.349,3.876,5.2,5.2,0,0,0,1.261,3.669,4.292,4.292,0,0,0,3.309,1.367,6.208,6.208,0,0,0,3.287-.844Zm9.65.527H30.683V48.576h-.035a2.96,2.96,0,0,1-2.777,1.635q-3.217,0-3.217-3.832V41h1.433v5.15q0,2.848,2.18,2.848A2.205,2.205,0,0,0,30,48.22a2.976,2.976,0,0,0,.681-2.035V41h1.441Zm10.143-4.14H35.912a3.366,3.366,0,0,0,.809,2.32A2.788,2.788,0,0,0,38.848,49a4.422,4.422,0,0,0,2.795-1V49.35a5.224,5.224,0,0,1-3.138.861,3.8,3.8,0,0,1-3-1.226,5.018,5.018,0,0,1-1.09-3.45,4.921,4.921,0,0,1,1.191-3.423,3.819,3.819,0,0,1,2.958-1.323A3.384,3.384,0,0,1,41.3,41.932a4.764,4.764,0,0,1,.967,3.173ZM40.79,44.639a2.933,2.933,0,0,0-.6-1.942A2.051,2.051,0,0,0,38.54,42a2.328,2.328,0,0,0-1.731.729,3.31,3.31,0,0,0-.879,1.907ZM51.917,50H50.476V44.867Q50.476,42,48.384,42a2.269,2.269,0,0,0-1.789.813,3.013,3.013,0,0,0-.708,2.052V50H44.446V41h1.441v1.494h.035a3.248,3.248,0,0,1,2.953-1.705,2.753,2.753,0,0,1,2.259.954,4.248,4.248,0,0,1,.782,2.755Zm6.891-.088a2.779,2.779,0,0,1-1.345.281q-2.364,0-2.364-2.637V42.23H53.552V41H55.1V38.8l1.441-.466V41h2.268v1.23H56.54V47.3a2.1,2.1,0,0,0,.308,1.292,1.228,1.228,0,0,0,1.02.387,1.515,1.515,0,0,0,.94-.3Zm5.687.3a4.175,4.175,0,0,1-3.186-1.261,4.672,4.672,0,0,1-1.191-3.344,4.867,4.867,0,0,1,1.239-3.542,4.455,4.455,0,0,1,3.349-1.274,4.037,4.037,0,0,1,3.142,1.239,4.914,4.914,0,0,1,1.129,3.437,4.835,4.835,0,0,1-1.217,3.45A4.265,4.265,0,0,1,64.494,50.211ZM64.6,42a2.742,2.742,0,0,0-2.2.945,3.88,3.88,0,0,0-.809,2.606,3.67,3.67,0,0,0,.817,2.522A2.778,2.778,0,0,0,64.6,49a2.635,2.635,0,0,0,2.149-.905,3.928,3.928,0,0,0,.751-2.575,4,4,0,0,0-.751-2.6A2.623,2.623,0,0,0,64.6,42ZM3.674,71.414A2.177,2.177,0,0,1,2.1,70.772a2.09,2.09,0,0,1-.659-1.556A2.152,2.152,0,0,1,2.1,67.648a2.14,2.14,0,0,1,1.573-.664,2.09,2.09,0,0,1,1.556.659,2.177,2.177,0,0,1,.642,1.573,2.118,2.118,0,0,1-.642,1.556A2.118,2.118,0,0,1,3.674,71.414Zm17.675-7.682H17.71V75H16.233V63.732H12.6V62.4h8.745Zm7.26,7.128H22.254a3.366,3.366,0,0,0,.809,2.32A2.788,2.788,0,0,0,25.189,74a4.422,4.422,0,0,0,2.795-1V74.35a5.224,5.224,0,0,1-3.138.861,3.8,3.8,0,0,1-3-1.226,5.018,5.018,0,0,1-1.09-3.45,4.921,4.921,0,0,1,1.191-3.423,3.819,3.819,0,0,1,2.958-1.323,3.384,3.384,0,0,1,2.733,1.143,4.764,4.764,0,0,1,.967,3.173Zm-1.477-1.222a2.933,2.933,0,0,0-.6-1.942A2.051,2.051,0,0,0,24.882,67a2.328,2.328,0,0,0-1.731.729,3.31,3.31,0,0,0-.879,1.907ZM37.23,75H35.789V73.594h-.035a3.018,3.018,0,0,1-2.769,1.617,2.959,2.959,0,0,1-2.1-.712,2.466,2.466,0,0,1-.76-1.89q0-2.522,2.971-2.936l2.7-.378Q35.789,67,33.935,67A4.431,4.431,0,0,0,31,68.109V66.633a5.577,5.577,0,0,1,3.059-.844q3.173,0,3.173,3.357Zm-1.441-4.553-2.171.3a3.525,3.525,0,0,0-1.512.5A1.432,1.432,0,0,0,31.6,72.5a1.374,1.374,0,0,0,.47,1.077A1.817,1.817,0,0,0,33.319,74a2.314,2.314,0,0,0,1.771-.751,2.685,2.685,0,0,0,.7-1.9Zm8.332,4.465a2.779,2.779,0,0,1-1.345.281q-2.364,0-2.364-2.637V67.23H38.865V66h1.547V63.8l1.441-.466V66h2.268v1.23H41.854V72.3a2.1,2.1,0,0,0,.308,1.292,1.228,1.228,0,0,0,1.02.387,1.515,1.515,0,0,0,.94-.3Zm6.618-7.453a1.763,1.763,0,0,0-1.09-.29,1.839,1.839,0,0,0-1.542.87,4.023,4.023,0,0,0-.62,2.373V75H46.046V66h1.441v1.854h.035a3.143,3.143,0,0,1,.94-1.481,2.144,2.144,0,0,1,1.415-.532,2.353,2.353,0,0,1,.861.123Zm5.326,7.752a4.175,4.175,0,0,1-3.186-1.261,4.672,4.672,0,0,1-1.191-3.344,4.867,4.867,0,0,1,1.239-3.542,4.455,4.455,0,0,1,3.349-1.274,4.037,4.037,0,0,1,3.142,1.239,4.914,4.914,0,0,1,1.129,3.437,4.835,4.835,0,0,1-1.217,3.45A4.265,4.265,0,0,1,56.065,75.211ZM56.171,67a2.742,2.742,0,0,0-2.2.945,3.88,3.88,0,0,0-.809,2.606,3.67,3.67,0,0,0,.817,2.522A2.778,2.778,0,0,0,56.171,74a2.635,2.635,0,0,0,2.149-.905,3.928,3.928,0,0,0,.751-2.575,4,4,0,0,0-.751-2.6A2.623,2.623,0,0,0,56.171,67ZM3.674,96.414A2.177,2.177,0,0,1,2.1,95.772a2.09,2.09,0,0,1-.659-1.556A2.152,2.152,0,0,1,2.1,92.648a2.14,2.14,0,0,1,1.573-.664,2.09,2.09,0,0,1,1.556.659,2.177,2.177,0,0,1,.642,1.573,2.118,2.118,0,0,1-.642,1.556A2.118,2.118,0,0,1,3.674,96.414Zm18.8,3.059a7.392,7.392,0,0,1-3.48.738,5.613,5.613,0,0,1-4.307-1.731,6.389,6.389,0,0,1-1.617-4.544,6.7,6.7,0,0,1,1.819-4.887A6.175,6.175,0,0,1,19.5,87.186a7.4,7.4,0,0,1,2.971.519v1.573a6.024,6.024,0,0,0-2.988-.756,4.585,4.585,0,0,0-3.52,1.45,5.463,5.463,0,0,0-1.349,3.876,5.2,5.2,0,0,0,1.261,3.669,4.292,4.292,0,0,0,3.309,1.367,6.208,6.208,0,0,0,3.287-.844Zm8.815.527H29.848V98.594h-.035a3.018,3.018,0,0,1-2.769,1.617,2.959,2.959,0,0,1-2.1-.712,2.466,2.466,0,0,1-.76-1.89q0-2.522,2.971-2.936l2.7-.378Q29.848,92,27.993,92a4.431,4.431,0,0,0-2.936,1.107V91.633a5.577,5.577,0,0,1,3.059-.844q3.173,0,3.173,3.357Zm-1.441-4.553-2.171.3a3.525,3.525,0,0,0-1.512.5,1.432,1.432,0,0,0-.51,1.261,1.374,1.374,0,0,0,.47,1.077A1.817,1.817,0,0,0,27.378,99a2.314,2.314,0,0,0,1.771-.751,2.685,2.685,0,0,0,.7-1.9ZM38.7,92.459a1.763,1.763,0,0,0-1.09-.29,1.839,1.839,0,0,0-1.542.87,4.023,4.023,0,0,0-.62,2.373V100H34V91h1.441v1.854h.035a3.143,3.143,0,0,1,.94-1.481,2.144,2.144,0,0,1,1.415-.532,2.353,2.353,0,0,1,.861.123Zm5.739,7.453a2.779,2.779,0,0,1-1.345.281q-2.364,0-2.364-2.637V92.23H39.182V91h1.547V88.8l1.441-.466V91h2.268v1.23H42.17V97.3a2.1,2.1,0,0,0,.308,1.292,1.228,1.228,0,0,0,1.02.387,1.515,1.515,0,0,0,.94-.3ZM52.8,100H51.363V98.594h-.035a3.018,3.018,0,0,1-2.769,1.617,2.959,2.959,0,0,1-2.1-.712,2.466,2.466,0,0,1-.76-1.89q0-2.522,2.971-2.936l2.7-.378Q51.363,92,49.509,92a4.431,4.431,0,0,0-2.936,1.107V91.633a5.577,5.577,0,0,1,3.059-.844q3.173,0,3.173,3.357Zm-1.441-4.553-2.171.3a3.525,3.525,0,0,0-1.512.5,1.432,1.432,0,0,0-.51,1.261,1.374,1.374,0,0,0,.47,1.077A1.817,1.817,0,0,0,48.894,99a2.314,2.314,0,0,0,1.771-.751,2.685,2.685,0,0,0,.7-1.9Z" transform="translate(-5843 -8641)" fill="#12263f"/>
    <path id="Trazado_1007386" data-name="Trazado 1007386" d="M-41.52,0V-12.6h7.849v2.971h-4.052V-7.8h3.806v2.971h-3.806v1.854h4.342V0ZM-24.53-4.79-21.63,0h-4.307L-26.9-2.048a9.325,9.325,0,0,1-.378-.94h-.035q-.185.6-.237.734T-28.582,0h-4.28l2.988-4.535L-32.687-9h4.324l.967,2.092a5.735,5.735,0,0,1,.387.984h.035q.255-.765.36-1L-25.7-9h4.087Zm13.931.018a6.4,6.4,0,0,1-.5,2.61A4.046,4.046,0,0,1-12.516-.4,3.564,3.564,0,0,1-14.572.22a2.755,2.755,0,0,1-2.4-1.151h-.035V4.14h-3.744V-9h3.744v1.222h.035a3.171,3.171,0,0,1,1.16-1.059,3.364,3.364,0,0,1,1.617-.382,3.215,3.215,0,0,1,2.667,1.16A5.147,5.147,0,0,1-10.6-4.772Zm-3.8.114a2.346,2.346,0,0,0-.33-1.336,1.144,1.144,0,0,0-1.015-.483,1.141,1.141,0,0,0-.967.51,2.341,2.341,0,0,0-.369,1.4v.176a2.562,2.562,0,0,0,.316,1.362,1.044,1.044,0,0,0,.949.51,1.182,1.182,0,0,0,1.046-.558A2.849,2.849,0,0,0-14.4-4.658ZM-2.426-5.792A2.91,2.91,0,0,0-3-5.968a2.891,2.891,0,0,0-.6-.079q-1.854,0-1.854,2.145V0H-9.193V-9h3.744v1.582h.035a2.81,2.81,0,0,1,.976-1.3,2.506,2.506,0,0,1,1.477-.444,1.269,1.269,0,0,1,.536.105ZM1.881-3.437a1.265,1.265,0,0,0,.668.91,3.012,3.012,0,0,0,1.512.33,6.226,6.226,0,0,0,2.479-.5V-.325a8.908,8.908,0,0,1-3.3.545A5.214,5.214,0,0,1-.431-.984,4.277,4.277,0,0,1-1.74-4.3a5.467,5.467,0,0,1,.576-2.558A4.142,4.142,0,0,1,.541-8.591,5.038,5.038,0,0,1,3.032-9.22a4.9,4.9,0,0,1,2.391.545A3.63,3.63,0,0,1,6.93-7.146a4.906,4.906,0,0,1,.514,2.3v1.406ZM4.131-5.4q0-1.556-1.116-1.556a.944.944,0,0,0-.782.426A2.127,2.127,0,0,0,1.863-5.4ZM16.049-2.988A2.749,2.749,0,0,1,14.884-.62,5.474,5.474,0,0,1,11.637.22,11.291,11.291,0,0,1,10.138.1,9.257,9.257,0,0,1,8.684-.2V-2.83a7.162,7.162,0,0,0,2.777.738q1.1,0,1.1-.571a.451.451,0,0,0-.255-.391,9.009,9.009,0,0,0-1.336-.514,3.773,3.773,0,0,1-1.74-1A2.382,2.382,0,0,1,8.684-6.2,2.594,2.594,0,0,1,9.8-8.407,5.216,5.216,0,0,1,12.92-9.22a9.931,9.931,0,0,1,2.5.343v2.522a7.549,7.549,0,0,0-1.213-.4A4.9,4.9,0,0,0,13.1-6.908a1.205,1.205,0,0,0-.589.123.379.379,0,0,0-.22.343.478.478,0,0,0,.237.413,4.2,4.2,0,0,0,.949.378,4.4,4.4,0,0,1,1.978,1.037A2.272,2.272,0,0,1,16.049-2.988Zm5.344-8.437a1.608,1.608,0,0,1-.576,1.283A2.252,2.252,0,0,1,19.3-9.65a2.2,2.2,0,0,1-1.5-.51,1.612,1.612,0,0,1-.584-1.266,1.561,1.561,0,0,1,.567-1.252,2.272,2.272,0,0,1,1.516-.479,2.293,2.293,0,0,1,1.516.479A1.551,1.551,0,0,1,21.393-11.426ZM17.429,0V-9h3.744V0Zm12.1,0H25.084L22.078-9h3.9l1.1,4.913a11.366,11.366,0,0,1,.29,1.784h.053q.018-.176.048-.36T28.775-9H32.66Zm9.018,0V-1.371h-.035A2.944,2.944,0,0,1,35.771.22a2.625,2.625,0,0,1-2-.756,2.808,2.808,0,0,1-.721-2.021q0-2.654,3.261-3.076l2.232-.29a.851.851,0,0,0-.4-.721,1.8,1.8,0,0,0-1.063-.281,7,7,0,0,0-3.19.861V-8.5a8.535,8.535,0,0,1,1.828-.519,10.639,10.639,0,0,1,1.881-.2,4.722,4.722,0,0,1,3.327.98,4.368,4.368,0,0,1,1.033,3.274V0ZM36.334-3.059a.83.83,0,0,0,.233.606.888.888,0,0,0,.664.237,1.18,1.18,0,0,0,.954-.439,1.7,1.7,0,0,0,.365-1.125v-.343l-1.266.176Q36.334-3.788,36.334-3.059Z" transform="translate(-5763 -8731)" fill="#12263f"/>
    <g id="Grupo_1192713" data-name="Grupo 1192713" transform="translate(-6596.081 -11713)">
      <circle id="Elipse_13797" data-name="Elipse 13797" cx="34.5" cy="34.5" r="34.5" transform="translate(766.081 2358)" fill="#f1fdd6"/>
      <g id="Grupo_1192711" data-name="Grupo 1192711" transform="translate(785.081 2378)">
        <g id="Grupo_1192712" data-name="Grupo 1192712" transform="translate(0 0)">
          <g id="Grupo_1192711-2" data-name="Grupo 1192711" transform="translate(0 0)">
            <path id="Trazado_1005516" data-name="Trazado 1005516" d="M26.555,17.376a1.134,1.134,0,0,0-2.1.85l1.335,3.3L21.823,19.78a1.134,1.134,0,0,0-.9-.005,10.93,10.93,0,0,1-4.314.871c-6.069,0-10.145-4.752-10.145-9.189,0-5.067,4.551-9.189,10.145-9.189s10.145,4.122,10.145,9.189a9.244,9.244,0,0,1-.1,1.3,1.134,1.134,0,1,0,2.242.335,11.438,11.438,0,0,0,.126-1.633,10.956,10.956,0,0,0-3.672-8.136A12.882,12.882,0,0,0,16.607,0,12.883,12.883,0,0,0,7.866,3.321a11.017,11.017,0,0,0-3.627,7.16A9.163,9.163,0,0,0,0,18.11a8.794,8.794,0,0,0,1.738,5.255L.083,27.46a1.133,1.133,0,0,0,1.508,1.462l4.774-2.1a10.788,10.788,0,0,0,3.781.673c.028,0,.056,0,.084,0a10.729,10.729,0,0,0,5.333-1.446A9.758,9.758,0,0,0,18.992,22.7a13.044,13.044,0,0,0,2.355-.655l6.082,2.681a1.134,1.134,0,0,0,1.508-1.462Zm-16.41,7.846-.046,0a8.5,8.5,0,0,1-3.312-.677,1.133,1.133,0,0,0-.9.005l-2.655,1.17L4.087,23.6a1.134,1.134,0,0,0-.188-1.16A6.616,6.616,0,0,1,2.267,18.11a6.744,6.744,0,0,1,2.1-4.829,11.443,11.443,0,0,0,3.353,6.128A12.671,12.671,0,0,0,15.963,22.9,8.331,8.331,0,0,1,10.146,25.221Z" transform="translate(0 0)" fill="#4d5464"/>
            <circle id="Elipse_13794" data-name="Elipse 13794" cx="1" cy="1" r="1" transform="translate(15.5 10.519)" fill="#4d5464"/>
            <circle id="Elipse_13795" data-name="Elipse 13795" cx="1" cy="1" r="1" transform="translate(20.5 10.519)" fill="#4d5464"/>
            <circle id="Elipse_13796" data-name="Elipse 13796" cx="1" cy="1" r="1" transform="translate(10.5 10.519)" fill="#4d5464"/>
          </g>
        </g>
      </g>
    </g>
    <g id="Grupo_1193003" data-name="Grupo 1193003" transform="translate(-6563.081 -11556)">
      <circle id="Elipse_13797-2" data-name="Elipse 13797" cx="34.5" cy="34.5" r="34.5" transform="translate(766.081 2358)" fill="#f8dfff"/>
      <g id="Grupo_1193008" data-name="Grupo 1193008" transform="translate(783.488 2373.882)">
        <path id="Trazado_1006048" data-name="Trazado 1006048" d="M30.849,9.03a.905.905,0,0,0-.99.2l-.979.98A3.621,3.621,0,0,1,26.3,11.276H20.565a1.551,1.551,0,0,0-1.55,1.55V15.59a1.551,1.551,0,0,0,1.55,1.55h.205v1.734a1.752,1.752,0,0,0-.987,1.574v2.374a.69.69,0,0,1-.051.262l-2.305,5.636a.128.128,0,0,1-.169.069L13.7,27.241v-.816a4.214,4.214,0,0,0-.836-2.511.976.976,0,0,0,.095-.358l.113-1.747a1.439,1.439,0,0,0-.832-1.393l-.757-.347.461-1.244.056.039a4.56,4.56,0,0,0,2.219.728,1.316,1.316,0,0,0,1.251-.667c.132-.236.284-.53.419-.789.126-.243.3-.577.349-.648a.963.963,0,0,0,.159-.745.948.948,0,0,0-.427-.616c-.706-.439-1.048-.947-.963-1.431.114-.646.958-1.242,2.1-1.483a.986.986,0,0,0,.76-.757c.068-.32.131-.638.187-.947a1.275,1.275,0,0,0-.817-1.424l-.485-.179a.239.239,0,0,1-.16-.219,10.23,10.23,0,0,0-.612-3.242c1.756-.66,2.575-2.306,2.322-4.749A1.89,1.89,0,0,0,15.657.168c-.571.254-1.115.487-1.387.6a1.721,1.721,0,0,1-.676.138H10.127A8.861,8.861,0,0,0,3.992,2.972a.516.516,0,1,0,.691.767,7.87,7.87,0,0,1,5.445-1.8h3.467a2.748,2.748,0,0,0,1.08-.22c.276-.117.825-.353,1.4-.61a.858.858,0,0,1,1.2.692c.246,2.377-.6,3.65-2.575,3.893-.565.07-1.112.147-1.625.23A4.835,4.835,0,0,0,9.772,8.1l-.293.46A2.136,2.136,0,0,0,9.2,8.337a2.1,2.1,0,0,0-1.583-.329,2.54,2.54,0,0,0-2.046,2.836A2.475,2.475,0,0,0,6.6,12.5a2.542,2.542,0,0,0,.351.207l-.267,1.8a.245.245,0,0,1-.24.208H6.063A3.072,3.072,0,0,1,3.537,13a8.147,8.147,0,0,1-.2-7.518A.516.516,0,0,0,2.426,5a8.794,8.794,0,0,0-.934,4.469,8.725,8.725,0,0,0,1.163,4.062,4.3,4.3,0,0,0,2.78,2.159l-.48,1.386a1.133,1.133,0,0,0-1.509.681l-.68,1.993a1.143,1.143,0,0,0-.059.311l-.415.3A4.361,4.361,0,0,0,.512,23.874v10.5a.861.861,0,0,0,.86.86H12.843a.861.861,0,0,0,.86-.86v-.918l2.946,1.283a3.013,3.013,0,0,0,3.991-1.622l3.6-8.808h.15a2.692,2.692,0,0,0,2.689-2.689v-.232a2.693,2.693,0,0,0-2.291-2.659V17.14H26.3a3.62,3.62,0,0,1,2.579,1.069l.979.98a.908.908,0,0,0,1.55-.642V15.373a.516.516,0,1,0-1.032,0v2.873l-.767-.768A4.646,4.646,0,0,0,26.3,16.107h-.1v-3.8h.1a4.646,4.646,0,0,0,3.309-1.371l.767-.768v2.8a.516.516,0,1,0,1.032,0v-3.1a.906.906,0,0,0-.561-.839Zm-10.8,6.56V12.826a.518.518,0,0,1,.517-.517h4.609v3.8H20.565a.518.518,0,0,1-.517-.517ZM6.085,29.013a1.817,1.817,0,0,1,1.45-3.332l7.058,3.073L13.1,32.069ZM7.7,14.665l.253-1.705a2.378,2.378,0,0,0,.548-.042A.516.516,0,1,0,8.312,11.9a1.462,1.462,0,0,1-1.719-1.216A1.5,1.5,0,0,1,7.812,9.023a1.08,1.08,0,0,1,1.263.859l.107.563a.516.516,0,1,0,1.014-.193s-.124-.643-.134-.683l.581-.912a3.8,3.8,0,0,1,2.6-1.711c.919-.148,1.453-.2,1.736-.246a9.362,9.362,0,0,1,.586,2.994,1.276,1.276,0,0,0,.837,1.182l.485.178a.244.244,0,0,1,.157.272c-.052.288-.111.585-.174.884-1.585.341-2.686,1.224-2.877,2.307a2.382,2.382,0,0,0,1.361,2.441c-.085.136-.2.359-.38.7-.13.252-.278.538-.4.757a.281.281,0,0,1-.268.144,2.831,2.831,0,0,1-2.137-.933.5.5,0,0,0-.485-.239.517.517,0,0,0-.432.341l-.705,1.906L5.9,17.509l.609-1.759a1.284,1.284,0,0,0,1.2-1.085ZM3.742,20.086l.68-1.993a.1.1,0,0,1,.057-.062.1.1,0,0,1,.084,0l7.25,3.323a.4.4,0,0,1,.232.388l-.109,1.677-8.131-3.2a.108.108,0,0,1-.063-.136ZM12.671,34.2H1.544V23.874A3.325,3.325,0,0,1,2.9,21.2l.243-.178a1.143,1.143,0,0,0,.283.161l8.2,3.224a.98.98,0,0,0,.358.068H12l.02.026a3.176,3.176,0,0,1,.655,1.926v.366L7.947,24.735A2.849,2.849,0,1,0,5.673,29.96l7,3.046v1.2ZM26.05,21.386v.232a1.658,1.658,0,0,1-1.657,1.657h-.222a.921.921,0,0,0-.856.575l-3.63,8.875a1.981,1.981,0,0,1-2.624,1.066l-3.011-1.31,1.489-3.315,1.306.568a1.16,1.16,0,0,0,1.537-.625l2.305-5.636a1.717,1.717,0,0,0,.128-.653V20.447a.718.718,0,0,1,.718-.718h2.86a1.658,1.658,0,0,1,1.656,1.656ZM23.759,18.7H21.8V17.14h1.956Z" fill="#4d5464" stroke="#4d5464" stroke-width="0.4"/>
        <path id="Trazado_1006049" data-name="Trazado 1006049" d="M478.393,198.946h-1.376a.516.516,0,1,0,0,1.032h1.376a.516.516,0,1,0,0-1.032Z" transform="translate(-443.235 -185.254)" fill="#4d5464" stroke="#4d5464" stroke-width="0.4"/>
        <path id="Trazado_1006050" data-name="Trazado 1006050" d="M469.269,158.3a.514.514,0,0,0,.334-.123l1.048-.891a.516.516,0,1,0-.668-.787l-1.048.89a.516.516,0,0,0,.334.909Z" transform="translate(-436.02 -145.612)" fill="#4d5464" stroke="#4d5464" stroke-width="0.4"/>
        <path id="Trazado_1006051" data-name="Trazado 1006051" d="M470.651,229.591,469.6,228.7a.516.516,0,1,0-.668.787l1.048.89a.516.516,0,1,0,.668-.787Z" transform="translate(-436.02 -212.847)" fill="#4d5464" stroke="#4d5464" stroke-width="0.4"/>
      </g>
    </g>
    <g id="Grupo_1193007" data-name="Grupo 1193007" transform="translate(-6564.081 -11182)">
      <circle id="Elipse_13797-3" data-name="Elipse 13797" cx="34.5" cy="34.5" r="34.5" transform="translate(766.081 2358)" fill="#f8dfff"/>
      <g id="Grupo_1193006" data-name="Grupo 1193006" transform="translate(784.051 2375.969)">
        <path id="Trazado_1006039" data-name="Trazado 1006039" d="M224.408,208.816a4.408,4.408,0,1,1,4.408-4.408A4.408,4.408,0,0,1,224.408,208.816Zm0-7.714a3.306,3.306,0,1,0,3.306,3.306A3.306,3.306,0,0,0,224.408,201.1Zm0,0" transform="translate(-207.878 -188.98)" fill="#4d5464" stroke="#4d5464" stroke-width="0.5"/>
        <path id="Trazado_1006040" data-name="Trazado 1006040" d="M63.694,391.02v-6.061A4.965,4.965,0,0,0,58.734,380H49.918a4.965,4.965,0,0,0-4.959,4.959v6.061H40v1.1H66.449v-1.1Zm-4.408,0v-6.612h-1.1v6.612H50.469v-6.612h-1.1v6.612H46.061v-6.061a3.861,3.861,0,0,1,3.857-3.857h8.816a3.861,3.861,0,0,1,3.857,3.857v6.061Zm0,0" transform="translate(-37.796 -359.061)" fill="#4d5464" stroke="#4d5464" stroke-width="0.5"/>
        <path id="Trazado_1006041" data-name="Trazado 1006041" d="M0,580H1.1v1.1H0Zm0,0" transform="translate(0 -548.041)" fill="#4d5464" stroke="#4d5464" stroke-width="0.5"/>
        <path id="Trazado_1006042" data-name="Trazado 1006042" d="M540,580h1.1v1.1H540Zm0,0" transform="translate(-510.245 -548.041)" fill="#4d5464" stroke="#4d5464" stroke-width="0.5"/>
        <path id="Trazado_1006043" data-name="Trazado 1006043" d="M580,580h1.1v1.1H580Zm0,0" transform="translate(-548.041 -548.041)" fill="#4d5464" stroke="#4d5464" stroke-width="0.5"/>
        <path id="Trazado_1006044" data-name="Trazado 1006044" d="M23.143,19.511V15.429h-1.1v-1.1h2.2v2.529l2.539-2.529h3.523a1.653,1.653,0,0,0,1.653-1.653V2.755A1.653,1.653,0,0,0,30.306,1.1H2.755A1.653,1.653,0,0,0,1.1,2.755v9.918a1.653,1.653,0,0,0,1.653,1.653H11.02v1.1H2.755A2.758,2.758,0,0,1,0,12.673V2.755A2.758,2.758,0,0,1,2.755,0H30.306a2.758,2.758,0,0,1,2.755,2.755v9.918a2.758,2.758,0,0,1-2.755,2.755H27.238Zm0,0" fill="#4d5464" stroke="#4d5464" stroke-width="0.5"/>
        <path id="Trazado_1006045" data-name="Trazado 1006045" d="M200,120h2.2v1.1H200Zm0,0" transform="translate(-188.98 -113.388)" fill="#4d5464" stroke="#4d5464" stroke-width="0.5"/>
        <path id="Trazado_1006046" data-name="Trazado 1006046" d="M280,120h2.2v1.1H280Zm0,0" transform="translate(-264.572 -113.388)" fill="#4d5464" stroke="#4d5464" stroke-width="0.5"/>
        <path id="Trazado_1006047" data-name="Trazado 1006047" d="M360,120h2.2v1.1H360Zm0,0" transform="translate(-340.164 -113.388)" fill="#4d5464" stroke="#4d5464" stroke-width="0.5"/>
      </g>
    </g>
    <g id="Grupo_1193044" data-name="Grupo 1193044" transform="translate(-6861.081 -11005)">
      <rect id="Rectángulo_455643" data-name="Rectángulo 455643" width="240" height="60" rx="9" transform="translate(978.081 2612)" fill="#e795ff"/>
      <path id="Trazado_1007384" data-name="Trazado 1007384" d="M-105.425,0l-.94-2.716a3.377,3.377,0,0,0-.708-1.257,1.292,1.292,0,0,0-.945-.457h-.149V0h-3.8V-12.6h5.045a7,7,0,0,1,3.907.866,2.941,2.941,0,0,1,1.261,2.6,3.286,3.286,0,0,1-.734,2.18,4.182,4.182,0,0,1-2.184,1.274v.035a3.052,3.052,0,0,1,1.332.8,4.948,4.948,0,0,1,.954,1.644L-101.145,0Zm-.36-8.6a1.32,1.32,0,0,0-.387-1,1.707,1.707,0,0,0-1.213-.369h-.782v2.883h.686a1.741,1.741,0,0,0,1.23-.431A1.41,1.41,0,0,0-105.785-8.6ZM-96.8-3.437a1.265,1.265,0,0,0,.668.91,3.012,3.012,0,0,0,1.512.33,6.226,6.226,0,0,0,2.479-.5V-.325a8.908,8.908,0,0,1-3.3.545,5.214,5.214,0,0,1-3.665-1.2,4.277,4.277,0,0,1-1.31-3.313,5.467,5.467,0,0,1,.576-2.558,4.142,4.142,0,0,1,1.705-1.736,5.038,5.038,0,0,1,2.492-.628,4.9,4.9,0,0,1,2.391.545,3.63,3.63,0,0,1,1.507,1.529,4.906,4.906,0,0,1,.514,2.3v1.406Zm2.25-1.96q0-1.556-1.116-1.556a.944.944,0,0,0-.782.426A2.127,2.127,0,0,0-96.82-5.4Zm11.54-5.2a3.3,3.3,0,0,0-1.081-.2,1.2,1.2,0,0,0-.923.321,1.22,1.22,0,0,0-.3.866V-9h2.083v2.593h-2.083V0H-89.06V-6.407h-1.512V-9h1.512v-.826a3.659,3.659,0,0,1,.51-1.938,3.4,3.4,0,0,1,1.481-1.305,5.423,5.423,0,0,1,2.36-.466,6.406,6.406,0,0,1,1.7.193Zm4.052,7.163a1.265,1.265,0,0,0,.668.91,3.012,3.012,0,0,0,1.512.33A6.226,6.226,0,0,0-74.3-2.7V-.325a8.908,8.908,0,0,1-3.3.545,5.214,5.214,0,0,1-3.665-1.2A4.277,4.277,0,0,1-82.582-4.3a5.467,5.467,0,0,1,.576-2.558A4.142,4.142,0,0,1-80.3-8.591,5.038,5.038,0,0,1-77.81-9.22a4.9,4.9,0,0,1,2.391.545,3.63,3.63,0,0,1,1.507,1.529,4.906,4.906,0,0,1,.514,2.3v1.406Zm2.25-1.96q0-1.556-1.116-1.556a.944.944,0,0,0-.782.426A2.127,2.127,0,0,0-78.979-5.4Zm11.373-.4a2.91,2.91,0,0,0-.571-.176,2.891,2.891,0,0,0-.6-.079q-1.854,0-1.854,2.145V0h-3.744V-9h3.744v1.582h.035a2.81,2.81,0,0,1,.976-1.3,2.506,2.506,0,0,1,1.477-.444,1.269,1.269,0,0,1,.536.105Zm4.307,2.355a1.265,1.265,0,0,0,.668.91,3.012,3.012,0,0,0,1.512.33,6.226,6.226,0,0,0,2.479-.5V-.325a8.908,8.908,0,0,1-3.3.545,5.214,5.214,0,0,1-3.665-1.2A4.277,4.277,0,0,1-64.652-4.3a5.467,5.467,0,0,1,.576-2.558,4.142,4.142,0,0,1,1.705-1.736A5.038,5.038,0,0,1-59.88-9.22a4.9,4.9,0,0,1,2.391.545,3.63,3.63,0,0,1,1.507,1.529,4.906,4.906,0,0,1,.514,2.3v1.406Zm2.25-1.96q0-1.556-1.116-1.556a.944.944,0,0,0-.782.426A2.127,2.127,0,0,0-61.049-5.4ZM-48.34,0V-4.913a2.184,2.184,0,0,0-.25-1.2.915.915,0,0,0-.813-.365.88.88,0,0,0-.756.378,1.613,1.613,0,0,0-.272.967V0h-3.744V-9h3.744v1.406h.035a3.177,3.177,0,0,1,1.2-1.2,3.29,3.29,0,0,1,1.644-.426q2.953,0,2.953,3.727V0Zm12.85-.255a3.529,3.529,0,0,1-1.134.343A10.719,10.719,0,0,1-38.408.22a5.488,5.488,0,0,1-2.544-.576,4.2,4.2,0,0,1-1.736-1.613A4.478,4.478,0,0,1-43.3-4.3a5.1,5.1,0,0,1,.655-2.65,4.268,4.268,0,0,1,1.868-1.687,6.407,6.407,0,0,1,2.813-.584,9.839,9.839,0,0,1,1.578.114,2.411,2.411,0,0,1,.9.264v2.918a2.6,2.6,0,0,0-.809-.387,3.248,3.248,0,0,0-.976-.167,2.375,2.375,0,0,0-1.666.523,1.9,1.9,0,0,0-.567,1.472,1.868,1.868,0,0,0,.558,1.446,2.177,2.177,0,0,0,1.534.514,3.82,3.82,0,0,0,1.925-.5Zm5.458-11.171a1.608,1.608,0,0,1-.576,1.283,2.252,2.252,0,0,1-1.516.492,2.2,2.2,0,0,1-1.5-.51,1.612,1.612,0,0,1-.584-1.266,1.561,1.561,0,0,1,.567-1.252,2.272,2.272,0,0,1,1.516-.479,2.293,2.293,0,0,1,1.516.479A1.551,1.551,0,0,1-30.032-11.426ZM-34,0V-9h3.744V0Zm10.538,0V-1.371h-.035A2.944,2.944,0,0,1-26.235.22a2.625,2.625,0,0,1-2-.756,2.808,2.808,0,0,1-.721-2.021q0-2.654,3.261-3.076l2.232-.29a.851.851,0,0,0-.4-.721,1.8,1.8,0,0,0-1.063-.281,7,7,0,0,0-3.19.861V-8.5a8.535,8.535,0,0,1,1.828-.519,10.639,10.639,0,0,1,1.881-.2,4.722,4.722,0,0,1,3.327.98,4.368,4.368,0,0,1,1.033,3.274V0Zm-2.215-3.059a.83.83,0,0,0,.233.606.888.888,0,0,0,.664.237,1.18,1.18,0,0,0,.954-.439,1.7,1.7,0,0,0,.365-1.125v-.343l-1.266.176Q-25.673-3.788-25.673-3.059ZM-18.352,0V-13.324h3.744V0ZM2.206-4.658A4.687,4.687,0,0,1,.831-1.081,5.375,5.375,0,0,1-3.015.22,5.4,5.4,0,0,1-6.833-1.05,4.546,4.546,0,0,1-8.2-4.553,4.692,4.692,0,0,1-7.559-7.04,4.172,4.172,0,0,1-5.73-8.657,6.311,6.311,0,0,1-3-9.22a6.113,6.113,0,0,1,2.773.589A4.286,4.286,0,0,1,1.578-7,4.452,4.452,0,0,1,2.206-4.658Zm-3.8.018q0-1.837-1.406-1.837T-4.4-4.553q0,2.03,1.424,2.03Q-1.591-2.522-1.591-4.641ZM8.947,0V-12.6h3.8V0ZM20.716,0V-4.913a2.184,2.184,0,0,0-.25-1.2.915.915,0,0,0-.813-.365A.88.88,0,0,0,18.9-6.1a1.613,1.613,0,0,0-.272.967V0H14.88V-9h3.744v1.406h.035a3.177,3.177,0,0,1,1.2-1.2,3.29,3.29,0,0,1,1.644-.426q2.953,0,2.953,3.727V0ZM33.082-10.6A3.3,3.3,0,0,0,32-10.8a1.2,1.2,0,0,0-.923.321,1.22,1.22,0,0,0-.3.866V-9h2.083v2.593H30.779V0H27.035V-6.407H25.523V-9h1.512v-.826a3.659,3.659,0,0,1,.51-1.938,3.4,3.4,0,0,1,1.481-1.305,5.423,5.423,0,0,1,2.36-.466,6.406,6.406,0,0,1,1.7.193ZM43.919-4.658a4.687,4.687,0,0,1-1.375,3.577A5.375,5.375,0,0,1,38.7.22a5.4,5.4,0,0,1-3.819-1.27,4.546,4.546,0,0,1-1.367-3.5,4.692,4.692,0,0,1,.642-2.487,4.172,4.172,0,0,1,1.828-1.617,6.311,6.311,0,0,1,2.733-.562,6.113,6.113,0,0,1,2.773.589A4.286,4.286,0,0,1,43.291-7,4.452,4.452,0,0,1,43.919-4.658Zm-3.8.018q0-1.837-1.406-1.837T37.31-4.553q0,2.03,1.424,2.03Q40.122-2.522,40.122-4.641ZM52.084-5.792a2.91,2.91,0,0,0-.571-.176,2.891,2.891,0,0,0-.6-.079q-1.854,0-1.854,2.145V0H45.316V-9h3.744v1.582H49.1a2.81,2.81,0,0,1,.976-1.3,2.506,2.506,0,0,1,1.477-.444,1.269,1.269,0,0,1,.536.105ZM64.837,0V-5.186a1.654,1.654,0,0,0-.233-.971.876.876,0,0,0-.76-.321.949.949,0,0,0-.809.391A1.79,1.79,0,0,0,62.745-5V0H59V-5.1q0-1.38-.94-1.38a1,1,0,0,0-.861.4,1.933,1.933,0,0,0-.29,1.147V0H53.165V-9h3.744v1.424h.035a2.9,2.9,0,0,1,.672-.769,3.946,3.946,0,0,1,1.042-.633,3.235,3.235,0,0,1,1.257-.242,3.181,3.181,0,0,1,1.613.378,2.931,2.931,0,0,1,1.094,1.2,3.207,3.207,0,0,1,1.266-1.165,3.772,3.772,0,0,1,1.758-.409,2.645,2.645,0,0,1,2.171.923,4.109,4.109,0,0,1,.756,2.663V0ZM75.261,0V-1.371h-.035A2.944,2.944,0,0,1,72.483.22a2.625,2.625,0,0,1-2-.756,2.808,2.808,0,0,1-.721-2.021q0-2.654,3.261-3.076l2.232-.29a.851.851,0,0,0-.4-.721A1.8,1.8,0,0,0,73.8-6.926a7,7,0,0,0-3.19.861V-8.5a8.535,8.535,0,0,1,1.828-.519,10.639,10.639,0,0,1,1.881-.2,4.722,4.722,0,0,1,3.327.98A4.368,4.368,0,0,1,78.68-4.966V0ZM73.046-3.059a.83.83,0,0,0,.233.606.888.888,0,0,0,.664.237,1.18,1.18,0,0,0,.954-.439,1.7,1.7,0,0,0,.365-1.125v-.343L74-3.946Q73.046-3.788,73.046-3.059ZM86.7-.123a3.648,3.648,0,0,1-.835.233,7.634,7.634,0,0,1-1.4.11,3.357,3.357,0,0,1-2.448-.861,3.269,3.269,0,0,1-.883-2.452V-6.407H79.726V-9h1.415v-1.767l3.691-1.02V-9H86.7v2.593H84.832v2.7q0,1.187.94,1.187a2.551,2.551,0,0,0,.932-.193Zm5.133-11.3a1.608,1.608,0,0,1-.576,1.283,2.252,2.252,0,0,1-1.516.492,2.2,2.2,0,0,1-1.5-.51,1.612,1.612,0,0,1-.584-1.266,1.561,1.561,0,0,1,.567-1.252,2.272,2.272,0,0,1,1.516-.479,2.293,2.293,0,0,1,1.516.479A1.551,1.551,0,0,1,91.837-11.426ZM87.873,0V-9h3.744V0Zm12.1,0H95.528L92.522-9h3.9l1.1,4.913a11.366,11.366,0,0,1,.29,1.784h.053q.018-.176.048-.36T99.22-9H103.1Zm9.018,0V-1.371h-.035A2.944,2.944,0,0,1,106.216.22a2.625,2.625,0,0,1-2-.756,2.808,2.808,0,0,1-.721-2.021q0-2.654,3.261-3.076l2.232-.29a.851.851,0,0,0-.4-.721,1.8,1.8,0,0,0-1.063-.281,7,7,0,0,0-3.19.861V-8.5a8.535,8.535,0,0,1,1.828-.519,10.639,10.639,0,0,1,1.881-.2,4.722,4.722,0,0,1,3.327.98,4.368,4.368,0,0,1,1.033,3.274V0Zm-2.215-3.059a.83.83,0,0,0,.233.606.888.888,0,0,0,.664.237,1.18,1.18,0,0,0,.954-.439,1.7,1.7,0,0,0,.365-1.125v-.343l-1.266.176Q106.778-3.788,106.778-3.059Z" transform="translate(1098.081 2648)" fill="#12263f"/>
      <g id="Grupo_1193005" data-name="Grupo 1193005" transform="translate(298 197)">
        <circle id="Elipse_13797-4" data-name="Elipse 13797" cx="34.5" cy="34.5" r="34.5" transform="translate(766.081 2358)" fill="#f8dfff"/>
        <g id="Grupo_1193043" data-name="Grupo 1193043" transform="translate(783.254 2377.473)">
          <g id="Grupo_1193010" data-name="Grupo 1193010" transform="translate(0)">
            <g id="Grupo_1193009" data-name="Grupo 1193009">
              <path id="Trazado_1006052" data-name="Trazado 1006052" d="M29.554,2.5H26.048V.5a.5.5,0,0,0-.5-.5H.5A.5.5,0,0,0,0,.5V26.549a3.51,3.51,0,0,0,3.506,3.506H26.549a3.51,3.51,0,0,0,3.506-3.506V3.006A.5.5,0,0,0,29.554,2.5Zm-.5,24.044a2.508,2.508,0,0,1-2.5,2.5H3.506a2.508,2.508,0,0,1-2.5-2.5V1H25.046V25.547a.5.5,0,1,0,1,0V3.506h1v22.04a.5.5,0,1,0,1,0V3.506h1Z" transform="translate(0)" fill="#4d5464"/>
            </g>
          </g>
          <g id="Grupo_1193012" data-name="Grupo 1193012" transform="translate(3.006 3.006)">
            <g id="Grupo_1193011" data-name="Grupo 1193011">
              <path id="Trazado_1006053" data-name="Trazado 1006053" d="M54.512,48H48.5a.5.5,0,0,0-.5.5V58.519a.5.5,0,0,0,.5.5h6.011a.5.5,0,0,0,.5-.5V48.5A.5.5,0,0,0,54.512,48Zm-.5,10.018H49V49h5.009Z" transform="translate(-48 -48)" fill="#4d5464"/>
            </g>
          </g>
          <g id="Grupo_1193014" data-name="Grupo 1193014" transform="translate(15.028 17.031)">
            <g id="Grupo_1193013" data-name="Grupo 1193013">
              <path id="Trazado_1006054" data-name="Trazado 1006054" d="M247.514,272H240.5a.5.5,0,0,0-.5.5v8.015a.5.5,0,0,0,.5.5h7.013a.5.5,0,0,0,.5-.5V272.5A.5.5,0,0,0,247.514,272Zm-.5,8.015H241V273h6.011Z" transform="translate(-240 -272)" fill="#4d5464"/>
            </g>
          </g>
          <g id="Grupo_1193016" data-name="Grupo 1193016" transform="translate(12.022 3.006)">
            <g id="Grupo_1193015" data-name="Grupo 1193015">
              <path id="Trazado_1006055" data-name="Trazado 1006055" d="M202.519,48H192.5a.5.5,0,0,0,0,1h10.018a.5.5,0,0,0,0-1Z" transform="translate(-192 -48)" fill="#4d5464"/>
            </g>
          </g>
          <g id="Grupo_1193018" data-name="Grupo 1193018" transform="translate(12.022 5.009)">
            <g id="Grupo_1193017" data-name="Grupo 1193017">
              <path id="Trazado_1006056" data-name="Trazado 1006056" d="M202.519,80H192.5a.5.5,0,1,0,0,1h10.018a.5.5,0,0,0,0-1Z" transform="translate(-192 -80)" fill="#4d5464"/>
            </g>
          </g>
          <g id="Grupo_1193020" data-name="Grupo 1193020" transform="translate(12.022 7.013)">
            <g id="Grupo_1193019" data-name="Grupo 1193019">
              <path id="Trazado_1006057" data-name="Trazado 1006057" d="M202.519,112H192.5a.5.5,0,0,0,0,1h10.018a.5.5,0,0,0,0-1Z" transform="translate(-192 -112)" fill="#4d5464"/>
            </g>
          </g>
          <g id="Grupo_1193022" data-name="Grupo 1193022" transform="translate(12.022 9.017)">
            <g id="Grupo_1193021" data-name="Grupo 1193021">
              <path id="Trazado_1006058" data-name="Trazado 1006058" d="M202.519,144H192.5a.5.5,0,0,0,0,1h10.018a.5.5,0,0,0,0-1Z" transform="translate(-192 -144)" fill="#4d5464"/>
            </g>
          </g>
          <g id="Grupo_1193024" data-name="Grupo 1193024" transform="translate(12.022 11.02)">
            <g id="Grupo_1193023" data-name="Grupo 1193023">
              <path id="Trazado_1006059" data-name="Trazado 1006059" d="M202.519,176H192.5a.5.5,0,1,0,0,1h10.018a.5.5,0,0,0,0-1Z" transform="translate(-192 -176)" fill="#4d5464"/>
            </g>
          </g>
          <g id="Grupo_1193026" data-name="Grupo 1193026" transform="translate(12.022 13.024)">
            <g id="Grupo_1193025" data-name="Grupo 1193025">
              <path id="Trazado_1006060" data-name="Trazado 1006060" d="M202.519,208H192.5a.5.5,0,1,0,0,1h10.018a.5.5,0,0,0,0-1Z" transform="translate(-192 -208)" fill="#4d5464"/>
            </g>
          </g>
          <g id="Grupo_1193028" data-name="Grupo 1193028" transform="translate(3.006 17.031)">
            <g id="Grupo_1193027" data-name="Grupo 1193027">
              <path id="Trazado_1006061" data-name="Trazado 1006061" d="M52.508,272H48.5a.5.5,0,1,0,0,1h4.007a.5.5,0,1,0,0-1Z" transform="translate(-48 -272)" fill="#4d5464"/>
            </g>
          </g>
          <g id="Grupo_1193030" data-name="Grupo 1193030" transform="translate(9.017 17.031)">
            <g id="Grupo_1193029" data-name="Grupo 1193029">
              <path id="Trazado_1006062" data-name="Trazado 1006062" d="M148.508,272H144.5a.5.5,0,1,0,0,1h4.007a.5.5,0,0,0,0-1Z" transform="translate(-144 -272)" fill="#4d5464"/>
            </g>
          </g>
          <g id="Grupo_1193032" data-name="Grupo 1193032" transform="translate(3.006 19.035)">
            <g id="Grupo_1193031" data-name="Grupo 1193031">
              <path id="Trazado_1006063" data-name="Trazado 1006063" d="M52.508,304H48.5a.5.5,0,1,0,0,1h4.007a.5.5,0,1,0,0-1Z" transform="translate(-48 -304)" fill="#4d5464"/>
            </g>
          </g>
          <g id="Grupo_1193034" data-name="Grupo 1193034" transform="translate(9.017 19.035)">
            <g id="Grupo_1193033" data-name="Grupo 1193033">
              <path id="Trazado_1006064" data-name="Trazado 1006064" d="M148.508,304H144.5a.5.5,0,1,0,0,1h4.007a.5.5,0,0,0,0-1Z" transform="translate(-144 -304)" fill="#4d5464"/>
            </g>
          </g>
          <g id="Grupo_1193036" data-name="Grupo 1193036" transform="translate(3.006 21.039)">
            <g id="Grupo_1193035" data-name="Grupo 1193035">
              <path id="Trazado_1006065" data-name="Trazado 1006065" d="M52.508,336H48.5a.5.5,0,1,0,0,1h4.007a.5.5,0,1,0,0-1Z" transform="translate(-48 -336)" fill="#4d5464"/>
            </g>
          </g>
          <g id="Grupo_1193038" data-name="Grupo 1193038" transform="translate(9.017 21.039)">
            <g id="Grupo_1193037" data-name="Grupo 1193037">
              <path id="Trazado_1006066" data-name="Trazado 1006066" d="M148.508,336H144.5a.5.5,0,1,0,0,1h4.007a.5.5,0,0,0,0-1Z" transform="translate(-144 -336)" fill="#4d5464"/>
            </g>
          </g>
          <g id="Grupo_1193040" data-name="Grupo 1193040" transform="translate(3.006 23.042)">
            <g id="Grupo_1193039" data-name="Grupo 1193039">
              <path id="Trazado_1006067" data-name="Trazado 1006067" d="M52.508,368H48.5a.5.5,0,1,0,0,1h4.007a.5.5,0,1,0,0-1Z" transform="translate(-48 -368)" fill="#4d5464"/>
            </g>
          </g>
          <g id="Grupo_1193042" data-name="Grupo 1193042" transform="translate(9.017 23.042)">
            <g id="Grupo_1193041" data-name="Grupo 1193041">
              <path id="Trazado_1006068" data-name="Trazado 1006068" d="M148.508,368H144.5a.5.5,0,1,0,0,1h4.007a.5.5,0,0,0,0-1Z" transform="translate(-144 -368)" fill="#4d5464"/>
            </g>
          </g>
        </g>
      </g>
    </g>
    <path id="Trazado_1006069" data-name="Trazado 1006069" d="M0,0H747.476" transform="translate(-5921.602 -8363.524) rotate(-90)" fill="none" stroke="#a4c2ff" stroke-linecap="round" stroke-width="7"/>
    <path id="Trazado_1006078" data-name="Trazado 1006078" d="M0,0H477.764" transform="translate(-5960 -8737.262) rotate(-90)" fill="none" stroke="#a4c2ff" stroke-linecap="round" stroke-width="7"/>
    <path id="Trazado_1006070" data-name="Trazado 1006070" d="M0,0H164.5" transform="translate(-5795.5 -9215.025) rotate(180)" fill="none" stroke="#a4c2ff" stroke-linecap="round" stroke-width="7"/>
    <path id="Trazado_1006071" data-name="Trazado 1006071" d="M0,0H38.6" transform="translate(-5883 -9111) rotate(180)" fill="none" stroke="#a4c2ff" stroke-linecap="round" stroke-width="7"/>
    <path id="Trazado_1006076" data-name="Trazado 1006076" d="M0,0H77" transform="translate(-5883 -8737) rotate(180)" fill="none" stroke="#a4c2ff" stroke-linecap="round" stroke-width="7"/>
    <path id="Trazado_1006077" data-name="Trazado 1006077" d="M0,0H38.6" transform="translate(-5883 -8363.524) rotate(180)" fill="none" stroke="#a4c2ff" stroke-linecap="round" stroke-width="7"/>
    <path id="Trazado_1006073" data-name="Trazado 1006073" d="M0,0H31.916" transform="translate(-5763.419 -9085.916) rotate(90)" fill="none" stroke="#a4c2ff" stroke-linecap="round" stroke-width="7"/>
    <path id="Trazado_1006074" data-name="Trazado 1006074" d="M0,0H31.916" transform="translate(-5763.081 -8711.916) rotate(90)" fill="none" stroke="#a4c2ff" stroke-linecap="round" stroke-width="7"/>
    <path id="Trazado_1006075" data-name="Trazado 1006075" d="M0,0H31.916" transform="translate(-5763 -8337.916) rotate(90)" fill="none" stroke="#a4c2ff" stroke-linecap="round" stroke-width="7"/>
    <path id="Trazado_1006079" data-name="Trazado 1006079" d="M0,0H31.916" transform="translate(-5795.5 -9246.941) rotate(90)" fill="none" stroke="#a4c2ff" stroke-linecap="round" stroke-width="7"/>
  </g>
</svg>
