<svg xmlns="http://www.w3.org/2000/svg" xmlns:xlink="http://www.w3.org/1999/xlink" width="96" height="96" viewBox="0 0 96 96">
  <defs>
    <clipPath id="clip-path">
      <rect id="Rect치ngulo_454535" data-name="Rect치ngulo 454535" width="25.231" height="26.467" fill="#e795ff"/>
    </clipPath>
  </defs>
  <g id="Grupo_1192980" data-name="Grupo 1192980" transform="translate(-1192.711 -1019)">
    <path id="Elipse_5729" data-name="Elipse 5729" d="M48,0A48,48,0,1,1,0,48,48,48,0,0,1,48,0Z" transform="translate(1192.711 1019)" fill="#cff878"/>
    <g id="Grupo_1192539" data-name="Grupo 1192539" transform="translate(1035 82)">
      <rect id="Rect치ngulo_455479" data-name="Rect치ngulo 455479" width="70" height="70" rx="35" transform="translate(170.711 950)" fill="#f8dfff"/>
      <g id="Grupo_1192527" data-name="Grupo 1192527" transform="translate(174.711 954)">
        <g id="Grupo_1176862" data-name="Grupo 1176862" clip-path="url(#clip-path)">
          <path id="Trazado_991676" data-name="Trazado 991676" d="M14.729,5.187,13.176.407a.589.589,0,0,0-1.12,0L10.5,5.187a.589.589,0,0,1-.906.294L5.53,2.527a.589.589,0,0,0-.906.658l1.553,4.78a.589.589,0,0,1-.56.771H.59A.589.589,0,0,0,.244,9.8l4.066,2.954a.589.589,0,0,1,0,.953L.244,16.664A.589.589,0,0,0,.59,17.73H5.617a.589.589,0,0,1,.56.771l-1.553,4.78a.589.589,0,0,0,.906.659L9.6,20.985a.589.589,0,0,1,.906.294l1.553,4.78a.589.589,0,0,0,1.12,0l1.553-4.78a.589.589,0,0,1,.906-.294L19.7,23.94a.589.589,0,0,0,.906-.658L19.055,18.5a.589.589,0,0,1,.56-.771h5.026a.589.589,0,0,0,.346-1.065L20.922,13.71a.589.589,0,0,1,0-.953L24.988,9.8a.589.589,0,0,0-.346-1.065H19.615a.589.589,0,0,1-.56-.771l1.553-4.78a.589.589,0,0,0-.906-.658L15.636,5.482a.589.589,0,0,1-.906-.294" transform="translate(0 0)" fill="#e795ff"/>
        </g>
      </g>
      <g id="Page-1" transform="translate(183.583 962.882)">
        <g id="_090---Person-Speaking" data-name="090---Person-Speaking" transform="translate(0 -0.014)">
          <g id="Icons" transform="translate(12.54 0.747)">
            <path id="Shape" d="M32.044,44.5c-1.969,2.087-6.277,5.089-15.017,5.827.03-.892.037-1.859-.007-2.81,8.43-.8,12.229-4.248,13.778-6.328A6.779,6.779,0,0,0,31.963,44.4C31.985,44.428,32.015,44.465,32.044,44.5Z" transform="translate(-4.468 -11.547)" fill="#ff9801"/>
            <path id="Shape-2" data-name="Shape" d="M31.966,44.4A6.779,6.779,0,0,1,30.8,41.19a11.941,11.941,0,0,1-1.757,1.869,5.123,5.123,0,0,0,.71,1.339c.022.03.052.066.081.1-1.794,1.9-5.541,4.557-12.8,5.572,0,.083,0,.173,0,.254,8.74-.738,13.047-3.739,15.017-5.827C32.017,44.465,31.988,44.428,31.966,44.4Z" transform="translate(-4.471 -11.547)" fill="#f57c00"/>
            <path id="Shape-3" data-name="Shape" d="M26.892,22.883a10.748,10.748,0,0,0-.819,5.546c.089.73.148,1.482.258,2.213-1.549,2.08-5.347,5.532-13.778,6.328-.111-2.648-.59-5.229-1.947-5.982a48.493,48.493,0,0,1-5.178,1.564,1.623,1.623,0,0,1-1.91-1.187c-.509-1.468.192-1.866-.03-2.744-.155-.6-.73-.752-1.18-1.077-.361-.258.642-1.468.642-1.468a4.174,4.174,0,0,1-1.3-.376c-.258-.221.1-.59.435-1.283a1.611,1.611,0,0,0,.111-.966c-.118-.642-1.092-.885-1.564-1.239-1-.745-1.047-.915,1.549-3.725A3.441,3.441,0,0,0,3.5,16.053c0-1.04-1.291-1.04-1.291-2.515s1.246-4.617,1.5-5.3a10.781,10.781,0,0,1,2.257-3.7,10.516,10.516,0,0,1,5.532-2.692C19,.115,22.762,1.066,27.032,4.429a9.264,9.264,0,0,1,3.349,4.816,17.685,17.685,0,0,1,.6,4.9c-.066,4.374-2.847,5.908-4.086,8.74Z" transform="translate(-0.002 -0.999)" fill="#ffe0b2"/>
            <path id="Shape-4" data-name="Shape" d="M35.439,14.145a17.684,17.684,0,0,0-.6-4.9,9.264,9.264,0,0,0-3.349-4.816A13.88,13.88,0,0,0,21.13,1.041a13.939,13.939,0,0,1,8.148,3.393A9.264,9.264,0,0,1,32.627,9.25a17.685,17.685,0,0,1,.6,4.894c-.066,4.374-2.847,5.908-4.086,8.74a10.749,10.749,0,0,0-.819,5.546c.089.73.148,1.482.258,2.213-1.407,1.889-4.681,4.9-11.58,6.038.005.1.011.193.015.291,8.43-.8,12.229-4.248,13.778-6.328-.111-.73-.17-1.482-.258-2.213a10.748,10.748,0,0,1,.819-5.546c1.239-2.832,4.02-4.366,4.086-8.74Z" transform="translate(-4.463 -1.001)" fill="#dfc49c"/>
            <path id="Shape-5" data-name="Shape" d="M35.359,54.7a.729.729,0,0,1-.73.8H17.459a.738.738,0,0,1-.73-.811c.074-.73.17-1.873.221-3.186C25.69,50.769,30,47.767,31.967,45.68a24.382,24.382,0,0,1,3.393,9.02Z" transform="translate(-4.39 -12.725)" fill="#ffdc00"/>
            <path id="Shape-6" data-name="Shape" d="M36.881,45.68a13.119,13.119,0,0,1-1.43,1.3,24.871,24.871,0,0,1,2.61,7.724.729.729,0,0,1-.73.8h2.213a.729.729,0,0,0,.73-.8,24.382,24.382,0,0,0-3.393-9.02Z" transform="translate(-9.305 -12.725)" fill="#fec108"/>
            <g id="Grupo_1192979" data-name="Grupo 1192979" transform="translate(16.963 2.951)">
              <path id="Shape-7" data-name="Shape" d="M33.326,13.113A.738.738,0,0,1,32.6,12.5c-.66-3.953-4.957-6.021-8.862-6.021a.738.738,0,1,1,0-1.475c4.526,0,9.522,2.492,10.316,7.255a.738.738,0,0,1-.606.848A.684.684,0,0,1,33.326,13.113Z" transform="translate(-23 -5)" fill="#f5f5f5"/>
              <ellipse id="Oval" cx="0.5" cy="1" rx="0.5" ry="1" transform="translate(9.626 9.434)" fill="#f5f5f5"/>
            </g>
          </g>
          <g id="Icons_copy">
            <path id="Shape-8" data-name="Shape" d="M13.535,34.11a.738.738,0,0,0-1.015.24,3.6,3.6,0,0,0,0,3.725.738.738,0,1,0,1.254-.774,2.126,2.126,0,0,1,0-2.176.738.738,0,0,0-.239-1.015Z" transform="translate(-3.149 -9.65)"/>
            <path id="Shape-9" data-name="Shape" d="M10.656,30.148a.738.738,0,0,0-1.033.153,8.113,8.113,0,0,0,0,9.73.738.738,0,0,0,1.18-.885,6.638,6.638,0,0,1,0-7.972.738.738,0,0,0-.148-1.027Z" transform="translate(-2.1 -8.601)"/>
            <path id="Shape-10" data-name="Shape" d="M7.54,28.18A.738.738,0,0,0,6.36,27.3a11.8,11.8,0,0,0,0,14.161.738.738,0,0,0,1.18-.885,10.326,10.326,0,0,1,0-12.391Z" transform="translate(-1.05 -7.813)"/>
            <path id="Shape-11" data-name="Shape" d="M3.1,42.882A.738.738,0,1,0,4.278,42a14.014,14.014,0,0,1,0-16.816A.738.738,0,0,0,3.1,24.3,15.489,15.489,0,0,0,3.1,42.882Z" transform="translate(0 -7.026)"/>
            <path id="Shape-12" data-name="Shape" d="M44.825,34.142a8.3,8.3,0,0,1-1.195-4.256c-.03-.273-.059-.538-.089-.811a9.894,9.894,0,0,1,.767-5.163,13.078,13.078,0,0,1,1.556-2.471,10.408,10.408,0,0,0,2.589-6.557,18.271,18.271,0,0,0-.627-5.1,10,10,0,0,0-3.607-5.2C39.492.856,35.413.17,28.075,1.859a11.347,11.347,0,0,0-5.9,2.906,11.444,11.444,0,0,0-2.412,3.946l-.1.273a19.181,19.181,0,0,0-1.446,5.288,2.619,2.619,0,0,0,.951,2.036c.288.273.339.339.339.487a2.472,2.472,0,0,1-.929,1.726l-.192.2c-1.785,1.925-2.449,2.729-2.375,3.548a1.837,1.837,0,0,0,.922,1.269,4.3,4.3,0,0,0,.642.376,2.3,2.3,0,0,1,.642.406.923.923,0,0,1-.059.516c-.081.184-.177.339-.251.479-.221.4-.642,1.136,0,1.674a1.782,1.782,0,0,0,.568.3,1.609,1.609,0,0,0-.229.944.913.913,0,0,0,.376.649c.14.1.28.177.428.266.332.184.435.258.465.391a1.106,1.106,0,0,1-.052.6,3.54,3.54,0,0,0,.1,2.205,2.36,2.36,0,0,0,2.751,1.667,46.317,46.317,0,0,0,4.912-1.468c1.254,1.143,1.689,5.392,1.114,11.086a1.494,1.494,0,0,0,.376,1.136,1.475,1.475,0,0,0,1.092.487h17.17a1.461,1.461,0,0,0,1.1-.494,1.443,1.443,0,0,0,.369-1.128,24.8,24.8,0,0,0-3.621-9.485ZM28.7,32.033c.14-.052.273-.1.4-.14.457-.162.8-.28.966-.332,2.611-.826,3.924-2.036,3.887-3.592a.766.766,0,0,0-.76-.723.729.729,0,0,0-.715.752c.007.465-.347,1.364-2.862,2.154-.177.059-.531.184-1,.347-.42.148-.937.332-1.5.524H27.1a47.184,47.184,0,0,1-5.082,1.541.9.9,0,0,1-1.062-.7,2.065,2.065,0,0,1-.059-1.387,2.59,2.59,0,0,0,.044-1.305,2.065,2.065,0,0,0-1.121-1.283,5.555,5.555,0,0,1,.435-.6.738.738,0,0,0,.118-.738.729.729,0,0,0-.583-.465c-.184-.03-.4-.066-.568-.111.081-.148.177-.317.266-.5a2.333,2.333,0,0,0,.17-1.423c-.148-.8-.878-1.173-1.416-1.446a3.035,3.035,0,0,1-.428-.243,4.113,4.113,0,0,1-.325-.258,16.282,16.282,0,0,1,1.977-2.375l.177-.184a3.872,3.872,0,0,0,1.335-2.744,2.033,2.033,0,0,0-.789-1.549,1.18,1.18,0,0,1-.5-.974A20.364,20.364,0,0,1,21.038,9.5l.1-.28a9.993,9.993,0,0,1,2.109-3.444A9.854,9.854,0,0,1,28.406,3.3c7.722-1.778,11.071-.575,14.906,2.441a8.482,8.482,0,0,1,3.09,4.447,16.588,16.588,0,0,1,.575,4.676,8.924,8.924,0,0,1-2.3,5.7,14.3,14.3,0,0,0-1.719,2.758,11.417,11.417,0,0,0-.878,5.93c.03.258.059.524.081.789.044.376.081.752.133,1.128-1.49,1.881-4.964,4.838-12.3,5.709A10.382,10.382,0,0,0,28.7,32.033ZM43.357,34.6c-1.829,1.741-5.753,4.315-13.3,5.1.007-.443.007-.892,0-1.342,6.859-.789,10.636-3.341,12.6-5.369a6.659,6.659,0,0,0,.7,1.615ZM29.808,43.775c.081-.774.155-1.66.2-2.589,7.567-.752,11.83-3.179,14.176-5.333a24.393,24.393,0,0,1,2.8,7.921Z" transform="translate(-4.2 -0.986)"/>
          </g>
        </g>
      </g>
    </g>
  </g>
</svg>
