<svg xmlns="http://www.w3.org/2000/svg" xmlns:xlink="http://www.w3.org/1999/xlink" width="96" height="96" viewBox="0 0 96 96">
  <defs>
    <clipPath id="clip-path">
      <rect id="Rect치ngulo_454535" data-name="Rect치ngulo 454535" width="25.231" height="26.467" fill="#e795ff"/>
    </clipPath>
  </defs>
  <g id="Grupo_1192981" data-name="Grupo 1192981" transform="translate(-1192.711 -1019)">
    <path id="Elipse_5729" data-name="Elipse 5729" d="M48,0A48,48,0,1,1,0,48,48,48,0,0,1,48,0Z" transform="translate(1192.711 1019)" fill="#cff878"/>
    <g id="Grupo_1192539" data-name="Grupo 1192539" transform="translate(1035 82)">
      <rect id="Rect치ngulo_455479" data-name="Rect치ngulo 455479" width="70" height="70" rx="35" transform="translate(170.711 950)" fill="#f8dfff"/>
      <g id="Grupo_1192527" data-name="Grupo 1192527" transform="translate(174.711 954)">
        <g id="Grupo_1176862" data-name="Grupo 1176862" clip-path="url(#clip-path)">
          <path id="Trazado_991676" data-name="Trazado 991676" d="M14.729,5.187,13.176.407a.589.589,0,0,0-1.12,0L10.5,5.187a.589.589,0,0,1-.906.294L5.53,2.527a.589.589,0,0,0-.906.658l1.553,4.78a.589.589,0,0,1-.56.771H.59A.589.589,0,0,0,.244,9.8l4.066,2.954a.589.589,0,0,1,0,.953L.244,16.664A.589.589,0,0,0,.59,17.73H5.617a.589.589,0,0,1,.56.771l-1.553,4.78a.589.589,0,0,0,.906.659L9.6,20.985a.589.589,0,0,1,.906.294l1.553,4.78a.589.589,0,0,0,1.12,0l1.553-4.78a.589.589,0,0,1,.906-.294L19.7,23.94a.589.589,0,0,0,.906-.658L19.055,18.5a.589.589,0,0,1,.56-.771h5.026a.589.589,0,0,0,.346-1.065L20.922,13.71a.589.589,0,0,1,0-.953L24.988,9.8a.589.589,0,0,0-.346-1.065H19.615a.589.589,0,0,1-.56-.771l1.553-4.78a.589.589,0,0,0-.906-.658L15.636,5.482a.589.589,0,0,1-.906-.294" transform="translate(0 0)" fill="#e795ff"/>
        </g>
      </g>
      <g id="Grupo_1192986" data-name="Grupo 1192986" transform="translate(178.071 957.361)">
        <g id="Grupo_1192984" data-name="Grupo 1192984" transform="translate(0.81 0.81)">
          <path id="Trazado_1005995" data-name="Trazado 1005995" d="M323.566,298.881a4.57,4.57,0,0,1-1.409-1.036,3.128,3.128,0,0,1-.27-.373h-.961l-2.308,3.314v4.551l2.758,1.046.935-.254C325.566,304.574,325.252,299.751,323.566,298.881Z" transform="translate(-285.027 -266.165)" fill="#6b7ed9"/>
          <path id="Trazado_1005996" data-name="Trazado 1005996" d="M161.312,291.53l-.167-.985-3.667,2.082-1.071,2.015.568,3.023s.792,1.083,1.561,2.149l5.234-2.077v-3.621Z" transform="translate(-140.331 -259.986)" fill="#6b7ed9"/>
          <path id="Trazado_1005997" data-name="Trazado 1005997" d="M292.278,276.538a1.525,1.525,0,0,1,.543-1.172,7.085,7.085,0,0,0,2.05-2.846,6.261,6.261,0,0,1-.811-2.584l-.385-.436h-2.23l-.18,2.519-2.933,3.758v3.368l3.948,1.5Z" transform="translate(-258.011 -241.212)" fill="#4d66d2"/>
          <path id="Trazado_1005998" data-name="Trazado 1005998" d="M139.924,274.523a3.848,3.848,0,0,0,2.244-2.716l-.278-1.641h-2.436l-.4.364a5.7,5.7,0,0,1-1.082,2.957,4.567,4.567,0,0,1-1.409,1.036c-1.7.878-2.2,5.787,1.135,7.292l1.11.155,1.5-.6C137.819,279.524,138.362,275.329,139.924,274.523Z" transform="translate(-121.448 -241.807)" fill="#4d66d2"/>
          <path id="Trazado_1005999" data-name="Trazado 1005999" d="M208.777,118.119l-.713-.992h-3.059l-2.2-2.257V111.7l-.847-.67a9.693,9.693,0,0,0-2.68-.355,9.538,9.538,0,0,0-2.536.361l-.919,1.635V115.4l-1.547,1.724H192.5v5.651s.163.539.329,1.046h15.866l.343-.242v-3.23A9.719,9.719,0,0,0,208.777,118.119Z" transform="translate(-172.525 -99.532)" fill="#6b7ed9"/>
          <g id="Grupo_1192982" data-name="Grupo 1192982" transform="translate(17.148 17.595)">
            <path id="Trazado_1006000" data-name="Trazado 1006000" d="M169.449,173.812a9.869,9.869,0,0,1,.284-2.355l.9-.992h-3.123l-.9.992a9.874,9.874,0,0,0-.285,2.355v3.108l1.186.242h3.123l-1.186-.242Z" transform="translate(-166.326 -170.465)" fill="#4d66d2"/>
          </g>
          <path id="Trazado_1006001" data-name="Trazado 1006001" d="M156.407,229.582l1.359,1.053H160.6v-2.375l-.463-.382h-1.559a2.506,2.506,0,0,0-2.171,1.254v.451Z" transform="translate(-140.33 -204.084)" fill="#ffb1a0"/>
          <path id="Trazado_1006002" data-name="Trazado 1006002" d="M320.151,230.634l.918-.675.244-.829a2.506,2.506,0,0,0-2.171-1.254h-1.559l-.418.51v2.247Z" transform="translate(-283.731 -204.084)" fill="#ffb1a0"/>
          <path id="Trazado_1006003" data-name="Trazado 1006003" d="M155.8,240.744a2.506,2.506,0,0,1-2.171-1.254,2.507,2.507,0,0,0,2.171,3.761h1.559l.463-.3v-2.508l-.463.3Z" transform="translate(-137.552 -214.443)" fill="#ffa68e"/>
          <path id="Trazado_1006004" data-name="Trazado 1006004" d="M319.142,240.744h-1.56l-.417-.306v2.508l.417.306h1.56a2.507,2.507,0,0,0,2.171-3.761A2.506,2.506,0,0,1,319.142,240.744Z" transform="translate(-283.732 -214.443)" fill="#ffa68e"/>
          <path id="Trazado_1006005" data-name="Trazado 1006005" d="M256.835,408.572l-1.619,0-1.512,2.605-1.871,1.346L250,411.963v6.244l.538.719h6.3l.613-.791v-8.758Z" transform="translate(-223.816 -365.267)" fill="#ffe559"/>
          <path id="Trazado_1006006" data-name="Trazado 1006006" d="M197.873,412.126,195,411.252l-2.3-2.683h-.9l-.831.64v8.709l.831,1.007h6.081Z" transform="translate(-171.153 -365.267)" fill="#ffd500"/>
          <path id="Trazado_1006007" data-name="Trazado 1006007" d="M256.834,327.174l-1.785-.691a.714.714,0,0,1-.456-.664l0-2.392-.9-.51H250v13.642a6.388,6.388,0,0,0,6.462-3.678q.176-.369.375-.713l.613-1.126v-3.05Z" transform="translate(-223.815 -288.862)" fill="#ffb1a0"/>
          <path id="Trazado_1006008" data-name="Trazado 1006008" d="M199.244,322.916h-3.183l-.66.524v2.374c0,.546-.487.678-.7.759l-1.543.6-.665.955v3.266l.665.772q.2.346.376.716a6.366,6.366,0,0,0,5.7,3.709Z" transform="translate(-172.524 -288.862)" fill="#ffa68e"/>
          <path id="Trazado_1006009" data-name="Trazado 1006009" d="M54.927,7.5H41c-.513.208-.957.4-.957.4L38.4,9.353,38,11V23.875l1.26,1.341,1.286.674,3.968.81.784.549a2.228,2.228,0,0,1,1.956-1.162h7.674a4,4,0,0,0,4-4V11.5a4,4,0,0,0-4-4Z" transform="translate(-34.706 -7.5)" fill="#60b9fe"/>
          <path id="Trazado_1006010" data-name="Trazado 1006010" d="M327.89,7.5H313.67l-1.587.612L311,10.055V23.191l1.084,1.655,1.828,1.24h5.432a2.223,2.223,0,0,1,1.185.343h3.1l1.171.988a2.227,2.227,0,0,1,2.038-1.331h1.049a4,4,0,0,0,4-4V11.5a4,4,0,0,0-4-4Z" transform="translate(-278.231 -7.5)" fill="#ffe559"/>
          <path id="Trazado_1006011" data-name="Trazado 1006011" d="M16.293,26.087H15.243a4,4,0,0,1-4-4V11.5a4,4,0,0,1,4-4H11.5a4,4,0,0,0-4,4V22.086a4,4,0,0,0,4,4H12.55a2.228,2.228,0,0,1,2.093,1.464l1,2.735a.7.7,0,0,0,1.315,0l1-2.735a2.224,2.224,0,0,1,.216-.435,2.228,2.228,0,0,0-1.877-1.029Z" transform="translate(-7.5 -7.5)" fill="#1ca8ff"/>
          <g id="Grupo_1192983" data-name="Grupo 1192983" transform="translate(29.438)">
            <path id="Trazado_1006012" data-name="Trazado 1006012" d="M283.9,22.086V11.5a4,4,0,0,1,4-4h-3.743a4,4,0,0,0-4,4V22.086a4,4,0,0,0,4,4H287.9A4,4,0,0,1,283.9,22.086Z" transform="translate(-280.154 -7.5)" fill="#ffd500"/>
            <path id="Trazado_1006013" data-name="Trazado 1006013" d="M392.027,179.654h-3.743a2.228,2.228,0,0,1,2.093,1.464l1,2.735a.7.7,0,0,0,1.315,0l1-2.735a2.231,2.231,0,0,1,.216-.435A2.227,2.227,0,0,0,392.027,179.654Z" transform="translate(-376.61 -161.067)" fill="#ffd500"/>
          </g>
          <path id="Trazado_1006014" data-name="Trazado 1006014" d="M230.117,200.74c-.22,0-.237-.006-1.456-.109a4.076,4.076,0,0,1-3.545-3.084.118.118,0,0,0-.23,0,4.09,4.09,0,0,1-3.416,3.074l-.221.42v6.334l1.341,3.293,1.727,1.134,2.184.757a7.025,7.025,0,0,0,5.522-6.842V200.74Z" transform="translate(-198.171 -176.946)" fill="#ffcebe"/>
          <path id="Trazado_1006015" data-name="Trazado 1006015" d="M194.453,231.94v-5.164c-.056.007-.112.013-.168.017.1-.008-1.248.1-1.487.1h-1.836v5.045a6.928,6.928,0,0,0,7.094,6.922,6.778,6.778,0,0,0,1.7-.212A6.878,6.878,0,0,1,194.453,231.94Z" transform="translate(-171.154 -203.102)" fill="#ffb1a0"/>
          <path id="Trazado_1006016" data-name="Trazado 1006016" d="M118.227,364.812l-.92.79-1.627,2.888v8.232l.768.953h8.191v-15.35Z" transform="translate(-104 -324.017)" fill="#60b9fe"/>
          <path id="Trazado_1006017" data-name="Trazado 1006017" d="M90.587,395.39v-6.734a6.71,6.71,0,0,1,2.62-5.273l-2.327.9a6.592,6.592,0,0,0-3.862,5.99v4.9A1.286,1.286,0,0,0,88.3,396.46h2.856A1.284,1.284,0,0,1,90.587,395.39Z" transform="translate(-78.433 -342.801)" fill="#1ca8ff"/>
          <path id="Trazado_1006018" data-name="Trazado 1006018" d="M321.516,365.523l-8.193-3.173V377.7h10.769a1.286,1.286,0,0,0,1.286-1.286v-4.9A6.592,6.592,0,0,0,321.516,365.523Z" transform="translate(-280.304 -324.038)" fill="#60b9fe"/>
        </g>
        <g id="Grupo_1192985" data-name="Grupo 1192985" transform="translate(0 0)">
          <path id="Trazado_1006019" data-name="Trazado 1006019" d="M73.967,47.01a.81.81,0,0,0-.634-.954,10.619,10.619,0,0,1-4.286-1.817A9.882,9.882,0,0,0,71.36,39.9h1.952a.81.81,0,0,0,0-1.619H68.659v-1.9a.81.81,0,0,0-1.619,0v1.9H62.387a.81.81,0,1,0,0,1.619h1.952a9.883,9.883,0,0,0,2.3,4.334,10.528,10.528,0,0,1-4.278,1.825.81.81,0,0,0,.32,1.587,12.032,12.032,0,0,0,5.163-2.292,12.146,12.146,0,0,0,5.324,2.309.81.81,0,0,0,.793-.65Zm-6.129-3.857A8.208,8.208,0,0,1,66.007,39.9h3.678A8.364,8.364,0,0,1,67.838,43.152Z" transform="translate(-54.929 -31.726)"/>
          <path id="Trazado_1006020" data-name="Trazado 1006020" d="M352.837,35.566a.81.81,0,0,0-.757.523L348.11,46.562a.81.81,0,1,0,1.514.574l.785-2.072a.81.81,0,0,0,.081,0h4.731l.042,0,.784,2.07a.81.81,0,1,0,1.514-.574l-3.969-10.474A.809.809,0,0,0,352.837,35.566Zm-1.815,7.883,1.815-4.788,1.815,4.788Z" transform="translate(-310.479 -31.726)"/>
          <path id="Trazado_1006021" data-name="Trazado 1006021" d="M50.468,0H34.248a4.816,4.816,0,0,0-4.81,4.81v6.483a10.492,10.492,0,0,0-1.877-.154,10.38,10.38,0,0,0-1.72.156V4.81A4.816,4.816,0,0,0,21.031,0H4.81A4.816,4.816,0,0,0,0,4.81V15.4a4.816,4.816,0,0,0,4.81,4.811H5.86a1.423,1.423,0,0,1,1.332.932l1,2.735a1.51,1.51,0,0,0,2.837,0l1-2.735a1.423,1.423,0,0,1,1.332-.932h3.9a10.721,10.721,0,0,0-.113,1.545V24.4a3.314,3.314,0,0,0,.378,5.651,3.294,3.294,0,0,1-1.968,2.755c-1.1.569-1.812,2.177-1.765,4a5.438,5.438,0,0,0,1.56,3.805l-2.39.926-.015.006a7.382,7.382,0,0,0-4.363,6.739v4.9a2.1,2.1,0,0,0,2.1,2.1H44.6a2.1,2.1,0,0,0,2.1-2.1v-4.9a7.382,7.382,0,0,0-4.363-6.739l-.016-.006-2.525-.978A5.658,5.658,0,0,0,41.4,36.553a4.054,4.054,0,0,0-1.68-3.747,3.754,3.754,0,0,1-1.165-.843,4.393,4.393,0,0,1-.8-1.912,3.314,3.314,0,0,0,.379-5.65V21.631a10.579,10.579,0,0,0-.1-1.424h3.888a1.423,1.423,0,0,1,1.332.932l1,2.735a1.5,1.5,0,0,0,1.418.992h0a1.5,1.5,0,0,0,1.419-.992l1-2.735a1.423,1.423,0,0,1,1.332-.932h1.049a4.816,4.816,0,0,0,4.81-4.81v-3.62a.81.81,0,1,0-1.619,0V15.4a3.2,3.2,0,0,1-3.191,3.191H49.419a3.048,3.048,0,0,0-2.854,2l-.895,2.453-.895-2.453a3.047,3.047,0,0,0-2.854-2H34.248A3.2,3.2,0,0,1,31.057,15.4V4.81a3.2,3.2,0,0,1,3.191-3.191h16.22A3.2,3.2,0,0,1,53.659,4.81V8a.81.81,0,0,0,1.619,0V4.81A4.816,4.816,0,0,0,50.468,0ZM13.357,18.587a3.048,3.048,0,0,0-2.854,2l-.895,2.453-.895-2.453a3.048,3.048,0,0,0-2.854-2H4.81A3.194,3.194,0,0,1,1.62,15.4V4.81A3.2,3.2,0,0,1,4.81,1.619h16.22A3.2,3.2,0,0,1,24.221,4.81V15.4a3.2,3.2,0,0,1-3.191,3.191H13.357Zm4,8.524a1.7,1.7,0,0,1,1.7-1.7h.75v3.4h-.75A1.7,1.7,0,0,1,17.36,27.111Zm3.278,26.548H16.161V47.527a.81.81,0,1,0-1.619,0v6.132h-3.86a.476.476,0,0,1-.476-.476v-4.9a5.8,5.8,0,0,1,3.353-5.238L20.639,40.3C20.638,41.377,20.638,53.158,20.638,53.659Zm-3.53-13.726a3.689,3.689,0,0,1-1.7-3.167,3,3,0,0,1,.888-2.52,4.834,4.834,0,0,0,2.8-3.818h.746a7.688,7.688,0,0,0,3.03,5.381V37.7l-5.768,2.236ZM27.736,35.76a6.159,6.159,0,0,1-6.309-6.142V25.413a18.947,18.947,0,0,0,2.575-.1h0a4.851,4.851,0,0,0,3.637-2.173A4.849,4.849,0,0,0,31.231,25.3a17.139,17.139,0,0,0,2.62.112v4.159a6.16,6.16,0,0,1-6.116,6.188ZM33.019,43.9A6.036,6.036,0,0,1,29.2,47.51a.81.81,0,0,0,.445,1.557,7.085,7.085,0,0,0,3.376-2.124v6.716H22.258V46.94a7.089,7.089,0,0,0,3.134,2.054.81.81,0,0,0,.5-1.541A6.105,6.105,0,0,1,22.258,43.9V39.674l1.026-.4A1.563,1.563,0,0,0,24.5,37.762h0V36.738a8.018,8.018,0,0,0,6.281.007v1.024a1.517,1.517,0,0,0,.974,1.417l1.267.491V43.9Zm8.7-.856a5.8,5.8,0,0,1,3.353,5.238v4.9a.476.476,0,0,1-.476.476H40.737V47.527a.81.81,0,1,0-1.619,0v6.132h-4.48V40.3Zm-2.743-8.8a2.721,2.721,0,0,1,.8,2.283,3.99,3.99,0,0,1-1.742,3.355L32.4,37.7l0-1.912a7.836,7.836,0,0,0,3.029-5.359h.754a5.9,5.9,0,0,0,1.147,2.588h0a5.284,5.284,0,0,0,1.654,1.23Zm-1.06-7.135a1.7,1.7,0,0,1-1.7,1.7h-.75v-3.4h.75A1.7,1.7,0,0,1,37.918,27.111Zm-3.67-6.9H36.4a8.956,8.956,0,0,1,.114,1.424v2.176c-.086-.008-.2-.013-.291-.013a32.9,32.9,0,0,1-4.852-.106,3.25,3.25,0,0,1-2.827-2.468.928.928,0,0,0-1.8,0,3.293,3.293,0,0,1-2.859,2.474H23.86s-1.217.1-1.407.1h-3.4c-.1,0-.217.006-.291.013V21.752a9.087,9.087,0,0,1,.132-1.545h2.131a4.816,4.816,0,0,0,4.81-4.811V12.944a8.871,8.871,0,0,1,3.6,0V15.4h0a4.816,4.816,0,0,0,4.81,4.81Z" transform="translate(0 0)"/>
        </g>
      </g>
    </g>
  </g>
</svg>
