<svg xmlns="http://www.w3.org/2000/svg" xmlns:xlink="http://www.w3.org/1999/xlink" width="96" height="96" viewBox="0 0 96 96">
  <defs>
    <clipPath id="clip-path">
      <rect id="Rect치ngulo_454535" data-name="Rect치ngulo 454535" width="25.231" height="26.467" fill="#e795ff"/>
    </clipPath>
  </defs>
  <g id="Grupo_1192987" data-name="Grupo 1192987" transform="translate(-1192.711 -1019)">
    <path id="Elipse_5729" data-name="Elipse 5729" d="M48,0A48,48,0,1,1,0,48,48,48,0,0,1,48,0Z" transform="translate(1192.711 1019)" fill="#cff878"/>
    <g id="Grupo_1192539" data-name="Grupo 1192539" transform="translate(1035 82)">
      <rect id="Rect치ngulo_455479" data-name="Rect치ngulo 455479" width="70" height="70" rx="35" transform="translate(170.711 950)" fill="#f8dfff"/>
      <g id="Grupo_1192527" data-name="Grupo 1192527" transform="translate(174.711 954)">
        <g id="Grupo_1176862" data-name="Grupo 1176862" clip-path="url(#clip-path)">
          <path id="Trazado_991676" data-name="Trazado 991676" d="M14.729,5.187,13.176.407a.589.589,0,0,0-1.12,0L10.5,5.187a.589.589,0,0,1-.906.294L5.53,2.527a.589.589,0,0,0-.906.658l1.553,4.78a.589.589,0,0,1-.56.771H.59A.589.589,0,0,0,.244,9.8l4.066,2.954a.589.589,0,0,1,0,.953L.244,16.664A.589.589,0,0,0,.59,17.73H5.617a.589.589,0,0,1,.56.771l-1.553,4.78a.589.589,0,0,0,.906.659L9.6,20.985a.589.589,0,0,1,.906.294l1.553,4.78a.589.589,0,0,0,1.12,0l1.553-4.78a.589.589,0,0,1,.906-.294L19.7,23.94a.589.589,0,0,0,.906-.658L19.055,18.5a.589.589,0,0,1,.56-.771h5.026a.589.589,0,0,0,.346-1.065L20.922,13.71a.589.589,0,0,1,0-.953L24.988,9.8a.589.589,0,0,0-.346-1.065H19.615a.589.589,0,0,1-.56-.771l1.553-4.78a.589.589,0,0,0-.906-.658L15.636,5.482a.589.589,0,0,1-.906-.294" transform="translate(0 0)" fill="#e795ff"/>
        </g>
      </g>
      <g id="Grupo_1193001" data-name="Grupo 1193001" transform="translate(112.666 950.677)">
        <g id="Grupo_1192999" data-name="Grupo 1192999" transform="translate(68.818 1.006)">
          <g id="Grupo_1192998" data-name="Grupo 1192998" transform="translate(0)">
            <g id="Grupo_1192994" data-name="Grupo 1192994" transform="translate(3.798)">
              <path id="Trazado_1006022" data-name="Trazado 1006022" d="M213.808,174.02a11.019,11.019,0,0,0,6.19-2.33,1.062,1.062,0,0,0-.219-1.847l-.008,0a3.727,3.727,0,0,1-2.218-3.407v-5.566h-8.569v5.566a3.728,3.728,0,0,1-1.772,3.172l-.026.015a1.06,1.06,0,0,0-.1,1.77A11.508,11.508,0,0,0,213.808,174.02Z" transform="translate(-192.842 -140.303)" fill="#ffddce"/>
              <g id="Grupo_1192993" data-name="Grupo 1192993">
                <g id="Grupo_1192992" data-name="Grupo 1192992">
                  <g id="Grupo_1192991" data-name="Grupo 1192991">
                    <g id="Grupo_1192988" data-name="Grupo 1192988" transform="translate(9.223 2.201)">
                      <path id="Trazado_1006023" data-name="Trazado 1006023" d="M194.827,34.77a1.584,1.584,0,0,0-1.581-1.587l-.593,0-.01-2.39c-.021-5.008-4.154-6.849-8.736-6.881-4.562.071-8.685,1.928-8.664,6.955l.007,1.685,0,.705h-.562a2.265,2.265,0,0,0-2.263,2.266V37.58a2.264,2.264,0,0,0,2.265,2.263h.581a8.235,8.235,0,0,0,2.769,6.04,8.829,8.829,0,0,0,11.907-.051,8.237,8.237,0,0,0,2.719-6.063l.6,0a1.584,1.584,0,0,0,1.568-1.6Z" transform="translate(-172.427 -23.914)" fill="#ffece4"/>
                    </g>
                    <path id="Trazado_1006024" data-name="Trazado 1006024" d="M132.882,226.832c-.235-.045-.843-.167-1.54-.307a3.672,3.672,0,0,1-.777-.25,9.231,9.231,0,0,1-12.348-.042c-.072-.062-.141-.128-.211-.193a3.714,3.714,0,0,1-1.223.485c-.7.14-1.3.262-1.54.307a14.313,14.313,0,0,0-11.608,14.055v6.966a2.924,2.924,0,0,0,2.924,2.924h35.007a2.924,2.924,0,0,0,2.924-2.924v-6.966A14.313,14.313,0,0,0,132.882,226.832Z" transform="translate(-103.636 -196.739)" fill="#88a8d8"/>
                    <g id="Grupo_1192989" data-name="Grupo 1192989" transform="translate(24.041 29.536)">
                      <path id="Trazado_1006025" data-name="Trazado 1006025" d="M288.147,228.351c-.235-.045-.843-.167-1.54-.307a3.68,3.68,0,0,1-.777-.25,9.868,9.868,0,0,1-2.889,1.735A14.316,14.316,0,0,1,291,242.406v6.966a2.924,2.924,0,0,1-2.924,2.924h8.752a2.924,2.924,0,0,0,2.924-2.924v-6.966A14.313,14.313,0,0,0,288.147,228.351Z" transform="translate(-282.941 -227.794)" fill="#7296d1"/>
                    </g>
                    <path id="Trazado_1006026" data-name="Trazado 1006026" d="M127.522,253.45c-5.437-3.68-13.668-3.906-17.006-3.828a1.519,1.519,0,0,0-1.483,1.519v21.926a1.517,1.517,0,0,0,1.554,1.519c3.2-.069,10.675.15,16.044,3.271a4.184,4.184,0,0,0,4.211,0c7-4.071,17.591-3.2,17.6-3.2V251.14a1.519,1.519,0,0,0-1.483-1.519c-3.337-.078-11.568.149-17.006,3.828A2.165,2.165,0,0,1,127.522,253.45Z" transform="translate(-108.309 -217.149)" fill="#f7f4f7"/>
                    <g id="Grupo_1192990" data-name="Grupo 1192990" transform="translate(30.052 32.461)">
                      <path id="Trazado_1006027" data-name="Trazado 1006027" d="M336.369,249.621a43,43,0,0,0-8.6.659,1.519,1.519,0,0,1,1.326,1.507v23.236a42.711,42.711,0,0,1,8.752-.369V251.14A1.519,1.519,0,0,0,336.369,249.621Z" transform="translate(-327.774 -249.61)" fill="#edeaed"/>
                    </g>
                    <path id="Trazado_1006028" data-name="Trazado 1006028" d="M195.878,9.6a2.131,2.131,0,0,0-2.131-2.1h-9.454a6.864,6.864,0,0,0-6.864,6.864V18.9a1.566,1.566,0,0,0,1.051,1.479l1.691.589a.908.908,0,0,0,1.207-.859l0-3.2q0-.077,0-.153a2.192,2.192,0,0,1,3.834-1.3c1.559,1.743,4.762,4.4,9.16,3.336a1.1,1.1,0,0,1,1.247.572h0a2.034,2.034,0,0,0,2.489,1.013,1.566,1.566,0,0,0,1.051-1.479V12.913a2.094,2.094,0,0,0-2.06-2.094A1.24,1.24,0,0,1,195.878,9.6Z" transform="translate(-167.534 -7.5)" fill="#89808c"/>
                    <path id="Trazado_1006029" data-name="Trazado 1006029" d="M248.079,35.082a1.584,1.584,0,0,0-1.581-1.587l-.593,0-.01-2.39c-.019-4.588-3.489-6.516-7.594-6.833a5.387,5.387,0,0,1,1.022,3.163l0,12.643a8.237,8.237,0,0,1-2.719,6.063,9.513,9.513,0,0,1-2.684,1.677,8.921,8.921,0,0,0,3.336.658,9.06,9.06,0,0,0,5.944-2.335,8.237,8.237,0,0,0,2.719-6.063l.6,0a1.584,1.584,0,0,0,1.568-1.6Z" transform="translate(-216.456 -22.025)" fill="#ffddce"/>
                    <path id="Trazado_1006030" data-name="Trazado 1006030" d="M241.43,10.819A1.241,1.241,0,0,1,240.21,9.6a2.131,2.131,0,0,0-2.131-2.1H229.32a5.413,5.413,0,0,1,5.413,5.411l0,5.88a8.17,8.17,0,0,0,3.967,0,1.1,1.1,0,0,1,1.247.572h0a2.034,2.034,0,0,0,2.489,1.013A1.566,1.566,0,0,0,243.49,18.9V12.913A2.094,2.094,0,0,0,241.43,10.819Z" transform="translate(-211.866 -7.5)" fill="#756e78"/>
                  </g>
                </g>
              </g>
            </g>
            <g id="Grupo_1192997" data-name="Grupo 1192997" transform="translate(3.207 35.901)">
              <g id="Grupo_1192995" data-name="Grupo 1192995" transform="translate(0 0)">
                <path id="Trazado_1006031" data-name="Trazado 1006031" d="M288.184,275.28c-3.424-.079-11.673.143-17.459,3.651v26.612q.137-.067.27-.145c6-3.488,14.47-3.578,17.573-3.477a1.162,1.162,0,0,0,1.2-1.163V276.9A1.62,1.62,0,0,0,288.184,275.28Z" transform="translate(-247.732 -275.268)" fill="#ecbe6b"/>
                <path id="Trazado_1006032" data-name="Trazado 1006032" d="M118.272,278.931c-5.786-3.508-14.036-3.731-17.459-3.651a1.62,1.62,0,0,0-1.582,1.62v23.858a1.162,1.162,0,0,0,1.2,1.163c3.1-.1,11.571-.011,17.573,3.477q.133.077.27.144Z" transform="translate(-99.23 -275.268)" fill="#ecbe6b"/>
              </g>
              <g id="Grupo_1192996" data-name="Grupo 1192996" transform="translate(31.26)">
                <path id="Trazado_1006033" data-name="Trazado 1006033" d="M341.575,275.28a45.822,45.822,0,0,0-9.193.707l.425.008a1.62,1.62,0,0,1,1.582,1.62v23.858a1.16,1.16,0,0,1-.4.879,47.026,47.026,0,0,1,7.971-.431,1.162,1.162,0,0,0,1.2-1.163V276.9A1.62,1.62,0,0,0,341.575,275.28Z" transform="translate(-332.382 -275.268)" fill="#e8ae4d"/>
              </g>
              <path id="Trazado_1006034" data-name="Trazado 1006034" d="M239.656,301.633c-.194-.123-.391-.242-.59-.357v26.631l.023.013a4.463,4.463,0,0,0,4.491,0l.023-.013v-26.63q-.3.173-.59.357A3.124,3.124,0,0,1,239.656,301.633Z" transform="translate(-220.317 -297.789)" fill="#e49542"/>
            </g>
            <path id="Trazado_1006035" data-name="Trazado 1006035" d="M76.773,347.641l1.746-1.07v1.7a1.269,1.269,0,0,0,1.269,1.269h.833a2.293,2.293,0,0,1,2.293,2.293v2.987a1.432,1.432,0,0,1-1.432,1.432H78.612a3.3,3.3,0,0,1-3.3-3.3v-2.708A3.059,3.059,0,0,1,76.773,347.641Z" transform="translate(-75.312 -301.11)" fill="#ffece4"/>
            <path id="Trazado_1006036" data-name="Trazado 1006036" d="M386.136,347.641l-1.746-1.07v1.7a1.269,1.269,0,0,1-1.269,1.269h-.833A2.293,2.293,0,0,0,380,351.838v2.987a1.432,1.432,0,0,0,1.432,1.432H384.3a3.3,3.3,0,0,0,3.3-3.3v-2.708A3.059,3.059,0,0,0,386.136,347.641Z" transform="translate(-339.145 -301.11)" fill="#ffddce"/>
          </g>
        </g>
        <g id="Grupo_1193000" data-name="Grupo 1193000" transform="translate(67.813 0)">
          <path id="Trazado_1006037" data-name="Trazado 1006037" d="M297.389,328.2a1.006,1.006,0,1,0,.631,1.91,37.529,37.529,0,0,1,9.869-1.641,1.006,1.006,0,1,0-.083-2.01A39.548,39.548,0,0,0,297.389,328.2Z" transform="translate(-266.011 -282.689)"/>
          <path id="Trazado_1006038" data-name="Trazado 1006038" d="M115.066,45.9V44.636a1.006,1.006,0,0,0-2.011,0v3.574a.263.263,0,0,1-.259.226h-.833a3.3,3.3,0,0,0-3.3,3.3V54.72a2.441,2.441,0,0,0,2.438,2.438h1.953V62.4a.156.156,0,0,1-.161.158c-3.112-.1-10.588,0-16.576,2.814V40.992c5.55-2.97,13.089-3.138,16.137-3.067a.63.63,0,0,1,.111.014l.013,0a.611.611,0,0,1,.476.6v1.384a1.006,1.006,0,0,0,2.011,0V38.539a2.61,2.61,0,0,0-1.314-2.281V35a2.51,2.51,0,0,0-2.466-2.525c-.864-.02-2.059-.02-3.454.055a15.188,15.188,0,0,0-5.78-2.416,9.579,9.579,0,0,1-2.1-.487h0a2.724,2.724,0,0,1-1.62-2.488v-.029a10.951,10.951,0,0,0,1.695-1.227,9.161,9.161,0,0,0,3-5.84,2.6,2.6,0,0,0,2.227-2.584l-.007-3.4a2.6,2.6,0,0,0-.138-.822,2.562,2.562,0,0,0,.139-.83V6.419a3.114,3.114,0,0,0-3.049-3.1.234.234,0,0,1-.231-.231A3.15,3.15,0,0,0,98.829,0H89.374a7.9,7.9,0,0,0-7.7,6.247,1.006,1.006,0,0,0,1.968.413,5.881,5.881,0,0,1,5.734-4.649h9.454a1.131,1.131,0,0,1,1.126,1.108,2.237,2.237,0,0,0,2.209,2.211,1.094,1.094,0,0,1,1.071,1.088v5.988a.561.561,0,0,1-.376.529,1.031,1.031,0,0,1-1.259-.513,2.1,2.1,0,0,0-2.383-1.1c-3.91.945-6.8-1.492-8.174-3.029a3.221,3.221,0,0,0-3.49-.888,3.1,3.1,0,0,0-2.1,2.808c-.008.167,0-.031,0,3.266l-1.562-.544a.561.561,0,0,1-.376-.529V11.148a1.006,1.006,0,0,0-2.011,0v1.258a2.566,2.566,0,0,0,.03.388,3.259,3.259,0,0,0-.7,2.025v2.053a3.275,3.275,0,0,0,2.919,3.249A9.159,9.159,0,0,0,86.8,25.935a11.3,11.3,0,0,0,.953.737v.463a2.707,2.707,0,0,1-1.294,2.317h0a6.481,6.481,0,0,1-2.424.66,15.189,15.189,0,0,0-5.781,2.417c-1.395-.075-2.59-.075-3.453-.055A2.51,2.51,0,0,0,72.334,35v1.262a2.611,2.611,0,0,0-1.314,2.281V45.9c-.46.407-3.207,1.289-3.207,4.241v2.708a4.313,4.313,0,0,0,3.207,4.163V62.4a2.167,2.167,0,0,0,2.238,2.168c9.628-.313,15.1,2.224,17.013,3.329h0l0,0,.025.014a5.484,5.484,0,0,0,5.492,0l.026-.015h0c1.91-1.106,7.388-3.641,17.011-3.328a2.167,2.167,0,0,0,2.238-2.168V57.016a4.313,4.313,0,0,0,3.21-4.164V50.145c0-2.948-2.764-3.849-3.21-4.243ZM85.693,19.109a1.006,1.006,0,0,0-1.005-.98h-.582a1.26,1.26,0,0,1-1.259-1.258c0-2.169-.009-2.06.008-2.2a2.573,2.573,0,0,0,.376.166l1.691.589a1.914,1.914,0,0,0,2.544-1.81c0-3.723-.005-3.228,0-3.3a1.116,1.116,0,0,1,.761-1.01,1.2,1.2,0,0,1,1.319.333c1.674,1.872,5.219,4.834,10.146,3.643a.1.1,0,0,1,.112.044,3.047,3.047,0,0,0,3.435,1.6l.005,2.543a.58.58,0,0,1-.566.591l-.6,0a1.006,1.006,0,0,0-1,.988A7.23,7.23,0,0,1,98.7,24.368a7.835,7.835,0,0,1-10.585.045,7.228,7.228,0,0,1-2.422-5.3ZM96.4,27.977a4.736,4.736,0,0,0,1.41,2.6,8.153,8.153,0,0,1-9.254-.286,4.685,4.685,0,0,0,1.168-2.547A9.625,9.625,0,0,0,96.4,27.977ZM84.414,32.086a11.606,11.606,0,0,0,2.424-.576,10.2,10.2,0,0,0,12.9.172c.3.088,1.634.346,1.935.4a13.328,13.328,0,0,1,2.595.778,25.315,25.315,0,0,0-10.573,3.609,1.155,1.155,0,0,1-1.3,0,25.314,25.314,0,0,0-10.574-3.609A13.32,13.32,0,0,1,84.414,32.086Zm-9.568,2.4c.891-.021,2.155-.019,3.627.069H78.5c3.815.231,9.019,1.048,12.768,3.585a3.157,3.157,0,0,0,3.555,0c5.206-3.523,13.216-3.73,16.419-3.656a.51.51,0,0,1,.5.514V35.9c-5.722-.035-12.73.931-17.558,4a2.106,2.106,0,0,1-2.279,0c-4.817-3.063-11.824-4.034-17.558-4V35a.51.51,0,0,1,.5-.514ZM69.824,52.853V50.145a2.192,2.192,0,0,1,1.2-1.883,2.277,2.277,0,0,0,2.273,2.185h.833a1.289,1.289,0,0,1,1.287,1.287V54.72a.427.427,0,0,1-.427.427H72.119a2.3,2.3,0,0,1-2.294-2.294Zm3.368,9.7a.157.157,0,0,1-.161-.158V57.158h1.956a2.441,2.441,0,0,0,2.438-2.438V51.733a3.3,3.3,0,0,0-3.3-3.3h-.833a.263.263,0,0,1-.263-.257V38.539a.611.611,0,0,1,.475-.6l.014,0a.63.63,0,0,1,.11-.013c3.048-.071,10.587.1,16.137,3.067V65.37C83.78,62.559,76.3,62.455,73.192,62.556ZM94.306,66.4a3.475,3.475,0,0,1-2.527,0V42.046a4.17,4.17,0,0,0,2.527,0Zm21.959-13.546a2.3,2.3,0,0,1-2.294,2.294H111.1a.427.427,0,0,1-.427-.427V51.733a1.289,1.289,0,0,1,1.287-1.287h.833a2.281,2.281,0,0,0,2.273-2.185l.216.133a2.066,2.066,0,0,1,.98,1.751v2.708Z" transform="translate(-67.813 0)"/>
        </g>
      </g>
    </g>
  </g>
</svg>
