<svg xmlns="http://www.w3.org/2000/svg" width="292" height="200" viewBox="0 0 292 200">
  <g id="Grupo_1192978" data-name="Grupo 1192978" transform="translate(-1122 -787.863)">
    <path id="Rectángulo_455545" data-name="Rectángulo 455545" d="M60,0H232a60,60,0,0,1,60,60v91a10,10,0,0,1-10,10H10A10,10,0,0,1,0,151V60A60,60,0,0,1,60,0Z" transform="translate(1122 812.863)" fill="#ecf2fe"/>
    <g id="_x30_4" transform="translate(1157.032 787.863)">
      <g id="Grupo_1192633" data-name="Grupo 1192633" transform="translate(17.999)">
        <path id="Trazado_1005270" data-name="Trazado 1005270" d="M24.042,200A6.044,6.044,0,0,1,18,193.957V87.551A87.745,87.745,0,0,1,25.461,52.12c.019-.043.11-.234.14-.293,4.2-8.309,8.943-16.337,15.235-23.25A88.992,88.992,0,0,1,69.587,7.7,86.91,86.91,0,0,1,100.541.144l.246-.016C102.361.043,103.965,0,105.549,0c24.323,0,46.73,3.852,66.157,19.692A88.389,88.389,0,0,1,203.938,87.55V193.956A6.044,6.044,0,0,1,197.894,200H24.042Z" transform="translate(-17.999 0)" fill="#fff"/>
        <g id="Grupo_1192632" data-name="Grupo 1192632" transform="translate(7.071 6.556)">
          <path id="Trazado_1005271" data-name="Trazado 1005271" d="M209.954,150.091v23.531a40.112,40.112,0,0,1-8.1,24.3L165.59,204.7H36.1V98.293c0-1.057.02-2.105.061-3.153a81.217,81.217,0,0,1,5.691-26.995Q42.4,66.771,43,65.426c.614-1.39,1.269-2.77,1.954-4.13A81.736,81.736,0,0,1,51.291,50.9c.816-1.138,1.652-2.246,2.518-3.334q1.647-2.07,3.414-4.019a1.935,1.935,0,0,1,.141-.161,81.3,81.3,0,0,1,60.244-26.6h10.838a81.1,81.1,0,0,1,38.971,9.9q3.309,1.8,6.406,3.888c1.44.967,2.82,1.974,4.2,3.022a81.759,81.759,0,0,1,8.985,8.008c.635.655,1.249,1.32,1.864,1.994.232.252.453.5.675.755.947,1.068,1.863,2.166,2.75,3.284a78.456,78.456,0,0,1,4.795,6.7,80.377,80.377,0,0,1,5.439,9.941q1.375,2.991,2.508,6.114c1.007,2.74-7.364,5.088-6.659,7.948,1.423,5.775-5.329,6.659-5.143,12.6.054,1.736,10.245,8.007,8.564,8.693a19.74,19.74,0,0,0-6.275,3.874,14.489,14.489,0,0,0-4.318,10.841c.074,8.912,5.3,17.581,10.186,24.7,1.862,2.714,3.85,5.342,5.931,7.892C207.754,147.469,209.954,149.376,209.954,150.091Z" transform="translate(-36.102 -16.785)" fill="#977bff"/>
          <g id="Grupo_1192631" data-name="Grupo 1192631" transform="translate(0)">
            <path id="Trazado_1005272" data-name="Trazado 1005272" d="M265.37,48.738l7.551-19.152.356,19.907,19.337,4.558-14.292,6.714L281.3,76.858,265.647,64.221l-13.061,10.37L259.9,57.148l-15.218-8.279Z" transform="translate(-163.205 -24.585)" fill="#f8bdff"/>
            <path id="Trazado_1005273" data-name="Trazado 1005273" d="M347.006,291.014l7.551-19.152.356,19.907,19.338,4.558-14.292,6.714,2.979,16.093L347.283,306.5l-13.061,10.37,7.313-17.443-15.218-8.28Z" transform="translate(-212.952 -172.222)" fill="#f8bdff"/>
            <g id="Grupo_1192621" data-name="Grupo 1192621">
              <g id="Grupo_1192618" data-name="Grupo 1192618" transform="translate(0 110.337)">
                <path id="Trazado_1005274" data-name="Trazado 1005274" d="M103.518,370.054a39.075,39.075,0,0,0-7.756.484c-1.2.151-2.438.312-3.656.413-4.634.393-8.1-.312-10.6-2.125a11.83,11.83,0,0,1-4.432-7.937,21.738,21.738,0,0,1,1.017-9.4c.282-.9.584-1.793.9-2.689a27.421,27.421,0,0,0,1.884-7.9c.181-4.966-2.136-9.962-7.293-15.723-2.961-3.3-7.575-7.826-13.517-8.975a12.811,12.811,0,0,0-3.626-.151,14.845,14.845,0,0,0-.272-2.3,18.38,18.38,0,0,0-6.819-10.646,17.452,17.452,0,0,0-11.775-3.827,11.981,11.981,0,0,0-1.471.2v1.027a11.465,11.465,0,0,1,1.551-.221,16.348,16.348,0,0,1,11.08,3.616,17.341,17.341,0,0,1,6.446,10.052,13.835,13.835,0,0,1,.252,2.226c-4.049.695-7.867,3.223-8.914,7.3a3.985,3.985,0,0,0,.614,3.717,2.771,2.771,0,0,0,2.085.846,5.764,5.764,0,0,0,3.928-2.085,14.282,14.282,0,0,0,3.3-8.914,12.128,12.128,0,0,1,3.425.141c5.641,1.1,10.093,5.47,12.953,8.663,4.976,5.55,7.212,10.324,7.041,15.018a26.863,26.863,0,0,1-1.823,7.6c-.322.907-.634,1.8-.907,2.72a22.467,22.467,0,0,0-1.058,9.831,12.834,12.834,0,0,0,4.835,8.612c2.7,1.964,6.386,2.719,11.271,2.317,1.239-.1,2.5-.272,3.707-.423a38.838,38.838,0,0,1,7.564-.484,19.2,19.2,0,0,1,12.359,5.771h1.37A20.217,20.217,0,0,0,103.518,370.054ZM52.39,325.312a4.9,4.9,0,0,1-3.193,1.732,1.7,1.7,0,0,1-1.33-.534,3.117,3.117,0,0,1-.373-2.77c.927-3.616,4.3-5.872,7.937-6.537A13.238,13.238,0,0,1,52.39,325.312Z" transform="translate(-36.102 -299.246)" fill="#302945"/>
              </g>
              <g id="Grupo_1192619" data-name="Grupo 1192619" transform="translate(85.556)">
                <path id="Trazado_1005275" data-name="Trazado 1005275" d="M322.339,43.6c-1.088.665-2.145,1.38-3.193,2.075a41.175,41.175,0,0,1-8.723,4.855,17.677,17.677,0,0,1-13.588-.473,14.5,14.5,0,0,1-7.444-8.461,13.794,13.794,0,0,0,7.051-4,6.97,6.97,0,0,0,1.954-3.948,4.1,4.1,0,0,0-1.974-4.039,4.481,4.481,0,0,0-3.989.161c-3.707,1.783-4.946,6.3-4.523,9.74a11.66,11.66,0,0,0,.232,1.32,21.58,21.58,0,0,1-8.229-.242,31.708,31.708,0,0,1-23.761-23.8h-1.027a32.738,32.738,0,0,0,24.587,24.788,22.554,22.554,0,0,0,8.693.232,15.488,15.488,0,0,0,8,9.156,17.437,17.437,0,0,0,7.645,1.7,19.815,19.815,0,0,0,6.718-1.189,41.836,41.836,0,0,0,8.934-4.966c1.088-.725,2.186-1.461,3.314-2.155C322.792,44.1,322.571,43.849,322.339,43.6Zm-33.43-4.21c-.373-3.092.705-7.152,3.959-8.712a4.282,4.282,0,0,1,1.854-.453,2.641,2.641,0,0,1,1.239.282,3.084,3.084,0,0,1,1.44,3.042,6.059,6.059,0,0,1-1.7,3.374,12.762,12.762,0,0,1-6.567,3.707A10.6,10.6,0,0,1,288.909,39.387Z" transform="translate(-255.125 -16.784)" fill="#302945"/>
              </g>
              <g id="Grupo_1192620" data-name="Grupo 1192620" transform="translate(89.918 129.984)">
                <path id="Trazado_1005276" data-name="Trazado 1005276" d="M275.094,483.477l5.177,4.513H278.73l-4.3-3.747a6.223,6.223,0,0,0-2.256-1.461c-1.652-.453-3.4.786-4.15,2.246a7.28,7.28,0,0,0-.715,2.961h-1.017a8.7,8.7,0,0,1,.836-3.414c.916-1.793,3.072-3.374,5.308-2.77A7,7,0,0,1,275.094,483.477Z" transform="translate(-266.291 -430.061)" fill="#302945"/>
                <path id="Trazado_1005277" data-name="Trazado 1005277" d="M394.3,368.1v1.007a31.1,31.1,0,0,1-12.953-3.193c-3.626-1.773-5.933-4.613-8.37-7.625-.463-.574-.927-1.148-1.41-1.722-2.931-3.5-5.62-5.359-8.461-5.872A11.716,11.716,0,0,0,355,352.557c-11.372,7.051-11.422,18.745-11.483,31.134-.03,8.239-.07,16.751-3.747,23.781H338.62c.091-.151.181-.312.262-.463,3.555-6.819,3.6-15.209,3.626-23.318.061-12.117.111-24.647,11.966-31.99a12.706,12.706,0,0,1,8.8-2c4.059.735,7.121,3.908,9.065,6.225.484.574.957,1.158,1.42,1.732,2.367,2.921,4.6,5.681,8.028,7.363A29.923,29.923,0,0,0,394.3,368.1Z" transform="translate(-310.366 -349.543)" fill="#302945"/>
              </g>
            </g>
            <g id="Grupo_1192630" data-name="Grupo 1192630" transform="translate(7.036 16.543)">
              <g id="Grupo_1192627" data-name="Grupo 1192627" transform="translate(0 33.89)">
                <g id="Grupo_1192624" data-name="Grupo 1192624">
                  <path id="Trazado_1005278" data-name="Trazado 1005278" d="M163.321,229.968l.087.168L92.854,184.531l-38.739,4.291,5.137-39.947,4.8,1.2.856-2.75,8.143,3.176,2.141-3.861,5.147,2.236,1.722-2.982,69.772,41.891L153.893,213l13.719,9.086Z" transform="translate(-54.115 -145.893)" fill="#fff"/>
                  <g id="Grupo_1192623" data-name="Grupo 1192623">
                    <path id="Trazado_1005279" data-name="Trazado 1005279" d="M166.58,292.727l-33.265,9.856L54.115,249.1l38.739-4.291Z" transform="translate(-54.115 -206.169)" fill="#db6758"/>
                    <g id="Grupo_1192622" data-name="Grupo 1192622" transform="translate(0.167)">
                      <path id="Trazado_1005280" data-name="Trazado 1005280" d="M54.543,245.293s17.994-11.145,38.572-4.115" transform="translate(-54.543 -202.54)" fill="none" stroke="#302945" stroke-linecap="round" stroke-linejoin="round" stroke-miterlimit="10" stroke-width="1.289"/>
                      <path id="Trazado_1005281" data-name="Trazado 1005281" d="M54.653,236.652S73.3,224.265,87.185,224.608l78.18,50.062" transform="translate(-54.61 -193.856)" fill="none" stroke="#302945" stroke-linecap="round" stroke-linejoin="round" stroke-miterlimit="10" stroke-width="1.289"/>
                      <path id="Trazado_1005282" data-name="Trazado 1005282" d="M82.46,145.893l-27.7,42.8s15.345-15.645,33.518-19.245l79.726,52.637" transform="translate(-54.676 -145.893)" fill="none" stroke="#302945" stroke-linecap="round" stroke-linejoin="round" stroke-miterlimit="10" stroke-width="1.289"/>
                      <path id="Trazado_1005283" data-name="Trazado 1005283" d="M65.241,148.486,54.653,189.9,75.524,147.8" transform="translate(-54.61 -147.056)" fill="none" stroke="#302945" stroke-linecap="round" stroke-linejoin="round" stroke-miterlimit="10" stroke-width="1.289"/>
                    </g>
                  </g>
                </g>
                <g id="Grupo_1192626" data-name="Grupo 1192626" transform="translate(42.362 67.986)">
                  <g id="Grupo_1192625" data-name="Grupo 1192625">
                    <path id="Trazado_1005284" data-name="Trazado 1005284" d="M261.3,369.28l-5.782,20.236h-7.625c-1.36-.625-2.861-1.32-4.452-2.055-6.215-2.85-13.809-6.225-19.43-8.4-11.321-4.382-24.7-7.464-26.753-10.032-1.9-2.387-30.369-38.185-34.478-43.362a.73.73,0,0,1-.151-.272.96.96,0,0,1,.3-1.118,2.471,2.471,0,0,1,.343-.221c.937-.534,2.841-.947,5.228.735l-1.833-2.266a1,1,0,0,1,.141-1.088.183.183,0,0,1,.04-.05c.977-1.007,3.6-2.679,8.723.725.111.071.221.151.343.242a4.434,4.434,0,0,1,.383.272.718.718,0,0,1,.151.111c.322.232.665.494,1.007.776,7.333,5.963,24.516,19.5,28.132,22.351.191.151.373.3.544.433a.942.942,0,0,1,.131.1l13.114-4.12.332.151c2.679,1.239,20.77,9.67,24.093,13.487a29.786,29.786,0,0,1,5.147,8.229l2.76,1.148Z" transform="translate(-162.562 -320.021)" fill="#ff9191"/>
                    <path id="Trazado_1005285" data-name="Trazado 1005285" d="M201.1,353.9s-19.545-20.831-24.56-27.517l-3.06-4.124a1,1,0,0,1,.245-1.411c1.3-.878,3.736-1.8,7.786.778,5.658,3.6,35.661,28.289,35.661,28.289" transform="translate(-169.1 -319.936)" fill="none" stroke="#302945" stroke-linecap="round" stroke-linejoin="round" stroke-miterlimit="10" stroke-width="1.934"/>
                    <path id="Trazado_1005286" data-name="Trazado 1005286" d="M162.733,333.489a3.827,3.827,0,0,1,3.311.787,6.3,6.3,0,0,1,2.227,2.594,3.99,3.99,0,0,1-.026,3.351" transform="translate(-162.666 -328.114)" fill="none" stroke="#302945" stroke-linecap="round" stroke-linejoin="round" stroke-miterlimit="10" stroke-width="1.934"/>
                    <path id="Trazado_1005287" data-name="Trazado 1005287" d="M174.133,325.26a5.083,5.083,0,0,1,5.506,7.3" transform="translate(-169.613 -323.126)" fill="none" stroke="#302945" stroke-linecap="round" stroke-linejoin="round" stroke-miterlimit="10" stroke-width="1.934"/>
                  </g>
                  <path id="Trazado_1005288" data-name="Trazado 1005288" d="M411.993,415.888v31.406H367.654l.766-2.055,8.27-22.17,1.1-2.951,9.257,3.082s2.579-9.257,16.972-8.229C406.222,415.133,408.951,415.445,411.993,415.888Z" transform="translate(-287.54 -377.8)" fill="#ffc063"/>
                </g>
              </g>
              <g id="Grupo_1192629" data-name="Grupo 1192629" transform="translate(9.051)">
                <g id="Grupo_1192628" data-name="Grupo 1192628">
                  <path id="Trazado_1005289" data-name="Trazado 1005289" d="M173.286,109.921s-10.793-4.575-18.24-7.725-10.957-1.3-18.177-3.071-9.967-4.712-20.194-3.3c-9.4,1.3-21.857,6.3-21.857,6.3s-3.13-8.67,7.788-12.738,15.9-7.294,15.9-7.294L112.271,78.6l-3.042.126S93.214,102.1,86.8,94.684l2.309-4.411s-3.775,3.239-7.462-.25l6.958-9.208s-8.854,3.726-11.323-1.8L94.811,70.46a13.156,13.156,0,0,1,5.6-3.753c3.486-1.142,20.139-8.137,23.348-7.537s21.33,11.879,31.982,19.022,27.379,14.271,27.379,14.271Z" transform="translate(-77.285 -59.134)" fill="#ff9191"/>
                  <path id="Trazado_1005290" data-name="Trazado 1005290" d="M149.718,108.038s-1.012,2.429-5.355,4.655-15.719,5.8-18.856,8.49-5.325,4.839-3.972,10.74" transform="translate(-104.001 -88.935)" fill="none" stroke="#302945" stroke-linecap="round" stroke-linejoin="round" stroke-miterlimit="10" stroke-width="1.151"/>
                  <path id="Trazado_1005291" data-name="Trazado 1005291" d="M129.2,76.239s-9.4,2.969-11.957,4.051-5.02,5.542-9.983,14.279-5.607,10.539-5.607,10.539,2.685,4.268,10.228-1.975a56.227,56.227,0,0,0,11.97-14.23l7.566.162" transform="translate(-92.134 -69.557)" fill="none" stroke="#302945" stroke-linecap="round" stroke-linejoin="round" stroke-miterlimit="10" stroke-width="1.151"/>
                  <path id="Trazado_1005292" data-name="Trazado 1005292" d="M101.679,91.183,88.463,109.554s2.141,2.261,4.17,1.713a10.6,10.6,0,0,0,2.982-1.2" transform="translate(-84.097 -78.664)" fill="none" stroke="#302945" stroke-linecap="round" stroke-linejoin="round" stroke-miterlimit="10" stroke-width="1.151"/>
                  <path id="Trazado_1005293" data-name="Trazado 1005293" d="M122.4,162.329a5.017,5.017,0,0,1,2.357-2.886A8.534,8.534,0,0,1,128.208,158a4.677,4.677,0,0,1,3.568.857" transform="translate(-104.775 -119.348)" fill="none" stroke="#302945" stroke-linecap="round" stroke-linejoin="round" stroke-miterlimit="10" stroke-width="1.151"/>
                  <path id="Trazado_1005294" data-name="Trazado 1005294" d="M101.864,137.463a4.19,4.19,0,0,0,4.369-1.887,7.284,7.284,0,0,0,.949-1.537,4.614,4.614,0,0,0-.766-4.752" transform="translate(-92.263 -101.883)" fill="none" stroke="#302945" stroke-linecap="round" stroke-linejoin="round" stroke-miterlimit="10" stroke-width="1.151"/>
                  <path id="Trazado_1005295" data-name="Trazado 1005295" d="M89.123,127.069a5.741,5.741,0,0,0,2.1-.543,5.48,5.48,0,0,0,1.323-1.157,9.618,9.618,0,0,0,.764-.913,5.3,5.3,0,0,0,.828-4.219" transform="translate(-84.499 -96.369)" fill="none" stroke="#302945" stroke-linecap="round" stroke-linejoin="round" stroke-miterlimit="10" stroke-width="1.151"/>
                </g>
                <path id="Trazado_1005296" data-name="Trazado 1005296" d="M360.674,161.411v52.014c-23.247-9.952-47.25-21.223-50.1-26.42-5.671-10.375-10.919-30.137-10.919-30.137l-16.217-9.2,3.062-5.691,9.73-18.05,1.914-3.566,14.978,6.849s3.042-7.282,15.834-5.167c4.664.775,15.209,5.6,26.8,11.463a79.521,79.521,0,0,1,2.568,8.411,80.834,80.834,0,0,1,1.692,9.166,79.785,79.785,0,0,1,.625,8.411c.02.363.02.725.02,1.088C360.674,160.857,360.674,161.139,360.674,161.411Z" transform="translate(-202.909 -96.447)" fill="#ffc063"/>
                <path id="Trazado_1005297" data-name="Trazado 1005297" d="M77.476,104.86a5.455,5.455,0,0,0,6.575-3.444" transform="translate(-77.401 -84.899)" fill="none" stroke="#302945" stroke-linecap="round" stroke-linejoin="round" stroke-miterlimit="10" stroke-width="1.151"/>
              </g>
            </g>
            <path id="Trazado_1005298" data-name="Trazado 1005298" d="M67.863,360.8l7.551-19.152.356,19.907,19.337,4.558-14.292,6.714,2.979,16.093L68.139,376.283l-13.06,10.37,7.312-17.443-15.218-8.28Z" transform="translate(-42.849 -214.748)" fill="#f8bdff"/>
          </g>
        </g>
      </g>
    </g>
  </g>
</svg>
