<svg xmlns="http://www.w3.org/2000/svg" width="150" height="150" viewBox="0 0 150 150">
  <g id="Grupo_1177378" data-name="Grupo 1177378" transform="translate(-72.746 -7992)">
    <g id="Elipse_13628" data-name="Elipse 13628" transform="translate(72.746 7992)" fill="#fff7e2" stroke="#cff878" stroke-width="6">
      <circle cx="75" cy="75" r="75" stroke="none"/>
      <circle cx="75" cy="75" r="72" fill="none"/>
    </g>
    <g id="Grupo_1192698" data-name="Grupo 1192698" transform="translate(109.231 8028.533)">
      <path id="Trazado_1005467" data-name="Trazado 1005467" d="M80.034,165.374l-8.267-1.82H64.376l-8.267,1.82a7.258,7.258,0,0,0-5.208,6.963v7.3a1.3,1.3,0,0,0,1.3,1.3H83.946a1.3,1.3,0,0,0,1.3-1.3v-7.3A7.259,7.259,0,0,0,80.034,165.374Z" transform="translate(-43.204 -138.978)" fill="#ffc265"/>
      <path id="Trazado_1005468" data-name="Trazado 1005468" d="M156.24,165.374l-8.267-1.82h-7.391L151,167.106a7.258,7.258,0,0,1,5.208,6.963v6.867h3.946a1.3,1.3,0,0,0,1.3-1.3v-7.3A7.259,7.259,0,0,0,156.24,165.374Z" transform="translate(-119.409 -138.978)" fill="#ffa812"/>
      <path id="Trazado_1005469" data-name="Trazado 1005469" d="M147.972,134.84v-5.078h-7.391v5.078a3.7,3.7,0,1,0,7.391,0Z" transform="translate(-119.409 -110.264)" fill="#fff3de"/>
      <path id="Trazado_1005470" data-name="Trazado 1005470" d="M121.875,19.33h-1.855v-.94a6.942,6.942,0,0,0-2.351-5.275,7.625,7.625,0,0,0-10.191,0,6.942,6.942,0,0,0-2.351,5.275v.763h-1.855v3.589a1.857,1.857,0,0,0,1.857,1.857,6.928,6.928,0,0,0,2.349,5.117,8.034,8.034,0,0,0,5.1,2.337,8.034,8.034,0,0,0,5.1-2.337,6.928,6.928,0,0,0,2.349-5.117,1.857,1.857,0,0,0,1.857-1.857V19.33Z" transform="translate(-87.706 -9.486)" fill="#fff3de"/>
      <path id="Trazado_1005471" data-name="Trazado 1005471" d="M163.779,25.974v-.94a6.942,6.942,0,0,0-2.351-5.275,8.542,8.542,0,0,0-1.057-.778,7.27,7.27,0,0,1,.28,2l0,10.266a6.928,6.928,0,0,1-2.349,5.117,9.567,9.567,0,0,1-3.532,2.106,5.9,5.9,0,0,0,1.564.231,8.034,8.034,0,0,0,5.1-2.337,6.928,6.928,0,0,0,2.349-5.117,1.857,1.857,0,0,0,1.857-1.857V25.974Z" transform="translate(-131.466 -16.13)" fill="#ffe5c2"/>
      <path id="Trazado_1005472" data-name="Trazado 1005472" d="M121.876,17.685a7.793,7.793,0,0,1-3.189-2.065,2.594,2.594,0,0,0-3.207-.545c-2.752,1.555-7.791,3.678-12.207,1.615V13.975a6.406,6.406,0,0,1,6.406-6.406h3.809a3.867,3.867,0,0,1,2.34.789,3.866,3.866,0,0,0,2.251.788,3.887,3.887,0,0,1,3.8,3.886Z" transform="translate(-87.707 -6.433)" fill="#3e5959"/>
      <path id="Trazado_1005473" data-name="Trazado 1005473" d="M192.5,15.728a3.863,3.863,0,0,1-1.645-.413,7.238,7.238,0,0,1,.46,2.547v3.47a2.631,2.631,0,0,1,1.794.869,7.794,7.794,0,0,0,3.189,2.065V19.614A3.887,3.887,0,0,0,192.5,15.728Z" transform="translate(-162.13 -13.014)" fill="#384949"/>
      <path id="Trazado_1005474" data-name="Trazado 1005474" d="M49.3,414.433H46.72a1.474,1.474,0,0,1-1.474-1.474V398.506h5.53v14.453A1.474,1.474,0,0,1,49.3,414.433Z" transform="translate(-38.4 -338.626)" fill="#efe2dd"/>
      <path id="Trazado_1005475" data-name="Trazado 1005475" d="M68.447,263.888H12.173a4.618,4.618,0,0,1-4.618-4.618V239.5a4.618,4.618,0,0,1,4.618-4.618H68.447a4.618,4.618,0,0,1,4.618,4.618V259.27A4.618,4.618,0,0,1,68.447,263.888Z" transform="translate(-6.372 -199.592)" fill="#fff5f5"/>
      <path id="Trazado_1005476" data-name="Trazado 1005476" d="M282.844,294.3v-5.078h-7.391V294.3C275.453,296.345,282.844,296.345,282.844,294.3Z" transform="translate(-234.015 -245.767)" fill="#fff3de"/>
      <path id="Trazado_1005477" data-name="Trazado 1005477" d="M384.617,234.886h-.365V259.27a4.618,4.618,0,0,1-4.618,4.618h4.982a4.618,4.618,0,0,0,4.618-4.618V239.5A4.618,4.618,0,0,0,384.617,234.886Z" transform="translate(-322.542 -199.592)" fill="#efe2dd"/>
      <path id="Trazado_1005478" data-name="Trazado 1005478" d="M214.906,324.838l-8.267-1.82h-7.391l-8.267,1.82a7.258,7.258,0,0,0-5.208,6.963v16a2.484,2.484,0,0,0,2.484,2.484h29.375a2.484,2.484,0,0,0,2.484-2.484v-16A7.259,7.259,0,0,0,214.906,324.838Z" transform="translate(-157.81 -274.481)" fill="#6bdae8"/>
      <path id="Trazado_1005479" data-name="Trazado 1005479" d="M291.112,324.838l-8.267-1.82h-7.391l10.676,3.351a7.258,7.258,0,0,1,5.208,6.963v16a2.476,2.476,0,0,1-.19.953h2.689a2.484,2.484,0,0,0,2.484-2.484v-16A7.258,7.258,0,0,0,291.112,324.838Z" transform="translate(-234.015 -274.481)" fill="#00c8de"/>
      <path id="Trazado_1005480" data-name="Trazado 1005480" d="M261.235,174.568a3.483,3.483,0,0,0-3.4-3.482c-1.965-.045-2.115-1.413-4.115-1.413H250.3a5.74,5.74,0,0,0-5.74,5.74l.006,5.182c.011,4.6,3.751,8.719,8.353,8.708s8.324-4.145,8.313-8.748Z" transform="translate(-207.767 -144.178)" fill="#3e5959"/>
      <path id="Trazado_1005481" data-name="Trazado 1005481" d="M297.918,171.776c-1.6-.037-2-.955-3.178-1.291a3.481,3.481,0,0,1,1.6,2.929v8.691a8.957,8.957,0,0,1-4.6,7.785,7.649,7.649,0,0,0,1.27.1c4.6-.011,8.324-4.145,8.313-8.748v-5.987A3.483,3.483,0,0,0,297.918,171.776Z" transform="translate(-247.853 -144.868)" fill="#384949"/>
      <path id="Trazado_1005482" data-name="Trazado 1005482" d="M365.465,7.737H346.307a2.489,2.489,0,0,0-2.489,2.489v9.837a2.489,2.489,0,0,0,2.489,2.489h6.8A2.45,2.45,0,0,1,355.56,25v3.419a.689.689,0,0,0,1.238.418l4.053-5.322a2.45,2.45,0,0,1,1.949-.966h2.664a2.489,2.489,0,0,0,2.489-2.489V10.226a2.49,2.49,0,0,0-2.49-2.489Z" transform="translate(-292.108 -6.575)" fill="#98db7c"/>
      <path id="Trazado_1005483" data-name="Trazado 1005483" d="M429.2,106.337h-5.009a2.4,2.4,0,0,0-1.907.945l-.325.426v4.5a.689.689,0,0,0,1.238.418l4.053-5.322A2.45,2.45,0,0,1,429.2,106.337Z" transform="translate(-358.511 -90.359)" fill="#6acb44"/>
      <path id="Trazado_1005484" data-name="Trazado 1005484" d="M463.132,9.179V22.553h2.493a2.489,2.489,0,0,0,2.489-2.489V10.226a2.489,2.489,0,0,0-2.489-2.489H461.69A1.442,1.442,0,0,1,463.132,9.179Z" transform="translate(-392.268 -6.575)" fill="#6acb44"/>
      <path id="Trazado_1005485" data-name="Trazado 1005485" d="M185.771,410.745V415.2a2.484,2.484,0,0,0,2.484,2.484H217.63a2.484,2.484,0,0,0,2.484-2.484v-4.459a8.409,8.409,0,0,0-8.409-8.409H194.18a8.409,8.409,0,0,0-8.409,8.409Z" transform="translate(-157.809 -341.881)" fill="#ff646f"/>
      <path id="Trazado_1005486" data-name="Trazado 1005486" d="M330.187,402.336H325.2a8.409,8.409,0,0,1,8.409,8.409v6.943h2.5A2.484,2.484,0,0,0,338.6,415.2v-4.459A8.409,8.409,0,0,0,330.187,402.336Z" transform="translate(-276.291 -341.881)" fill="#ff4755"/>
      <path id="Trazado_1005487" data-name="Trazado 1005487" d="M62.075,34.167h-7.48V30.39a4.638,4.638,0,0,0-4.5-4.609c-1.447-.033-1.81-1.413-4.141-1.413H42.536a6.831,6.831,0,0,0-4.17,1.416c-1.549-.734-1.686-.487-8.677-2.114V21.9a8.247,8.247,0,0,0,3.68-5.849A2.99,2.99,0,0,0,35.3,13.257V6.6a5.043,5.043,0,0,0-4.9-5.012,2.722,2.722,0,0,1-1.6-.558C26.776-.511,24.855.185,21.971.01a7.541,7.541,0,0,0-7.532,7.532v5.714a2.99,2.99,0,0,0,1.926,2.791,8.248,8.248,0,0,0,3.68,5.849V23.67L12.662,25.3l-.076.02a8.432,8.432,0,0,0-6.017,8.044v.809H5.8A5.751,5.751,0,0,0,.056,39.912V59.678A5.75,5.75,0,0,0,5.72,65.421v8.912a2.6,2.6,0,0,0,2.6,2.6H10.9a2.6,2.6,0,0,0,2.6-2.6V65.423H26.835v7.9a3.615,3.615,0,0,0,3.61,3.61H59.821a3.615,3.615,0,0,0,3.61-3.61V65.261a5.738,5.738,0,0,0,4.388-5.583v-8a1.127,1.127,0,1,0-2.254,0v8A3.488,3.488,0,0,1,63.432,62.9V57.32a8.432,8.432,0,0,0-6.017-8.044l-.076-.02-7.383-1.625v-2.8a10.044,10.044,0,0,0,4.638-8.407h7.481a3.5,3.5,0,0,1,3.491,3.491v7.261a1.127,1.127,0,1,0,2.254,0V39.912a5.751,5.751,0,0,0-5.745-5.745ZM16.692,7.543a5.285,5.285,0,0,1,5.279-5.279c3.272.13,4.284-.34,5.467.559A4.963,4.963,0,0,0,30.345,3.84a2.776,2.776,0,0,1,2.7,2.759V9.462a6.089,6.089,0,0,1-1.226-1.029,3.706,3.706,0,0,0-4.6-.771c-2.327,1.314-6.68,3.222-10.526,1.842Zm1.857,7.548a1.127,1.127,0,0,0-1.127-1.1.731.731,0,0,1-.731-.731v-1.4c2.452.652,6.383.734,11.634-2.232a1.466,1.466,0,0,1,1.816.318,8.876,8.876,0,0,0,2.9,2.077v1.238a.731.731,0,0,1-.731.731,1.127,1.127,0,0,0-1.127,1.1c-.052,2.432-1.289,3.971-3.241,5.283l-.019.012a4.975,4.975,0,0,1-6.117,0l-.017-.012c-1.93-1.3-3.189-2.832-3.242-5.284Zm8.887,8.1v1.387a2.569,2.569,0,1,1-5.138,0V23.188a6.761,6.761,0,0,0,5.138,0ZM11.249,74.332a.348.348,0,0,1-.348.348H8.321a.348.348,0,0,1-.348-.348V65.423h3.276ZM5.8,63.169A3.5,3.5,0,0,1,2.31,59.678V39.912A3.5,3.5,0,0,1,5.8,36.421H12.18a1.127,1.127,0,1,0,0-2.254H8.823v-.809a6.166,6.166,0,0,1,4.364-5.871l7.054-1.553a4.822,4.822,0,0,0,9.253,0c7.762,1.725,6.835,1.478,7.251,1.619a6.827,6.827,0,0,0-1.075,3.683l0,2.931H16.687a1.127,1.127,0,1,0,0,2.254H35.675a10.048,10.048,0,0,0,4.636,8.4v2.807l-7.383,1.625-.076.02a8.432,8.432,0,0,0-6.017,8.044v5.85H5.8ZM61.178,73.323a1.358,1.358,0,0,1-1.357,1.357H30.446a1.358,1.358,0,0,1-1.357-1.357V68.864a7.29,7.29,0,0,1,7.282-7.282H53.9a7.29,7.29,0,0,1,7.282,7.282v4.459Zm0-16v5.4A9.517,9.517,0,0,0,53.9,59.329H36.371a9.517,9.517,0,0,0-7.282,3.389v-5.4a6.166,6.166,0,0,1,4.364-5.871l8.108-1.785h7.146l8.108,1.785A6.166,6.166,0,0,1,61.178,57.32ZM47.7,47.41H42.565V45.862a8.779,8.779,0,0,0,2.572.389h.021a8.776,8.776,0,0,0,2.545-.387V47.41Zm4.639-11.03c.01,3.945-3.181,7.609-7.189,7.618h-.016c-3.978,0-7.2-3.618-7.208-7.582l-.006-5.181a4.619,4.619,0,0,1,4.614-4.614H45.95c1.446,0,1.832,1.361,4.089,1.412a2.371,2.371,0,0,1,2.3,2.356Z"/>
      <path id="Trazado_1005488" data-name="Trazado 1005488" d="M359.092.238H339.935a3.62,3.62,0,0,0-3.616,3.616v9.837a3.62,3.62,0,0,0,3.616,3.616h6.8a1.325,1.325,0,0,1,1.324,1.324V22.05a1.816,1.816,0,0,0,3.261,1.1l4.053-5.322a1.331,1.331,0,0,1,1.053-.522h2.664a3.62,3.62,0,0,0,3.616-3.616V3.854A3.62,3.62,0,0,0,359.092.238Zm1.363,13.453a1.364,1.364,0,0,1-1.363,1.363h-2.664a3.6,3.6,0,0,0-2.846,1.41l-3.268,4.29V18.631a3.581,3.581,0,0,0-3.577-3.577h-6.8a1.364,1.364,0,0,1-1.363-1.363V3.854a1.364,1.364,0,0,1,1.363-1.363h19.157a1.364,1.364,0,0,1,1.363,1.363Z" transform="translate(-285.736 -0.203)"/>
    </g>
  </g>
</svg>
