<?xml version="1.0" encoding="utf-8"?>
<!-- Generator: Adobe Illustrator 27.4.1, SVG Export Plug-In . SVG Version: 6.00 Build 0)  -->
<svg version="1.1" id="Layer_1" xmlns="http://www.w3.org/2000/svg" xmlns:xlink="http://www.w3.org/1999/xlink" x="0px" y="0px"
	 viewBox="0 0 144 144.9" style="enable-background:new 0 0 144 144.9;" xml:space="preserve">
<style type="text/css">
	.st0{fill:#BBEDF7;}
	.st1{fill:#99D9E3;enable-background:new    ;}
	.st2{enable-background:new    ;}
	.st3{fill:#39A900;}
	.st4{fill:#FFFFFF;}
	.st5{fill:#00314D;}
</style>
<g>
	<path id="blob_3_" class="st0" d="M139.4,51.6c11.2,31.4,1.1,73.2-21.8,87.4s-58.4,0.8-83.3-19C9.4,100-4.9,73.4,1.6,48.5
		C7.9,23.7,35.3,0.9,65.3,0C95.2-0.9,128.1,20.1,139.4,51.6z"/>
	<g>
		<g>
			<circle id="Elipse_6_00000180329473598672213360000009685761265243696259_" class="st1" cx="56" cy="26.4" r="10"/>
			<circle id="Elipse_7_00000089532281580448396690000002215018103696265904_" class="st1" cx="119" cy="92.4" r="10"/>
			<circle id="Elipse_11_00000050636861693399942550000009734844921967181734_" class="st1" cx="132" cy="15.4" r="7"/>
			<circle id="Elipse_12_00000127756748088514344790000013906074919777860024_" class="st1" cx="12" cy="131.4" r="7"/>
			<circle id="Elipse_8_00000001638533997066630110000015144040204603476097_" class="st1" cx="53" cy="121.4" r="10"/>
		</g>
	</g>
	<g>
		<g class="st2">
			<path class="st3" d="M74.5,91.3v-3.6H71v-2.5h3.5v-3.6h2.8v3.6h3.5v2.5h-3.5v3.6H74.5z"/>
		</g>
		<g class="st2">
			<path class="st3" d="M14.5,107.3v-3.6H11v-2.5h3.5v-3.6h2.8v3.6h3.5v2.5h-3.5v3.6H14.5z"/>
		</g>
		<g class="st2">
			<path class="st3" d="M94.5,23.3v-3.6H91v-2.5h3.5v-3.6h2.8v3.6h3.5v2.5h-3.5v3.6H94.5z"/>
		</g>
		<circle id="Elipse_1" class="st3" cx="10" cy="32.4" r="4"/>
		<circle id="Elipse_2" class="st3" cx="37" cy="125.4" r="4"/>
		<circle id="Elipse_5" class="st3" cx="113" cy="121.4" r="4"/>
		<path class="st3" d="M109,78.4c-2.2,0-4,1.8-4,4s1.8,4,4,4s4-1.8,4-4S111.2,78.4,109,78.4z M109,85.4c-1.7,0-3-1.3-3-3s1.3-3,3-3
			s3,1.3,3,3S110.7,85.4,109,85.4z"/>
		<path class="st3" d="M16,58.4c-2.2,0-4,1.8-4,4s1.8,4,4,4s4-1.8,4-4S18.2,58.4,16,58.4z M16,65.4c-1.7,0-3-1.3-3-3s1.3-3,3-3
			s3,1.3,3,3S17.7,65.4,16,65.4z"/>
	</g>
	<g id="Grupo_26" transform="translate(0 -9)">
		<g id="Rectángulo_8" transform="translate(35 43)">
			<rect x="-8" y="-7.6" class="st4" width="65" height="27"/>
			<path class="st5" d="M55.5,19.4h-62c-0.8,0-1.5-0.7-1.5-1.5v-24c0-0.8,0.7-1.5,1.5-1.5h62c0.8,0,1.5,0.7,1.5,1.5v24
				C57,18.8,56.3,19.4,55.5,19.4z M-5,16.4h59v-21H-5V16.4z"/>
		</g>
		<g id="Rectángulo_9" transform="translate(60 76)">
			<rect x="-8" y="-7.6" class="st4" width="65" height="27"/>
			<path class="st5" d="M55.5,19.4h-62c-0.8,0-1.5-0.7-1.5-1.5v-24c0-0.8,0.7-1.5,1.5-1.5h62c0.8,0,1.5,0.7,1.5,1.5v24
				C57,18.8,56.3,19.4,55.5,19.4z M-5,16.4h59v-21H-5V16.4z"/>
		</g>
		<g id="Rectángulo_10" transform="translate(35 109)">
			<rect x="-8" y="-7.6" class="st4" width="65" height="27"/>
			<path class="st5" d="M55.5,19.4h-62c-0.8,0-1.5-0.7-1.5-1.5v-24c0-0.8,0.7-1.5,1.5-1.5h62c0.8,0,1.5,0.7,1.5,1.5v24
				C57,18.8,56.3,19.4,55.5,19.4z M-5,16.4h59v-21H-5V16.4z"/>
		</g>
		<path id="Trazado_51" class="st5" d="M44,52.7h-5.9L37,55.4h-4l6.2-14h3.9l6.2,14h-4.1L44,52.7z M42.9,49.8l-1.8-4.5l-1.8,4.5
			H42.9z M64,48.1c0.7,0.2,1.4,0.7,1.9,1.3c0.5,0.6,0.7,1.4,0.7,2.2c0,1.1-0.5,2.2-1.5,2.8c-1.3,0.7-2.8,1.1-4.3,1h-7.6v-14h7.2
			c1.4-0.1,2.9,0.3,4.1,1c0.9,0.6,1.4,1.6,1.4,2.7c0,0.6-0.2,1.3-0.5,1.8C65,47.4,64.5,47.9,64,48.1z M57.1,44.3V47h2.7
			c1.3,0,2-0.5,2-1.4c0-0.9-0.7-1.3-2-1.3H57.1z M60.4,52.6c1.4,0,2.1-0.5,2.1-1.4s-0.7-1.4-2.1-1.4h-3.3v2.8H60.4z M78.3,55.7
			c-1.4,0-2.7-0.3-3.9-0.9c-1.1-0.6-2.1-1.5-2.8-2.6c-0.7-1.1-1-2.4-1-3.8c0-1.3,0.3-2.6,1-3.8c0.7-1.1,1.6-2,2.8-2.6
			c1.2-0.6,2.6-1,3.9-0.9c1.2,0,2.4,0.2,3.5,0.7c1,0.4,1.9,1.1,2.6,2l-2.5,2.3c-0.8-1-2-1.6-3.3-1.6c-0.7,0-1.4,0.2-2,0.5
			c-0.6,0.3-1.1,0.8-1.4,1.4c-0.3,0.6-0.5,1.4-0.5,2.1c0,0.7,0.2,1.4,0.5,2.1c0.3,0.6,0.8,1.1,1.4,1.4c0.6,0.3,1.3,0.5,2,0.5
			c1.3,0,2.5-0.6,3.3-1.6l2.5,2.3c-0.7,0.9-1.6,1.5-2.6,2C80.7,55.5,79.5,55.7,78.3,55.7z"/>
		<path id="Trazado_49" class="st5" d="M44.9,119.7H39l-1.1,2.7h-4l6.2-14h3.9l6.2,14H46L44.9,119.7z M43.8,116.8l-1.8-4.5l-1.8,4.5
			H43.8z"/>
		<path id="Trazado_50" class="st5" d="M69.8,85.7h-5.9l-1.1,2.7h-4l6.2-14h3.9l6.2,14h-4.1L69.8,85.7z M68.7,82.8l-1.8-4.5
			l-1.8,4.5H68.7z M89.7,81.1c0.7,0.2,1.4,0.7,1.9,1.3c0.5,0.6,0.7,1.4,0.7,2.1c0,1.1-0.5,2.2-1.5,2.8c-1.3,0.7-2.8,1.1-4.3,1H79
			v-14h7.2c1.4-0.1,2.9,0.3,4.1,1c0.9,0.6,1.4,1.6,1.4,2.7c0,0.6-0.2,1.3-0.5,1.8C90.8,80.4,90.3,80.9,89.7,81.1z M82.9,77.3V80h2.7
			c1.3,0,2-0.5,2-1.4c0-0.9-0.7-1.3-2-1.3H82.9z M86.2,85.6c1.4,0,2.1-0.5,2.1-1.4c0-0.9-0.7-1.4-2.1-1.4h-3.3v2.8H86.2z"/>
	</g>
</g>
</svg>
