<?xml version="1.0" encoding="utf-8"?>
<!-- Generator: Adobe Illustrator 27.4.1, SVG Export Plug-In . SVG Version: 6.00 Build 0)  -->
<svg version="1.1" id="Layer_1" xmlns="http://www.w3.org/2000/svg" xmlns:xlink="http://www.w3.org/1999/xlink" x="0px" y="0px"
	 viewBox="0 0 146 132" style="enable-background:new 0 0 146 132;" xml:space="preserve">
<style type="text/css">
	.st0{fill:#BBEDF7;}
	.st1{fill:#FF6B00;}
	.st2{fill:#99D9E3;enable-background:new    ;}
	.st3{fill:none;}
	.st4{enable-background:new    ;}
	.st5{fill:#39A900;}
	.st6{fill:#FFFFFF;}
	.st7{fill:#404040;}
	.st8{fill:#00314D;}
</style>
<g>
	<path id="blob_4_" class="st0" d="M143,41.5c5.6,20.5-12,45-36.4,63.4S51.1,135.9,29,122.8C6.7,109.7-6.6,71.3,3.4,44.7
		C13.4,18,46.8,3.3,77.8,4C108.9,4.8,137.5,21.2,143,41.5z"/>
	<circle id="Elipse_5" class="st1" cx="38" cy="115" r="4"/>
	<g>
		<g>
			<circle id="Elipse_6_00000127036690462434594310000003475896893655987109_" class="st2" cx="95" cy="20" r="10"/>
			<circle id="Elipse_7_00000055707406526376212930000015495393550097491889_" class="st2" cx="32" cy="86" r="10"/>
			<circle id="Elipse_11_00000045613723299079505510000006308847763036546953_" class="st2" cx="19" cy="9" r="7"/>
			<circle id="Elipse_12_00000158017481921279479400000002163531487760094092_" class="st2" cx="139" cy="125" r="7"/>
			<circle id="Elipse_8_00000116949687578485552370000013759383668323071414_" class="st2" cx="98" cy="115" r="10"/>
		</g>
	</g>
	<g id="Elipse_3" transform="translate(26 72)">
		<circle class="st3" cx="16" cy="4" r="4"/>
		<path class="st1" d="M16,8c-2.2,0-4-1.8-4-4s1.8-4,4-4s4,1.8,4,4S18.2,8,16,8z M16,2c-1.1,0-2,0.9-2,2s0.9,2,2,2s2-0.9,2-2
			S17.1,2,16,2z"/>
	</g>
	<g>
		<g class="st4">
			<path class="st5" d="M73.8,84.8v-3.6h-3.5v-2.5h3.5v-3.6h2.8v3.6H80v2.5h-3.5v3.6H73.8z"/>
		</g>
		<g class="st4">
			<path class="st5" d="M133.8,100.8v-3.6h-3.5v-2.5h3.5v-3.6h2.8v3.6h3.5v2.5h-3.5v3.6H133.8z"/>
		</g>
		<g class="st4">
			<path class="st5" d="M53.8,16.8v-3.6h-3.5v-2.5h3.5V7.2h2.8v3.6H60v2.5h-3.5v3.6H53.8z"/>
		</g>
		<circle id="Elipse_1" class="st5" cx="141" cy="26" r="4"/>
		<circle id="Elipse_2" class="st5" cx="114" cy="119" r="4"/>
		<g id="Elipse_4" transform="translate(119 52)">
			<circle class="st5" cx="16" cy="4" r="4"/>
			<path class="st5" d="M16,8c-2.2,0-4-1.8-4-4s1.8-4,4-4s4,1.8,4,4S18.2,8,16,8z M16,2c-1.1,0-2,0.9-2,2s0.9,2,2,2s2-0.9,2-2
				S17.1,2,16,2z"/>
		</g>
	</g>
	<g>
		<rect x="30" y="21" class="st6" width="27" height="27"/>
		<rect x="30" y="69" class="st6" width="27" height="26"/>
		<rect x="54" y="45" class="st6" width="27" height="27"/>
		<rect x="78" y="45" class="st6" width="26" height="27"/>
		<rect x="30" y="45" class="st6" width="27" height="27"/>
		<path class="st7" d="M55.5,72h-24c-0.8,0-1.5-0.7-1.5-1.5v-24c0-0.8,0.7-1.5,1.5-1.5h24c0.8,0,1.5,0.7,1.5,1.5v24
			C57,71.3,56.3,72,55.5,72z M33,69h21V48H33V69z"/>
		<rect x="30" y="92" class="st6" width="27" height="27"/>
		<path class="st8" d="M102.5,45h-23H57V22.5c0-0.8-0.7-1.5-1.5-1.5h-24c-0.8,0-1.5,0.7-1.5,1.5v24c0,0.8,0.7,1.5,1.5,1.5H54v21
			H31.5c-0.8,0-1.5,0.7-1.5,1.5v23v24c0,0.8,0.7,1.5,1.5,1.5h24c0.8,0,1.5-0.7,1.5-1.5v-24V72h22.5h23c0.8,0,1.5-0.7,1.5-1.5v-24
			C104,45.7,103.3,45,102.5,45z M33,24h21v21H33V24z M33,72h21v20H33V72z M54,116H33V95h21V116z M57,48h21v21H57V48z M101,69H81V48
			h20V69z"/>
		<path id="Trazado_45" class="st8" d="M47.2,105.4c0.7,0.2,1.3,0.7,1.8,1.2c0.4,0.6,0.7,1.3,0.6,2c0,1.1-0.5,2.1-1.4,2.7
			c-1.2,0.7-2.6,1-4.1,0.9H37V99h6.8c1.4-0.1,2.7,0.2,3.9,0.9c0.9,0.6,1.4,1.5,1.3,2.5c0,0.6-0.2,1.2-0.5,1.7
			C48.2,104.7,47.8,105.1,47.2,105.4z M40.7,101.7v2.6h2.6c1.3,0,1.9-0.4,1.9-1.3c0-0.8-0.6-1.3-1.9-1.3H40.7z M43.9,109.6
			c1.3,0,2-0.4,2-1.3c0-0.9-0.7-1.3-2-1.3h-3.2v2.7L43.9,109.6z"/>
		<path id="Trazado_46" class="st7" d="M46.5,62.7h-5.6l-1,2.6H36L41.9,52h3.7l5.9,13.3h-3.9L46.5,62.7z M45.4,59.9l-1.7-4.3
			L42,59.9L45.4,59.9z"/>
		<path id="Trazado_47" class="st8" d="M46.8,62.4h-5.6l-1,2.6h-3.8l5.9-13.3h3.7L51.7,65h-3.9L46.8,62.4z M45.7,59.6L44,55.4
			l-1.7,4.3L45.7,59.6z"/>
		<path id="Trazado_40" class="st6" d="M71.7,111L75.4,99c0,0,42-44.1,43.3-44.3c1.5-0.1,2.9-0.1,4.4,0l4.7,4.7v4.7l-44.3,43.1
			L71.7,111z"/>
		<path class="st8" d="M127.5,58.6l-3.9-3.9c-1.8-1.8-4.7-1.8-6.5,0l-2.1,2.1c-0.6-0.2-1.3-0.1-1.8,0.3l-3.4,3.4
			c-0.5,0.5-0.6,1.2-0.3,1.8L73.8,97.9c0,0,0,0,0,0c-0.1,0.1-0.1,0.1-0.2,0.2c0,0,0,0,0,0c-0.1,0.1-0.1,0.2-0.1,0.3c0,0,0,0,0,0
			c0,0,0,0.1,0,0.1l-3.8,12c-0.1,0.2-0.1,0.3-0.1,0.5c0,0.9,0.7,1.6,1.6,1.6c0,0,0,0,0,0l0-0.5l0,0v0.5c0.2,0,0.3,0,0.5-0.1l12-3.8
			c0,0,0,0,0,0c0.1,0,0.2-0.1,0.2-0.1c0,0,0,0,0.1,0c0.1-0.1,0.2-0.1,0.3-0.2l35.5-35.5c0.2,0.1,0.4,0.1,0.6,0.1v-0.5h0l0,0l0,0.5
			c0,0,0,0,0,0c0.4,0,0.8-0.2,1.1-0.5L125,69c0.5-0.5,0.6-1.2,0.3-1.8l2.1-2.1C129.3,63.3,129.3,60.4,127.5,58.6z M113.1,61.7
			l1.2-1.2l7.3,7.3l-1.2,1.2L113.1,61.7z M113.4,66.5L79,100.9L77.2,99l34.3-34.3L113.4,66.5z M77.9,104.2
			C77.9,104.2,77.9,104.3,77.9,104.2C77.9,104.3,77.9,104.3,77.9,104.2l2.3,2.3l-6.5,2.1l2.1-6.5L77.9,104.2z M81.3,103.1l34.3-34.3
			l1.8,1.8l-34.3,34.3L81.3,103.1z M117.3,59l2-2c0.6-0.5,1.4-0.5,2,0l3.9,3.9c0.3,0.3,0.4,0.6,0.4,1c0,0.4-0.1,0.7-0.4,1l-2,2.1
			L117.3,59z"/>
		<path id="Trazado_48" class="st8" d="M72.1,37.3h-5.9L65,40h-4l6.2-14h3.9l6.2,14h-4.1L72.1,37.3z M70.9,34.4l-1.8-4.5l-1.8,4.5
			H70.9z M91.9,32.7c0.7,0.2,1.4,0.7,1.9,1.3c0.5,0.6,0.7,1.4,0.7,2.1c0,1.1-0.5,2.2-1.5,2.8c-1.3,0.7-2.8,1.1-4.3,1h-7.6V26h7.2
			c1.4-0.1,2.9,0.3,4.1,1c0.9,0.6,1.4,1.6,1.4,2.7c0,0.6-0.2,1.3-0.5,1.8C93,32,92.5,32.4,91.9,32.7z M85.1,28.9v2.7h2.7
			c1.3,0,2-0.5,2-1.4c0-0.9-0.7-1.3-2-1.3H85.1z M88.4,37.1c1.4,0,2.1-0.5,2.1-1.4s-0.7-1.4-2.1-1.4h-3.3v2.8H88.4z M106.3,40.3
			c-1.4,0-2.7-0.3-3.9-0.9c-1.1-0.6-2.1-1.5-2.8-2.6c-0.7-1.1-1-2.4-1-3.8c0-1.3,0.3-2.6,1-3.8c0.7-1.1,1.6-2,2.8-2.6
			c1.2-0.6,2.6-1,3.9-0.9c1.2,0,2.4,0.2,3.5,0.7c1,0.4,1.9,1.1,2.6,2l-2.5,2.3c-0.8-1-2-1.6-3.3-1.6c-0.7,0-1.4,0.2-2,0.5
			c-0.6,0.3-1.1,0.8-1.4,1.4c-0.3,0.6-0.5,1.4-0.5,2.1c0,0.7,0.2,1.4,0.5,2.1c0.3,0.6,0.8,1.1,1.4,1.4c0.6,0.3,1.3,0.5,2,0.5
			c1.3,0,2.5-0.6,3.3-1.6l2.5,2.3c-0.7,0.9-1.6,1.5-2.6,2C108.7,40.1,107.5,40.3,106.3,40.3z"/>
	</g>
</g>
</svg>
