<svg xmlns="http://www.w3.org/2000/svg" xmlns:xlink="http://www.w3.org/1999/xlink" width="1021.413" height="411" viewBox="0 0 1021.413 411">
  <defs>
    <clipPath id="clip-path">
      <rect id="Rectángulo_455278" data-name="Rectángulo 455278" width="334.601" height="359.414" fill="none"/>
    </clipPath>
    <clipPath id="clip-path-3">
      <rect id="Rectángulo_455208" data-name="Rectángulo 455208" width="104.489" height="9.557" fill="none"/>
    </clipPath>
    <clipPath id="clip-path-4">
      <rect id="Rectángulo_455209" data-name="Rectángulo 455209" width="133.797" height="9.557" fill="none"/>
    </clipPath>
    <clipPath id="clip-path-5">
      <rect id="Rectángulo_455210" data-name="Rectángulo 455210" width="278.213" height="8.92" fill="none"/>
    </clipPath>
    <clipPath id="clip-path-6">
      <rect id="Rectángulo_455214" data-name="Rectángulo 455214" width="8.602" height="16.874" fill="none"/>
    </clipPath>
    <clipPath id="clip-path-8">
      <rect id="Rectángulo_455233" data-name="Rectángulo 455233" width="2.142" height="14.918" fill="none"/>
    </clipPath>
    <clipPath id="clip-path-9">
      <rect id="Rectángulo_455236" data-name="Rectángulo 455236" width="2.143" height="14.918" fill="none"/>
    </clipPath>
    <clipPath id="clip-path-12">
      <rect id="Rectángulo_455249" data-name="Rectángulo 455249" width="173.59" height="0.707" fill="none"/>
    </clipPath>
    <clipPath id="clip-path-14">
      <rect id="Rectángulo_455251" data-name="Rectángulo 455251" width="9.231" height="15.344" fill="none"/>
    </clipPath>
    <clipPath id="clip-path-15">
      <rect id="Rectángulo_455258" data-name="Rectángulo 455258" width="47.63" height="10.899" fill="none"/>
    </clipPath>
    <clipPath id="clip-path-16">
      <rect id="Rectángulo_455263" data-name="Rectángulo 455263" width="2.212" height="13.644" fill="none"/>
    </clipPath>
    <clipPath id="clip-path-17">
      <rect id="Rectángulo_455265" data-name="Rectángulo 455265" width="2.213" height="13.644" fill="none"/>
    </clipPath>
    <clipPath id="clip-path-19">
      <rect id="Rectángulo_455272" data-name="Rectángulo 455272" width="41.977" height="36.93" fill="none"/>
    </clipPath>
    <clipPath id="clip-path-20">
      <rect id="Rectángulo_455273" data-name="Rectángulo 455273" width="41.976" height="36.93" fill="none"/>
    </clipPath>
    <clipPath id="clip-path-21">
      <rect id="Rectángulo_455274" data-name="Rectángulo 455274" width="2.427" height="6.157" fill="none"/>
    </clipPath>
    <clipPath id="clip-path-22">
      <rect id="Rectángulo_455275" data-name="Rectángulo 455275" width="22.683" height="2.775" fill="none"/>
    </clipPath>
    <clipPath id="clip-path-23">
      <rect id="Rectángulo_455276" data-name="Rectángulo 455276" width="20.531" height="3.867" fill="none"/>
    </clipPath>
  </defs>
  <g id="Grupo_1178660" data-name="Grupo 1178660" transform="translate(-289.081 -739)">
    <path id="Trazado_1004999" data-name="Trazado 1004999" d="M10,0H1011.413a10,10,0,0,1,10,10V401a10,10,0,0,1-10,10H10A10,10,0,0,1,0,401V10A10,10,0,0,1,10,0Z" transform="translate(289.081 739)" fill="#fafff1"/>
    <g id="Grupo_1178520" data-name="Grupo 1178520" transform="translate(961.532 763.328)" opacity="0.3">
      <g id="Grupo_1178519" data-name="Grupo 1178519" clip-path="url(#clip-path)">
        <g id="Grupo_1178518" data-name="Grupo 1178518">
          <g id="Grupo_1178517" data-name="Grupo 1178517" clip-path="url(#clip-path)">
            <g id="Grupo_1178456" data-name="Grupo 1178456" transform="translate(4.568 342.212)" style="mix-blend-mode: multiply;isolation: isolate">
              <g id="Grupo_1178455" data-name="Grupo 1178455">
                <g id="Grupo_1178454" data-name="Grupo 1178454" clip-path="url(#clip-path-3)">
                  <path id="Trazado_998506" data-name="Trazado 998506" d="M109.981,416.187c0,2.639-23.39,4.779-52.245,4.779s-52.244-2.14-52.244-4.779,23.39-4.779,52.244-4.779,52.245,2.139,52.245,4.779" transform="translate(-5.492 -411.408)" fill="#f3cdc8"/>
                </g>
              </g>
            </g>
            <g id="Grupo_1178459" data-name="Grupo 1178459" transform="translate(200.804 349.857)" style="mix-blend-mode: multiply;isolation: isolate">
              <g id="Grupo_1178458" data-name="Grupo 1178458">
                <g id="Grupo_1178457" data-name="Grupo 1178457" clip-path="url(#clip-path-4)">
                  <path id="Trazado_998507" data-name="Trazado 998507" d="M375.2,425.378c0,2.639-29.952,4.779-66.9,4.779s-66.9-2.139-66.9-4.779,29.952-4.779,66.9-4.779,66.9,2.139,66.9,4.779" transform="translate(-241.407 -420.6)" fill="#f3cdc8"/>
                </g>
              </g>
            </g>
            <g id="Grupo_1178462" data-name="Grupo 1178462" transform="translate(44.07 334.566)" style="mix-blend-mode: multiply;isolation: isolate">
              <g id="Grupo_1178461" data-name="Grupo 1178461">
                <g id="Grupo_1178460" data-name="Grupo 1178460" clip-path="url(#clip-path-5)">
                  <path id="Trazado_998508" data-name="Trazado 998508" d="M331.195,406.676c0,2.463-62.28,4.46-139.106,4.46s-139.106-2-139.106-4.46,62.28-4.46,139.106-4.46,139.106,2,139.106,4.46" transform="translate(-52.982 -402.217)" fill="#f3cdc8"/>
                </g>
              </g>
            </g>
            <path id="Trazado_998509" data-name="Trazado 998509" d="M328.135,280.3s7.213-42.292-26.41-58.952c-3.176,20.738,21.7,60.921,21.7,60.921Z" transform="translate(-50.701 -37.229)" fill="#a2bf83"/>
            <path id="Trazado_998510" data-name="Trazado 998510" d="M302.741,223.37s16.283,25.3,22.342,56.6" transform="translate(-50.919 -37.569)" fill="none" stroke="#749153" stroke-miterlimit="10" stroke-width="1"/>
            <line id="Línea_3421" data-name="Línea 3421" x1="4.122" y2="11.08" transform="translate(263.346 197.261)" fill="none" stroke="#749153" stroke-miterlimit="10" stroke-width="1"/>
            <line id="Línea_3422" data-name="Línea 3422" x1="8.277" y1="2.293" transform="translate(252.338 199.808)" fill="none" stroke="#749153" stroke-miterlimit="10" stroke-width="1"/>
            <line id="Línea_3423" data-name="Línea 3423" x1="8.155" y1="0.799" transform="translate(258.173 215.144)" fill="none" stroke="#749153" stroke-miterlimit="10" stroke-width="1"/>
            <line id="Línea_3424" data-name="Línea 3424" x1="5.819" y2="8.626" transform="translate(268.483 212.439)" fill="none" stroke="#749153" stroke-miterlimit="10" stroke-width="1"/>
            <path id="Trazado_998511" data-name="Trazado 998511" d="M348.765,272.868s43.131-29.664,21.93-79.787c-20.771,14.926-28.522,76.554-28.522,76.554Z" transform="translate(-57.551 -32.475)" fill="#9cbb7b"/>
            <path id="Trazado_998512" data-name="Trazado 998512" d="M370.7,195.945s-4.231,39.461-24.208,73.424" transform="translate(-58.278 -32.957)" fill="none" stroke="#749153" stroke-miterlimit="10" stroke-width="1"/>
            <line id="Línea_3425" data-name="Línea 3425" x1="13.637" y2="5.419" transform="translate(304.178 194.839)" fill="none" stroke="#749153" stroke-miterlimit="10" stroke-width="1"/>
            <line id="Línea_3426" data-name="Línea 3426" x1="6.74" y1="10.745" transform="translate(300.339 177.942)" fill="none" stroke="#749153" stroke-miterlimit="10" stroke-width="1"/>
            <line id="Línea_3427" data-name="Línea 3427" x1="7.869" y1="9.3" transform="translate(292.27 201.566)" fill="none" stroke="#749153" stroke-miterlimit="10" stroke-width="1"/>
            <line id="Línea_3428" data-name="Línea 3428" x1="13.351" y2="1.467" transform="translate(295.705 220.197)" fill="none" stroke="#749153" stroke-miterlimit="10" stroke-width="1"/>
            <path id="Trazado_998513" data-name="Trazado 998513" d="M337.81,278.991s31.7-52.006-4.749-101.2c-15.059,25.786-2.6,100.176-2.6,100.176Z" transform="translate(-54.767 -29.903)" fill="#8baf64"/>
            <path id="Trazado_998514" data-name="Trazado 998514" d="M334.584,181.436s8.677,47.332.517,94.784" transform="translate(-56.275 -30.516)" fill="none" stroke="#749153" stroke-miterlimit="10" stroke-width="1"/>
            <line id="Línea_3429" data-name="Línea 3429" x1="11.299" y2="11.868" transform="translate(282.164 180.29)" fill="none" stroke="#749153" stroke-miterlimit="10" stroke-width="1"/>
            <line id="Línea_3430" data-name="Línea 3430" x1="9.913" y1="9.644" transform="translate(271.569 173.166)" fill="none" stroke="#749153" stroke-miterlimit="10" stroke-width="1"/>
            <line id="Línea_3431" data-name="Línea 3431" x1="10.825" y1="7.985" transform="translate(271.376 195.109)" fill="none" stroke="#749153" stroke-miterlimit="10" stroke-width="1"/>
            <line id="Línea_3432" data-name="Línea 3432" x1="13.321" y2="13.034" transform="translate(282.339 200.334)" fill="none" stroke="#749153" stroke-miterlimit="10" stroke-width="1"/>
            <line id="Línea_3433" data-name="Línea 3433" x1="10.002" y1="9.951" transform="translate(271.49 213.368)" fill="none" stroke="#749153" stroke-miterlimit="10" stroke-width="1"/>
            <path id="Trazado_998515" data-name="Trazado 998515" d="M368.212,327.187a30.654,30.654,0,0,1-5.271-19.181q.023-.53.023-1.064a25.731,25.731,0,0,0-5.269-15.548,6,6,0,0,1-.248-6.708l4.294-6.755-57.391,1.278,4.579,5.112a5.984,5.984,0,0,1,.4,7.349,25.721,25.721,0,0,0-5.057,15.272q0,.534.022,1.065a30.733,30.733,0,0,1-5.3,19.214,36.443,36.443,0,0,0-6.954,21.361c0,15.646,10.048,29.106,24.479,35.155h34.186c14.431-6.05,24.479-19.509,24.479-35.155a36.452,36.452,0,0,0-6.978-21.395" transform="translate(-49.12 -46.746)" fill="#fff"/>
            <line id="Línea_3434" data-name="Línea 3434" x2="47.104" transform="translate(260.778 239.128)" fill="none" stroke="#cfcfcf" stroke-miterlimit="10" stroke-width="0.85"/>
            <line id="Línea_3435" data-name="Línea 3435" x2="47.379" y2="0.307" transform="translate(260.778 243.422)" fill="none" stroke="#cfcfcf" stroke-miterlimit="10" stroke-width="0.85"/>
            <line id="Línea_3436" data-name="Línea 3436" x2="62.623" y2="0.307" transform="translate(253.087 274.549)" fill="none" stroke="#cfcfcf" stroke-miterlimit="10" stroke-width="0.85"/>
            <line id="Línea_3437" data-name="Línea 3437" x2="66.467" y2="0.307" transform="translate(251.302 278.076)" fill="none" stroke="#cfcfcf" stroke-miterlimit="10" stroke-width="0.85"/>
            <path id="Trazado_998516" data-name="Trazado 998516" d="M315.611,319.525c-7.317-.591-6.735-16.407.7-16.56S321.3,319.985,315.611,319.525Z" transform="translate(-52.21 -50.957)" fill="none" stroke="#cfcfcf" stroke-miterlimit="10" stroke-width="0.85"/>
            <path id="Trazado_998517" data-name="Trazado 998517" d="M348.837,319.525c-7.317-.591-6.735-16.407.7-16.56S354.527,319.985,348.837,319.525Z" transform="translate(-57.799 -50.957)" fill="none" stroke="#cfcfcf" stroke-miterlimit="10" stroke-width="0.85"/>
            <path id="Trazado_998518" data-name="Trazado 998518" d="M332.23,302.973c7.317.591,6.735,16.407-.7,16.56S326.539,302.513,332.23,302.973Z" transform="translate(-54.981 -50.957)" fill="none" stroke="#cfcfcf" stroke-miterlimit="10" stroke-width="0.85"/>
            <path id="Trazado_998519" data-name="Trazado 998519" d="M365.456,302.973c7.316.591,6.735,16.407-.7,16.56S359.765,302.513,365.456,302.973Z" transform="translate(-60.57 -50.957)" fill="none" stroke="#cfcfcf" stroke-miterlimit="10" stroke-width="0.85"/>
            <path id="Trazado_998520" data-name="Trazado 998520" d="M250.323,262.242H168.076a11.458,11.458,0,1,1,0-22.915h82.247a29.815,29.815,0,0,0,0,22.915" transform="translate(-26.342 -40.253)" fill="#e8e8e8"/>
            <path id="Trazado_998521" data-name="Trazado 998521" d="M254.754,263.652h-84.74a13.224,13.224,0,0,1,0-26.449h84.74a1.767,1.767,0,1,1,0,3.533h-84.74a9.691,9.691,0,0,0,0,19.382h84.74a1.767,1.767,0,1,1,0,3.534" transform="translate(-26.371 -39.896)" fill="#bf4b58"/>
            <path id="Trazado_998522" data-name="Trazado 998522" d="M201.825,262.242H119.577a11.458,11.458,0,0,1,0-22.915h82.247a29.816,29.816,0,0,0,0,22.915" transform="translate(-18.185 -40.253)" fill="#fff"/>
            <line id="Línea_3438" data-name="Línea 3438" x2="124.515" transform="translate(95.242 208.383)" fill="none" stroke="#cfcfcf" stroke-miterlimit="10" stroke-width="0.85"/>
            <line id="Línea_3439" data-name="Línea 3439" x2="125.431" transform="translate(94.502 211.963)" fill="none" stroke="#cfcfcf" stroke-miterlimit="10" stroke-width="0.85"/>
            <line id="Línea_3440" data-name="Línea 3440" x2="124.515" transform="translate(95.807 215.544)" fill="none" stroke="#cfcfcf" stroke-miterlimit="10" stroke-width="0.85"/>
            <path id="Trazado_998523" data-name="Trazado 998523" d="M265.413,251.627H255.358l-7.112-5.4H258.3Z" transform="translate(-41.753 -41.414)" fill="#3a66a7"/>
            <path id="Trazado_998524" data-name="Trazado 998524" d="M245.071,256.246H235.016l-7.112-5.4H237.96Z" transform="translate(-38.332 -42.191)" fill="#65a09c"/>
            <line id="Línea_3441" data-name="Línea 3441" x2="123.599" transform="translate(97.113 204.802)" fill="none" stroke="#cfcfcf" stroke-miterlimit="10" stroke-width="0.85"/>
            <path id="Trazado_998525" data-name="Trazado 998525" d="M203.96,263.652H119.22a13.224,13.224,0,0,1,0-26.449h84.74a1.767,1.767,0,1,1,0,3.533H119.22a9.691,9.691,0,0,0,0,19.382h84.74a1.767,1.767,0,1,1,0,3.534" transform="translate(-17.828 -39.896)" fill="#b42b3b"/>
            <path id="Trazado_998526" data-name="Trazado 998526" d="M269.881,400.425H142.544a13.608,13.608,0,0,1,0-27.215H269.881a35.4,35.4,0,0,0,0,27.215" transform="translate(-21.686 -62.772)" fill="#e8e8e8"/>
            <path id="Trazado_998527" data-name="Trazado 998527" d="M275.143,402.1h-130.3a15.706,15.706,0,1,1,0-31.411h130.3a2.1,2.1,0,1,1,0,4.2h-130.3a11.509,11.509,0,1,0,0,23.019h130.3a2.1,2.1,0,1,1,0,4.2" transform="translate(-21.72 -62.347)" fill="#70a5a1"/>
            <path id="Trazado_998528" data-name="Trazado 998528" d="M149.164,400.425H84.945a13.608,13.608,0,1,1,0-27.215h64.219a35.4,35.4,0,0,0,0,27.215" transform="translate(-11.998 -62.772)" fill="#fff"/>
            <line id="Línea_3442" data-name="Línea 3442" x2="177.536" transform="translate(65.642 321.495)" fill="none" stroke="#cfcfcf" stroke-miterlimit="10" stroke-width="0.85"/>
            <line id="Línea_3443" data-name="Línea 3443" x2="178.623" transform="translate(64.763 325.747)" fill="none" stroke="#cfcfcf" stroke-miterlimit="10" stroke-width="0.85"/>
            <line id="Línea_3444" data-name="Línea 3444" x2="177.536" transform="translate(66.313 329.999)" fill="none" stroke="#cfcfcf" stroke-miterlimit="10" stroke-width="0.85"/>
            <path id="Trazado_998529" data-name="Trazado 998529" d="M228.923,387.818H216.981l-8.445-6.408h11.941Z" transform="translate(-35.074 -64.151)" fill="#ebaf29"/>
            <path id="Trazado_998530" data-name="Trazado 998530" d="M208.071,393.3H196.129l-8.445-6.408h11.941Z" transform="translate(-31.567 -65.073)" fill="#dd482f"/>
            <line id="Línea_3445" data-name="Línea 3445" x2="176.448" transform="translate(67.864 317.242)" fill="none" stroke="#cfcfcf" stroke-miterlimit="10" stroke-width="0.85"/>
            <path id="Trazado_998531" data-name="Trazado 998531" d="M151.7,402.1H84.52a15.706,15.706,0,0,1,0-31.411H151.7a2.1,2.1,0,1,1,0,4.2H84.52a11.509,11.509,0,0,0,0,23.019H151.7a2.1,2.1,0,1,1,0,4.2" transform="translate(-11.574 -62.347)" fill="#579591"/>
            <rect id="Rectángulo_455211" data-name="Rectángulo 455211" width="101.051" height="20.264" transform="translate(105.836 223.663)" fill="#479191"/>
            <rect id="Rectángulo_455212" data-name="Rectángulo 455212" width="6.132" height="20.264" transform="translate(111.969 223.663)" fill="#68a09c"/>
            <rect id="Rectángulo_455213" data-name="Rectángulo 455213" width="6.132" height="20.264" transform="translate(195.289 223.663)" fill="#68a09c"/>
            <path id="Trazado_998532" data-name="Trazado 998532" d="M156.725,316.674h95.948a13.676,13.676,0,0,0,0,19.341H156.725a13.676,13.676,0,0,1,0-19.341" transform="translate(-25.686 -53.263)" fill="#fff"/>
            <path id="Trazado_998533" data-name="Trazado 998533" d="M242.67,318.906H92.569a1.115,1.115,0,0,1,0-2.231h150.1a1.115,1.115,0,0,1,0,2.231" transform="translate(-15.382 -53.263)" fill="#ebaf29"/>
            <path id="Trazado_998534" data-name="Trazado 998534" d="M242.67,339.475H92.569a1.115,1.115,0,1,1,0-2.231h150.1a1.115,1.115,0,1,1,0,2.231" transform="translate(-15.382 -56.722)" fill="#ebaf29"/>
            <line id="Línea_3446" data-name="Línea 3446" x2="43.782" transform="translate(173.617 272.505)" fill="none" stroke="#cfcfcf" stroke-miterlimit="10" stroke-width="0.85"/>
            <line id="Línea_3447" data-name="Línea 3447" x2="43.782" transform="translate(174.955 277.126)" fill="none" stroke="#cfcfcf" stroke-miterlimit="10" stroke-width="0.85"/>
            <path id="Trazado_998535" data-name="Trazado 998535" d="M226.143,333.718l-3.915-3.656-4.157,3.656V323h8.072Z" transform="translate(-36.678 -54.326)" fill="#dd482f"/>
            <line id="Línea_3448" data-name="Línea 3448" x2="43.782" transform="translate(174.955 268.687)" fill="none" stroke="#cfcfcf" stroke-miterlimit="10" stroke-width="0.85"/>
            <path id="Trazado_998536" data-name="Trazado 998536" d="M187.932,336.015H91.985a13.676,13.676,0,0,1,0-19.341h95.947a13.676,13.676,0,0,0,0,19.341" transform="translate(-14.798 -53.263)" fill="#ebaf29"/>
            <path id="Trazado_998537" data-name="Trazado 998537" d="M104.634,336.015H98.78a13.677,13.677,0,0,1,0-19.341h5.853a13.676,13.676,0,0,0,0,19.341" transform="translate(-15.941 -53.263)" fill="#f7dfa9"/>
            <path id="Trazado_998538" data-name="Trazado 998538" d="M200.241,336.015h-5.853a13.677,13.677,0,0,1,0-19.341h5.853a13.676,13.676,0,0,0,0,19.341" transform="translate(-32.021 -53.263)" fill="#f7dfa9"/>
            <line id="Línea_3449" data-name="Línea 3449" x2="95.947" transform="translate(74.854 266.276)" fill="none" stroke="#954b33" stroke-miterlimit="10" stroke-width="0.85"/>
            <line id="Línea_3450" data-name="Línea 3450" x2="95.947" transform="translate(74.854 280.341)" fill="none" stroke="#954b33" stroke-miterlimit="10" stroke-width="0.85"/>
            <path id="Trazado_998539" data-name="Trazado 998539" d="M194.288,145.358H278a11.933,11.933,0,0,0,0,16.874h-83.71a11.931,11.931,0,0,1,0-16.874" transform="translate(-32.09 -24.448)" fill="#fff"/>
            <path id="Trazado_998540" data-name="Trazado 998540" d="M269.271,147.3H138.315a.973.973,0,1,1,0-1.946H269.271a.973.973,0,0,1,0,1.946" transform="translate(-23.1 -24.448)" fill="#579591"/>
            <path id="Trazado_998541" data-name="Trazado 998541" d="M269.271,165.25H138.315a.973.973,0,0,1,0-1.946H269.271a.973.973,0,0,1,0,1.946" transform="translate(-23.1 -27.467)" fill="#579591"/>
            <path id="Trazado_998542" data-name="Trazado 998542" d="M273.322,159.787l13.8,4.779L288.932,160s-15.61-.319-15.61-.212" transform="translate(-45.971 -26.871)" fill="#f4a460"/>
            <line id="Línea_3451" data-name="Línea 3451" x2="38.198" transform="translate(200.513 125.512)" fill="none" stroke="#cfcfcf" stroke-miterlimit="10" stroke-width="0.85"/>
            <path id="Trazado_998543" data-name="Trazado 998543" d="M247.444,155.024l12.038,2.718,13.591-2.816Z" transform="translate(-41.619 -26.058)" fill="#dd482f"/>
            <line id="Línea_3452" data-name="Línea 3452" x2="38.198" transform="translate(199.345 128.843)" fill="none" stroke="#cfcfcf" stroke-miterlimit="10" stroke-width="0.85"/>
            <path id="Trazado_998544" data-name="Trazado 998544" d="M266.173,151.189l11.68,3.86,3.93-3.647s-15.61-.319-15.61-.212" transform="translate(-44.769 -25.425)" fill="#7db8e2"/>
            <line id="Línea_3453" data-name="Línea 3453" x2="38.198" transform="translate(200.513 132.875)" fill="none" stroke="#cfcfcf" stroke-miterlimit="10" stroke-width="0.85"/>
            <path id="Trazado_998545" data-name="Trazado 998545" d="M221.515,162.232h-83.71a11.931,11.931,0,0,1,0-16.874h83.71a11.931,11.931,0,0,0,0,16.874" transform="translate(-22.59 -24.448)" fill="#579591"/>
            <path id="Trazado_998546" data-name="Trazado 998546" d="M148.841,162.232h-5.107a11.931,11.931,0,0,1,0-16.874h5.107a11.931,11.931,0,0,0,0,16.874" transform="translate(-23.587 -24.448)" fill="#84b3b0"/>
            <path id="Trazado_998547" data-name="Trazado 998547" d="M232.254,162.232h-5.106a11.931,11.931,0,0,1,0-16.874h5.106a11.931,11.931,0,0,0,0,16.874" transform="translate(-37.617 -24.448)" fill="#84b3b0"/>
            <line id="Línea_3454" data-name="Línea 3454" x2="83.71" transform="translate(113.183 123.408)" fill="none" stroke="#3a66a7" stroke-miterlimit="10" stroke-width="0.85"/>
            <line id="Línea_3455" data-name="Línea 3455" x2="83.71" transform="translate(113.183 135.68)" fill="none" stroke="#3a66a7" stroke-miterlimit="10" stroke-width="0.85"/>
            <path id="Trazado_998548" data-name="Trazado 998548" d="M164.177,189.977H266.9a11.931,11.931,0,0,0,0,16.874H164.177a11.931,11.931,0,0,1,0-16.874" transform="translate(-27.026 -31.953)" fill="#fff"/>
            <path id="Trazado_998549" data-name="Trazado 998549" d="M258.171,191.923H108.2a.973.973,0,0,1,0-1.946H258.171a.973.973,0,0,1,0,1.946" transform="translate(-18.036 -31.953)" fill="#dd482f"/>
            <path id="Trazado_998550" data-name="Trazado 998550" d="M258.171,209.869H108.2a.973.973,0,0,1,0-1.946H258.171a.973.973,0,0,1,0,1.946" transform="translate(-18.036 -34.971)" fill="#dd482f"/>
            <line id="Línea_3456" data-name="Línea 3456" x2="57.209" transform="translate(175.466 162.626)" fill="none" stroke="#cfcfcf" stroke-miterlimit="10" stroke-width="0.85"/>
            <line id="Línea_3457" data-name="Línea 3457" x2="57.21" transform="translate(174.299 165.957)" fill="none" stroke="#cfcfcf" stroke-miterlimit="10" stroke-width="0.85"/>
            <line id="Línea_3458" data-name="Línea 3458" x2="57.209" transform="translate(175.466 169.989)" fill="none" stroke="#cfcfcf" stroke-miterlimit="10" stroke-width="0.85"/>
            <path id="Trazado_998551" data-name="Trazado 998551" d="M191.4,206.851h-83.71a11.932,11.932,0,0,1,0-16.874H191.4a11.932,11.932,0,0,0,0,16.874" transform="translate(-17.526 -31.953)" fill="#dd482f"/>
            <g id="Grupo_1178465" data-name="Grupo 1178465" transform="translate(91.605 158.024)" opacity="0.4">
              <g id="Grupo_1178464" data-name="Grupo 1178464">
                <g id="Grupo_1178463" data-name="Grupo 1178463" clip-path="url(#clip-path-6)">
                  <path id="Trazado_998552" data-name="Trazado 998552" d="M118.73,206.851h-5.107a11.931,11.931,0,0,1,0-16.874h5.107a11.931,11.931,0,0,0,0,16.874" transform="translate(-110.128 -189.977)" fill="#ebaf29"/>
                </g>
              </g>
            </g>
            <g id="Grupo_1178468" data-name="Grupo 1178468" transform="translate(160.989 158.024)" opacity="0.4">
              <g id="Grupo_1178467" data-name="Grupo 1178467">
                <g id="Grupo_1178466" data-name="Grupo 1178466" clip-path="url(#clip-path-6)">
                  <path id="Trazado_998553" data-name="Trazado 998553" d="M202.143,206.851h-5.107a11.932,11.932,0,0,1,0-16.874h5.107a11.931,11.931,0,0,0,0,16.874" transform="translate(-193.541 -189.977)" fill="#ebaf29"/>
                </g>
              </g>
            </g>
            <rect id="Rectángulo_455216" data-name="Rectángulo 455216" width="88.169" height="17.68" transform="translate(142.489 78.856)" fill="#579591"/>
            <rect id="Rectángulo_455217" data-name="Rectángulo 455217" width="5.35" height="17.68" transform="translate(147.841 78.856)" fill="#ebaf29"/>
            <rect id="Rectángulo_455218" data-name="Rectángulo 455218" width="5.35" height="17.68" transform="translate(220.539 78.856)" fill="#ebaf29"/>
            <path id="Trazado_998554" data-name="Trazado 998554" d="M242.437,109.487h-48.97a5.525,5.525,0,0,1,0-11.05h48.97a5.525,5.525,0,0,1,0,11.05Z" transform="translate(-31.611 -16.556)" fill="none" stroke="#ebaf29" stroke-miterlimit="10" stroke-width="0.85"/>
            <rect id="Rectángulo_455219" data-name="Rectángulo 455219" width="111.166" height="22.409" transform="translate(115.09 174.897)" fill="#ebaf29"/>
            <path id="Trazado_998555" data-name="Trazado 998555" d="M181.3,230h0a3.4,3.4,0,0,1-3.4-3.4v-8.905a3.4,3.4,0,1,1,6.809,0V226.6a3.4,3.4,0,0,1-3.4,3.4" transform="translate(-29.921 -36.042)" fill="#efbf54"/>
            <rect id="Rectángulo_455220" data-name="Rectángulo 455220" width="6.229" height="22.409" transform="translate(121.493 174.897)" fill="#efbf54"/>
            <rect id="Rectángulo_455221" data-name="Rectángulo 455221" width="6.229" height="22.409" transform="translate(139.733 174.897)" fill="#efbf54"/>
            <rect id="Rectángulo_455222" data-name="Rectángulo 455222" width="6.229" height="22.409" transform="translate(194.454 174.897)" fill="#efbf54"/>
            <rect id="Rectángulo_455223" data-name="Rectángulo 455223" width="6.229" height="22.409" transform="translate(212.694 174.897)" fill="#efbf54"/>
            <line id="Línea_3459" data-name="Línea 3459" y2="22.35" transform="translate(124.403 174.899)" fill="none" stroke="#fff" stroke-miterlimit="10" stroke-width="0.85"/>
            <line id="Línea_3460" data-name="Línea 3460" y2="22.35" transform="translate(142.911 174.899)" fill="none" stroke="#fff" stroke-miterlimit="10" stroke-width="0.85"/>
            <line id="Línea_3461" data-name="Línea 3461" y2="22.35" transform="translate(197.039 174.899)" fill="none" stroke="#fff" stroke-miterlimit="10" stroke-width="0.85"/>
            <line id="Línea_3462" data-name="Línea 3462" y2="22.35" transform="translate(215.547 174.899)" fill="none" stroke="#fff" stroke-miterlimit="10" stroke-width="0.85"/>
            <rect id="Rectángulo_455224" data-name="Rectángulo 455224" width="111.166" height="22.409" transform="translate(115.091 42.803)" fill="#ebaf29"/>
            <path id="Trazado_998556" data-name="Trazado 998556" d="M227.692,55.482h0a3.4,3.4,0,0,1,3.4,3.4v8.905a3.4,3.4,0,1,1-6.809,0V58.887a3.4,3.4,0,0,1,3.4-3.4" transform="translate(-37.724 -9.332)" fill="#efbf54"/>
            <rect id="Rectángulo_455225" data-name="Rectángulo 455225" width="6.229" height="22.409" transform="translate(213.626 42.803)" fill="#efbf54"/>
            <rect id="Rectángulo_455226" data-name="Rectángulo 455226" width="6.229" height="22.409" transform="translate(195.385 42.803)" fill="#efbf54"/>
            <rect id="Rectángulo_455227" data-name="Rectángulo 455227" width="6.229" height="22.409" transform="translate(140.664 42.803)" fill="#efbf54"/>
            <rect id="Rectángulo_455228" data-name="Rectángulo 455228" width="6.229" height="22.409" transform="translate(122.424 42.803)" fill="#efbf54"/>
            <line id="Línea_3463" data-name="Línea 3463" y1="22.35" transform="translate(216.944 42.861)" fill="none" stroke="#fff" stroke-miterlimit="10" stroke-width="0.85"/>
            <line id="Línea_3464" data-name="Línea 3464" y1="22.35" transform="translate(198.436 42.861)" fill="none" stroke="#fff" stroke-miterlimit="10" stroke-width="0.85"/>
            <line id="Línea_3465" data-name="Línea 3465" y1="22.35" transform="translate(144.308 42.861)" fill="none" stroke="#fff" stroke-miterlimit="10" stroke-width="0.85"/>
            <line id="Línea_3466" data-name="Línea 3466" y1="22.35" transform="translate(125.8 42.861)" fill="none" stroke="#fff" stroke-miterlimit="10" stroke-width="0.85"/>
            <rect id="Rectángulo_455229" data-name="Rectángulo 455229" width="123.717" height="19.128" transform="translate(105.027 98.696)" fill="#fff"/>
            <path id="Trazado_998557" data-name="Trazado 998557" d="M250.314,120.067H124.746a2.005,2.005,0,1,1,0-4.011H250.314a2.005,2.005,0,1,1,0,4.011" transform="translate(-20.644 -19.52)" fill="#25424b"/>
            <path id="Trazado_998558" data-name="Trazado 998558" d="M250.314,144.547H124.746a2.005,2.005,0,1,1,0-4.011H250.314a2.005,2.005,0,1,1,0,4.011" transform="translate(-20.644 -23.637)" fill="#25424b"/>
            <line id="Línea_3467" data-name="Línea 3467" x2="100.461" transform="translate(116.655 108.7)" fill="none" stroke="#cfcfcf" stroke-miterlimit="10" stroke-width="0.85"/>
            <line id="Línea_3468" data-name="Línea 3468" x2="100.461" transform="translate(116.655 112.448)" fill="none" stroke="#cfcfcf" stroke-miterlimit="10" stroke-width="0.85"/>
            <path id="Trazado_998559" data-name="Trazado 998559" d="M158.982,147.831l-4.75-4.651-5.043,4.651v-23.16h9.793Z" transform="translate(-25.093 -20.969)" fill="#fc69a3"/>
            <line id="Línea_3469" data-name="Línea 3469" x2="100.461" transform="translate(116.655 103.632)" fill="none" stroke="#cfcfcf" stroke-miterlimit="10" stroke-width="0.85"/>
            <rect id="Rectángulo_455230" data-name="Rectángulo 455230" width="81.576" height="14.918" transform="translate(131.471 13.644)" fill="#7db8e2"/>
            <rect id="Rectángulo_455231" data-name="Rectángulo 455231" width="4.449" height="14.918" transform="translate(202.334 13.644)" fill="#579ad7"/>
            <g id="Grupo_1178471" data-name="Grupo 1178471" transform="translate(198.38 13.644)" opacity="0.5">
              <g id="Grupo_1178470" data-name="Grupo 1178470">
                <g id="Grupo_1178469" data-name="Grupo 1178469" clip-path="url(#clip-path-8)">
                  <rect id="Rectángulo_455232" data-name="Rectángulo 455232" width="2.143" height="14.918" fill="#abcdeb"/>
                </g>
              </g>
            </g>
            <rect id="Rectángulo_455234" data-name="Rectángulo 455234" width="4.449" height="14.918" transform="translate(167.873 13.644)" fill="#579ad7"/>
            <g id="Grupo_1178474" data-name="Grupo 1178474" transform="translate(163.277 13.644)" opacity="0.5">
              <g id="Grupo_1178473" data-name="Grupo 1178473">
                <g id="Grupo_1178472" data-name="Grupo 1178472" clip-path="url(#clip-path-9)">
                  <rect id="Rectángulo_455235" data-name="Rectángulo 455235" width="2.143" height="14.918" fill="#abcdeb"/>
                </g>
              </g>
            </g>
            <g id="Grupo_1178477" data-name="Grupo 1178477" transform="translate(174.649 13.644)" opacity="0.5">
              <g id="Grupo_1178476" data-name="Grupo 1178476">
                <g id="Grupo_1178475" data-name="Grupo 1178475" clip-path="url(#clip-path-8)">
                  <rect id="Rectángulo_455237" data-name="Rectángulo 455237" width="2.143" height="14.918" fill="#abcdeb"/>
                </g>
              </g>
            </g>
            <rect id="Rectángulo_455239" data-name="Rectángulo 455239" width="4.449" height="14.918" transform="translate(137.734 13.644)" fill="#579ad7"/>
            <g id="Grupo_1178480" data-name="Grupo 1178480" transform="translate(143.996 13.644)" opacity="0.5">
              <g id="Grupo_1178479" data-name="Grupo 1178479">
                <g id="Grupo_1178478" data-name="Grupo 1178478" clip-path="url(#clip-path-9)">
                  <rect id="Rectángulo_455240" data-name="Rectángulo 455240" width="2.143" height="14.918" fill="#abcdeb"/>
                </g>
              </g>
            </g>
            <path id="Trazado_998560" data-name="Trazado 998560" d="M181.638,25.677V22.26a3.563,3.563,0,1,1,7.127,0v3.416a3.563,3.563,0,1,1-7.127,0" transform="translate(-30.55 -3.145)" fill="#a4cdeb"/>
            <rect id="Rectángulo_455242" data-name="Rectángulo 455242" width="173.589" height="25.587" transform="translate(90.928 282.753)" fill="#b42b3b"/>
            <rect id="Rectángulo_455243" data-name="Rectángulo 455243" width="3.066" height="25.587" transform="translate(101.153 282.753)" fill="#ebaf29"/>
            <rect id="Rectángulo_455244" data-name="Rectángulo 455244" width="3.065" height="25.587" transform="translate(106.205 282.753)" fill="#ebaf29"/>
            <rect id="Rectángulo_455245" data-name="Rectángulo 455245" width="3.066" height="25.587" transform="translate(202.701 282.753)" fill="#ebaf29"/>
            <rect id="Rectángulo_455246" data-name="Rectángulo 455246" width="3.066" height="25.587" transform="translate(207.752 282.753)" fill="#ebaf29"/>
            <rect id="Rectángulo_455247" data-name="Rectángulo 455247" width="3.066" height="25.587" transform="translate(245.501 282.753)" fill="#ebaf29"/>
            <rect id="Rectángulo_455248" data-name="Rectángulo 455248" width="3.065" height="25.587" transform="translate(250.553 282.753)" fill="#ebaf29"/>
            <g id="Grupo_1178483" data-name="Grupo 1178483" transform="translate(90.927 286.188)" opacity="0.4" style="mix-blend-mode: multiply;isolation: isolate">
              <g id="Grupo_1178482" data-name="Grupo 1178482">
                <g id="Grupo_1178481" data-name="Grupo 1178481" clip-path="url(#clip-path-12)">
                  <line id="Línea_3470" data-name="Línea 3470" x2="173.589" transform="translate(0 0.354)" fill="none" stroke="#b42b3b" stroke-miterlimit="10" stroke-width="0.85"/>
                </g>
              </g>
            </g>
            <g id="Grupo_1178486" data-name="Grupo 1178486" transform="translate(90.927 304.796)" opacity="0.4" style="mix-blend-mode: multiply;isolation: isolate">
              <g id="Grupo_1178485" data-name="Grupo 1178485">
                <g id="Grupo_1178484" data-name="Grupo 1178484" clip-path="url(#clip-path-12)">
                  <line id="Línea_3471" data-name="Línea 3471" x2="173.589" transform="translate(0 0.354)" fill="none" stroke="#b42b3b" stroke-miterlimit="10" stroke-width="0.85"/>
                </g>
              </g>
            </g>
            <path id="Trazado_998561" data-name="Trazado 998561" d="M213.759,360.7H144.908a6.513,6.513,0,0,1,0-13.026h68.851a6.513,6.513,0,1,1,0,13.026" transform="translate(-23.277 -58.477)" fill="#ebaf29"/>
            <path id="Trazado_998562" data-name="Trazado 998562" d="M278.259,360.7H265.517a6.513,6.513,0,0,1,0-13.026h12.742a6.513,6.513,0,0,1,0,13.026" transform="translate(-43.563 -58.477)" fill="#ebaf29"/>
            <path id="Trazado_998563" data-name="Trazado 998563" d="M217.764,185.884H152.917a10.12,10.12,0,0,1,0-20.24h64.848a1.352,1.352,0,0,1,0,2.7V183.18a1.352,1.352,0,0,1,0,2.7" transform="translate(-24.018 -27.86)" fill="#446eab"/>
            <path id="Trazado_998564" data-name="Trazado 998564" d="M150.176,176.223a10.1,10.1,0,0,1,3.751-7.855h-5.481a10.086,10.086,0,0,0-.413,15.344h5.48a10.085,10.085,0,0,1-3.338-7.49" transform="translate(-24.337 -28.318)" fill="#6185b9"/>
            <path id="Trazado_998565" data-name="Trazado 998565" d="M170.163,176.223a10.1,10.1,0,0,1,3.751-7.855h-5.48a10.085,10.085,0,0,0-.413,15.344h5.48a10.085,10.085,0,0,1-3.338-7.49" transform="translate(-27.699 -28.318)" fill="#6185b9"/>
            <g id="Grupo_1178489" data-name="Grupo 1178489" transform="translate(128.765 140.05)" opacity="0.5">
              <g id="Grupo_1178488" data-name="Grupo 1178488">
                <g id="Grupo_1178487" data-name="Grupo 1178487" clip-path="url(#clip-path-14)">
                  <path id="Trazado_998566" data-name="Trazado 998566" d="M160.282,176.223a10.1,10.1,0,0,1,3.751-7.855h-5.481a10.086,10.086,0,0,0-.413,15.344h5.48a10.085,10.085,0,0,1-3.338-7.49" transform="translate(-154.802 -168.368)" fill="#6185b9"/>
                </g>
              </g>
            </g>
            <path id="Trazado_998567" data-name="Trazado 998567" d="M246.326,184.805H183.386a8.768,8.768,0,1,1,0-17.535h62.939a22.818,22.818,0,0,0,0,17.535" transform="translate(-29.37 -28.134)" fill="#fff"/>
            <path id="Trazado_998568" data-name="Trazado 998568" d="M247.96,185.884H183.113a10.12,10.12,0,0,1,0-20.24H247.96a1.352,1.352,0,0,1,0,2.7H183.113a7.416,7.416,0,0,0,0,14.832H247.96a1.352,1.352,0,0,1,0,2.7" transform="translate(-29.096 -27.86)" fill="#3a66a7"/>
            <line id="Línea_3472" data-name="Línea 3472" x2="56.373" transform="translate(152.408 149)" fill="none" stroke="#cfcfcf" stroke-miterlimit="10" stroke-width="0.85"/>
            <line id="Línea_3473" data-name="Línea 3473" x2="55.782" transform="translate(153.252 151.74)" fill="none" stroke="#cfcfcf" stroke-miterlimit="10" stroke-width="0.85"/>
            <path id="Trazado_998569" data-name="Trazado 998569" d="M234.546,186.488l-3.915-3.656-4.157,3.656v-10.72h8.072Z" transform="translate(-38.092 -29.563)" fill="#ebaf29"/>
            <line id="Línea_3474" data-name="Línea 3474" x2="55.782" transform="translate(152.887 146.26)" fill="none" stroke="#cfcfcf" stroke-miterlimit="10" stroke-width="0.85"/>
            <path id="Trazado_998570" data-name="Trazado 998570" d="M204.26,183.162l-3.915-3.656-4.157,3.656v-10.72h8.072Z" transform="translate(-32.998 -29.004)" fill="#dd482f"/>
            <line id="Línea_3475" data-name="Línea 3475" x2="54.893" transform="translate(154.061 143.52)" fill="none" stroke="#cfcfcf" stroke-miterlimit="10" stroke-width="0.85"/>
            <rect id="Rectángulo_455252" data-name="Rectángulo 455252" width="67.504" height="13.608" transform="translate(122.693 65.249)" fill="#3a66a7"/>
            <rect id="Rectángulo_455253" data-name="Rectángulo 455253" width="4.118" height="13.608" transform="translate(126.669 65.249)" fill="#579591"/>
            <rect id="Rectángulo_455254" data-name="Rectángulo 455254" width="0.828" height="13.608" transform="translate(132.058 65.249)" fill="#579591"/>
            <rect id="Rectángulo_455255" data-name="Rectángulo 455255" width="0.828" height="13.608" transform="translate(180.257 65.249)" fill="#579591"/>
            <rect id="Rectángulo_455256" data-name="Rectángulo 455256" width="4.118" height="13.608" transform="translate(182.621 65.249)" fill="#579591"/>
            <line id="Línea_3476" data-name="Línea 3476" x2="67.504" transform="translate(122.693 67.264)" fill="none" stroke="#25424b" stroke-miterlimit="10" stroke-width="0.85"/>
            <line id="Línea_3477" data-name="Línea 3477" x2="67.504" transform="translate(122.693 77.16)" fill="none" stroke="#25424b" stroke-miterlimit="10" stroke-width="0.85"/>
            <path id="Trazado_998571" data-name="Trazado 998571" d="M170.146,86.811l-2.563-1.042-2.563,1.042,2.563,1.042Z" transform="translate(-27.755 -14.426)" fill="#fff"/>
            <path id="Trazado_998572" data-name="Trazado 998572" d="M208.426,86.811l-2.563-1.042L203.3,86.811l2.563,1.042Z" transform="translate(-34.194 -14.426)" fill="#fff"/>
            <rect id="Rectángulo_455257" data-name="Rectángulo 455257" width="73.946" height="14.241" transform="translate(121.45 28.562)" fill="#65a09c"/>
            <g id="Grupo_1178492" data-name="Grupo 1178492" transform="translate(134.608 30.233)" opacity="0.5">
              <g id="Grupo_1178491" data-name="Grupo 1178491">
                <g id="Grupo_1178490" data-name="Grupo 1178490" clip-path="url(#clip-path-15)">
                  <path id="Trazado_998573" data-name="Trazado 998573" d="M162.251,44.414V39.32a2.549,2.549,0,0,0,2.549-2.549h41.824a2.549,2.549,0,0,0,2.549,2.549v5.093a2.549,2.549,0,0,0-2.549,2.549H164.8A2.549,2.549,0,0,0,162.251,44.414Z" transform="translate(-161.897 -36.417)" fill="none" stroke="#fff" stroke-miterlimit="10" stroke-width="0.85"/>
                </g>
              </g>
            </g>
            <line id="Línea_3478" data-name="Línea 3478" y2="14.241" transform="translate(189.719 28.561)" fill="none" stroke="#fff" stroke-miterlimit="10" stroke-width="0.85"/>
            <line id="Línea_3479" data-name="Línea 3479" y1="14.241" transform="translate(185.686 28.562)" fill="none" stroke="#fff" stroke-miterlimit="10" stroke-width="0.85"/>
            <line id="Línea_3480" data-name="Línea 3480" y1="14.241" transform="translate(127.127 28.562)" fill="none" stroke="#fff" stroke-miterlimit="10" stroke-width="0.85"/>
            <line id="Línea_3481" data-name="Línea 3481" y2="14.241" transform="translate(131.16 28.561)" fill="none" stroke="#fff" stroke-miterlimit="10" stroke-width="0.85"/>
            <rect id="Rectángulo_455259" data-name="Rectángulo 455259" width="84.223" height="13.644" transform="translate(141.2)" fill="#e77f6d"/>
            <rect id="Rectángulo_455260" data-name="Rectángulo 455260" width="6.383" height="13.644" transform="translate(219.04)" fill="#dd482f"/>
            <rect id="Rectángulo_455261" data-name="Rectángulo 455261" width="6.686" height="13.644" transform="translate(141.2)" fill="#dd482f"/>
            <g id="Grupo_1178495" data-name="Grupo 1178495" transform="translate(215.085)" opacity="0.5">
              <g id="Grupo_1178494" data-name="Grupo 1178494">
                <g id="Grupo_1178493" data-name="Grupo 1178493" clip-path="url(#clip-path-16)">
                  <rect id="Rectángulo_455262" data-name="Rectángulo 455262" width="2.212" height="13.644" fill="#dd482f"/>
                </g>
              </g>
            </g>
            <g id="Grupo_1178498" data-name="Grupo 1178498" transform="translate(167.021)" opacity="0.5">
              <g id="Grupo_1178497" data-name="Grupo 1178497">
                <g id="Grupo_1178496" data-name="Grupo 1178496" clip-path="url(#clip-path-17)">
                  <rect id="Rectángulo_455264" data-name="Rectángulo 455264" width="2.212" height="13.644" fill="#dd482f"/>
                </g>
              </g>
            </g>
            <g id="Grupo_1178501" data-name="Grupo 1178501" transform="translate(149.18)" opacity="0.5">
              <g id="Grupo_1178500" data-name="Grupo 1178500">
                <g id="Grupo_1178499" data-name="Grupo 1178499" clip-path="url(#clip-path-16)">
                  <rect id="Rectángulo_455266" data-name="Rectángulo 455266" width="2.212" height="13.644" fill="#dd482f"/>
                </g>
              </g>
            </g>
            <path id="Trazado_998574" data-name="Trazado 998574" d="M193.481,10.385h-5.825a2.913,2.913,0,0,1,0-5.825h5.825a2.913,2.913,0,0,1,0,5.825Z" transform="translate(-31.073 -0.767)" fill="none" stroke="#dd482f" stroke-miterlimit="10" stroke-width="0.85"/>
            <path id="Trazado_998575" data-name="Trazado 998575" d="M243.5,10.385H209.54a2.913,2.913,0,0,1,0-5.825H243.5a2.913,2.913,0,0,1,0,5.825Z" transform="translate(-34.754 -0.767)" fill="none" stroke="#dd482f" stroke-miterlimit="10" stroke-width="0.85"/>
            <rect id="Rectángulo_455268" data-name="Rectángulo 455268" width="127.34" height="15.301" transform="translate(117.475 245.49)" fill="#fff"/>
            <rect id="Rectángulo_455269" data-name="Rectángulo 455269" width="127.34" height="15.301" transform="translate(117.552 245.49)" fill="#fff"/>
            <rect id="Rectángulo_455270" data-name="Rectángulo 455270" width="127.34" height="15.301" transform="translate(117.627 245.49)" fill="#fff"/>
            <path id="Trazado_998576" data-name="Trazado 998576" d="M269.372,296.26H139.208a1.6,1.6,0,1,1,0-3.208H269.372a1.6,1.6,0,0,1,0,3.208" transform="translate(-23.144 -49.29)" fill="#fc69a3"/>
            <path id="Trazado_998577" data-name="Trazado 998577" d="M269.372,315.842H139.208a1.6,1.6,0,1,1,0-3.208H269.372a1.6,1.6,0,0,1,0,3.208" transform="translate(-23.144 -52.583)" fill="#fc69a3"/>
            <line id="Línea_3482" data-name="Línea 3482" x2="103.402" transform="translate(129.444 253.141)" fill="none" stroke="#cfcfcf" stroke-miterlimit="10" stroke-width="0.85"/>
            <line id="Línea_3483" data-name="Línea 3483" x2="103.402" transform="translate(129.444 256.139)" fill="none" stroke="#cfcfcf" stroke-miterlimit="10" stroke-width="0.85"/>
            <path id="Trazado_998578" data-name="Trazado 998578" d="M171.462,319.386l-4.893-6.417-5.195,6.417V300.567h10.087Z" transform="translate(-27.142 -50.554)" fill="#3a66a7"/>
            <line id="Línea_3484" data-name="Línea 3484" x2="103.402" transform="translate(129.444 250.142)" fill="none" stroke="#cfcfcf" stroke-miterlimit="10" stroke-width="0.85"/>
            <path id="Trazado_998579" data-name="Trazado 998579" d="M50.4,306.092c8.589,18.778,20.2,51.574,16.318,52.24s-21.781-31.048-30.37-49.826-5.52-19.484-1.639-20.15,7.1-1.041,15.691,17.737" transform="translate(-5.187 -48.462)" fill="#999"/>
            <path id="Trazado_998580" data-name="Trazado 998580" d="M37.474,289.506c-5.939,1.682-1.234,10.323,11.642,36.377" transform="translate(-5.875 -48.693)" fill="none" stroke="#6b6b6b" stroke-miterlimit="10" stroke-width="0.85"/>
            <rect id="Rectángulo_455271" data-name="Rectángulo 455271" width="62.885" height="71.431" transform="translate(33.653 274.64)" fill="#fff"/>
            <path id="Trazado_998581" data-name="Trazado 998581" d="M23.277,393.8C10.007,393.8,0,382.056,0,366.486s10.007-27.312,23.277-27.312c13.6,0,24.662,12.253,24.662,27.312S36.876,393.8,23.277,393.8m0-45.586c-8.251,0-14.24,7.686-14.24,18.274s5.989,18.275,14.24,18.275c8.615,0,15.624-8.2,15.624-18.275s-7.009-18.274-15.624-18.274" transform="translate(0 -57.047)" fill="#fff"/>
            <path id="Trazado_998582" data-name="Trazado 998582" d="M70.437,385.78c-33.375-26.456-6.919-52.1,4.07-23.2,26.863-34.6,31.748,15.06-4.07,23.2" transform="translate(-9.106 -58.839)" fill="#ef4747"/>
            <line id="Línea_3485" data-name="Línea 3485" y2="56.169" transform="translate(33.565 282.169)" fill="none" stroke="#999" stroke-miterlimit="10" stroke-width="0.85"/>
            <path id="Trazado_998583" data-name="Trazado 998583" d="M256.747,389.077c17.582.173,35.181.595,52.737,1.607a239.36,239.36,0,0,1,25.111,2.338c7.54,1.241,13.45,4.85,19.492,9.423,3.173,2.4,6.239,4.95,9.206,7.6,1.276,1.141,3.458,2.587,4.3,4.094.9,1.607-.287,3.168-1.446,4.271-3.054,2.9-4.862.06-7.18-2.151-3.048-2.906-6.211-5.7-9.511-8.311a57.9,57.9,0,0,0-9.577-6.485c-3.283-1.661-7.267-2.075-10.867-2.6-8.436-1.234-16.951-1.943-25.449-2.58-9.643-.723-19.3-1.272-28.958-1.74q-7.364-.357-14.731-.635c-1.553-.058-3.994.361-5.049-1.111a2.367,2.367,0,0,1,1.924-3.721" transform="translate(-42.787 -65.44)" fill="#35322e"/>
            <path id="Trazado_998584" data-name="Trazado 998584" d="M353.864,391.965c-19.255,1.432-38.533,3.066-57.684,5.553-3.6.468-7.208.952-10.8,1.53a75,75,0,0,0-11.154,2.386,32.347,32.347,0,0,0-11.385,7c-3.462,3.109-5.943,6.741-8.772,10.37-1.043,1.338-1.995,1.381-3.483.68s-3.666-2.027-3.184-3.963c.329-1.319,1.729-2.683,2.542-3.733a61.825,61.825,0,0,1,4.552-5.234,48.925,48.925,0,0,1,10.918-8.6c9.409-5.308,21.11-5.616,31.669-6.722,10.659-1.115,21.362-1.867,32.056-2.566q8.985-.586,17.978-1.074c2.061-.111,6.5-1.226,8.161.274a2.383,2.383,0,0,1-1.417,4.1" transform="translate(-41.6 -65.106)" fill="#494643"/>
            <g id="Grupo_1178504" data-name="Grupo 1178504" transform="translate(213.356 316.835)" opacity="0.6">
              <g id="Grupo_1178503" data-name="Grupo 1178503">
                <g id="Grupo_1178502" data-name="Grupo 1178502" clip-path="url(#clip-path-19)">
                  <path id="Trazado_998585" data-name="Trazado 998585" d="M256.607,390.8c-.77,12.476,2.381,24.85,14.285,26.636s22.023-2.53,25.445-12.946,3.274-17.41-4.463-21.13-34.523-4.612-35.267,7.441" transform="translate(-256.497 -380.9)" fill="#dbffff"/>
                </g>
              </g>
            </g>
            <g id="Grupo_1178507" data-name="Grupo 1178507" transform="translate(270.567 316.835)" opacity="0.6">
              <g id="Grupo_1178506" data-name="Grupo 1178506">
                <g id="Grupo_1178505" data-name="Grupo 1178505" clip-path="url(#clip-path-20)">
                  <path id="Trazado_998586" data-name="Trazado 998586" d="M367.144,390.8c.77,12.476-2.381,24.85-14.286,26.636s-22.023-2.53-25.445-12.946-3.274-17.41,4.464-21.13,34.522-4.612,35.266,7.441" transform="translate(-325.277 -380.9)" fill="#dbffff"/>
                </g>
              </g>
            </g>
            <path id="Trazado_998587" data-name="Trazado 998587" d="M357.452,390.181c-.218-3.531-2.2-6.489-5.719-8.557-9.189-5.389-26.851-3.782-32.922-.863a15.129,15.129,0,0,0-4.715,3.4,3.818,3.818,0,0,1-4.253.979,11.569,11.569,0,0,0-8.714-.151,3.794,3.794,0,0,1-4.131-.974,15.282,15.282,0,0,0-4.58-3.25c-6.072-2.919-23.734-4.528-32.922.863-3.524,2.068-5.5,5.026-5.72,8.557-1.036,16.794,4.9,27.406,16.288,29.114a36.812,36.812,0,0,0,5.451.419c11.035,0,19.46-5.452,22.584-14.962,1.333-4.053,2.4-8.279,2.251-12.159,1.946-1.353,5.691-2.879,10.515.29a36.872,36.872,0,0,0,2.263,11.868c3.124,9.509,11.549,14.962,22.585,14.962a36.912,36.912,0,0,0,5.451-.419c11.388-1.709,17.325-12.321,16.288-29.114m-63.832,13.1c-2.9,8.819-11.441,13.066-22.855,11.35-11.873-1.782-12.792-15.9-12.282-24.159.121-1.946,1.233-3.509,3.4-4.78,7.647-4.487,23.483-3.089,28.493-.68,4.931,2.371,7.194,6.254,3.246,18.269m46.844,11.35c-11.412,1.716-19.958-2.532-22.856-11.35-3.949-12.015-1.685-15.9,3.246-18.269,2.633-1.266,8.255-2.253,14.108-2.253,5.283,0,10.755.8,14.384,2.933,2.166,1.27,3.278,2.834,3.4,4.78.51,8.258-.408,22.377-12.282,24.159" transform="translate(-42.664 -63.589)" fill="#5d5b58"/>
            <g id="Grupo_1178510" data-name="Grupo 1178510" transform="translate(255.512 321.921)" opacity="0.4" style="mix-blend-mode: multiply;isolation: isolate">
              <g id="Grupo_1178509" data-name="Grupo 1178509">
                <g id="Grupo_1178508" data-name="Grupo 1178508" clip-path="url(#clip-path-21)">
                  <path id="Trazado_998588" data-name="Trazado 998588" d="M307.567,387.185a25.445,25.445,0,0,1,1.752,5.973" transform="translate(-307.243 -387.043)" fill="none" stroke="#35322e" stroke-miterlimit="10" stroke-width="0.85"/>
                </g>
              </g>
            </g>
            <path id="Trazado_998589" data-name="Trazado 998589" d="M324.622,386.9a17.245,17.245,0,0,0-1.832,6.69" transform="translate(-54.291 -65.074)" fill="none" stroke="#35322e" stroke-miterlimit="10" stroke-width="0.85"/>
            <path id="Trazado_998590" data-name="Trazado 998590" d="M253.095,398.192a12.111,12.111,0,0,0-4.38-8.442l-.319-6.929a169.038,169.038,0,0,1,17.2-3.583c-8.442,6.132-12.265,12.981-12.5,18.955" transform="translate(-41.779 -63.785)" fill="#5d5b58"/>
            <path id="Trazado_998591" data-name="Trazado 998591" d="M253.242,387.579l-1.273-2.31-1.273,2.31,1.273,2.31Z" transform="translate(-42.166 -64.8)" fill="#fff"/>
            <path id="Trazado_998592" data-name="Trazado 998592" d="M375.885,398.292a12.111,12.111,0,0,1,4.38-8.442l.319-6.929a169.024,169.024,0,0,0-17.2-3.583c8.442,6.132,12.265,12.981,12.5,18.954" transform="translate(-61.118 -63.802)" fill="#5d5b58"/>
            <path id="Trazado_998593" data-name="Trazado 998593" d="M378.7,387.679l1.273-2.31,1.273,2.31-1.273,2.31Z" transform="translate(-63.695 -64.817)" fill="#fff"/>
            <g id="Grupo_1178513" data-name="Grupo 1178513" transform="translate(273.404 327.843)" opacity="0.4">
              <g id="Grupo_1178512" data-name="Grupo 1178512">
                <g id="Grupo_1178511" data-name="Grupo 1178511" clip-path="url(#clip-path-22)">
                  <line id="Línea_3486" data-name="Línea 3486" y1="2.07" x2="22.618" transform="translate(0.033 0.353)" fill="none" stroke="#35322e" stroke-miterlimit="10" stroke-width="0.85"/>
                </g>
              </g>
            </g>
            <g id="Grupo_1178516" data-name="Grupo 1178516" transform="translate(231.868 325.771)" opacity="0.4">
              <g id="Grupo_1178515" data-name="Grupo 1178515">
                <g id="Grupo_1178514" data-name="Grupo 1178514" clip-path="url(#clip-path-23)">
                  <path id="Trazado_998594" data-name="Trazado 998594" d="M278.913,395.253s7.009-2.867,20.388-3.186" transform="translate(-278.779 -391.714)" fill="none" stroke="#35322e" stroke-miterlimit="10" stroke-width="0.85"/>
                </g>
              </g>
            </g>
          </g>
        </g>
        <text id="BOOK_" data-name="BOOK " transform="translate(131.087 234.088)" fill="#fff" font-size="15" font-family="SegoeUI, Segoe UI"><tspan x="0" y="0" letter-spacing="0.14em">B</tspan><tspan y="0" letter-spacing="0.139em">O</tspan><tspan y="0" letter-spacing="0.14em">OK</tspan><tspan y="0"> </tspan></text>
        <text id="thriller_" data-name="thriller " transform="translate(103.911 272.706)" fill="#fff" font-size="8" font-family="SegoeUI, Segoe UI"><tspan x="0" y="0" letter-spacing="0.04em">t</tspan><tspan y="0" letter-spacing="0.039em">h</tspan><tspan y="0" letter-spacing="0.043em">r</tspan><tspan y="0" letter-spacing="0.04em">i</tspan><tspan y="0" letter-spacing="0.039em">l</tspan><tspan y="0" letter-spacing="0.04em">ler</tspan><tspan y="0"> </tspan></text>
        <text id="BOOK_2_" data-name="BOOK 2 " transform="translate(135.488 126.026)" fill="#fff" font-size="5" font-family="SegoeUI, Segoe UI"><tspan x="0" y="0" letter-spacing="0.04em">BOOK 2</tspan><tspan y="0"> </tspan></text>
        <text id="mathematics_" data-name="mathematics " transform="translate(99.081 162.153)" fill="#fff" font-size="5" font-family="SegoeUI, Segoe UI"><tspan x="0" y="0" letter-spacing="0.04em">m</tspan><tspan y="0" letter-spacing="0.035em">a</tspan><tspan y="0" letter-spacing="0.039em">th</tspan><tspan y="0" letter-spacing="0.04em">em</tspan><tspan y="0" letter-spacing="0.035em">a</tspan><tspan y="0" letter-spacing="0.039em">t</tspan><tspan y="0" letter-spacing="0.04em">i</tspan><tspan y="0" letter-spacing="0.039em">c</tspan><tspan y="0" letter-spacing="0.04em">s</tspan><tspan y="0"> </tspan></text>
        <text id="FANTASY" transform="translate(162.646 84.194)" fill="#fff" font-size="4" font-family="SegoeUI, Segoe UI"><tspan x="0" y="0" letter-spacing="0.162em">F</tspan><tspan y="0" letter-spacing="0.239em">A</tspan><tspan y="0" letter-spacing="0.24em">N</tspan><tspan y="0" letter-spacing="0.165em">T</tspan><tspan y="0" letter-spacing="0.239em">AS</tspan><tspan y="0">Y</tspan></text>
        <text id="BOOK" transform="translate(131.242 194.448) rotate(-90)" fill="#fff" font-size="4" font-family="SegoeUI, Segoe UI"><tspan x="0" y="0" letter-spacing="0.06em">BOO</tspan><tspan y="0">K</tspan></text>
        <text id="VOL" transform="translate(203.577 194.36) rotate(-90)" fill="#fff" font-size="3" font-family="SegoeUI, Segoe UI"><tspan x="0" y="0" letter-spacing="0.059em">V</tspan><tspan y="0" letter-spacing="0.06em">O</tspan><tspan y="0">L</tspan></text>
        <text id="_." data-name="." transform="translate(201.577 178.923) rotate(-90)" fill="#fff" font-size="1" font-family="SegoeUI, Segoe UI"><tspan x="0" y="0">.</tspan></text>
        <text id="_1" data-name=" 1" transform="translate(202.577 179.518) rotate(-90)" fill="#fff" font-size="2" font-family="SegoeUI, Segoe UI"><tspan x="0" y="0" letter-spacing="0.06em"> </tspan><tspan y="0">1</tspan></text>
        <text id="BOOK-2" data-name="BOOK" transform="translate(210.105 45.663) rotate(90)" fill="#fff" font-size="4" font-family="SegoeUI, Segoe UI"><tspan x="0" y="0" letter-spacing="0.06em">BO</tspan><tspan y="0" letter-spacing="0.059em">O</tspan><tspan y="0">K</tspan></text>
        <text id="VOL-2" data-name="VOL" transform="translate(137.77 44.769) rotate(90)" fill="#fff" font-size="3" font-family="SegoeUI, Segoe UI"><tspan x="0" y="0" letter-spacing="0.06em">V</tspan><tspan y="0" letter-spacing="0.059em">O</tspan><tspan y="0">L</tspan></text>
        <text id="_.-2" data-name="." transform="translate(139.77 60.205) rotate(90)" fill="#fff" font-size="1" font-family="SegoeUI, Segoe UI"><tspan x="0" y="0">.</tspan></text>
        <text id="_2" data-name=" 2" transform="translate(138.77 59.611) rotate(90)" fill="#fff" font-size="2" font-family="SegoeUI, Segoe UI"><tspan x="0" y="0" letter-spacing="0.06em"> </tspan><tspan y="0">2</tspan></text>
        <text id="HISTORY_BOOK" data-name="HISTORY BOOK" transform="translate(120.071 292.012)" fill="#35322e" font-size="5" font-family="SegoeUI, Segoe UI"><tspan x="0" y="0" letter-spacing="0.059em">HI</tspan><tspan y="0" letter-spacing="0.06em">S</tspan><tspan y="0" letter-spacing="0.033em">T</tspan><tspan y="0" letter-spacing="0.059em">O</tspan><tspan y="0" letter-spacing="0.049em">R</tspan><tspan y="0" letter-spacing="0.06em">Y BO</tspan><tspan y="0" letter-spacing="0.059em">O</tspan><tspan y="0">K</tspan></text>
        <text id="BOOK-3" data-name="BOOK" transform="translate(142.833 69.074)" fill="#fff" font-size="4" font-family="SegoeUI, Segoe UI"><tspan x="0" y="0" letter-spacing="0.24em">BO</tspan><tspan y="0" letter-spacing="0.239em">O</tspan><tspan y="0">K</tspan></text>
        <text id="Romance" transform="translate(141.101 32.836)" fill="#fff" font-size="4" font-family="SegoeUI, Segoe UI"><tspan x="0" y="0">Romance</tspan></text>
      </g>
    </g>
    <g id="Grupo_1178659" data-name="Grupo 1178659" transform="translate(-34.081 33.535)">
      <g id="Grupo_1178654" data-name="Grupo 1178654" transform="translate(0 -6)">
        <circle id="Elipse_13722" data-name="Elipse 13722" cx="29" cy="29" r="29" transform="translate(420.081 801)" fill="#cff878"/>
        <circle id="Elipse_13725" data-name="Elipse 13725" cx="29" cy="29" r="29" transform="translate(420.081 879)" fill="#cff878"/>
        <circle id="Elipse_13726" data-name="Elipse 13726" cx="29" cy="29" r="29" transform="translate(502 972)" fill="#cff878"/>
        <circle id="Elipse_13723" data-name="Elipse 13723" cx="29" cy="29" r="29" transform="translate(582.081 801)" fill="#cff878"/>
        <circle id="Elipse_13724" data-name="Elipse 13724" cx="29" cy="29" r="29" transform="translate(582.081 879)" fill="#cff878"/>
        <path id="Trazado_1005614" data-name="Trazado 1005614" d="M8.641-20.312a2.859,2.859,0,0,1-1.023,2.281,4,4,0,0,1-2.7.875,3.906,3.906,0,0,1-2.664-.906,2.866,2.866,0,0,1-1.039-2.25,2.775,2.775,0,0,1,1.008-2.227,4.039,4.039,0,0,1,2.7-.852,4.076,4.076,0,0,1,2.7.852A2.758,2.758,0,0,1,8.641-20.312ZM1.594,0V-16H8.25V0Z" transform="translate(445.081 841)" fill="#12263f"/>
        <path id="Trazado_1005616" data-name="Trazado 1005616" d="M-1.633-6.109A2.249,2.249,0,0,0-.445-4.492a5.355,5.355,0,0,0,2.688.586A11.068,11.068,0,0,0,6.648-4.8V-.578A15.836,15.836,0,0,1,.773.391,9.27,9.27,0,0,1-5.742-1.75,7.6,7.6,0,0,1-8.07-7.641a9.719,9.719,0,0,1,1.023-4.547,7.364,7.364,0,0,1,3.031-3.086,8.956,8.956,0,0,1,4.43-1.117,8.716,8.716,0,0,1,4.25.969A6.453,6.453,0,0,1,7.344-12.7a8.723,8.723,0,0,1,.914,4.094v2.5Zm4-3.484q0-2.766-1.984-2.766a1.679,1.679,0,0,0-1.391.758,3.782,3.782,0,0,0-.656,2.008Z" transform="translate(449.081 919)" fill="#12263f"/>
        <path id="Trazado_1005618" data-name="Trazado 1005618" d="M1.492,0V-2.437H1.43A5.234,5.234,0,0,1-3.445.391,4.667,4.667,0,0,1-6.992-.953,4.992,4.992,0,0,1-8.273-4.547q0-4.719,5.8-5.469l3.969-.516a1.513,1.513,0,0,0-.7-1.281,3.2,3.2,0,0,0-1.891-.5,12.453,12.453,0,0,0-5.672,1.531v-4.328a15.174,15.174,0,0,1,3.25-.922A18.915,18.915,0,0,1-.18-16.391q4.078,0,5.914,1.742T7.57-8.828V0ZM-2.445-5.437a1.475,1.475,0,0,0,.414,1.078,1.579,1.579,0,0,0,1.18.422,2.1,2.1,0,0,0,1.7-.781,3.027,3.027,0,0,0,.648-2v-.609l-2.25.313Q-2.445-6.734-2.445-5.437Z" transform="translate(531 1012)" fill="#12263f"/>
        <path id="Trazado_1005615" data-name="Trazado 1005615" d="M11.781,0V-2.469h-.062A8.757,8.757,0,0,1,10.227-.8a5.742,5.742,0,0,1-1.5.859A5.3,5.3,0,0,1,6.781.391a4.839,4.839,0,0,1-4-1.7A7.873,7.873,0,0,1,1.406-6.344V-16H8.063v9.156q0,2.359,1.766,2.359a1.728,1.728,0,0,0,1.461-.641,2.92,2.92,0,0,0,.492-1.812V-16h6.656V0Z" transform="translate(602.081 841)" fill="#12263f"/>
        <path id="Trazado_1005617" data-name="Trazado 1005617" d="M9.25-8.281A8.332,8.332,0,0,1,6.8-1.922,9.555,9.555,0,0,1-.031.391,9.594,9.594,0,0,1-6.82-1.867,8.082,8.082,0,0,1-9.25-8.094a8.342,8.342,0,0,1,1.141-4.422,7.417,7.417,0,0,1,3.25-2.875,11.22,11.22,0,0,1,4.859-1,10.868,10.868,0,0,1,4.93,1.047,7.62,7.62,0,0,1,3.2,2.906A7.914,7.914,0,0,1,9.25-8.281ZM2.5-8.25q0-3.266-2.5-3.266T-2.5-8.094q0,3.609,2.531,3.609Q2.5-4.484,2.5-8.25Z" transform="translate(611.081 919)" fill="#12263f"/>
        <rect id="Rectángulo_455411" data-name="Rectángulo 455411" width="70" height="13" transform="translate(494.081 824)" fill="#a4c2ff"/>
        <rect id="Rectángulo_455412" data-name="Rectángulo 455412" width="70" height="13" transform="translate(494.081 902)" fill="#a4c2ff"/>
        <rect id="Rectángulo_455413" data-name="Rectángulo 455413" width="70" height="13" transform="translate(498.081 902)" fill="#a4c2ff"/>
        <rect id="Rectángulo_455414" data-name="Rectángulo 455414" width="55.475" height="13" transform="translate(537.524 905.551) rotate(90)" fill="#a4c2ff"/>
        <path id="Polígono_11" data-name="Polígono 11" d="M18.024,0,36.047,31.651H0Z" transform="translate(478 848.023) rotate(-90)" fill="#a4c2ff"/>
        <path id="Polígono_14" data-name="Polígono 14" d="M18.024,0,36.047,31.651H0Z" transform="translate(478 926.024) rotate(-90)" fill="#a4c2ff"/>
        <path id="Polígono_12" data-name="Polígono 12" d="M18.024,0,36.047,31.651H0Z" transform="translate(582 811.976) rotate(90)" fill="#a4c2ff"/>
        <path id="Polígono_13" data-name="Polígono 13" d="M18.024,0,36.047,31.651H0Z" transform="translate(582 889.977) rotate(90)" fill="#a4c2ff"/>
        <path id="Polígono_15" data-name="Polígono 15" d="M18.024,0,36.047,31.651H0Z" transform="translate(549.047 974.85) rotate(180)" fill="#a4c2ff"/>
      </g>
      <g id="Grupo_1178655" data-name="Grupo 1178655" transform="translate(0 -5)">
        <path id="Trazado_1005607" data-name="Trazado 1005607" d="M9.355,0H4.619L.1-14H4.639L6.777-5.381a9.64,9.64,0,0,1,.283,1.563h.1a10.776,10.776,0,0,1,.3-1.621L9.541-14h4.395ZM26.162-5.176A5.207,5.207,0,0,1,24.634-1.2,5.972,5.972,0,0,1,20.361.244a6,6,0,0,1-4.243-1.411A5.051,5.051,0,0,1,14.6-5.059a5.214,5.214,0,0,1,.713-2.764,4.636,4.636,0,0,1,2.031-1.8,7.012,7.012,0,0,1,3.037-.625,6.792,6.792,0,0,1,3.081.654,4.763,4.763,0,0,1,2,1.816A4.946,4.946,0,0,1,26.162-5.176Zm-4.219.02q0-2.041-1.562-2.041T18.818-5.059Q18.818-2.8,20.4-2.8,21.943-2.8,21.943-5.156ZM35.957-.283A3.922,3.922,0,0,1,34.7.1a11.91,11.91,0,0,1-1.982.146A6.1,6.1,0,0,1,29.888-.4a4.667,4.667,0,0,1-1.929-1.792,4.975,4.975,0,0,1-.684-2.588A5.667,5.667,0,0,1,28-7.72a4.743,4.743,0,0,1,2.075-1.875,7.119,7.119,0,0,1,3.125-.649,10.933,10.933,0,0,1,1.753.127,2.678,2.678,0,0,1,1,.293v3.242a2.889,2.889,0,0,0-.9-.43A3.609,3.609,0,0,0,33.975-7.2a2.639,2.639,0,0,0-1.851.581,2.114,2.114,0,0,0-.63,1.636,2.075,2.075,0,0,0,.62,1.606,2.419,2.419,0,0,0,1.7.571,4.244,4.244,0,0,0,2.139-.557ZM43.164,0V-1.523h-.039A3.272,3.272,0,0,1,40.078.244,2.917,2.917,0,0,1,37.861-.6a3.12,3.12,0,0,1-.8-2.246q0-2.949,3.623-3.418l2.48-.322a.946.946,0,0,0-.439-.8A2,2,0,0,0,41.543-7.7,7.783,7.783,0,0,0,38-6.738V-9.443a9.484,9.484,0,0,1,2.031-.576,11.822,11.822,0,0,1,2.09-.225,5.247,5.247,0,0,1,3.7,1.089,4.853,4.853,0,0,1,1.147,3.638V0ZM40.7-3.4a.922.922,0,0,0,.259.674.987.987,0,0,0,.737.264,1.311,1.311,0,0,0,1.06-.488,1.892,1.892,0,0,0,.405-1.25V-4.58l-1.406.2Q40.7-4.209,40.7-3.4ZM48.838,0V-14.8H53V0Zm9.746-3.818a1.405,1.405,0,0,0,.742,1.011,3.347,3.347,0,0,0,1.68.366A6.917,6.917,0,0,0,63.76-3V-.361a9.9,9.9,0,0,1-3.672.605,5.794,5.794,0,0,1-4.072-1.338,4.753,4.753,0,0,1-1.455-3.682,6.074,6.074,0,0,1,.64-2.842,4.6,4.6,0,0,1,1.895-1.929,5.6,5.6,0,0,1,2.769-.7,5.447,5.447,0,0,1,2.656.605,4.033,4.033,0,0,1,1.675,1.7,5.452,5.452,0,0,1,.571,2.559v1.563ZM61.084-6q0-1.729-1.24-1.729a1.049,1.049,0,0,0-.869.474A2.364,2.364,0,0,0,58.564-6ZM74.326-3.32A3.054,3.054,0,0,1,73.032-.688a6.082,6.082,0,0,1-3.608.933A12.546,12.546,0,0,1,67.759.107a10.286,10.286,0,0,1-1.616-.332v-2.92a7.958,7.958,0,0,0,3.086.82q1.221,0,1.221-.635a.5.5,0,0,0-.283-.435,10.01,10.01,0,0,0-1.484-.571,4.192,4.192,0,0,1-1.934-1.113,2.647,2.647,0,0,1-.605-1.807,2.883,2.883,0,0,1,1.235-2.456,5.8,5.8,0,0,1,3.472-.9,11.035,11.035,0,0,1,2.773.381v2.8A8.387,8.387,0,0,0,72.275-7.5a5.443,5.443,0,0,0-1.23-.176,1.339,1.339,0,0,0-.654.137.421.421,0,0,0-.244.381.531.531,0,0,0,.264.459,4.664,4.664,0,0,0,1.055.42,4.894,4.894,0,0,1,2.2,1.152A2.525,2.525,0,0,1,74.326-3.32ZM89.658-.283A3.922,3.922,0,0,1,88.4.1a11.91,11.91,0,0,1-1.982.146A6.1,6.1,0,0,1,83.589-.4,4.667,4.667,0,0,1,81.66-2.187a4.975,4.975,0,0,1-.684-2.588A5.667,5.667,0,0,1,81.7-7.72a4.743,4.743,0,0,1,2.075-1.875,7.119,7.119,0,0,1,3.125-.649,10.933,10.933,0,0,1,1.753.127,2.678,2.678,0,0,1,1,.293v3.242a2.889,2.889,0,0,0-.9-.43A3.609,3.609,0,0,0,87.676-7.2a2.639,2.639,0,0,0-1.851.581A2.114,2.114,0,0,0,85.2-4.98a2.075,2.075,0,0,0,.62,1.606,2.419,2.419,0,0,0,1.7.571,4.244,4.244,0,0,0,2.139-.557ZM94.9-3.818a1.405,1.405,0,0,0,.742,1.011,3.347,3.347,0,0,0,1.68.366A6.917,6.917,0,0,0,100.078-3V-.361a9.9,9.9,0,0,1-3.672.605,5.794,5.794,0,0,1-4.072-1.338,4.753,4.753,0,0,1-1.455-3.682,6.074,6.074,0,0,1,.64-2.842,4.6,4.6,0,0,1,1.895-1.929,5.6,5.6,0,0,1,2.769-.7,5.447,5.447,0,0,1,2.656.605,4.033,4.033,0,0,1,1.675,1.7,5.452,5.452,0,0,1,.571,2.559v1.563ZM97.4-6q0-1.729-1.24-1.729a1.049,1.049,0,0,0-.869.474A2.364,2.364,0,0,0,94.883-6Zm12.637-.439a3.233,3.233,0,0,0-.635-.2,3.212,3.212,0,0,0-.664-.088q-2.061,0-2.061,2.383V0h-4.16V-10h4.16v1.758h.039a3.123,3.123,0,0,1,1.084-1.44,2.785,2.785,0,0,1,1.641-.493,1.409,1.409,0,0,1,.6.117Zm8.721,0a3.233,3.233,0,0,0-.635-.2,3.212,3.212,0,0,0-.664-.088q-2.061,0-2.061,2.383V0h-4.16V-10h4.16v1.758h.039a3.123,3.123,0,0,1,1.084-1.44,2.785,2.785,0,0,1,1.641-.493,1.409,1.409,0,0,1,.6.117ZM125.508,0V-1.523h-.039A3.272,3.272,0,0,1,122.422.244a2.917,2.917,0,0,1-2.217-.84,3.12,3.12,0,0,1-.8-2.246q0-2.949,3.623-3.418l2.48-.322a.946.946,0,0,0-.439-.8,2,2,0,0,0-1.182-.312,7.783,7.783,0,0,0-3.545.957V-9.443a9.484,9.484,0,0,1,2.031-.576,11.822,11.822,0,0,1,2.09-.225,5.247,5.247,0,0,1,3.7,1.089,4.853,4.853,0,0,1,1.147,3.638V0Zm-2.461-3.4a.922.922,0,0,0,.259.674.987.987,0,0,0,.737.264,1.311,1.311,0,0,0,1.06-.488,1.892,1.892,0,0,0,.405-1.25V-4.58l-1.406.2Q123.047-4.209,123.047-3.4ZM137.861,0V-1.162h-.039a3.433,3.433,0,0,1-1.3,1.03,3.7,3.7,0,0,1-1.582.376,4.07,4.07,0,0,1-2.256-.63,3.825,3.825,0,0,1-1.46-1.763,6.784,6.784,0,0,1-.483-2.676,6.583,6.583,0,0,1,.576-2.822,4.51,4.51,0,0,1,1.621-1.914,4.188,4.188,0,0,1,2.344-.684,3.547,3.547,0,0,1,1.138.176,3.078,3.078,0,0,1,.908.474,1.414,1.414,0,0,1,.493.591h.039v-5.8h4.16V0Zm.088-5.3a2.194,2.194,0,0,0-.4-1.4,1.294,1.294,0,0,0-1.069-.5,1.283,1.283,0,0,0-1.1.62,2.881,2.881,0,0,0-.425,1.655q0,2.119,1.465,2.119a1.3,1.3,0,0,0,1.108-.571,2.812,2.812,0,0,0,.415-1.665ZM149.57,0V-1.523h-.039A3.272,3.272,0,0,1,146.484.244a2.917,2.917,0,0,1-2.217-.84,3.12,3.12,0,0,1-.8-2.246q0-2.949,3.623-3.418l2.48-.322a.946.946,0,0,0-.439-.8,2,2,0,0,0-1.182-.312,7.783,7.783,0,0,0-3.545.957V-9.443a9.484,9.484,0,0,1,2.031-.576,11.822,11.822,0,0,1,2.09-.225,5.247,5.247,0,0,1,3.7,1.089,4.853,4.853,0,0,1,1.147,3.638V0Zm-2.461-3.4a.922.922,0,0,0,.259.674.987.987,0,0,0,.737.264,1.311,1.311,0,0,0,1.06-.488,1.892,1.892,0,0,0,.405-1.25V-4.58l-1.406.2Q147.109-4.209,147.109-3.4Zm16.26.078a3.054,3.054,0,0,1-1.294,2.632,6.082,6.082,0,0,1-3.608.933A12.546,12.546,0,0,1,156.8.107a10.286,10.286,0,0,1-1.616-.332v-2.92a7.958,7.958,0,0,0,3.086.82q1.221,0,1.221-.635a.5.5,0,0,0-.283-.435,10.01,10.01,0,0,0-1.484-.571,4.192,4.192,0,0,1-1.934-1.113,2.647,2.647,0,0,1-.605-1.807,2.883,2.883,0,0,1,1.235-2.456,5.8,5.8,0,0,1,3.472-.9,11.035,11.035,0,0,1,2.773.381v2.8a8.387,8.387,0,0,0-1.348-.439,5.443,5.443,0,0,0-1.23-.176,1.339,1.339,0,0,0-.654.137.421.421,0,0,0-.244.381.531.531,0,0,0,.264.459,4.664,4.664,0,0,0,1.055.42,4.894,4.894,0,0,1,2.2,1.152A2.525,2.525,0,0,1,163.369-3.32Z" transform="translate(686.081 835)" fill="#4d5464"/>
        <path id="Trazado_1005609" data-name="Trazado 1005609" d="M9.355,0H4.619L.1-14H4.639L6.777-5.381a9.64,9.64,0,0,1,.283,1.563h.1a10.776,10.776,0,0,1,.3-1.621L9.541-14h4.395ZM26.162-5.176A5.207,5.207,0,0,1,24.634-1.2,5.972,5.972,0,0,1,20.361.244a6,6,0,0,1-4.243-1.411A5.051,5.051,0,0,1,14.6-5.059a5.214,5.214,0,0,1,.713-2.764,4.636,4.636,0,0,1,2.031-1.8,7.012,7.012,0,0,1,3.037-.625,6.792,6.792,0,0,1,3.081.654,4.763,4.763,0,0,1,2,1.816A4.946,4.946,0,0,1,26.162-5.176Zm-4.219.02q0-2.041-1.562-2.041T18.818-5.059Q18.818-2.8,20.4-2.8,21.943-2.8,21.943-5.156ZM35.957-.283A3.922,3.922,0,0,1,34.7.1a11.91,11.91,0,0,1-1.982.146A6.1,6.1,0,0,1,29.888-.4a4.667,4.667,0,0,1-1.929-1.792,4.975,4.975,0,0,1-.684-2.588A5.667,5.667,0,0,1,28-7.72a4.743,4.743,0,0,1,2.075-1.875,7.119,7.119,0,0,1,3.125-.649,10.933,10.933,0,0,1,1.753.127,2.678,2.678,0,0,1,1,.293v3.242a2.889,2.889,0,0,0-.9-.43A3.609,3.609,0,0,0,33.975-7.2a2.639,2.639,0,0,0-1.851.581,2.114,2.114,0,0,0-.63,1.636,2.075,2.075,0,0,0,.62,1.606,2.419,2.419,0,0,0,1.7.571,4.244,4.244,0,0,0,2.139-.557ZM43.164,0V-1.523h-.039A3.272,3.272,0,0,1,40.078.244,2.917,2.917,0,0,1,37.861-.6a3.12,3.12,0,0,1-.8-2.246q0-2.949,3.623-3.418l2.48-.322a.946.946,0,0,0-.439-.8A2,2,0,0,0,41.543-7.7,7.783,7.783,0,0,0,38-6.738V-9.443a9.484,9.484,0,0,1,2.031-.576,11.822,11.822,0,0,1,2.09-.225,5.247,5.247,0,0,1,3.7,1.089,4.853,4.853,0,0,1,1.147,3.638V0ZM40.7-3.4a.922.922,0,0,0,.259.674.987.987,0,0,0,.737.264,1.311,1.311,0,0,0,1.06-.488,1.892,1.892,0,0,0,.405-1.25V-4.58l-1.406.2Q40.7-4.209,40.7-3.4ZM48.838,0V-14.8H53V0ZM66.1,0V-1.523h-.039A3.272,3.272,0,0,1,63.018.244,2.917,2.917,0,0,1,60.8-.6,3.12,3.12,0,0,1,60-2.842q0-2.949,3.623-3.418l2.48-.322a.946.946,0,0,0-.439-.8A2,2,0,0,0,64.482-7.7a7.783,7.783,0,0,0-3.545.957V-9.443a9.484,9.484,0,0,1,2.031-.576,11.822,11.822,0,0,1,2.09-.225,5.247,5.247,0,0,1,3.7,1.089A4.853,4.853,0,0,1,69.9-5.518V0ZM63.643-3.4a.922.922,0,0,0,.259.674.987.987,0,0,0,.737.264,1.311,1.311,0,0,0,1.06-.488A1.892,1.892,0,0,0,66.1-4.2V-4.58l-1.406.2Q63.643-4.209,63.643-3.4ZM83.057-5.3A7.318,7.318,0,0,1,82.515-2.4,4.417,4.417,0,0,1,80.977-.444a3.873,3.873,0,0,1-2.256.688,3.561,3.561,0,0,1-1.655-.356,2.981,2.981,0,0,1-1.089-.923h-.039V0h-4.16V-14.8h4.16v6.162h.039A3.425,3.425,0,0,1,77.3-9.814a3.963,3.963,0,0,1,1.841-.43,3.507,3.507,0,0,1,2.905,1.26A5.777,5.777,0,0,1,83.057-5.3Zm-4.219.127a2.482,2.482,0,0,0-.386-1.514A1.308,1.308,0,0,0,77.344-7.2a1.3,1.3,0,0,0-1.06.532,2.148,2.148,0,0,0-.425,1.382v.605a2.227,2.227,0,0,0,.381,1.367,1.216,1.216,0,0,0,1.025.508,1.314,1.314,0,0,0,1.162-.62A3.166,3.166,0,0,0,78.838-5.176ZM89.023-12.7a1.787,1.787,0,0,1-.64,1.426,2.5,2.5,0,0,1-1.685.547,2.441,2.441,0,0,1-1.665-.566,1.791,1.791,0,0,1-.649-1.406,1.734,1.734,0,0,1,.63-1.392,2.524,2.524,0,0,1,1.685-.532,2.548,2.548,0,0,1,1.685.532A1.723,1.723,0,0,1,89.023-12.7ZM84.619,0V-10h4.16V0Zm9.746-3.818a1.405,1.405,0,0,0,.742,1.011,3.347,3.347,0,0,0,1.68.366A6.917,6.917,0,0,0,99.541-3V-.361a9.9,9.9,0,0,1-3.672.605A5.794,5.794,0,0,1,91.8-1.094a4.753,4.753,0,0,1-1.455-3.682,6.074,6.074,0,0,1,.64-2.842,4.6,4.6,0,0,1,1.895-1.929,5.6,5.6,0,0,1,2.769-.7,5.447,5.447,0,0,1,2.656.605,4.033,4.033,0,0,1,1.675,1.7,5.452,5.452,0,0,1,.571,2.559v1.563ZM96.865-6q0-1.729-1.24-1.729a1.049,1.049,0,0,0-.869.474A2.364,2.364,0,0,0,94.346-6ZM109.5-6.436a3.233,3.233,0,0,0-.635-.2,3.212,3.212,0,0,0-.664-.088q-2.061,0-2.061,2.383V0h-4.16V-10h4.16v1.758h.039a3.123,3.123,0,0,1,1.084-1.44,2.785,2.785,0,0,1,1.641-.493,1.409,1.409,0,0,1,.6.117Zm8.242,6.3a4.053,4.053,0,0,1-.928.259,8.482,8.482,0,0,1-1.553.122,3.73,3.73,0,0,1-2.72-.957,3.632,3.632,0,0,1-.981-2.725V-7.119H109.99V-10h1.572v-1.963l4.1-1.133V-10h2.08v2.881h-2.08v3q0,1.318,1.045,1.318a2.835,2.835,0,0,0,1.035-.215ZM124.59,0V-1.523h-.039A3.272,3.272,0,0,1,121.5.244a2.917,2.917,0,0,1-2.217-.84,3.12,3.12,0,0,1-.8-2.246q0-2.949,3.623-3.418l2.48-.322a.946.946,0,0,0-.439-.8,2,2,0,0,0-1.182-.312,7.783,7.783,0,0,0-3.545.957V-9.443a9.484,9.484,0,0,1,2.031-.576,11.822,11.822,0,0,1,2.09-.225,5.247,5.247,0,0,1,3.7,1.089,4.853,4.853,0,0,1,1.147,3.638V0Zm-2.461-3.4a.922.922,0,0,0,.259.674.987.987,0,0,0,.737.264,1.311,1.311,0,0,0,1.06-.488,1.892,1.892,0,0,0,.405-1.25V-4.58l-1.406.2Q122.129-4.209,122.129-3.4Z" transform="translate(686.081 1006)" fill="#4d5464"/>
        <path id="Trazado_1005608" data-name="Trazado 1005608" d="M9.355,0H4.619L.1-14H4.639L6.777-5.381a9.64,9.64,0,0,1,.283,1.563h.1a10.776,10.776,0,0,1,.3-1.621L9.541-14h4.395ZM26.162-5.176A5.207,5.207,0,0,1,24.634-1.2,5.972,5.972,0,0,1,20.361.244a6,6,0,0,1-4.243-1.411A5.051,5.051,0,0,1,14.6-5.059a5.214,5.214,0,0,1,.713-2.764,4.636,4.636,0,0,1,2.031-1.8,7.012,7.012,0,0,1,3.037-.625,6.792,6.792,0,0,1,3.081.654,4.763,4.763,0,0,1,2,1.816A4.946,4.946,0,0,1,26.162-5.176Zm-4.219.02q0-2.041-1.562-2.041T18.818-5.059Q18.818-2.8,20.4-2.8,21.943-2.8,21.943-5.156ZM35.957-.283A3.922,3.922,0,0,1,34.7.1a11.91,11.91,0,0,1-1.982.146A6.1,6.1,0,0,1,29.888-.4a4.667,4.667,0,0,1-1.929-1.792,4.975,4.975,0,0,1-.684-2.588A5.667,5.667,0,0,1,28-7.72a4.743,4.743,0,0,1,2.075-1.875,7.119,7.119,0,0,1,3.125-.649,10.933,10.933,0,0,1,1.753.127,2.678,2.678,0,0,1,1,.293v3.242a2.889,2.889,0,0,0-.9-.43A3.609,3.609,0,0,0,33.975-7.2a2.639,2.639,0,0,0-1.851.581,2.114,2.114,0,0,0-.63,1.636,2.075,2.075,0,0,0,.62,1.606,2.419,2.419,0,0,0,1.7.571,4.244,4.244,0,0,0,2.139-.557ZM43.164,0V-1.523h-.039A3.272,3.272,0,0,1,40.078.244,2.917,2.917,0,0,1,37.861-.6a3.12,3.12,0,0,1-.8-2.246q0-2.949,3.623-3.418l2.48-.322a.946.946,0,0,0-.439-.8A2,2,0,0,0,41.543-7.7,7.783,7.783,0,0,0,38-6.738V-9.443a9.484,9.484,0,0,1,2.031-.576,11.822,11.822,0,0,1,2.09-.225,5.247,5.247,0,0,1,3.7,1.089,4.853,4.853,0,0,1,1.147,3.638V0ZM40.7-3.4a.922.922,0,0,0,.259.674.987.987,0,0,0,.737.264,1.311,1.311,0,0,0,1.06-.488,1.892,1.892,0,0,0,.405-1.25V-4.58l-1.406.2Q40.7-4.209,40.7-3.4ZM48.838,0V-14.8H53V0Zm9.746-3.818a1.405,1.405,0,0,0,.742,1.011,3.347,3.347,0,0,0,1.68.366A6.917,6.917,0,0,0,63.76-3V-.361a9.9,9.9,0,0,1-3.672.605,5.794,5.794,0,0,1-4.072-1.338,4.753,4.753,0,0,1-1.455-3.682,6.074,6.074,0,0,1,.64-2.842,4.6,4.6,0,0,1,1.895-1.929,5.6,5.6,0,0,1,2.769-.7,5.447,5.447,0,0,1,2.656.605,4.033,4.033,0,0,1,1.675,1.7,5.452,5.452,0,0,1,.571,2.559v1.563ZM61.084-6q0-1.729-1.24-1.729a1.049,1.049,0,0,0-.869.474A2.364,2.364,0,0,0,58.564-6ZM74.326-3.32A3.054,3.054,0,0,1,73.032-.688a6.082,6.082,0,0,1-3.608.933A12.546,12.546,0,0,1,67.759.107a10.286,10.286,0,0,1-1.616-.332v-2.92a7.958,7.958,0,0,0,3.086.82q1.221,0,1.221-.635a.5.5,0,0,0-.283-.435,10.01,10.01,0,0,0-1.484-.571,4.192,4.192,0,0,1-1.934-1.113,2.647,2.647,0,0,1-.605-1.807,2.883,2.883,0,0,1,1.235-2.456,5.8,5.8,0,0,1,3.472-.9,11.035,11.035,0,0,1,2.773.381v2.8A8.387,8.387,0,0,0,72.275-7.5a5.443,5.443,0,0,0-1.23-.176,1.339,1.339,0,0,0-.654.137.421.421,0,0,0-.244.381.531.531,0,0,0,.264.459,4.664,4.664,0,0,0,1.055.42,4.894,4.894,0,0,1,2.2,1.152A2.525,2.525,0,0,1,74.326-3.32Zm15.215,0A3.054,3.054,0,0,1,88.247-.688a6.082,6.082,0,0,1-3.608.933A12.546,12.546,0,0,1,82.974.107a10.286,10.286,0,0,1-1.616-.332v-2.92a7.958,7.958,0,0,0,3.086.82q1.221,0,1.221-.635a.5.5,0,0,0-.283-.435A10.01,10.01,0,0,0,83.9-3.965a4.192,4.192,0,0,1-1.934-1.113,2.647,2.647,0,0,1-.605-1.807,2.883,2.883,0,0,1,1.235-2.456,5.8,5.8,0,0,1,3.472-.9,11.035,11.035,0,0,1,2.773.381v2.8A8.387,8.387,0,0,0,87.49-7.5a5.443,5.443,0,0,0-1.23-.176,1.339,1.339,0,0,0-.654.137.421.421,0,0,0-.244.381.531.531,0,0,0,.264.459,4.664,4.664,0,0,0,1.055.42,4.894,4.894,0,0,1,2.2,1.152A2.525,2.525,0,0,1,89.541-3.32Zm5.117-.5A1.405,1.405,0,0,0,95.4-2.808a3.347,3.347,0,0,0,1.68.366A6.917,6.917,0,0,0,99.834-3V-.361a9.9,9.9,0,0,1-3.672.605A5.794,5.794,0,0,1,92.09-1.094a4.753,4.753,0,0,1-1.455-3.682,6.074,6.074,0,0,1,.64-2.842,4.6,4.6,0,0,1,1.895-1.929,5.6,5.6,0,0,1,2.769-.7,5.447,5.447,0,0,1,2.656.605,4.033,4.033,0,0,1,1.675,1.7,5.452,5.452,0,0,1,.571,2.559v1.563ZM97.158-6q0-1.729-1.24-1.729a1.049,1.049,0,0,0-.869.474A2.364,2.364,0,0,0,94.639-6Zm18.086,6V-5.762a1.838,1.838,0,0,0-.259-1.079.973.973,0,0,0-.845-.356,1.055,1.055,0,0,0-.9.435,1.989,1.989,0,0,0-.322,1.206V0h-4.16V-5.664q0-1.533-1.045-1.533a1.106,1.106,0,0,0-.957.444,2.148,2.148,0,0,0-.322,1.274V0h-4.16V-10h4.16v1.582h.039a3.224,3.224,0,0,1,.747-.854,4.385,4.385,0,0,1,1.157-.7,3.594,3.594,0,0,1,1.4-.269,3.535,3.535,0,0,1,1.792.42A3.256,3.256,0,0,1,112.783-8.5a3.564,3.564,0,0,1,1.406-1.294,4.191,4.191,0,0,1,1.953-.454,2.939,2.939,0,0,1,2.412,1.025,4.566,4.566,0,0,1,.84,2.959V0Zm10.439-12.7a1.787,1.787,0,0,1-.64,1.426,2.5,2.5,0,0,1-1.685.547,2.441,2.441,0,0,1-1.665-.566,1.791,1.791,0,0,1-.649-1.406,1.734,1.734,0,0,1,.63-1.392,2.524,2.524,0,0,1,1.685-.532,2.548,2.548,0,0,1,1.685.532A1.723,1.723,0,0,1,125.684-12.7ZM121.279,0V-10h4.16V0Zm14.4-.283a3.921,3.921,0,0,1-1.26.381,11.91,11.91,0,0,1-1.982.146,6.1,6.1,0,0,1-2.827-.64,4.667,4.667,0,0,1-1.929-1.792A4.975,4.975,0,0,1,127-4.775a5.667,5.667,0,0,1,.728-2.944A4.743,4.743,0,0,1,129.8-9.595a7.119,7.119,0,0,1,3.125-.649,10.933,10.933,0,0,1,1.753.127,2.678,2.678,0,0,1,1,.293v3.242a2.889,2.889,0,0,0-.9-.43A3.609,3.609,0,0,0,133.7-7.2a2.639,2.639,0,0,0-1.851.581,2.114,2.114,0,0,0-.63,1.636,2.075,2.075,0,0,0,.62,1.606,2.419,2.419,0,0,0,1.7.571,4.244,4.244,0,0,0,2.139-.557Zm5.244-3.535a1.405,1.405,0,0,0,.742,1.011,3.347,3.347,0,0,0,1.68.366A6.917,6.917,0,0,0,146.1-3V-.361a9.9,9.9,0,0,1-3.672.605,5.794,5.794,0,0,1-4.072-1.338A4.753,4.753,0,0,1,136.9-4.775a6.074,6.074,0,0,1,.64-2.842,4.6,4.6,0,0,1,1.895-1.929,5.6,5.6,0,0,1,2.769-.7,5.447,5.447,0,0,1,2.656.605,4.033,4.033,0,0,1,1.675,1.7,5.452,5.452,0,0,1,.571,2.559v1.563ZM143.428-6q0-1.729-1.24-1.729a1.049,1.049,0,0,0-.869.474A2.364,2.364,0,0,0,140.908-6Zm12.637-.439a3.233,3.233,0,0,0-.635-.2,3.212,3.212,0,0,0-.664-.088q-2.061,0-2.061,2.383V0h-4.16V-10h4.16v1.758h.039a3.123,3.123,0,0,1,1.084-1.44,2.785,2.785,0,0,1,1.641-.493,1.409,1.409,0,0,1,.6.117Zm8.721,0a3.233,3.233,0,0,0-.635-.2,3.212,3.212,0,0,0-.664-.088q-2.061,0-2.061,2.383V0h-4.16V-10h4.16v1.758h.039a3.123,3.123,0,0,1,1.084-1.44,2.785,2.785,0,0,1,1.641-.493,1.409,1.409,0,0,1,.6.117ZM171.533,0V-1.523h-.039A3.272,3.272,0,0,1,168.447.244,2.917,2.917,0,0,1,166.23-.6a3.12,3.12,0,0,1-.8-2.246q0-2.949,3.623-3.418l2.48-.322a.946.946,0,0,0-.439-.8,2,2,0,0,0-1.182-.312,7.783,7.783,0,0,0-3.545.957V-9.443a9.484,9.484,0,0,1,2.031-.576,11.822,11.822,0,0,1,2.09-.225,5.247,5.247,0,0,1,3.7,1.089,4.853,4.853,0,0,1,1.147,3.638V0Zm-2.461-3.4a.922.922,0,0,0,.259.674.987.987,0,0,0,.737.264,1.311,1.311,0,0,0,1.06-.488,1.892,1.892,0,0,0,.405-1.25V-4.58l-1.406.2Q169.072-4.209,169.072-3.4ZM183.887,0V-1.162h-.039a3.433,3.433,0,0,1-1.3,1.03,3.7,3.7,0,0,1-1.582.376,4.07,4.07,0,0,1-2.256-.63,3.825,3.825,0,0,1-1.46-1.763,6.784,6.784,0,0,1-.483-2.676,6.583,6.583,0,0,1,.576-2.822,4.51,4.51,0,0,1,1.621-1.914,4.188,4.188,0,0,1,2.344-.684,3.547,3.547,0,0,1,1.138.176,3.078,3.078,0,0,1,.908.474,1.414,1.414,0,0,1,.493.591h.039v-5.8h4.16V0Zm.088-5.3a2.194,2.194,0,0,0-.4-1.4,1.294,1.294,0,0,0-1.069-.5,1.283,1.283,0,0,0-1.1.62,2.881,2.881,0,0,0-.425,1.655q0,2.119,1.465,2.119a1.3,1.3,0,0,0,1.108-.571,2.812,2.812,0,0,0,.415-1.665ZM195.6,0V-1.523h-.039A3.272,3.272,0,0,1,192.51.244a2.917,2.917,0,0,1-2.217-.84,3.12,3.12,0,0,1-.8-2.246q0-2.949,3.623-3.418l2.48-.322a.946.946,0,0,0-.439-.8,2,2,0,0,0-1.182-.312,7.783,7.783,0,0,0-3.545.957V-9.443a9.484,9.484,0,0,1,2.031-.576,11.822,11.822,0,0,1,2.09-.225,5.247,5.247,0,0,1,3.7,1.089,4.853,4.853,0,0,1,1.147,3.638V0Zm-2.461-3.4a.922.922,0,0,0,.259.674.987.987,0,0,0,.737.264,1.311,1.311,0,0,0,1.06-.488A1.892,1.892,0,0,0,195.6-4.2V-4.58l-1.406.2Q193.135-4.209,193.135-3.4Zm16.26.078A3.054,3.054,0,0,1,208.1-.688a6.082,6.082,0,0,1-3.608.933,12.546,12.546,0,0,1-1.665-.137,10.286,10.286,0,0,1-1.616-.332v-2.92a7.958,7.958,0,0,0,3.086.82q1.221,0,1.221-.635a.5.5,0,0,0-.283-.435,10.01,10.01,0,0,0-1.484-.571,4.192,4.192,0,0,1-1.934-1.113,2.647,2.647,0,0,1-.605-1.807,2.883,2.883,0,0,1,1.235-2.456,5.8,5.8,0,0,1,3.472-.9,11.035,11.035,0,0,1,2.773.381v2.8a8.387,8.387,0,0,0-1.348-.439,5.443,5.443,0,0,0-1.23-.176,1.339,1.339,0,0,0-.654.137.421.421,0,0,0-.244.381.531.531,0,0,0,.264.459,4.664,4.664,0,0,0,1.055.42,4.894,4.894,0,0,1,2.2,1.152A2.525,2.525,0,0,1,209.395-3.32Zm18.213-1.855A5.207,5.207,0,0,1,226.079-1.2,5.972,5.972,0,0,1,221.807.244a6,6,0,0,1-4.243-1.411,5.051,5.051,0,0,1-1.519-3.892,5.214,5.214,0,0,1,.713-2.764,4.636,4.636,0,0,1,2.031-1.8,7.012,7.012,0,0,1,3.037-.625,6.792,6.792,0,0,1,3.081.654,4.763,4.763,0,0,1,2,1.816A4.946,4.946,0,0,1,227.607-5.176Zm-4.219.02q0-2.041-1.562-2.041t-1.562,2.139q0,2.256,1.582,2.256Q223.389-2.8,223.389-5.156ZM242.842-3.32a3.054,3.054,0,0,1-1.294,2.632,6.082,6.082,0,0,1-3.608.933,12.546,12.546,0,0,1-1.665-.137,10.286,10.286,0,0,1-1.616-.332v-2.92a7.958,7.958,0,0,0,3.086.82q1.221,0,1.221-.635a.5.5,0,0,0-.283-.435,10.01,10.01,0,0,0-1.484-.571,4.192,4.192,0,0,1-1.934-1.113,2.647,2.647,0,0,1-.605-1.807,2.883,2.883,0,0,1,1.235-2.456,5.8,5.8,0,0,1,3.472-.9,11.035,11.035,0,0,1,2.773.381v2.8a8.387,8.387,0,0,0-1.348-.439,5.443,5.443,0,0,0-1.23-.176,1.339,1.339,0,0,0-.654.137.421.421,0,0,0-.244.381.531.531,0,0,0,.264.459,4.664,4.664,0,0,0,1.055.42,4.894,4.894,0,0,1,2.2,1.152A2.525,2.525,0,0,1,242.842-3.32Zm5.117-.5a1.405,1.405,0,0,0,.742,1.011,3.347,3.347,0,0,0,1.68.366A6.917,6.917,0,0,0,253.135-3V-.361a9.9,9.9,0,0,1-3.672.605,5.794,5.794,0,0,1-4.072-1.338,4.753,4.753,0,0,1-1.455-3.682,6.074,6.074,0,0,1,.64-2.842,4.6,4.6,0,0,1,1.895-1.929,5.6,5.6,0,0,1,2.769-.7,5.447,5.447,0,0,1,2.656.605,4.033,4.033,0,0,1,1.675,1.7,5.452,5.452,0,0,1,.571,2.559v1.563ZM250.459-6q0-1.729-1.24-1.729a1.049,1.049,0,0,0-.869.474A2.364,2.364,0,0,0,247.939-6Zm18.086,6V-5.762a1.838,1.838,0,0,0-.259-1.079.973.973,0,0,0-.845-.356,1.055,1.055,0,0,0-.9.435,1.989,1.989,0,0,0-.322,1.206V0h-4.16V-5.664q0-1.533-1.045-1.533a1.106,1.106,0,0,0-.957.444,2.148,2.148,0,0,0-.322,1.274V0h-4.16V-10h4.16v1.582h.039a3.224,3.224,0,0,1,.747-.854,4.385,4.385,0,0,1,1.157-.7,3.594,3.594,0,0,1,1.4-.269,3.535,3.535,0,0,1,1.792.42A3.257,3.257,0,0,1,266.084-8.5,3.564,3.564,0,0,1,267.49-9.79a4.191,4.191,0,0,1,1.953-.454,2.939,2.939,0,0,1,2.412,1.025,4.566,4.566,0,0,1,.84,2.959V0Zm10.439-12.7a1.787,1.787,0,0,1-.64,1.426,2.5,2.5,0,0,1-1.685.547A2.441,2.441,0,0,1,275-11.289a1.791,1.791,0,0,1-.649-1.406,1.734,1.734,0,0,1,.63-1.392,2.524,2.524,0,0,1,1.685-.532,2.548,2.548,0,0,1,1.685.532A1.724,1.724,0,0,1,278.984-12.7ZM274.58,0V-10h4.16V0Zm11.709,0V-1.523h-.039A3.272,3.272,0,0,1,283.2.244a2.917,2.917,0,0,1-2.217-.84,3.12,3.12,0,0,1-.8-2.246q0-2.949,3.623-3.418l2.48-.322a.946.946,0,0,0-.439-.8,2,2,0,0,0-1.182-.312,7.783,7.783,0,0,0-3.545.957V-9.443a9.484,9.484,0,0,1,2.031-.576,11.822,11.822,0,0,1,2.09-.225,5.247,5.247,0,0,1,3.7,1.089,4.853,4.853,0,0,1,1.147,3.638V0Zm-2.461-3.4a.922.922,0,0,0,.259.674.987.987,0,0,0,.737.264,1.311,1.311,0,0,0,1.06-.488,1.892,1.892,0,0,0,.405-1.25V-4.58l-1.406.2Q283.828-4.209,283.828-3.4Zm19.414-1.9A7.318,7.318,0,0,1,302.7-2.4a4.417,4.417,0,0,1-1.538,1.953,3.873,3.873,0,0,1-2.256.688,3.561,3.561,0,0,1-1.655-.356,2.981,2.981,0,0,1-1.089-.923h-.039V0h-4.16V-14.8h4.16v6.162h.039a3.426,3.426,0,0,1,1.323-1.172,3.963,3.963,0,0,1,1.841-.43,3.507,3.507,0,0,1,2.905,1.26A5.777,5.777,0,0,1,303.242-5.3Zm-4.219.127a2.482,2.482,0,0,0-.386-1.514,1.308,1.308,0,0,0-1.108-.508,1.3,1.3,0,0,0-1.06.532,2.148,2.148,0,0,0-.425,1.382v.605a2.227,2.227,0,0,0,.381,1.367,1.216,1.216,0,0,0,1.025.508,1.314,1.314,0,0,0,1.162-.62A3.166,3.166,0,0,0,299.023-5.176Zm10.186-7.52a1.787,1.787,0,0,1-.64,1.426,2.5,2.5,0,0,1-1.685.547,2.441,2.441,0,0,1-1.665-.566,1.791,1.791,0,0,1-.649-1.406,1.734,1.734,0,0,1,.63-1.392,2.524,2.524,0,0,1,1.685-.532,2.548,2.548,0,0,1,1.685.532A1.724,1.724,0,0,1,309.209-12.7ZM304.8,0V-10h4.16V0Zm9.746-3.818a1.405,1.405,0,0,0,.742,1.011,3.347,3.347,0,0,0,1.68.366A6.917,6.917,0,0,0,319.727-3V-.361a9.9,9.9,0,0,1-3.672.605,5.794,5.794,0,0,1-4.072-1.338,4.753,4.753,0,0,1-1.455-3.682,6.074,6.074,0,0,1,.64-2.842,4.6,4.6,0,0,1,1.895-1.929,5.6,5.6,0,0,1,2.769-.7,5.447,5.447,0,0,1,2.656.605,4.033,4.033,0,0,1,1.675,1.7,5.452,5.452,0,0,1,.571,2.559v1.563ZM317.051-6q0-1.729-1.24-1.729a1.049,1.049,0,0,0-.869.474A2.364,2.364,0,0,0,314.531-6Zm12.637-.439a3.233,3.233,0,0,0-.635-.2,3.212,3.212,0,0,0-.664-.088q-2.061,0-2.061,2.383V0h-4.16V-10h4.16v1.758h.039a3.123,3.123,0,0,1,1.084-1.44,2.785,2.785,0,0,1,1.641-.493,1.409,1.409,0,0,1,.6.117Zm8.242,6.3A4.053,4.053,0,0,1,337,.122a8.482,8.482,0,0,1-1.553.122,3.73,3.73,0,0,1-2.72-.957,3.632,3.632,0,0,1-.981-2.725V-7.119h-1.572V-10h1.572v-1.963l4.1-1.133V-10h2.08v2.881h-2.08v3q0,1.318,1.045,1.318a2.835,2.835,0,0,0,1.035-.215ZM344.775,0V-1.523h-.039A3.272,3.272,0,0,1,341.689.244a2.917,2.917,0,0,1-2.217-.84,3.12,3.12,0,0,1-.8-2.246q0-2.949,3.623-3.418l2.48-.322a.946.946,0,0,0-.439-.8,2,2,0,0,0-1.182-.312,7.783,7.783,0,0,0-3.545.957V-9.443a9.484,9.484,0,0,1,2.031-.576,11.822,11.822,0,0,1,2.09-.225,5.247,5.247,0,0,1,3.7,1.089,4.853,4.853,0,0,1,1.147,3.638V0Zm-2.461-3.4a.922.922,0,0,0,.259.674.987.987,0,0,0,.737.264,1.311,1.311,0,0,0,1.06-.488,1.892,1.892,0,0,0,.405-1.25V-4.58l-1.406.2Q342.314-4.209,342.314-3.4Zm16.26.078A3.054,3.054,0,0,1,357.28-.688a6.082,6.082,0,0,1-3.608.933,12.546,12.546,0,0,1-1.665-.137,10.286,10.286,0,0,1-1.616-.332v-2.92a7.958,7.958,0,0,0,3.086.82q1.221,0,1.221-.635a.5.5,0,0,0-.283-.435,10.011,10.011,0,0,0-1.484-.571A4.192,4.192,0,0,1,351-5.078a2.647,2.647,0,0,1-.605-1.807,2.883,2.883,0,0,1,1.235-2.456,5.8,5.8,0,0,1,3.472-.9,11.035,11.035,0,0,1,2.773.381v2.8a8.387,8.387,0,0,0-1.348-.439,5.443,5.443,0,0,0-1.23-.176,1.339,1.339,0,0,0-.654.137.421.421,0,0,0-.244.381.531.531,0,0,0,.264.459,4.664,4.664,0,0,0,1.055.42,4.894,4.894,0,0,1,2.2,1.152A2.525,2.525,0,0,1,358.574-3.32Z" transform="translate(686.081 917)" fill="#4d5464"/>
        <line id="Línea_3582" data-name="Línea 3582" x2="155" transform="translate(686.081 842)" fill="none" stroke="#4d5464" stroke-linecap="round" stroke-width="1"/>
        <line id="Línea_3584" data-name="Línea 3584" x2="119" transform="translate(686.081 1013)" fill="none" stroke="#4d5464" stroke-linecap="round" stroke-width="1"/>
        <line id="Línea_3583" data-name="Línea 3583" x2="338" transform="translate(686.081 924)" fill="none" stroke="#4d5464" stroke-linecap="round" stroke-width="1"/>
      </g>
    </g>
  </g>
</svg>
