<svg xmlns="http://www.w3.org/2000/svg" width="400" height="505" viewBox="0 0 400 505">
  <g id="Grupo_1178661" data-name="Grupo 1178661" transform="translate(762 11008)">
    <rect id="Rectángulo_455097" data-name="Rectángulo 455097" width="400" height="505" rx="10" transform="translate(-762 -11008)" fill="#fafff1"/>
    <g id="Grupo_1178654" data-name="Grupo 1178654" transform="translate(-1092.081 -11777.909)">
      <circle id="Elipse_13722" data-name="Elipse 13722" cx="29" cy="29" r="29" transform="translate(420.081 801)" fill="#cff878"/>
      <circle id="Elipse_13725" data-name="Elipse 13725" cx="29" cy="29" r="29" transform="translate(420.081 879)" fill="#cff878"/>
      <circle id="Elipse_13726" data-name="Elipse 13726" cx="29" cy="29" r="29" transform="translate(502 972)" fill="#cff878"/>
      <circle id="Elipse_13723" data-name="Elipse 13723" cx="29" cy="29" r="29" transform="translate(582.081 801)" fill="#cff878"/>
      <circle id="Elipse_13724" data-name="Elipse 13724" cx="29" cy="29" r="29" transform="translate(582.081 879)" fill="#cff878"/>
      <path id="Trazado_1005622" data-name="Trazado 1005622" d="M8.641-20.312a2.859,2.859,0,0,1-1.023,2.281,4,4,0,0,1-2.7.875,3.906,3.906,0,0,1-2.664-.906,2.866,2.866,0,0,1-1.039-2.25,2.775,2.775,0,0,1,1.008-2.227,4.039,4.039,0,0,1,2.7-.852,4.076,4.076,0,0,1,2.7.852A2.758,2.758,0,0,1,8.641-20.312ZM1.594,0V-16H8.25V0Z" transform="translate(445.081 841)" fill="#12263f"/>
      <path id="Trazado_1005624" data-name="Trazado 1005624" d="M-1.633-6.109A2.249,2.249,0,0,0-.445-4.492a5.355,5.355,0,0,0,2.688.586A11.068,11.068,0,0,0,6.648-4.8V-.578A15.836,15.836,0,0,1,.773.391,9.27,9.27,0,0,1-5.742-1.75,7.6,7.6,0,0,1-8.07-7.641a9.719,9.719,0,0,1,1.023-4.547,7.364,7.364,0,0,1,3.031-3.086,8.956,8.956,0,0,1,4.43-1.117,8.716,8.716,0,0,1,4.25.969A6.453,6.453,0,0,1,7.344-12.7a8.723,8.723,0,0,1,.914,4.094v2.5Zm4-3.484q0-2.766-1.984-2.766a1.679,1.679,0,0,0-1.391.758,3.782,3.782,0,0,0-.656,2.008Z" transform="translate(449.081 919)" fill="#12263f"/>
      <path id="Trazado_1005626" data-name="Trazado 1005626" d="M1.492,0V-2.437H1.43A5.234,5.234,0,0,1-3.445.391,4.667,4.667,0,0,1-6.992-.953,4.992,4.992,0,0,1-8.273-4.547q0-4.719,5.8-5.469l3.969-.516a1.513,1.513,0,0,0-.7-1.281,3.2,3.2,0,0,0-1.891-.5,12.453,12.453,0,0,0-5.672,1.531v-4.328a15.174,15.174,0,0,1,3.25-.922A18.915,18.915,0,0,1-.18-16.391q4.078,0,5.914,1.742T7.57-8.828V0ZM-2.445-5.437a1.475,1.475,0,0,0,.414,1.078,1.579,1.579,0,0,0,1.18.422,2.1,2.1,0,0,0,1.7-.781,3.027,3.027,0,0,0,.648-2v-.609l-2.25.313Q-2.445-6.734-2.445-5.437Z" transform="translate(531 1012)" fill="#12263f"/>
      <path id="Trazado_1005623" data-name="Trazado 1005623" d="M11.781,0V-2.469h-.062A8.757,8.757,0,0,1,10.227-.8a5.742,5.742,0,0,1-1.5.859A5.3,5.3,0,0,1,6.781.391a4.839,4.839,0,0,1-4-1.7A7.873,7.873,0,0,1,1.406-6.344V-16H8.063v9.156q0,2.359,1.766,2.359a1.728,1.728,0,0,0,1.461-.641,2.92,2.92,0,0,0,.492-1.812V-16h6.656V0Z" transform="translate(602.081 841)" fill="#12263f"/>
      <path id="Trazado_1005625" data-name="Trazado 1005625" d="M9.25-8.281A8.332,8.332,0,0,1,6.8-1.922,9.555,9.555,0,0,1-.031.391,9.594,9.594,0,0,1-6.82-1.867,8.082,8.082,0,0,1-9.25-8.094a8.342,8.342,0,0,1,1.141-4.422,7.417,7.417,0,0,1,3.25-2.875,11.22,11.22,0,0,1,4.859-1,10.868,10.868,0,0,1,4.93,1.047,7.62,7.62,0,0,1,3.2,2.906A7.914,7.914,0,0,1,9.25-8.281ZM2.5-8.25q0-3.266-2.5-3.266T-2.5-8.094q0,3.609,2.531,3.609Q2.5-4.484,2.5-8.25Z" transform="translate(611.081 919)" fill="#12263f"/>
      <rect id="Rectángulo_455411" data-name="Rectángulo 455411" width="70" height="13" transform="translate(494.081 824)" fill="#a4c2ff"/>
      <rect id="Rectángulo_455412" data-name="Rectángulo 455412" width="70" height="13" transform="translate(494.081 902)" fill="#a4c2ff"/>
      <rect id="Rectángulo_455413" data-name="Rectángulo 455413" width="70" height="13" transform="translate(498.081 902)" fill="#a4c2ff"/>
      <rect id="Rectángulo_455414" data-name="Rectángulo 455414" width="55.475" height="13" transform="translate(537.524 905.551) rotate(90)" fill="#a4c2ff"/>
      <path id="Polígono_11" data-name="Polígono 11" d="M18.024,0,36.047,31.651H0Z" transform="translate(478 848.023) rotate(-90)" fill="#a4c2ff"/>
      <path id="Polígono_14" data-name="Polígono 14" d="M18.024,0,36.047,31.651H0Z" transform="translate(478 926.024) rotate(-90)" fill="#a4c2ff"/>
      <path id="Polígono_12" data-name="Polígono 12" d="M18.024,0,36.047,31.651H0Z" transform="translate(582 811.976) rotate(90)" fill="#a4c2ff"/>
      <path id="Polígono_13" data-name="Polígono 13" d="M18.024,0,36.047,31.651H0Z" transform="translate(582 889.977) rotate(90)" fill="#a4c2ff"/>
      <path id="Polígono_15" data-name="Polígono 15" d="M18.024,0,36.047,31.651H0Z" transform="translate(549.047 974.85) rotate(180)" fill="#a4c2ff"/>
    </g>
    <g id="Grupo_1178655" data-name="Grupo 1178655" transform="translate(-1341.081 -11527.25)">
      <path id="Trazado_1005627" data-name="Trazado 1005627" d="M9.355,0H4.619L.1-14H4.639L6.777-5.381a9.64,9.64,0,0,1,.283,1.563h.1a10.776,10.776,0,0,1,.3-1.621L9.541-14h4.395ZM26.162-5.176A5.207,5.207,0,0,1,24.634-1.2,5.972,5.972,0,0,1,20.361.244a6,6,0,0,1-4.243-1.411A5.051,5.051,0,0,1,14.6-5.059a5.214,5.214,0,0,1,.713-2.764,4.636,4.636,0,0,1,2.031-1.8,7.012,7.012,0,0,1,3.037-.625,6.792,6.792,0,0,1,3.081.654,4.763,4.763,0,0,1,2,1.816A4.946,4.946,0,0,1,26.162-5.176Zm-4.219.02q0-2.041-1.562-2.041T18.818-5.059Q18.818-2.8,20.4-2.8,21.943-2.8,21.943-5.156ZM35.957-.283A3.922,3.922,0,0,1,34.7.1a11.91,11.91,0,0,1-1.982.146A6.1,6.1,0,0,1,29.888-.4a4.667,4.667,0,0,1-1.929-1.792,4.975,4.975,0,0,1-.684-2.588A5.667,5.667,0,0,1,28-7.72a4.743,4.743,0,0,1,2.075-1.875,7.119,7.119,0,0,1,3.125-.649,10.933,10.933,0,0,1,1.753.127,2.678,2.678,0,0,1,1,.293v3.242a2.889,2.889,0,0,0-.9-.43A3.609,3.609,0,0,0,33.975-7.2a2.639,2.639,0,0,0-1.851.581,2.114,2.114,0,0,0-.63,1.636,2.075,2.075,0,0,0,.62,1.606,2.419,2.419,0,0,0,1.7.571,4.244,4.244,0,0,0,2.139-.557ZM43.164,0V-1.523h-.039A3.272,3.272,0,0,1,40.078.244,2.917,2.917,0,0,1,37.861-.6a3.12,3.12,0,0,1-.8-2.246q0-2.949,3.623-3.418l2.48-.322a.946.946,0,0,0-.439-.8A2,2,0,0,0,41.543-7.7,7.783,7.783,0,0,0,38-6.738V-9.443a9.484,9.484,0,0,1,2.031-.576,11.822,11.822,0,0,1,2.09-.225,5.247,5.247,0,0,1,3.7,1.089,4.853,4.853,0,0,1,1.147,3.638V0ZM40.7-3.4a.922.922,0,0,0,.259.674.987.987,0,0,0,.737.264,1.311,1.311,0,0,0,1.06-.488,1.892,1.892,0,0,0,.405-1.25V-4.58l-1.406.2Q40.7-4.209,40.7-3.4ZM48.838,0V-14.8H53V0Zm9.746-3.818a1.405,1.405,0,0,0,.742,1.011,3.347,3.347,0,0,0,1.68.366A6.917,6.917,0,0,0,63.76-3V-.361a9.9,9.9,0,0,1-3.672.605,5.794,5.794,0,0,1-4.072-1.338,4.753,4.753,0,0,1-1.455-3.682,6.074,6.074,0,0,1,.64-2.842,4.6,4.6,0,0,1,1.895-1.929,5.6,5.6,0,0,1,2.769-.7,5.447,5.447,0,0,1,2.656.605,4.033,4.033,0,0,1,1.675,1.7,5.452,5.452,0,0,1,.571,2.559v1.563ZM61.084-6q0-1.729-1.24-1.729a1.049,1.049,0,0,0-.869.474A2.364,2.364,0,0,0,58.564-6ZM74.326-3.32A3.054,3.054,0,0,1,73.032-.688a6.082,6.082,0,0,1-3.608.933A12.546,12.546,0,0,1,67.759.107a10.286,10.286,0,0,1-1.616-.332v-2.92a7.958,7.958,0,0,0,3.086.82q1.221,0,1.221-.635a.5.5,0,0,0-.283-.435,10.01,10.01,0,0,0-1.484-.571,4.192,4.192,0,0,1-1.934-1.113,2.647,2.647,0,0,1-.605-1.807,2.883,2.883,0,0,1,1.235-2.456,5.8,5.8,0,0,1,3.472-.9,11.035,11.035,0,0,1,2.773.381v2.8A8.387,8.387,0,0,0,72.275-7.5a5.443,5.443,0,0,0-1.23-.176,1.339,1.339,0,0,0-.654.137.421.421,0,0,0-.244.381.531.531,0,0,0,.264.459,4.664,4.664,0,0,0,1.055.42,4.894,4.894,0,0,1,2.2,1.152A2.525,2.525,0,0,1,74.326-3.32ZM89.658-.283A3.922,3.922,0,0,1,88.4.1a11.91,11.91,0,0,1-1.982.146A6.1,6.1,0,0,1,83.589-.4,4.667,4.667,0,0,1,81.66-2.187a4.975,4.975,0,0,1-.684-2.588A5.667,5.667,0,0,1,81.7-7.72a4.743,4.743,0,0,1,2.075-1.875,7.119,7.119,0,0,1,3.125-.649,10.933,10.933,0,0,1,1.753.127,2.678,2.678,0,0,1,1,.293v3.242a2.889,2.889,0,0,0-.9-.43A3.609,3.609,0,0,0,87.676-7.2a2.639,2.639,0,0,0-1.851.581A2.114,2.114,0,0,0,85.2-4.98a2.075,2.075,0,0,0,.62,1.606,2.419,2.419,0,0,0,1.7.571,4.244,4.244,0,0,0,2.139-.557ZM94.9-3.818a1.405,1.405,0,0,0,.742,1.011,3.347,3.347,0,0,0,1.68.366A6.917,6.917,0,0,0,100.078-3V-.361a9.9,9.9,0,0,1-3.672.605,5.794,5.794,0,0,1-4.072-1.338,4.753,4.753,0,0,1-1.455-3.682,6.074,6.074,0,0,1,.64-2.842,4.6,4.6,0,0,1,1.895-1.929,5.6,5.6,0,0,1,2.769-.7,5.447,5.447,0,0,1,2.656.605,4.033,4.033,0,0,1,1.675,1.7,5.452,5.452,0,0,1,.571,2.559v1.563ZM97.4-6q0-1.729-1.24-1.729a1.049,1.049,0,0,0-.869.474A2.364,2.364,0,0,0,94.883-6Zm12.637-.439a3.233,3.233,0,0,0-.635-.2,3.212,3.212,0,0,0-.664-.088q-2.061,0-2.061,2.383V0h-4.16V-10h4.16v1.758h.039a3.123,3.123,0,0,1,1.084-1.44,2.785,2.785,0,0,1,1.641-.493,1.409,1.409,0,0,1,.6.117Zm8.721,0a3.233,3.233,0,0,0-.635-.2,3.212,3.212,0,0,0-.664-.088q-2.061,0-2.061,2.383V0h-4.16V-10h4.16v1.758h.039a3.123,3.123,0,0,1,1.084-1.44,2.785,2.785,0,0,1,1.641-.493,1.409,1.409,0,0,1,.6.117ZM125.508,0V-1.523h-.039A3.272,3.272,0,0,1,122.422.244a2.917,2.917,0,0,1-2.217-.84,3.12,3.12,0,0,1-.8-2.246q0-2.949,3.623-3.418l2.48-.322a.946.946,0,0,0-.439-.8,2,2,0,0,0-1.182-.312,7.783,7.783,0,0,0-3.545.957V-9.443a9.484,9.484,0,0,1,2.031-.576,11.822,11.822,0,0,1,2.09-.225,5.247,5.247,0,0,1,3.7,1.089,4.853,4.853,0,0,1,1.147,3.638V0Zm-2.461-3.4a.922.922,0,0,0,.259.674.987.987,0,0,0,.737.264,1.311,1.311,0,0,0,1.06-.488,1.892,1.892,0,0,0,.405-1.25V-4.58l-1.406.2Q123.047-4.209,123.047-3.4ZM137.861,0V-1.162h-.039a3.433,3.433,0,0,1-1.3,1.03,3.7,3.7,0,0,1-1.582.376,4.07,4.07,0,0,1-2.256-.63,3.825,3.825,0,0,1-1.46-1.763,6.784,6.784,0,0,1-.483-2.676,6.583,6.583,0,0,1,.576-2.822,4.51,4.51,0,0,1,1.621-1.914,4.188,4.188,0,0,1,2.344-.684,3.547,3.547,0,0,1,1.138.176,3.078,3.078,0,0,1,.908.474,1.414,1.414,0,0,1,.493.591h.039v-5.8h4.16V0Zm.088-5.3a2.194,2.194,0,0,0-.4-1.4,1.294,1.294,0,0,0-1.069-.5,1.283,1.283,0,0,0-1.1.62,2.881,2.881,0,0,0-.425,1.655q0,2.119,1.465,2.119a1.3,1.3,0,0,0,1.108-.571,2.812,2.812,0,0,0,.415-1.665ZM149.57,0V-1.523h-.039A3.272,3.272,0,0,1,146.484.244a2.917,2.917,0,0,1-2.217-.84,3.12,3.12,0,0,1-.8-2.246q0-2.949,3.623-3.418l2.48-.322a.946.946,0,0,0-.439-.8,2,2,0,0,0-1.182-.312,7.783,7.783,0,0,0-3.545.957V-9.443a9.484,9.484,0,0,1,2.031-.576,11.822,11.822,0,0,1,2.09-.225,5.247,5.247,0,0,1,3.7,1.089,4.853,4.853,0,0,1,1.147,3.638V0Zm-2.461-3.4a.922.922,0,0,0,.259.674.987.987,0,0,0,.737.264,1.311,1.311,0,0,0,1.06-.488,1.892,1.892,0,0,0,.405-1.25V-4.58l-1.406.2Q147.109-4.209,147.109-3.4Zm16.26.078a3.054,3.054,0,0,1-1.294,2.632,6.082,6.082,0,0,1-3.608.933A12.546,12.546,0,0,1,156.8.107a10.286,10.286,0,0,1-1.616-.332v-2.92a7.958,7.958,0,0,0,3.086.82q1.221,0,1.221-.635a.5.5,0,0,0-.283-.435,10.01,10.01,0,0,0-1.484-.571,4.192,4.192,0,0,1-1.934-1.113,2.647,2.647,0,0,1-.605-1.807,2.883,2.883,0,0,1,1.235-2.456,5.8,5.8,0,0,1,3.472-.9,11.035,11.035,0,0,1,2.773.381v2.8a8.387,8.387,0,0,0-1.348-.439,5.443,5.443,0,0,0-1.23-.176,1.339,1.339,0,0,0-.654.137.421.421,0,0,0-.244.381.531.531,0,0,0,.264.459,4.664,4.664,0,0,0,1.055.42,4.894,4.894,0,0,1,2.2,1.152A2.525,2.525,0,0,1,163.369-3.32Z" transform="translate(686.081 835)" fill="#4d5464"/>
      <path id="Trazado_1005629" data-name="Trazado 1005629" d="M9.355,0H4.619L.1-14H4.639L6.777-5.381a9.64,9.64,0,0,1,.283,1.563h.1a10.776,10.776,0,0,1,.3-1.621L9.541-14h4.395ZM26.162-5.176A5.207,5.207,0,0,1,24.634-1.2,5.972,5.972,0,0,1,20.361.244a6,6,0,0,1-4.243-1.411A5.051,5.051,0,0,1,14.6-5.059a5.214,5.214,0,0,1,.713-2.764,4.636,4.636,0,0,1,2.031-1.8,7.012,7.012,0,0,1,3.037-.625,6.792,6.792,0,0,1,3.081.654,4.763,4.763,0,0,1,2,1.816A4.946,4.946,0,0,1,26.162-5.176Zm-4.219.02q0-2.041-1.562-2.041T18.818-5.059Q18.818-2.8,20.4-2.8,21.943-2.8,21.943-5.156ZM35.957-.283A3.922,3.922,0,0,1,34.7.1a11.91,11.91,0,0,1-1.982.146A6.1,6.1,0,0,1,29.888-.4a4.667,4.667,0,0,1-1.929-1.792,4.975,4.975,0,0,1-.684-2.588A5.667,5.667,0,0,1,28-7.72a4.743,4.743,0,0,1,2.075-1.875,7.119,7.119,0,0,1,3.125-.649,10.933,10.933,0,0,1,1.753.127,2.678,2.678,0,0,1,1,.293v3.242a2.889,2.889,0,0,0-.9-.43A3.609,3.609,0,0,0,33.975-7.2a2.639,2.639,0,0,0-1.851.581,2.114,2.114,0,0,0-.63,1.636,2.075,2.075,0,0,0,.62,1.606,2.419,2.419,0,0,0,1.7.571,4.244,4.244,0,0,0,2.139-.557ZM43.164,0V-1.523h-.039A3.272,3.272,0,0,1,40.078.244,2.917,2.917,0,0,1,37.861-.6a3.12,3.12,0,0,1-.8-2.246q0-2.949,3.623-3.418l2.48-.322a.946.946,0,0,0-.439-.8A2,2,0,0,0,41.543-7.7,7.783,7.783,0,0,0,38-6.738V-9.443a9.484,9.484,0,0,1,2.031-.576,11.822,11.822,0,0,1,2.09-.225,5.247,5.247,0,0,1,3.7,1.089,4.853,4.853,0,0,1,1.147,3.638V0ZM40.7-3.4a.922.922,0,0,0,.259.674.987.987,0,0,0,.737.264,1.311,1.311,0,0,0,1.06-.488,1.892,1.892,0,0,0,.405-1.25V-4.58l-1.406.2Q40.7-4.209,40.7-3.4ZM48.838,0V-14.8H53V0ZM66.1,0V-1.523h-.039A3.272,3.272,0,0,1,63.018.244,2.917,2.917,0,0,1,60.8-.6,3.12,3.12,0,0,1,60-2.842q0-2.949,3.623-3.418l2.48-.322a.946.946,0,0,0-.439-.8A2,2,0,0,0,64.482-7.7a7.783,7.783,0,0,0-3.545.957V-9.443a9.484,9.484,0,0,1,2.031-.576,11.822,11.822,0,0,1,2.09-.225,5.247,5.247,0,0,1,3.7,1.089A4.853,4.853,0,0,1,69.9-5.518V0ZM63.643-3.4a.922.922,0,0,0,.259.674.987.987,0,0,0,.737.264,1.311,1.311,0,0,0,1.06-.488A1.892,1.892,0,0,0,66.1-4.2V-4.58l-1.406.2Q63.643-4.209,63.643-3.4ZM83.057-5.3A7.318,7.318,0,0,1,82.515-2.4,4.417,4.417,0,0,1,80.977-.444a3.873,3.873,0,0,1-2.256.688,3.561,3.561,0,0,1-1.655-.356,2.981,2.981,0,0,1-1.089-.923h-.039V0h-4.16V-14.8h4.16v6.162h.039A3.425,3.425,0,0,1,77.3-9.814a3.963,3.963,0,0,1,1.841-.43,3.507,3.507,0,0,1,2.905,1.26A5.777,5.777,0,0,1,83.057-5.3Zm-4.219.127a2.482,2.482,0,0,0-.386-1.514A1.308,1.308,0,0,0,77.344-7.2a1.3,1.3,0,0,0-1.06.532,2.148,2.148,0,0,0-.425,1.382v.605a2.227,2.227,0,0,0,.381,1.367,1.216,1.216,0,0,0,1.025.508,1.314,1.314,0,0,0,1.162-.62A3.166,3.166,0,0,0,78.838-5.176ZM89.023-12.7a1.787,1.787,0,0,1-.64,1.426,2.5,2.5,0,0,1-1.685.547,2.441,2.441,0,0,1-1.665-.566,1.791,1.791,0,0,1-.649-1.406,1.734,1.734,0,0,1,.63-1.392,2.524,2.524,0,0,1,1.685-.532,2.548,2.548,0,0,1,1.685.532A1.723,1.723,0,0,1,89.023-12.7ZM84.619,0V-10h4.16V0Zm9.746-3.818a1.405,1.405,0,0,0,.742,1.011,3.347,3.347,0,0,0,1.68.366A6.917,6.917,0,0,0,99.541-3V-.361a9.9,9.9,0,0,1-3.672.605A5.794,5.794,0,0,1,91.8-1.094a4.753,4.753,0,0,1-1.455-3.682,6.074,6.074,0,0,1,.64-2.842,4.6,4.6,0,0,1,1.895-1.929,5.6,5.6,0,0,1,2.769-.7,5.447,5.447,0,0,1,2.656.605,4.033,4.033,0,0,1,1.675,1.7,5.452,5.452,0,0,1,.571,2.559v1.563ZM96.865-6q0-1.729-1.24-1.729a1.049,1.049,0,0,0-.869.474A2.364,2.364,0,0,0,94.346-6ZM109.5-6.436a3.233,3.233,0,0,0-.635-.2,3.212,3.212,0,0,0-.664-.088q-2.061,0-2.061,2.383V0h-4.16V-10h4.16v1.758h.039a3.123,3.123,0,0,1,1.084-1.44,2.785,2.785,0,0,1,1.641-.493,1.409,1.409,0,0,1,.6.117Zm8.242,6.3a4.053,4.053,0,0,1-.928.259,8.482,8.482,0,0,1-1.553.122,3.73,3.73,0,0,1-2.72-.957,3.632,3.632,0,0,1-.981-2.725V-7.119H109.99V-10h1.572v-1.963l4.1-1.133V-10h2.08v2.881h-2.08v3q0,1.318,1.045,1.318a2.835,2.835,0,0,0,1.035-.215ZM124.59,0V-1.523h-.039A3.272,3.272,0,0,1,121.5.244a2.917,2.917,0,0,1-2.217-.84,3.12,3.12,0,0,1-.8-2.246q0-2.949,3.623-3.418l2.48-.322a.946.946,0,0,0-.439-.8,2,2,0,0,0-1.182-.312,7.783,7.783,0,0,0-3.545.957V-9.443a9.484,9.484,0,0,1,2.031-.576,11.822,11.822,0,0,1,2.09-.225,5.247,5.247,0,0,1,3.7,1.089,4.853,4.853,0,0,1,1.147,3.638V0Zm-2.461-3.4a.922.922,0,0,0,.259.674.987.987,0,0,0,.737.264,1.311,1.311,0,0,0,1.06-.488,1.892,1.892,0,0,0,.405-1.25V-4.58l-1.406.2Q122.129-4.209,122.129-3.4Z" transform="translate(686.081 990)" fill="#4d5464"/>
      <path id="Trazado_1005628" data-name="Trazado 1005628" d="M9.355,22H4.619L.1,8H4.639l2.139,8.623a9.64,9.64,0,0,1,.283,1.563h.1a10.776,10.776,0,0,1,.3-1.621L9.541,8h4.395Zm16.807-5.176A5.207,5.207,0,0,1,24.634,20.8a5.972,5.972,0,0,1-4.272,1.445,6,6,0,0,1-4.243-1.411A5.051,5.051,0,0,1,14.6,16.941a5.214,5.214,0,0,1,.713-2.764,4.636,4.636,0,0,1,2.031-1.8,7.012,7.012,0,0,1,3.037-.625,6.792,6.792,0,0,1,3.081.654,4.763,4.763,0,0,1,2,1.816A4.946,4.946,0,0,1,26.162,16.824Zm-4.219.02q0-2.041-1.562-2.041t-1.562,2.139q0,2.256,1.582,2.256Q21.943,19.2,21.943,16.844Zm14.014,4.873a3.922,3.922,0,0,1-1.26.381,11.91,11.91,0,0,1-1.982.146,6.1,6.1,0,0,1-2.827-.64,4.667,4.667,0,0,1-1.929-1.792,4.975,4.975,0,0,1-.684-2.588A5.667,5.667,0,0,1,28,14.28a4.743,4.743,0,0,1,2.075-1.875,7.119,7.119,0,0,1,3.125-.649,10.933,10.933,0,0,1,1.753.127,2.678,2.678,0,0,1,1,.293v3.242a2.889,2.889,0,0,0-.9-.43,3.609,3.609,0,0,0-1.084-.186,2.639,2.639,0,0,0-1.851.581,2.114,2.114,0,0,0-.63,1.636,2.075,2.075,0,0,0,.62,1.606,2.419,2.419,0,0,0,1.7.571,4.244,4.244,0,0,0,2.139-.557ZM43.164,22V20.477h-.039a3.272,3.272,0,0,1-3.047,1.768,2.917,2.917,0,0,1-2.217-.84,3.12,3.12,0,0,1-.8-2.246q0-2.949,3.623-3.418l2.48-.322a.946.946,0,0,0-.439-.8,2,2,0,0,0-1.182-.312A7.783,7.783,0,0,0,38,15.262V12.557a9.484,9.484,0,0,1,2.031-.576,11.822,11.822,0,0,1,2.09-.225,5.247,5.247,0,0,1,3.7,1.089,4.853,4.853,0,0,1,1.147,3.638V22ZM40.7,18.6a.922.922,0,0,0,.259.674.987.987,0,0,0,.737.264,1.311,1.311,0,0,0,1.06-.488,1.892,1.892,0,0,0,.405-1.25V17.42l-1.406.2Q40.7,17.791,40.7,18.6ZM48.838,22V7.2H53V22Zm9.746-3.818a1.405,1.405,0,0,0,.742,1.011,3.347,3.347,0,0,0,1.68.366A6.917,6.917,0,0,0,63.76,19v2.637a9.9,9.9,0,0,1-3.672.605,5.794,5.794,0,0,1-4.072-1.338,4.753,4.753,0,0,1-1.455-3.682,6.074,6.074,0,0,1,.64-2.842,4.6,4.6,0,0,1,1.895-1.929,5.6,5.6,0,0,1,2.769-.7,5.447,5.447,0,0,1,2.656.605,4.033,4.033,0,0,1,1.675,1.7,5.452,5.452,0,0,1,.571,2.559v1.563ZM61.084,16q0-1.729-1.24-1.729a1.049,1.049,0,0,0-.869.474A2.364,2.364,0,0,0,58.564,16ZM74.326,18.68a3.054,3.054,0,0,1-1.294,2.632,6.082,6.082,0,0,1-3.608.933,12.546,12.546,0,0,1-1.665-.137,10.286,10.286,0,0,1-1.616-.332v-2.92a7.958,7.958,0,0,0,3.086.82q1.221,0,1.221-.635a.5.5,0,0,0-.283-.435,10.01,10.01,0,0,0-1.484-.571,4.192,4.192,0,0,1-1.934-1.113,2.647,2.647,0,0,1-.605-1.807,2.883,2.883,0,0,1,1.235-2.456,5.8,5.8,0,0,1,3.472-.9,11.035,11.035,0,0,1,2.773.381v2.8a8.387,8.387,0,0,0-1.348-.439,5.443,5.443,0,0,0-1.23-.176,1.339,1.339,0,0,0-.654.137.421.421,0,0,0-.244.381.531.531,0,0,0,.264.459,4.664,4.664,0,0,0,1.055.42,4.894,4.894,0,0,1,2.2,1.152A2.525,2.525,0,0,1,74.326,18.68Zm15.215,0a3.054,3.054,0,0,1-1.294,2.632,6.082,6.082,0,0,1-3.608.933,12.546,12.546,0,0,1-1.665-.137,10.286,10.286,0,0,1-1.616-.332v-2.92a7.958,7.958,0,0,0,3.086.82q1.221,0,1.221-.635a.5.5,0,0,0-.283-.435,10.01,10.01,0,0,0-1.484-.571,4.192,4.192,0,0,1-1.934-1.113,2.647,2.647,0,0,1-.605-1.807,2.883,2.883,0,0,1,1.235-2.456,5.8,5.8,0,0,1,3.472-.9,11.035,11.035,0,0,1,2.773.381v2.8A8.387,8.387,0,0,0,87.49,14.5a5.443,5.443,0,0,0-1.23-.176,1.339,1.339,0,0,0-.654.137.421.421,0,0,0-.244.381.531.531,0,0,0,.264.459,4.664,4.664,0,0,0,1.055.42,4.894,4.894,0,0,1,2.2,1.152A2.525,2.525,0,0,1,89.541,18.68Zm5.117-.5a1.405,1.405,0,0,0,.742,1.011,3.347,3.347,0,0,0,1.68.366A6.917,6.917,0,0,0,99.834,19v2.637a9.9,9.9,0,0,1-3.672.605,5.794,5.794,0,0,1-4.072-1.338,4.753,4.753,0,0,1-1.455-3.682,6.074,6.074,0,0,1,.64-2.842,4.6,4.6,0,0,1,1.895-1.929,5.6,5.6,0,0,1,2.769-.7,5.447,5.447,0,0,1,2.656.605,4.033,4.033,0,0,1,1.675,1.7,5.452,5.452,0,0,1,.571,2.559v1.563ZM97.158,16q0-1.729-1.24-1.729a1.049,1.049,0,0,0-.869.474A2.364,2.364,0,0,0,94.639,16Zm18.086,6V16.238a1.838,1.838,0,0,0-.259-1.079.973.973,0,0,0-.845-.356,1.055,1.055,0,0,0-.9.435,1.989,1.989,0,0,0-.322,1.206V22h-4.16V16.336q0-1.533-1.045-1.533a1.106,1.106,0,0,0-.957.444,2.148,2.148,0,0,0-.322,1.274V22h-4.16V12h4.16v1.582h.039a3.224,3.224,0,0,1,.747-.854,4.385,4.385,0,0,1,1.157-.7,3.594,3.594,0,0,1,1.4-.269,3.535,3.535,0,0,1,1.792.42,3.256,3.256,0,0,1,1.216,1.328,3.564,3.564,0,0,1,1.406-1.294,4.191,4.191,0,0,1,1.953-.454,2.939,2.939,0,0,1,2.412,1.025,4.566,4.566,0,0,1,.84,2.959V22ZM125.684,9.3a1.787,1.787,0,0,1-.64,1.426,2.5,2.5,0,0,1-1.685.547,2.441,2.441,0,0,1-1.665-.566,1.791,1.791,0,0,1-.649-1.406,1.734,1.734,0,0,1,.63-1.392,2.932,2.932,0,0,1,3.369,0A1.723,1.723,0,0,1,125.684,9.3Zm-4.4,12.7V12h4.16V22Zm14.4-.283a3.921,3.921,0,0,1-1.26.381,11.91,11.91,0,0,1-1.982.146,6.1,6.1,0,0,1-2.827-.64,4.667,4.667,0,0,1-1.929-1.792A4.975,4.975,0,0,1,127,17.225a5.667,5.667,0,0,1,.728-2.944,4.743,4.743,0,0,1,2.075-1.875,7.119,7.119,0,0,1,3.125-.649,10.933,10.933,0,0,1,1.753.127,2.678,2.678,0,0,1,1,.293v3.242a2.889,2.889,0,0,0-.9-.43A3.609,3.609,0,0,0,133.7,14.8a2.639,2.639,0,0,0-1.851.581,2.114,2.114,0,0,0-.63,1.636,2.075,2.075,0,0,0,.62,1.606,2.419,2.419,0,0,0,1.7.571,4.244,4.244,0,0,0,2.139-.557Zm5.244-3.535a1.405,1.405,0,0,0,.742,1.011,3.347,3.347,0,0,0,1.68.366A6.917,6.917,0,0,0,146.1,19v2.637a9.9,9.9,0,0,1-3.672.605,5.794,5.794,0,0,1-4.072-1.338,4.753,4.753,0,0,1-1.455-3.682,6.074,6.074,0,0,1,.64-2.842,4.6,4.6,0,0,1,1.895-1.929,5.6,5.6,0,0,1,2.769-.7,5.447,5.447,0,0,1,2.656.605,4.033,4.033,0,0,1,1.675,1.7,5.452,5.452,0,0,1,.571,2.559v1.563Zm2.5-2.178q0-1.729-1.24-1.729a1.049,1.049,0,0,0-.869.474,2.364,2.364,0,0,0-.41,1.255Zm12.637-.439a4,4,0,0,0-1.3-.283q-2.061,0-2.061,2.383V22h-4.16V12h4.16v1.758h.039a3.123,3.123,0,0,1,1.084-1.44,2.785,2.785,0,0,1,1.641-.493,1.409,1.409,0,0,1,.6.117Zm8.721,0a4,4,0,0,0-1.3-.283q-2.061,0-2.061,2.383V22h-4.16V12h4.16v1.758h.039a3.123,3.123,0,0,1,1.084-1.44,2.785,2.785,0,0,1,1.641-.493,1.409,1.409,0,0,1,.6.117ZM171.533,22V20.477h-.039a3.272,3.272,0,0,1-3.047,1.768,2.917,2.917,0,0,1-2.217-.84,3.12,3.12,0,0,1-.8-2.246q0-2.949,3.623-3.418l2.48-.322a.946.946,0,0,0-.439-.8,2,2,0,0,0-1.182-.312,7.783,7.783,0,0,0-3.545.957V12.557a9.484,9.484,0,0,1,2.031-.576,11.822,11.822,0,0,1,2.09-.225,5.247,5.247,0,0,1,3.7,1.089,4.853,4.853,0,0,1,1.147,3.638V22Zm-2.461-3.4a.922.922,0,0,0,.259.674.987.987,0,0,0,.737.264,1.311,1.311,0,0,0,1.06-.488,1.892,1.892,0,0,0,.405-1.25V17.42l-1.406.2Q169.072,17.791,169.072,18.6ZM183.887,22V20.838h-.039a3.433,3.433,0,0,1-1.3,1.03,3.7,3.7,0,0,1-1.582.376,4.07,4.07,0,0,1-2.256-.63,3.825,3.825,0,0,1-1.46-1.763,6.784,6.784,0,0,1-.483-2.676,6.583,6.583,0,0,1,.576-2.822,4.51,4.51,0,0,1,1.621-1.914,4.188,4.188,0,0,1,2.344-.684,3.547,3.547,0,0,1,1.138.176,3.078,3.078,0,0,1,.908.474,1.414,1.414,0,0,1,.493.591h.039V7.2h4.16V22Zm.088-5.3a2.194,2.194,0,0,0-.4-1.4,1.335,1.335,0,0,0-2.168.122,2.881,2.881,0,0,0-.425,1.655q0,2.119,1.465,2.119a1.3,1.3,0,0,0,1.108-.571,2.812,2.812,0,0,0,.415-1.665ZM195.6,22V20.477h-.039a3.272,3.272,0,0,1-3.047,1.768,2.917,2.917,0,0,1-2.217-.84,3.12,3.12,0,0,1-.8-2.246q0-2.949,3.623-3.418l2.48-.322a.946.946,0,0,0-.439-.8,2,2,0,0,0-1.182-.312,7.783,7.783,0,0,0-3.545.957V12.557a9.484,9.484,0,0,1,2.031-.576,11.822,11.822,0,0,1,2.09-.225,5.247,5.247,0,0,1,3.7,1.089,4.853,4.853,0,0,1,1.147,3.638V22Zm-2.461-3.4a.922.922,0,0,0,.259.674.987.987,0,0,0,.737.264,1.311,1.311,0,0,0,1.06-.488,1.892,1.892,0,0,0,.405-1.25V17.42l-1.406.2Q193.135,17.791,193.135,18.6Zm16.26.078a3.054,3.054,0,0,1-1.294,2.632,6.082,6.082,0,0,1-3.608.933,12.546,12.546,0,0,1-1.665-.137,10.286,10.286,0,0,1-1.616-.332v-2.92a7.958,7.958,0,0,0,3.086.82q1.221,0,1.221-.635a.5.5,0,0,0-.283-.435,10.01,10.01,0,0,0-1.484-.571,4.192,4.192,0,0,1-1.934-1.113,2.647,2.647,0,0,1-.605-1.807,2.883,2.883,0,0,1,1.235-2.456,5.8,5.8,0,0,1,3.472-.9,11.035,11.035,0,0,1,2.773.381v2.8a8.387,8.387,0,0,0-1.348-.439,5.443,5.443,0,0,0-1.23-.176,1.339,1.339,0,0,0-.654.137.421.421,0,0,0-.244.381.531.531,0,0,0,.264.459,4.664,4.664,0,0,0,1.055.42,4.894,4.894,0,0,1,2.2,1.152A2.525,2.525,0,0,1,209.395,18.68ZM12.119,43.824A5.207,5.207,0,0,1,10.591,47.8a5.972,5.972,0,0,1-4.272,1.445,6,6,0,0,1-4.243-1.411A5.051,5.051,0,0,1,.557,43.941a5.214,5.214,0,0,1,.713-2.764,4.636,4.636,0,0,1,2.031-1.8,7.012,7.012,0,0,1,3.037-.625,6.792,6.792,0,0,1,3.081.654,4.763,4.763,0,0,1,2,1.816A4.946,4.946,0,0,1,12.119,43.824Zm-4.219.02Q7.9,41.8,6.338,41.8T4.775,43.941q0,2.256,1.582,2.256Q7.9,46.2,7.9,43.844ZM27.354,45.68a3.054,3.054,0,0,1-1.294,2.632,6.082,6.082,0,0,1-3.608.933,12.546,12.546,0,0,1-1.665-.137,10.286,10.286,0,0,1-1.616-.332v-2.92a7.958,7.958,0,0,0,3.086.82q1.221,0,1.221-.635a.5.5,0,0,0-.283-.435,10.01,10.01,0,0,0-1.484-.571,4.192,4.192,0,0,1-1.934-1.113,2.647,2.647,0,0,1-.605-1.807,2.883,2.883,0,0,1,1.235-2.456,5.8,5.8,0,0,1,3.472-.9,11.035,11.035,0,0,1,2.773.381v2.8A8.387,8.387,0,0,0,25.3,41.5a5.443,5.443,0,0,0-1.23-.176,1.339,1.339,0,0,0-.654.137.421.421,0,0,0-.244.381.531.531,0,0,0,.264.459,4.664,4.664,0,0,0,1.055.42,4.894,4.894,0,0,1,2.2,1.152A2.525,2.525,0,0,1,27.354,45.68Zm5.117-.5a1.405,1.405,0,0,0,.742,1.011,3.347,3.347,0,0,0,1.68.366A6.917,6.917,0,0,0,37.646,46v2.637a9.9,9.9,0,0,1-3.672.605A5.794,5.794,0,0,1,29.9,47.906a4.753,4.753,0,0,1-1.455-3.682,6.074,6.074,0,0,1,.64-2.842,4.6,4.6,0,0,1,1.895-1.929,5.6,5.6,0,0,1,2.769-.7,5.447,5.447,0,0,1,2.656.605,4.033,4.033,0,0,1,1.675,1.7,5.452,5.452,0,0,1,.571,2.559v1.563ZM34.971,43q0-1.729-1.24-1.729a1.049,1.049,0,0,0-.869.474A2.364,2.364,0,0,0,32.451,43Zm18.086,6V43.238a1.838,1.838,0,0,0-.259-1.079.973.973,0,0,0-.845-.356,1.055,1.055,0,0,0-.9.435,1.989,1.989,0,0,0-.322,1.206V49h-4.16V43.336q0-1.533-1.045-1.533a1.106,1.106,0,0,0-.957.444,2.148,2.148,0,0,0-.322,1.274V49h-4.16V39h4.16v1.582h.039a3.224,3.224,0,0,1,.747-.854,4.384,4.384,0,0,1,1.157-.7,3.594,3.594,0,0,1,1.4-.269,3.535,3.535,0,0,1,1.792.42A3.256,3.256,0,0,1,50.6,40.5,3.564,3.564,0,0,1,52,39.21a4.191,4.191,0,0,1,1.953-.454,2.939,2.939,0,0,1,2.412,1.025,4.566,4.566,0,0,1,.84,2.959V49ZM63.5,36.3a1.787,1.787,0,0,1-.64,1.426,2.5,2.5,0,0,1-1.685.547,2.441,2.441,0,0,1-1.665-.566,1.791,1.791,0,0,1-.649-1.406,1.734,1.734,0,0,1,.63-1.392,2.932,2.932,0,0,1,3.369,0A1.723,1.723,0,0,1,63.5,36.3ZM59.092,49V39h4.16V49ZM70.8,49V47.477h-.039a3.272,3.272,0,0,1-3.047,1.768A2.917,2.917,0,0,1,65.5,48.4a3.12,3.12,0,0,1-.8-2.246q0-2.949,3.623-3.418l2.48-.322a.946.946,0,0,0-.439-.8A2,2,0,0,0,69.18,41.3a7.783,7.783,0,0,0-3.545.957V39.557a9.483,9.483,0,0,1,2.031-.576,11.822,11.822,0,0,1,2.09-.225,5.247,5.247,0,0,1,3.7,1.089A4.853,4.853,0,0,1,74.6,43.482V49ZM68.34,45.6a.922.922,0,0,0,.259.674.987.987,0,0,0,.737.264,1.311,1.311,0,0,0,1.06-.488A1.892,1.892,0,0,0,70.8,44.8V44.42l-1.406.2Q68.34,44.791,68.34,45.6Zm19.414-1.9a7.318,7.318,0,0,1-.542,2.905,4.417,4.417,0,0,1-1.538,1.953,3.873,3.873,0,0,1-2.256.688,3.561,3.561,0,0,1-1.655-.356,2.981,2.981,0,0,1-1.089-.923h-.039V49h-4.16V34.2h4.16v6.162h.039A3.425,3.425,0,0,1,82,39.186a3.963,3.963,0,0,1,1.841-.43,3.507,3.507,0,0,1,2.905,1.26A5.777,5.777,0,0,1,87.754,43.7Zm-4.219.127a2.482,2.482,0,0,0-.386-1.514,1.389,1.389,0,0,0-2.168.024,2.148,2.148,0,0,0-.425,1.382v.605a2.227,2.227,0,0,0,.381,1.367,1.216,1.216,0,0,0,1.025.508,1.314,1.314,0,0,0,1.162-.62A3.166,3.166,0,0,0,83.535,43.824ZM93.721,36.3a1.787,1.787,0,0,1-.64,1.426,2.5,2.5,0,0,1-1.685.547,2.441,2.441,0,0,1-1.665-.566,1.791,1.791,0,0,1-.649-1.406,1.734,1.734,0,0,1,.63-1.392,2.932,2.932,0,0,1,3.369,0A1.723,1.723,0,0,1,93.721,36.3ZM89.316,49V39h4.16V49Zm9.746-3.818a1.405,1.405,0,0,0,.742,1.011,3.347,3.347,0,0,0,1.68.366A6.917,6.917,0,0,0,104.238,46v2.637a9.9,9.9,0,0,1-3.672.605,5.794,5.794,0,0,1-4.072-1.338,4.753,4.753,0,0,1-1.455-3.682,6.074,6.074,0,0,1,.64-2.842,4.6,4.6,0,0,1,1.895-1.929,5.6,5.6,0,0,1,2.769-.7,5.447,5.447,0,0,1,2.656.605,4.033,4.033,0,0,1,1.675,1.7,5.452,5.452,0,0,1,.571,2.559v1.563Zm2.5-2.178q0-1.729-1.24-1.729a1.049,1.049,0,0,0-.869.474A2.364,2.364,0,0,0,99.043,43Zm12.637-.439a4,4,0,0,0-1.3-.283q-2.061,0-2.061,2.383V49h-4.16V39h4.16v1.758h.039a3.123,3.123,0,0,1,1.084-1.44,2.785,2.785,0,0,1,1.641-.493,1.409,1.409,0,0,1,.6.117Zm8.242,6.3a4.053,4.053,0,0,1-.928.259,8.482,8.482,0,0,1-1.553.122,3.73,3.73,0,0,1-2.72-.957,3.632,3.632,0,0,1-.981-2.725V41.881h-1.572V39h1.572V37.037l4.1-1.133V39h2.08v2.881h-2.08v3q0,1.318,1.045,1.318a2.835,2.835,0,0,0,1.035-.215Zm6.846.137V47.477h-.039a3.272,3.272,0,0,1-3.047,1.768,2.917,2.917,0,0,1-2.217-.84,3.12,3.12,0,0,1-.8-2.246q0-2.949,3.623-3.418l2.48-.322a.946.946,0,0,0-.439-.8,2,2,0,0,0-1.182-.312,7.783,7.783,0,0,0-3.545.957V39.557a9.483,9.483,0,0,1,2.031-.576,11.822,11.822,0,0,1,2.09-.225,5.247,5.247,0,0,1,3.7,1.089,4.853,4.853,0,0,1,1.147,3.638V49Zm-2.461-3.4a.922.922,0,0,0,.259.674.987.987,0,0,0,.737.264,1.311,1.311,0,0,0,1.06-.488,1.892,1.892,0,0,0,.405-1.25V44.42l-1.406.2Q126.826,44.791,126.826,45.6Zm16.26.078a3.054,3.054,0,0,1-1.294,2.632,6.082,6.082,0,0,1-3.608.933,12.546,12.546,0,0,1-1.665-.137,10.286,10.286,0,0,1-1.616-.332v-2.92a7.958,7.958,0,0,0,3.086.82q1.221,0,1.221-.635a.5.5,0,0,0-.283-.435,10.01,10.01,0,0,0-1.484-.571,4.192,4.192,0,0,1-1.934-1.113,2.647,2.647,0,0,1-.605-1.807,2.883,2.883,0,0,1,1.235-2.456,5.8,5.8,0,0,1,3.472-.9,11.035,11.035,0,0,1,2.773.381v2.8a8.387,8.387,0,0,0-1.348-.439,5.443,5.443,0,0,0-1.23-.176,1.339,1.339,0,0,0-.654.137.421.421,0,0,0-.244.381.531.531,0,0,0,.264.459,4.664,4.664,0,0,0,1.055.42,4.894,4.894,0,0,1,2.2,1.152A2.525,2.525,0,0,1,143.086,45.68Z" transform="translate(686.081 880)" fill="#4d5464"/>
    </g>
    <path id="Trazado_998644" data-name="Trazado 998644" d="M-661-10700.253h-59.785v-247.811h38.87" fill="none" stroke="#5c3b66" stroke-linecap="round" stroke-width="2"/>
    <path id="Trazado_998645" data-name="Trazado 998645" d="M-669.5-10638.512h-36.836v-231.159h24.42" transform="translate(3 2)" fill="none" stroke="#5c3b66" stroke-linecap="round" stroke-width="2"/>
    <path id="Trazado_998646" data-name="Trazado 998646" d="M-681.916-10638.512h-24.42v-231.159H-613.5" transform="translate(20 93)" fill="none" stroke="#5c3b66" stroke-linecap="round" stroke-width="2"/>
  </g>
</svg>
