<svg xmlns="http://www.w3.org/2000/svg" xmlns:xlink="http://www.w3.org/1999/xlink" width="1020" height="227" viewBox="0 0 1020 227">
  <defs>
    <clipPath id="clip-path">
      <rect id="Rectángulo_33824" data-name="Rectángulo 33824" width="1020" height="227" transform="translate(284 4246.831)" fill="#fff7da"/>
    </clipPath>
    <clipPath id="clip-path-2">
      <rect id="Rectángulo_455029" data-name="Rectángulo 455029" width="811.397" height="196.905" transform="translate(0 0)" fill="none"/>
    </clipPath>
  </defs>
  <g id="Enmascarar_grupo_54" data-name="Enmascarar grupo 54" transform="translate(-284 -4246.831)" clip-path="url(#clip-path)">
    <g id="Grupo_80387" data-name="Grupo 80387" transform="translate(149.294 4019.188)">
      <g id="Grupo_80274" data-name="Grupo 80274">
        <rect id="Rectángulo_33830" data-name="Rectángulo 33830" width="1060" height="258" transform="translate(114.707 212.642)" fill="#a4c2ff"/>
        <g id="Grupo_1177840" data-name="Grupo 1177840" transform="translate(239.437 257.854)">
          <g id="Grupo_1177839" data-name="Grupo 1177839" transform="translate(0 -0.003)" clip-path="url(#clip-path-2)">
            <path id="Trazado_995097" data-name="Trazado 995097" d="M257.649,196.9H15.713l-.063-.151C14.306,193.523-7.953,138.931,3.04,92.64,13.985,46.556,41.059,14.874,83.686,5.657S177-4.135,220.782,24.091s58.756,79.492,36.867,172.811" transform="translate(-0.001 0.003)" fill="#fee7bd"/>
            <path id="Trazado_995098" data-name="Trazado 995098" d="M230.957,195.5s1.816-17.5,20.632-9.573a13.786,13.786,0,0,1,2.714-13.865c5.777-6.6,14.855-4.622,18.817-.99s3.7,11.224,3.7,11.224,13.645-2.861,13.645,9.1c0,0,9.317-5.63,9.317,4.108Z" transform="translate(-201.68 -146.459)" fill="#fff"/>
            <path id="Trazado_995099" data-name="Trazado 995099" d="M717.664,615.742s-1.294-12.469-14.7-6.823a9.825,9.825,0,0,0-1.935-9.881c-4.117-4.705-10.587-3.294-13.41-.706s-2.64,8-2.64,8-9.724-2.039-9.724,6.483c0,0-6.64-4.013-6.64,2.928Z" transform="translate(-583.855 -520.399)" fill="#fff"/>
            <path id="Trazado_995100" data-name="Trazado 995100" d="M1347.425,211.287s1.294-12.469,14.7-6.823a9.825,9.825,0,0,1,1.934-9.881c4.117-4.705,10.587-3.294,13.41-.706s2.64,8,2.64,8,9.724-2.039,9.724,6.483c0,0,6.64-4.013,6.64,2.928Z" transform="translate(-1176.62 -167.215)" fill="#fff"/>
            <path id="Trazado_995101" data-name="Trazado 995101" d="M168.995,803.121s-.9-8.694-10.253-4.757a6.851,6.851,0,0,0-1.349-6.89c-2.871-3.281-7.382-2.3-9.35-.492s-1.907,6.274-1.907,6.274-6.248-2.064-6.715,3.824c0,0-3.553-2.194-4.63,2.041Z" transform="translate(-117.705 -689.259)" fill="#fff"/>
            <path id="Trazado_995102" data-name="Trazado 995102" d="M1383.089,757.35s0-16.609,15.165-9.388c0,0,1.083-8.786,9.508-5.055,0,0-1.685-19.739,13.48-19.739s18.776,14.443,18.776,14.443,18.094-9.308,20.5,9.869c0,0,11.635-3.37,11.635,9.869Z" transform="translate(-1207.764 -631.496)" fill="#fff"/>
            <path id="Trazado_995103" data-name="Trazado 995103" d="M358.916,1105.719s0-12.507-11.42-7.069c0,0-.816-6.616-7.16-3.807,0,0,1.269-14.864-10.151-14.864s-14.138,10.876-14.138,10.876-13.625-7.009-15.438,7.432c0,0-8.761-2.538-8.761,7.432Z" transform="translate(-254.853 -943.077)" fill="#fff"/>
            <path id="Trazado_995104" data-name="Trazado 995104" d="M921.254,697.348l-22.465,9.3a1.27,1.27,0,0,0-.426-.448h0c-.37-.184-.873.127-1.034,2.893-.1,1.747-1.449,31.01.146,48.544H826.612s.21-3.011.513-7.589c.769-11.551,2.138-33.079,2.255-41.4a12.357,12.357,0,0,0-.161-3.393c-.977-.977-22.171-4.238-22.171-6.195s13.368-37.5,22.824-45.972,34.561-11.52,42.168-10.869,23.475,5.651,34.561,22.606a111.865,111.865,0,0,1,14.653,32.529" transform="translate(-704.744 -560.729)" fill="#f2d455"/>
            <path id="Trazado_995105" data-name="Trazado 995105" d="M1033.129,918.25c-.37-.184-.873.127-1.034,2.893-.1,1.747-1.449,31.01.146,48.544H961.379s.21-3.011.513-7.589c17.2,5.318,46.493,3.059,55.962-1.676,12.387-6.194,9.8-68.221,10.407-74.7s4.153,30.641,4.866,32.528" transform="translate(-839.511 -772.782)" fill="#e0c128"/>
            <path id="Trazado_995106" data-name="Trazado 995106" d="M982.11,830.613a12.357,12.357,0,0,0-.161-3.393c1.022-7.608,4.078-53.935,4.323-44.034.245,9.935-1.1,39.623-4.162,47.427" transform="translate(-857.473 -682.7)" fill="#e0c128"/>
            <path id="Trazado_995107" data-name="Trazado 995107" d="M649.049,850.931l2.171-3.459,20.354,11.238,38.263-14.944L723.5,901.31l-5.021,4.249-60.426-34.538Z" transform="translate(-566.773 -736.806)" fill="#fff"/>
            <path id="Trazado_995108" data-name="Trazado 995108" d="M848.632,899.682l33.7-13.52,13.659,57.228L860.44,953.608Z" transform="translate(-741.057 -773.829)" fill="#de4e31"/>
            <path id="Trazado_995109" data-name="Trazado 995109" d="M817.984,1045.9l-10.656-52.8,5.236-.28,11.807,53.926Z" transform="translate(-704.988 -866.963)" fill="#c1311a"/>
            <path id="Trazado_995110" data-name="Trazado 995110" d="M676.682,963.254l-19.2-12.376-11.968-52.7,20.512,12.277Z" transform="translate(-563.686 -784.317)" fill="#de4e31"/>
            <path id="Trazado_995111" data-name="Trazado 995111" d="M1035.138,1111.159c-3.959,6.384-14.309,8.81-26.626,8.662s-44.116-3.906-46.71-4.34-5.542,2.984-10.626,3.457a13.085,13.085,0,0,1-1.529.057c-.007,0-.01,0-.013,0a26.822,26.822,0,0,1-12.251-3.731c-2.611-1.653-1.042-2.915-2.07-3.171s-1.969-1.558-1.45-2.572,0-1.345-.744-3.3c-.66-1.747,2.792-1.571,2.513-2.564s.555-2.068,2.626-2.249,10.154,2.718,12.191,2.268.114-2.73-.43-4.325-.126-2.86,1.938-2.821,9.13,5.666,12.106,6.538,4.405.992,18.532-.259a186.579,186.579,0,0,0,29.969-5.5c.471-.247-1.893-4.953-2.14-5.574l16.945-7.021,1.978-.821q.015.029.031.067c.01.019.02.041.031.067.069.153.175.39.315.7.022.051.048.105.074.163.151.342.33.755.533,1.233.065.151.132.311.2.474.482,1.149,1.07,2.592,1.678,4.21.073.2.15.4.224.6.627,1.69,1.263,3.544,1.824,5.437.039.134.08.265.119.4.115.4.227.8.336,1.2.057.207.111.414.165.621.086.325.166.651.242.975.035.131.063.264.094.4q.148.634.274,1.261l.06.309c.727,3.746.825,7.152-.411,9.144" transform="translate(-814.759 -946.501)" fill="#f7b47b"/>
            <path id="Trazado_995112" data-name="Trazado 995112" d="M1149.58,1111.159c-3.959,6.384-14.309,8.81-26.626,8.662s-44.116-3.906-46.71-4.34-5.542,2.984-10.626,3.457a13.085,13.085,0,0,1-1.529.057,31.049,31.049,0,0,0,9.1-3.1c2.268-1.449,1.339-2.779,2.222-5s.137,2.461.625,3.667,23.72,2.711,36.886,3.432,30.085-.631,33.342-7.167c3.025-6.08-.545-14.1-4.455-26.1l1.978-.821q.015.029.031.067t.031.067c.069.153.176.39.315.7.026.054.048.109.074.163.151.342.33.755.533,1.233.065.151.132.311.2.474.482,1.149,1.07,2.592,1.678,4.21.073.2.15.4.223.6.627,1.69,1.263,3.544,1.824,5.437.039.134.08.265.119.4.115.4.227.8.336,1.2.057.207.111.414.165.621.086.325.166.651.242.975.035.131.063.264.094.4q.148.634.274,1.261l.06.309c.727,3.746.825,7.152-.411,9.144" transform="translate(-929.201 -946.501)" fill="#e59a61"/>
            <path id="Trazado_995113" data-name="Trazado 995113" d="M962.718,1243.336a67.984,67.984,0,0,1-8.675-1.958c-.3-.088-.457-.28-.342-.428a.784.784,0,0,1,.758-.109,67.583,67.583,0,0,0,8.276,1.882,1.038,1.038,0,0,1,.335.089c.15.071.247.172.244.276,0,.169-.272.281-.6.249" transform="translate(-832.773 -1083.508)" fill="#e59a61"/>
            <path id="Trazado_995114" data-name="Trazado 995114" d="M952.267,1279.866a67.942,67.942,0,0,1-8.675-1.958c-.3-.088-.457-.279-.342-.428a.783.783,0,0,1,.758-.109,67.569,67.569,0,0,0,8.277,1.882,1.044,1.044,0,0,1,.335.089c.15.071.247.172.244.277,0,.169-.272.281-.6.248" transform="translate(-823.647 -1115.407)" fill="#e59a61"/>
            <path id="Trazado_995115" data-name="Trazado 995115" d="M963.888,1310a67.979,67.979,0,0,1-8.348-3.067c-.29-.126-.417-.337-.284-.469a.783.783,0,0,1,.766-.01,67.632,67.632,0,0,0,7.963,2.939,1.035,1.035,0,0,1,.321.132c.14.089.223.2.206.306-.026.167-.306.243-.624.169" transform="translate(-834.118 -1140.76)" fill="#e59a61"/>
            <path id="Trazado_995116" data-name="Trazado 995116" d="M671.448,1042.379c3.539-.794,6.229-.895,6.711-.2s-.775,1.951-1.6,2.1-5.325,1.16-3.411,1.571,6.888-.8,7.64.206-2.245,2.5-4.217,2.8-4.433.885-2.544,1.158,6.875-.712,7.024.745-4.009,2.606-5.227,2.654-2.6.611-1.589.757,4.74.1,4.455,1.45-4.21,2.442-7.291,1.728-1.539-1.77-1.955-2.458-1.2-1-1.052-2.035.7-1.873.195-2.282a2.048,2.048,0,0,1-.9-1.991c.249-.794.66-1.99.3-2.177s-1.385-1.792-.285-2.575a11.9,11.9,0,0,1,3.753-1.454" transform="translate(-582.623 -909.664)" fill="#f7b47b"/>
            <path id="Trazado_995117" data-name="Trazado 995117" d="M678.921,1073.1a.207.207,0,0,1-.064-.39,12.876,12.876,0,0,1,3.07-.724.207.207,0,1,1,.05.411,12.816,12.816,0,0,0-2.933.682.206.206,0,0,1-.123.02" transform="translate(-592.703 -936.092)" fill="#e59a61"/>
            <path id="Trazado_995118" data-name="Trazado 995118" d="M684.022,1106.383a.207.207,0,0,1-.064-.39,12.871,12.871,0,0,1,3.07-.724.207.207,0,0,1,.05.411,12.809,12.809,0,0,0-2.933.682.207.207,0,0,1-.123.02" transform="translate(-597.158 -965.159)" fill="#e59a61"/>
            <path id="Trazado_995119" data-name="Trazado 995119" d="M689.941,1138.9a.207.207,0,0,1-.064-.39,12.87,12.87,0,0,1,3.07-.724.207.207,0,1,1,.05.411,12.811,12.811,0,0,0-2.933.682.207.207,0,0,1-.123.02" transform="translate(-602.327 -993.558)" fill="#e59a61"/>
            <path id="Trazado_995120" data-name="Trazado 995120" d="M1145.714,544.935c-4.023,2.481-5.322,3.066-10.909,4.412-5.617,1.354-6.414.735-10.024-.318-5.809-1.694-.723-5.911-.907-5.681.819-1.024.607-2.423.437-5.263a44.57,44.57,0,0,0-.6-4.848l17.977-5.756a8.115,8.115,0,0,0,.167,2.615c.978,4.7,5.158,10.31,5.9,11.686.718,1.329.231,1.749-2.046,3.154" transform="translate(-979.761 -460.615)" fill="#f7b47b"/>
            <path id="Trazado_995121" data-name="Trazado 995121" d="M1153.744,530.1l0,0c-4.555,6.374-13.461,7.713-17.545,7.987a44.542,44.542,0,0,0-.6-4.848l17.978-5.756a8.115,8.115,0,0,0,.167,2.615" transform="translate(-991.646 -460.616)" fill="#e0945c"/>
            <path id="Trazado_995122" data-name="Trazado 995122" d="M914.3,112.337c-3.886.046-7.817-.7-8.559-3.815s-.251-4.2-1.054-4.018-2.915-.628-3.575-2.952.72-4.873-.2-5.035a4.653,4.653,0,0,1-3.037-4.295c-.212-2.72,1.085-2.592.608-3.968s-1.559-5.336,1.037-8.548,5.786-1.234,5.844-2.458.436-4.582,5.064-6.378,7.094,1.011,7.456-.03,1.584-3.631,6.526-5.632,7.077.824,7.765.586,5.516-3.4,9.432-2.111,4.584,5.445,5.258,5.307a5.736,5.736,0,0,1,6.022,1.671c2.68,2.732,1.88,5.707,2.833,5.955s4.435.15,5.976,3.9-.8,6.875-.313,7.719,3.231.567,3.635,4.377-1.928,5-1.7,6.223,3.071,4.138.506,7.58-4.9,2.13-5.164,4-5.374,12.47-16.723,11.308-27.638-9.393-27.638-9.393" transform="translate(-784.031 -55.34)"/>
            <path id="Trazado_995123" data-name="Trazado 995123" d="M1007.495,248.452c.379,2.888,1.331,13.507,4.909,20.4s11.373,8.741,16.639,7.675,11.547-5.6,13.954-10.192,1.694-5.018,3.041-5.2,4.772-1.171,6.124-6.167-1.082-8.825-2.627-9.253-4,1.1-5.033,4.1-.133,3.788-.7,3.946-1.677.444-2.326-2.125.178-10.61-.558-10.789-3.419.558-4.543-1.991.373-3.79-.533-3.765-2.757.522-4.007-1.695-.816-3.33-1.544-2.789-2.21,1.825-3.775.922-1.737-.843-1.643-.154a6.2,6.2,0,0,1-2.977,5.173c-2.517,1.354-2.968-.224-3.345.773s-.221,2-2.845,2.912-3.835-.5-4.217.064.249,2.8-1.428,3.692c-1.866.988-2.679-.135-2.771.433a16.975,16.975,0,0,0,.207,4.025" transform="translate(-879.551 -201.259)" fill="#f7b47b"/>
            <path id="Trazado_995124" data-name="Trazado 995124" d="M1174.078,388.919a2.415,2.415,0,0,0,2.719,2.053,2.475,2.475,0,0,0,1.508-3.094,2.415,2.415,0,0,0-2.719-2.053,2.475,2.475,0,0,0-1.508,3.094" transform="translate(-1025.173 -336.87)"/>
            <path id="Trazado_995125" data-name="Trazado 995125" d="M1049.433,409.179a2.239,2.239,0,0,0,2.522,1.9,2.3,2.3,0,0,0,1.4-2.869,2.239,2.239,0,0,0-2.522-1.9,2.3,2.3,0,0,0-1.4,2.869" transform="translate(-916.334 -354.762)"/>
            <path id="Trazado_995126" data-name="Trazado 995126" d="M1163.353,340.41a7.735,7.735,0,0,0-1.942-2.344,7.993,7.993,0,0,0-2.731-1.484,2.505,2.505,0,0,0-.377-.114l-.382-.106-.386-.109c-.13-.026-.26-.046-.392-.069a5.657,5.657,0,0,0-.793-.072,6.38,6.38,0,0,0-.782.106c-.129.029-.258.053-.384.086s-.247.09-.369.14c-.244.1-.484.2-.715.325a5.12,5.12,0,0,0-1.24,1.018l.067.189a7.774,7.774,0,0,0,1.5.175c.236.026.464.039.688.044.112,0,.222,0,.333,0l.328.024a4.27,4.27,0,0,0,.644-.013,6.2,6.2,0,0,0,.637-.034l.324-.041.323,0a3.991,3.991,0,0,1,.651.026l.648.1.639.173a7.989,7.989,0,0,1,1.258.488,8.5,8.5,0,0,1,2.3,1.609Z" transform="translate(-1006.717 -293.503)"/>
            <path id="Trazado_995127" data-name="Trazado 995127" d="M1020.323,362.838a6.733,6.733,0,0,1,.984-2.437,6.966,6.966,0,0,1,1.852-1.943,2.188,2.188,0,0,1,.28-.194l.285-.189.288-.192c.1-.056.2-.107.3-.161a4.907,4.907,0,0,1,.63-.271,5.5,5.5,0,0,1,.668-.122c.113-.011.225-.025.337-.032s.226.007.338.016c.225.016.449.039.669.075a4.35,4.35,0,0,1,1.277.5l-.006.173a6.738,6.738,0,0,1-1.181.543c-.186.084-.37.155-.552.219-.091.033-.182.059-.272.088l-.263.107a3.674,3.674,0,0,1-.53.161,5.282,5.282,0,0,1-.53.142l-.276.053-.265.084a3.452,3.452,0,0,0-.526.195l-.5.257-.478.312a6.933,6.933,0,0,0-.9.735,7.413,7.413,0,0,0-1.464,1.929Z" transform="translate(-890.983 -312.004)"/>
            <path id="Trazado_995128" data-name="Trazado 995128" d="M1124.756,468.311a.66.66,0,0,0,.457-.74,2.254,2.254,0,0,0-1.987-1.88c-.474-.124-.648-.189-.682-.313-.216-.782.538-3.031.859-3.991.078-.233.145-.434.193-.589a.672.672,0,0,0-.415-.837.634.634,0,0,0-.807.425c-.046.148-.11.339-.184.561-.611,1.823-1.182,3.7-.88,4.789a1.894,1.894,0,0,0,1.609,1.243c.7.182.949.291,1.027.8a.649.649,0,0,0,.735.555.634.634,0,0,0,.076-.017" transform="translate(-979.095 -401.625)" fill="#e89f69"/>
            <path id="Trazado_995129" data-name="Trazado 995129" d="M1122.827,530.033a9.912,9.912,0,0,1-5.624-.715.742.742,0,0,1-.35-.967.691.691,0,0,1,.932-.357c.048.023,3.149,1.444,5.909.255a6.943,6.943,0,0,0,3.616-4.386.7.7,0,0,1,.9-.43.74.74,0,0,1,.421.936,8.3,8.3,0,0,1-4.4,5.23,7.058,7.058,0,0,1-1.4.434" transform="translate(-975.221 -457.04)"/>
            <path id="Trazado_995130" data-name="Trazado 995130" d="M366.767,1122.329s1.633,2.568,6.455,4.489,12.085-3.206,17.856.808a35.912,35.912,0,0,0-10.338-7.635c-6.131-2.894-12.1.373-13.973,2.338" transform="translate(-320.274 -977.016)" fill="#93b226"/>
            <path id="Trazado_995131" data-name="Trazado 995131" d="M366.767,1142.815q1.107-.039,2.207-.038c.734,0,1.467.008,2.2.031s1.462.056,2.192.1c.365.023.729.051,1.093.081l.546.048c.182.016.363.038.545.056l.272.028.272.032c.181.022.363.041.543.066l.543.071c.181.024.361.055.541.08l.271.04.27.046c.18.031.36.058.54.09.358.068.719.13,1.076.206a40.944,40.944,0,0,1,4.256,1.11,20.424,20.424,0,0,0-4.144-1.584c-.179-.047-.358-.1-.539-.14l-.542-.128c-.181-.041-.363-.078-.545-.115l-.273-.056-.274-.049c-.183-.033-.365-.066-.549-.095l-.55-.084c-.092-.014-.184-.026-.276-.037l-.276-.035-.276-.034-.277-.03c-.185-.018-.369-.038-.554-.053l-.554-.044c-.37-.022-.74-.047-1.111-.057-.741-.026-1.482-.028-2.222,0s-1.479.074-2.215.152c-.368.039-.735.085-1.1.141q-.274.042-.547.09c-.182.034-.363.068-.544.109" transform="translate(-320.274 -997.502)" fill="#899b1c"/>
            <path id="Trazado_995132" data-name="Trazado 995132" d="M297.607,1001.421s-2.716-1.8-4.673-7.005,3.684-12.874-.5-19.137a38.459,38.459,0,0,1,7.962,11.228c2.972,6.625-.65,12.947-2.793,14.914" transform="translate(-255.367 -851.649)" fill="#93b226"/>
            <path id="Trazado_995133" data-name="Trazado 995133" d="M320.557,1053.118q.065-1.185.086-2.363c.016-.786.022-1.571.013-2.355s-.03-1.567-.066-2.349c-.017-.391-.039-.781-.064-1.172l-.04-.585c-.014-.195-.033-.39-.049-.584l-.024-.292-.029-.292c-.02-.194-.036-.389-.06-.583l-.065-.583c-.022-.194-.052-.387-.075-.581l-.037-.291-.043-.29c-.03-.193-.055-.387-.086-.58-.066-.385-.124-.772-.2-1.156a43.86,43.86,0,0,0-1.1-4.58,21.882,21.882,0,0,1,1.611,4.47c.047.193.1.385.139.58l.125.583c.04.195.076.39.112.586l.054.293.047.294c.031.2.063.393.09.589l.078.591c.014.1.024.2.034.3l.031.3.031.3.026.3c.015.2.033.4.046.594l.036.594c.016.4.035.793.038,1.19q.018,1.191-.042,2.379c-.042.792-.11,1.582-.209,2.368-.049.393-.106.785-.174,1.175-.034.2-.069.39-.107.584s-.08.388-.128.58" transform="translate(-278.318 -903.345)" fill="#899b1c"/>
            <path id="Trazado_995134" data-name="Trazado 995134" d="M268.3,1228.569s1.981,2.8,7.52,4.7,13.436-4.281,20.16-.077a40.5,40.5,0,0,0-12.069-8.03c-7.067-2.921-13.608,1.09-15.611,3.407" transform="translate(-234.293 -1068.96)" fill="#93b226"/>
            <path id="Trazado_995135" data-name="Trazado 995135" d="M268.3,1252.754q1.245-.105,2.485-.165t2.479-.087q1.238-.023,2.475,0c.412.005.824.017,1.236.031l.617.024c.206.008.411.022.617.033l.308.016.308.021c.205.015.411.026.616.045l.615.05c.2.018.409.042.614.061l.307.03.307.036c.2.026.409.046.613.072.407.057.817.106,1.223.173a46.183,46.183,0,0,1,4.856,1.016,23.041,23.041,0,0,0-4.756-1.556c-.2-.043-.409-.091-.615-.128l-.618-.114c-.206-.036-.413-.067-.62-.1l-.31-.048-.311-.041c-.208-.027-.415-.054-.623-.076l-.625-.064c-.1-.011-.208-.019-.313-.027l-.313-.024-.313-.024-.313-.018c-.209-.01-.418-.023-.627-.029l-.627-.019c-.418,0-.836-.012-1.254,0q-1.254.018-2.5.119c-.832.069-1.662.165-2.486.294-.412.064-.823.137-1.232.22-.2.042-.408.085-.612.131s-.406.1-.606.153" transform="translate(-234.293 -1093.145)" fill="#899b1c"/>
            <path id="Trazado_995136" data-name="Trazado 995136" d="M185.455,1094.459s-3.152-1.875-5.639-7.615,3.43-14.672-1.613-21.48a43.276,43.276,0,0,1,9.568,12.18c3.706,7.282-.016,14.586-2.316,16.915" transform="translate(-155.613 -930.315)" fill="#93b226"/>
            <path id="Trazado_995137" data-name="Trazado 995137" d="M214.1,1151.292q.008-1.335-.033-2.66c-.025-.884-.062-1.767-.116-2.648s-.12-1.76-.2-2.637c-.04-.439-.087-.876-.137-1.314l-.078-.655c-.026-.219-.058-.436-.087-.654l-.043-.327-.048-.326c-.033-.217-.062-.436-.1-.652l-.105-.651c-.036-.217-.079-.432-.116-.649l-.057-.325-.065-.323c-.044-.215-.083-.432-.128-.647-.1-.429-.182-.861-.287-1.288a49.327,49.327,0,0,0-1.49-5.087,24.622,24.622,0,0,1,2.057,4.935c.063.214.132.428.188.644l.173.648c.056.217.106.434.158.652l.077.327.069.328c.046.219.092.438.134.657l.12.66c.021.11.038.22.055.331l.051.331.051.331.046.332c.028.222.059.443.084.665l.073.666c.04.445.083.89.109,1.336q.087,1.337.084,2.677c0,.892-.036,1.784-.1,2.673-.034.444-.076.888-.131,1.331-.027.221-.056.442-.088.662s-.068.44-.112.659" transform="translate(-184.259 -987.147)" fill="#899b1c"/>
            <path id="Trazado_995138" data-name="Trazado 995138" d="M187.091,1338.753s2.533,2.854,8.887,4.271,14.322-6.379,22.268-2.559a45.032,45.032,0,0,0-14.322-7.392c-8.168-2.361-14.9,2.874-16.833,5.68" transform="translate(-163.375 -1163.567)" fill="#93b226"/>
            <path id="Trazado_995139" data-name="Trazado 995139" d="M187.091,1366.58q1.363-.269,2.725-.487c.909-.147,1.818-.283,2.729-.4s1.822-.222,2.734-.309c.456-.045.913-.082,1.369-.118l.685-.049c.228-.016.457-.026.686-.039l.343-.02.343-.015c.229-.008.457-.022.686-.026l.686-.02c.229-.006.457,0,.686-.008l.343-.005.343,0c.229,0,.458,0,.687,0,.457.013.915.017,1.373.041a51.335,51.335,0,0,1,5.491.526,25.62,25.62,0,0,0-5.446-1.135c-.231-.023-.463-.051-.695-.066l-.7-.05c-.232-.015-.465-.024-.7-.033l-.349-.014-.349-.007c-.233,0-.465-.008-.7-.008l-.7.006c-.116,0-.233,0-.349.009l-.349.012-.349.012-.348.019c-.232.015-.464.026-.7.044l-.7.056c-.463.047-.925.089-1.386.151q-1.383.174-2.752.438t-2.711.63c-.447.122-.893.252-1.334.394q-.331.107-.66.22c-.218.078-.437.156-.651.244" transform="translate(-163.375 -1191.394)" fill="#899b1c"/>
            <path id="Trazado_995140" data-name="Trazado 995140" d="M72.472,1221.8s-3.728-1.373-7.512-7,.751-16.3-5.966-22.558a46.877,46.877,0,0,1,12.6,11.08c5.387,7.023,2.867,15.538.879,18.473" transform="translate(-51.516 -1041.113)" fill="#93b226"/>
            <path id="Trazado_995141" data-name="Trazado 995141" d="M114.22,1276.663q-.256-1.423-.562-2.827t-.647-2.8q-.346-1.391-.738-2.768c-.13-.459-.266-.916-.405-1.372l-.213-.683c-.071-.228-.148-.453-.222-.679l-.111-.34-.116-.338c-.079-.225-.152-.452-.235-.675l-.241-.673c-.081-.224-.17-.445-.252-.669l-.125-.335-.133-.332c-.09-.22-.174-.444-.265-.664-.186-.438-.364-.881-.56-1.315a53.464,53.464,0,0,0-2.593-5.123,26.669,26.669,0,0,1,3.167,4.849c.11.216.225.429.328.649l.313.656c.1.22.2.442.3.663l.146.333.139.336c.092.224.185.448.273.674l.259.679c.044.113.084.227.124.342l.12.343.12.343.114.345c.074.231.151.46.221.692l.21.7c.13.466.264.931.38,1.4q.357,1.407.619,2.834c.173.951.314,1.907.418,2.868.052.48.094.961.124,1.443.015.241.028.482.037.723s.014.483.011.724" transform="translate(-93.264 -1095.976)" fill="#899b1c"/>
            <path id="Trazado_995142" data-name="Trazado 995142" d="M169.7,1058.962a76.357,76.357,0,0,0-10.933,7.435c-.946.753-1.929,1.564-2.941,2.438-.089.075-.179.153-.269.232q-.378.325-.761.665c-1.56,1.382-3.179,2.9-4.821,4.56a98.051,98.051,0,0,0-7.258,8.209c-.214.27-.427.544-.641.82l-.041.055c-.041.052-.081.1-.12.156a95.691,95.691,0,0,0-8.716,13.563q-.407.768-.8,1.553c-.029.056-.058.113-.086.17q-.154.306-.307.616a92.115,92.115,0,0,0-7.425,21.256h-1.071l-.063-.151a93.894,93.894,0,0,1,5.048-16.179c.055-.132.11-.264.166-.394.027-.066.055-.132.082-.2q.936-2.215,1.986-4.378,1.384-2.854,2.964-5.616,1.747-3.054,3.729-5.99c.072-.107.145-.213.218-.319.034-.052.07-.1.105-.156q1.177-1.723,2.434-3.4s0,0,0,0a100.566,100.566,0,0,1,9.017-10.448c.106-.108.213-.214.321-.321q.281-.285.565-.562l.191-.189q1.01-.991,2-1.908a86.71,86.71,0,0,1,16.9-12.529.57.57,0,0,1,.767.242s0,0,0,0a.568.568,0,0,1-.245.768" transform="translate(-107.799 -923.783)" fill="#899b1c"/>
            <path id="Trazado_995143" data-name="Trazado 995143" d="M575.218,1291.67a8.049,8.049,0,0,0,4.585.164c2.973-.581,4.917-5.391,9.017-5.243a20.953,20.953,0,0,0-7.484-.481,7.514,7.514,0,0,0-6.117,5.561" transform="translate(-502.301 -1122.947)" fill="#93b226"/>
            <path id="Trazado_995144" data-name="Trazado 995144" d="M575.218,1300.148q.531-.369,1.071-.716t1.089-.68q.549-.33,1.108-.641c.186-.1.374-.205.562-.306l.283-.149c.094-.05.19-.1.285-.145l.142-.072.144-.07c.1-.046.191-.095.287-.139l.289-.136c.1-.045.194-.087.291-.132l.145-.066.147-.063c.1-.041.2-.085.293-.126.2-.08.394-.163.593-.238a23.885,23.885,0,0,1,2.439-.8,11.917,11.917,0,0,0-2.534.531c-.1.034-.207.065-.309.1l-.306.109c-.1.037-.2.077-.3.116l-.151.059-.15.062c-.1.042-.2.083-.3.127l-.3.133c-.05.022-.1.045-.147.069l-.146.07-.146.07-.145.073c-.1.05-.193.1-.289.149l-.286.153c-.189.106-.378.211-.563.323q-.557.332-1.091.7t-1.038.774c-.168.135-.334.274-.5.417q-.121.107-.24.217c-.078.074-.157.148-.232.225" transform="translate(-502.301 -1131.426)" fill="#899b1c"/>
            <path id="Trazado_995145" data-name="Trazado 995145" d="M495.513,1281.743a8.62,8.62,0,0,1-4.506-1.961c-2.6-1.935-2.259-7.48-6.288-9.233a22.441,22.441,0,0,1,7.453,2.995,8.047,8.047,0,0,1,3.34,8.2" transform="translate(-423.275 -1109.489)" fill="#93b226"/>
            <path id="Trazado_995146" data-name="Trazado 995146" d="M523.1,1299.859q-.342-.6-.7-1.187t-.738-1.16q-.378-.573-.774-1.132c-.132-.187-.266-.371-.4-.555l-.2-.274c-.068-.091-.139-.181-.208-.271l-.1-.136-.106-.134c-.071-.089-.141-.18-.214-.267l-.216-.265c-.072-.088-.148-.174-.22-.262l-.11-.131-.113-.129c-.076-.085-.149-.173-.225-.258-.154-.168-.3-.34-.463-.5a25.6,25.6,0,0,0-1.987-1.9,12.781,12.781,0,0,1,2.2,1.684c.084.08.17.158.251.241l.246.246c.081.083.16.168.24.252l.119.127.116.129c.077.086.155.173.23.261l.225.265c.038.044.074.089.11.134l.109.135.109.136.106.137c.07.092.141.184.21.277l.205.28c.133.19.268.378.395.572q.385.578.731,1.181t.645,1.228c.1.209.2.419.286.632q.068.159.132.32c.042.108.083.215.12.325" transform="translate(-450.865 -1127.605)" fill="#899b1c"/>
            <path id="Trazado_995147" data-name="Trazado 995147" d="M562.528,1369.713a9.079,9.079,0,0,0,5.174-.069c3.317-.819,5.241-6.344,9.867-6.406a23.634,23.634,0,0,0-8.458-.128,8.474,8.474,0,0,0-6.584,6.6" transform="translate(-491.22 -1190.033)" fill="#93b226"/>
            <path id="Trazado_995148" data-name="Trazado 995148" d="M562.528,1379.185q.578-.445,1.167-.866t1.189-.826q.6-.4,1.213-.784c.2-.128.41-.252.616-.375l.311-.183c.1-.061.209-.119.313-.179l.156-.09.158-.087c.105-.057.21-.117.316-.172l.318-.17c.106-.056.214-.109.321-.164l.16-.083.162-.079c.108-.052.215-.107.324-.158.218-.1.434-.206.655-.3a26.951,26.951,0,0,1,2.7-1.036,13.445,13.445,0,0,0-2.825.739c-.114.043-.229.084-.342.131l-.339.139c-.113.047-.224.1-.336.147l-.167.075-.165.078c-.11.052-.221.1-.33.159l-.327.166c-.055.027-.108.056-.162.086l-.161.087-.161.087-.159.09c-.106.061-.212.121-.317.184l-.314.189c-.207.13-.414.258-.616.395q-.61.4-1.191.849t-1.127.93q-.273.243-.535.5-.13.128-.258.258c-.084.088-.169.175-.249.267" transform="translate(-491.22 -1199.506)" fill="#899b1c"/>
            <path id="Trazado_995149" data-name="Trazado 995149" d="M469.873,1362.817a9.7,9.7,0,0,1-5.172-1.955c-3.033-2.031-2.951-8.282-7.576-10.03a25.257,25.257,0,0,1,8.541,2.954,9.055,9.055,0,0,1,4.207,9.031" transform="translate(-399.178 -1179.595)" fill="#93b226"/>
            <path id="Trazado_995150" data-name="Trazado 995150" d="M501.88,1381.653q-.418-.658-.857-1.295t-.893-1.263q-.456-.623-.933-1.229c-.158-.2-.32-.4-.482-.6l-.245-.3c-.082-.1-.166-.2-.249-.293l-.124-.147-.127-.145c-.085-.1-.168-.194-.255-.289l-.257-.286c-.086-.1-.176-.187-.262-.282l-.131-.141-.134-.138c-.09-.092-.177-.186-.267-.277-.182-.181-.361-.365-.548-.541a28.8,28.8,0,0,0-2.338-2.025,14.366,14.366,0,0,1,2.568,1.772c.1.085.2.168.3.256l.29.263c.1.089.189.179.283.27l.141.136.138.139c.092.093.183.186.273.28l.267.286c.045.047.088.1.131.145l.13.146.13.146.127.149c.084.1.169.2.251.3l.246.3c.16.206.322.41.475.621q.465.629.887,1.287t.793,1.344c.124.229.243.46.356.694.056.117.112.235.166.353s.105.238.153.359" transform="translate(-431.185 -1198.432)" fill="#899b1c"/>
            <path id="Trazado_995151" data-name="Trazado 995151" d="M561.493,1440.719s2.144.6,5.709-.712,5.012-7.654,10.117-8.289a26.276,26.276,0,0,0-9.362.9,9.422,9.422,0,0,0-6.465,8.1" transform="translate(-490.316 -1250.145)" fill="#93b226"/>
            <path id="Trazado_995152" data-name="Trazado 995152" d="M561.493,1452.588q.584-.562,1.183-1.1t1.212-1.058q.614-.519,1.244-1.015c.21-.166.422-.329.635-.49l.321-.24c.107-.08.216-.157.324-.236l.162-.118.164-.115c.109-.076.217-.155.328-.229l.33-.226c.11-.075.223-.146.334-.221l.167-.111.169-.107c.113-.071.225-.144.338-.215.229-.138.455-.281.687-.413a29.988,29.988,0,0,1,2.86-1.476,14.96,14.96,0,0,0-3.031,1.163c-.121.062-.243.121-.362.187l-.357.2c-.119.066-.235.135-.353.2l-.176.1-.173.107c-.115.071-.231.143-.345.217l-.341.224c-.057.037-.113.076-.168.115l-.167.116-.167.116-.165.119c-.109.081-.22.16-.328.242l-.324.247c-.212.169-.426.336-.633.512q-.624.522-1.212,1.084t-1.131,1.166c-.181.2-.359.406-.53.615-.086.1-.171.21-.254.316s-.165.214-.242.325" transform="translate(-490.316 -1262.014)" fill="#899b1c"/>
            <path id="Trazado_995153" data-name="Trazado 995153" d="M454.659,1460.863s-2.263.5-5.9-1.06-4.781-8.237-10.052-9.184a27.351,27.351,0,0,1,9.681,1.457,9.808,9.808,0,0,1,6.266,8.786" transform="translate(-383.098 -1266.718)" fill="#93b226"/>
            <path id="Trazado_995154" data-name="Trazado 995154" d="M492.472,1474.717q-.575-.618-1.168-1.21t-1.2-1.168q-.609-.573-1.236-1.125-.313-.276-.632-.545l-.32-.268c-.107-.089-.216-.175-.324-.263l-.161-.132-.164-.129c-.109-.085-.217-.174-.328-.257l-.331-.254c-.111-.084-.224-.165-.335-.248l-.167-.125-.17-.121c-.114-.08-.226-.163-.339-.242-.23-.156-.457-.317-.69-.468a31.215,31.215,0,0,0-2.89-1.695,15.551,15.551,0,0,1,3.085,1.379c.122.071.246.14.366.215l.361.223c.12.075.237.154.355.232l.177.117.174.121c.116.081.232.161.346.244l.341.251c.057.042.113.085.168.129l.167.13.167.13.165.133c.109.09.219.178.327.27l.322.275c.211.188.424.373.629.568q.619.578,1.2,1.195t1.111,1.275c.177.219.35.442.516.669.083.114.166.228.247.343s.159.232.234.352" transform="translate(-420.912 -1280.572)" fill="#899b1c"/>
            <path id="Trazado_995155" data-name="Trazado 995155" d="M563.134,1249.932a44.372,44.372,0,0,0-3.014,7.1h0c-.226.669-.453,1.379-.674,2.128-.019.066-.039.132-.06.2-.053.186-.108.375-.161.567-.33,1.171-.644,2.428-.925,3.76a56.99,56.99,0,0,0-.967,6.318q-.03.3-.057.609a.378.378,0,0,1,0,.038c0,.038-.006.076-.01.115a55.969,55.969,0,0,0,.008,9.406c.029.337.061.676.1,1.018,0,.036.009.072.013.109.014.133.028.266.043.4a53.939,53.939,0,0,0,1.091,6.258h-.691q-.318-1.36-.567-2.733c-.015-.081-.029-.164-.043-.245-.008-.041-.015-.081-.022-.123q-.242-1.38-.408-2.774-.224-1.839-.321-3.7-.106-2.05-.061-4.117,0-.112,0-.224c0-.037,0-.072,0-.109q.032-1.221.12-2.443a58.4,58.4,0,0,1,1.123-7.971c.018-.086.037-.174.056-.259.033-.152.066-.3.1-.454l.034-.153q.183-.8.379-1.568a50.7,50.7,0,0,1,4.337-11.487.332.332,0,0,1,.453-.123h0a.333.333,0,0,1,.122.455" transform="translate(-485.856 -1091.049)" fill="#899b1c"/>
            <path id="Trazado_995156" data-name="Trazado 995156" d="M1774.089,1290.026a8.35,8.35,0,0,1-3.825,2.832c-2.883,1.248-7.369-1.724-10.788.809a21.735,21.735,0,0,1,6.118-4.8,7.793,7.793,0,0,1,8.5,1.164" transform="translate(-1536.438 -1124.792)" fill="#93b226"/>
            <path id="Trazado_995157" data-name="Trazado 995157" d="M1802.634,1301.959q-.671,0-1.336.016c-.444.013-.887.031-1.33.058s-.884.06-1.324.1c-.22.02-.44.044-.66.068l-.329.039c-.11.013-.219.029-.328.044l-.164.022-.164.024c-.109.017-.219.031-.328.05l-.327.053c-.109.018-.217.04-.326.058l-.163.029-.162.032c-.108.022-.217.042-.325.064-.215.048-.432.091-.647.144a24.773,24.773,0,0,0-2.555.748,12.364,12.364,0,0,1,2.479-1.033c.108-.032.215-.066.323-.095l.326-.087c.109-.028.218-.053.327-.079l.164-.038.165-.035c.11-.023.22-.046.33-.067l.332-.06c.055-.01.111-.019.166-.027l.166-.026.167-.026.167-.023c.111-.014.223-.03.334-.042l.335-.037c.224-.02.447-.042.671-.055.448-.029.9-.044,1.344-.042s.9.018,1.343.053c.223.017.446.038.668.066.111.014.222.028.333.044s.221.034.331.056" transform="translate(-1564.983 -1136.726)" fill="#899b1c"/>
            <path id="Trazado_995158" data-name="Trazado 995158" d="M1878.139,1214.567a8.942,8.942,0,0,0,2.7-4.322c1.091-3.183-2.459-7.723-.043-11.586a23.278,23.278,0,0,0-4.616,6.936,8.346,8.346,0,0,0,1.957,8.972" transform="translate(-1637.835 -1046.712)" fill="#93b226"/>
            <path id="Trazado_995159" data-name="Trazado 995159" d="M1892.037,1246.253q-.06-.716-.094-1.428t-.05-1.425q-.013-.712,0-1.422c0-.237.01-.474.018-.71l.014-.355c0-.118.013-.236.019-.354l.009-.177.012-.177c.009-.118.015-.236.026-.354l.029-.354c.01-.118.024-.235.035-.353l.017-.177.021-.176c.015-.117.026-.235.042-.353.033-.234.061-.469.1-.7a26.536,26.536,0,0,1,.584-2.791,13.234,13.234,0,0,0-.894,2.733c-.025.118-.053.235-.074.353l-.065.355c-.021.119-.039.237-.057.356l-.027.178-.023.179c-.016.119-.031.239-.044.358l-.037.359c-.006.06-.011.12-.015.18l-.014.18-.014.18-.01.18c-.006.12-.013.24-.017.36l-.011.36c0,.24-.007.481,0,.721.007.48.029.96.068,1.439s.095.955.169,1.429c.037.237.078.473.126.708.024.117.049.235.075.351s.055.233.088.348" transform="translate(-1651.733 -1078.398)" fill="#899b1c"/>
            <path id="Trazado_995160" data-name="Trazado 995160" d="M1821.555,1352.731a9.417,9.417,0,0,1-4.465,2.978c-3.317,1.247-8.205-2.349-12.2.314a24.512,24.512,0,0,1,7.157-5.074,8.79,8.79,0,0,1,9.505,1.781" transform="translate(-1576.097 -1179.072)" fill="#93b226"/>
            <path id="Trazado_995161" data-name="Trazado 995161" d="M1854.506,1367.009q-.755-.042-1.506-.055c-.5-.01-1-.014-1.5-.009s-1,.019-1.5.042c-.249.011-.5.025-.747.041l-.373.026c-.124.009-.248.021-.372.031l-.186.015-.186.018c-.124.013-.248.023-.372.038l-.371.042c-.124.014-.247.033-.37.048l-.185.023-.185.028c-.123.019-.247.035-.37.054-.245.042-.492.079-.737.127a27.965,27.965,0,0,0-2.92.7,13.949,13.949,0,0,1,2.849-1.026c.123-.03.245-.063.37-.089l.371-.08c.124-.026.249-.048.373-.071l.187-.034.188-.03c.125-.02.25-.04.376-.057l.377-.05c.063-.009.126-.015.189-.022l.189-.02.189-.02.189-.016c.126-.01.252-.021.379-.029l.379-.023c.253-.01.506-.022.759-.024.506-.008,1.012,0,1.517.027s1.008.07,1.509.133c.25.032.5.068.749.111q.186.032.372.068c.124.026.247.051.369.082" transform="translate(-1609.049 -1193.35)" fill="#899b1c"/>
            <path id="Trazado_995162" data-name="Trazado 995162" d="M1939.382,1268.845s1.874-1.191,3.275-4.708-2.338-8.815.591-13.024a26.192,26.192,0,0,0-5.57,7.54,9.391,9.391,0,0,0,1.7,10.192" transform="translate(-1691.321 -1092.518)" fill="#93b226"/>
            <path id="Trazado_995163" data-name="Trazado 995163" d="M1954.321,1303.741q-.028-.807-.027-1.61t.022-1.6q.025-.8.076-1.6c.016-.266.037-.532.059-.8l.035-.4c.012-.133.028-.265.041-.4l.02-.2.023-.2c.016-.132.03-.265.048-.4l.052-.4c.018-.132.04-.263.059-.395l.029-.2.033-.2c.023-.131.043-.263.066-.394.05-.261.094-.524.151-.785a29.853,29.853,0,0,1,.81-3.1,14.894,14.894,0,0,0-1.156,3.022c-.034.131-.072.261-.1.393l-.093.4c-.03.132-.057.265-.084.4l-.041.2-.036.2c-.024.133-.048.266-.069.4l-.061.4c-.011.067-.019.134-.027.2l-.025.2-.025.2-.021.2c-.013.135-.028.269-.039.4l-.032.4c-.016.27-.034.54-.042.81-.019.54-.021,1.081,0,1.621s.054,1.079.111,1.615c.029.268.062.536.1.8.02.133.042.266.065.4s.049.265.08.4" transform="translate(-1706.26 -1127.413)" fill="#899b1c"/>
            <path id="Trazado_995164" data-name="Trazado 995164" d="M1858.046,1418.2s-1.481,1.772-5.3,2.743-8.779-3.6-13.517-1.15a27.257,27.257,0,0,1,8.532-4.728,9.772,9.772,0,0,1,10.285,3.135" transform="translate(-1606.081 -1235.305)" fill="#93b226"/>
            <path id="Trazado_995165" data-name="Trazado 995165" d="M1896.255,1435.031q-.829-.139-1.657-.246t-1.658-.194q-.829-.083-1.66-.138c-.277-.019-.554-.034-.831-.047l-.415-.017c-.138-.006-.277-.008-.416-.011l-.208-.006-.208,0c-.138,0-.277-.005-.415,0h-.416c-.138,0-.277.006-.415.007l-.208,0-.208.008c-.138.006-.277.008-.415.015-.276.016-.553.027-.83.049a31.038,31.038,0,0,0-3.312.417,15.5,15.5,0,0,1,3.274-.784c.14-.018.279-.039.419-.053l.42-.043c.14-.013.281-.023.421-.033l.211-.015.211-.01c.141-.007.281-.014.422-.017l.422-.009c.07,0,.141,0,.211,0h.422l.211.005c.141,0,.281.008.422.014l.422.021c.281.02.562.038.841.066q.84.08,1.673.216t1.652.333c.273.066.545.136.814.215.135.039.269.079.4.121s.267.087.4.136" transform="translate(-1644.29 -1252.134)" fill="#899b1c"/>
            <path id="Trazado_995166" data-name="Trazado 995166" d="M1990.677,1343.86s2.231-.9,4.419-4.366-.746-9.85,3.205-13.754a28.373,28.373,0,0,0-7.423,6.929,10.173,10.173,0,0,0-.2,11.192" transform="translate(-1736.943 -1157.684)" fill="#93b226"/>
            <path id="Trazado_995167" data-name="Trazado 995167" d="M2001.579,1377.8q.129-.866.289-1.72t.341-1.7q.184-.848.4-1.688c.07-.28.145-.559.221-.837l.116-.417c.039-.139.082-.277.122-.415l.061-.208.064-.207c.043-.137.084-.276.13-.412l.134-.411c.045-.137.095-.272.141-.409l.07-.2.074-.2c.05-.135.1-.272.148-.406.1-.269.2-.54.316-.806a32.36,32.36,0,0,1,1.477-3.146,16.153,16.153,0,0,0-1.829,2.99c-.062.133-.128.264-.187.4l-.177.4c-.058.135-.113.271-.168.406l-.083.2-.078.206c-.052.137-.1.274-.153.412l-.144.415c-.025.069-.047.139-.069.209l-.067.209-.067.21-.063.211c-.04.141-.083.281-.121.422l-.114.424c-.071.284-.143.568-.2.854q-.19.857-.324,1.725c-.088.578-.156,1.16-.2,1.742-.023.291-.04.583-.049.875,0,.146-.008.292-.009.438s0,.292.007.438" transform="translate(-1747.845 -1191.623)" fill="#899b1c"/>
            <path id="Trazado_995168" data-name="Trazado 995168" d="M1827.764,1290.284h-.709a55.724,55.724,0,0,0-5.107-13.718l-.2-.368c-.018-.034-.036-.067-.055-.1q-.253-.468-.513-.925a58.013,58.013,0,0,0-5.516-8.049l-.075-.091c-.009-.01-.016-.021-.026-.032q-.2-.243-.4-.482a59.134,59.134,0,0,0-4.542-4.841c-1.023-.975-2.03-1.865-3-2.672-.159-.132-.316-.262-.472-.389-.054-.046-.11-.09-.165-.133-.628-.511-1.237-.984-1.823-1.424a46.18,46.18,0,0,0-6.749-4.3.345.345,0,0,1-.162-.46s0,0,0,0a.344.344,0,0,1,.459-.16,52.574,52.574,0,0,1,10.453,7.28q.616.536,1.244,1.117l.119.11.351.328.2.19a60.506,60.506,0,0,1,5.645,6.163q.789.991,1.531,2.01l.066.091c.046.063.091.125.137.19q1.251,1.74,2.364,3.557,1.006,1.645,1.9,3.348.673,1.289,1.278,2.61c.019.039.038.078.055.119.037.079.072.157.108.234a56.849,56.849,0,0,1,3.6,10.8" transform="translate(-1570.271 -1093.379)" fill="#899b1c"/>
            <path id="Trazado_995169" data-name="Trazado 995169" d="M2160.564,196.9s-24.007-56.542-12.673-104.263c10.945-46.083,38.019-77.765,80.645-86.982s93.318-9.793,137.1,18.433,58.756,79.493,36.866,172.811Z" transform="translate(-1872.961 0.002)" fill="#fee7bd"/>
            <path id="Trazado_995170" data-name="Trazado 995170" d="M3138.65,82.255c8.874,1.05,9.725,1.9,10.775,10.775,1.05-8.873,1.9-9.725,10.775-10.775-8.874-1.05-9.725-1.9-10.775-10.775-1.05,8.873-1.9,9.725-10.775,10.775" transform="translate(-2740.783 -62.419)" fill="#f2d455"/>
            <path id="Trazado_995171" data-name="Trazado 995171" d="M3223.65,226.371c5.236.62,5.738,1.122,6.358,6.358.62-5.236,1.122-5.738,6.358-6.358-5.236-.619-5.738-1.122-6.358-6.358-.62,5.236-1.122,5.738-6.358,6.358" transform="translate(-2815.008 -192.123)" fill="#f2d455"/>
            <path id="Trazado_995172" data-name="Trazado 995172" d="M3173.5,323.5c2.618.31,2.869.561,3.179,3.179.31-2.618.561-2.869,3.179-3.179-2.618-.31-2.869-.561-3.179-3.179-.31,2.618-.561,2.869-3.179,3.179" transform="translate(-2771.211 -279.717)" fill="#f2d455"/>
            <path id="Trazado_995173" data-name="Trazado 995173" d="M3573.347,458.6c5.023.595,5.505,1.076,6.1,6.1.594-5.023,1.076-5.505,6.1-6.1-5.023-.595-5.505-1.076-6.1-6.1-.594,5.023-1.076,5.505-6.1,6.1" transform="translate(-3120.376 -395.138)" fill="#f2d455"/>
            <path id="Trazado_995174" data-name="Trazado 995174" d="M3621.467,540.183c2.964.351,3.248.635,3.6,3.6.351-2.964.635-3.248,3.6-3.6-2.964-.351-3.249-.635-3.6-3.6-.351,2.964-.635,3.248-3.6,3.6" transform="translate(-3162.396 -468.564)" fill="#f2d455"/>
            <path id="Trazado_995175" data-name="Trazado 995175" d="M3593.073,595.169c1.482.175,1.624.318,1.8,1.8.175-1.482.318-1.624,1.8-1.8-1.482-.175-1.624-.318-1.8-1.8-.175,1.482-.318,1.624-1.8,1.8" transform="translate(-3137.601 -518.151)" fill="#f2d455"/>
            <path id="Trazado_995176" data-name="Trazado 995176" d="M3306.354,617.777c-8.874,1.05-9.725,1.9-10.775,10.775-1.05-8.873-1.9-9.725-10.775-10.775,8.874-1.05,9.725-1.9,10.775-10.775,1.05,8.873,1.9,9.725,10.775,10.775" transform="translate(-2868.41 -530.056)" fill="#f2d455"/>
            <path id="Trazado_995177" data-name="Trazado 995177" d="M3282.209,761.892c-5.236.62-5.738,1.122-6.358,6.358-.62-5.236-1.122-5.738-6.358-6.358,5.236-.62,5.738-1.122,6.358-6.358.62,5.236,1.122,5.738,6.358,6.358" transform="translate(-2855.04 -659.759)" fill="#f2d455"/>
            <path id="Trazado_995178" data-name="Trazado 995178" d="M3376.162,859.023c-2.618.31-2.869.561-3.179,3.179-.31-2.618-.561-2.869-3.179-3.179,2.618-.31,2.869-.561,3.179-3.179.31,2.618.561,2.869,3.179,3.179" transform="translate(-2942.635 -747.354)" fill="#f2d455"/>
            <path id="Trazado_995179" data-name="Trazado 995179" d="M2239.836,926.566c-8.873,1.05-9.725,1.9-10.775,10.775-1.05-8.873-1.9-9.725-10.775-10.775,8.874-1.05,9.725-1.9,10.775-10.775,1.05,8.873,1.9,9.725,10.775,10.775" transform="translate(-1937.088 -799.701)" fill="#f2d455"/>
            <path id="Trazado_995180" data-name="Trazado 995180" d="M2215.691,1070.681c-5.236.62-5.738,1.122-6.358,6.358-.62-5.236-1.122-5.738-6.358-6.358,5.236-.62,5.738-1.122,6.358-6.358.62,5.236,1.122,5.738,6.358,6.358" transform="translate(-1923.718 -929.405)" fill="#f2d455"/>
            <path id="Trazado_995181" data-name="Trazado 995181" d="M2309.644,1167.812c-2.618.31-2.869.561-3.179,3.179-.31-2.618-.561-2.869-3.179-3.179,2.618-.31,2.869-.561,3.179-3.179.31,2.618.561,2.869,3.179,3.179" transform="translate(-2011.313 -1016.999)" fill="#f2d455"/>
            <path id="Trazado_995182" data-name="Trazado 995182" d="M3862.658,257.648c7.021.831,7.7,1.5,8.526,8.526.831-7.021,1.5-7.7,8.526-8.526-7.021-.831-7.7-1.5-8.526-8.526-.831,7.021-1.5,7.7-8.526,8.526" transform="translate(-3373.013 -217.542)" fill="#f2d455"/>
            <path id="Trazado_995183" data-name="Trazado 995183" d="M3929.917,371.684c4.143.49,4.541.888,5.031,5.031.49-4.143.888-4.541,5.031-5.031-4.143-.49-4.541-.888-5.031-5.031-.49,4.143-.888,4.541-5.031,5.031" transform="translate(-3431.746 -320.174)" fill="#f2d455"/>
            <path id="Trazado_995184" data-name="Trazado 995184" d="M3890.23,448.542c2.072.245,2.27.444,2.515,2.516.245-2.072.444-2.27,2.515-2.516-2.072-.245-2.27-.444-2.515-2.516-.245,2.072-.444,2.27-2.515,2.516" transform="translate(-3397.09 -389.486)" fill="#f2d455"/>
            <path id="Trazado_995185" data-name="Trazado 995185" d="M2427.268,107.011c-10.557-1.3-22.134-.12-28.614,17.165s-3.44,25.941-16.135,38.728-16.8,23.227-8.5,31.669,55.912,18.069,67.245,12.484,12.956-19.394,11.268-27.575-7.507-16.977-1.907-32.28,4.614-28.422-2.911-33.3-15.434-6.273-20.44-6.887" transform="translate(-2069.306 -93.114)"/>
            <path id="Trazado_995186" data-name="Trazado 995186" d="M2933.1,756.5c5.69,4.022,21.5,19.613,27.44,48.332s-40.494,1.311-42.743-6.7,15.3-41.628,15.3-41.628" transform="translate(-2547.754 -660.604)" fill="#f7b47b"/>
            <path id="Trazado_995187" data-name="Trazado 995187" d="M2555.379,732.375c-1.075,6.682-3.012,60.414-3.012,60.414H2485.31c.151-1.985.229-4.074.246-6.246.24-31.307-12.532-79.96-10.736-86.488,1.92-6.981,17.47-15.255,36.087-17.324s33.1,5.689,35.392,9.05,5.977,19.651,7.787,23.27a17.738,17.738,0,0,1,1.465,5.164,41.071,41.071,0,0,1-.172,12.159" transform="translate(-2160.951 -595.884)" fill="#cff878"/>
            <path id="Trazado_995188" data-name="Trazado 995188" d="M2628.833,992.968c-1.075,6.682-3.012,60.414-3.012,60.414h-67.058c.151-1.985.229-4.074.246-6.246,11.977,1.828,25.078,2.275,36.907-.738,33.277-8.475,33.178-62.3,33.089-65.59a41.071,41.071,0,0,1-.172,12.159" transform="translate(-2234.404 -856.478)" fill="#cff878"/>
            <path id="Trazado_995189" data-name="Trazado 995189" d="M2961.808,935.785a7.189,7.189,0,0,0-2.635-6.814c-3.547-3.033-33.8-17.026-33.8-17.026l-6.206,1.165,31.433,25.867Z" transform="translate(-2549.125 -796.342)" fill="#fff"/>
            <path id="Trazado_995190" data-name="Trazado 995190" d="M2878.928,926.189l-10.7,56.66-43.97-18.036,9.667-63.858Z" transform="translate(-2466.245 -786.747)" fill="#f2d455"/>
            <path id="Trazado_995191" data-name="Trazado 995191" d="M3255.528,1006.393a14.308,14.308,0,0,1,4.59-5.878c3.3-2.411,23.232-7.713,23.232-7.713l2.581,3.613-26.562,14.764Z" transform="translate(-2842.845 -866.95)" fill="#fff"/>
            <path id="Trazado_995192" data-name="Trazado 995192" d="M3214.742,1007.825l-12.649,58.253-30.973,10.094,10.7-56.66Z" transform="translate(-2769.137 -880.069)" fill="#e0c128"/>
            <path id="Trazado_995193" data-name="Trazado 995193" d="M2542.188,860.6a3.351,3.351,0,0,0-.631,2.757,7.6,7.6,0,0,1-1.463,3.3h0a17.847,17.847,0,0,1-7.327,6.525c-5.86,2.643-22.753,2.069-24.592,2.069s-14.306,4.481-26.718,8.963-23.1,6.033-28.268,5.343-10.86-3.447-12.584-12.41-6.722-46.886-6.377-57.917a20.2,20.2,0,0,1,2.212-9h0c2.374-4.435,6.072-6.272,8.131-6.167,10.055.517,12.518,4.709,15.341,20.628,2.872,16.2,1.838,39.53,3.907,40.449s37.52-.976,40.049-1.148,2.643-1.207,4.136-2.988,8.158-6.722,10.343-8.676,6.148-3.85,7.3-2.126-2.988,5.171-4.079,6.492-.574,1.207,4.251,1.265,9.941-4.253,11.32-5.172,2.528.345,2.988.919,1.666-.114,2.068.8-.574,3.16,0,3.276.633,2.126,0,2.815" transform="translate(-2125.639 -702.13)" fill="#f7b47b"/>
            <path id="Trazado_995194" data-name="Trazado 995194" d="M2540.093,909.178a17.847,17.847,0,0,1-7.327,6.525c-5.86,2.643-22.753,2.069-24.592,2.069s-14.306,4.481-26.718,8.964-23.1,6.033-28.268,5.343-10.86-3.447-12.584-12.41-6.722-46.886-6.377-57.917a20.2,20.2,0,0,1,2.212-9c-1.446,3.677-1.21,18.589,2.407,44.338s3.8,31.079,15.6,32.515,49.629-12.632,50.853-13.2-.245-5.786,1.222-3.585,1.966,4.456,10.423,4.468,16.636-.333,23.153-8.105" transform="translate(-2125.639 -744.651)" fill="#e59a61"/>
            <path id="Trazado_995195" data-name="Trazado 995195" d="M3203.5,1204.03a71.846,71.846,0,0,0,7.758-5.309c.264-.2.34-.453.169-.554a.828.828,0,0,0-.787.188,71.41,71.41,0,0,1-7.4,5.078,1.105,1.105,0,0,0-.295.218c-.12.128-.176.266-.132.367.071.165.377.17.683.011" transform="translate(-2796.802 -1046.245)" fill="#e59a61"/>
            <path id="Trazado_995196" data-name="Trazado 995196" d="M3216.7,1233.74a71.8,71.8,0,0,0,7.544-5.609c.256-.215.322-.466.147-.56a.827.827,0,0,0-.779.219,71.452,71.452,0,0,1-7.191,5.364,1.1,1.1,0,0,0-.286.23c-.115.133-.165.272-.117.372.077.162.383.155.683-.015" transform="translate(-2808.323 -1071.927)" fill="#e59a61"/>
            <path id="Trazado_995197" data-name="Trazado 995197" d="M3216.75,1269.205a71.824,71.824,0,0,0,7.014-6.26c.236-.237.279-.493.1-.571a.829.829,0,0,0-.757.288,71.442,71.442,0,0,1-6.684,5.985,1.1,1.1,0,0,0-.264.254.369.369,0,0,0-.084.381c.091.154.4.12.679-.076" transform="translate(-2808.367 -1102.331)" fill="#e59a61"/>
            <path id="Trazado_995198" data-name="Trazado 995198" d="M2672.832,579.5c4.652,1.843,6.115,2.211,12.188,2.582,6.105.373,6.822-.42,10.39-2.186,5.742-2.84-.339-6.295-.1-6.09-1.043-.916-1.08-2.413-1.429-5.406a47.042,47.042,0,0,1-.274-5.163l-19.463-4.465a24.514,24.514,0,0,1-.031,4.545c-.149,5.084-3.47,11.7-3.991,13.273-.5,1.519.083,1.866,2.716,2.909" transform="translate(-2331.498 -487.942)" fill="#f7b47b"/>
            <path id="Trazado_995199" data-name="Trazado 995199" d="M2702.73,563.32l0,0c5.927,5.8,15.458,5.551,19.766,5.081a47.1,47.1,0,0,1-.274-5.163l-19.463-4.465a24.514,24.514,0,0,1-.031,4.545" transform="translate(-2360.122 -487.942)" fill="#e0945c"/>
            <path id="Trazado_995200" data-name="Trazado 995200" d="M2650.969,238.529c-5.092.281-11.487,6-12.456,8.932s-1.839,5.646-2.648,4.331-4.919-2.16-6.064,1.845,1.3,7.8,3.811,9.967-.413,6.623,5.312,12.014c6.152,5.794,10.178,6.966,16.764,6.275,5.4-.566,11.594-4.115,14.488-14.471s2.9-18.867,1.243-23.595-9.646-12.289-10.653-11.451-5.587,5.921-9.8,6.153" transform="translate(-2296.184 -202.863)" fill="#f7b47b"/>
            <path id="Trazado_995201" data-name="Trazado 995201" d="M2776.613,403.3a2.394,2.394,0,0,1-2.618,2.135,2.454,2.454,0,0,1-1.609-3.009A2.394,2.394,0,0,1,2775,400.29a2.454,2.454,0,0,1,1.609,3.009" transform="translate(-2420.896 -349.514)"/>
            <path id="Trazado_995202" data-name="Trazado 995202" d="M2902.966,418.717a2.22,2.22,0,0,1-2.427,1.979,2.275,2.275,0,0,1-1.492-2.79,2.219,2.219,0,0,1,2.427-1.979,2.275,2.275,0,0,1,1.492,2.79" transform="translate(-2531.504 -363.172)"/>
            <path id="Trazado_995203" data-name="Trazado 995203" d="M2744.236,355.231a7.67,7.67,0,0,1,1.837-2.394,7.921,7.921,0,0,1,2.651-1.571,2.5,2.5,0,0,1,.37-.127l.375-.12.378-.123c.127-.031.256-.055.385-.083a5.637,5.637,0,0,1,.783-.1,6.354,6.354,0,0,1,.779.077c.128.024.257.043.384.071s.248.08.371.125c.245.089.487.185.721.3a5.08,5.08,0,0,1,1.266.962l-.06.19a7.718,7.718,0,0,1-1.478.228c-.233.035-.458.055-.68.069-.111.007-.22.007-.329.011l-.324.035a4.243,4.243,0,0,1-.638.011,6.092,6.092,0,0,1-.633-.01l-.322-.029-.32.009a3.972,3.972,0,0,0-.644.05l-.638.126-.626.194a7.913,7.913,0,0,0-1.228.53,8.427,8.427,0,0,0-2.216,1.679Z" transform="translate(-2396.366 -306.255)"/>
            <path id="Trazado_995204" data-name="Trazado 995204" d="M2903.439,372.7a6.681,6.681,0,0,0-1.065-2.377,6.907,6.907,0,0,0-1.906-1.856,2.19,2.19,0,0,0-.284-.182l-.29-.177-.292-.18c-.1-.052-.2-.1-.306-.148a4.878,4.878,0,0,0-.635-.245,5.453,5.453,0,0,0-.666-.1c-.112-.006-.224-.016-.335-.019s-.223.016-.335.028c-.222.024-.443.055-.66.1a4.307,4.307,0,0,0-1.247.544l.012.171a6.671,6.671,0,0,0,1.19.494c.188.077.372.14.555.2.091.029.182.051.273.077l.264.1a3.651,3.651,0,0,0,.531.14,5.261,5.261,0,0,0,.531.121l.275.042.265.073a3.4,3.4,0,0,1,.529.174l.508.236.485.291a6.887,6.887,0,0,1,.922.695,7.346,7.346,0,0,1,1.521,1.857Z" transform="translate(-2528.386 -320.842)"/>
            <path id="Trazado_995205" data-name="Trazado 995205" d="M2832.433,480.053a.655.655,0,0,1-.48-.716,2.235,2.235,0,0,1,1.9-1.936c.465-.14.635-.212.664-.336.185-.782-.645-2.982-1-3.921-.086-.228-.16-.425-.213-.577a.666.666,0,0,1,.38-.844.628.628,0,0,1,.815.391c.051.145.121.331.2.548.672,1.784,1.307,3.617,1.049,4.711a1.877,1.877,0,0,1-1.548,1.291c-.685.206-.93.323-.988.826a.643.643,0,0,1-.708.576.626.626,0,0,1-.075-.014" transform="translate(-2472.96 -411.89)" fill="#e89f69"/>
            <path id="Trazado_995206" data-name="Trazado 995206" d="M2780.988,543.524a9.825,9.825,0,0,0,5.545-.916.736.736,0,0,0,.311-.97.685.685,0,0,0-.936-.319,8.027,8.027,0,0,1-5.844.471,6.882,6.882,0,0,1-3.744-4.211.689.689,0,0,0-.91-.393.733.733,0,0,0-.383.943,8.222,8.222,0,0,0,4.555,5.018,6.986,6.986,0,0,0,1.406.378" transform="translate(-2423.208 -469.042)"/>
            <path id="Trazado_995207" data-name="Trazado 995207" d="M3594.382,1457.682h-76.2a1.39,1.39,0,0,0-1.39,1.39v9.342a1.39,1.39,0,0,0,1.39,1.391h76.2a1.39,1.39,0,0,0,1.39-1.391v-9.343a1.39,1.39,0,0,0-1.39-1.39" transform="translate(-3070.99 -1272.9)" fill="#899b1c"/>
            <rect id="Rectángulo_455020" data-name="Rectángulo 455020" width="6.195" height="12.123" transform="translate(450.883 184.782)" fill="#93b226"/>
            <rect id="Rectángulo_455021" data-name="Rectángulo 455021" width="36.549" height="12.123" transform="translate(467.018 184.782)" fill="#93b226"/>
            <rect id="Rectángulo_455022" data-name="Rectángulo 455022" width="6.195" height="12.123" transform="translate(513.194 184.782)" fill="#93b226"/>
            <path id="Trazado_995208" data-name="Trazado 995208" d="M3572.953,1362.044h-76.2a1.391,1.391,0,0,0-1.391,1.391v9.342a1.391,1.391,0,0,0,1.391,1.39h76.2a1.391,1.391,0,0,0,1.39-1.391v-9.342a1.39,1.39,0,0,0-1.39-1.391" transform="translate(-3052.278 -1189.386)" fill="#c1311a"/>
            <rect id="Rectángulo_455023" data-name="Rectángulo 455023" width="6.195" height="12.123" transform="translate(448.167 172.658)" fill="#de4e31"/>
            <rect id="Rectángulo_455024" data-name="Rectángulo 455024" width="36.549" height="12.123" transform="translate(464.301 172.658)" fill="#de4e31"/>
            <rect id="Rectángulo_455025" data-name="Rectángulo 455025" width="6.195" height="12.123" transform="translate(510.477 172.658)" fill="#de4e31"/>
            <path id="Trazado_995209" data-name="Trazado 995209" d="M3637.473,1266.406h-76.2a1.39,1.39,0,0,0-1.39,1.391v9.342a1.39,1.39,0,0,0,1.39,1.391h76.2a1.39,1.39,0,0,0,1.39-1.39V1267.8a1.39,1.39,0,0,0-1.39-1.391" transform="translate(-3108.619 -1105.871)" fill="#8ca98b"/>
            <rect id="Rectángulo_455026" data-name="Rectángulo 455026" width="6.195" height="12.123" transform="translate(456.346 160.535)" fill="#a6c5a5"/>
            <rect id="Rectángulo_455027" data-name="Rectángulo 455027" width="36.549" height="12.123" transform="translate(472.48 160.535)" fill="#a6c5a5"/>
            <rect id="Rectángulo_455028" data-name="Rectángulo 455028" width="6.195" height="12.123" transform="translate(518.656 160.535)" fill="#a6c5a5"/>
            <path id="Trazado_995210" data-name="Trazado 995210" d="M3501.806,760.419s-6.618.659-16.428-5.04-10.794-25.1-25.483-29.608a78.477,78.477,0,0,1,27.076,7.471c13.249,6.636,15.682,21.3,14.834,27.177" transform="translate(-3021.306 -633.769)" fill="#93b226"/>
            <path id="Trazado_995211" data-name="Trazado 995211" d="M3604.8,812.507q-1.426-1.956-2.913-3.846t-3.02-3.739q-1.539-1.842-3.136-3.628c-.531-.6-1.071-1.185-1.614-1.77l-.819-.873c-.273-.291-.554-.574-.831-.861l-.415-.431-.422-.424c-.283-.281-.559-.569-.847-.844l-.855-.837c-.286-.278-.582-.546-.869-.822l-.434-.412-.443-.4c-.3-.266-.586-.541-.884-.806-.6-.524-1.192-1.061-1.806-1.571a89.445,89.445,0,0,0-7.652-5.819,44.656,44.656,0,0,1,8.315,4.986c.323.245.653.482.968.737l.951.759c.315.256.623.519.932.782l.464.394.455.4c.3.27.606.54.9.815l.886.833c.148.138.292.281.436.424l.432.428.432.428.424.436c.279.294.563.583.839.88l.824.893c.537.607,1.079,1.209,1.6,1.832q1.566,1.858,3,3.815t2.726,4.013c.429.685.845,1.378,1.241,2.082q.3.528.584,1.062c.187.358.374.716.545,1.082" transform="translate(-3124.303 -685.857)" fill="#899b1c"/>
            <path id="Trazado_995212" data-name="Trazado 995212" d="M3936.822,799.793s5.245-.5,12-6.425,4.558-21.159,15.288-26.9a62.169,62.169,0,0,0-19.906,9.94c-9.285,7.18-8.938,18.951-7.382,23.388" transform="translate(-3437.035 -669.305)" fill="#93b226"/>
            <path id="Trazado_995213" data-name="Trazado 995213" d="M3942.658,856q.81-1.738,1.677-3.434t1.776-3.367q.915-1.667,1.884-3.3c.322-.545.652-1.084.984-1.622l.5-.8c.168-.268.344-.531.515-.8l.257-.4.263-.394c.177-.262.348-.528.53-.786l.537-.781c.18-.26.369-.513.55-.772l.274-.387.282-.38c.19-.252.373-.51.564-.762.387-.5.765-1.006,1.164-1.5a70.858,70.858,0,0,1,5.06-5.691,35.366,35.366,0,0,0-5.7,5.145c-.214.24-.434.474-.64.721l-.623.735c-.206.247-.405.5-.605.75l-.3.377-.292.383c-.194.256-.389.512-.578.771l-.562.783c-.095.13-.185.263-.274.4l-.27.4-.27.4-.263.4c-.172.271-.349.539-.518.812l-.5.82c-.325.554-.654,1.1-.962,1.668q-.933,1.683-1.753,3.424t-1.506,3.535c-.229.6-.447,1.2-.647,1.808-.1.3-.2.609-.292.914s-.181.614-.259.924" transform="translate(-3442.872 -725.511)" fill="#899b1c"/>
            <path id="Trazado_995214" data-name="Trazado 995214" d="M3776.9,496.09s-7.437-5.572-12.157-20.7,12.59-36.043,1.717-54.553c0,0,13.45,13.918,20.827,33.262s-3.968,36.745-10.387,41.994" transform="translate(-3286.778 -367.487)" fill="#93b226"/>
            <path id="Trazado_995215" data-name="Trazado 995215" d="M3851.357,646.99q.379-3.362.632-6.712c.175-2.235.319-4.469.422-6.7s.171-4.466.2-6.7c.016-1.116.016-2.231.01-3.346l-.02-1.672c-.007-.557-.029-1.114-.043-1.672l-.021-.836-.034-.835c-.026-.556-.039-1.114-.075-1.67l-.09-1.669c-.032-.556-.084-1.111-.118-1.667l-.057-.834-.076-.832c-.054-.554-.093-1.111-.149-1.665-.124-1.107-.226-2.218-.376-3.323a124.974,124.974,0,0,0-2.385-13.218,62.39,62.39,0,0,1,3.854,12.987c.1.557.217,1.113.3,1.673l.262,1.68c.083.561.151,1.123.222,1.685l.105.844.087.845c.057.564.114,1.128.16,1.692l.126,1.695c.022.282.036.565.049.848l.041.849.04.849.025.849c.01.566.029,1.132.032,1.7l.005,1.7c-.02,1.132-.03,2.264-.086,3.395q-.142,3.392-.508,6.766t-.982,6.707c-.205,1.111-.431,2.217-.688,3.317-.128.55-.26,1.1-.4,1.645s-.291,1.091-.46,1.629" transform="translate(-3361.238 -518.387)" fill="#899b1c"/>
            <path id="Trazado_995216" data-name="Trazado 995216" d="M3750.68,989.491l-7.493,35.1H3713.22l-7.491-35.1Z" transform="translate(-3235.977 -864.059)" fill="#f2d455"/>
            <path id="Trazado_995217" data-name="Trazado 995217" d="M3905.5,989.491l-7.493,35.1h-14.984v-35.1Z" transform="translate(-3390.795 -864.059)" fill="#e0c128"/>
            <path id="Trazado_995218" data-name="Trazado 995218" d="M4305.416,196.9s-24.007-56.542-12.673-104.263c10.944-46.083,38.018-77.765,80.645-86.982s93.318-9.793,137.1,18.433,58.756,79.493,36.866,172.811Z" transform="translate(-3745.924 0.002)" fill="#fee7bd"/>
            <path id="Trazado_995219" data-name="Trazado 995219" d="M5325.091,639.927c0,1.54-2.857,1.989-11.092,3.5-6.75,1.24-9.6.24-10.858-.83a3.372,3.372,0,0,1-.62-.691h0c-1.182-1.766-3.14-.524-2.8,5.892.395,7.562,10.587,57.1,10.587,57.1H5230.9a79.931,79.931,0,0,0,3.368-11.873c1.3-6.206,1.967-11.458,3.382-17.316,1.918-7.951,2.321-14.174,4.1-28.843a58.356,58.356,0,0,0,.161-14.694,2.859,2.859,0,0,0-1.208-.351c-4.054-.742-16.926-1.834-17.782-1.834-1.008,0,3.177-19.942,6.807-25.713,5-7.956,18.839-17.58,28.654-20,7.605-1.874,26.182-1.923,29.5-1.154,6.25,1.45,23.105,9.388,29.155,16.95s8.067,38.317,8.067,39.857" transform="translate(-4560.704 -508.792)" fill="#a6c5a5"/>
            <path id="Trazado_995220" data-name="Trazado 995220" d="M5287.56,91.916c-6.509-1.771-15.191-4.8-14.479-10.009s15.308-10.1,13.372-12.075.076-7.5,6.376-6.854,5.081,1.993,8.595.021,16.768-4.671,24.9,2.375,4.02,9.544,9.323,12.579,5.99,11.98,5.241,18.141c-1.192,9.812-10.284,18.408-14.589,19.128s-18.932-8.263-24.014-10.94-14.722-12.366-14.722-12.366" transform="translate(-4604.609 -53.094)"/>
            <path id="Trazado_995221" data-name="Trazado 995221" d="M5568.482,460.921c-2.994,1.686-9.456,2.563-12.225,1.754s-5.031-2.437-5.033-2.866l-.013-4.011s14.294-17.359,16.167-16.371a4.074,4.074,0,0,1,1.827,2.224c.4,1,.632,2.146.938,3.2.59,2.043,1.132,12.712,1.134,13.375s.2,1.012-2.8,2.7" transform="translate(-4847.519 -383.688)" fill="#f7b47b"/>
            <path id="Trazado_995222" data-name="Trazado 995222" d="M5569.206,441.651v0c-.732,5.566-4.939,10.692-7.965,13.507-2.727,2.535-6.765,4.459-10.016,4.437l-.013-3.8s14.294-17.359,16.167-16.371a4.073,4.073,0,0,1,1.827,2.224" transform="translate(-4847.519 -383.688)" fill="#e8a16b"/>
            <path id="Trazado_995223" data-name="Trazado 995223" d="M5389.819,242.515c2.7,7.215,7.755,13.411,12.9,15.264s14.345-2.567,18.724-8.825c4.3-6.148,5.355-11.935,6.211-12.016s5.761-.876,7.531-7.58-2.916-10.039-5.954-10.34-5.523,2.277-6.138,4.694-.293,5.493-.877,5.533-2.617-2.25-3.754-4.622a19.745,19.745,0,0,1-1.314-8.953c.185-3-.054-4.673-.52-4.049s-1.257,2.594-9.421,7.119S5392.5,223.52,5389,223.064s-3.186-.691-2.46,6.7c.6,6.144,1.693,8.495,3.284,12.754" transform="translate(-4703.311 -184.681)" fill="#f7b47b"/>
            <path id="Trazado_995224" data-name="Trazado 995224" d="M5551.8,359.636a2.366,2.366,0,0,0,2.786,1.84,2.425,2.425,0,0,0,1.284-3.119,2.366,2.366,0,0,0-2.786-1.84,2.425,2.425,0,0,0-1.284,3.119" transform="translate(-4847.917 -311.252)"/>
            <path id="Trazado_995225" data-name="Trazado 995225" d="M5431.093,387.206a2.193,2.193,0,0,0,2.583,1.706,2.248,2.248,0,0,0,1.191-2.892,2.194,2.194,0,0,0-2.583-1.706,2.248,2.248,0,0,0-1.191,2.892" transform="translate(-4742.518 -335.53)"/>
            <path id="Trazado_995226" data-name="Trazado 995226" d="M5538.044,312.214a7.573,7.573,0,0,0-2.044-2.173,7.828,7.828,0,0,0-2.762-1.282,2.485,2.485,0,0,0-.376-.088l-.381-.08-.384-.083c-.129-.018-.258-.029-.387-.043a5.552,5.552,0,0,0-.78-.022,6.267,6.267,0,0,0-.758.152c-.124.036-.249.068-.37.108s-.237.1-.353.159c-.232.112-.46.23-.68.362a5.015,5.015,0,0,0-1.149,1.072l.077.181a7.624,7.624,0,0,0,1.477.078c.232.011.456.009.675,0,.11,0,.217-.014.325-.021l.322,0a4.17,4.17,0,0,0,.629-.052,6.041,6.041,0,0,0,.621-.073l.314-.06.315-.023a3.906,3.906,0,0,1,.639-.015l.64.061.635.129a7.841,7.841,0,0,1,1.261.4,8.33,8.33,0,0,1,2.345,1.431Z" transform="translate(-4826.918 -269.336)"/>
            <path id="Trazado_995227" data-name="Trazado 995227" d="M5401.208,342.078a6.593,6.593,0,0,1,.812-2.443,6.818,6.818,0,0,1,1.691-2.014,2.106,2.106,0,0,1,.261-.207l.268-.2.269-.206c.094-.061.19-.117.286-.176a4.814,4.814,0,0,1,.6-.3,5.4,5.4,0,0,1,.646-.16c.11-.017.218-.038.328-.052s.221-.007.332-.005c.221,0,.441.01.659.032a4.261,4.261,0,0,1,1.28.412l0,.169a6.6,6.6,0,0,1-1.122.6c-.177.094-.352.175-.526.249-.087.038-.174.069-.261.1l-.25.121a3.6,3.6,0,0,1-.508.191,5.165,5.165,0,0,1-.509.172l-.267.068-.253.1a3.369,3.369,0,0,0-.5.223l-.477.283-.448.334a6.818,6.818,0,0,0-.838.775,7.255,7.255,0,0,0-1.312,1.977Z" transform="translate(-4716.53 -293.675)"/>
            <path id="Trazado_995228" data-name="Trazado 995228" d="M5509.6,440.447a.647.647,0,0,0,.4-.752,2.209,2.209,0,0,0-2.06-1.716c-.471-.092-.646-.145-.687-.264-.259-.751.339-3,.594-3.955.062-.233.115-.434.153-.588a.659.659,0,0,0-.458-.793.621.621,0,0,0-.763.465c-.036.147-.086.338-.146.559-.484,1.821-.928,3.687-.565,4.737a1.856,1.856,0,0,0,1.65,1.116c.694.135.946.226,1.054.714a.624.624,0,0,0,.826.476" transform="translate(-4807.982 -377.55)" fill="#e89f69"/>
            <path id="Trazado_995229" data-name="Trazado 995229" d="M5511.636,496.915a9.712,9.712,0,0,1-5.544-.352.727.727,0,0,1-.4-.923.677.677,0,0,1,.889-.407,7.933,7.933,0,0,0,5.793-.116,6.8,6.8,0,0,0,3.266-4.512.681.681,0,0,1,.856-.477.725.725,0,0,1,.47.889,8.128,8.128,0,0,1-3.983,5.386,6.917,6.917,0,0,1-1.345.511" transform="translate(-4807.729 -427.971)"/>
            <path id="Trazado_995230" data-name="Trazado 995230" d="M5365.285,772.418a146.538,146.538,0,0,0,.161-14.694,2.864,2.864,0,0,0-1.208-.351c3.3-22.794,5.816-37.72,6.15-27.837.3,8.879-2.127,30.923-5.1,42.882" transform="translate(-4684.247 -634.347)" fill="#8ca98b"/>
            <path id="Trazado_995231" data-name="Trazado 995231" d="M5366.343,864.439h-79.406s1.449-4.845,3.368-11.873c13.071,3.458,30.5,5.859,44.969,4.352,25.117-2.617,20.844-31.135,19.449-45.613s-1.919-37.5,0-45,1.744,31.919,3.837,35.147c-1.182-1.766-3.14-.524-2.8,5.892.395,7.562,10.587,57.1,10.587,57.1" transform="translate(-4616.745 -668.336)" fill="#8ca98b"/>
            <path id="Trazado_995232" data-name="Trazado 995232" d="M5060.835,726.01s-2.527-3.96-3.561-4.21-16.378,3.514-25.056,7.853-18.7,13.724-18.7,13.724-2.008-7.293-12.731-11.446-23.75-5.623-24.866-4.854-.806,2.429.046,3.538,17.811,25.141,36.946,26.053,26.442,7.546,32.958-5.148,14.961-25.509,14.961-25.509" transform="translate(-4344.527 -630.291)" fill="#efefef"/>
            <path id="Trazado_995233" data-name="Trazado 995233" d="M5319.174,819.963s16.492-17.1,41.908-18.706l-17.656-51.724s-27.181,1.666-45.025,21.01Z" transform="translate(-4626.755 -654.519)" fill="#93b226"/>
            <path id="Trazado_995234" data-name="Trazado 995234" d="M5254.725,915.618l5.537-.342,20.773,49.42-6.805.575Z" transform="translate(-4588.616 -799.252)" fill="#899b1c"/>
            <path id="Trazado_995235" data-name="Trazado 995235" d="M4962.662,780.02s33.946.545,37.023,17.487l19.5,49.653s-8.871-16.653-28.8-14.462Z" transform="translate(-4333.576 -681.141)" fill="#93b226"/>
            <path id="Trazado_995236" data-name="Trazado 995236" d="M5041.086,894.36c3.753-1.809,6.737-2.622,7.458-1.967s-.359,2.385-1.248,2.768-5.657,2.683-3.408,2.645,7.5-2.687,8.6-1.757-1.861,3.383-3.99,4.23-4.73,2.144-2.545,1.957,7.508-2.585,8.053-.994-3.808,3.959-5.158,4.33-2.75,1.361-1.581,1.261,5.33-1.12,5.362.464-4.075,3.828-7.709,3.831-2.182-1.58-2.827-2.241-1.6-.81-1.707-2,.292-2.277-.375-2.6-1.6-1.041-1.526-1.994.22-2.4-.232-2.514-2.016-1.645-.989-2.807a13.663,13.663,0,0,1,3.821-2.6" transform="translate(-4398.423 -779.073)" fill="#f7b47b"/>
            <path id="Trazado_995237" data-name="Trazado 995237" d="M5053.778,938.587a.238.238,0,0,1-.173-.42,14.79,14.79,0,0,1,3.247-1.609.238.238,0,0,1,.163.447,14.7,14.7,0,0,0-3.1,1.526.238.238,0,0,1-.132.055" transform="translate(-4412.917 -817.824)" fill="#e59a61"/>
            <path id="Trazado_995238" data-name="Trazado 995238" d="M5068.148,974.507a.238.238,0,0,1-.173-.42,14.793,14.793,0,0,1,3.247-1.609.238.238,0,0,1,.163.447,14.731,14.731,0,0,0-3.1,1.526.238.238,0,0,1-.132.055" transform="translate(-4425.464 -849.191)" fill="#e59a61"/>
            <path id="Trazado_995239" data-name="Trazado 995239" d="M5083.232,1009.356a.238.238,0,0,1-.173-.42,14.8,14.8,0,0,1,3.247-1.609.238.238,0,0,1,.163.447,14.716,14.716,0,0,0-3.1,1.526.235.235,0,0,1-.132.055" transform="translate(-4438.637 -879.622)" fill="#e59a61"/>
            <path id="Trazado_995240" data-name="Trazado 995240" d="M5413.96,1029.266c-8.013-.431-35.073-5.491-39.85-4.837s-9.2.736-12.3,1.761c-.534.178-1.135.388-1.77.6l-.009,0c-3.045,1.055-6.92,2.4-8.548,2.152-1.972-.3-3.491-1.406-1.509-2.679s8.371-3.918,6.234-4.217-7.319,1.252-10.347.343c-.157-.047-.308-.1-.45-.158-2.583-1.03-2.539-3.525.781-3.914,2.386-.278,5.83.16,8.059.142,1.043-.01,1.819-.118,2.1-.446a.389.389,0,0,0,.045-.516c-.525-.766-3.635-1.31-6.172-1.346a20.03,20.03,0,0,1-8.553-2.59c-1.654-.948-2.779-4.254,1.455-3.886s13.195,3.814,14.462,2.748-1.68-2.764-4.674-3.607-7.931-2.25-8.365-5.161,7.073-.686,11.823,1.477,8.823,2.859,9.931,2.287.126-2.788-1.076-4.312-1.335-4.176.983-4.635,3.856,1.389,5.736,4.543c.949,1.594,2.091,3.722,3.362,5.5,1.241,1.74,2.608,3.141,4.038,3.382,2.89.484,25.677.071,27.715-.041.647-.036,1.6-2.8,1.805-5.03,4.865-.526,11-1.529,15.186-2.284,1.237-.224,2.239-.419,2.886-.562a78.515,78.515,0,0,1-1.207,9.7c-1.536,7.928-5.941,15.894-11.77,15.584" transform="translate(-4663.246 -871.848)" fill="#f7b47b"/>
            <path id="Trazado_995241" data-name="Trazado 995241" d="M5550.722,1067.672c-8.013-.431-35.073-5.491-39.85-4.837s-9.2.736-12.3,1.761c-.534.178-1.135.388-1.77.6.344-.132,10.612-4.066,14.581-4.27,4.033-.2,31.318,3.646,39.352,3.772,4.687.075,9.219-11.767,10.077-21.75,1.237-.224,2.239-.419,2.886-.562a78.515,78.515,0,0,1-1.207,9.7c-1.536,7.928-5.941,15.894-11.77,15.584" transform="translate(-4800.008 -910.254)" fill="#e8a16b"/>
            <path id="Trazado_995242" data-name="Trazado 995242" d="M4704.668,1241.359l-41.869,7.336,35.22,2.108Z" transform="translate(-4071.725 -1083.999)" fill="#93b226"/>
            <path id="Trazado_995243" data-name="Trazado 995243" d="M4902.549,1356.7l-5.217-.933,1.874-2.009Z" transform="translate(-4276.527 -1182.152)" fill="#899b1c"/>
            <path id="Trazado_995244" data-name="Trazado 995244" d="M4694.4,1306.143l-2.578,14.866L4662.8,1299.23Z" transform="translate(-4071.726 -1134.535)" fill="#93b226"/>
            <path id="Trazado_995245" data-name="Trazado 995245" d="M4697.747,1309.085l.272-7.746-35.22-2.108,31.6,6.912Z" transform="translate(-4071.726 -1134.535)" fill="#798412"/>
            <path id="Trazado_995246" data-name="Trazado 995246" d="M4638.768,234.661l-36.043,13.559,31.709-4.036Z" transform="translate(-4019.266 -204.914)" fill="#93b226"/>
            <path id="Trazado_995247" data-name="Trazado 995247" d="M4828.137,350.379l-4.8.045,1.331-2.1Z" transform="translate(-4211.911 -304.166)" fill="#899b1c"/>
            <path id="Trazado_995248" data-name="Trazado 995248" d="M4632.02,342.475l.2,13.668-29.5-14.516Z" transform="translate(-4019.265 -298.32)" fill="#93b226"/>
            <path id="Trazado_995249" data-name="Trazado 995249" d="M4635.491,316.731l-1.057-6.942-31.709,4.036,29.3.849Z" transform="translate(-4019.265 -270.519)" fill="#798412"/>
            <path id="Trazado_995250" data-name="Trazado 995250" d="M5969.079,408.922l-38.171-5.09,29.85,11.434Z" transform="translate(-5179.084 -352.64)" fill="#93b226"/>
            <path id="Trazado_995251" data-name="Trazado 995251" d="M6118.556,522.439l-4.252-2.23,2.167-1.224Z" transform="translate(-5339.231 -453.196)" fill="#899b1c"/>
            <path id="Trazado_995252" data-name="Trazado 995252" d="M5956.322,418.429l-6.284,12.139-19.131-26.736Z" transform="translate(-5179.083 -352.64)" fill="#93b226"/>
            <path id="Trazado_995253" data-name="Trazado 995253" d="M5958.408,421.883l2.35-6.617-29.85-11.434,25.414,14.6Z" transform="translate(-5179.084 -352.64)" fill="#798412"/>
            <path id="Trazado_995254" data-name="Trazado 995254" d="M5043.84,398.457s2.021-10.948-1.142-19.8-10.063-15.866-14.271-17.435-7.5,1.706-8.123,4.549-.761,5,2.485,7.756,4.26.468,12.787,9.289,8.263,15.641,8.263,15.641" transform="translate(-4383.604 -315.076)" fill="#93b226"/>
            <path id="Trazado_995255" data-name="Trazado 995255" d="M5008.119,549.715a23.877,23.877,0,0,0-12.395-12.97c-9.573-4.356-10.47.144-11.051,2.292a4.333,4.333,0,0,0,3.767,5.024c2.418.166,5.475-.724,10.12.859a50.586,50.586,0,0,1,9.559,4.795" transform="translate(-4352.706 -467.105)" fill="#a6c5a5"/>
            <path id="Trazado_995256" data-name="Trazado 995256" d="M5227.947,475.684a18.674,18.674,0,0,0,5.711-12.272c.437-7.725-4.64-7.054-6.236-5.479-1.406,1.388-1.705,2.9-.271,5.307,1.4,2.353,1.654,7.215.8,12.443" transform="translate(-4563.717 -399.01)" fill="#f2d455"/>
            <path id="Trazado_995257" data-name="Trazado 995257" d="M6114.493,836.443s.723-9.493,5.273-16.12,11.789-10.918,15.61-11.3a5.29,5.29,0,0,1,5.721,5.536c-.11,2.486-.465,4.3-3.75,5.869s-3.624-.545-12.6,4.885-10.251,11.126-10.251,11.126" transform="translate(-5339.397 -706.446)" fill="#93b226"/>
            <path id="Trazado_995258" data-name="Trazado 995258" d="M6147.275,971.258a20.419,20.419,0,0,1,13.083-8.014c8.867-1.509,8.625,2.408,8.636,4.311a3.706,3.706,0,0,1-4.212,3.33c-2.036-.391-4.368-1.8-8.555-1.5a43.264,43.264,0,0,0-8.952,1.875" transform="translate(-5368.023 -840.844)" fill="#a6c5a5"/>
            <path id="Trazado_995259" data-name="Trazado 995259" d="M6083.818,864.273a15.969,15.969,0,0,1-2.04-11.395c1.328-6.483,5.378-4.818,6.354-3.167.859,1.454.775,2.772-.936,4.447-1.675,1.639-2.945,5.6-3.378,10.114" transform="translate(-5310.559 -740.694)" fill="#f2d455"/>
            <path id="Trazado_995260" data-name="Trazado 995260" d="M4516.632,840.431s-9.994-8.361-20.836-10.233-21.962,1.124-25.983,4.508-2.582,8.63-.04,10.9,4.662,3.656,9.334,1.931,2.929-4.072,16.828-7.685,20.7.582,20.7.582" transform="translate(-3901.012 -724.455)" fill="#93b226"/>
            <path id="Trazado_995261" data-name="Trazado 995261" d="M4643.782,948.258a27.947,27.947,0,0,0-20.353,5.167c-9.95,7.249-5.879,10.753-4.025,12.582s5.727,1.422,7.288-.947,2.414-6,6.7-9.82a59.2,59.2,0,0,1,10.389-6.982" transform="translate(-4031.723 -827.81)" fill="#a6c5a5"/>
            <path id="Trazado_995262" data-name="Trazado 995262" d="M4693.148,750.149a21.856,21.856,0,0,0-9.219-12.885c-7.622-4.892-9.86.668-9.174,3.2.6,2.232,1.977,3.408,5.253,3.331,3.207-.076,8.305,2.467,13.139,6.352" transform="translate(-4082.064 -642.104)" fill="#f2d455"/>
          </g>
        </g>
      </g>
    </g>
  </g>
</svg>
