<svg xmlns="http://www.w3.org/2000/svg" width="150" height="150" viewBox="0 0 150 150">
  <g id="Grupo_1192585" data-name="Grupo 1192585" transform="translate(-72.746 -7991.863)">
    <g id="Elipse_13628" data-name="Elipse 13628" transform="translate(72.746 7991.863)" fill="#fff7e2" stroke="#cff878" stroke-width="6">
      <circle cx="75" cy="75" r="75" stroke="none"/>
      <circle cx="75" cy="75" r="72" fill="none"/>
    </g>
    <g id="Grupo_1193411" data-name="Grupo 1193411" transform="translate(105.09 8022.059)">
      <g id="Grupo_1193409" data-name="Grupo 1193409" transform="translate(1.271 13.7)">
        <path id="Trazado_1007229" data-name="Trazado 1007229" d="M282.688,148.094l-.033,0h-39.05v58.781a.667.667,0,0,0,.573-.336,4.175,4.175,0,0,1,3.605-2.066h34.872l.033,0Z" transform="translate(-203.589 -134.924)" fill="#0078c8"/>
        <g id="Grupo_1193407" data-name="Grupo 1193407" transform="translate(71.877 13.168)">
          <path id="Trazado_1007230" data-name="Trazado 1007230" d="M438.784,148.092H431.6a.966.966,0,0,1,.966.966V203.5a.966.966,0,0,1-.966.966h7.188a.966.966,0,0,0,.966-.966V149.058A.966.966,0,0,0,438.784,148.092Z" transform="translate(-431.596 -148.092)" fill="#0268b4"/>
        </g>
        <path id="Trazado_1007231" data-name="Trazado 1007231" d="M276.855,129.239H246.02a2.415,2.415,0,0,0-2.415,2.415v51.969H244a2.412,2.412,0,0,1,2.024-1.1h30.835Z" transform="translate(-203.589 -119.267)" fill="#d5e3f4"/>
        <path id="Trazado_1007232" data-name="Trazado 1007232" d="M47.516,206.873V148.092H8.466a.966.966,0,0,0-.966.966V203.5a.966.966,0,0,0,.966.966H43.338a4.175,4.175,0,0,1,3.605,2.066.666.666,0,0,0,.573.336Z" transform="translate(-7.5 -134.924)" fill="#0268b4"/>
        <path id="Trazado_1007233" data-name="Trazado 1007233" d="M306.405,338.646h-17a1.312,1.312,0,0,1-1.312-1.312V324.587a1.312,1.312,0,0,1,1.312-1.312h17a1.312,1.312,0,0,1,1.312,1.312v12.747A1.312,1.312,0,0,1,306.405,338.646Z" transform="translate(-240.541 -280.417)" fill="#f47c7c"/>
        <path id="Trazado_1007234" data-name="Trazado 1007234" d="M73.164,183.624h.392V131.654a2.415,2.415,0,0,0-2.415-2.415H39.981a1.127,1.127,0,0,0-1.127,1.127V181.4a1.127,1.127,0,0,0,1.127,1.127H71.14a2.412,2.412,0,0,1,2.024,1.1Z" transform="translate(-33.54 -119.267)" fill="#b3dafe"/>
        <path id="Trazado_1007235" data-name="Trazado 1007235" d="M155.584,292.12v9.373l5.567-3.92a.937.937,0,0,0,0-1.533Z" transform="translate(-130.486 -254.542)" fill="#e5eef9"/>
        <g id="Grupo_1193408" data-name="Grupo 1193408" transform="translate(67.84 9.972)">
          <path id="Trazado_1007236" data-name="Trazado 1007236" d="M413.526,129.239h-5.751a1.127,1.127,0,0,1,1.127,1.127V181.4a1.127,1.127,0,0,1-1.127,1.127h5.751a1.127,1.127,0,0,0,1.127-1.127V130.366A1.127,1.127,0,0,0,413.526,129.239Z" transform="translate(-407.775 -129.239)" fill="#b3dafe"/>
        </g>
        <path id="Trazado_1007237" data-name="Trazado 1007237" d="M330.539,93.522h9.444a12.9,12.9,0,0,1,2.983-4.887,10.747,10.747,0,1,0-15.408,0,12.891,12.891,0,0,1,2.981,4.885Z" transform="translate(-270.786 -70.399)" fill="#fdb97e"/>
        <path id="Trazado_1007238" data-name="Trazado 1007238" d="M360.063,206.83h9.444V210.7a4.722,4.722,0,1,1-9.444,0Z" transform="translate(-300.31 -183.707)" fill="#678d98"/>
        <path id="Trazado_1007239" data-name="Trazado 1007239" d="M386.894,80.68a10.751,10.751,0,0,0-13.139-10.009,10.743,10.743,0,0,1,5.314,17.966,12.9,12.9,0,0,0-2.983,4.887h4.792a12.9,12.9,0,0,1,2.983-4.887A10.709,10.709,0,0,0,386.894,80.68Z" transform="translate(-311.681 -70.4)" fill="#fea95c"/>
        <path id="Trazado_1007240" data-name="Trazado 1007240" d="M376.113,206.83V210.7a4.719,4.719,0,0,1-2.326,4.069,4.722,4.722,0,0,0,7.118-4.069V206.83Z" transform="translate(-311.708 -183.707)" fill="#537983"/>
        <path id="Trazado_1007241" data-name="Trazado 1007241" d="M155.584,292.12v9.373l5.567-3.92a.937.937,0,0,0,0-1.533Z" transform="translate(-130.486 -254.542)" fill="#f9c6c6"/>
        <path id="Trazado_1007242" data-name="Trazado 1007242" d="M161.15,297.573a.937.937,0,0,0,0-1.533l-5.567-3.92v4.313l3.593,2.53Z" transform="translate(-130.486 -254.542)" fill="#f9b1b1"/>
        <path id="Trazado_1007243" data-name="Trazado 1007243" d="M9,292.079a1.5,1.5,0,0,0-1.5,1.5v4.32A1.5,1.5,0,0,1,9,296.4h5.977v-4.32Z" transform="translate(-7.5 -254.508)" fill="#e94444"/>
        <path id="Trazado_1007244" data-name="Trazado 1007244" d="M51.614,297.776H69.235v8.414H51.614Z" transform="translate(-44.137 -259.24)" fill="#d83131"/>
        <path id="Trazado_1007245" data-name="Trazado 1007245" d="M7.5,299.276v5.415a1.5,1.5,0,0,0,1.5,1.5h5.977v-8.414H9A1.5,1.5,0,0,0,7.5,299.276Z" transform="translate(-7.5 -259.24)" fill="#f47c7c"/>
        <path id="Trazado_1007246" data-name="Trazado 1007246" d="M51.614,292.12H69.235v4.313H51.614Z" transform="translate(-44.137 -254.542)" fill="#ca2c2c"/>
        <path id="Trazado_1007247" data-name="Trazado 1007247" d="M7.5,293.62v4.313a1.5,1.5,0,0,1,1.5-1.5h5.977V292.12H9A1.5,1.5,0,0,0,7.5,293.62Z" transform="translate(-7.5 -254.542)" fill="#ee6161"/>
      </g>
      <g id="Grupo_1193410" data-name="Grupo 1193410" transform="translate(0 2.129)">
        <path id="Trazado_1007248" data-name="Trazado 1007248" d="M279.549,281.712h20.183a1.406,1.406,0,0,0,0-2.812H279.549a1.406,1.406,0,0,0,0,2.812Z" transform="translate(-231.003 -231.992)"/>
        <path id="Trazado_1007249" data-name="Trazado 1007249" d="M300.177,315.774h-17a2.586,2.586,0,0,0-2.583,2.583V331.1a2.586,2.586,0,0,0,2.583,2.583h17a2.586,2.586,0,0,0,2.583-2.583V318.357A2.586,2.586,0,0,0,300.177,315.774Zm.041,15.331a.041.041,0,0,1-.041.041h-17a.041.041,0,0,1-.041-.041V318.357a.041.041,0,0,1,.041-.041h17a.041.041,0,0,1,.041.041V331.1Z" transform="translate(-233.041 -262.617)"/>
        <path id="Trazado_1007250" data-name="Trazado 1007250" d="M381.7,8.417a1.271,1.271,0,0,0,1.271-1.271V3.4a1.271,1.271,0,1,0-2.542,0V7.145A1.271,1.271,0,0,0,381.7,8.417Z" transform="translate(-315.951 -2.129)"/>
        <path id="Trazado_1007251" data-name="Trazado 1007251" d="M315.964,28.131a1.271,1.271,0,1,0,1.8-1.8l-2.648-2.648a1.271,1.271,0,1,0-1.8,1.8Z" transform="translate(-259.905 -19.723)"/>
        <path id="Trazado_1007252" data-name="Trazado 1007252" d="M433.555,28.5a1.267,1.267,0,0,0,.9-.372l2.648-2.648a1.271,1.271,0,0,0-1.8-1.8l-2.648,2.648a1.271,1.271,0,0,0,.9,2.17Z" transform="translate(-359.019 -19.724)"/>
        <path id="Trazado_1007253" data-name="Trazado 1007253" d="M472.437,82.627h-3.745a1.271,1.271,0,1,0,0,2.542h3.745a1.271,1.271,0,1,0,0-2.542Z" transform="translate(-388.201 -68.984)"/>
        <path id="Trazado_1007254" data-name="Trazado 1007254" d="M272.6,85.169h3.745a1.271,1.271,0,1,0,0-2.542H272.6a1.271,1.271,0,1,0,0,2.542Z" transform="translate(-225.346 -68.984)"/>
        <path id="Trazado_1007255" data-name="Trazado 1007255" d="M74.8,168.841H94.981a1.406,1.406,0,0,0,0-2.812H74.8a1.406,1.406,0,0,0,0,2.812Z" transform="translate(-60.953 -138.251)"/>
        <path id="Trazado_1007256" data-name="Trazado 1007256" d="M74.8,206.466H94.981a1.406,1.406,0,0,0,0-2.812H74.8a1.406,1.406,0,1,0,0,2.812Z" transform="translate(-60.953 -169.499)"/>
        <path id="Trazado_1007257" data-name="Trazado 1007257" d="M96.387,242.682a1.406,1.406,0,0,0-1.406-1.406H74.8a1.406,1.406,0,0,0,0,2.812H94.981A1.406,1.406,0,0,0,96.387,242.682Z" transform="translate(-60.953 -200.745)"/>
        <path id="Trazado_1007258" data-name="Trazado 1007258" d="M74.8,385.176H94.981a1.406,1.406,0,0,0,0-2.812H74.8a1.406,1.406,0,0,0,0,2.812Z" transform="translate(-60.953 -317.921)"/>
        <path id="Trazado_1007259" data-name="Trazado 1007259" d="M79.274,76.068H77.71q.054-.57.055-1.149a11.935,11.935,0,0,0-1.917-6.491,1.271,1.271,0,1,0-2.135,1.38,9.419,9.419,0,0,1,1.064,7.981,10.617,10.617,0,0,1-2.653,4.182l-.069.077a14.331,14.331,0,0,0-2.468,3.976H61.905a14.328,14.328,0,0,0-2.952-4.5,9.473,9.473,0,0,1,6.793-16.079q.186,0,.374.007a9.293,9.293,0,0,1,3.72.93,1.271,1.271,0,0,0,1.108-2.288,11.824,11.824,0,0,0-4.731-1.182,12.041,12.041,0,0,0-12.311,9.963H43.7a3.67,3.67,0,0,0-2.415.905,3.67,3.67,0,0,0-2.415-.905H7.712a2.4,2.4,0,0,0-2.4,2.4v.8H3.3a3.3,3.3,0,0,0-3.3,3.3V113.6a1.271,1.271,0,1,0,2.542,0v-1.213q.113.009.229.009H5.314c0,15.026-.022,14.049.049,14.392a2.4,2.4,0,0,0,2.35,1.916H38.871c.713,0,.92.531,1.144.746v3.844a5.451,5.451,0,0,0-2.907-.844H3.3a.758.758,0,0,1-.758-.758v-12.16a1.271,1.271,0,0,0-2.542,0v12.16a3.3,3.3,0,0,0,3.3,3.3H37.109a2.921,2.921,0,0,1,2.509,1.439,1.932,1.932,0,0,0,3.338,0,2.921,2.921,0,0,1,2.509-1.439H79.274a3.3,3.3,0,0,0,3.3-3.3V79.368a3.3,3.3,0,0,0-3.3-3.3ZM65.746,94.613A3.455,3.455,0,0,1,62.3,91.162v-2.6h6.9v2.6A3.455,3.455,0,0,1,65.746,94.613ZM43.7,75.415H53.738a12.086,12.086,0,0,0,1.3,4.964H48.546a1.406,1.406,0,1,0,0,2.812h8.489a11.548,11.548,0,0,1,2.415,3.565h-10.9a1.406,1.406,0,1,0,0,2.812H59.753v1.594a5.961,5.961,0,0,0,.334,1.97H48.546a1.406,1.406,0,1,0,0,2.812L62.079,95.9a5.988,5.988,0,0,0,9.661-4.735V87.52a12.26,12.26,0,0,1,2.978-4.606v43.246H43.7a3.9,3.9,0,0,0-1.137.181V76.56A1.146,1.146,0,0,1,43.7,75.415ZM2.542,79.368a.758.758,0,0,1,.758-.758H5.314v21.868H2.771q-.115,0-.229.009Zm.229,30.483a.229.229,0,0,1-.229-.229v-6.374a.229.229,0,0,1,.229-.229H7.476v6.831H2.771Zm5.977,2.542H26.369a1.3,1.3,0,0,0,.725-.228l.007,0,5.567-3.92a2.208,2.208,0,0,0,0-3.611l-5.567-3.92-.007,0a1.27,1.27,0,0,0-.667-.224l-.057,0H7.856V75.415H38.871a1.146,1.146,0,0,1,1.144,1.144v49.78a3.921,3.921,0,0,0-1.137-.181H7.856V112.394Zm16.35-2.542H10.019v-6.831H25.1Zm5.718-3.415-3.176,2.237V104.2Zm49.215,25.253a.758.758,0,0,1-.758.758H45.465a5.453,5.453,0,0,0-2.907.844v-3.844c.231-.222.424-.746,1.144-.746H74.861a2.4,2.4,0,0,0,2.4-2.4V78.611h2.014a.758.758,0,0,1,.758.758v52.321Z" transform="translate(0 -52.601)"/>
      </g>
    </g>
  </g>
</svg>
