<svg xmlns="http://www.w3.org/2000/svg" width="150" height="150" viewBox="0 0 150 150">
  <g id="Grupo_1192586" data-name="Grupo 1192586" transform="translate(-72.746 -7992)">
    <g id="Elipse_13628" data-name="Elipse 13628" transform="translate(72.746 7992)" fill="#fff7e2" stroke="#cff878" stroke-width="6">
      <circle cx="75" cy="75" r="75" stroke="none"/>
      <circle cx="75" cy="75" r="72" fill="none"/>
    </g>
    <g id="Grupo_1193406" data-name="Grupo 1193406" transform="translate(105.59 8024.394)">
      <path id="Trazado_1007203" data-name="Trazado 1007203" d="M383.146,215.522s-1.248,12.416,6.741,15.079v7.989H403.2V202.64L393.88,184Z" transform="translate(-319.736 -153.377)" fill="#f4a56e"/>
      <path id="Trazado_1007204" data-name="Trazado 1007204" d="M20.814,238.589V230.6c7.989-2.663,6.774-14.829,6.774-14.829L16.9,184,7.5,202.64v35.949Z" transform="translate(-6.669 -153.377)" fill="#f4a56e"/>
      <path id="Trazado_1007205" data-name="Trazado 1007205" d="M123.915,97.331,127.909,96v46.418l-5.775.1s-11.018-2.463-20.238,4.893a1.649,1.649,0,0,0-.616,1.3v1.881H93.292v-1.7a1.654,1.654,0,0,0-.865-1.465,40.319,40.319,0,0,0-22.734-4.86L64,142.418V96l3.994,1.331L97.286,108.8Z" transform="translate(-53.765 -80.023)" fill="#087182"/>
      <path id="Trazado_1007206" data-name="Trazado 1007206" d="M88,104.766V79.851a69.9,69.9,0,0,1,15.977,1.331,49.331,49.331,0,0,1,13.314,5.326v43.938a49.332,49.332,0,0,0-13.314-5.326A69.9,69.9,0,0,0,88,123.789v-9.137" transform="translate(-73.771 -66.537)" fill="#90e3f5"/>
      <path id="Trazado_1007207" data-name="Trazado 1007207" d="M290.629,112.883v9.054a35.7,35.7,0,0,0-10.652,0A36.225,36.225,0,0,0,264,128.594V84.657A36.225,36.225,0,0,1,279.977,78a35.705,35.705,0,0,1,10.652,0v24.981" transform="translate(-220.479 -64.685)" fill="#77d8e8"/>
      <circle id="Elipse_13827" data-name="Elipse 13827" cx="3.329" cy="3.329" r="3.329" transform="translate(26.212 69.235)" fill="#f69038"/>
      <circle id="Elipse_13828" data-name="Elipse 13828" cx="3.329" cy="3.329" r="3.329" transform="translate(4.909 3.994)" fill="#90e3f5"/>
      <path id="Trazado_1007208" data-name="Trazado 1007208" d="M233,12.311l4.311,2.347L233,17l-2.347,4.311L228.311,17,224,14.657l4.311-2.347L230.657,8Z" transform="translate(-187.136 -6.669)" fill="#f69038"/>
      <path id="Trazado_1007209" data-name="Trazado 1007209" d="M313,428.311l4.311,2.347L313,433l-2.347,4.311L308.311,433,304,430.657l4.311-2.347L310.657,424Z" transform="translate(-253.822 -353.433)" fill="#90e3f5"/>
      <path id="Trazado_1007210" data-name="Trazado 1007210" d="M93.342,84.778a69.9,69.9,0,0,1,15.977,1.331,48.14,48.14,0,0,1,7.972,2.646V86.508a49.331,49.331,0,0,0-13.314-5.326A69.9,69.9,0,0,0,88,79.851v43.938c1.315-.05,3.212-.05,5.342.05Z" transform="translate(-73.771 -66.537)" fill="#fafcfc" opacity="0.3"/>
      <path id="Trazado_1007211" data-name="Trazado 1007211" d="M386.381,208s-4.294,7.506-.3,11.5L396.3,229.8l1.781-7.157Z" transform="translate(-320.825 -173.382)" fill="#232626" opacity="0.2"/>
      <path id="Trazado_1007212" data-name="Trazado 1007212" d="M57.4,208s4.294,7.506.3,11.5L47.481,229.8,45.7,222.646Z" transform="translate(-38.511 -173.382)" fill="#232626" opacity="0.2"/>
      <path id="Trazado_1007213" data-name="Trazado 1007213" d="M410.614,258.6V222.646L392.84,208a10.562,10.562,0,0,0,1.331,10.652l7.123,6.657V229.3s-7.989,0-5.326,13.314l1.331,7.989V258.6S410.947,258.262,410.614,258.6Z" transform="translate(-327.15 -173.382)" fill="#ffbe92"/>
      <path id="Trazado_1007214" data-name="Trazado 1007214" d="M7.5,258.6V222.646L25.275,208a10.562,10.562,0,0,1-1.331,10.652l-7.123,6.657V229.3s7.989,0,5.326,13.314l-1.331,7.989V258.6Z" transform="translate(-6.669 -173.382)" fill="#ffbe92"/>
      <g id="Grupo_1193405" data-name="Grupo 1193405" transform="translate(-0.5 0)">
        <path id="Trazado_1007215" data-name="Trazado 1007215" d="M120,32h2.663v2.663H120Z" transform="translate(-99.945 -26.674)"/>
        <path id="Trazado_1007216" data-name="Trazado 1007216" d="M376,168h2.663v2.663H376Z" transform="translate(-313.339 -140.04)"/>
        <path id="Trazado_1007217" data-name="Trazado 1007217" d="M424,32h2.663v2.663H424Z" transform="translate(-353.35 -26.674)"/>
        <path id="Trazado_1007218" data-name="Trazado 1007218" d="M0,189.7H2.663v2.663H0Z" transform="translate(0.083 -158.128)"/>
        <path id="Trazado_1007219" data-name="Trazado 1007219" d="M232,464h2.663v2.663H232Z" transform="translate(-193.305 -386.776)"/>
        <path id="Trazado_1007220" data-name="Trazado 1007220" d="M156.66,408a4.66,4.66,0,1,0,4.66,4.66A4.674,4.674,0,0,0,156.66,408Zm0,6.657a2,2,0,1,1,2-2A2,2,0,0,1,156.66,414.657Z" transform="translate(-126.619 -340.096)"/>
        <path id="Trazado_1007221" data-name="Trazado 1007221" d="M28.66,25.32A4.66,4.66,0,1,0,24,20.66,4.674,4.674,0,0,0,28.66,25.32Zm0-6.657a2,2,0,1,1-2,2A2,2,0,0,1,28.66,18.663Z" transform="translate(-19.922 -13.337)"/>
        <path id="Trazado_1007222" data-name="Trazado 1007222" d="M216.7,9.154l3.961,2.164,2.164,3.961a1.32,1.32,0,0,0,2.33,0l2.164-3.961,3.961-2.164a1.32,1.32,0,0,0,0-2.33L227.317,4.66,225.154.7a1.32,1.32,0,0,0-2.33,0L220.66,4.66,216.7,6.824a1.32,1.32,0,0,0,0,2.33Zm5.575-2.347a1.365,1.365,0,0,0,.533-.533l1.182-2.164,1.182,2.164a1.365,1.365,0,0,0,.533.533l2.164,1.182L225.7,9.17a1.365,1.365,0,0,0-.533.533l-1.182,2.164L222.807,9.7a1.365,1.365,0,0,0-.533-.533l-2.164-1.182Z" transform="translate(-179.968 0)"/>
        <path id="Trazado_1007223" data-name="Trazado 1007223" d="M311.278,422.824l-3.961-2.164-2.164-3.961a1.32,1.32,0,0,0-2.33,0l-2.164,3.961-3.961,2.164a1.32,1.32,0,0,0,0,2.33l3.961,2.164,2.164,3.961a1.32,1.32,0,0,0,2.33,0l2.164-3.961,3.961-2.164a1.32,1.32,0,0,0,0-2.33ZM305.7,425.17a1.364,1.364,0,0,0-.533.533l-1.182,2.164-1.182-2.164a1.365,1.365,0,0,0-.533-.533l-2.164-1.182,2.164-1.182a1.365,1.365,0,0,0,.533-.533l1.182-2.164,1.182,2.164a1.365,1.365,0,0,0,.533.533l2.164,1.182Z" transform="translate(-246.653 -346.765)"/>
        <path id="Trazado_1007224" data-name="Trazado 1007224" d="M84.646,106.7l-9.17-18.357V74.015a1.318,1.318,0,0,0-.549-1.082,1.341,1.341,0,0,0-1.2-.183l-2.247.749V71.352a1.326,1.326,0,0,0-1.132-1.315,37.266,37.266,0,0,0-11.051,0,37.73,37.73,0,0,0-15.861,6.391,50.8,50.8,0,0,0-12.932-5.043A70.39,70.39,0,0,0,14.179,70.02,1.337,1.337,0,0,0,12.9,71.352V73.5l-2.247-.749a1.342,1.342,0,0,0-1.2.183A1.318,1.318,0,0,0,8.9,74.015v14.33L-.35,106.7a1.231,1.231,0,0,0-.15.6V143.25H2.163V107.933L17.941,94.918a9.235,9.235,0,0,1-1.664,7.489L9.236,109a1.322,1.322,0,0,0-.416.965v3.994a1.335,1.335,0,0,0,1.331,1.331,4.382,4.382,0,0,1,3.029,1.614c1.581,1.931,1.931,5.426,1,10.1l2.613.516a26.08,26.08,0,0,0,.566-5.725c.782-.05,1.548-.067,2.313-.067.05,2.913-.4,10.419-5.925,12.266a1.324,1.324,0,0,0-.915,1.265v7.989h2.663v-7.073c3.245-1.448,5.426-4.56,6.358-9.054a24.465,24.465,0,0,0,.483-5.259,40.345,40.345,0,0,1,15.694,4.76.331.331,0,0,1,.183.3V128.6a1.335,1.335,0,0,0,1.331,1.331h7.989a1.335,1.335,0,0,0,1.331-1.331v-1.881a.393.393,0,0,1,.117-.266,23.437,23.437,0,0,1,13.032-4.91c-.067,3.445.466,11.8,6.807,14.629v7.073h2.663v-7.989A1.339,1.339,0,0,0,70.566,134c-5.542-1.847-5.958-9.553-5.892-12.516.932.033,1.7.1,2.28.166a25.476,25.476,0,0,0,.549,5.875l2.613-.516c-.932-4.643-.6-8.122.965-10.069a4.44,4.44,0,0,1,3.062-1.664,1.335,1.335,0,0,0,1.331-1.331v-3.994a1.322,1.322,0,0,0-.416-.965l-7.023-6.574a9.172,9.172,0,0,1-1.664-7.489L82.15,107.933V143.25h2.663V107.3a1.463,1.463,0,0,0-.166-.6Zm-5.176-4.427-3.994-3.3V94.286ZM72.813,75.862V96.8l-1.331-1.1V76.311ZM12.9,76.311V95.634l-1.331,1.1V75.862ZM8.9,98.929l-4.028,3.329L8.9,94.269Zm9.27,5.342a1.351,1.351,0,0,0,.15-.166,11.869,11.869,0,0,0,1.465-12.05,1.308,1.308,0,0,0-.915-.7,1.282,1.282,0,0,0-1.115.283l-2.2,1.8V72.65a65.523,65.523,0,0,1,14.33,1.331,48.209,48.209,0,0,1,12.3,4.81V119.7a50.28,50.28,0,0,0-11.667-4.361,68.725,68.725,0,0,0-14.962-1.4v-7.206Zm-6.691,6.274,1.415-1.315v4.127a8.494,8.494,0,0,0-1.415-.533Zm35.833,13.83a2.99,2.99,0,0,0-1.132,2.347v.549H40.858v-.366a2.979,2.979,0,0,0-1.564-2.63,41.934,41.934,0,0,0-22.252-5.109,9.912,9.912,0,0,0-.9-2.563,65,65,0,0,1,13.747,1.331,48.241,48.241,0,0,1,12.965,5.176,1.3,1.3,0,0,0,1.331,0,.3.3,0,0,0,.117-.083A35.074,35.074,0,0,1,59.7,116.621a34.212,34.212,0,0,1,8.555-.216,9.545,9.545,0,0,0-.965,2.613,26.838,26.838,0,0,0-19.972,5.359Zm25.5-11.55a6.894,6.894,0,0,0-1.331.483V109.3l1.331,1.248Zm-7.39-21.47a1.354,1.354,0,0,0-.915.7,11.866,11.866,0,0,0,1.465,12.05,1.5,1.5,0,0,0,.15.166l2.7,2.53v6.973a36.452,36.452,0,0,0-9.52.2,37.473,37.473,0,0,0-14.446,5.459V78.691a34.3,34.3,0,0,1,23.966-6.175V93.5l-2.28-1.881a1.355,1.355,0,0,0-1.115-.266Z" transform="translate(0.5 -58.037)"/>
        <path id="Trazado_1007225" data-name="Trazado 1007225" d="M136.974,141.652l1.315-2.313a33.185,33.185,0,0,0-19.489-4.161l.383,2.63A31.138,31.138,0,0,1,136.974,141.652Z" transform="translate(-98.945 -112.543)"/>
        <path id="Trazado_1007226" data-name="Trazado 1007226" d="M136.974,181.652l1.315-2.313a33.185,33.185,0,0,0-19.489-4.161l.383,2.63A31.138,31.138,0,0,1,136.974,181.652Z" transform="translate(-98.945 -145.886)"/>
        <path id="Trazado_1007227" data-name="Trazado 1007227" d="M284,299.427l1.315,2.313a30.87,30.87,0,0,1,17.791-3.828l.383-2.63A32.8,32.8,0,0,0,284,299.427Z" transform="translate(-236.65 -245.986)"/>
        <path id="Trazado_1007228" data-name="Trazado 1007228" d="M284,132.282l1.315,2.313a30.87,30.87,0,0,1,17.791-3.828l.383-2.63A33.1,33.1,0,0,0,284,132.282Z" transform="translate(-236.65 -106.668)"/>
      </g>
    </g>
  </g>
</svg>
