<svg xmlns="http://www.w3.org/2000/svg" width="150" height="150" viewBox="0 0 150 150">
  <g id="Grupo_1192588" data-name="Grupo 1192588" transform="translate(-72.746 -7991.863)">
    <g id="Elipse_13628" data-name="Elipse 13628" transform="translate(72.746 7991.863)" fill="#fff7e2" stroke="#cff878" stroke-width="6">
      <circle cx="75" cy="75" r="75" stroke="none"/>
      <circle cx="75" cy="75" r="72" fill="none"/>
    </g>
    <g id="Grupo_1193416" data-name="Grupo 1193416" transform="translate(100.26 8019.335)">
      <path id="Trazado_1007260" data-name="Trazado 1007260" d="M40.039,186.319V205.4H7.33v-9.145A13.915,13.915,0,0,1,21.244,182.34h14.52a1.7,1.7,0,0,0-.132.654,1.662,1.662,0,0,0,1.659,1.663h1.085a1.663,1.663,0,0,1,1.663,1.663Z" transform="translate(-1.63 -115.733)" fill="#fc5d3d"/>
      <path id="Trazado_1007261" data-name="Trazado 1007261" d="M88.529,186.319V205.4H86.094V187.092a4.115,4.115,0,0,1-4.355-4.752h2.515a1.7,1.7,0,0,0-.132.654,1.662,1.662,0,0,0,1.659,1.663h1.085A1.663,1.663,0,0,1,88.529,186.319Z" transform="translate(-50.12 -115.733)" fill="#b25035"/>
      <path id="Trazado_1007262" data-name="Trazado 1007262" d="M52.246,133.124v7.705a8.511,8.511,0,0,1-.142,1.607,8.988,8.988,0,0,1-9.123,7.577,8.917,8.917,0,0,1-9.057-7.577,8.432,8.432,0,0,1-.149-1.607v-7.705Z" transform="translate(-18.877 -83.637)" fill="#ffb69f"/>
      <path id="Trazado_1007263" data-name="Trazado 1007263" d="M53.41,114.247l-1.155,1.172H33.786v-2.676a4.192,4.192,0,0,1,4.193-4.19h9.959a3.171,3.171,0,0,0,3.115-2.579l1.673,1.144A4.669,4.669,0,0,1,53.41,114.247Z" transform="translate(-18.883 -65.932)" fill="#7c7b7a"/>
      <g id="Grupo_1193412" data-name="Grupo 1193412" transform="translate(5.701 53.483)">
        <path id="Trazado_1007264" data-name="Trazado 1007264" d="M27.2,149.936H26.123a2.656,2.656,0,1,1,0-5.312h.929v3.7A8.544,8.544,0,0,0,27.2,149.936Z" transform="translate(-17.852 -144.62)" fill="#ffb69f"/>
        <path id="Trazado_1007265" data-name="Trazado 1007265" d="M90.2,147.272a2.657,2.657,0,0,1-2.656,2.656H86.466a8.606,8.606,0,0,0,.142-1.608v-3.707h.937A2.658,2.658,0,0,1,90.2,147.272Z" transform="translate(-58.939 -144.612)" fill="#ffb69f"/>
        <path id="Trazado_1007266" data-name="Trazado 1007266" d="M7.333,227.313h7.079v7.414H7.333Z" transform="translate(-7.333 -198.545)" fill="#ffb69f"/>
      </g>
      <path id="Trazado_1007267" data-name="Trazado 1007267" d="M128.505,7.374a25.3,25.3,0,0,0-20.081,40.683l-2.578,7.276,6.863-2.9a25.3,25.3,0,1,0,15.8-45.057Z" transform="translate(-64.154 -1.63)" fill="#f0c020"/>
      <path id="Trazado_1007268" data-name="Trazado 1007268" d="M151.383,29.454A13.095,13.095,0,0,0,143,52.606a1.952,1.952,0,0,1,.663,1.493v6.419a4.179,4.179,0,0,0,4.174,4.174h7.1a4.179,4.179,0,0,0,4.174-4.174v-6.44a2.054,2.054,0,0,1,.754-1.55,13.094,13.094,0,0,0-8.479-23.074Z" transform="translate(-87.032 -16.03)" fill="#e8a61e"/>
      <path id="Trazado_1007269" data-name="Trazado 1007269" d="M166.61,47.117A10.662,10.662,0,1,0,149.12,55.3a4.37,4.37,0,0,1,1.538,3.363V60.1h10.58V58.645a4.479,4.479,0,0,1,1.613-3.4A10.635,10.635,0,0,0,166.61,47.117Z" transform="translate(-91.597 -20.595)" fill="#efefef"/>
      <path id="Trazado_1007270" data-name="Trazado 1007270" d="M171.309,104.417h-10.58v4.988a1.739,1.739,0,0,0,1.739,1.739h7.1a1.739,1.739,0,0,0,1.739-1.739Z" transform="translate(-101.668 -64.916)" fill="#72c2e9"/>
      <path id="Trazado_1007271" data-name="Trazado 1007271" d="M156.85,166.473a12.736,12.736,0,0,0-12.515,10.387l-4.883,2.348,4.883,2.348a12.734,12.734,0,1,0,12.515-15.083Z" transform="translate(-87.793 -105.385)" fill="#72c2e9"/>
      <path id="Trazado_1007272" data-name="Trazado 1007272" d="M14.571,26.244A12.736,12.736,0,0,0,24.958,38.759l2.348,3.97,2.348-3.97A12.734,12.734,0,1,0,14.571,26.244Z" transform="translate(-6.353 -5.631)" fill="#72c2e9"/>
      <path id="Trazado_1007273" data-name="Trazado 1007273" d="M102.389,162.636v25.188H93.1v-19.08a1.663,1.663,0,0,0-1.663-1.663H90.349a1.661,1.661,0,0,1-1.659-1.663,1.7,1.7,0,0,1,.132-.654,1.662,1.662,0,0,1,1.527-1.009h1.085A1.662,1.662,0,0,0,93.1,162.1v-4.978a1.731,1.731,0,0,1,3.461,0v3.858h4.171A1.657,1.657,0,0,1,102.389,162.636Z" transform="translate(-54.689 -98.158)" fill="#ffb69f"/>
      <g id="Grupo_1193413" data-name="Grupo 1193413" transform="translate(8.507 69.216)">
        <path id="Trazado_1007274" data-name="Trazado 1007274" d="M16.1,199.971a.87.87,0,0,1-.685-1.022,11.191,11.191,0,0,1,.275-1.1.87.87,0,0,1,1.663.508,9.473,9.473,0,0,0-.232.927A.87.87,0,0,1,16.1,199.971Zm1.458-4.259a.87.87,0,0,1-.19-1.215,11.354,11.354,0,0,1,9.139-4.656h9.044a.87.87,0,1,1,0,1.739H26.508a9.608,9.608,0,0,0-7.733,3.942A.87.87,0,0,1,17.559,195.713Z" transform="translate(-15.4 -189.841)" fill="#ffcbc3"/>
      </g>
      <g id="Grupo_1193414" data-name="Grupo 1193414" transform="translate(68.231 9.88)">
        <path id="Trazado_1007275" data-name="Trazado 1007275" d="M187.113,61.918a.869.869,0,0,1,.66-1.038,20.948,20.948,0,0,0,6.981-37.931.87.87,0,0,1,.961-1.45,22.688,22.688,0,0,1-7.563,41.079.87.87,0,0,1-1.038-.66Zm4.722-40.585c-.3-.138-.615-.27-.924-.392a.869.869,0,1,1,.642-1.616c.334.133.67.275,1,.424a.87.87,0,1,1-.718,1.584Z" transform="translate(-187.092 -19.264)" fill="#f8e5b0"/>
      </g>
      <g id="Grupo_1193415" data-name="Grupo 1193415" transform="translate(41.659 9.201)">
        <path id="Trazado_1007276" data-name="Trazado 1007276" d="M115.385,52.95c-.219-.286-.434-.58-.639-.875a.87.87,0,1,1,1.427-.994c.19.272.389.545.592.811a.87.87,0,1,1-1.38,1.058Zm-2.462-4a22.4,22.4,0,0,1-2.218-9.8,22.8,22.8,0,0,1,16.418-21.809.87.87,0,0,1,.481,1.671,21.056,21.056,0,0,0-15.16,20.138A20.691,20.691,0,0,0,114.49,48.2a.869.869,0,1,1-1.567.754Z" transform="translate(-110.705 -17.312)" fill="#f8e5b0"/>
      </g>
      <path id="Trazado_1007277" data-name="Trazado 1007277" d="M57.164,162.473a.864.864,0,0,0-.508-1.117.886.886,0,0,0-1.12.508,2.012,2.012,0,0,1-1.875,1.3,1.983,1.983,0,0,1-1.875-1.294.884.884,0,0,0-1.117-.514.873.873,0,0,0-.511,1.12,3.741,3.741,0,0,0,7.006,0Z" transform="translate(-29.525 -102.013)"/>
      <path id="Trazado_1007278" data-name="Trazado 1007278" d="M47.213,145.064a.87.87,0,0,0-1.739,0v.544a.87.87,0,0,0,1.739,0Z" transform="translate(-26.506 -90.856)"/>
      <path id="Trazado_1007279" data-name="Trazado 1007279" d="M71.051,146.478a.87.87,0,0,0,.87-.87v-.544a.87.87,0,1,0-1.739,0v.544A.87.87,0,0,0,71.051,146.478Z" transform="translate(-42.618 -90.857)"/>
      <path id="Trazado_1007280" data-name="Trazado 1007280" d="M58.7,149.978a.87.87,0,0,0,.87-.87v-2.481a.87.87,0,1,0-1.739,0v2.481A.87.87,0,0,0,58.7,149.978Z" transform="translate(-34.562 -91.876)"/>
      <path id="Trazado_1007281" data-name="Trazado 1007281" d="M153.044,31.044a26.17,26.17,0,0,0-52.34,0,25.916,25.916,0,0,0,5.113,15.533L103.4,53.412a.87.87,0,0,0,1.158,1.092l6.391-2.7a25.87,25.87,0,0,0,15.929,5.413A26.2,26.2,0,0,0,153.044,31.044Zm-26.17,24.431a24.162,24.162,0,0,1-15.252-5.353A.87.87,0,0,0,110.74,50l-5.046,2.134,1.919-5.416a.868.868,0,0,0-.13-.82,24.2,24.2,0,0,1-5.039-14.854,24.431,24.431,0,1,1,24.43,24.431Z" transform="translate(-62.523)"/>
      <path id="Trazado_1007282" data-name="Trazado 1007282" d="M168.826,177.574s0-.006,0-.009v0a13.559,13.559,0,0,0-1.979-7.062.87.87,0,1,0-1.485.9,11.847,11.847,0,0,1,1.725,6.156s0,0,0,.005a11.865,11.865,0,0,1-23.526,2.189.869.869,0,0,0-.478-.624l-3.254-1.565L143.083,176a.869.869,0,0,0,.478-.624,11.861,11.861,0,0,1,11.661-9.676,11.715,11.715,0,0,1,5.466,1.331.87.87,0,1,0,.8-1.544,13.61,13.61,0,0,0-19.547,9.134l-4.494,2.161a.87.87,0,0,0,0,1.567l4.494,2.161a13.6,13.6,0,0,0,26.886-2.937Z" transform="translate(-86.164 -103.744)"/>
      <path id="Trazado_1007283" data-name="Trazado 1007283" d="M213.471,175.316a.869.869,0,0,0-.042-1.228.892.892,0,0,0-1.228.042.869.869,0,0,0,.042,1.228,0,0,0,0,0,0,0A.865.865,0,0,0,213.471,175.316Z" transform="translate(-135.083 -110.205)"/>
      <path id="Trazado_1007284" data-name="Trazado 1007284" d="M58.222,154.837a.87.87,0,0,0,.87-.87V128.779a2.532,2.532,0,0,0-2.529-2.529h-3.3v-2.988a2.6,2.6,0,0,0-5.2,0v4.978a.792.792,0,0,1-.793.79H46.182a2.52,2.52,0,0,0-2.013,1.009H40.107a9.479,9.479,0,0,0,4.348-6.068,3.537,3.537,0,1,0,.3-7.055v-2.767l.908-.921a5.538,5.538,0,0,0-.813-8.456l-1.673-1.144a.87.87,0,0,0-1.346.556,2.3,2.3,0,0,1-2.26,1.871H29.617a5.067,5.067,0,0,0-5.063,5.06v5.806a3.535,3.535,0,1,0,.31,7.051,9.532,9.532,0,0,0,4.377,6.1,14.77,14.77,0,0,0-6.192,1.777.87.87,0,1,0,.835,1.527,13.036,13.036,0,0,1,6.251-1.593H43.664a2.532,2.532,0,0,0,2.518,2.317h1.085a.794.794,0,0,1,.793.793v19.08a.87.87,0,0,0,1.739,0v-19.08a2.535,2.535,0,0,0-2.532-2.532H46.182a.793.793,0,0,1,0-1.586h1.085A2.533,2.533,0,0,0,49.8,128.24v-4.978a.861.861,0,0,1,1.722,0v3.858a.87.87,0,0,0,.87.87h4.171a.791.791,0,0,1,.79.79v25.188a.869.869,0,0,0,.87.869Zm-13.46-36.184a1.79,1.79,0,1,1-.025,3.577c.009-.13.025-.644.025-.739Zm-18.467-7.541a3.326,3.326,0,0,1,3.323-3.32h9.959a4.045,4.045,0,0,0,3.544-2.1l.754.516a3.8,3.8,0,0,1,.556,5.8h0l-.9.913H26.294ZM22.7,120.444a1.79,1.79,0,0,1,1.848-1.786v2.835c0,.222.012.512.029.737A1.793,1.793,0,0,1,22.7,120.444Zm3.589,1.048c0-5.953,0-1.382,0-6.834H43.021v6.835a8.174,8.174,0,0,1-8.395,8.315,8.109,8.109,0,0,1-8.334-8.316Z" transform="translate(-10.522 -64.301)"/>
      <path id="Trazado_1007285" data-name="Trazado 1007285" d="M12.779,216.633a.87.87,0,0,0,.87-.87V204.077a.87.87,0,0,0-1.739,0v3.4H6.569v-.861a13.016,13.016,0,0,1,2.07-7.055.869.869,0,0,0-.261-1.2.9.9,0,0,0-1.2.261,14.73,14.73,0,0,0-2.345,7.994v9.144a.87.87,0,0,0,1.739,0v-6.544h5.34v6.544A.87.87,0,0,0,12.779,216.633Z" transform="translate(0 -126.098)"/>
      <path id="Trazado_1007286" data-name="Trazado 1007286" d="M154.321,33.951h0a11.468,11.468,0,0,0-7.006,2.348.869.869,0,1,0,1.051,1.384,9.745,9.745,0,0,1,5.945-1.993h.009a9.79,9.79,0,0,1,6.339,17.252,5.351,5.351,0,0,0-1.919,4.067v.582h-3.551v-8a3.327,3.327,0,1,0-1.739,0v8H149.9v-.561A5.219,5.219,0,0,0,148.047,53a9.754,9.754,0,0,1-3.52-7.691h0a9.907,9.907,0,0,1,.341-2.422.87.87,0,1,0-1.68-.455v0a11.652,11.652,0,0,0-.4,2.845s0,0,0,.007a11.486,11.486,0,0,0,4.144,9.05,3.484,3.484,0,0,1,1.225,2.7v6.419a2.612,2.612,0,0,0,2.609,2.609h7.1a2.612,2.612,0,0,0,2.609-2.609v-6.44a3.617,3.617,0,0,1,1.306-2.743,11.529,11.529,0,0,0-7.463-20.317Zm-1.59,12.43a1.587,1.587,0,1,1,1.587,1.587A1.589,1.589,0,0,1,152.731,46.382Zm6.007,17.069a.871.871,0,0,1-.87.87h-7.1a.871.871,0,0,1-.87-.87v-.93h3.574a.87.87,0,1,0,0-1.739H149.9v-1.45h8.841Z" transform="translate(-89.968 -18.962)"/>
      <path id="Trazado_1007287" data-name="Trazado 1007287" d="M36.686,36.448h8.87a.87.87,0,1,0,0-1.739h-8.87a.87.87,0,1,0,0,1.739Z" transform="translate(-20.207 -19.457)"/>
      <path id="Trazado_1007288" data-name="Trazado 1007288" d="M27.618,49.244H42.8a.87.87,0,1,0,0-1.739H27.618a.87.87,0,0,0,0,1.739Z" transform="translate(-14.294 -27.801)"/>
      <path id="Trazado_1007289" data-name="Trazado 1007289" d="M45.556,60.3h-8.87a.87.87,0,0,0,0,1.739h8.87a.87.87,0,1,0,0-1.739Z" transform="translate(-20.207 -36.146)"/>
      <path id="Trazado_1007290" data-name="Trazado 1007290" d="M184.009,189.475a.87.87,0,0,0,0-1.739h-8.87a.87.87,0,0,0,0,1.739Z" transform="translate(-110.498 -119.252)"/>
      <path id="Trazado_1007291" data-name="Trazado 1007291" d="M166.07,200.532a.87.87,0,0,0,0,1.739h15.18a.87.87,0,1,0,0-1.739Z" transform="translate(-104.584 -127.597)"/>
      <path id="Trazado_1007292" data-name="Trazado 1007292" d="M175.139,213.327a.87.87,0,0,0,0,1.739h8.87a.87.87,0,0,0,0-1.739Z" transform="translate(-110.498 -135.941)"/>
      <path id="Trazado_1007293" data-name="Trazado 1007293" d="M22.776,37.906l2.151,3.637a.87.87,0,0,0,1.5,0l2.151-3.637a13.6,13.6,0,1,0-5.8,0Zm2.9-25.156a11.865,11.865,0,0,1,2.189,23.526.869.869,0,0,0-.589.413l-1.6,2.7-1.6-2.7a.87.87,0,0,0-.589-.413,11.865,11.865,0,0,1,2.189-23.526Z" transform="translate(-4.722 -4.002)"/>
      <path id="Trazado_1007294" data-name="Trazado 1007294" d="M17.811,192.046a.869.869,0,1,0,1.27-1.186.9.9,0,0,0-1.228-.045A.873.873,0,0,0,17.811,192.046Z" transform="translate(-8.313 -121.115)"/>
      <path id="Trazado_1007295" data-name="Trazado 1007295" d="M148.368,49.034a.868.868,0,1,0,.971-1.44.891.891,0,0,0-1.207.233A.869.869,0,0,0,148.368,49.034Z" transform="translate(-93.356 -27.766)"/>
    </g>
  </g>
</svg>
