<svg xmlns="http://www.w3.org/2000/svg" width="150" height="150" viewBox="0 0 150 150">
  <g id="Grupo_1192587" data-name="Grupo 1192587" transform="translate(-72.746 -7991.863)">
    <g id="Elipse_13628" data-name="Elipse 13628" transform="translate(72.746 7991.863)" fill="#fff7e2" stroke="#cff878" stroke-width="6">
      <circle cx="75" cy="75" r="75" stroke="none"/>
      <circle cx="75" cy="75" r="72" fill="none"/>
    </g>
    <g id="Grupo_1193423" data-name="Grupo 1193423" transform="translate(105.09 8002.292)">
      <g id="Grupo_1193421" data-name="Grupo 1193421" transform="translate(1.248 27.645)">
        <g id="Grupo_1193417" data-name="Grupo 1193417" transform="translate(0 69.173)">
          <path id="Trazado_1007296" data-name="Trazado 1007296" d="M90.208,452.551a2.33,2.33,0,0,1-2.33,2.33H9.83a2.331,2.331,0,0,1,0-4.661H87.879a2.33,2.33,0,0,1,2.33,2.331Z" transform="translate(-7.5 -450.22)" fill="#d77d41"/>
          <path id="Trazado_1007297" data-name="Trazado 1007297" d="M469.641,450.9a2.331,2.331,0,0,1-1.647,3.979H463.5a2.331,2.331,0,0,0,0-4.661h4.493A2.329,2.329,0,0,1,469.641,450.9Z" transform="translate(-387.615 -450.22)" fill="#b5612a"/>
        </g>
        <g id="Grupo_1193418" data-name="Grupo 1193418" transform="translate(40.342)">
          <path id="Trazado_1007298" data-name="Trazado 1007298" d="M273.339,50.991l-2.624-3.343L271.5,44.6,268.8,35.18a.86.86,0,0,0-1.065-.589l-4.407,1.266L250.54,39.53a.86.86,0,0,0-.591,1.065l2.7,9.414,2.538,3.044-.7,3.353,10.863,37.806,10.478-1.291L284.2,88.8Z" transform="translate(-249.915 -34.557)" fill="#d4e16c"/>
          <path id="Trazado_1007299" data-name="Trazado 1007299" d="M351.365,88.8l-3.5,1.006L332.591,37.018a1.7,1.7,0,0,0-2.1-1.162l4.407-1.266a.86.86,0,0,1,1.065.589l2.706,9.416-.787,3.052,2.624,3.343Z" transform="translate(-317.079 -34.557)" fill="#a4ce39"/>
          <path id="Trazado_1007300" data-name="Trazado 1007300" d="M287.053,101.275l-3.571,1.027-15.275,4.388-1.839-6.4,15.263-4.383,3.585-1.03Z" transform="translate(-263.63 -84.841)" fill="#fdeda5"/>
          <path id="Trazado_1007301" data-name="Trazado 1007301" d="M364.014,369.109l-2.476-8.617-18.846,5.415,1.627,5.663,1.087,3.781,18.018-5.176A.864.864,0,0,0,364.014,369.109Z" transform="translate(-327.253 -306.252)" fill="#56788b"/>
          <path id="Trazado_1007302" data-name="Trazado 1007302" d="M371.571,370.176l-18.018,5.176-1.087-3.781,11.929-3.606a3.561,3.561,0,0,0,2.39-4.4l-.6-2.069,3.5-1.006,2.476,8.617A.863.863,0,0,1,371.571,370.176Z" transform="translate(-335.401 -306.252)" fill="#415e6f"/>
          <path id="Trazado_1007303" data-name="Trazado 1007303" d="M359.938,102.3l-1.851-6.392,3.585-1.03,1.837,6.4Z" transform="translate(-340.086 -84.841)" fill="#fbdf63"/>
        </g>
        <g id="Grupo_1193419" data-name="Grupo 1193419" transform="translate(21.627 9.354)">
          <path id="Trazado_1007304" data-name="Trazado 1007304" d="M173.736,91.68v58.906h-16.28V90.768h15.368A.911.911,0,0,1,173.736,91.68Z" transform="translate(-154.128 -90.768)" fill="#f9d11f"/>
          <path id="Trazado_1007305" data-name="Trazado 1007305" d="M233.213,91.68v58.906h-3.495V91.68a.911.911,0,0,0-.912-.912H232.3A.911.911,0,0,1,233.213,91.68Z" transform="translate(-213.604 -90.768)" fill="#ffa402"/>
          <path id="Trazado_1007306" data-name="Trazado 1007306" d="M157.456,390.708h16.28v9.9h-16.28Z" transform="translate(-154.128 -340.793)" fill="#56788b"/>
          <path id="Trazado_1007307" data-name="Trazado 1007307" d="M153.57,390.708h3.495v9.9H137.456v-3.16h12.789a3.326,3.326,0,0,0,3.325-3.325Z" transform="translate(-137.456 -340.793)" fill="#415e6f"/>
          <path id="Trazado_1007308" data-name="Trazado 1007308" d="M157.456,154.358h16.28v6.657h-16.28Z" transform="translate(-154.128 -143.776)" fill="#fdeda5"/>
          <path id="Trazado_1007309" data-name="Trazado 1007309" d="M234.286,154.358h3.495v6.657h-3.495Z" transform="translate(-218.172 -143.776)" fill="#fbdf63"/>
        </g>
        <g id="Grupo_1193420" data-name="Grupo 1193420" transform="translate(5.346 2.698)">
          <path id="Trazado_1007310" data-name="Trazado 1007310" d="M59.236,51.64v9.71l-1.664,3.328,1.664,3.328v41l-19.609-1.664V68.007l1.664-3.328L39.627,61.35V51.64a.871.871,0,0,1,.87-.872H58.364A.873.873,0,0,1,59.236,51.64Z" transform="translate(-39.627 -50.768)" fill="#ff6b81"/>
          <path id="Trazado_1007311" data-name="Trazado 1007311" d="M59.236,51.64v9.71l-1.664,3.328,1.664,3.328v49.236H39.627v-3.16H52.416a3.326,3.326,0,0,0,3.325-3.325V51.64a.873.873,0,0,0-.872-.872h3.495A.873.873,0,0,1,59.236,51.64Z" transform="translate(-39.627 -50.768)" fill="#ed2061"/>
          <path id="Trazado_1007312" data-name="Trazado 1007312" d="M39.627,390.708H59.236v9.9H39.627Z" transform="translate(-39.627 -334.137)" fill="#56788b"/>
          <path id="Trazado_1007313" data-name="Trazado 1007313" d="M39.627,114.358H59.236v6.657H39.627Z" transform="translate(-39.627 -103.776)" fill="#fdeda5"/>
          <path id="Trazado_1007314" data-name="Trazado 1007314" d="M136.457,114.358h3.495v6.657h-3.495Z" transform="translate(-120.343 -103.776)" fill="#fbdf63"/>
          <path id="Trazado_1007315" data-name="Trazado 1007315" d="M55.741,390.708h3.495v9.9H39.627v-3.16H52.416a3.326,3.326,0,0,0,3.325-3.325Z" transform="translate(-39.627 -334.137)" fill="#415e6f"/>
        </g>
      </g>
      <g id="Grupo_1193422" data-name="Grupo 1193422" transform="translate(0 26.265)">
        <path id="Trazado_1007316" data-name="Trazado 1007316" d="M81.627,95.57h-13L78.955,92.6a1.248,1.248,0,0,0,.855-1.544l-2.734-9.517h0v0l-8.1-28.2a1.248,1.248,0,0,0-2.4.689l7.759,27L57.884,85.756,47.712,50.351l16.447-4.725.887,3.086a1.248,1.248,0,1,0,2.4-.689L61.454,27.169a1.248,1.248,0,0,0-1.544-.855L41.063,31.729a1.248,1.248,0,0,0-.855,1.544l.712,2.479H27.451V30.344A1.248,1.248,0,0,0,26.2,29.1H6.595a1.248,1.248,0,0,0-1.248,1.248V95.57H3.578a3.579,3.579,0,0,0,0,7.157h7.4a1.248,1.248,0,0,0,0-2.5h-7.4a1.082,1.082,0,0,1,0-2.165H81.627a1.082,1.082,0,0,1,0,2.165H16.815a1.248,1.248,0,0,0,0,2.5H81.627a3.579,3.579,0,0,0,0-7.157ZM63.47,43.226,47.023,47.952l-1.149-4,16.447-4.725ZM59.4,29.058l2.233,7.771L45.185,41.554l-2.233-7.771Zm-31.948,9.19H41.235v8.085H27.451Zm0,10.581H41.235v4.16H27.451ZM7.843,31.592H24.955v8.085H7.843Zm0,10.581H24.955v4.16H7.843Zm17.112,53.4H7.843V88.163H24.955V95.57Zm16.28,0H27.451V88.163H41.235Zm2.5,0V68.9a1.248,1.248,0,0,0-2.5,0V85.667H27.451V79.434a1.248,1.248,0,0,0-2.5,0v6.233H7.843V48.83H24.955V73.7a1.248,1.248,0,1,0,2.5,0V55.486H41.235v7.72a1.248,1.248,0,1,0,2.5,0V45.536l12.1,42.106v.006l2.276,7.922Zm14.842-7.415L75.02,83.43l2.045,7.119L60.619,95.274Z" transform="translate(0 -26.265)"/>
        <path id="Trazado_1007317" data-name="Trazado 1007317" d="M74.935,191.973a1.248,1.248,0,0,0-1.248,1.248v24.348a1.248,1.248,0,1,0,2.5,0V193.221A1.248,1.248,0,0,0,74.935,191.973Z" transform="translate(-61.424 -164.397)"/>
        <path id="Trazado_1007318" data-name="Trazado 1007318" d="M109.645,215.128a1.248,1.248,0,0,0-1.248,1.248v16.642a1.248,1.248,0,0,0,2.5,0V216.376A1.248,1.248,0,0,0,109.645,215.128Z" transform="translate(-90.358 -183.698)"/>
        <path id="Trazado_1007319" data-name="Trazado 1007319" d="M323.229,190.293a1.248,1.248,0,0,0-.855,1.544l6.723,23.4a1.248,1.248,0,0,0,2.4-.689l-6.723-23.4A1.248,1.248,0,0,0,323.229,190.293Z" transform="translate(-268.685 -162.955)"/>
        <path id="Trazado_1007320" data-name="Trazado 1007320" d="M367.922,221.407a1.249,1.249,0,0,0,1.2-1.593l-4.6-15.994a1.248,1.248,0,1,0-2.4.689l4.6,15.994A1.249,1.249,0,0,0,367.922,221.407Z" transform="translate(-301.823 -173.518)"/>
        <path id="Trazado_1007321" data-name="Trazado 1007321" d="M200.481,231.973a1.248,1.248,0,0,0-1.248,1.248v17.692a1.248,1.248,0,0,0,2.5,0V233.221A1.248,1.248,0,0,0,200.481,231.973Z" transform="translate(-166.078 -197.74)"/>
      </g>
    </g>
  </g>
</svg>
