<svg xmlns="http://www.w3.org/2000/svg" xmlns:xlink="http://www.w3.org/1999/xlink" width="327" height="533.781" viewBox="0 0 327 533.781">
  <defs>
    <clipPath id="clip-path">
      <rect id="Rectángulo_378415" data-name="Rectángulo 378415" width="327" height="533.781" rx="20" fill="#ecf2fe"/>
    </clipPath>
    <linearGradient id="linear-gradient" x1="-0.166" y1="0.591" x2="1.028" y2="0.591" gradientUnits="objectBoundingBox">
      <stop offset="0" stop-color="#e529e1"/>
      <stop offset="1" stop-color="#3919f8"/>
    </linearGradient>
    <clipPath id="clip-path-2">
      <rect id="Rectángulo_454668" data-name="Rectángulo 454668" width="34.642" height="85.883" fill="#3b3297"/>
    </clipPath>
    <clipPath id="clip-path-4">
      <rect id="Rectángulo_454530" data-name="Rectángulo 454530" width="96.658" height="111.346" fill="#3b3297"/>
    </clipPath>
    <clipPath id="clip-path-5">
      <rect id="Rectángulo_378459" data-name="Rectángulo 378459" width="327" height="433.781" rx="20" fill="#a4c2ff"/>
    </clipPath>
  </defs>
  <g id="Grupo_1178331" data-name="Grupo 1178331" transform="translate(-284.668 -5976)">
    <g id="Enmascarar_grupo_1073331" data-name="Enmascarar grupo 1073331" transform="translate(284.668 5976)" clip-path="url(#clip-path)">
      <rect id="Rectángulo_401102" data-name="Rectángulo 401102" width="327" height="533.781" rx="20" fill="#a4c2ff"/>
      <path id="Trazado_992551" data-name="Trazado 992551" d="M723.473,45.931S640.2-1.4,582.935,160.349,350.15,256.336,307.57,528.446s272.521,519.21,457.44,318.293S1049.14,90.17,723.473,45.931Z" transform="translate(-846.477 -468.886)" opacity="0.1" fill="url(#linear-gradient)"/>
      <path id="Trazado_992552" data-name="Trazado 992552" d="M528.185,42.93s-44.534-25.312-75.163,61.193-124.5,51.336-147.272,196.867S451.5,578.676,550.4,471.221,702.36,66.59,528.185,42.93Z" transform="translate(-145.84 254.788)" opacity="0.1" fill="url(#linear-gradient)"/>
      <g id="Grupo_1177242" data-name="Grupo 1177242" transform="translate(270.252 -57.109)" opacity="0.2">
        <g id="Grupo_1177177" data-name="Grupo 1177177" clip-path="url(#clip-path-2)">
          <path id="Trazado_992331" data-name="Trazado 992331" d="M48.578,3.491l2.9-3.18a.905.905,0,0,1,1.366,0l2.9,3.18a1.136,1.136,0,0,1,0,1.5l-2.9,3.18a.905.905,0,0,1-1.366,0l-2.9-3.18a1.136,1.136,0,0,1,0-1.5" transform="translate(-21.377 0)" fill="#3b3297"/>
          <path id="Trazado_992332" data-name="Trazado 992332" d="M48.578,28.782l2.9-3.18a.905.905,0,0,1,1.366,0l2.9,3.18a1.136,1.136,0,0,1,0,1.5l-2.9,3.18a.905.905,0,0,1-1.366,0l-2.9-3.18a1.136,1.136,0,0,1,0-1.5" transform="translate(-21.377 -9.811)" fill="#3b3297"/>
          <path id="Trazado_992333" data-name="Trazado 992333" d="M48.578,54.073l2.9-3.18a.905.905,0,0,1,1.366,0l2.9,3.18a1.137,1.137,0,0,1,0,1.5l-2.9,3.18a.905.905,0,0,1-1.366,0l-2.9-3.18a1.137,1.137,0,0,1,0-1.5" transform="translate(-21.377 -19.621)" fill="#3b3297"/>
          <path id="Trazado_992334" data-name="Trazado 992334" d="M48.578,79.363l2.9-3.18a.905.905,0,0,1,1.366,0l2.9,3.18a1.136,1.136,0,0,1,0,1.5l-2.9,3.18a.905.905,0,0,1-1.366,0l-2.9-3.18a1.136,1.136,0,0,1,0-1.5" transform="translate(-21.377 -29.432)" fill="#3b3297"/>
          <path id="Trazado_992335" data-name="Trazado 992335" d="M48.578,104.654l2.9-3.18a.905.905,0,0,1,1.366,0l2.9,3.18a1.136,1.136,0,0,1,0,1.5l-2.9,3.18a.905.905,0,0,1-1.366,0l-2.9-3.18a1.136,1.136,0,0,1,0-1.5" transform="translate(-21.377 -39.242)" fill="#3b3297"/>
          <path id="Trazado_992336" data-name="Trazado 992336" d="M48.578,129.945l2.9-3.18a.905.905,0,0,1,1.366,0l2.9,3.18a1.136,1.136,0,0,1,0,1.5l-2.9,3.18a.905.905,0,0,1-1.366,0l-2.9-3.18a1.136,1.136,0,0,1,0-1.5" transform="translate(-21.377 -49.053)" fill="#3b3297"/>
          <path id="Trazado_992337" data-name="Trazado 992337" d="M24.43,3.491l2.9-3.18a.905.905,0,0,1,1.366,0l2.9,3.18a1.136,1.136,0,0,1,0,1.5l-2.9,3.18a.905.905,0,0,1-1.366,0l-2.9-3.18a1.135,1.135,0,0,1,0-1.5" transform="translate(-10.688 0)" fill="#3b3297"/>
          <path id="Trazado_992338" data-name="Trazado 992338" d="M24.43,28.782l2.9-3.18a.905.905,0,0,1,1.366,0l2.9,3.18a1.136,1.136,0,0,1,0,1.5l-2.9,3.18a.905.905,0,0,1-1.366,0l-2.9-3.18a1.135,1.135,0,0,1,0-1.5" transform="translate(-10.688 -9.811)" fill="#3b3297"/>
          <path id="Trazado_992339" data-name="Trazado 992339" d="M24.43,54.073l2.9-3.18a.905.905,0,0,1,1.366,0l2.9,3.18a1.137,1.137,0,0,1,0,1.5l-2.9,3.18a.905.905,0,0,1-1.366,0l-2.9-3.18a1.136,1.136,0,0,1,0-1.5" transform="translate(-10.688 -19.621)" fill="#3b3297"/>
          <path id="Trazado_992340" data-name="Trazado 992340" d="M24.43,79.363l2.9-3.18a.905.905,0,0,1,1.366,0l2.9,3.18a1.136,1.136,0,0,1,0,1.5l-2.9,3.18a.905.905,0,0,1-1.366,0l-2.9-3.18a1.135,1.135,0,0,1,0-1.5" transform="translate(-10.688 -29.432)" fill="#3b3297"/>
          <path id="Trazado_992341" data-name="Trazado 992341" d="M24.43,104.654l2.9-3.18a.905.905,0,0,1,1.366,0l2.9,3.18a1.136,1.136,0,0,1,0,1.5l-2.9,3.18a.905.905,0,0,1-1.366,0l-2.9-3.18a1.135,1.135,0,0,1,0-1.5" transform="translate(-10.688 -39.242)" fill="#3b3297"/>
          <path id="Trazado_992342" data-name="Trazado 992342" d="M24.43,129.945l2.9-3.18a.905.905,0,0,1,1.366,0l2.9,3.18a1.136,1.136,0,0,1,0,1.5l-2.9,3.18a.905.905,0,0,1-1.366,0l-2.9-3.18a1.135,1.135,0,0,1,0-1.5" transform="translate(-10.688 -49.053)" fill="#3b3297"/>
          <path id="Trazado_992343" data-name="Trazado 992343" d="M.283,3.491l2.9-3.18a.905.905,0,0,1,1.366,0l2.9,3.18a1.137,1.137,0,0,1,0,1.5l-2.9,3.18a.905.905,0,0,1-1.366,0l-2.9-3.18a1.136,1.136,0,0,1,0-1.5" transform="translate(0 0)" fill="#3b3297"/>
          <path id="Trazado_992344" data-name="Trazado 992344" d="M.283,28.782l2.9-3.18a.905.905,0,0,1,1.366,0l2.9,3.18a1.137,1.137,0,0,1,0,1.5l-2.9,3.18a.905.905,0,0,1-1.366,0l-2.9-3.18a1.136,1.136,0,0,1,0-1.5" transform="translate(0 -9.811)" fill="#3b3297"/>
          <path id="Trazado_992345" data-name="Trazado 992345" d="M.283,54.073l2.9-3.18a.905.905,0,0,1,1.366,0l2.9,3.18a1.138,1.138,0,0,1,0,1.5l-2.9,3.18a.905.905,0,0,1-1.366,0l-2.9-3.18a1.137,1.137,0,0,1,0-1.5" transform="translate(0 -19.621)" fill="#3b3297"/>
          <path id="Trazado_992346" data-name="Trazado 992346" d="M.283,79.363l2.9-3.18a.905.905,0,0,1,1.366,0l2.9,3.18a1.137,1.137,0,0,1,0,1.5l-2.9,3.18a.905.905,0,0,1-1.366,0l-2.9-3.18a1.136,1.136,0,0,1,0-1.5" transform="translate(0 -29.432)" fill="#3b3297"/>
          <path id="Trazado_992347" data-name="Trazado 992347" d="M.283,104.654l2.9-3.18a.905.905,0,0,1,1.366,0l2.9,3.18a1.137,1.137,0,0,1,0,1.5l-2.9,3.18a.905.905,0,0,1-1.366,0l-2.9-3.18a1.136,1.136,0,0,1,0-1.5" transform="translate(0 -39.242)" fill="#3b3297"/>
          <path id="Trazado_992348" data-name="Trazado 992348" d="M.283,129.945l2.9-3.18a.905.905,0,0,1,1.366,0l2.9,3.18a1.137,1.137,0,0,1,0,1.5l-2.9,3.18a.905.905,0,0,1-1.366,0l-2.9-3.18a1.136,1.136,0,0,1,0-1.5" transform="translate(0 -49.053)" fill="#3b3297"/>
        </g>
      </g>
      <g id="Grupo_1177243" data-name="Grupo 1177243" transform="translate(-21.164 339.333)" opacity="0.2">
        <g id="Grupo_1177177-2" data-name="Grupo 1177177" clip-path="url(#clip-path-2)">
          <path id="Trazado_992331-2" data-name="Trazado 992331" d="M48.578,3.491l2.9-3.18a.905.905,0,0,1,1.366,0l2.9,3.18a1.136,1.136,0,0,1,0,1.5l-2.9,3.18a.905.905,0,0,1-1.366,0l-2.9-3.18a1.136,1.136,0,0,1,0-1.5" transform="translate(-21.377 0)" fill="#3b3297"/>
          <path id="Trazado_992332-2" data-name="Trazado 992332" d="M48.578,28.782l2.9-3.18a.905.905,0,0,1,1.366,0l2.9,3.18a1.136,1.136,0,0,1,0,1.5l-2.9,3.18a.905.905,0,0,1-1.366,0l-2.9-3.18a1.136,1.136,0,0,1,0-1.5" transform="translate(-21.377 -9.811)" fill="#3b3297"/>
          <path id="Trazado_992333-2" data-name="Trazado 992333" d="M48.578,54.073l2.9-3.18a.905.905,0,0,1,1.366,0l2.9,3.18a1.137,1.137,0,0,1,0,1.5l-2.9,3.18a.905.905,0,0,1-1.366,0l-2.9-3.18a1.137,1.137,0,0,1,0-1.5" transform="translate(-21.377 -19.621)" fill="#3b3297"/>
          <path id="Trazado_992334-2" data-name="Trazado 992334" d="M48.578,79.363l2.9-3.18a.905.905,0,0,1,1.366,0l2.9,3.18a1.136,1.136,0,0,1,0,1.5l-2.9,3.18a.905.905,0,0,1-1.366,0l-2.9-3.18a1.136,1.136,0,0,1,0-1.5" transform="translate(-21.377 -29.432)" fill="#3b3297"/>
          <path id="Trazado_992335-2" data-name="Trazado 992335" d="M48.578,104.654l2.9-3.18a.905.905,0,0,1,1.366,0l2.9,3.18a1.136,1.136,0,0,1,0,1.5l-2.9,3.18a.905.905,0,0,1-1.366,0l-2.9-3.18a1.136,1.136,0,0,1,0-1.5" transform="translate(-21.377 -39.242)" fill="#3b3297"/>
          <path id="Trazado_992336-2" data-name="Trazado 992336" d="M48.578,129.945l2.9-3.18a.905.905,0,0,1,1.366,0l2.9,3.18a1.136,1.136,0,0,1,0,1.5l-2.9,3.18a.905.905,0,0,1-1.366,0l-2.9-3.18a1.136,1.136,0,0,1,0-1.5" transform="translate(-21.377 -49.053)" fill="#3b3297"/>
          <path id="Trazado_992337-2" data-name="Trazado 992337" d="M24.43,3.491l2.9-3.18a.905.905,0,0,1,1.366,0l2.9,3.18a1.136,1.136,0,0,1,0,1.5l-2.9,3.18a.905.905,0,0,1-1.366,0l-2.9-3.18a1.135,1.135,0,0,1,0-1.5" transform="translate(-10.688 0)" fill="#3b3297"/>
          <path id="Trazado_992338-2" data-name="Trazado 992338" d="M24.43,28.782l2.9-3.18a.905.905,0,0,1,1.366,0l2.9,3.18a1.136,1.136,0,0,1,0,1.5l-2.9,3.18a.905.905,0,0,1-1.366,0l-2.9-3.18a1.135,1.135,0,0,1,0-1.5" transform="translate(-10.688 -9.811)" fill="#3b3297"/>
          <path id="Trazado_992339-2" data-name="Trazado 992339" d="M24.43,54.073l2.9-3.18a.905.905,0,0,1,1.366,0l2.9,3.18a1.137,1.137,0,0,1,0,1.5l-2.9,3.18a.905.905,0,0,1-1.366,0l-2.9-3.18a1.136,1.136,0,0,1,0-1.5" transform="translate(-10.688 -19.621)" fill="#3b3297"/>
          <path id="Trazado_992340-2" data-name="Trazado 992340" d="M24.43,79.363l2.9-3.18a.905.905,0,0,1,1.366,0l2.9,3.18a1.136,1.136,0,0,1,0,1.5l-2.9,3.18a.905.905,0,0,1-1.366,0l-2.9-3.18a1.135,1.135,0,0,1,0-1.5" transform="translate(-10.688 -29.432)" fill="#3b3297"/>
          <path id="Trazado_992341-2" data-name="Trazado 992341" d="M24.43,104.654l2.9-3.18a.905.905,0,0,1,1.366,0l2.9,3.18a1.136,1.136,0,0,1,0,1.5l-2.9,3.18a.905.905,0,0,1-1.366,0l-2.9-3.18a1.135,1.135,0,0,1,0-1.5" transform="translate(-10.688 -39.242)" fill="#3b3297"/>
          <path id="Trazado_992342-2" data-name="Trazado 992342" d="M24.43,129.945l2.9-3.18a.905.905,0,0,1,1.366,0l2.9,3.18a1.136,1.136,0,0,1,0,1.5l-2.9,3.18a.905.905,0,0,1-1.366,0l-2.9-3.18a1.135,1.135,0,0,1,0-1.5" transform="translate(-10.688 -49.053)" fill="#3b3297"/>
          <path id="Trazado_992343-2" data-name="Trazado 992343" d="M.283,3.491l2.9-3.18a.905.905,0,0,1,1.366,0l2.9,3.18a1.137,1.137,0,0,1,0,1.5l-2.9,3.18a.905.905,0,0,1-1.366,0l-2.9-3.18a1.136,1.136,0,0,1,0-1.5" transform="translate(0 0)" fill="#3b3297"/>
          <path id="Trazado_992344-2" data-name="Trazado 992344" d="M.283,28.782l2.9-3.18a.905.905,0,0,1,1.366,0l2.9,3.18a1.137,1.137,0,0,1,0,1.5l-2.9,3.18a.905.905,0,0,1-1.366,0l-2.9-3.18a1.136,1.136,0,0,1,0-1.5" transform="translate(0 -9.811)" fill="#3b3297"/>
          <path id="Trazado_992345-2" data-name="Trazado 992345" d="M.283,54.073l2.9-3.18a.905.905,0,0,1,1.366,0l2.9,3.18a1.138,1.138,0,0,1,0,1.5l-2.9,3.18a.905.905,0,0,1-1.366,0l-2.9-3.18a1.137,1.137,0,0,1,0-1.5" transform="translate(0 -19.621)" fill="#3b3297"/>
          <path id="Trazado_992346-2" data-name="Trazado 992346" d="M.283,79.363l2.9-3.18a.905.905,0,0,1,1.366,0l2.9,3.18a1.137,1.137,0,0,1,0,1.5l-2.9,3.18a.905.905,0,0,1-1.366,0l-2.9-3.18a1.136,1.136,0,0,1,0-1.5" transform="translate(0 -29.432)" fill="#3b3297"/>
          <path id="Trazado_992347-2" data-name="Trazado 992347" d="M.283,104.654l2.9-3.18a.905.905,0,0,1,1.366,0l2.9,3.18a1.137,1.137,0,0,1,0,1.5l-2.9,3.18a.905.905,0,0,1-1.366,0l-2.9-3.18a1.136,1.136,0,0,1,0-1.5" transform="translate(0 -39.242)" fill="#3b3297"/>
          <path id="Trazado_992348-2" data-name="Trazado 992348" d="M.283,129.945l2.9-3.18a.905.905,0,0,1,1.366,0l2.9,3.18a1.137,1.137,0,0,1,0,1.5l-2.9,3.18a.905.905,0,0,1-1.366,0l-2.9-3.18a1.136,1.136,0,0,1,0-1.5" transform="translate(0 -49.053)" fill="#3b3297"/>
        </g>
      </g>
      <g id="Grupo_1176852" data-name="Grupo 1176852" transform="translate(-32.762 -24.814)" opacity="0.1">
        <g id="Grupo_1176803" data-name="Grupo 1176803" clip-path="url(#clip-path-4)">
          <path id="Trazado_991609" data-name="Trazado 991609" d="M56.426,21.823,50.475,1.712a2.2,2.2,0,0,0-4.291,0L40.233,21.823a2.184,2.184,0,0,1-3.472,1.239L21.183,10.632c-1.768-1.411-4.147.487-3.472,2.77l5.95,20.111a2.449,2.449,0,0,1-2.146,3.243H2.261c-2.186,0-3.094,3.072-1.326,4.482L16.513,53.668a2.625,2.625,0,0,1,0,4.009L.935,70.106c-1.768,1.411-.859,4.482,1.326,4.482H21.516a2.449,2.449,0,0,1,2.146,3.243l-5.95,20.111c-.675,2.283,1.7,4.181,3.472,2.77L36.762,88.284a2.184,2.184,0,0,1,3.472,1.239l5.951,20.111a2.2,2.2,0,0,0,4.291,0l5.95-20.111A2.184,2.184,0,0,1,59.9,88.284l15.578,12.429c1.768,1.411,4.147-.487,3.472-2.77L73,77.832a2.449,2.449,0,0,1,2.146-3.243H94.4c2.186,0,3.094-3.071,1.326-4.482L80.146,57.677a2.625,2.625,0,0,1,0-4.009L95.725,41.239c1.768-1.411.859-4.482-1.326-4.482H75.143A2.449,2.449,0,0,1,73,33.514L78.947,13.4c.676-2.283-1.7-4.181-3.472-2.77L59.9,23.062a2.184,2.184,0,0,1-3.472-1.239" transform="translate(0)" fill="#3b3297"/>
        </g>
      </g>
    </g>
  </g>
</svg>
