<svg xmlns="http://www.w3.org/2000/svg" width="84.583" height="67" viewBox="0 0 84.583 67">
  <g id="Grupo_1177877" data-name="Grupo 1177877" transform="translate(-184.954 -672)">
    <rect id="Image_Place_Holder" data-name="Image Place Holder" width="84.583" height="67" rx="10" transform="translate(184.954 672)" fill="#e795ff"/>
    <g id="Grupo_1177876" data-name="Grupo 1177876" transform="translate(203.112 682)">
      <g id="Grupo_1177874" data-name="Grupo 1177874" transform="translate(2.522 0.68)">
        <path id="Trazado_995334" data-name="Trazado 995334" d="M40.643,7.5H10.793A1.451,1.451,0,0,0,9.342,8.951v38.18a1.451,1.451,0,0,0,1.451,1.451h29.85a1.451,1.451,0,0,0,1.451-1.451V8.951A1.45,1.45,0,0,0,40.643,7.5Z" transform="translate(-9.342 -7.5)" fill="#9dc6fb"/>
        <path id="Trazado_995335" data-name="Trazado 995335" d="M328.789,7.5h-2.57a1.451,1.451,0,0,1,1.451,1.451v38.18a1.451,1.451,0,0,1-1.451,1.451h2.57a1.451,1.451,0,0,0,1.451-1.451V8.951A1.451,1.451,0,0,0,328.789,7.5Z" transform="translate(-297.488 -7.5)" fill="#80b4fb"/>
        <path id="Trazado_995336" data-name="Trazado 995336" d="M33.391,51.4a1.451,1.451,0,0,0-1.451,1.451V88.5H61.192a1.451,1.451,0,0,0,1.451-1.451V51.4Z" transform="translate(-29.891 -47.422)" fill="#80b4fb"/>
        <path id="Trazado_995337" data-name="Trazado 995337" d="M449.517,383.378l1.161-2.677H445.5l1.161,2.677Z" transform="translate(-405.951 -346.864)" fill="#bed8fb"/>
        <path id="Trazado_995338" data-name="Trazado 995338" d="M468.332,380.7l-1.161,2.677h2.056l1.161-2.677Z" transform="translate(-425.661 -346.864)" fill="#9dc6fb"/>
        <path id="Trazado_995339" data-name="Trazado 995339" d="M53.233,92.484h29.85a1.451,1.451,0,0,0,1.451-1.451V52.854A1.451,1.451,0,0,0,83.083,51.4H53.233a1.451,1.451,0,0,0-1.451,1.451v38.18A1.451,1.451,0,0,0,53.233,92.484Z" transform="translate(-47.934 -47.422)" fill="#e7ecf6"/>
        <g id="Grupo_1177873" data-name="Grupo 1177873" transform="translate(9.161 9.542)">
          <circle id="Elipse_13645" data-name="Elipse 13645" cx="2.031" cy="2.031" r="2.031" fill="#e28086"/>
          <circle id="Elipse_13646" data-name="Elipse 13646" cx="2.031" cy="2.031" r="2.031" transform="translate(0 8.738)" fill="#e28086"/>
          <circle id="Elipse_13647" data-name="Elipse 13647" cx="2.031" cy="2.031" r="2.031" transform="translate(0 17.477)" fill="#e28086"/>
          <circle id="Elipse_13648" data-name="Elipse 13648" cx="2.031" cy="2.031" r="2.031" transform="translate(0 26.215)" fill="#e28086"/>
        </g>
        <path id="Trazado_995340" data-name="Trazado 995340" d="M460.141,412.59l1.025-2.362h-2.86l1.025,2.362A.418.418,0,0,0,460.141,412.59Z" transform="translate(-417.599 -373.714)" fill="#017297"/>
        <path id="Trazado_995341" data-name="Trazado 995341" d="M450.679,183.747H445.5V201.6h5.183Z" transform="translate(-405.951 -167.767)" fill="#e28086"/>
        <path id="Trazado_995342" data-name="Trazado 995342" d="M445.5,142.309h5.183v-2.492a1.494,1.494,0,0,0-1.281-1.64h-2.621a1.494,1.494,0,0,0-1.281,1.64Z" transform="translate(-405.952 -126.329)" fill="#ecbe6b"/>
        <path id="Trazado_995343" data-name="Trazado 995343" d="M482.037,183.747h-2.056V201.6h2.056Z" transform="translate(-437.309 -167.767)" fill="#dd636e"/>
        <path id="Trazado_995344" data-name="Trazado 995344" d="M467.909,138.177h-2.056a1.494,1.494,0,0,1,1.281,1.64v2.492h2.056v-2.492A1.494,1.494,0,0,0,467.909,138.177Z" transform="translate(-424.462 -126.329)" fill="#eab14d"/>
        <path id="Trazado_995345" data-name="Trazado 995345" d="M463.141,410.228l-.4.926.623,1.435a.418.418,0,0,0,.811,0l1.025-2.362Z" transform="translate(-421.63 -373.714)" fill="#2b4d66"/>
        <path id="Trazado_995346" data-name="Trazado 995346" d="M371.229,51.4h-2.57a1.451,1.451,0,0,1,1.451,1.451v38.18a1.451,1.451,0,0,1-1.451,1.451h2.57a1.451,1.451,0,0,0,1.451-1.451V52.854A1.451,1.451,0,0,0,371.229,51.4Z" transform="translate(-336.081 -47.422)" fill="#d8e2f1"/>
      </g>
      <g id="Grupo_1177875" data-name="Grupo 1177875" transform="translate(1.842)">
        <path id="Trazado_995347" data-name="Trazado 995347" d="M37.671,3.981H35.953V2.131A2.133,2.133,0,0,0,33.823,0H14.808a.68.68,0,0,0,0,1.36H33.823a.772.772,0,0,1,.771.771v1.85H7.821A2.133,2.133,0,0,0,5.69,6.111v34.97H3.973a.772.772,0,0,1-.771-.771V2.131a.772.772,0,0,1,.771-.771h7.654a.68.68,0,0,0,0-1.36H3.973A2.133,2.133,0,0,0,1.842,2.131v38.18a2.133,2.133,0,0,0,2.131,2.131H5.69v1.85a2.133,2.133,0,0,0,2.131,2.131h29.85A2.133,2.133,0,0,0,39.8,44.291V6.111a2.133,2.133,0,0,0-2.131-2.131Zm.771,40.311a.772.772,0,0,1-.771.771H7.821a.772.772,0,0,1-.771-.771V6.111a.772.772,0,0,1,.771-.771h29.85a.772.772,0,0,1,.771.771Z" transform="translate(-1.842)"/>
        <path id="Trazado_995348" data-name="Trazado 995348" d="M105.591,105.236a2.711,2.711,0,1,0,2.711,2.711A2.714,2.714,0,0,0,105.591,105.236Zm0,4.062a1.351,1.351,0,1,1,1.351-1.351A1.353,1.353,0,0,1,105.591,109.3Z" transform="translate(-93.719 -95.694)"/>
        <path id="Trazado_995349" data-name="Trazado 995349" d="M195.447,111.988h-15.17a.68.68,0,1,0,0,1.36h15.17a.68.68,0,1,0,0-1.36Z" transform="translate(-163.48 -101.834)"/>
        <path id="Trazado_995350" data-name="Trazado 995350" d="M180.277,144.645h11.884a.68.68,0,1,0,0-1.36H180.277a.68.68,0,1,0,0,1.36Z" transform="translate(-163.48 -130.294)"/>
        <path id="Trazado_995351" data-name="Trazado 995351" d="M105.591,201.614a2.711,2.711,0,1,0,2.711,2.711,2.714,2.714,0,0,0-2.711-2.711Zm0,4.062a1.351,1.351,0,1,1,1.351-1.351A1.353,1.353,0,0,1,105.591,205.676Z" transform="translate(-93.719 -183.334)"/>
        <path id="Trazado_995352" data-name="Trazado 995352" d="M195.447,208.366h-15.17a.68.68,0,0,0,0,1.36h15.17a.68.68,0,1,0,0-1.36Z" transform="translate(-163.48 -189.474)"/>
        <path id="Trazado_995353" data-name="Trazado 995353" d="M180.277,241.023h11.884a.68.68,0,1,0,0-1.36H180.277a.68.68,0,1,0,0,1.36Z" transform="translate(-163.48 -217.933)"/>
        <path id="Trazado_995354" data-name="Trazado 995354" d="M105.591,297.992A2.711,2.711,0,1,0,108.3,300.7,2.714,2.714,0,0,0,105.591,297.992Zm0,4.062a1.351,1.351,0,1,1,1.351-1.351A1.353,1.353,0,0,1,105.591,302.054Z" transform="translate(-93.719 -270.974)"/>
        <path id="Trazado_995355" data-name="Trazado 995355" d="M195.447,304.744h-15.17a.68.68,0,1,0,0,1.36h15.17a.68.68,0,1,0,0-1.36Z" transform="translate(-163.48 -277.114)"/>
        <path id="Trazado_995356" data-name="Trazado 995356" d="M180.277,337.4h11.884a.68.68,0,1,0,0-1.36H180.277a.68.68,0,1,0,0,1.36Z" transform="translate(-163.48 -305.573)"/>
        <path id="Trazado_995357" data-name="Trazado 995357" d="M105.591,394.37a2.711,2.711,0,1,0,2.711,2.711A2.714,2.714,0,0,0,105.591,394.37Zm0,4.062a1.351,1.351,0,1,1,1.351-1.351A1.353,1.353,0,0,1,105.591,398.432Z" transform="translate(-93.719 -358.613)"/>
        <path id="Trazado_995358" data-name="Trazado 995358" d="M195.447,401.122h-15.17a.68.68,0,0,0,0,1.36h15.17a.68.68,0,1,0,0-1.36Z" transform="translate(-163.48 -364.753)"/>
        <path id="Trazado_995359" data-name="Trazado 995359" d="M192.161,432.419H180.277a.68.68,0,1,0,0,1.36h11.884a.68.68,0,1,0,0-1.36Z" transform="translate(-163.48 -393.213)"/>
        <path id="Trazado_995360" data-name="Trazado 995360" d="M442.578,130.677h-2.621A2.153,2.153,0,0,0,438,133c0,.975,0,7.308,0,8.814a.68.68,0,1,0,1.36,0v-5.642h3.823v16.5h-3.823v-7.682a.68.68,0,1,0-1.36,0v8.362a.7.7,0,0,0,.056.27h0l2.186,5.039a1.093,1.093,0,0,0,2.058,0l2.186-5.039h0a.7.7,0,0,0,.056-.269V133A2.165,2.165,0,0,0,442.578,130.677Zm-3.222,4.132V133c0-.542.305-.96.6-.96h2.621c.284,0,.6.394.6.96v1.812Zm1.911,22.8-1.555-3.584h3.11Z" transform="translate(-398.451 -118.829)"/>
      </g>
    </g>
  </g>
</svg>
