<svg xmlns="http://www.w3.org/2000/svg" xmlns:xlink="http://www.w3.org/1999/xlink" width="96" height="96" viewBox="0 0 96 96">
  <defs>
    <clipPath id="clip-path">
      <rect id="Rect치ngulo_454535" data-name="Rect치ngulo 454535" width="25.231" height="26.467" fill="#cff878"/>
    </clipPath>
  </defs>
  <g id="Grupo_1192530" data-name="Grupo 1192530" transform="translate(-735.746 -1018.999)">
    <path id="Elipse_5729" data-name="Elipse 5729" d="M48,0A48,48,0,1,1,0,48,48,48,0,0,1,48,0Z" transform="translate(735.746 1018.999)" fill="#e795ff"/>
    <g id="Grupo_1192476" data-name="Grupo 1192476" transform="translate(578 82)">
      <rect id="Rect치ngulo_455479" data-name="Rect치ngulo 455479" width="70" height="70" rx="35" transform="translate(170.711 950)" fill="#f8dfff"/>
      <g id="Grupo_1192522" data-name="Grupo 1192522" transform="translate(174.711 954)">
        <g id="Grupo_1176862" data-name="Grupo 1176862" clip-path="url(#clip-path)">
          <path id="Trazado_991676" data-name="Trazado 991676" d="M14.729,5.187,13.176.407a.589.589,0,0,0-1.12,0L10.5,5.187a.589.589,0,0,1-.906.294L5.53,2.527a.589.589,0,0,0-.906.658l1.553,4.78a.589.589,0,0,1-.56.771H.59A.589.589,0,0,0,.244,9.8l4.066,2.954a.589.589,0,0,1,0,.953L.244,16.664A.589.589,0,0,0,.59,17.73H5.617a.589.589,0,0,1,.56.771l-1.553,4.78a.589.589,0,0,0,.906.659L9.6,20.985a.589.589,0,0,1,.906.294l1.553,4.78a.589.589,0,0,0,1.12,0l1.553-4.78a.589.589,0,0,1,.906-.294L19.7,23.94a.589.589,0,0,0,.906-.658L19.055,18.5a.589.589,0,0,1,.56-.771h5.026a.589.589,0,0,0,.346-1.065L20.922,13.71a.589.589,0,0,1,0-.953L24.988,9.8a.589.589,0,0,0-.346-1.065H19.615a.589.589,0,0,1-.56-.771l1.553-4.78a.589.589,0,0,0-.906-.658L15.636,5.482a.589.589,0,0,1-.906-.294" transform="translate(0 0)" fill="#cff878"/>
        </g>
      </g>
      <g id="Grupo_1193212" data-name="Grupo 1193212" transform="translate(174.71 890.617)">
        <path id="Trazado_1006879" data-name="Trazado 1006879" d="M57.96,104.8,61,100.355a5.71,5.71,0,0,0-.736-7.332l-5.768-5.606V77.53a1.953,1.953,0,0,0-1.951-1.951H50.726V73.642A1.529,1.529,0,0,0,49.2,72.114H35.941A5.848,5.848,0,0,0,31,74.838a5.848,5.848,0,0,0-4.94-2.724H22.2a.908.908,0,1,0,0,1.816H26.06a4.037,4.037,0,0,1,4.032,4.032V95.119a1.431,1.431,0,0,1-1.43,1.43H13.906l1.359-2.627a2.431,2.431,0,0,0-2.174-3.548V73.93h5.481a.908.908,0,0,0,0-1.816H12.8a1.529,1.529,0,0,0-1.528,1.528v1.937H9.457A1.953,1.953,0,0,0,7.506,77.53v9.888L1.738,93.023A5.71,5.71,0,0,0,1,100.355l3.04,4.447a2.293,2.293,0,0,1,.4,1.3v2.479H3.752a1.664,1.664,0,0,0-1.662,1.662v4.747a1.664,1.664,0,0,0,1.662,1.662H5.539a.908.908,0,0,0,0-1.816H3.906V110.4h9.108v4.439H9.17a.908.908,0,0,0,0,1.816h4a1.664,1.664,0,0,0,1.662-1.662v-4.747a1.664,1.664,0,0,0-1.662-1.662h-.332l.058-2.771a4.13,4.13,0,0,1,.23-1.267,5.135,5.135,0,0,0,.255-2.231H27.066c.119,0,.083.068.311.564a1.919,1.919,0,0,0,1.832,1.319h3.584a1.919,1.919,0,0,0,1.832-1.319c.23-.5.193-.564.311-.564H48.621a5.132,5.132,0,0,0,.256,2.231,4.124,4.124,0,0,1,.23,1.265l.058,2.773h-.332a1.664,1.664,0,0,0-1.662,1.662v4.747a1.664,1.664,0,0,0,1.662,1.662h2.939a.908.908,0,1,0,0-1.816H48.986V110.4h9.108v4.439H55.4a.908.908,0,0,0,0,1.816h2.847a1.664,1.664,0,0,0,1.662-1.662v-4.747a1.664,1.664,0,0,0-1.662-1.662h-.691V106.1a2.291,2.291,0,0,1,.4-1.3ZM52.544,77.4a.135.135,0,0,1,.135.135v15.7L50.726,91.2V77.4Zm-16.6-3.465H48.91V90.374a2.43,2.43,0,0,0-2.174,3.548l1.359,2.626H33.338a1.431,1.431,0,0,1-1.43-1.43V77.963A4.037,4.037,0,0,1,35.941,73.93ZM9.457,77.4h1.818V91.2L9.322,93.23V77.53A.135.135,0,0,1,9.457,77.4Zm-3.2,31.184V106.1a4.1,4.1,0,0,0-.718-2.324L2.5,99.33a3.9,3.9,0,0,1,.5-5l4.5-4.376v5.168L5.76,96.933a.908.908,0,0,0,1.309,1.259l5.593-5.814a.616.616,0,0,1,.99.71l-2.994,5.788a1.658,1.658,0,0,0,.179,1.854,3.348,3.348,0,0,1,.573,3.213,5.944,5.944,0,0,0-.331,1.826l-.058,2.811H6.259Zm28.676-8.085a1.919,1.919,0,0,0-1.832,1.319c-.23.5-.193.564-.311.564H29.208c-.119,0-.083-.068-.311-.564a1.919,1.919,0,0,0-1.832-1.319H12.84a5.082,5.082,0,0,0-.539-.842l.666-1.287h15.7a3.236,3.236,0,0,0,2.338-1,3.236,3.236,0,0,0,2.338,1h15.7l.666,1.287a5.082,5.082,0,0,0-.539.842Zm16.046,8.085-.058-2.813a5.942,5.942,0,0,0-.331-1.824,3.348,3.348,0,0,1,.573-3.213,1.658,1.658,0,0,0,.179-1.854l-2.994-5.788a.616.616,0,0,1,.99-.71l5.593,5.814a.908.908,0,0,0,1.309-1.259l-1.747-1.816V89.95L59,94.325a3.9,3.9,0,0,1,.5,5l-3.039,4.447a4.1,4.1,0,0,0-.718,2.324v2.479H50.981Z" transform="translate(0)" fill="#5c3b66"/>
        <path id="Trazado_1006880" data-name="Trazado 1006880" d="M288.825,117.12H297.5a.908.908,0,1,0,0-1.816h-8.674a.908.908,0,0,0,0,1.816Z" transform="translate(-253.055 -37.961)" fill="#5c3b66"/>
        <path id="Trazado_1006881" data-name="Trazado 1006881" d="M288.825,155.6H297.5a.908.908,0,1,0,0-1.816h-8.674a.908.908,0,0,0,0,1.816Z" transform="translate(-253.055 -71.777)" fill="#5c3b66"/>
        <path id="Trazado_1006882" data-name="Trazado 1006882" d="M288.825,194.071H297.5a.908.908,0,1,0,0-1.816h-8.674a.908.908,0,0,0,0,1.816Z" transform="translate(-253.055 -105.594)" fill="#5c3b66"/>
        <path id="Trazado_1006883" data-name="Trazado 1006883" d="M288.825,232.546H297.5a.908.908,0,1,0,0-1.816h-8.674a.908.908,0,0,0,0,1.816Z" transform="translate(-253.055 -139.411)" fill="#5c3b66"/>
        <path id="Trazado_1006884" data-name="Trazado 1006884" d="M147.085,115.3h-8.674a.908.908,0,0,0,0,1.816h8.674a.908.908,0,1,0,0-1.816Z" transform="translate(-120.854 -37.961)" fill="#5c3b66"/>
        <path id="Trazado_1006885" data-name="Trazado 1006885" d="M147.085,153.779h-8.674a.908.908,0,0,0,0,1.816h8.674a.908.908,0,0,0,0-1.816Z" transform="translate(-120.854 -71.777)" fill="#5c3b66"/>
        <path id="Trazado_1006886" data-name="Trazado 1006886" d="M147.085,192.255h-8.674a.908.908,0,1,0,0,1.816h8.674a.908.908,0,1,0,0-1.816Z" transform="translate(-120.854 -105.594)" fill="#5c3b66"/>
        <path id="Trazado_1006887" data-name="Trazado 1006887" d="M147.085,230.73h-8.674a.908.908,0,0,0,0,1.816h8.674a.908.908,0,0,0,0-1.816Z" transform="translate(-120.854 -139.411)" fill="#5c3b66"/>
      </g>
    </g>
  </g>
</svg>
