<svg xmlns="http://www.w3.org/2000/svg" xmlns:xlink="http://www.w3.org/1999/xlink" width="96" height="96" viewBox="0 0 96 96">
  <defs>
    <clipPath id="clip-path">
      <rect id="Rect치ngulo_454535" data-name="Rect치ngulo 454535" width="25.231" height="26.467" fill="#cff878"/>
    </clipPath>
  </defs>
  <g id="Grupo_1192531" data-name="Grupo 1192531" transform="translate(-962.711 -1018.999)">
    <path id="Elipse_5729" data-name="Elipse 5729" d="M48,0A48,48,0,1,1,0,48,48,48,0,0,1,48,0Z" transform="translate(962.711 1018.999)" fill="#e795ff"/>
    <g id="Grupo_1192477" data-name="Grupo 1192477" transform="translate(805 82)">
      <rect id="Rect치ngulo_455479" data-name="Rect치ngulo 455479" width="70" height="70" rx="35" transform="translate(170.711 950)" fill="#f8dfff"/>
      <g id="Grupo_1192523" data-name="Grupo 1192523" transform="translate(174.711 954)">
        <g id="Grupo_1176862" data-name="Grupo 1176862" clip-path="url(#clip-path)">
          <path id="Trazado_991676" data-name="Trazado 991676" d="M14.729,5.187,13.176.407a.589.589,0,0,0-1.12,0L10.5,5.187a.589.589,0,0,1-.906.294L5.53,2.527a.589.589,0,0,0-.906.658l1.553,4.78a.589.589,0,0,1-.56.771H.59A.589.589,0,0,0,.244,9.8l4.066,2.954a.589.589,0,0,1,0,.953L.244,16.664A.589.589,0,0,0,.59,17.73H5.617a.589.589,0,0,1,.56.771l-1.553,4.78a.589.589,0,0,0,.906.659L9.6,20.985a.589.589,0,0,1,.906.294l1.553,4.78a.589.589,0,0,0,1.12,0l1.553-4.78a.589.589,0,0,1,.906-.294L19.7,23.94a.589.589,0,0,0,.906-.658L19.055,18.5a.589.589,0,0,1,.56-.771h5.026a.589.589,0,0,0,.346-1.065L20.922,13.71a.589.589,0,0,1,0-.953L24.988,9.8a.589.589,0,0,0-.346-1.065H19.615a.589.589,0,0,1-.56-.771l1.553-4.78a.589.589,0,0,0-.906-.658L15.636,5.482a.589.589,0,0,1-.906-.294" transform="translate(0 0)" fill="#cff878"/>
        </g>
      </g>
      <g id="Grupo_1193213" data-name="Grupo 1193213" transform="translate(151.732 954.322)">
        <path id="Trazado_1006888" data-name="Trazado 1006888" d="M62.4,0a14.577,14.577,0,0,0-13.53,9.192H36.362A5.368,5.368,0,0,0,31,14.553V26.911a.766.766,0,0,0,1.532,0V14.553A3.836,3.836,0,0,1,35.6,10.8V41.622a5.353,5.353,0,0,0-3.064,1.56V29.975a.766.766,0,1,0-1.532,0V46.928a5.368,5.368,0,0,0,5.362,5.362H62.4a.766.766,0,0,0,.766-.766V48.46a.766.766,0,0,0-.224-.542,1.4,1.4,0,0,1,0-1.98.766.766,0,0,0,.224-.542V29.086a14.376,14.376,0,0,0,8.318-3.163.766.766,0,1,0-.957-1.2,13.032,13.032,0,0,1-13.8,1.552.766.766,0,0,0-.753.048,7.649,7.649,0,0,1-4.2,1.248,7.747,7.747,0,0,1-1.132-.083A9.308,9.308,0,0,0,53.307,24.7a.766.766,0,0,0-.111-.942A13.022,13.022,0,1,1,72.578,22.68a.766.766,0,0,0,1.2.957,14.4,14.4,0,0,0,3.183-9.084A14.57,14.57,0,0,0,62.4,0Zm-.766,44.63H36.362a2.3,2.3,0,1,0,0,4.6H61.639v1.532H36.362a3.83,3.83,0,0,1,0-7.66H61.639Zm-.533,3.064H39.426a.766.766,0,0,1,0-1.532h21.68a2.935,2.935,0,0,0,0,1.532Zm-23.846,0h-.9a.766.766,0,0,1,0-1.532h.9a2.292,2.292,0,0,0,0,1.532ZM51.676,24.387a7.749,7.749,0,0,1-3.346,2.628.766.766,0,0,0,0,1.42,9.222,9.222,0,0,0,8.122-.6,14.373,14.373,0,0,0,5.187,1.25V41.566H37.128V10.724H48.364a14.558,14.558,0,0,0,3.312,13.664Z" fill="#5c3b66"/>
        <path id="Trazado_1006889" data-name="Trazado 1006889" d="M316,122.3a2.3,2.3,0,1,0,2.3-2.3A2.3,2.3,0,0,0,316,122.3Zm3.064,0a.766.766,0,1,1-.766-.766A.767.767,0,0,1,319.064,122.3Z" transform="translate(-255.893 -107.745)" fill="#5c3b66"/>
        <path id="Trazado_1006890" data-name="Trazado 1006890" d="M256,122.3a2.3,2.3,0,1,0,2.3-2.3A2.3,2.3,0,0,0,256,122.3Zm3.064,0a.766.766,0,1,1-.766-.766A.767.767,0,0,1,259.064,122.3Z" transform="translate(-202.021 -107.745)" fill="#5c3b66"/>
        <path id="Trazado_1006891" data-name="Trazado 1006891" d="M376,122.3a2.3,2.3,0,1,0,2.3-2.3A2.3,2.3,0,0,0,376,122.3Zm3.064,0a.766.766,0,1,1-.766-.766A.767.767,0,0,1,379.064,122.3Z" transform="translate(-309.766 -107.745)" fill="#5c3b66"/>
      </g>
    </g>
  </g>
</svg>
