<svg xmlns="http://www.w3.org/2000/svg" xmlns:xlink="http://www.w3.org/1999/xlink" width="96" height="96" viewBox="0 0 96 96">
  <defs>
    <clipPath id="clip-path">
      <rect id="Rect치ngulo_454535" data-name="Rect치ngulo 454535" width="25.231" height="26.467" fill="#cff878"/>
    </clipPath>
  </defs>
  <g id="Grupo_1192533" data-name="Grupo 1192533" transform="translate(-1192.711 -1019)">
    <path id="Elipse_5729" data-name="Elipse 5729" d="M48,0A48,48,0,1,1,0,48,48,48,0,0,1,48,0Z" transform="translate(1192.711 1019)" fill="#e795ff"/>
    <g id="Grupo_1192479" data-name="Grupo 1192479" transform="translate(1035 82)">
      <rect id="Rect치ngulo_455479" data-name="Rect치ngulo 455479" width="70" height="70" rx="35" transform="translate(170.711 950)" fill="#f8dfff"/>
      <g id="Grupo_1192524" data-name="Grupo 1192524" transform="translate(175.711 955)">
        <g id="Grupo_1176862" data-name="Grupo 1176862" clip-path="url(#clip-path)">
          <path id="Trazado_991676" data-name="Trazado 991676" d="M14.729,5.187,13.176.407a.589.589,0,0,0-1.12,0L10.5,5.187a.589.589,0,0,1-.906.294L5.53,2.527a.589.589,0,0,0-.906.658l1.553,4.78a.589.589,0,0,1-.56.771H.59A.589.589,0,0,0,.244,9.8l4.066,2.954a.589.589,0,0,1,0,.953L.244,16.664A.589.589,0,0,0,.59,17.73H5.617a.589.589,0,0,1,.56.771l-1.553,4.78a.589.589,0,0,0,.906.659L9.6,20.985a.589.589,0,0,1,.906.294l1.553,4.78a.589.589,0,0,0,1.12,0l1.553-4.78a.589.589,0,0,1,.906-.294L19.7,23.94a.589.589,0,0,0,.906-.658L19.055,18.5a.589.589,0,0,1,.56-.771h5.026a.589.589,0,0,0,.346-1.065L20.922,13.71a.589.589,0,0,1,0-.953L24.988,9.8a.589.589,0,0,0-.346-1.065H19.615a.589.589,0,0,1-.56-.771l1.553-4.78a.589.589,0,0,0-.906-.658L15.636,5.482a.589.589,0,0,1-.906-.294" transform="translate(0 0)" fill="#cff878"/>
        </g>
      </g>
      <g id="Grupo_1193214" data-name="Grupo 1193214" transform="translate(156.88 951.453)">
        <path id="Trazado_1006892" data-name="Trazado 1006892" d="M73.87,397.046h-.143l-.637-2.578a3.166,3.166,0,0,0-3.155-2.416,52.61,52.61,0,0,0-16.308,2.731A25.531,25.531,0,0,1,62.4,391.24a31.775,31.775,0,0,1,7.657-.69.879.879,0,0,0,.113-1.755,32.9,32.9,0,0,0-8.083.713,24.354,24.354,0,0,0-13.253,7.071,24.412,24.412,0,0,0-13.313-7.072,33.365,33.365,0,0,0-8.141-.713.879.879,0,0,0,.112,1.755,32.249,32.249,0,0,1,7.717.69,25.686,25.686,0,0,1,8.828,3.549,48.027,48.027,0,0,0-9-2.149.879.879,0,0,0-.251,1.741,44.351,44.351,0,0,1,10.233,2.666H25.747l.533-2.156a1.412,1.412,0,0,1,1.412-1.079c1.023.021,2.048.068,3.047.138a.879.879,0,0,0,.124-1.754c-1.027-.073-2.082-.121-3.135-.142a3.164,3.164,0,0,0-3.155,2.416l-.637,2.578h-.143a2.479,2.479,0,0,0-2.476,2.476v1.219a2.479,2.479,0,0,0,2.476,2.476H73.87a2.479,2.479,0,0,0,2.476-2.476v-1.218A2.479,2.479,0,0,0,73.87,397.046Zm-3.9-3.236a1.415,1.415,0,0,1,1.412,1.079l.533,2.156H52.656A49.272,49.272,0,0,1,69.971,393.81Zm-46.9,6.93v-1.219a.718.718,0,0,1,.717-.717H47.952v2.653H23.793A.718.718,0,0,1,23.076,400.74Zm51.511,0a.718.718,0,0,1-.717.717H49.711V398.8H73.87a.718.718,0,0,1,.717.717Z" transform="translate(0 -343.189)" fill="#5c3b66"/>
        <path id="Trazado_1006893" data-name="Trazado 1006893" d="M148.916,72.976a12.526,12.526,0,0,0,1.913,6.464,17.043,17.043,0,0,1,2.626,9.225v4.608a3.1,3.1,0,0,0,3.1,3.1h.929v.986a2.719,2.719,0,0,0,2.716,2.716h2.544a2.719,2.719,0,0,0,2.716-2.716V96.37h.929a3.1,3.1,0,0,0,3.1-3.1V88.665a.879.879,0,0,0-.879-.879h-3.25c.092-.888.268-2.312.576-3.847.647-3.233,1.562-5.483,2.647-6.508a.879.879,0,0,0-1.1-1.363,4.661,4.661,0,0,1-2.674.958,3.89,3.89,0,0,1-.615-2.187.879.879,0,0,0-1.694-.285,7.048,7.048,0,0,1-1.023,1.794,7.046,7.046,0,0,1-1.022-1.793.879.879,0,0,0-1.694.284,3.892,3.892,0,0,1-.615,2.188,4.665,4.665,0,0,1-2.673-.958.879.879,0,0,0-1.1,1.363c1.084,1.025,2,3.276,2.647,6.508.307,1.535.484,2.958.576,3.847H155.2a18.807,18.807,0,0,0-2.881-9.281,10.8,10.8,0,1,1,18.33-.046,19.479,19.479,0,0,0-2.448,5.9.879.879,0,1,0,1.713.4,17.725,17.725,0,0,1,2.229-5.367,12.549,12.549,0,1,0-23.227-6.41ZM163.7,97.356a.958.958,0,0,1-.957.957H160.2a.959.959,0,0,1-.957-.957V96.37H163.7v.986Zm-6.423-18.61a3.1,3.1,0,0,0,1.3-.016,2.227,2.227,0,0,0,1.429-1.4,2.172,2.172,0,0,0,1.343.871h0l.065.007h.109l.047,0,.025,0a2.178,2.178,0,0,0,1.344-.875,2.178,2.178,0,0,0,1.426,1.4,3.1,3.1,0,0,0,1.3.017,32.372,32.372,0,0,0-2.078,9.04h-4.231a32.359,32.359,0,0,0-2.078-9.04Zm10.449,10.8v3.728a1.34,1.34,0,0,1-1.339,1.339h-9.834a1.34,1.34,0,0,1-1.339-1.339V89.544Z" transform="translate(-112.638 -53.159)" fill="#5c3b66"/>
        <path id="Trazado_1006894" data-name="Trazado 1006894" d="M120.03,231.229a.879.879,0,0,0,1.223.224l2.056-1.419a.879.879,0,1,0-1-1.447l-2.056,1.419A.879.879,0,0,0,120.03,231.229Z" transform="translate(-87.003 -201.649)" fill="#5c3b66"/>
        <path id="Trazado_1006895" data-name="Trazado 1006895" d="M94.226,170.083a.9.9,0,0,0,.107-.007l2.48-.3a.879.879,0,0,0-.212-1.746l-2.48.3a.879.879,0,0,0,.1,1.752Z" transform="translate(-63.586 -148.324)" fill="#5c3b66"/>
        <path id="Trazado_1006896" data-name="Trazado 1006896" d="M211.72,3.516a.879.879,0,0,0,1.708-.421l-.6-2.426a.879.879,0,0,0-1.707.421Z" transform="translate(-167.529 0)" fill="#5c3b66"/>
        <path id="Trazado_1006897" data-name="Trazado 1006897" d="M281.472,4.161a.878.878,0,0,0,1.064-.643l.6-2.426a.879.879,0,1,0-1.707-.421l-.6,2.426A.879.879,0,0,0,281.472,4.161Z" transform="translate(-229.064 -0.002)" fill="#5c3b66"/>
        <path id="Trazado_1006898" data-name="Trazado 1006898" d="M338.308,38.174a.879.879,0,0,0,1.241-.075l1.657-1.87a.879.879,0,1,0-1.316-1.166l-1.657,1.87A.879.879,0,0,0,338.308,38.174Z" transform="translate(-279.565 -30.69)" fill="#5c3b66"/>
        <path id="Trazado_1006899" data-name="Trazado 1006899" d="M375.59,98.975a.877.877,0,0,0,.312-.057l2.336-.886a.879.879,0,0,0-.624-1.644l-2.336.886a.879.879,0,0,0,.312,1.7Z" transform="translate(-311.962 -85.036)" fill="#5c3b66"/>
        <path id="Trazado_1006900" data-name="Trazado 1006900" d="M382.5,168.8a.879.879,0,0,0,.767.979l2.48.3a.9.9,0,0,0,.107.007.879.879,0,0,0,.1-1.752l-2.48-.3A.879.879,0,0,0,382.5,168.8Z" transform="translate(-318.836 -148.323)" fill="#5c3b66"/>
        <path id="Trazado_1006901" data-name="Trazado 1006901" d="M359.745,228.811a.879.879,0,0,0,.224,1.223l2.056,1.419a.879.879,0,1,0,1-1.447l-2.056-1.419A.879.879,0,0,0,359.745,228.811Z" transform="translate(-298.614 -201.65)" fill="#5c3b66"/>
        <path id="Trazado_1006902" data-name="Trazado 1006902" d="M146.738,38.1a.879.879,0,0,0,1.316-1.166l-1.657-1.87a.879.879,0,1,0-1.316,1.166Z" transform="translate(-109.059 -30.69)" fill="#5c3b66"/>
        <path id="Trazado_1006903" data-name="Trazado 1006903" d="M102.93,98.032l2.336.886a.879.879,0,0,0,.624-1.644l-2.336-.886a.879.879,0,1,0-.624,1.644Z" transform="translate(-71.544 -85.036)" fill="#5c3b66"/>
      </g>
    </g>
  </g>
</svg>
