<svg xmlns="http://www.w3.org/2000/svg" xmlns:xlink="http://www.w3.org/1999/xlink" width="96" height="96" viewBox="0 0 96 96">
  <defs>
    <clipPath id="clip-path">
      <rect id="Rect치ngulo_454535" data-name="Rect치ngulo 454535" width="25.231" height="26.467" fill="#cff878"/>
    </clipPath>
  </defs>
  <g id="Grupo_1193204" data-name="Grupo 1193204" transform="translate(-1192.711 -1019)">
    <path id="Elipse_5729" data-name="Elipse 5729" d="M48,0A48,48,0,1,1,0,48,48,48,0,0,1,48,0Z" transform="translate(1192.711 1019)" fill="#e795ff"/>
    <g id="Grupo_1192479" data-name="Grupo 1192479" transform="translate(1035 82)">
      <rect id="Rect치ngulo_455479" data-name="Rect치ngulo 455479" width="70" height="70" rx="35" transform="translate(170.711 950)" fill="#f8dfff"/>
      <g id="Grupo_1192524" data-name="Grupo 1192524" transform="translate(175.711 955)">
        <g id="Grupo_1176862" data-name="Grupo 1176862" clip-path="url(#clip-path)">
          <path id="Trazado_991676" data-name="Trazado 991676" d="M14.729,5.187,13.176.407a.589.589,0,0,0-1.12,0L10.5,5.187a.589.589,0,0,1-.906.294L5.53,2.527a.589.589,0,0,0-.906.658l1.553,4.78a.589.589,0,0,1-.56.771H.59A.589.589,0,0,0,.244,9.8l4.066,2.954a.589.589,0,0,1,0,.953L.244,16.664A.589.589,0,0,0,.59,17.73H5.617a.589.589,0,0,1,.56.771l-1.553,4.78a.589.589,0,0,0,.906.659L9.6,20.985a.589.589,0,0,1,.906.294l1.553,4.78a.589.589,0,0,0,1.12,0l1.553-4.78a.589.589,0,0,1,.906-.294L19.7,23.94a.589.589,0,0,0,.906-.658L19.055,18.5a.589.589,0,0,1,.56-.771h5.026a.589.589,0,0,0,.346-1.065L20.922,13.71a.589.589,0,0,1,0-.953L24.988,9.8a.589.589,0,0,0-.346-1.065H19.615a.589.589,0,0,1-.56-.771l1.553-4.78a.589.589,0,0,0-.906-.658L15.636,5.482a.589.589,0,0,1-.906-.294" transform="translate(0 0)" fill="#cff878"/>
        </g>
      </g>
      <g id="Grupo_1193216" data-name="Grupo 1193216" transform="translate(178.525 957.815)">
        <g id="Grupo_1193215" data-name="Grupo 1193215" transform="translate(0 0)">
          <path id="Trazado_1006904" data-name="Trazado 1006904" d="M52.063,70.167h-1.27V69.3a1.807,1.807,0,0,0-1.8-1.8H46.866a1.179,1.179,0,0,0-.383-.337l-1.92-1.05-1.05-1.92h0a1.181,1.181,0,0,0-2.072,0l-1.05,1.92-1.92,1.05a1.178,1.178,0,0,0-.383.337H31.042a3.31,3.31,0,0,0-2.52,1.164A3.31,3.31,0,0,0,26,67.5H20.339V63.3a1.961,1.961,0,0,0-1.959-1.959H10.619a.8.8,0,1,0,0,1.593h4.408a4.6,4.6,0,0,0,3.718,3.718v15.6a4.6,4.6,0,0,0-3.718,3.718H5.311a4.6,4.6,0,0,0-3.718-3.718v-15.6a4.6,4.6,0,0,0,3.718-3.718H6.9a.8.8,0,0,0,0-1.593H1.959A1.961,1.961,0,0,0,0,63.3v22.3a1.961,1.961,0,0,0,1.959,1.959h.713v17.078a2.311,2.311,0,0,0,2.309,2.309H27.725v.947a1.3,1.3,0,0,0,2.07,1.049l.874-.641.874.641a1.3,1.3,0,0,0,2.07-1.049v-.947h18.45a2.311,2.311,0,0,0,2.309-2.309V72.475a2.311,2.311,0,0,0-2.309-2.309Zm-10.8-2.719a1.178,1.178,0,0,0,.469-.469l.747-1.365.746,1.365a1.178,1.178,0,0,0,.469.469l1.365.746-1.365.746a1.178,1.178,0,0,0-.469.469l-.747,1.365L41.73,69.41a1.178,1.178,0,0,0-.469-.469L39.9,68.194ZM20.339,73.574a5.508,5.508,0,0,1,0,9.761ZM16.658,62.939H18.38a.366.366,0,0,1,.366.366v1.722a3,3,0,0,1-2.088-2.088Zm2.088,20.948v1.722a.366.366,0,0,1-.366.366H16.658a3,3,0,0,1,2.088-2.088ZM1.959,62.939H3.68a3,3,0,0,1-2.088,2.088V63.3a.366.366,0,0,1,.366-.366Zm-.366,22.67V83.887A3,3,0,0,1,3.68,85.975H1.959a.366.366,0,0,1-.366-.366ZM4.98,105.361a.717.717,0,0,1-.716-.716V87.568H6.251v14a1.807,1.807,0,0,0,1.8,1.8h4.051a.8.8,0,1,0,0-1.593H8.055a.212.212,0,0,1-.212-.212v-14H18.38a1.961,1.961,0,0,0,1.959-1.959v-.528a7.1,7.1,0,0,0,0-13.253V69.089H26a1.726,1.726,0,0,1,1.724,1.724v30.969h-11.9a.8.8,0,1,0,0,1.593h11.9v1.986H4.98ZM32.02,92.53v14.794l-.582-.427a1.3,1.3,0,0,0-1.538,0l-.582.427V70.813a1.726,1.726,0,0,1,1.724-1.724h.978V88.813a.8.8,0,0,0,1.593,0V86.232H45.076a.8.8,0,0,0,0-1.593H33.613V81.274H45.076a.8.8,0,0,0,0-1.593H33.613V76.316H45.076a.8.8,0,1,0,0-1.593H33.613V69.089H38.27a1.176,1.176,0,0,0,.2.141l1.92,1.05,1.05,1.92a1.181,1.181,0,0,0,2.072,0l1.05-1.92,1.92-1.05a1.172,1.172,0,0,0,.2-.141h2.3a.212.212,0,0,1,.212.212v32.27a.212.212,0,0,1-.212.212H33.613V92.53a.8.8,0,1,0-1.593,0Zm20.759,12.115a.716.716,0,0,1-.716.716H33.613v-1.986H48.987a1.807,1.807,0,0,0,1.8-1.8V71.76h1.27a.717.717,0,0,1,.716.716v32.17Z" transform="translate(0 -54.831)" fill="#5c3b66"/>
          <path id="Trazado_1006905" data-name="Trazado 1006905" d="M338.775,328.972h8.388a.8.8,0,1,0,0-1.593h-8.388a.8.8,0,1,0,0,1.593Z" transform="translate(-302.088 -292.613)" fill="#5c3b66"/>
          <path id="Trazado_1006906" data-name="Trazado 1006906" d="M338.775,375.659h8.388a.8.8,0,1,0,0-1.593h-8.388a.8.8,0,0,0,0,1.593Z" transform="translate(-302.088 -334.342)" fill="#5c3b66"/>
          <path id="Trazado_1006907" data-name="Trazado 1006907" d="M105.987,328.972h11.634a.8.8,0,1,0,0-1.593H105.987a.8.8,0,0,0,0,1.593Z" transform="translate(-94.02 -292.613)" fill="#5c3b66"/>
          <path id="Trazado_1006908" data-name="Trazado 1006908" d="M118.418,374.862a.8.8,0,0,0-.8-.8H105.987a.8.8,0,0,0,0,1.593h11.634A.8.8,0,0,0,118.418,374.862Z" transform="translate(-94.02 -334.342)" fill="#5c3b66"/>
          <path id="Trazado_1006909" data-name="Trazado 1006909" d="M45.75,106.251a6.743,6.743,0,1,0-6.743,6.743A6.751,6.751,0,0,0,45.75,106.251Zm-2.821,3.332-.386-2.25,1.591-1.551c.014.155.022.311.022.469A5.126,5.126,0,0,1,42.929,109.583Zm-5.82-3.1L35.7,105.109l1.951-.283a.8.8,0,0,0,.6-.436l.872-1.768.872,1.768a.8.8,0,0,0,.6.436l1.951.283-1.412,1.376a.8.8,0,0,0-.229.7l.333,1.943-1.745-.917a.8.8,0,0,0-.741,0L37,109.133l.333-1.943A.8.8,0,0,0,37.109,106.485Zm6.328-2.856-2.2-.32-1.019-2.064A5.168,5.168,0,0,1,43.437,103.629Zm-5.386-2.438L37,103.31l-2.45.356A5.163,5.163,0,0,1,38.05,101.191Zm-4.195,5.06a5.171,5.171,0,0,1,.045-.669l1.8,1.751-.422,2.463A5.131,5.131,0,0,1,33.856,106.251Zm3.083,4.716,2.181-1.147,2.076,1.091a5.137,5.137,0,0,1-4.257.056Z" transform="translate(-28.837 -88.941)" fill="#5c3b66"/>
          <path id="Trazado_1006910" data-name="Trazado 1006910" d="M61.69,248.648a.8.8,0,1,0,0,1.593H67.5a.8.8,0,1,0,0-1.593Z" transform="translate(-54.427 -222.243)" fill="#5c3b66"/>
          <path id="Trazado_1006911" data-name="Trazado 1006911" d="M214.114,20.981l1.92,1.05,1.05,1.92a1.18,1.18,0,0,0,1.036.614h0a1.181,1.181,0,0,0,1.036-.614l1.05-1.92,1.92-1.05a1.181,1.181,0,0,0,0-2.072l-1.92-1.05-1.05-1.92h0a1.181,1.181,0,0,0-2.072,0l-1.05,1.92-1.92,1.05a1.181,1.181,0,0,0,0,2.072ZM216.9,19.2a1.177,1.177,0,0,0,.469-.469l.747-1.365.746,1.365a1.178,1.178,0,0,0,.469.469l1.365.746-1.365.746a1.178,1.178,0,0,0-.469.469l-.746,1.365-.746-1.365a1.179,1.179,0,0,0-.469-.469l-1.365-.747Z" transform="translate(-190.828 -13.698)" fill="#5c3b66"/>
          <path id="Trazado_1006912" data-name="Trazado 1006912" d="M323.593,6.353a1.284,1.284,0,0,0,1.813,0l2.083-2.083a1.284,1.284,0,0,0,0-1.813L325.406.374a1.283,1.283,0,0,0-1.813,0L321.51,2.458a1.284,1.284,0,0,0,0,1.813Zm.906-4.633,1.643,1.643L324.5,5.007l-1.643-1.643Z" transform="translate(-287.033 0)" fill="#5c3b66"/>
        </g>
      </g>
    </g>
  </g>
</svg>
