<svg xmlns="http://www.w3.org/2000/svg" xmlns:xlink="http://www.w3.org/1999/xlink" width="96" height="96" viewBox="0 0 96 96">
  <defs>
    <clipPath id="clip-path">
      <rect id="Rect치ngulo_454535" data-name="Rect치ngulo 454535" width="25.231" height="26.467" fill="#cff878"/>
    </clipPath>
  </defs>
  <g id="Grupo_1193205" data-name="Grupo 1193205" transform="translate(-1192.711 -1019)">
    <path id="Elipse_5729" data-name="Elipse 5729" d="M48,0A48,48,0,1,1,0,48,48,48,0,0,1,48,0Z" transform="translate(1192.711 1019)" fill="#e795ff"/>
    <g id="Grupo_1192479" data-name="Grupo 1192479" transform="translate(1035 82)">
      <rect id="Rect치ngulo_455479" data-name="Rect치ngulo 455479" width="70" height="70" rx="35" transform="translate(170.711 950)" fill="#f8dfff"/>
      <g id="Grupo_1192524" data-name="Grupo 1192524" transform="translate(175.711 955)">
        <g id="Grupo_1176862" data-name="Grupo 1176862" clip-path="url(#clip-path)">
          <path id="Trazado_991676" data-name="Trazado 991676" d="M14.729,5.187,13.176.407a.589.589,0,0,0-1.12,0L10.5,5.187a.589.589,0,0,1-.906.294L5.53,2.527a.589.589,0,0,0-.906.658l1.553,4.78a.589.589,0,0,1-.56.771H.59A.589.589,0,0,0,.244,9.8l4.066,2.954a.589.589,0,0,1,0,.953L.244,16.664A.589.589,0,0,0,.59,17.73H5.617a.589.589,0,0,1,.56.771l-1.553,4.78a.589.589,0,0,0,.906.659L9.6,20.985a.589.589,0,0,1,.906.294l1.553,4.78a.589.589,0,0,0,1.12,0l1.553-4.78a.589.589,0,0,1,.906-.294L19.7,23.94a.589.589,0,0,0,.906-.658L19.055,18.5a.589.589,0,0,1,.56-.771h5.026a.589.589,0,0,0,.346-1.065L20.922,13.71a.589.589,0,0,1,0-.953L24.988,9.8a.589.589,0,0,0-.346-1.065H19.615a.589.589,0,0,1-.56-.771l1.553-4.78a.589.589,0,0,0-.906-.658L15.636,5.482a.589.589,0,0,1-.906-.294" transform="translate(0 0)" fill="#cff878"/>
        </g>
      </g>
      <g id="Grupo_1193217" data-name="Grupo 1193217" transform="translate(180.886 960.177)">
        <path id="Trazado_1006913" data-name="Trazado 1006913" d="M447.871,221.867h-3.31a.827.827,0,0,0,0,1.655h3.31a.827.827,0,0,1,.828.827v8.275a.827.827,0,0,1-.828.827h-3.31a.827.827,0,0,0,0,1.655h3.31a2.482,2.482,0,0,0,2.483-2.482v-8.275a2.482,2.482,0,0,0-2.483-2.482Zm0,0" transform="translate(-400.704 -200.352)" fill="#5c3b66"/>
        <path id="Trazado_1006914" data-name="Trazado 1006914" d="M2.482,219.7h9.93a.827.827,0,1,0,0-1.655H2.482a.827.827,0,0,1-.828-.827v-8.275a.827.827,0,0,1,.828-.827h9.93a.827.827,0,1,0,0-1.655H5.792v-.828a.827.827,0,0,0-1.655,0v.828H2.482A2.482,2.482,0,0,0,0,208.938v8.275A2.482,2.482,0,0,0,2.482,219.7Zm0,0" transform="translate(0 -184.94)" fill="#5c3b66"/>
        <path id="Trazado_1006915" data-name="Trazado 1006915" d="M189.957,179.2a10.758,10.758,0,1,0,10.758,10.758A10.758,10.758,0,0,0,189.957,179.2Zm0,19.86a9.1,9.1,0,1,1,9.1-9.1A9.1,9.1,0,0,1,189.957,199.059Zm0,0" transform="translate(-161.822 -161.821)" fill="#5c3b66"/>
        <path id="Trazado_1006916" data-name="Trazado 1006916" d="M42.668,256.828v4.965a.827.827,0,0,0,1.655,0v-4.965a.827.827,0,1,0-1.655,0Zm0,0" transform="translate(-38.531 -231.175)" fill="#5c3b66"/>
        <path id="Trazado_1006917" data-name="Trazado 1006917" d="M171.962,168.011a.828.828,0,0,0-1.164.006l-.8.8-1.339-1.339c0-.006-.012-.006-.018-.013a14.121,14.121,0,1,0-1.164,1.164c.006.006.007.013.012.018l1.339,1.339-.955.955a.827.827,0,0,0,.008,1.177l6.834,6.681a2.9,2.9,0,0,0,4.09-4.1Zm-13.82,2.535a12.413,12.413,0,1,1,12.413-12.413A12.413,12.413,0,0,1,158.143,170.546Zm13.247-.78,4.821,4.717-1.755,1.755-4.821-4.713Zm6.25,7.861a1.241,1.241,0,0,1-1.762-.007l-.239-.233,1.755-1.755.248.24a1.241,1.241,0,0,1,0,1.754Zm0,0" transform="translate(-130.008 -129.998)" fill="#5c3b66"/>
        <path id="Trazado_1006918" data-name="Trazado 1006918" d="M234.683,256.066a.827.827,0,0,0-1.11.371l-2.461,4.921-1.816-4.842a.827.827,0,0,0-1.551,0l-1.816,4.842-2.457-4.921a.828.828,0,1,0-1.481.74l3.31,6.62a.817.817,0,0,0,.784.457.828.828,0,0,0,.732-.536l1.7-4.554,1.707,4.551a.827.827,0,0,0,.732.536H231a.828.828,0,0,0,.745-.458l3.31-6.62A.828.828,0,0,0,234.683,256.066Zm0,0" transform="translate(-200.386 -231.154)" fill="#5c3b66"/>
        <path id="Trazado_1006919" data-name="Trazado 1006919" d="M1.655,4.965H14.068A1.655,1.655,0,0,0,15.723,3.31V1.655A1.655,1.655,0,0,0,14.068,0H1.655A1.655,1.655,0,0,0,0,1.655V3.31A1.655,1.655,0,0,0,1.655,4.965Zm0-3.31H14.068V3.31H1.655Zm0,0" transform="translate(0)" fill="#5c3b66"/>
        <path id="Trazado_1006920" data-name="Trazado 1006920" d="M238.934,69.921v1.655a1.655,1.655,0,0,0,1.655,1.655H253a1.655,1.655,0,0,0,1.655-1.655V69.921A1.655,1.655,0,0,0,253,68.266H240.589A1.655,1.655,0,0,0,238.934,69.921ZM253,71.576H240.589V69.921H253Zm0,0" transform="translate(-215.764 -61.646)" fill="#5c3b66"/>
        <path id="Trazado_1006921" data-name="Trazado 1006921" d="M180.855,4.965h6.62A1.655,1.655,0,0,0,189.13,3.31V1.655A1.655,1.655,0,0,0,187.475,0h-6.62A1.655,1.655,0,0,0,179.2,1.655V3.31A1.655,1.655,0,0,0,180.855,4.965Zm0-3.31h6.62V3.31h-6.62Zm0,0" transform="translate(-161.822)" fill="#5c3b66"/>
        <path id="Trazado_1006922" data-name="Trazado 1006922" d="M121.12,68.266a1.655,1.655,0,0,0-1.655,1.655v1.655a1.655,1.655,0,0,0,1.655,1.655h6.62a1.655,1.655,0,0,0,1.655-1.655V69.921a1.655,1.655,0,0,0-1.655-1.655Zm0,3.31V69.921h6.62v1.655Zm0,0" transform="translate(-107.88 -61.646)" fill="#5c3b66"/>
        <path id="Trazado_1006923" data-name="Trazado 1006923" d="M1.655,73.231H4.138v.828a.827.827,0,1,0,1.655,0v-.828H8.275A1.655,1.655,0,0,0,9.93,71.576V69.921a1.655,1.655,0,0,0-1.655-1.655H1.655A1.655,1.655,0,0,0,0,69.921v1.655a1.655,1.655,0,0,0,1.655,1.655Zm0-3.31h6.62v1.655H1.655Zm0,0" transform="translate(0 -61.646)" fill="#5c3b66"/>
        <path id="Trazado_1006924" data-name="Trazado 1006924" d="M300.323,4.965h3.31a1.655,1.655,0,0,0,1.655-1.655V1.655A1.655,1.655,0,0,0,303.633,0h-3.31a1.655,1.655,0,0,0-1.655,1.655V3.31A1.655,1.655,0,0,0,300.323,4.965Zm0-3.31h3.31V3.31h-3.31Zm0,0" transform="translate(-269.705)" fill="#5c3b66"/>
        <path id="Trazado_1006925" data-name="Trazado 1006925" d="M425.581,68.266h-5.793a1.655,1.655,0,0,0-1.655,1.655v1.655a1.655,1.655,0,0,0,1.655,1.655h5.793a1.655,1.655,0,0,0,1.655-1.655V69.921a1.655,1.655,0,0,0-1.655-1.655Zm-5.793,3.31V69.921h5.793v1.655Zm0,0" transform="translate(-377.586 -61.646)" fill="#5c3b66"/>
        <path id="Trazado_1006926" data-name="Trazado 1006926" d="M394.758,0h-9.1A1.655,1.655,0,0,0,384,1.655V3.31a1.655,1.655,0,0,0,1.655,1.655h9.1a1.655,1.655,0,0,0,1.655-1.655V1.655A1.655,1.655,0,0,0,394.758,0Zm-9.1,3.31V1.655h9.1V3.31Zm0,0" transform="translate(-346.763 0)" fill="#5c3b66"/>
        <path id="Trazado_1006927" data-name="Trazado 1006927" d="M43.5,153.6a.827.827,0,0,0-.827.827v1.655a.827.827,0,1,0,1.655,0v-1.655A.827.827,0,0,0,43.5,153.6Zm0,0" transform="translate(-38.531 -138.707)" fill="#5c3b66"/>
      </g>
    </g>
  </g>
</svg>
