<svg xmlns="http://www.w3.org/2000/svg" xmlns:xlink="http://www.w3.org/1999/xlink" width="96" height="96" viewBox="0 0 96 96">
  <defs>
    <clipPath id="clip-path">
      <rect id="Rect치ngulo_454535" data-name="Rect치ngulo 454535" width="25.231" height="26.467" fill="#cff878"/>
    </clipPath>
  </defs>
  <g id="Grupo_1193206" data-name="Grupo 1193206" transform="translate(-1192.711 -1019)">
    <path id="Elipse_5729" data-name="Elipse 5729" d="M48,0A48,48,0,1,1,0,48,48,48,0,0,1,48,0Z" transform="translate(1192.711 1019)" fill="#e795ff"/>
    <g id="Grupo_1192479" data-name="Grupo 1192479" transform="translate(1035 82)">
      <rect id="Rect치ngulo_455479" data-name="Rect치ngulo 455479" width="70" height="70" rx="35" transform="translate(170.711 950)" fill="#f8dfff"/>
      <g id="Grupo_1192524" data-name="Grupo 1192524" transform="translate(175.711 955)">
        <g id="Grupo_1176862" data-name="Grupo 1176862" clip-path="url(#clip-path)">
          <path id="Trazado_991676" data-name="Trazado 991676" d="M14.729,5.187,13.176.407a.589.589,0,0,0-1.12,0L10.5,5.187a.589.589,0,0,1-.906.294L5.53,2.527a.589.589,0,0,0-.906.658l1.553,4.78a.589.589,0,0,1-.56.771H.59A.589.589,0,0,0,.244,9.8l4.066,2.954a.589.589,0,0,1,0,.953L.244,16.664A.589.589,0,0,0,.59,17.73H5.617a.589.589,0,0,1,.56.771l-1.553,4.78a.589.589,0,0,0,.906.659L9.6,20.985a.589.589,0,0,1,.906.294l1.553,4.78a.589.589,0,0,0,1.12,0l1.553-4.78a.589.589,0,0,1,.906-.294L19.7,23.94a.589.589,0,0,0,.906-.658L19.055,18.5a.589.589,0,0,1,.56-.771h5.026a.589.589,0,0,0,.346-1.065L20.922,13.71a.589.589,0,0,1,0-.953L24.988,9.8a.589.589,0,0,0-.346-1.065H19.615a.589.589,0,0,1-.56-.771l1.553-4.78a.589.589,0,0,0-.906-.658L15.636,5.482a.589.589,0,0,1-.906-.294" transform="translate(0 0)" fill="#cff878"/>
        </g>
      </g>
      <g id="Grupo_1193218" data-name="Grupo 1193218" transform="translate(177.801 957.082)">
        <g id="Page-1_44_" transform="translate(0.001 0.01)">
          <g id="_x30_45---Check-Spelling" transform="translate(0 0)">
            <path id="Shape_320_" d="M58.535,40.852A17.653,17.653,0,1,0,76.189,58.505,17.653,17.653,0,0,0,58.535,40.852Zm0,33.449a15.8,15.8,0,1,1,15.8-15.8,15.8,15.8,0,0,1-15.8,15.8Z" transform="translate(-37.095 -37.068)" fill="#5c3b66"/>
            <path id="Shape_319_" d="M49.82,43.256l-.006-.008-.008-.006L46.568,40,46.562,40l-.008-.006-2.39-2.39a2.86,2.86,0,0,0-3.159-.529l-2.624-2.624a21.4,21.4,0,1,0-3.943,3.943l2.615,2.615a2.787,2.787,0,0,0,.537,3.164l2.39,2.39.006.008.008.006,3.238,3.238.006.008.008.006,4.915,4.915a3.721,3.721,0,0,0,5.255,0l1.315-1.315a3.717,3.717,0,0,0,0-5.255Zm-7.858,2.654L45.9,41.968l1.938,1.938L43.9,47.847ZM1.93,21.447A19.512,19.512,0,1,1,21.441,40.959,19.512,19.512,0,0,1,1.93,21.447Zm35.258,14.43,2.378,2.378L38.249,39.57l-2.378-2.378Q36.557,36.565,37.187,35.877Zm1.721,5.668,2.628-2.63a.929.929,0,0,1,1.314,0l1.739,1.74L40.648,44.6l-1.739-1.74a.929.929,0,0,1,0-1.315ZM53.421,52.108,52.1,53.427a1.858,1.858,0,0,1-2.628,0L45.21,49.161l3.941-3.941,4.266,4.265A1.858,1.858,0,0,1,53.421,52.108Z" transform="translate(-0.001 -0.01)" fill="#5c3b66"/>
            <path id="Shape_318_" d="M171.865,103.943a.929.929,0,0,0,1.215-.5l1.31-3.145h4.956l1.31,3.145a.929.929,0,0,0,1.715-.715l-1.55-3.717v-.006l-3.094-7.427a.929.929,0,0,0-1.715,0l-3.094,7.427v.006l-1.55,3.717A.929.929,0,0,0,171.865,103.943Zm5-9.591,1.7,4.088h-3.406Z" transform="translate(-155.428 -82.577)" fill="#5c3b66"/>
            <path id="Shape_317_" d="M152.136,253.33h1.858a.929.929,0,0,0,0-1.858h-1.858a.929.929,0,1,0,0,1.858Z" transform="translate(-137.199 -228.177)" fill="#5c3b66"/>
            <path id="Shape_316_" d="M219.746,251.471h-7.433a.929.929,0,0,0,0,1.858h7.433a.929.929,0,0,0,0-1.858Z" transform="translate(-191.802 -228.176)" fill="#5c3b66"/>
            <path id="Shape_315_" d="M165.144,291.589H152.136a.929.929,0,0,0,0,1.858h13.008a.929.929,0,0,0,0-1.858Z" transform="translate(-137.199 -264.577)" fill="#5c3b66"/>
            <path id="Shape_314_" d="M157.711,331.707h-5.575a.929.929,0,0,0,0,1.858h5.575a.929.929,0,0,0,0-1.858Z" transform="translate(-137.199 -300.979)" fill="#5c3b66"/>
          </g>
        </g>
      </g>
    </g>
  </g>
</svg>
