<svg xmlns="http://www.w3.org/2000/svg" xmlns:xlink="http://www.w3.org/1999/xlink" width="96" height="96" viewBox="0 0 96 96">
  <defs>
    <clipPath id="clip-path">
      <rect id="Rect치ngulo_454535" data-name="Rect치ngulo 454535" width="25.231" height="26.467" fill="#cff878"/>
    </clipPath>
  </defs>
  <g id="Grupo_1193209" data-name="Grupo 1193209" transform="translate(-1192.711 -1019)">
    <path id="Elipse_5729" data-name="Elipse 5729" d="M48,0A48,48,0,1,1,0,48,48,48,0,0,1,48,0Z" transform="translate(1192.711 1019)" fill="#e795ff"/>
    <g id="Grupo_1192479" data-name="Grupo 1192479" transform="translate(1035 82)">
      <rect id="Rect치ngulo_455479" data-name="Rect치ngulo 455479" width="70" height="70" rx="35" transform="translate(170.711 950)" fill="#f8dfff"/>
      <g id="Grupo_1192524" data-name="Grupo 1192524" transform="translate(175.711 955)">
        <g id="Grupo_1176862" data-name="Grupo 1176862" clip-path="url(#clip-path)">
          <path id="Trazado_991676" data-name="Trazado 991676" d="M14.729,5.187,13.176.407a.589.589,0,0,0-1.12,0L10.5,5.187a.589.589,0,0,1-.906.294L5.53,2.527a.589.589,0,0,0-.906.658l1.553,4.78a.589.589,0,0,1-.56.771H.59A.589.589,0,0,0,.244,9.8l4.066,2.954a.589.589,0,0,1,0,.953L.244,16.664A.589.589,0,0,0,.59,17.73H5.617a.589.589,0,0,1,.56.771l-1.553,4.78a.589.589,0,0,0,.906.659L9.6,20.985a.589.589,0,0,1,.906.294l1.553,4.78a.589.589,0,0,0,1.12,0l1.553-4.78a.589.589,0,0,1,.906-.294L19.7,23.94a.589.589,0,0,0,.906-.658L19.055,18.5a.589.589,0,0,1,.56-.771h5.026a.589.589,0,0,0,.346-1.065L20.922,13.71a.589.589,0,0,1,0-.953L24.988,9.8a.589.589,0,0,0-.346-1.065H19.615a.589.589,0,0,1-.56-.771l1.553-4.78a.589.589,0,0,0-.906-.658L15.636,5.482a.589.589,0,0,1-.906-.294" transform="translate(0 0)" fill="#cff878"/>
        </g>
      </g>
      <g id="Grupo_1193219" data-name="Grupo 1193219" transform="translate(180.013 959.316)">
        <path id="Trazado_1006928" data-name="Trazado 1006928" d="M158.012,171.015l-1.961,1.961-.25-.25a.855.855,0,0,0-1.209,1.209l.855.855a.855.855,0,0,0,1.209,0l2.565-2.565a.855.855,0,0,0-1.209-1.209Z" transform="translate(-138.873 -153.665)" fill="#5c3b66"/>
        <path id="Trazado_1006929" data-name="Trazado 1006929" d="M231.92,187.737h-8.55a.855.855,0,1,0,0,1.71h8.55a.855.855,0,1,0,0-1.71Z" transform="translate(-200.206 -168.927)" fill="#5c3b66"/>
        <path id="Trazado_1006930" data-name="Trazado 1006930" d="M158.012,222.215l-1.961,1.961-.25-.25a.855.855,0,0,0-1.209,1.209l.855.855a.855.855,0,0,0,1.209,0l2.565-2.565a.855.855,0,0,0-1.209-1.209Z" transform="translate(-138.873 -199.735)" fill="#5c3b66"/>
        <path id="Trazado_1006931" data-name="Trazado 1006931" d="M231.92,238.937h-8.55a.855.855,0,0,0,0,1.71h8.55a.855.855,0,0,0,0-1.71Z" transform="translate(-200.206 -214.997)" fill="#5c3b66"/>
        <path id="Trazado_1006932" data-name="Trazado 1006932" d="M158.012,273.415l-1.961,1.961-.25-.25a.855.855,0,0,0-1.209,1.209l.855.855a.855.855,0,0,0,1.209,0l2.565-2.565a.855.855,0,0,0-1.209-1.209Z" transform="translate(-138.873 -245.804)" fill="#5c3b66"/>
        <path id="Trazado_1006933" data-name="Trazado 1006933" d="M231.92,290.137h-8.55a.855.855,0,1,0,0,1.71h8.55a.855.855,0,1,0,0-1.71Z" transform="translate(-200.206 -261.067)" fill="#5c3b66"/>
        <path id="Trazado_1006934" data-name="Trazado 1006934" d="M158.012,324.614l-1.961,1.961-.25-.251a.855.855,0,0,0-1.209,1.209l.855.855a.855.855,0,0,0,1.209,0l2.565-2.565a.855.855,0,0,0-1.209-1.209Z" transform="translate(-138.873 -291.874)" fill="#5c3b66"/>
        <path id="Trazado_1006935" data-name="Trazado 1006935" d="M231.92,341.337h-8.55a.855.855,0,1,0,0,1.71h8.55a.855.855,0,1,0,0-1.71Z" transform="translate(-200.206 -307.137)" fill="#5c3b66"/>
        <path id="Trazado_1006936" data-name="Trazado 1006936" d="M49.919.251,48.7,1.471,47.758.53A1.8,1.8,0,0,0,44.987.8L42.276,4.868A1.806,1.806,0,0,0,42.5,7.139l.265.265L40.322,9.851a23.972,23.972,0,1,0,1.21,1.21l2.444-2.447.264.264A1.8,1.8,0,0,0,46.51,9.1l4.066-2.71a1.8,1.8,0,0,0,.274-2.77l-.941-.941,1.22-1.22A.856.856,0,1,0,49.919.251ZM46.249,27.36a22.263,22.263,0,1,1-7.134-16.3l-1.1,1.1L36.528,10.67a1.814,1.814,0,0,0-1.856-.451,1.735,1.735,0,0,0-.526.292,19.681,19.681,0,1,0,6.722,6.722,1.754,1.754,0,0,0,.292-.526,1.813,1.813,0,0,0-.451-1.856l-1.482-1.482,1.1-1.1A22.145,22.145,0,0,1,46.249,27.36Zm-13-9.228a1.844,1.844,0,0,0,1.3.54h.015a13.728,13.728,0,1,1-1.842-1.843A1.831,1.831,0,0,0,33.247,18.132Zm-.262-3.27a15.41,15.41,0,1,0,3.532,3.532l2.8-.428a17.969,17.969,0,1,1-5.907-5.907Zm6.5,1.353-4.928.746a.129.129,0,0,1-.1-.038.119.119,0,0,1-.038-.1l.788-4.978a.1.1,0,0,1,.031-.005.12.12,0,0,1,.085.04L37.4,13.956c.006.007.008.016.015.023s.015.009.022.015L39.5,16.061c.013.014.054.054-.016.155h0ZM49.628,4.97,45.565,7.68a.091.091,0,0,1-.115-.011L43.71,5.931a.086.086,0,0,1-.011-.115l2.71-4.066.138-.014,3.094,3.094Z" transform="translate(0 0)" fill="#5c3b66"/>
      </g>
    </g>
  </g>
</svg>
