<svg xmlns="http://www.w3.org/2000/svg" xmlns:xlink="http://www.w3.org/1999/xlink" width="96" height="96" viewBox="0 0 96 96">
  <defs>
    <clipPath id="clip-path">
      <rect id="Rect치ngulo_454535" data-name="Rect치ngulo 454535" width="25.231" height="26.467" fill="#cff878"/>
    </clipPath>
  </defs>
  <g id="Grupo_1193208" data-name="Grupo 1193208" transform="translate(-1192.711 -1019)">
    <path id="Elipse_5729" data-name="Elipse 5729" d="M48,0A48,48,0,1,1,0,48,48,48,0,0,1,48,0Z" transform="translate(1192.711 1019)" fill="#e795ff"/>
    <g id="Grupo_1192479" data-name="Grupo 1192479" transform="translate(1035 82)">
      <rect id="Rect치ngulo_455479" data-name="Rect치ngulo 455479" width="70" height="70" rx="35" transform="translate(170.711 950)" fill="#f8dfff"/>
      <g id="Grupo_1192524" data-name="Grupo 1192524" transform="translate(175.711 955)">
        <g id="Grupo_1176862" data-name="Grupo 1176862" clip-path="url(#clip-path)">
          <path id="Trazado_991676" data-name="Trazado 991676" d="M14.729,5.187,13.176.407a.589.589,0,0,0-1.12,0L10.5,5.187a.589.589,0,0,1-.906.294L5.53,2.527a.589.589,0,0,0-.906.658l1.553,4.78a.589.589,0,0,1-.56.771H.59A.589.589,0,0,0,.244,9.8l4.066,2.954a.589.589,0,0,1,0,.953L.244,16.664A.589.589,0,0,0,.59,17.73H5.617a.589.589,0,0,1,.56.771l-1.553,4.78a.589.589,0,0,0,.906.659L9.6,20.985a.589.589,0,0,1,.906.294l1.553,4.78a.589.589,0,0,0,1.12,0l1.553-4.78a.589.589,0,0,1,.906-.294L19.7,23.94a.589.589,0,0,0,.906-.658L19.055,18.5a.589.589,0,0,1,.56-.771h5.026a.589.589,0,0,0,.346-1.065L20.922,13.71a.589.589,0,0,1,0-.953L24.988,9.8a.589.589,0,0,0-.346-1.065H19.615a.589.589,0,0,1-.56-.771l1.553-4.78a.589.589,0,0,0-.906-.658L15.636,5.482a.589.589,0,0,1-.906-.294" transform="translate(0 0)" fill="#cff878"/>
        </g>
      </g>
      <g id="Grupo_1193220" data-name="Grupo 1193220" transform="translate(120.64 952.899)">
        <path id="Trazado_1006937" data-name="Trazado 1006937" d="M124.97,42.559a17.508,17.508,0,0,0-13.785,1.665,17.707,17.707,0,0,0,4.269,32.427,17.55,17.55,0,0,0,13.409-1.77,17.715,17.715,0,0,0,.363-30.445.94.94,0,0,0-.978,1.606,15.809,15.809,0,1,1-16.122-.19,15.644,15.644,0,0,1,12.317-1.488.94.94,0,0,0,.527-1.806Z" transform="translate(-36.547 -36.596)" fill="#5c3b66"/>
        <path id="Trazado_1006938" data-name="Trazado 1006938" d="M108.893,56.472l-.014-.023-2.26-3.676a.94.94,0,0,0-1.6.985l2.252,3.664a3.271,3.271,0,1,1-5.687,3.234L95.453,50.64l5.643-3.262.011.018,1.588,2.584a.94.94,0,0,0,1.6-.985l-1.582-2.573a10.116,10.116,0,0,0-1.986-2.452l-3.124-2.944a23,23,0,0,0,5.72-29.543,22.926,22.926,0,1,0-39.7,22.947,22.788,22.788,0,0,0,6.141,6.925.94.94,0,0,0,1.125-1.507A21.093,21.093,0,0,1,72.959,4.712,21.022,21.022,0,0,1,101.7,12.423,21.053,21.053,0,0,1,74.5,42.01a.94.94,0,0,0-.8,1.7,22.913,22.913,0,0,0,17.993.667l1,4.238a10.13,10.13,0,0,0,1.135,2.96l.013.021,6.138,10.029a5.152,5.152,0,1,0,8.921-5.155ZM99.969,45.858,94.7,48.9c-.068-.225-1.229-5.156-1.229-5.156l2.652-1.533S99.807,45.685,99.969,45.858Z" transform="translate(0 0)" fill="#5c3b66"/>
        <path id="Trazado_1006939" data-name="Trazado 1006939" d="M170.227,93.257l-2.138-2.139a.94.94,0,0,0-1.1-.171l-1.713.884a9.792,9.792,0,0,0-1-.445l-.752-2.049a.941.941,0,0,0-.883-.617h-3.713a.94.94,0,0,0-.883.617l-.747,2.036a8.814,8.814,0,0,0-1.013.45l-1.7-.877a.94.94,0,0,0-1.1.171l-2.138,2.139a.94.94,0,0,0-.171,1.1l.884,1.713a9.767,9.767,0,0,0-.619,1.494l-1.835.586a.94.94,0,0,0-.654.9v3.025a.941.941,0,0,0,.654.9l1.839.587a11.346,11.346,0,0,0,.623,1.478l-.892,1.728a.94.94,0,0,0,.171,1.1l2.138,2.139a.94.94,0,0,0,1.1.171l1.712-.884a9.753,9.753,0,0,0,1.493.619l.586,1.836a.941.941,0,0,0,.9.655h3.024a.941.941,0,0,0,.9-.655l.586-1.836a9.769,9.769,0,0,0,1.493-.619l1.712.884a.94.94,0,0,0,1.1-.171l2.138-2.139a.94.94,0,0,0,.171-1.1l-.884-1.713a9.752,9.752,0,0,0,.619-1.494l1.835-.586a.94.94,0,0,0,.654-.9V99.041a.94.94,0,0,0-.654-.9l-1.835-.586a9.785,9.785,0,0,0-.619-1.494l.884-1.713A.94.94,0,0,0,170.227,93.257Zm.515,6.472v1.651l-1.658.529a.94.94,0,0,0-.624.658,7.879,7.879,0,0,1-.823,1.987.94.94,0,0,0-.024.906l.8,1.548-1.167,1.167-1.547-.8a.94.94,0,0,0-.907.024,7.878,7.878,0,0,1-1.986.824.941.941,0,0,0-.658.624l-.529,1.658h-1.65l-.529-1.658a.941.941,0,0,0-.658-.624,7.878,7.878,0,0,1-1.986-.824.941.941,0,0,0-.907-.024l-1.547.8-1.167-1.167.8-1.548a.941.941,0,0,0,0-.87,9.691,9.691,0,0,1-.844-2.023.94.94,0,0,0-.624-.658l-1.658-.529V99.728L152.5,99.2a.941.941,0,0,0,.624-.658,7.881,7.881,0,0,1,.823-1.987.94.94,0,0,0,.024-.906l-.8-1.548,1.167-1.167,1.547.8a.94.94,0,0,0,.955-.054,6.155,6.155,0,0,1,1.44-.646.941.941,0,0,0,.632-.583l.677-1.847h2.4l.678,1.847a.94.94,0,0,0,.59.57,7.9,7.9,0,0,1,1.53.689.94.94,0,0,0,.907.024l1.547-.8,1.167,1.167-.8,1.548a.941.941,0,0,0,.024.906,7.875,7.875,0,0,1,.823,1.986.94.94,0,0,0,.624.658Z" transform="translate(-77.316 -77.597)" fill="#5c3b66"/>
        <path id="Trazado_1006940" data-name="Trazado 1006940" d="M206.817,141.361a5.232,5.232,0,0,0,0,10.465.985.985,0,0,0,1.149-.991.972.972,0,0,0-1.149-.89,3.352,3.352,0,1,1,3.35-3.352,3.321,3.321,0,0,1-.331,1.455.94.94,0,0,0,1.694.817,5.235,5.235,0,0,0-4.714-7.5Z" transform="translate(-123.34 -123.637)" fill="#5c3b66"/>
      </g>
    </g>
  </g>
</svg>
