<svg xmlns="http://www.w3.org/2000/svg" xmlns:xlink="http://www.w3.org/1999/xlink" width="96" height="96" viewBox="0 0 96 96">
  <defs>
    <clipPath id="clip-path">
      <rect id="Rect치ngulo_454535" data-name="Rect치ngulo 454535" width="25.231" height="26.467" fill="#cff878"/>
    </clipPath>
  </defs>
  <g id="Grupo_1193211" data-name="Grupo 1193211" transform="translate(-1192.711 -1019)">
    <path id="Elipse_5729" data-name="Elipse 5729" d="M48,0A48,48,0,1,1,0,48,48,48,0,0,1,48,0Z" transform="translate(1192.711 1019)" fill="#e795ff"/>
    <g id="Grupo_1192479" data-name="Grupo 1192479" transform="translate(1035 82)">
      <rect id="Rect치ngulo_455479" data-name="Rect치ngulo 455479" width="70" height="70" rx="35" transform="translate(170.711 950)" fill="#f8dfff"/>
      <g id="Grupo_1192524" data-name="Grupo 1192524" transform="translate(175.711 955)">
        <g id="Grupo_1176862" data-name="Grupo 1176862" clip-path="url(#clip-path)">
          <path id="Trazado_991676" data-name="Trazado 991676" d="M14.729,5.187,13.176.407a.589.589,0,0,0-1.12,0L10.5,5.187a.589.589,0,0,1-.906.294L5.53,2.527a.589.589,0,0,0-.906.658l1.553,4.78a.589.589,0,0,1-.56.771H.59A.589.589,0,0,0,.244,9.8l4.066,2.954a.589.589,0,0,1,0,.953L.244,16.664A.589.589,0,0,0,.59,17.73H5.617a.589.589,0,0,1,.56.771l-1.553,4.78a.589.589,0,0,0,.906.659L9.6,20.985a.589.589,0,0,1,.906.294l1.553,4.78a.589.589,0,0,0,1.12,0l1.553-4.78a.589.589,0,0,1,.906-.294L19.7,23.94a.589.589,0,0,0,.906-.658L19.055,18.5a.589.589,0,0,1,.56-.771h5.026a.589.589,0,0,0,.346-1.065L20.922,13.71a.589.589,0,0,1,0-.953L24.988,9.8a.589.589,0,0,0-.346-1.065H19.615a.589.589,0,0,1-.56-.771l1.553-4.78a.589.589,0,0,0-.906-.658L15.636,5.482a.589.589,0,0,1-.906-.294" transform="translate(0 0)" fill="#cff878"/>
        </g>
      </g>
      <g id="outline" transform="translate(156.256 818.503)">
        <path id="Trazado_1006941" data-name="Trazado 1006941" d="M16.39,167.344,32,180.725a1.115,1.115,0,0,0,1.841-.847v-6.691h7.806a1.115,1.115,0,0,0,.871-.418l8.921-11.151a1.115,1.115,0,0,0-.871-1.812H33.843v-6.691A1.115,1.115,0,0,0,32,152.269L16.39,165.65a1.115,1.115,0,0,0,0,1.693Zm15.222-11.8v5.381a1.115,1.115,0,0,0,1.115,1.115H48.249l-7.137,8.921H32.727a1.115,1.115,0,0,0-1.115,1.115v5.381L18.829,166.5Z" transform="translate(0 0)" fill="#5c3b66"/>
        <path id="Trazado_1006942" data-name="Trazado 1006942" d="M275.293,165.65l-15.612-13.382a1.115,1.115,0,0,0-1.841.847v6.691h-7.806a1.115,1.115,0,0,0-.871.418l-8.921,11.151a1.115,1.115,0,0,0,.871,1.812H257.84v6.691a1.115,1.115,0,0,0,1.841.847l15.612-13.382a1.115,1.115,0,0,0,0-1.693Zm-15.222,11.8v-5.381a1.115,1.115,0,0,0-1.115-1.115H243.434l7.137-8.921h8.385a1.115,1.115,0,0,0,1.115-1.115V155.54L272.854,166.5Z" transform="translate(-192.774)" fill="#5c3b66"/>
      </g>
    </g>
  </g>
</svg>
