<svg xmlns="http://www.w3.org/2000/svg" xmlns:xlink="http://www.w3.org/1999/xlink" width="96" height="96" viewBox="0 0 96 96">
  <defs>
    <clipPath id="clip-path">
      <rect id="Rect치ngulo_454535" data-name="Rect치ngulo 454535" width="25.231" height="26.467" fill="#cff878"/>
    </clipPath>
  </defs>
  <g id="Grupo_1193210" data-name="Grupo 1193210" transform="translate(-1192.711 -1019)">
    <path id="Elipse_5729" data-name="Elipse 5729" d="M48,0A48,48,0,1,1,0,48,48,48,0,0,1,48,0Z" transform="translate(1192.711 1019)" fill="#e795ff"/>
    <g id="Grupo_1192479" data-name="Grupo 1192479" transform="translate(1035 82)">
      <rect id="Rect치ngulo_455479" data-name="Rect치ngulo 455479" width="70" height="70" rx="35" transform="translate(170.711 950)" fill="#f8dfff"/>
      <g id="Grupo_1192524" data-name="Grupo 1192524" transform="translate(175.711 955)">
        <g id="Grupo_1176862" data-name="Grupo 1176862" clip-path="url(#clip-path)">
          <path id="Trazado_991676" data-name="Trazado 991676" d="M14.729,5.187,13.176.407a.589.589,0,0,0-1.12,0L10.5,5.187a.589.589,0,0,1-.906.294L5.53,2.527a.589.589,0,0,0-.906.658l1.553,4.78a.589.589,0,0,1-.56.771H.59A.589.589,0,0,0,.244,9.8l4.066,2.954a.589.589,0,0,1,0,.953L.244,16.664A.589.589,0,0,0,.59,17.73H5.617a.589.589,0,0,1,.56.771l-1.553,4.78a.589.589,0,0,0,.906.659L9.6,20.985a.589.589,0,0,1,.906.294l1.553,4.78a.589.589,0,0,0,1.12,0l1.553-4.78a.589.589,0,0,1,.906-.294L19.7,23.94a.589.589,0,0,0,.906-.658L19.055,18.5a.589.589,0,0,1,.56-.771h5.026a.589.589,0,0,0,.346-1.065L20.922,13.71a.589.589,0,0,1,0-.953L24.988,9.8a.589.589,0,0,0-.346-1.065H19.615a.589.589,0,0,1-.56-.771l1.553-4.78a.589.589,0,0,0-.906-.658L15.636,5.482a.589.589,0,0,1-.906-.294" transform="translate(0 0)" fill="#cff878"/>
        </g>
      </g>
      <g id="Grupo_1193221" data-name="Grupo 1193221" transform="translate(173.711 952.6)">
        <path id="Trazado_1006943" data-name="Trazado 1006943" d="M34.293,6.293,30,10.586,28.707,9.293l-1.414,1.414,2,2a1,1,0,0,0,1.414,0l5-5Z" fill="#5c3b66"/>
        <path id="Trazado_1006944" data-name="Trazado 1006944" d="M52,24a1,1,0,0,0,.707-.293l5-5-1.414-1.414L52,21.586l-1.293-1.293-1.414,1.414,2,2A1,1,0,0,0,52,24Z" fill="#5c3b66"/>
        <path id="Trazado_1006945" data-name="Trazado 1006945" d="M54,46a7.973,7.973,0,0,0-5.8,2.5L32.6,37.072a9.825,9.825,0,0,0,1.072-7.556L46.9,24.67a8.115,8.115,0,1,0-.689-1.878L32.985,27.639A10.044,10.044,0,0,0,28.332,23l1.9-5.2a8.015,8.015,0,1,0-1.879-.685l-1.9,5.206a9.808,9.808,0,0,0-6.944.761l-4.4-6.925a8.116,8.116,0,1,0-1.689,1.07l4.405,6.93a9.967,9.967,0,0,0-.34,15.414l-3.753,5.361a8.069,8.069,0,1,0,1.635,1.153l3.754-5.363a9.947,9.947,0,0,0,12.3-2.036l15.6,11.43A8,8,0,1,0,54,46Zm0-31a6,6,0,1,1-6,6A6.006,6.006,0,0,1,54,15ZM26,10a6,6,0,1,1,6,6A6.006,6.006,0,0,1,26,10ZM4,10a6,6,0,1,1,6,6A6.006,6.006,0,0,1,4,10ZM16,52a6,6,0,1,1-6-6A6.006,6.006,0,0,1,16,52Zm8-12a8,8,0,1,1,8-8A8.009,8.009,0,0,1,24,40ZM54,60a6,6,0,1,1,6-6A6.006,6.006,0,0,1,54,60Z" fill="#5c3b66"/>
        <path id="Trazado_1006946" data-name="Trazado 1006946" d="M8,52.586,6.707,51.293,5.293,52.707l2,2a1,1,0,0,0,1.414,0l5-5-1.414-1.414Z" fill="#5c3b66"/>
      </g>
    </g>
  </g>
</svg>
