<svg xmlns="http://www.w3.org/2000/svg" width="128" height="128" viewBox="0 0 128 128">
  <g id="Grupo_1192807" data-name="Grupo 1192807" transform="translate(-72.746 -7992)">
    <g id="Elipse_13628" data-name="Elipse 13628" transform="translate(72.746 7992)" fill="#fff7e2" stroke="#cff878" stroke-width="6">
      <circle cx="64" cy="64" r="64" stroke="none"/>
      <circle cx="64" cy="64" r="61" fill="none"/>
    </g>
    <g id="Page-1" transform="translate(104.087 8023.819)">
      <g id="_002---Text-Box" data-name="002---Text-Box">
        <path id="Path" d="M10.8,2.089V4.266A1.089,1.089,0,0,1,9.709,5.355H6.443A1.089,1.089,0,0,0,5.355,6.443V9.709A1.089,1.089,0,0,1,4.266,10.8H2.089A1.089,1.089,0,0,1,1,9.709V3.177A2.184,2.184,0,0,1,3.177,1H9.709A1.089,1.089,0,0,1,10.8,2.089Z" transform="translate(0.089 0.089)" fill="#02a8f3" fill-rule="evenodd"/>
        <path id="Path-2" data-name="Path" d="M10.8,56.532v2.177A1.089,1.089,0,0,1,9.709,59.8H3.177A2.184,2.184,0,0,1,1,57.62V51.089A1.089,1.089,0,0,1,2.089,50H4.266a1.089,1.089,0,0,1,1.089,1.089v3.266a1.089,1.089,0,0,0,1.089,1.089H9.709A1.089,1.089,0,0,1,10.8,56.532Z" transform="translate(0.089 4.432)" fill="#02a8f3" fill-rule="evenodd"/>
        <path id="Path-3" data-name="Path" d="M59.8,51.089V57.62A2.184,2.184,0,0,1,57.62,59.8H51.089A1.089,1.089,0,0,1,50,58.709V56.532a1.089,1.089,0,0,1,1.089-1.089h3.266a1.089,1.089,0,0,0,1.089-1.089V51.089A1.089,1.089,0,0,1,56.532,50h2.177A1.089,1.089,0,0,1,59.8,51.089Z" transform="translate(4.432 4.432)" fill="#02a8f3" fill-rule="evenodd"/>
        <path id="Path-4" data-name="Path" d="M58.355,50H56.177a1.055,1.055,0,0,0-.544.168,1.077,1.077,0,0,1,.544.921V57.62A2.184,2.184,0,0,1,54,59.8h3.266a2.184,2.184,0,0,0,2.177-2.177V51.089A1.089,1.089,0,0,0,58.355,50Z" transform="translate(4.787 4.432)" fill="#0377bb" fill-rule="evenodd"/>
        <path id="Path-5" data-name="Path" d="M59.8,3.177V9.709A1.089,1.089,0,0,1,58.709,10.8H56.532a1.089,1.089,0,0,1-1.089-1.089V6.443a1.089,1.089,0,0,0-1.089-1.089H51.089A1.089,1.089,0,0,1,50,4.266V2.089A1.089,1.089,0,0,1,51.089,1H57.62A2.184,2.184,0,0,1,59.8,3.177Z" transform="translate(4.432 0.089)" fill="#02a8f3" fill-rule="evenodd"/>
        <path id="Path-6" data-name="Path" d="M57.266,1H54a2.184,2.184,0,0,1,2.177,2.177V9.709a1.077,1.077,0,0,1-.544.921,1.055,1.055,0,0,0,.544.168h2.177a1.089,1.089,0,0,0,1.089-1.089V3.177A2.184,2.184,0,0,0,57.266,1Z" transform="translate(4.787 0.089)" fill="#0377bb" fill-rule="evenodd"/>
        <path id="Path-7" data-name="Path" d="M61.787,10.62V54.166H60.7a1.089,1.089,0,0,0-1.089,1.089v3.266a1.089,1.089,0,0,1-1.089,1.089H55.255A1.089,1.089,0,0,0,54.166,60.7v1.089H10.62V60.7a1.089,1.089,0,0,0-1.089-1.089H6.266a1.089,1.089,0,0,1-1.089-1.089V55.255a1.089,1.089,0,0,0-1.089-1.089H3V10.62H4.089A1.089,1.089,0,0,0,5.177,9.532V6.266A1.089,1.089,0,0,1,6.266,5.177H9.532A1.089,1.089,0,0,0,10.62,4.089V3H54.166V4.089a1.089,1.089,0,0,0,1.089,1.089h3.266a1.089,1.089,0,0,1,1.089,1.089V9.532A1.089,1.089,0,0,0,60.7,10.62Z" transform="translate(0.266 0.266)" fill="#f4f4f4" fill-rule="evenodd"/>
        <path id="Path-8" data-name="Path" d="M56.443,10.443a1.089,1.089,0,0,1-1.089-1.089V6.089A1.089,1.089,0,0,0,54.266,5H51a1.089,1.089,0,0,1,1.089,1.089V9.355a1.089,1.089,0,0,0,1.089,1.089h1.089V53.989H53.177a1.089,1.089,0,0,0-1.089,1.089v3.266A1.089,1.089,0,0,1,51,59.432h3.266a1.089,1.089,0,0,0,1.089-1.089V55.077a1.089,1.089,0,0,1,1.089-1.089h1.089V10.443Z" transform="translate(4.521 0.443)" fill="#ced7db" fill-rule="evenodd"/>
        <g id="Grupo_1193186" data-name="Grupo 1193186">
          <path id="Shape" d="M2.177,11.975v2.177a1.089,1.089,0,0,0,2.177,0V11.975A2.177,2.177,0,0,0,6.532,9.8V6.532H9.8a2.177,2.177,0,0,0,2.177-2.177h2.177a1.089,1.089,0,0,0,0-2.177H11.975A2.177,2.177,0,0,0,9.8,0H3.266A3.266,3.266,0,0,0,0,3.266V9.8A2.177,2.177,0,0,0,2.177,11.975Zm0-8.709A1.089,1.089,0,0,1,3.266,2.177H9.8V4.355H6.532A2.177,2.177,0,0,0,4.355,6.532V9.8H2.177Z"/>
          <path id="Path-9" data-name="Path" d="M4.177,29.089a1.089,1.089,0,0,0-2.177,0v2.177a1.089,1.089,0,1,0,2.177,0Z" transform="translate(0.177 2.482)" fill-rule="evenodd"/>
          <path id="Path-10" data-name="Path" d="M4.177,23.089a1.089,1.089,0,1,0-2.177,0v2.177a1.089,1.089,0,1,0,2.177,0Z" transform="translate(0.177 1.95)" fill-rule="evenodd"/>
          <path id="Path-11" data-name="Path" d="M4.177,17.089a1.089,1.089,0,1,0-2.177,0v2.177a1.089,1.089,0,0,0,2.177,0Z" transform="translate(0.177 1.418)" fill-rule="evenodd"/>
          <path id="Path-12" data-name="Path" d="M4.177,35.089a1.089,1.089,0,0,0-2.177,0v2.177a1.089,1.089,0,1,0,2.177,0Z" transform="translate(0.177 3.014)" fill-rule="evenodd"/>
          <path id="Path-13" data-name="Path" d="M3.089,40A1.089,1.089,0,0,0,2,41.089v2.177a1.089,1.089,0,0,0,2.177,0V41.089A1.089,1.089,0,0,0,3.089,40Z" transform="translate(0.177 3.546)" fill-rule="evenodd"/>
          <path id="Shape-2" data-name="Shape" d="M3.266,61.241H9.8a2.177,2.177,0,0,0,2.177-2.177h2.177a1.089,1.089,0,1,0,0-2.177H11.975A2.177,2.177,0,0,0,9.8,54.709H6.532V51.443a2.177,2.177,0,0,0-2.177-2.177V47.089a1.089,1.089,0,0,0-2.177,0v2.177A2.177,2.177,0,0,0,0,51.443v6.532A3.266,3.266,0,0,0,3.266,61.241Zm-1.089-9.8H4.355v3.266a2.177,2.177,0,0,0,2.177,2.177H9.8v2.177H3.266a1.089,1.089,0,0,1-1.089-1.089Z" transform="translate(0 4.077)"/>
          <path id="Path-14" data-name="Path" d="M31.266,58.177a1.089,1.089,0,1,0,0-2.177H29.089a1.089,1.089,0,0,0,0,2.177Z" transform="translate(2.482 4.964)" fill-rule="evenodd"/>
          <path id="Path-15" data-name="Path" d="M25.266,58.177a1.089,1.089,0,1,0,0-2.177H23.089a1.089,1.089,0,1,0,0,2.177Z" transform="translate(1.95 4.964)" fill-rule="evenodd"/>
          <path id="Path-16" data-name="Path" d="M19.266,58.177a1.089,1.089,0,0,0,0-2.177H17.089a1.089,1.089,0,1,0,0,2.177Z" transform="translate(1.418 4.964)" fill-rule="evenodd"/>
          <path id="Shape-3" data-name="Shape" d="M59.064,49.266V47.089a1.089,1.089,0,0,0-2.177,0v2.177a2.177,2.177,0,0,0-2.177,2.177v3.266H51.443a2.177,2.177,0,0,0-2.177,2.177H47.089a1.089,1.089,0,1,0,0,2.177h2.177a2.177,2.177,0,0,0,2.177,2.177h6.532a3.266,3.266,0,0,0,3.266-3.266V51.443A2.177,2.177,0,0,0,59.064,49.266Zm0,8.709a1.089,1.089,0,0,1-1.089,1.089H51.443V56.886h3.266a2.177,2.177,0,0,0,2.177-2.177V51.443h2.177Z" transform="translate(4.077 4.077)"/>
          <path id="Path-17" data-name="Path" d="M56,31.266a1.089,1.089,0,1,0,2.177,0V29.089a1.089,1.089,0,1,0-2.177,0Z" transform="translate(4.964 2.482)" fill-rule="evenodd"/>
          <path id="Path-18" data-name="Path" d="M56,37.266a1.089,1.089,0,1,0,2.177,0V35.089a1.089,1.089,0,0,0-2.177,0Z" transform="translate(4.964 3.014)" fill-rule="evenodd"/>
          <path id="Path-19" data-name="Path" d="M56,43.266a1.089,1.089,0,1,0,2.177,0V41.089a1.089,1.089,0,1,0-2.177,0Z" transform="translate(4.964 3.546)" fill-rule="evenodd"/>
          <path id="Shape-4" data-name="Shape" d="M57.975,0H51.443a2.177,2.177,0,0,0-2.177,2.177H47.089a1.089,1.089,0,0,0,0,2.177h2.177a2.177,2.177,0,0,0,2.177,2.177h3.266V9.8a2.177,2.177,0,0,0,2.177,2.177v2.177a1.089,1.089,0,1,0,2.177,0V11.975A2.177,2.177,0,0,0,61.241,9.8V3.266A3.266,3.266,0,0,0,57.975,0ZM56.886,9.8V6.532a2.177,2.177,0,0,0-2.177-2.177H51.443V2.177h6.532a1.089,1.089,0,0,1,1.089,1.089V9.8Z" transform="translate(4.077)"/>
          <path id="Path-20" data-name="Path" d="M29.089,4.177h2.177a1.089,1.089,0,1,0,0-2.177H29.089a1.089,1.089,0,0,0,0,2.177Z" transform="translate(2.482 0.177)" fill-rule="evenodd"/>
          <path id="Path-21" data-name="Path" d="M35.089,4.177h2.177a1.089,1.089,0,1,0,0-2.177H35.089a1.089,1.089,0,0,0,0,2.177Z" transform="translate(3.014 0.177)" fill-rule="evenodd"/>
          <path id="Path-22" data-name="Path" d="M41.089,4.177h2.177a1.089,1.089,0,0,0,0-2.177H41.089a1.089,1.089,0,1,0,0,2.177Z" transform="translate(3.546 0.177)" fill-rule="evenodd"/>
          <path id="Path-23" data-name="Path" d="M23.089,4.177h2.177a1.089,1.089,0,1,0,0-2.177H23.089a1.089,1.089,0,1,0,0,2.177Z" transform="translate(1.95 0.177)" fill-rule="evenodd"/>
          <path id="Path-24" data-name="Path" d="M17.089,4.177h2.177a1.089,1.089,0,0,0,0-2.177H17.089a1.089,1.089,0,1,0,0,2.177Z" transform="translate(1.418 0.177)" fill-rule="evenodd"/>
          <path id="Path-25" data-name="Path" d="M56,25.266a1.089,1.089,0,1,0,2.177,0V23.089a1.089,1.089,0,1,0-2.177,0Z" transform="translate(4.964 1.95)" fill-rule="evenodd"/>
          <path id="Path-26" data-name="Path" d="M57.089,20.355a1.089,1.089,0,0,0,1.089-1.089V17.089a1.089,1.089,0,1,0-2.177,0v2.177A1.089,1.089,0,0,0,57.089,20.355Z" transform="translate(4.964 1.418)" fill-rule="evenodd"/>
          <path id="Path-27" data-name="Path" d="M37.266,58.177a1.089,1.089,0,1,0,0-2.177H35.089a1.089,1.089,0,1,0,0,2.177Z" transform="translate(3.014 4.964)" fill-rule="evenodd"/>
          <path id="Path-28" data-name="Path" d="M43.266,58.177a1.089,1.089,0,0,0,0-2.177H41.089a1.089,1.089,0,1,0,0,2.177Z" transform="translate(3.546 4.964)" fill-rule="evenodd"/>
          <path id="Shape-5" data-name="Shape" d="M9,15.532V26.418a1.089,1.089,0,1,0,2.177,0V20.975h8.709v5.443a1.089,1.089,0,1,0,2.177,0V15.532A6.532,6.532,0,0,0,9,15.532Zm6.532-4.355a4.355,4.355,0,0,1,4.355,4.355V18.8H11.177V15.532A4.355,4.355,0,0,1,15.532,11.177Z" transform="translate(0.798 0.798)"/>
          <path id="Path-29" data-name="Path" d="M27.089,13.177H52.127a1.089,1.089,0,0,0,0-2.177H27.089a1.089,1.089,0,0,0,0,2.177Z" transform="translate(2.305 0.975)" fill-rule="evenodd"/>
          <path id="Path-30" data-name="Path" d="M52.127,17H27.089a1.089,1.089,0,0,0,0,2.177H52.127a1.089,1.089,0,0,0,0-2.177Z" transform="translate(2.305 1.507)" fill-rule="evenodd"/>
          <path id="Path-31" data-name="Path" d="M52.127,23H27.089a1.089,1.089,0,0,0,0,2.177H52.127a1.089,1.089,0,0,0,0-2.177Z" transform="translate(2.305 2.039)" fill-rule="evenodd"/>
          <path id="Path-32" data-name="Path" d="M53.634,29H10.089a1.089,1.089,0,0,0,0,2.177H53.634a1.089,1.089,0,0,0,0-2.177Z" transform="translate(0.798 2.571)" fill-rule="evenodd"/>
          <path id="Path-33" data-name="Path" d="M53.634,35H10.089a1.089,1.089,0,1,0,0,2.177H53.634a1.089,1.089,0,1,0,0-2.177Z" transform="translate(0.798 3.102)" fill-rule="evenodd"/>
          <path id="Path-34" data-name="Path" d="M53.634,41H10.089a1.089,1.089,0,1,0,0,2.177H53.634a1.089,1.089,0,1,0,0-2.177Z" transform="translate(0.798 3.634)" fill-rule="evenodd"/>
          <path id="Path-35" data-name="Path" d="M54.723,48.089A1.089,1.089,0,0,0,53.634,47H10.089a1.089,1.089,0,0,0,0,2.177H53.634A1.089,1.089,0,0,0,54.723,48.089Z" transform="translate(0.798 4.166)" fill-rule="evenodd"/>
        </g>
      </g>
    </g>
  </g>
</svg>
