<svg xmlns="http://www.w3.org/2000/svg" width="128" height="128" viewBox="0 0 128 128">
  <g id="Grupo_1192808" data-name="Grupo 1192808" transform="translate(-72.746 -7992)">
    <g id="Elipse_13628" data-name="Elipse 13628" transform="translate(72.746 7992)" fill="#fff7e2" stroke="#cff878" stroke-width="6">
      <circle cx="64" cy="64" r="64" stroke="none"/>
      <circle cx="64" cy="64" r="61" fill="none"/>
    </g>
    <g id="Grupo_1193187" data-name="Grupo 1193187" transform="translate(97.547 8021.921)">
      <path id="Trazado_1006851" data-name="Trazado 1006851" d="M37.631,7.605c-16.583,0-30.026,11.588-30.026,25.884A23.536,23.536,0,0,0,13.6,49.007L10.007,60.975l10.658-6.128a33.322,33.322,0,0,0,16.965,4.527c16.583,0,30.026-11.588,30.026-25.884S54.214,7.606,37.631,7.606Zm0,0" transform="translate(-6.441 -6.441)" fill="#77f6fb"/>
      <path id="Trazado_1006852" data-name="Trazado 1006852" d="M162.46,118.98c6.023-4.734,9.8-11.552,9.8-19.132,0-14.3-13.443-25.884-30.026-25.884s-30.026,11.588-30.026,25.884,13.443,25.884,30.026,25.884a33.984,33.984,0,0,0,12.535-2.358l10.884,6.259Zm0,0" transform="translate(-95.029 -62.639)" fill="#fed563"/>
      <path id="Trazado_1006853" data-name="Trazado 1006853" d="M156.245,89.688a23.367,23.367,0,0,0-5.229-14.6,34.483,34.483,0,0,0-8.779-1.125c-16.583,0-30.026,11.588-30.026,25.884a23.369,23.369,0,0,0,5.228,14.6,34.485,34.485,0,0,0,8.78,1.126c16.583,0,30.026-11.588,30.026-25.884Zm0,0" transform="translate(-95.029 -62.64)" fill="#fc315f"/>
      <path id="Trazado_1006854" data-name="Trazado 1006854" d="M206.815,128.447a9.84,9.84,0,0,1-4.607,8.34H191.724A9.852,9.852,0,0,1,199.1,118.83c.071.016.142.032.212.049a9.852,9.852,0,0,1,7.5,9.567Zm0,0" transform="translate(-158.466 -100.438)" fill="#fcbb65"/>
      <path id="Trazado_1006855" data-name="Trazado 1006855" d="M232.744,130a9.84,9.84,0,0,1-4.607,8.34h-5.8a9.852,9.852,0,0,1,2.9-17.908A9.852,9.852,0,0,1,232.744,130Zm0,0" transform="translate(-184.395 -101.996)" fill="#fed563"/>
      <path id="Trazado_1006856" data-name="Trazado 1006856" d="M220.745,238.52a2.582,2.582,0,0,1-2.582,2.583h-8.384a2.582,2.582,0,1,1,0-5.165h8.384A2.582,2.582,0,0,1,220.745,238.52Zm0,0" transform="translate(-175.469 -199.81)" fill="#d5e8ec"/>
      <path id="Trazado_1006857" data-name="Trazado 1006857" d="M228.872,272.247a2.581,2.581,0,0,1-2.582,2.582h-4.8a2.582,2.582,0,0,1,0-5.165h4.8A2.583,2.583,0,0,1,228.872,272.247Zm0,0" transform="translate(-185.39 -228.372)" fill="#d5e8ec"/>
      <path id="Trazado_1006858" data-name="Trazado 1006858" d="M201.541,122.009a11.013,11.013,0,1,0-18.152,8.388,3.745,3.745,0,0,0,1.423,5.734,3.749,3.749,0,0,0,3.318,5.49h4.8a3.744,3.744,0,0,0,3.316-5.487,3.743,3.743,0,0,0,1.423-5.736,10.951,10.951,0,0,0,3.875-8.389Zm-19.7,0a8.684,8.684,0,1,1,13.748,7.057,3.738,3.738,0,0,0-.871-.1h-3.028v-2.569a4.041,4.041,0,0,0,2.87-3.862,1.164,1.164,0,0,0-2.329,0,1.706,1.706,0,1,1-3.412,0,1.164,1.164,0,0,0-2.329,0,4.04,4.04,0,0,0,2.87,3.862v2.569h-3.027a3.756,3.756,0,0,0-.874.1,8.643,8.643,0,0,1-3.619-7.057Zm11.083,12.119h-6.591a1.418,1.418,0,1,1,0-2.836h8.385a1.418,1.418,0,1,1,0,2.836Zm1,4.749a1.409,1.409,0,0,1-1,.416h-4.8a1.418,1.418,0,1,1,0-2.836h4.8a1.418,1.418,0,0,1,1,2.421Zm0,0" transform="translate(-152.028 -94)"/>
      <path id="Trazado_1006859" data-name="Trazado 1006859" d="M68.771,56.756A25.521,25.521,0,0,0,78.4,37.209a25.209,25.209,0,0,0-9.2-19.185,32.207,32.207,0,0,0-12.538-6.6,28.878,28.878,0,0,0-3.479-3.558A33.574,33.574,0,0,0,31.19,0,35,35,0,0,0,15.834,3.5a1.164,1.164,0,1,0,1.027,2.09A32.665,32.665,0,0,1,31.19,2.329a31.1,31.1,0,0,1,21.5,8.248,36.293,36.293,0,0,0-5.482-.415,33.573,33.573,0,0,0-21.992,7.864,25.209,25.209,0,0,0-9.2,19.185,24.225,24.225,0,0,0,3.5,12.451,30.453,30.453,0,0,1-4.7-2.257,1.165,1.165,0,0,0-1.174-.007l-8.121,4.67L8.272,42.9a1.163,1.163,0,0,0-.237-1.1A22.281,22.281,0,0,1,2.329,27.048c0-7.421,3.847-14.386,10.554-19.107a1.165,1.165,0,0,0-1.341-1.9C4.207,11.2,0,18.859,0,27.048A24.481,24.481,0,0,0,5.86,42.838L2.452,54.2a1.164,1.164,0,0,0,1.7,1.344l10.077-5.794a33.319,33.319,0,0,0,7.517,3.08q.859,1.052,1.834,2.037A32.675,32.675,0,0,0,42.146,63.9a1.164,1.164,0,1,0,.327-2.306,30.464,30.464,0,0,1-16.785-7.922,36.106,36.106,0,0,0,5.5.42,33.574,33.574,0,0,0,21.992-7.863,25.209,25.209,0,0,0,9.2-19.185,24.089,24.089,0,0,0-3.473-12.434c10.1,3.852,17.162,12.53,17.162,22.6,0,6.9-3.411,13.542-9.358,18.217a1.164,1.164,0,0,0-.4,1.25l2.355,7.85-8.348-4.8a1.164,1.164,0,0,0-1.01-.073,32.68,32.68,0,0,1-12.105,2.276,1.164,1.164,0,1,0,0,2.329,35.052,35.052,0,0,0,12.436-2.236L70.047,68a1.164,1.164,0,0,0,1.7-1.344ZM60.052,27.048c0,13.63-12.947,24.72-28.862,24.72a33.385,33.385,0,0,1-8.1-.988,22.265,22.265,0,0,1-4.743-13.571c0-13.63,12.947-24.72,28.862-24.72a33.286,33.286,0,0,1,8.1.992,22.136,22.136,0,0,1,4.748,13.567Zm0,0"/>
    </g>
  </g>
</svg>
