<svg xmlns="http://www.w3.org/2000/svg" width="128" height="128" viewBox="0 0 128 128">
  <g id="Grupo_1192809" data-name="Grupo 1192809" transform="translate(-72.746 -7992)">
    <g id="Elipse_13628" data-name="Elipse 13628" transform="translate(72.746 7992)" fill="#fff7e2" stroke="#cff878" stroke-width="6">
      <circle cx="64" cy="64" r="64" stroke="none"/>
      <circle cx="64" cy="64" r="61" fill="none"/>
    </g>
    <g id="Grupo_1193202" data-name="Grupo 1193202" transform="translate(101.915 8021.25)">
      <g id="Grupo_1193196" data-name="Grupo 1193196" transform="translate(0.461 0.461)">
        <g id="Grupo_1193188" data-name="Grupo 1193188" transform="translate(0.079 36.562)">
          <path id="Trazado_1006860" data-name="Trazado 1006860" d="M15.609,19.6H1.5A32.348,32.348,0,0,0,7.95,35.12l9.877-9.877A19.374,19.374,0,0,1,15.609,19.6Z" transform="translate(0.516 -17.584)" fill="#f1594c"/>
          <path id="Trazado_1006861" data-name="Trazado 1006861" d="M8.764,38.151a1.7,1.7,0,0,1-1.411-.806A35.337,35.337,0,0,1,.5,20.817,2.172,2.172,0,0,1,.9,19.2a2.289,2.289,0,0,1,1.612-.6H16.625a1.963,1.963,0,0,1,2.016,1.612,15.549,15.549,0,0,0,2.016,5.039,2.113,2.113,0,0,1-.2,2.419L10.377,37.547a1.984,1.984,0,0,1-1.612.6Zm-3.83-15.52a30.8,30.8,0,0,0,4.233,10.28l7.256-7.256a15.6,15.6,0,0,1-1.411-3.225H4.934Z" transform="translate(-0.5 -18.6)" fill="#010101"/>
        </g>
        <g id="Grupo_1193189" data-name="Grupo 1193189" transform="translate(12.497 0.281)">
          <path id="Trazado_1006862" data-name="Trazado 1006862" d="M18.632,20.958a1.83,1.83,0,0,1-1.411-.6L7.143,10.275a1.246,1.246,0,0,1-.4-1.411c.2-.6.2-1.209.6-1.411A35.337,35.337,0,0,1,23.873.6a2.172,2.172,0,0,1,1.612.4,2.289,2.289,0,0,1,.6,1.612V16.725a1.963,1.963,0,0,1-1.612,2.016,15.549,15.549,0,0,0-5.039,2.016c-.2,0-.4.2-.806.2ZM11.779,9.267l7.256,7.256a22.4,22.4,0,0,1,3.225-1.411V5.034A25.062,25.062,0,0,0,11.779,9.267Z" transform="translate(-6.661 -0.6)" fill="#010101"/>
        </g>
        <g id="Grupo_1193190" data-name="Grupo 1193190" transform="translate(12.374 48.089)">
          <path id="Trazado_1006863" data-name="Trazado 1006863" d="M17.577,25.3,7.7,35.177a32.348,32.348,0,0,0,15.52,6.45V27.517A11.5,11.5,0,0,1,17.577,25.3Z" transform="translate(-5.483 -23.322)" fill="#9c5730"/>
          <path id="Trazado_1006864" data-name="Trazado 1006864" d="M23.934,44.639A35.337,35.337,0,0,1,7.406,37.785,2.04,2.04,0,0,1,6.6,36.375a2.289,2.289,0,0,1,.6-1.612l9.877-9.877a1.835,1.835,0,0,1,2.419-.2A15.549,15.549,0,0,0,24.539,26.7a1.963,1.963,0,0,1,1.612,2.016V42.824a2.289,2.289,0,0,1-.6,1.612,2.142,2.142,0,0,1-1.612.2ZM11.841,35.971A32.63,32.63,0,0,0,22.12,40.2V30.126A22.4,22.4,0,0,1,18.9,28.715Z" transform="translate(-6.6 -24.319)" fill="#010101"/>
        </g>
        <g id="Grupo_1193191" data-name="Grupo 1193191" transform="translate(47.971 12.576)">
          <path id="Trazado_1006865" data-name="Trazado 1006865" d="M27.517,23.22H41.626A32.348,32.348,0,0,0,35.177,7.7L25.3,17.577a19.374,19.374,0,0,1,2.217,5.644Z" transform="translate(-23.205 -5.684)" fill="#849da9"/>
          <path id="Trazado_1006866" data-name="Trazado 1006866" d="M42.682,26.251H28.573a1.963,1.963,0,0,1-2.016-1.612A15.549,15.549,0,0,0,24.542,19.6a2.113,2.113,0,0,1,.2-2.419L34.821,7.3a2.289,2.289,0,0,1,1.612-.6,1.7,1.7,0,0,1,1.411.806A35.337,35.337,0,0,1,44.7,24.034a3.8,3.8,0,0,1-.4,1.612,2.289,2.289,0,0,1-1.612.6Zm-12.5-4.031H40.263a33.712,33.712,0,0,0-4.233-10.481L28.774,19A22.4,22.4,0,0,1,30.185,22.22Z" transform="translate(-24.261 -6.7)" fill="#010101"/>
        </g>
        <g id="Grupo_1193192" data-name="Grupo 1193192" transform="translate(36.36)">
          <path id="Trazado_1006867" data-name="Trazado 1006867" d="M25.144,17.926,35.02,8.05A32.348,32.348,0,0,0,19.5,1.6V15.709A10.785,10.785,0,0,1,25.144,17.926Z" transform="translate(-17.484 0.696)" fill="#f15e75"/>
          <path id="Trazado_1006868" data-name="Trazado 1006868" d="M26.159,21.1c-.4,0-.806,0-1.008-.4a15.549,15.549,0,0,0-5.039-2.016A1.963,1.963,0,0,1,18.5,16.665V2.555A2.289,2.289,0,0,1,19.1.943a1.568,1.568,0,0,1,1.612-.4A35.337,35.337,0,0,1,37.245,7.393,2.04,2.04,0,0,1,38.051,8.8a2.172,2.172,0,0,1-.4,1.612L27.57,20.494a1.569,1.569,0,0,1-1.411.6Zm-3.427-5.845a15.6,15.6,0,0,1,3.225,1.411l7.256-7.256A28.039,28.039,0,0,0,22.733,5.176Z" transform="translate(-18.5 -0.461)" fill="#010101"/>
        </g>
        <g id="Grupo_1193193" data-name="Grupo 1193193" transform="translate(48.089 36.562)">
          <path id="Trazado_1006869" data-name="Trazado 1006869" d="M27.619,19.6A15.467,15.467,0,0,1,25.2,25.244l9.877,9.877a32.348,32.348,0,0,0,6.45-15.52Z" transform="translate(-23.424 -17.584)" fill="#e09c49"/>
          <path id="Trazado_1006870" data-name="Trazado 1006870" d="M34.762,37.547,24.886,27.67a1.835,1.835,0,0,1-.2-2.419A15.549,15.549,0,0,0,26.7,20.212,1.963,1.963,0,0,1,28.715,18.6H42.824a2.289,2.289,0,0,1,1.612.6,1.568,1.568,0,0,1,.4,1.612,35.337,35.337,0,0,1-6.853,16.528,2.04,2.04,0,0,1-1.411.806,2.464,2.464,0,0,1-1.814-.6ZM28.715,25.856l7.256,7.256A28.522,28.522,0,0,0,40.2,22.833H30.126A20.342,20.342,0,0,1,28.715,25.856Z" transform="translate(-24.319 -18.6)" fill="#010101"/>
        </g>
        <g id="Grupo_1193194" data-name="Grupo 1193194" transform="translate(0 12.576)">
          <path id="Trazado_1006871" data-name="Trazado 1006871" d="M17.826,17.577,7.95,7.7A32.348,32.348,0,0,0,1.5,23.22H15.609A19.374,19.374,0,0,1,17.826,17.577Z" transform="translate(0.595 -5.684)" fill="#77c587"/>
          <path id="Trazado_1006872" data-name="Trazado 1006872" d="M16.665,26.251H2.555a2.289,2.289,0,0,1-1.612-.6,1.568,1.568,0,0,1-.4-1.612A35.337,35.337,0,0,1,7.393,7.506,2.04,2.04,0,0,1,8.8,6.7a2.289,2.289,0,0,1,1.612.6l9.877,9.877a1.835,1.835,0,0,1,.2,2.419,15.549,15.549,0,0,0-2.016,5.039,1.911,1.911,0,0,1-1.814,1.612ZM4.974,22.22H15.052A15.6,15.6,0,0,1,16.463,19L9.207,11.941A30.8,30.8,0,0,0,4.974,22.22Z" transform="translate(-0.461 -6.7)" fill="#010101"/>
        </g>
        <g id="Grupo_1193195" data-name="Grupo 1193195" transform="translate(36.562 47.971)">
          <path id="Trazado_1006873" data-name="Trazado 1006873" d="M19.6,27.617V41.726a32.348,32.348,0,0,0,15.52-6.45L25.244,25.4A21.866,21.866,0,0,1,19.6,27.617Z" transform="translate(-17.584 -23.103)" fill="#a5c3d1"/>
          <path id="Trazado_1006874" data-name="Trazado 1006874" d="M19.2,44.295a2.289,2.289,0,0,1-.6-1.612V28.573a1.963,1.963,0,0,1,1.612-2.016,15.549,15.549,0,0,0,5.039-2.016,2.113,2.113,0,0,1,2.419.2l9.877,9.877a2.289,2.289,0,0,1,.6,1.612,1.7,1.7,0,0,1-.806,1.411A35.337,35.337,0,0,1,20.817,44.5a1.22,1.22,0,0,1-1.612-.2Zm3.427-14.109V40.263a30.8,30.8,0,0,0,10.28-4.233l-7.256-7.256A6.853,6.853,0,0,1,22.631,30.185Z" transform="translate(-18.6 -24.261)" fill="#010101"/>
        </g>
      </g>
      <g id="Grupo_1193201" data-name="Grupo 1193201" transform="translate(14.649 15.859)">
        <g id="Grupo_1193197" data-name="Grupo 1193197" transform="translate(28.823 27.412)">
          <path id="Trazado_1006875" data-name="Trazado 1006875" d="M43.367,43.267a6.9,6.9,0,0,1-10.481-.6L21.8,29.359a18.062,18.062,0,0,0,3.83-3.023A17.49,17.49,0,0,0,28.855,21.7L42.561,32.786A6.912,6.912,0,0,1,43.367,43.267Z" transform="translate(-21.8 -21.7)" fill="#ffca19"/>
        </g>
        <g id="Grupo_1193198" data-name="Grupo 1193198">
          <path id="Trazado_1006876" data-name="Trazado 1006876" d="M27.455,47.808A19.959,19.959,0,0,1,7.5,28.256a20.5,20.5,0,0,1,5.644-14.109,19.958,19.958,0,0,1,28.219-.4,19.771,19.771,0,0,1,.4,28.017A20.141,20.141,0,0,1,27.455,47.808Zm0-35.676a15.254,15.254,0,0,0-11.287,4.837,14.445,14.445,0,0,0-4.434,11.086A15.246,15.246,0,0,0,16.57,39.14a16.058,16.058,0,0,0,11.086,4.434,15.254,15.254,0,0,0,11.287-4.837,15.876,15.876,0,0,0-.2-22.373A17.782,17.782,0,0,0,27.455,12.131Z" transform="translate(-7.5 -8.1)" fill="#010101"/>
        </g>
        <g id="Grupo_1193199" data-name="Grupo 1193199" transform="translate(26.93 25.721)">
          <path id="Trazado_1006877" data-name="Trazado 1006877" d="M32.429,44.926l-11.086-13.1a1.568,1.568,0,0,1-.4-1.612A2.333,2.333,0,0,1,21.948,28.8a14.092,14.092,0,0,0,3.427-2.62A12.006,12.006,0,0,0,28.2,21.948a1.516,1.516,0,0,1,1.411-1.008,1.568,1.568,0,0,1,1.612.4L44.926,32.429a9.065,9.065,0,0,1,1.008,13.5C42.1,49.36,35.654,49.158,32.429,44.926ZM25.777,30.816l9.675,11.489a5.182,5.182,0,0,0,7.458.4,5.026,5.026,0,0,0-.6-7.458L30.413,25.777A15.9,15.9,0,0,1,27.995,28.8a10.564,10.564,0,0,1-2.217,2.016Z" transform="translate(-20.861 -20.861)" fill="#010101"/>
        </g>
        <g id="Grupo_1193200" data-name="Grupo 1193200" transform="translate(2.24 1.93)" opacity="0.1">
          <path id="Trazado_1006878" data-name="Trazado 1006878" d="M34.388,10.957A18.07,18.07,0,0,0,20.682,16.4a17.825,17.825,0,0,0,.4,25.2,16.6,16.6,0,0,0,4.434,3.225A17.121,17.121,0,0,1,14.031,39.78a17.825,17.825,0,0,1-.4-25.2,17.548,17.548,0,0,1,20.761-3.628Z" transform="translate(-8.611 -9.058)" fill="#030303"/>
        </g>
      </g>
    </g>
  </g>
</svg>
